<?xml version="1.0" encoding="utf-8" standalone="no"?>
<!DOCTYPE svg PUBLIC "-//W3C//DTD SVG 1.1//EN"
  "http://www.w3.org/Graphics/SVG/1.1/DTD/svg11.dtd">
<svg xmlns:xlink="http://www.w3.org/1999/xlink" width="288pt" height="288pt" viewBox="0 0 288 288" xmlns="http://www.w3.org/2000/svg" version="1.1">
 <metadata>
  <rdf:RDF xmlns:dc="http://purl.org/dc/elements/1.1/" xmlns:cc="http://creativecommons.org/ns#" xmlns:rdf="http://www.w3.org/1999/02/22-rdf-syntax-ns#">
   <cc:Work>
    <dc:type rdf:resource="http://purl.org/dc/dcmitype/StillImage"/>
    <dc:date>2025-05-12T14:19:41.495503</dc:date>
    <dc:format>image/svg+xml</dc:format>
    <dc:creator>
     <cc:Agent>
      <dc:title>Matplotlib v3.10.0, https://matplotlib.org/</dc:title>
     </cc:Agent>
    </dc:creator>
   </cc:Work>
  </rdf:RDF>
 </metadata>
 <defs>
  <style type="text/css">*{stroke-linejoin: round; stroke-linecap: butt}</style>
 </defs>
 <g id="figure_1">
  <g id="patch_1">
   <path d="M 0 288 
L 288 288 
L 288 0 
L 0 0 
z
" style="fill: #ffffff"/>
  </g>
  <g id="axes_1">
   <g id="patch_2">
    <path d="M 40.075 246.76 
L 277.2 246.76 
L 277.2 10.8 
L 40.075 10.8 
z
" style="fill: #ffffff"/>
   </g>
   <g id="patch_3">
    <path d="M 50.853409 246.76 
L 53.009091 246.76 
L 53.009091 243.045557 
L 50.853409 243.045557 
z
" clip-path="url(#pd908c61739)" style="fill: #888888; fill-opacity: 0.7; stroke: #000000; stroke-width: 0.202909; stroke-linejoin: miter"/>
   </g>
   <g id="patch_4">
    <path d="M 53.009091 246.76 
L 55.164773 246.76 
L 55.164773 244.902778 
L 53.009091 244.902778 
z
" clip-path="url(#pd908c61739)" style="fill: #888888; fill-opacity: 0.7; stroke: #000000; stroke-width: 0.202909; stroke-linejoin: miter"/>
   </g>
   <g id="patch_5">
    <path d="M 55.164773 246.76 
L 57.320455 246.76 
L 57.320455 231.902227 
L 55.164773 231.902227 
z
" clip-path="url(#pd908c61739)" style="fill: #888888; fill-opacity: 0.7; stroke: #000000; stroke-width: 0.202909; stroke-linejoin: miter"/>
   </g>
   <g id="patch_6">
    <path d="M 57.320455 246.76 
L 59.476136 246.76 
L 59.476136 239.331114 
L 57.320455 239.331114 
z
" clip-path="url(#pd908c61739)" style="fill: #888888; fill-opacity: 0.7; stroke: #000000; stroke-width: 0.202909; stroke-linejoin: miter"/>
   </g>
   <g id="patch_7">
    <path d="M 59.476136 246.76 
L 61.631818 246.76 
L 61.631818 226.330563 
L 59.476136 226.330563 
z
" clip-path="url(#pd908c61739)" style="fill: #888888; fill-opacity: 0.7; stroke: #000000; stroke-width: 0.202909; stroke-linejoin: miter"/>
   </g>
   <g id="patch_8">
    <path d="M 61.631818 246.76 
L 63.7875 246.76 
L 63.7875 213.330012 
L 61.631818 213.330012 
z
" clip-path="url(#pd908c61739)" style="fill: #888888; fill-opacity: 0.7; stroke: #000000; stroke-width: 0.202909; stroke-linejoin: miter"/>
   </g>
   <g id="patch_9">
    <path d="M 63.7875 246.76 
L 65.943182 246.76 
L 65.943182 211.47279 
L 63.7875 211.47279 
z
" clip-path="url(#pd908c61739)" style="fill: #888888; fill-opacity: 0.7; stroke: #000000; stroke-width: 0.202909; stroke-linejoin: miter"/>
   </g>
   <g id="patch_10">
    <path d="M 65.943182 246.76 
L 68.098864 246.76 
L 68.098864 183.614467 
L 65.943182 183.614467 
z
" clip-path="url(#pd908c61739)" style="fill: #888888; fill-opacity: 0.7; stroke: #000000; stroke-width: 0.202909; stroke-linejoin: miter"/>
   </g>
   <g id="patch_11">
    <path d="M 68.098864 246.76 
L 70.254545 246.76 
L 70.254545 179.900024 
L 68.098864 179.900024 
z
" clip-path="url(#pd908c61739)" style="fill: #888888; fill-opacity: 0.7; stroke: #000000; stroke-width: 0.202909; stroke-linejoin: miter"/>
   </g>
   <g id="patch_12">
    <path d="M 70.254545 246.76 
L 72.410227 246.76 
L 72.410227 176.18558 
L 70.254545 176.18558 
z
" clip-path="url(#pd908c61739)" style="fill: #888888; fill-opacity: 0.7; stroke: #000000; stroke-width: 0.202909; stroke-linejoin: miter"/>
   </g>
   <g id="patch_13">
    <path d="M 72.410227 246.76 
L 74.565909 246.76 
L 74.565909 107.468383 
L 72.410227 107.468383 
z
" clip-path="url(#pd908c61739)" style="fill: #888888; fill-opacity: 0.7; stroke: #000000; stroke-width: 0.202909; stroke-linejoin: miter"/>
   </g>
   <g id="patch_14">
    <path d="M 74.565909 246.76 
L 76.721591 246.76 
L 76.721591 122.326155 
L 74.565909 122.326155 
z
" clip-path="url(#pd908c61739)" style="fill: #888888; fill-opacity: 0.7; stroke: #000000; stroke-width: 0.202909; stroke-linejoin: miter"/>
   </g>
   <g id="patch_15">
    <path d="M 76.721591 246.76 
L 78.877273 246.76 
L 78.877273 103.753939 
L 76.721591 103.753939 
z
" clip-path="url(#pd908c61739)" style="fill: #888888; fill-opacity: 0.7; stroke: #000000; stroke-width: 0.202909; stroke-linejoin: miter"/>
   </g>
   <g id="patch_16">
    <path d="M 78.877273 246.76 
L 81.032955 246.76 
L 81.032955 87.038945 
L 78.877273 87.038945 
z
" clip-path="url(#pd908c61739)" style="fill: #888888; fill-opacity: 0.7; stroke: #000000; stroke-width: 0.202909; stroke-linejoin: miter"/>
   </g>
   <g id="patch_17">
    <path d="M 81.032955 246.76 
L 83.188636 246.76 
L 83.188636 74.038394 
L 81.032955 74.038394 
z
" clip-path="url(#pd908c61739)" style="fill: #888888; fill-opacity: 0.7; stroke: #000000; stroke-width: 0.202909; stroke-linejoin: miter"/>
   </g>
   <g id="patch_18">
    <path d="M 83.188636 246.76 
L 85.344318 246.76 
L 85.344318 64.752287 
L 83.188636 64.752287 
z
" clip-path="url(#pd908c61739)" style="fill: #888888; fill-opacity: 0.7; stroke: #000000; stroke-width: 0.202909; stroke-linejoin: miter"/>
   </g>
   <g id="patch_19">
    <path d="M 85.344318 246.76 
L 87.5 246.76 
L 87.5 49.894514 
L 85.344318 49.894514 
z
" clip-path="url(#pd908c61739)" style="fill: #888888; fill-opacity: 0.7; stroke: #000000; stroke-width: 0.202909; stroke-linejoin: miter"/>
   </g>
   <g id="patch_20">
    <path d="M 87.5 246.76 
L 89.655682 246.76 
L 89.655682 40.608406 
L 87.5 40.608406 
z
" clip-path="url(#pd908c61739)" style="fill: #888888; fill-opacity: 0.7; stroke: #000000; stroke-width: 0.202909; stroke-linejoin: miter"/>
   </g>
   <g id="patch_21">
    <path d="M 89.655682 246.76 
L 91.811364 246.76 
L 91.811364 38.751185 
L 89.655682 38.751185 
z
" clip-path="url(#pd908c61739)" style="fill: #888888; fill-opacity: 0.7; stroke: #000000; stroke-width: 0.202909; stroke-linejoin: miter"/>
   </g>
   <g id="patch_22">
    <path d="M 91.811364 246.76 
L 93.967045 246.76 
L 93.967045 22.03619 
L 91.811364 22.03619 
z
" clip-path="url(#pd908c61739)" style="fill: #888888; fill-opacity: 0.7; stroke: #000000; stroke-width: 0.202909; stroke-linejoin: miter"/>
   </g>
   <g id="patch_23">
    <path d="M 93.967045 246.76 
L 96.122727 246.76 
L 96.122727 92.61061 
L 93.967045 92.61061 
z
" clip-path="url(#pd908c61739)" style="fill: #888888; fill-opacity: 0.7; stroke: #000000; stroke-width: 0.202909; stroke-linejoin: miter"/>
   </g>
   <g id="patch_24">
    <path d="M 96.122727 246.76 
L 98.278409 246.76 
L 98.278409 62.895065 
L 96.122727 62.895065 
z
" clip-path="url(#pd908c61739)" style="fill: #888888; fill-opacity: 0.7; stroke: #000000; stroke-width: 0.202909; stroke-linejoin: miter"/>
   </g>
   <g id="patch_25">
    <path d="M 98.278409 246.76 
L 100.434091 246.76 
L 100.434091 101.896718 
L 98.278409 101.896718 
z
" clip-path="url(#pd908c61739)" style="fill: #888888; fill-opacity: 0.7; stroke: #000000; stroke-width: 0.202909; stroke-linejoin: miter"/>
   </g>
   <g id="patch_26">
    <path d="M 100.434091 246.76 
L 102.589773 246.76 
L 102.589773 90.753388 
L 100.434091 90.753388 
z
" clip-path="url(#pd908c61739)" style="fill: #888888; fill-opacity: 0.7; stroke: #000000; stroke-width: 0.202909; stroke-linejoin: miter"/>
   </g>
   <g id="patch_27">
    <path d="M 102.589773 246.76 
L 104.745455 246.76 
L 104.745455 105.611161 
L 102.589773 105.611161 
z
" clip-path="url(#pd908c61739)" style="fill: #888888; fill-opacity: 0.7; stroke: #000000; stroke-width: 0.202909; stroke-linejoin: miter"/>
   </g>
   <g id="patch_28">
    <path d="M 104.745455 246.76 
L 106.901136 246.76 
L 106.901136 114.897269 
L 104.745455 114.897269 
z
" clip-path="url(#pd908c61739)" style="fill: #888888; fill-opacity: 0.7; stroke: #000000; stroke-width: 0.202909; stroke-linejoin: miter"/>
   </g>
   <g id="patch_29">
    <path d="M 106.901136 246.76 
L 109.056818 246.76 
L 109.056818 81.467281 
L 106.901136 81.467281 
z
" clip-path="url(#pd908c61739)" style="fill: #888888; fill-opacity: 0.7; stroke: #000000; stroke-width: 0.202909; stroke-linejoin: miter"/>
   </g>
   <g id="patch_30">
    <path d="M 109.056818 246.76 
L 111.2125 246.76 
L 111.2125 137.183928 
L 109.056818 137.183928 
z
" clip-path="url(#pd908c61739)" style="fill: #888888; fill-opacity: 0.7; stroke: #000000; stroke-width: 0.202909; stroke-linejoin: miter"/>
   </g>
   <g id="patch_31">
    <path d="M 111.2125 246.76 
L 113.368182 246.76 
L 113.368182 159.470586 
L 111.2125 159.470586 
z
" clip-path="url(#pd908c61739)" style="fill: #888888; fill-opacity: 0.7; stroke: #000000; stroke-width: 0.202909; stroke-linejoin: miter"/>
   </g>
   <g id="patch_32">
    <path d="M 113.368182 246.76 
L 115.523864 246.76 
L 115.523864 159.470586 
L 113.368182 159.470586 
z
" clip-path="url(#pd908c61739)" style="fill: #888888; fill-opacity: 0.7; stroke: #000000; stroke-width: 0.202909; stroke-linejoin: miter"/>
   </g>
   <g id="patch_33">
    <path d="M 115.523864 246.76 
L 117.679545 246.76 
L 117.679545 163.18503 
L 115.523864 163.18503 
z
" clip-path="url(#pd908c61739)" style="fill: #888888; fill-opacity: 0.7; stroke: #000000; stroke-width: 0.202909; stroke-linejoin: miter"/>
   </g>
   <g id="patch_34">
    <path d="M 117.679545 246.76 
L 119.835227 246.76 
L 119.835227 181.757245 
L 117.679545 181.757245 
z
" clip-path="url(#pd908c61739)" style="fill: #888888; fill-opacity: 0.7; stroke: #000000; stroke-width: 0.202909; stroke-linejoin: miter"/>
   </g>
   <g id="patch_35">
    <path d="M 119.835227 246.76 
L 121.990909 246.76 
L 121.990909 183.614467 
L 119.835227 183.614467 
z
" clip-path="url(#pd908c61739)" style="fill: #888888; fill-opacity: 0.7; stroke: #000000; stroke-width: 0.202909; stroke-linejoin: miter"/>
   </g>
   <g id="patch_36">
    <path d="M 121.990909 246.76 
L 124.146591 246.76 
L 124.146591 191.043353 
L 121.990909 191.043353 
z
" clip-path="url(#pd908c61739)" style="fill: #888888; fill-opacity: 0.7; stroke: #000000; stroke-width: 0.202909; stroke-linejoin: miter"/>
   </g>
   <g id="patch_37">
    <path d="M 124.146591 246.76 
L 126.302273 246.76 
L 126.302273 209.615569 
L 124.146591 209.615569 
z
" clip-path="url(#pd908c61739)" style="fill: #888888; fill-opacity: 0.7; stroke: #000000; stroke-width: 0.202909; stroke-linejoin: miter"/>
   </g>
   <g id="patch_38">
    <path d="M 126.302273 246.76 
L 128.457955 246.76 
L 128.457955 204.043904 
L 126.302273 204.043904 
z
" clip-path="url(#pd908c61739)" style="fill: #888888; fill-opacity: 0.7; stroke: #000000; stroke-width: 0.202909; stroke-linejoin: miter"/>
   </g>
   <g id="patch_39">
    <path d="M 128.457955 246.76 
L 130.613636 246.76 
L 130.613636 205.901126 
L 128.457955 205.901126 
z
" clip-path="url(#pd908c61739)" style="fill: #888888; fill-opacity: 0.7; stroke: #000000; stroke-width: 0.202909; stroke-linejoin: miter"/>
   </g>
   <g id="patch_40">
    <path d="M 130.613636 246.76 
L 132.769318 246.76 
L 132.769318 198.472239 
L 130.613636 198.472239 
z
" clip-path="url(#pd908c61739)" style="fill: #888888; fill-opacity: 0.7; stroke: #000000; stroke-width: 0.202909; stroke-linejoin: miter"/>
   </g>
   <g id="patch_41">
    <path d="M 132.769318 246.76 
L 134.925 246.76 
L 134.925 202.186682 
L 132.769318 202.186682 
z
" clip-path="url(#pd908c61739)" style="fill: #888888; fill-opacity: 0.7; stroke: #000000; stroke-width: 0.202909; stroke-linejoin: miter"/>
   </g>
   <g id="patch_42">
    <path d="M 134.925 246.76 
L 137.080682 246.76 
L 137.080682 230.045006 
L 134.925 230.045006 
z
" clip-path="url(#pd908c61739)" style="fill: #888888; fill-opacity: 0.7; stroke: #000000; stroke-width: 0.202909; stroke-linejoin: miter"/>
   </g>
   <g id="patch_43">
    <path d="M 137.080682 246.76 
L 139.236364 246.76 
L 139.236364 204.043904 
L 137.080682 204.043904 
z
" clip-path="url(#pd908c61739)" style="fill: #888888; fill-opacity: 0.7; stroke: #000000; stroke-width: 0.202909; stroke-linejoin: miter"/>
   </g>
   <g id="patch_44">
    <path d="M 139.236364 246.76 
L 141.392045 246.76 
L 141.392045 204.043904 
L 139.236364 204.043904 
z
" clip-path="url(#pd908c61739)" style="fill: #888888; fill-opacity: 0.7; stroke: #000000; stroke-width: 0.202909; stroke-linejoin: miter"/>
   </g>
   <g id="patch_45">
    <path d="M 141.392045 246.76 
L 143.547727 246.76 
L 143.547727 202.186682 
L 141.392045 202.186682 
z
" clip-path="url(#pd908c61739)" style="fill: #888888; fill-opacity: 0.7; stroke: #000000; stroke-width: 0.202909; stroke-linejoin: miter"/>
   </g>
   <g id="patch_46">
    <path d="M 143.547727 246.76 
L 145.703409 246.76 
L 145.703409 183.614467 
L 143.547727 183.614467 
z
" clip-path="url(#pd908c61739)" style="fill: #888888; fill-opacity: 0.7; stroke: #000000; stroke-width: 0.202909; stroke-linejoin: miter"/>
   </g>
   <g id="patch_47">
    <path d="M 145.703409 246.76 
L 147.859091 246.76 
L 147.859091 165.042251 
L 145.703409 165.042251 
z
" clip-path="url(#pd908c61739)" style="fill: #888888; fill-opacity: 0.7; stroke: #000000; stroke-width: 0.202909; stroke-linejoin: miter"/>
   </g>
   <g id="patch_48">
    <path d="M 147.859091 246.76 
L 150.014773 246.76 
L 150.014773 137.183928 
L 147.859091 137.183928 
z
" clip-path="url(#pd908c61739)" style="fill: #888888; fill-opacity: 0.7; stroke: #000000; stroke-width: 0.202909; stroke-linejoin: miter"/>
   </g>
   <g id="patch_49">
    <path d="M 150.014773 246.76 
L 152.170455 246.76 
L 152.170455 153.898922 
L 150.014773 153.898922 
z
" clip-path="url(#pd908c61739)" style="fill: #888888; fill-opacity: 0.7; stroke: #000000; stroke-width: 0.202909; stroke-linejoin: miter"/>
   </g>
   <g id="patch_50">
    <path d="M 152.170455 246.76 
L 154.326136 246.76 
L 154.326136 140.898371 
L 152.170455 140.898371 
z
" clip-path="url(#pd908c61739)" style="fill: #888888; fill-opacity: 0.7; stroke: #000000; stroke-width: 0.202909; stroke-linejoin: miter"/>
   </g>
   <g id="patch_51">
    <path d="M 154.326136 246.76 
L 156.481818 246.76 
L 156.481818 124.183377 
L 154.326136 124.183377 
z
" clip-path="url(#pd908c61739)" style="fill: #888888; fill-opacity: 0.7; stroke: #000000; stroke-width: 0.202909; stroke-linejoin: miter"/>
   </g>
   <g id="patch_52">
    <path d="M 156.481818 246.76 
L 158.6375 246.76 
L 158.6375 96.325053 
L 156.481818 96.325053 
z
" clip-path="url(#pd908c61739)" style="fill: #888888; fill-opacity: 0.7; stroke: #000000; stroke-width: 0.202909; stroke-linejoin: miter"/>
   </g>
   <g id="patch_53">
    <path d="M 158.6375 246.76 
L 160.793182 246.76 
L 160.793182 107.468383 
L 158.6375 107.468383 
z
" clip-path="url(#pd908c61739)" style="fill: #888888; fill-opacity: 0.7; stroke: #000000; stroke-width: 0.202909; stroke-linejoin: miter"/>
   </g>
   <g id="patch_54">
    <path d="M 160.793182 246.76 
L 162.948864 246.76 
L 162.948864 88.896167 
L 160.793182 88.896167 
z
" clip-path="url(#pd908c61739)" style="fill: #888888; fill-opacity: 0.7; stroke: #000000; stroke-width: 0.202909; stroke-linejoin: miter"/>
   </g>
   <g id="patch_55">
    <path d="M 162.948864 246.76 
L 165.104545 246.76 
L 165.104545 96.325053 
L 162.948864 96.325053 
z
" clip-path="url(#pd908c61739)" style="fill: #888888; fill-opacity: 0.7; stroke: #000000; stroke-width: 0.202909; stroke-linejoin: miter"/>
   </g>
   <g id="patch_56">
    <path d="M 165.104545 246.76 
L 167.260227 246.76 
L 167.260227 85.181724 
L 165.104545 85.181724 
z
" clip-path="url(#pd908c61739)" style="fill: #888888; fill-opacity: 0.7; stroke: #000000; stroke-width: 0.202909; stroke-linejoin: miter"/>
   </g>
   <g id="patch_57">
    <path d="M 167.260227 246.76 
L 169.415909 246.76 
L 169.415909 57.3234 
L 167.260227 57.3234 
z
" clip-path="url(#pd908c61739)" style="fill: #888888; fill-opacity: 0.7; stroke: #000000; stroke-width: 0.202909; stroke-linejoin: miter"/>
   </g>
   <g id="patch_58">
    <path d="M 169.415909 246.76 
L 171.571591 246.76 
L 171.571591 74.038394 
L 169.415909 74.038394 
z
" clip-path="url(#pd908c61739)" style="fill: #888888; fill-opacity: 0.7; stroke: #000000; stroke-width: 0.202909; stroke-linejoin: miter"/>
   </g>
   <g id="patch_59">
    <path d="M 171.571591 246.76 
L 173.727273 246.76 
L 173.727273 81.467281 
L 171.571591 81.467281 
z
" clip-path="url(#pd908c61739)" style="fill: #888888; fill-opacity: 0.7; stroke: #000000; stroke-width: 0.202909; stroke-linejoin: miter"/>
   </g>
   <g id="patch_60">
    <path d="M 173.727273 246.76 
L 175.882955 246.76 
L 175.882955 116.75449 
L 173.727273 116.75449 
z
" clip-path="url(#pd908c61739)" style="fill: #888888; fill-opacity: 0.7; stroke: #000000; stroke-width: 0.202909; stroke-linejoin: miter"/>
   </g>
   <g id="patch_61">
    <path d="M 175.882955 246.76 
L 178.038636 246.76 
L 178.038636 101.896718 
L 175.882955 101.896718 
z
" clip-path="url(#pd908c61739)" style="fill: #888888; fill-opacity: 0.7; stroke: #000000; stroke-width: 0.202909; stroke-linejoin: miter"/>
   </g>
   <g id="patch_62">
    <path d="M 178.038636 246.76 
L 180.194318 246.76 
L 180.194318 122.326155 
L 178.038636 122.326155 
z
" clip-path="url(#pd908c61739)" style="fill: #888888; fill-opacity: 0.7; stroke: #000000; stroke-width: 0.202909; stroke-linejoin: miter"/>
   </g>
   <g id="patch_63">
    <path d="M 180.194318 246.76 
L 182.35 246.76 
L 182.35 111.182826 
L 180.194318 111.182826 
z
" clip-path="url(#pd908c61739)" style="fill: #888888; fill-opacity: 0.7; stroke: #000000; stroke-width: 0.202909; stroke-linejoin: miter"/>
   </g>
   <g id="patch_64">
    <path d="M 182.35 246.76 
L 184.505682 246.76 
L 184.505682 92.61061 
L 182.35 92.61061 
z
" clip-path="url(#pd908c61739)" style="fill: #888888; fill-opacity: 0.7; stroke: #000000; stroke-width: 0.202909; stroke-linejoin: miter"/>
   </g>
   <g id="patch_65">
    <path d="M 184.505682 246.76 
L 186.661364 246.76 
L 186.661364 161.327808 
L 184.505682 161.327808 
z
" clip-path="url(#pd908c61739)" style="fill: #888888; fill-opacity: 0.7; stroke: #000000; stroke-width: 0.202909; stroke-linejoin: miter"/>
   </g>
   <g id="patch_66">
    <path d="M 186.661364 246.76 
L 188.817045 246.76 
L 188.817045 135.326706 
L 186.661364 135.326706 
z
" clip-path="url(#pd908c61739)" style="fill: #888888; fill-opacity: 0.7; stroke: #000000; stroke-width: 0.202909; stroke-linejoin: miter"/>
   </g>
   <g id="patch_67">
    <path d="M 188.817045 246.76 
L 190.972727 246.76 
L 190.972727 133.469484 
L 188.817045 133.469484 
z
" clip-path="url(#pd908c61739)" style="fill: #888888; fill-opacity: 0.7; stroke: #000000; stroke-width: 0.202909; stroke-linejoin: miter"/>
   </g>
   <g id="patch_68">
    <path d="M 190.972727 246.76 
L 193.128409 246.76 
L 193.128409 179.900024 
L 190.972727 179.900024 
z
" clip-path="url(#pd908c61739)" style="fill: #888888; fill-opacity: 0.7; stroke: #000000; stroke-width: 0.202909; stroke-linejoin: miter"/>
   </g>
   <g id="patch_69">
    <path d="M 193.128409 246.76 
L 195.284091 246.76 
L 195.284091 176.18558 
L 193.128409 176.18558 
z
" clip-path="url(#pd908c61739)" style="fill: #888888; fill-opacity: 0.7; stroke: #000000; stroke-width: 0.202909; stroke-linejoin: miter"/>
   </g>
   <g id="patch_70">
    <path d="M 195.284091 246.76 
L 197.439773 246.76 
L 197.439773 191.043353 
L 195.284091 191.043353 
z
" clip-path="url(#pd908c61739)" style="fill: #888888; fill-opacity: 0.7; stroke: #000000; stroke-width: 0.202909; stroke-linejoin: miter"/>
   </g>
   <g id="patch_71">
    <path d="M 197.439773 246.76 
L 199.595455 246.76 
L 199.595455 189.186131 
L 197.439773 189.186131 
z
" clip-path="url(#pd908c61739)" style="fill: #888888; fill-opacity: 0.7; stroke: #000000; stroke-width: 0.202909; stroke-linejoin: miter"/>
   </g>
   <g id="patch_72">
    <path d="M 199.595455 246.76 
L 201.751136 246.76 
L 201.751136 213.330012 
L 199.595455 213.330012 
z
" clip-path="url(#pd908c61739)" style="fill: #888888; fill-opacity: 0.7; stroke: #000000; stroke-width: 0.202909; stroke-linejoin: miter"/>
   </g>
   <g id="patch_73">
    <path d="M 201.751136 246.76 
L 203.906818 246.76 
L 203.906818 209.615569 
L 201.751136 209.615569 
z
" clip-path="url(#pd908c61739)" style="fill: #888888; fill-opacity: 0.7; stroke: #000000; stroke-width: 0.202909; stroke-linejoin: miter"/>
   </g>
   <g id="patch_74">
    <path d="M 203.906818 246.76 
L 206.0625 246.76 
L 206.0625 215.187233 
L 203.906818 215.187233 
z
" clip-path="url(#pd908c61739)" style="fill: #888888; fill-opacity: 0.7; stroke: #000000; stroke-width: 0.202909; stroke-linejoin: miter"/>
   </g>
   <g id="patch_75">
    <path d="M 206.0625 246.76 
L 208.218182 246.76 
L 208.218182 220.758898 
L 206.0625 220.758898 
z
" clip-path="url(#pd908c61739)" style="fill: #888888; fill-opacity: 0.7; stroke: #000000; stroke-width: 0.202909; stroke-linejoin: miter"/>
   </g>
   <g id="patch_76">
    <path d="M 208.218182 246.76 
L 210.373864 246.76 
L 210.373864 226.330563 
L 208.218182 226.330563 
z
" clip-path="url(#pd908c61739)" style="fill: #888888; fill-opacity: 0.7; stroke: #000000; stroke-width: 0.202909; stroke-linejoin: miter"/>
   </g>
   <g id="patch_77">
    <path d="M 210.373864 246.76 
L 212.529545 246.76 
L 212.529545 217.044455 
L 210.373864 217.044455 
z
" clip-path="url(#pd908c61739)" style="fill: #888888; fill-opacity: 0.7; stroke: #000000; stroke-width: 0.202909; stroke-linejoin: miter"/>
   </g>
   <g id="patch_78">
    <path d="M 212.529545 246.76 
L 214.685227 246.76 
L 214.685227 235.616671 
L 212.529545 235.616671 
z
" clip-path="url(#pd908c61739)" style="fill: #888888; fill-opacity: 0.7; stroke: #000000; stroke-width: 0.202909; stroke-linejoin: miter"/>
   </g>
   <g id="patch_79">
    <path d="M 214.685227 246.76 
L 216.840909 246.76 
L 216.840909 237.473892 
L 214.685227 237.473892 
z
" clip-path="url(#pd908c61739)" style="fill: #888888; fill-opacity: 0.7; stroke: #000000; stroke-width: 0.202909; stroke-linejoin: miter"/>
   </g>
   <g id="patch_80">
    <path d="M 216.840909 246.76 
L 218.996591 246.76 
L 218.996591 226.330563 
L 216.840909 226.330563 
z
" clip-path="url(#pd908c61739)" style="fill: #888888; fill-opacity: 0.7; stroke: #000000; stroke-width: 0.202909; stroke-linejoin: miter"/>
   </g>
   <g id="patch_81">
    <path d="M 218.996591 246.76 
L 221.152273 246.76 
L 221.152273 239.331114 
L 218.996591 239.331114 
z
" clip-path="url(#pd908c61739)" style="fill: #888888; fill-opacity: 0.7; stroke: #000000; stroke-width: 0.202909; stroke-linejoin: miter"/>
   </g>
   <g id="patch_82">
    <path d="M 221.152273 246.76 
L 223.307955 246.76 
L 223.307955 237.473892 
L 221.152273 237.473892 
z
" clip-path="url(#pd908c61739)" style="fill: #888888; fill-opacity: 0.7; stroke: #000000; stroke-width: 0.202909; stroke-linejoin: miter"/>
   </g>
   <g id="patch_83">
    <path d="M 223.307955 246.76 
L 225.463636 246.76 
L 225.463636 241.188335 
L 223.307955 241.188335 
z
" clip-path="url(#pd908c61739)" style="fill: #888888; fill-opacity: 0.7; stroke: #000000; stroke-width: 0.202909; stroke-linejoin: miter"/>
   </g>
   <g id="patch_84">
    <path d="M 225.463636 246.76 
L 227.619318 246.76 
L 227.619318 246.76 
L 225.463636 246.76 
z
" clip-path="url(#pd908c61739)" style="fill: #888888; fill-opacity: 0.7; stroke: #000000; stroke-width: 0.202909; stroke-linejoin: miter"/>
   </g>
   <g id="patch_85">
    <path d="M 227.619318 246.76 
L 229.775 246.76 
L 229.775 244.902778 
L 227.619318 244.902778 
z
" clip-path="url(#pd908c61739)" style="fill: #888888; fill-opacity: 0.7; stroke: #000000; stroke-width: 0.202909; stroke-linejoin: miter"/>
   </g>
   <g id="patch_86">
    <path d="M 229.775 246.76 
L 231.930682 246.76 
L 231.930682 246.76 
L 229.775 246.76 
z
" clip-path="url(#pd908c61739)" style="fill: #888888; fill-opacity: 0.7; stroke: #000000; stroke-width: 0.202909; stroke-linejoin: miter"/>
   </g>
   <g id="patch_87">
    <path d="M 231.930682 246.76 
L 234.086364 246.76 
L 234.086364 243.045557 
L 231.930682 243.045557 
z
" clip-path="url(#pd908c61739)" style="fill: #888888; fill-opacity: 0.7; stroke: #000000; stroke-width: 0.202909; stroke-linejoin: miter"/>
   </g>
   <g id="patch_88">
    <path d="M 234.086364 246.76 
L 236.242045 246.76 
L 236.242045 244.902778 
L 234.086364 244.902778 
z
" clip-path="url(#pd908c61739)" style="fill: #888888; fill-opacity: 0.7; stroke: #000000; stroke-width: 0.202909; stroke-linejoin: miter"/>
   </g>
   <g id="patch_89">
    <path d="M 236.242045 246.76 
L 238.397727 246.76 
L 238.397727 244.902778 
L 236.242045 244.902778 
z
" clip-path="url(#pd908c61739)" style="fill: #888888; fill-opacity: 0.7; stroke: #000000; stroke-width: 0.202909; stroke-linejoin: miter"/>
   </g>
   <g id="patch_90">
    <path d="M 238.397727 246.76 
L 240.553409 246.76 
L 240.553409 246.76 
L 238.397727 246.76 
z
" clip-path="url(#pd908c61739)" style="fill: #888888; fill-opacity: 0.7; stroke: #000000; stroke-width: 0.202909; stroke-linejoin: miter"/>
   </g>
   <g id="patch_91">
    <path d="M 240.553409 246.76 
L 242.709091 246.76 
L 242.709091 246.76 
L 240.553409 246.76 
z
" clip-path="url(#pd908c61739)" style="fill: #888888; fill-opacity: 0.7; stroke: #000000; stroke-width: 0.202909; stroke-linejoin: miter"/>
   </g>
   <g id="patch_92">
    <path d="M 242.709091 246.76 
L 244.864773 246.76 
L 244.864773 246.76 
L 242.709091 246.76 
z
" clip-path="url(#pd908c61739)" style="fill: #888888; fill-opacity: 0.7; stroke: #000000; stroke-width: 0.202909; stroke-linejoin: miter"/>
   </g>
   <g id="patch_93">
    <path d="M 244.864773 246.76 
L 247.020455 246.76 
L 247.020455 246.76 
L 244.864773 246.76 
z
" clip-path="url(#pd908c61739)" style="fill: #888888; fill-opacity: 0.7; stroke: #000000; stroke-width: 0.202909; stroke-linejoin: miter"/>
   </g>
   <g id="patch_94">
    <path d="M 247.020455 246.76 
L 249.176136 246.76 
L 249.176136 246.76 
L 247.020455 246.76 
z
" clip-path="url(#pd908c61739)" style="fill: #888888; fill-opacity: 0.7; stroke: #000000; stroke-width: 0.202909; stroke-linejoin: miter"/>
   </g>
   <g id="patch_95">
    <path d="M 249.176136 246.76 
L 251.331818 246.76 
L 251.331818 246.76 
L 249.176136 246.76 
z
" clip-path="url(#pd908c61739)" style="fill: #888888; fill-opacity: 0.7; stroke: #000000; stroke-width: 0.202909; stroke-linejoin: miter"/>
   </g>
   <g id="patch_96">
    <path d="M 251.331818 246.76 
L 253.4875 246.76 
L 253.4875 246.76 
L 251.331818 246.76 
z
" clip-path="url(#pd908c61739)" style="fill: #888888; fill-opacity: 0.7; stroke: #000000; stroke-width: 0.202909; stroke-linejoin: miter"/>
   </g>
   <g id="patch_97">
    <path d="M 253.4875 246.76 
L 255.643182 246.76 
L 255.643182 246.76 
L 253.4875 246.76 
z
" clip-path="url(#pd908c61739)" style="fill: #888888; fill-opacity: 0.7; stroke: #000000; stroke-width: 0.202909; stroke-linejoin: miter"/>
   </g>
   <g id="patch_98">
    <path d="M 255.643182 246.76 
L 257.798864 246.76 
L 257.798864 246.76 
L 255.643182 246.76 
z
" clip-path="url(#pd908c61739)" style="fill: #888888; fill-opacity: 0.7; stroke: #000000; stroke-width: 0.202909; stroke-linejoin: miter"/>
   </g>
   <g id="patch_99">
    <path d="M 257.798864 246.76 
L 259.954545 246.76 
L 259.954545 246.76 
L 257.798864 246.76 
z
" clip-path="url(#pd908c61739)" style="fill: #888888; fill-opacity: 0.7; stroke: #000000; stroke-width: 0.202909; stroke-linejoin: miter"/>
   </g>
   <g id="patch_100">
    <path d="M 259.954545 246.76 
L 262.110227 246.76 
L 262.110227 246.76 
L 259.954545 246.76 
z
" clip-path="url(#pd908c61739)" style="fill: #888888; fill-opacity: 0.7; stroke: #000000; stroke-width: 0.202909; stroke-linejoin: miter"/>
   </g>
   <g id="patch_101">
    <path d="M 262.110227 246.76 
L 264.265909 246.76 
L 264.265909 246.76 
L 262.110227 246.76 
z
" clip-path="url(#pd908c61739)" style="fill: #888888; fill-opacity: 0.7; stroke: #000000; stroke-width: 0.202909; stroke-linejoin: miter"/>
   </g>
   <g id="patch_102">
    <path d="M 264.265909 246.76 
L 266.421591 246.76 
L 266.421591 244.902778 
L 264.265909 244.902778 
z
" clip-path="url(#pd908c61739)" style="fill: #888888; fill-opacity: 0.7; stroke: #000000; stroke-width: 0.202909; stroke-linejoin: miter"/>
   </g>
   <g id="matplotlib.axis_1">
    <g id="xtick_1">
     <g id="line2d_1">
      <defs>
       <path id="m03886d5f00" d="M 0 0 
L 0 3.5 
" style="stroke: #000000; stroke-width: 0.8"/>
      </defs>
      <g>
       <use xlink:href="#m03886d5f00" x="70.118449" y="246.76" style="stroke: #000000; stroke-width: 0.8"/>
      </g>
     </g>
     <g id="text_1">
      <!-- 10 -->
      <g transform="translate(63.755949 261.358437) scale(0.1 -0.1)">
       <defs>
        <path id="DejaVuSans-31" d="M 794 531 
L 1825 531 
L 1825 4091 
L 703 3866 
L 703 4441 
L 1819 4666 
L 2450 4666 
L 2450 531 
L 3481 531 
L 3481 0 
L 794 0 
L 794 531 
z
" transform="scale(0.015625)"/>
        <path id="DejaVuSans-30" d="M 2034 4250 
Q 1547 4250 1301 3770 
Q 1056 3291 1056 2328 
Q 1056 1369 1301 889 
Q 1547 409 2034 409 
Q 2525 409 2770 889 
Q 3016 1369 3016 2328 
Q 3016 3291 2770 3770 
Q 2525 4250 2034 4250 
z
M 2034 4750 
Q 2819 4750 3233 4129 
Q 3647 3509 3647 2328 
Q 3647 1150 3233 529 
Q 2819 -91 2034 -91 
Q 1250 -91 836 529 
Q 422 1150 422 2328 
Q 422 3509 836 4129 
Q 1250 4750 2034 4750 
z
" transform="scale(0.015625)"/>
       </defs>
       <use xlink:href="#DejaVuSans-31"/>
       <use xlink:href="#DejaVuSans-30" transform="translate(63.623047 0)"/>
      </g>
     </g>
    </g>
    <g id="xtick_2">
     <g id="line2d_2">
      <g>
       <use xlink:href="#m03886d5f00" x="133.533895" y="246.76" style="stroke: #000000; stroke-width: 0.8"/>
      </g>
     </g>
     <g id="text_2">
      <!-- 20 -->
      <g transform="translate(127.171395 261.358437) scale(0.1 -0.1)">
       <defs>
        <path id="DejaVuSans-32" d="M 1228 531 
L 3431 531 
L 3431 0 
L 469 0 
L 469 531 
Q 828 903 1448 1529 
Q 2069 2156 2228 2338 
Q 2531 2678 2651 2914 
Q 2772 3150 2772 3378 
Q 2772 3750 2511 3984 
Q 2250 4219 1831 4219 
Q 1534 4219 1204 4116 
Q 875 4013 500 3803 
L 500 4441 
Q 881 4594 1212 4672 
Q 1544 4750 1819 4750 
Q 2544 4750 2975 4387 
Q 3406 4025 3406 3419 
Q 3406 3131 3298 2873 
Q 3191 2616 2906 2266 
Q 2828 2175 2409 1742 
Q 1991 1309 1228 531 
z
" transform="scale(0.015625)"/>
       </defs>
       <use xlink:href="#DejaVuSans-32"/>
       <use xlink:href="#DejaVuSans-30" transform="translate(63.623047 0)"/>
      </g>
     </g>
    </g>
    <g id="xtick_3">
     <g id="line2d_3">
      <g>
       <use xlink:href="#m03886d5f00" x="196.949341" y="246.76" style="stroke: #000000; stroke-width: 0.8"/>
      </g>
     </g>
     <g id="text_3">
      <!-- 30 -->
      <g transform="translate(190.586841 261.358437) scale(0.1 -0.1)">
       <defs>
        <path id="DejaVuSans-33" d="M 2597 2516 
Q 3050 2419 3304 2112 
Q 3559 1806 3559 1356 
Q 3559 666 3084 287 
Q 2609 -91 1734 -91 
Q 1441 -91 1130 -33 
Q 819 25 488 141 
L 488 750 
Q 750 597 1062 519 
Q 1375 441 1716 441 
Q 2309 441 2620 675 
Q 2931 909 2931 1356 
Q 2931 1769 2642 2001 
Q 2353 2234 1838 2234 
L 1294 2234 
L 1294 2753 
L 1863 2753 
Q 2328 2753 2575 2939 
Q 2822 3125 2822 3475 
Q 2822 3834 2567 4026 
Q 2313 4219 1838 4219 
Q 1578 4219 1281 4162 
Q 984 4106 628 3988 
L 628 4550 
Q 988 4650 1302 4700 
Q 1616 4750 1894 4750 
Q 2613 4750 3031 4423 
Q 3450 4097 3450 3541 
Q 3450 3153 3228 2886 
Q 3006 2619 2597 2516 
z
" transform="scale(0.015625)"/>
       </defs>
       <use xlink:href="#DejaVuSans-33"/>
       <use xlink:href="#DejaVuSans-30" transform="translate(63.623047 0)"/>
      </g>
     </g>
    </g>
    <g id="xtick_4">
     <g id="line2d_4">
      <g>
       <use xlink:href="#m03886d5f00" x="260.364787" y="246.76" style="stroke: #000000; stroke-width: 0.8"/>
      </g>
     </g>
     <g id="text_4">
      <!-- 40 -->
      <g transform="translate(254.002287 261.358437) scale(0.1 -0.1)">
       <defs>
        <path id="DejaVuSans-34" d="M 2419 4116 
L 825 1625 
L 2419 1625 
L 2419 4116 
z
M 2253 4666 
L 3047 4666 
L 3047 1625 
L 3713 1625 
L 3713 1100 
L 3047 1100 
L 3047 0 
L 2419 0 
L 2419 1100 
L 313 1100 
L 313 1709 
L 2253 4666 
z
" transform="scale(0.015625)"/>
       </defs>
       <use xlink:href="#DejaVuSans-34"/>
       <use xlink:href="#DejaVuSans-30" transform="translate(63.623047 0)"/>
      </g>
     </g>
    </g>
    <g id="text_5">
     <!-- Processing Time -->
     <g transform="translate(118.117969 275.036563) scale(0.1 -0.1)">
      <defs>
       <path id="DejaVuSans-50" d="M 1259 4147 
L 1259 2394 
L 2053 2394 
Q 2494 2394 2734 2622 
Q 2975 2850 2975 3272 
Q 2975 3691 2734 3919 
Q 2494 4147 2053 4147 
L 1259 4147 
z
M 628 4666 
L 2053 4666 
Q 2838 4666 3239 4311 
Q 3641 3956 3641 3272 
Q 3641 2581 3239 2228 
Q 2838 1875 2053 1875 
L 1259 1875 
L 1259 0 
L 628 0 
L 628 4666 
z
" transform="scale(0.015625)"/>
       <path id="DejaVuSans-72" d="M 2631 2963 
Q 2534 3019 2420 3045 
Q 2306 3072 2169 3072 
Q 1681 3072 1420 2755 
Q 1159 2438 1159 1844 
L 1159 0 
L 581 0 
L 581 3500 
L 1159 3500 
L 1159 2956 
Q 1341 3275 1631 3429 
Q 1922 3584 2338 3584 
Q 2397 3584 2469 3576 
Q 2541 3569 2628 3553 
L 2631 2963 
z
" transform="scale(0.015625)"/>
       <path id="DejaVuSans-6f" d="M 1959 3097 
Q 1497 3097 1228 2736 
Q 959 2375 959 1747 
Q 959 1119 1226 758 
Q 1494 397 1959 397 
Q 2419 397 2687 759 
Q 2956 1122 2956 1747 
Q 2956 2369 2687 2733 
Q 2419 3097 1959 3097 
z
M 1959 3584 
Q 2709 3584 3137 3096 
Q 3566 2609 3566 1747 
Q 3566 888 3137 398 
Q 2709 -91 1959 -91 
Q 1206 -91 779 398 
Q 353 888 353 1747 
Q 353 2609 779 3096 
Q 1206 3584 1959 3584 
z
" transform="scale(0.015625)"/>
       <path id="DejaVuSans-63" d="M 3122 3366 
L 3122 2828 
Q 2878 2963 2633 3030 
Q 2388 3097 2138 3097 
Q 1578 3097 1268 2742 
Q 959 2388 959 1747 
Q 959 1106 1268 751 
Q 1578 397 2138 397 
Q 2388 397 2633 464 
Q 2878 531 3122 666 
L 3122 134 
Q 2881 22 2623 -34 
Q 2366 -91 2075 -91 
Q 1284 -91 818 406 
Q 353 903 353 1747 
Q 353 2603 823 3093 
Q 1294 3584 2113 3584 
Q 2378 3584 2631 3529 
Q 2884 3475 3122 3366 
z
" transform="scale(0.015625)"/>
       <path id="DejaVuSans-65" d="M 3597 1894 
L 3597 1613 
L 953 1613 
Q 991 1019 1311 708 
Q 1631 397 2203 397 
Q 2534 397 2845 478 
Q 3156 559 3463 722 
L 3463 178 
Q 3153 47 2828 -22 
Q 2503 -91 2169 -91 
Q 1331 -91 842 396 
Q 353 884 353 1716 
Q 353 2575 817 3079 
Q 1281 3584 2069 3584 
Q 2775 3584 3186 3129 
Q 3597 2675 3597 1894 
z
M 3022 2063 
Q 3016 2534 2758 2815 
Q 2500 3097 2075 3097 
Q 1594 3097 1305 2825 
Q 1016 2553 972 2059 
L 3022 2063 
z
" transform="scale(0.015625)"/>
       <path id="DejaVuSans-73" d="M 2834 3397 
L 2834 2853 
Q 2591 2978 2328 3040 
Q 2066 3103 1784 3103 
Q 1356 3103 1142 2972 
Q 928 2841 928 2578 
Q 928 2378 1081 2264 
Q 1234 2150 1697 2047 
L 1894 2003 
Q 2506 1872 2764 1633 
Q 3022 1394 3022 966 
Q 3022 478 2636 193 
Q 2250 -91 1575 -91 
Q 1294 -91 989 -36 
Q 684 19 347 128 
L 347 722 
Q 666 556 975 473 
Q 1284 391 1588 391 
Q 1994 391 2212 530 
Q 2431 669 2431 922 
Q 2431 1156 2273 1281 
Q 2116 1406 1581 1522 
L 1381 1569 
Q 847 1681 609 1914 
Q 372 2147 372 2553 
Q 372 3047 722 3315 
Q 1072 3584 1716 3584 
Q 2034 3584 2315 3537 
Q 2597 3491 2834 3397 
z
" transform="scale(0.015625)"/>
       <path id="DejaVuSans-69" d="M 603 3500 
L 1178 3500 
L 1178 0 
L 603 0 
L 603 3500 
z
M 603 4863 
L 1178 4863 
L 1178 4134 
L 603 4134 
L 603 4863 
z
" transform="scale(0.015625)"/>
       <path id="DejaVuSans-6e" d="M 3513 2113 
L 3513 0 
L 2938 0 
L 2938 2094 
Q 2938 2591 2744 2837 
Q 2550 3084 2163 3084 
Q 1697 3084 1428 2787 
Q 1159 2491 1159 1978 
L 1159 0 
L 581 0 
L 581 3500 
L 1159 3500 
L 1159 2956 
Q 1366 3272 1645 3428 
Q 1925 3584 2291 3584 
Q 2894 3584 3203 3211 
Q 3513 2838 3513 2113 
z
" transform="scale(0.015625)"/>
       <path id="DejaVuSans-67" d="M 2906 1791 
Q 2906 2416 2648 2759 
Q 2391 3103 1925 3103 
Q 1463 3103 1205 2759 
Q 947 2416 947 1791 
Q 947 1169 1205 825 
Q 1463 481 1925 481 
Q 2391 481 2648 825 
Q 2906 1169 2906 1791 
z
M 3481 434 
Q 3481 -459 3084 -895 
Q 2688 -1331 1869 -1331 
Q 1566 -1331 1297 -1286 
Q 1028 -1241 775 -1147 
L 775 -588 
Q 1028 -725 1275 -790 
Q 1522 -856 1778 -856 
Q 2344 -856 2625 -561 
Q 2906 -266 2906 331 
L 2906 616 
Q 2728 306 2450 153 
Q 2172 0 1784 0 
Q 1141 0 747 490 
Q 353 981 353 1791 
Q 353 2603 747 3093 
Q 1141 3584 1784 3584 
Q 2172 3584 2450 3431 
Q 2728 3278 2906 2969 
L 2906 3500 
L 3481 3500 
L 3481 434 
z
" transform="scale(0.015625)"/>
       <path id="DejaVuSans-20" transform="scale(0.015625)"/>
       <path id="DejaVuSans-54" d="M -19 4666 
L 3928 4666 
L 3928 4134 
L 2272 4134 
L 2272 0 
L 1638 0 
L 1638 4134 
L -19 4134 
L -19 4666 
z
" transform="scale(0.015625)"/>
       <path id="DejaVuSans-6d" d="M 3328 2828 
Q 3544 3216 3844 3400 
Q 4144 3584 4550 3584 
Q 5097 3584 5394 3201 
Q 5691 2819 5691 2113 
L 5691 0 
L 5113 0 
L 5113 2094 
Q 5113 2597 4934 2840 
Q 4756 3084 4391 3084 
Q 3944 3084 3684 2787 
Q 3425 2491 3425 1978 
L 3425 0 
L 2847 0 
L 2847 2094 
Q 2847 2600 2669 2842 
Q 2491 3084 2119 3084 
Q 1678 3084 1418 2786 
Q 1159 2488 1159 1978 
L 1159 0 
L 581 0 
L 581 3500 
L 1159 3500 
L 1159 2956 
Q 1356 3278 1631 3431 
Q 1906 3584 2284 3584 
Q 2666 3584 2933 3390 
Q 3200 3197 3328 2828 
z
" transform="scale(0.015625)"/>
      </defs>
      <use xlink:href="#DejaVuSans-50"/>
      <use xlink:href="#DejaVuSans-72" transform="translate(58.552734 0)"/>
      <use xlink:href="#DejaVuSans-6f" transform="translate(97.416016 0)"/>
      <use xlink:href="#DejaVuSans-63" transform="translate(158.597656 0)"/>
      <use xlink:href="#DejaVuSans-65" transform="translate(213.578125 0)"/>
      <use xlink:href="#DejaVuSans-73" transform="translate(275.101562 0)"/>
      <use xlink:href="#DejaVuSans-73" transform="translate(327.201172 0)"/>
      <use xlink:href="#DejaVuSans-69" transform="translate(379.300781 0)"/>
      <use xlink:href="#DejaVuSans-6e" transform="translate(407.083984 0)"/>
      <use xlink:href="#DejaVuSans-67" transform="translate(470.462891 0)"/>
      <use xlink:href="#DejaVuSans-20" transform="translate(533.939453 0)"/>
      <use xlink:href="#DejaVuSans-54" transform="translate(565.726562 0)"/>
      <use xlink:href="#DejaVuSans-69" transform="translate(623.685547 0)"/>
      <use xlink:href="#DejaVuSans-6d" transform="translate(651.46875 0)"/>
      <use xlink:href="#DejaVuSans-65" transform="translate(748.880859 0)"/>
     </g>
    </g>
   </g>
   <g id="matplotlib.axis_2">
    <g id="ytick_1">
     <g id="line2d_5">
      <defs>
       <path id="m716c7faa4a" d="M 0 0 
L -3.5 0 
" style="stroke: #000000; stroke-width: 0.8"/>
      </defs>
      <g>
       <use xlink:href="#m716c7faa4a" x="40.075" y="246.76" style="stroke: #000000; stroke-width: 0.8"/>
      </g>
     </g>
     <g id="text_6">
      <!-- 0.00 -->
      <g transform="translate(10.809375 250.559219) scale(0.1 -0.1)">
       <defs>
        <path id="DejaVuSans-2e" d="M 684 794 
L 1344 794 
L 1344 0 
L 684 0 
L 684 794 
z
" transform="scale(0.015625)"/>
       </defs>
       <use xlink:href="#DejaVuSans-30"/>
       <use xlink:href="#DejaVuSans-2e" transform="translate(63.623047 0)"/>
       <use xlink:href="#DejaVuSans-30" transform="translate(95.410156 0)"/>
       <use xlink:href="#DejaVuSans-30" transform="translate(159.033203 0)"/>
      </g>
     </g>
    </g>
    <g id="ytick_2">
     <g id="line2d_6">
      <g>
       <use xlink:href="#m716c7faa4a" x="40.075" y="196.253961" style="stroke: #000000; stroke-width: 0.8"/>
      </g>
     </g>
     <g id="text_7">
      <!-- 0.02 -->
      <g transform="translate(10.809375 200.053179) scale(0.1 -0.1)">
       <use xlink:href="#DejaVuSans-30"/>
       <use xlink:href="#DejaVuSans-2e" transform="translate(63.623047 0)"/>
       <use xlink:href="#DejaVuSans-30" transform="translate(95.410156 0)"/>
       <use xlink:href="#DejaVuSans-32" transform="translate(159.033203 0)"/>
      </g>
     </g>
    </g>
    <g id="ytick_3">
     <g id="line2d_7">
      <g>
       <use xlink:href="#m716c7faa4a" x="40.075" y="145.747921" style="stroke: #000000; stroke-width: 0.8"/>
      </g>
     </g>
     <g id="text_8">
      <!-- 0.04 -->
      <g transform="translate(10.809375 149.54714) scale(0.1 -0.1)">
       <use xlink:href="#DejaVuSans-30"/>
       <use xlink:href="#DejaVuSans-2e" transform="translate(63.623047 0)"/>
       <use xlink:href="#DejaVuSans-30" transform="translate(95.410156 0)"/>
       <use xlink:href="#DejaVuSans-34" transform="translate(159.033203 0)"/>
      </g>
     </g>
    </g>
    <g id="ytick_4">
     <g id="line2d_8">
      <g>
       <use xlink:href="#m716c7faa4a" x="40.075" y="95.241882" style="stroke: #000000; stroke-width: 0.8"/>
      </g>
     </g>
     <g id="text_9">
      <!-- 0.06 -->
      <g transform="translate(10.809375 99.041101) scale(0.1 -0.1)">
       <defs>
        <path id="DejaVuSans-36" d="M 2113 2584 
Q 1688 2584 1439 2293 
Q 1191 2003 1191 1497 
Q 1191 994 1439 701 
Q 1688 409 2113 409 
Q 2538 409 2786 701 
Q 3034 994 3034 1497 
Q 3034 2003 2786 2293 
Q 2538 2584 2113 2584 
z
M 3366 4563 
L 3366 3988 
Q 3128 4100 2886 4159 
Q 2644 4219 2406 4219 
Q 1781 4219 1451 3797 
Q 1122 3375 1075 2522 
Q 1259 2794 1537 2939 
Q 1816 3084 2150 3084 
Q 2853 3084 3261 2657 
Q 3669 2231 3669 1497 
Q 3669 778 3244 343 
Q 2819 -91 2113 -91 
Q 1303 -91 875 529 
Q 447 1150 447 2328 
Q 447 3434 972 4092 
Q 1497 4750 2381 4750 
Q 2619 4750 2861 4703 
Q 3103 4656 3366 4563 
z
" transform="scale(0.015625)"/>
       </defs>
       <use xlink:href="#DejaVuSans-30"/>
       <use xlink:href="#DejaVuSans-2e" transform="translate(63.623047 0)"/>
       <use xlink:href="#DejaVuSans-30" transform="translate(95.410156 0)"/>
       <use xlink:href="#DejaVuSans-36" transform="translate(159.033203 0)"/>
      </g>
     </g>
    </g>
    <g id="ytick_5">
     <g id="line2d_9">
      <g>
       <use xlink:href="#m716c7faa4a" x="40.075" y="44.735843" style="stroke: #000000; stroke-width: 0.8"/>
      </g>
     </g>
     <g id="text_10">
      <!-- 0.08 -->
      <g transform="translate(10.809375 48.535061) scale(0.1 -0.1)">
       <defs>
        <path id="DejaVuSans-38" d="M 2034 2216 
Q 1584 2216 1326 1975 
Q 1069 1734 1069 1313 
Q 1069 891 1326 650 
Q 1584 409 2034 409 
Q 2484 409 2743 651 
Q 3003 894 3003 1313 
Q 3003 1734 2745 1975 
Q 2488 2216 2034 2216 
z
M 1403 2484 
Q 997 2584 770 2862 
Q 544 3141 544 3541 
Q 544 4100 942 4425 
Q 1341 4750 2034 4750 
Q 2731 4750 3128 4425 
Q 3525 4100 3525 3541 
Q 3525 3141 3298 2862 
Q 3072 2584 2669 2484 
Q 3125 2378 3379 2068 
Q 3634 1759 3634 1313 
Q 3634 634 3220 271 
Q 2806 -91 2034 -91 
Q 1263 -91 848 271 
Q 434 634 434 1313 
Q 434 1759 690 2068 
Q 947 2378 1403 2484 
z
M 1172 3481 
Q 1172 3119 1398 2916 
Q 1625 2713 2034 2713 
Q 2441 2713 2670 2916 
Q 2900 3119 2900 3481 
Q 2900 3844 2670 4047 
Q 2441 4250 2034 4250 
Q 1625 4250 1398 4047 
Q 1172 3844 1172 3481 
z
" transform="scale(0.015625)"/>
       </defs>
       <use xlink:href="#DejaVuSans-30"/>
       <use xlink:href="#DejaVuSans-2e" transform="translate(63.623047 0)"/>
       <use xlink:href="#DejaVuSans-30" transform="translate(95.410156 0)"/>
       <use xlink:href="#DejaVuSans-38" transform="translate(159.033203 0)"/>
      </g>
     </g>
    </g>
   </g>
   <g id="line2d_10">
    <path d="M 50.853409 239.145616 
L 51.936666 237.52824 
L 53.019923 235.652277 
L 54.103181 233.4936 
L 55.186438 231.028947 
L 56.269695 228.236577 
L 57.352952 225.096993 
L 58.436209 221.593696 
L 60.602724 213.449567 
L 62.769238 203.76082 
L 64.935753 192.576872 
L 67.102267 180.05319 
L 70.352039 159.359878 
L 77.934839 109.544662 
L 80.101353 97.162439 
L 82.267868 86.525655 
L 83.351125 82.000156 
L 84.434382 78.06594 
L 85.517639 74.760561 
L 86.600897 72.112276 
L 87.684154 70.138798 
L 88.767411 68.846371 
L 89.850668 68.229321 
L 90.933925 68.270195 
L 92.017183 68.940527 
L 93.10044 70.202257 
L 94.183697 72.009701 
L 95.266954 74.311938 
L 96.350211 77.05541 
L 98.516726 83.653927 
L 100.68324 91.414442 
L 102.849754 100.027087 
L 106.099526 114.074785 
L 110.432555 134.067724 
L 114.765584 154.10186 
L 118.015355 167.96097 
L 120.18187 176.179577 
L 122.348384 183.35217 
L 124.514898 189.337091 
L 125.598156 191.850804 
L 126.681413 194.03065 
L 127.76467 195.866355 
L 128.847927 197.347522 
L 129.931184 198.463222 
L 131.014442 199.201842 
L 132.097699 199.551234 
L 133.180956 199.499202 
L 134.264213 199.034318 
L 135.34747 198.146989 
L 136.430728 196.8307 
L 137.513985 195.083296 
L 138.597242 192.908146 
L 139.680499 190.315062 
L 140.763756 187.320843 
L 142.930271 180.231218 
L 145.096785 171.905465 
L 147.263299 162.683611 
L 155.929357 124.068631 
L 158.095871 115.630454 
L 160.262386 108.287638 
L 161.345643 105.118836 
L 162.4289 102.331155 
L 163.512157 99.95538 
L 164.595415 98.017701 
L 165.678672 96.538396 
L 166.761929 95.530683 
L 167.845186 94.999905 
L 168.928443 94.943161 
L 170.011701 95.349475 
L 171.094958 96.200502 
L 172.178215 97.47175 
L 173.261472 99.134192 
L 174.344729 101.15611 
L 175.427987 103.504984 
L 177.594501 109.059569 
L 179.761015 115.578233 
L 181.92753 122.895546 
L 184.094044 130.88963 
L 187.343816 143.902906 
L 197.09313 184.694247 
L 199.259645 192.708283 
L 201.426159 199.973988 
L 203.592674 206.440647 
L 205.759188 212.122188 
L 207.925702 217.079883 
L 210.092217 221.401398 
L 212.258731 225.181595 
L 214.425246 228.508025 
L 216.59176 231.451757 
L 218.758274 234.063005 
L 220.924789 236.371132 
L 223.091303 238.3889 
L 225.257817 240.120369 
L 227.424332 241.570486 
L 229.590846 242.753175 
L 231.757361 243.694908 
L 233.923875 244.432564 
L 237.173647 245.24514 
L 240.423418 245.808481 
L 244.756447 246.295554 
L 249.089476 246.555387 
L 254.505762 246.650444 
L 266.421591 246.561971 
L 266.421591 246.561971 
" clip-path="url(#pd908c61739)" style="fill: none; stroke: #888888; stroke-width: 1.5; stroke-linecap: square"/>
   </g>
   <g id="patch_103">
    <path d="M 40.075 246.76 
L 40.075 10.8 
" style="fill: none; stroke: #000000; stroke-width: 0.8; stroke-linejoin: miter; stroke-linecap: square"/>
   </g>
   <g id="patch_104">
    <path d="M 277.2 246.76 
L 277.2 10.8 
" style="fill: none; stroke: #000000; stroke-width: 0.8; stroke-linejoin: miter; stroke-linecap: square"/>
   </g>
   <g id="patch_105">
    <path d="M 40.075 246.76 
L 277.2 246.76 
" style="fill: none; stroke: #000000; stroke-width: 0.8; stroke-linejoin: miter; stroke-linecap: square"/>
   </g>
   <g id="patch_106">
    <path d="M 40.075 10.8 
L 277.2 10.8 
" style="fill: none; stroke: #000000; stroke-width: 0.8; stroke-linejoin: miter; stroke-linecap: square"/>
   </g>
   <g id="legend_1">
    <g id="patch_107">
     <path d="M 266.2 23.8 
L 270.2 23.8 
Q 272.2 23.8 272.2 21.8 
L 272.2 17.8 
Q 272.2 15.8 270.2 15.8 
L 266.2 15.8 
Q 264.2 15.8 264.2 17.8 
L 264.2 21.8 
Q 264.2 23.8 266.2 23.8 
z
" style="fill: #ffffff; opacity: 0.8; stroke: #cccccc; stroke-linejoin: miter"/>
    </g>
   </g>
  </g>
 </g>
 <defs>
  <clipPath id="pd908c61739">
   <rect x="40.075" y="10.8" width="237.125" height="235.96"/>
  </clipPath>
 </defs>
</svg>
