<?xml version="1.0" encoding="utf-8" standalone="no"?>
<!DOCTYPE svg PUBLIC "-//W3C//DTD SVG 1.1//EN"
  "http://www.w3.org/Graphics/SVG/1.1/DTD/svg11.dtd">
<svg xmlns:xlink="http://www.w3.org/1999/xlink" width="288pt" height="288pt" viewBox="0 0 288 288" xmlns="http://www.w3.org/2000/svg" version="1.1">
 <metadata>
  <rdf:RDF xmlns:dc="http://purl.org/dc/elements/1.1/" xmlns:cc="http://creativecommons.org/ns#" xmlns:rdf="http://www.w3.org/1999/02/22-rdf-syntax-ns#">
   <cc:Work>
    <dc:type rdf:resource="http://purl.org/dc/dcmitype/StillImage"/>
    <dc:date>2025-05-12T14:19:41.764055</dc:date>
    <dc:format>image/svg+xml</dc:format>
    <dc:creator>
     <cc:Agent>
      <dc:title>Matplotlib v3.10.0, https://matplotlib.org/</dc:title>
     </cc:Agent>
    </dc:creator>
   </cc:Work>
  </rdf:RDF>
 </metadata>
 <defs>
  <style type="text/css">*{stroke-linejoin: round; stroke-linecap: butt}</style>
 </defs>
 <g id="figure_1">
  <g id="patch_1">
   <path d="M 0 288 
L 288 288 
L 288 0 
L 0 0 
z
" style="fill: #ffffff"/>
  </g>
  <g id="axes_1">
   <g id="patch_2">
    <path d="M 40.09 246.76 
L 277.2 246.76 
L 277.2 10.8 
L 40.09 10.8 
z
" style="fill: #ffffff"/>
   </g>
   <g id="patch_3">
    <path d="M 50.867727 246.76 
L 53.413965 246.76 
L 53.413965 243.592903 
L 50.867727 243.592903 
z
" clip-path="url(#p08d8f41694)" style="fill: #888888; fill-opacity: 0.7; stroke: #000000; stroke-width: 0.405818; stroke-linejoin: miter"/>
   </g>
   <g id="patch_4">
    <path d="M 53.413965 246.76 
L 55.960202 246.76 
L 55.960202 242.009354 
L 53.413965 242.009354 
z
" clip-path="url(#p08d8f41694)" style="fill: #888888; fill-opacity: 0.7; stroke: #000000; stroke-width: 0.405818; stroke-linejoin: miter"/>
   </g>
   <g id="patch_5">
    <path d="M 55.960202 246.76 
L 58.50644 246.76 
L 58.50644 234.091612 
L 55.960202 234.091612 
z
" clip-path="url(#p08d8f41694)" style="fill: #888888; fill-opacity: 0.7; stroke: #000000; stroke-width: 0.405818; stroke-linejoin: miter"/>
   </g>
   <g id="patch_6">
    <path d="M 58.50644 246.76 
L 61.052678 246.76 
L 61.052678 232.508063 
L 58.50644 232.508063 
z
" clip-path="url(#p08d8f41694)" style="fill: #888888; fill-opacity: 0.7; stroke: #000000; stroke-width: 0.405818; stroke-linejoin: miter"/>
   </g>
   <g id="patch_7">
    <path d="M 61.052678 246.76 
L 63.598915 246.76 
L 63.598915 213.505481 
L 61.052678 213.505481 
z
" clip-path="url(#p08d8f41694)" style="fill: #888888; fill-opacity: 0.7; stroke: #000000; stroke-width: 0.405818; stroke-linejoin: miter"/>
   </g>
   <g id="patch_8">
    <path d="M 63.598915 246.76 
L 66.145153 246.76 
L 66.145153 213.505481 
L 63.598915 213.505481 
z
" clip-path="url(#p08d8f41694)" style="fill: #888888; fill-opacity: 0.7; stroke: #000000; stroke-width: 0.405818; stroke-linejoin: miter"/>
   </g>
   <g id="patch_9">
    <path d="M 66.145153 246.76 
L 68.69139 246.76 
L 68.69139 177.083865 
L 66.145153 177.083865 
z
" clip-path="url(#p08d8f41694)" style="fill: #888888; fill-opacity: 0.7; stroke: #000000; stroke-width: 0.405818; stroke-linejoin: miter"/>
   </g>
   <g id="patch_10">
    <path d="M 68.69139 246.76 
L 71.237628 246.76 
L 71.237628 185.001608 
L 68.69139 185.001608 
z
" clip-path="url(#p08d8f41694)" style="fill: #888888; fill-opacity: 0.7; stroke: #000000; stroke-width: 0.405818; stroke-linejoin: miter"/>
   </g>
   <g id="patch_11">
    <path d="M 71.237628 246.76 
L 73.783866 246.76 
L 73.783866 135.911604 
L 71.237628 135.911604 
z
" clip-path="url(#p08d8f41694)" style="fill: #888888; fill-opacity: 0.7; stroke: #000000; stroke-width: 0.405818; stroke-linejoin: miter"/>
   </g>
   <g id="patch_12">
    <path d="M 73.783866 246.76 
L 76.330103 246.76 
L 76.330103 120.076118 
L 73.783866 120.076118 
z
" clip-path="url(#p08d8f41694)" style="fill: #888888; fill-opacity: 0.7; stroke: #000000; stroke-width: 0.405818; stroke-linejoin: miter"/>
   </g>
   <g id="patch_13">
    <path d="M 76.330103 246.76 
L 78.876341 246.76 
L 78.876341 99.489988 
L 76.330103 99.489988 
z
" clip-path="url(#p08d8f41694)" style="fill: #888888; fill-opacity: 0.7; stroke: #000000; stroke-width: 0.405818; stroke-linejoin: miter"/>
   </g>
   <g id="patch_14">
    <path d="M 78.876341 246.76 
L 81.422578 246.76 
L 81.422578 91.572245 
L 78.876341 91.572245 
z
" clip-path="url(#p08d8f41694)" style="fill: #888888; fill-opacity: 0.7; stroke: #000000; stroke-width: 0.405818; stroke-linejoin: miter"/>
   </g>
   <g id="patch_15">
    <path d="M 81.422578 246.76 
L 83.968816 246.76 
L 83.968816 83.654502 
L 81.422578 83.654502 
z
" clip-path="url(#p08d8f41694)" style="fill: #888888; fill-opacity: 0.7; stroke: #000000; stroke-width: 0.405818; stroke-linejoin: miter"/>
   </g>
   <g id="patch_16">
    <path d="M 83.968816 246.76 
L 86.515054 246.76 
L 86.515054 25.063207 
L 83.968816 25.063207 
z
" clip-path="url(#p08d8f41694)" style="fill: #888888; fill-opacity: 0.7; stroke: #000000; stroke-width: 0.405818; stroke-linejoin: miter"/>
   </g>
   <g id="patch_17">
    <path d="M 86.515054 246.76 
L 89.061291 246.76 
L 89.061291 51.983532 
L 86.515054 51.983532 
z
" clip-path="url(#p08d8f41694)" style="fill: #888888; fill-opacity: 0.7; stroke: #000000; stroke-width: 0.405818; stroke-linejoin: miter"/>
   </g>
   <g id="patch_18">
    <path d="M 89.061291 246.76 
L 91.607529 246.76 
L 91.607529 26.646756 
L 89.061291 26.646756 
z
" clip-path="url(#p08d8f41694)" style="fill: #888888; fill-opacity: 0.7; stroke: #000000; stroke-width: 0.405818; stroke-linejoin: miter"/>
   </g>
   <g id="patch_19">
    <path d="M 91.607529 246.76 
L 94.153766 246.76 
L 94.153766 44.065789 
L 91.607529 44.065789 
z
" clip-path="url(#p08d8f41694)" style="fill: #888888; fill-opacity: 0.7; stroke: #000000; stroke-width: 0.405818; stroke-linejoin: miter"/>
   </g>
   <g id="patch_20">
    <path d="M 94.153766 246.76 
L 96.700004 246.76 
L 96.700004 82.070954 
L 94.153766 82.070954 
z
" clip-path="url(#p08d8f41694)" style="fill: #888888; fill-opacity: 0.7; stroke: #000000; stroke-width: 0.405818; stroke-linejoin: miter"/>
   </g>
   <g id="patch_21">
    <path d="M 96.700004 246.76 
L 99.246242 246.76 
L 99.246242 82.070954 
L 96.700004 82.070954 
z
" clip-path="url(#p08d8f41694)" style="fill: #888888; fill-opacity: 0.7; stroke: #000000; stroke-width: 0.405818; stroke-linejoin: miter"/>
   </g>
   <g id="patch_22">
    <path d="M 99.246242 246.76 
L 101.792479 246.76 
L 101.792479 83.654502 
L 99.246242 83.654502 
z
" clip-path="url(#p08d8f41694)" style="fill: #888888; fill-opacity: 0.7; stroke: #000000; stroke-width: 0.405818; stroke-linejoin: miter"/>
   </g>
   <g id="patch_23">
    <path d="M 101.792479 246.76 
L 104.338717 246.76 
L 104.338717 96.322891 
L 101.792479 96.322891 
z
" clip-path="url(#p08d8f41694)" style="fill: #888888; fill-opacity: 0.7; stroke: #000000; stroke-width: 0.405818; stroke-linejoin: miter"/>
   </g>
   <g id="patch_24">
    <path d="M 104.338717 246.76 
L 106.884954 246.76 
L 106.884954 120.076118 
L 104.338717 120.076118 
z
" clip-path="url(#p08d8f41694)" style="fill: #888888; fill-opacity: 0.7; stroke: #000000; stroke-width: 0.405818; stroke-linejoin: miter"/>
   </g>
   <g id="patch_25">
    <path d="M 106.884954 246.76 
L 109.431192 246.76 
L 109.431192 94.739342 
L 106.884954 94.739342 
z
" clip-path="url(#p08d8f41694)" style="fill: #888888; fill-opacity: 0.7; stroke: #000000; stroke-width: 0.405818; stroke-linejoin: miter"/>
   </g>
   <g id="patch_26">
    <path d="M 109.431192 246.76 
L 111.97743 246.76 
L 111.97743 135.911604 
L 109.431192 135.911604 
z
" clip-path="url(#p08d8f41694)" style="fill: #888888; fill-opacity: 0.7; stroke: #000000; stroke-width: 0.405818; stroke-linejoin: miter"/>
   </g>
   <g id="patch_27">
    <path d="M 111.97743 246.76 
L 114.523667 246.76 
L 114.523667 150.16354 
L 111.97743 150.16354 
z
" clip-path="url(#p08d8f41694)" style="fill: #888888; fill-opacity: 0.7; stroke: #000000; stroke-width: 0.405818; stroke-linejoin: miter"/>
   </g>
   <g id="patch_28">
    <path d="M 114.523667 246.76 
L 117.069905 246.76 
L 117.069905 169.166123 
L 114.523667 169.166123 
z
" clip-path="url(#p08d8f41694)" style="fill: #888888; fill-opacity: 0.7; stroke: #000000; stroke-width: 0.405818; stroke-linejoin: miter"/>
   </g>
   <g id="patch_29">
    <path d="M 117.069905 246.76 
L 119.616142 246.76 
L 119.616142 180.250962 
L 117.069905 180.250962 
z
" clip-path="url(#p08d8f41694)" style="fill: #888888; fill-opacity: 0.7; stroke: #000000; stroke-width: 0.405818; stroke-linejoin: miter"/>
   </g>
   <g id="patch_30">
    <path d="M 119.616142 246.76 
L 122.16238 246.76 
L 122.16238 181.834511 
L 119.616142 181.834511 
z
" clip-path="url(#p08d8f41694)" style="fill: #888888; fill-opacity: 0.7; stroke: #000000; stroke-width: 0.405818; stroke-linejoin: miter"/>
   </g>
   <g id="patch_31">
    <path d="M 122.16238 246.76 
L 124.708617 246.76 
L 124.708617 194.502899 
L 122.16238 194.502899 
z
" clip-path="url(#p08d8f41694)" style="fill: #888888; fill-opacity: 0.7; stroke: #000000; stroke-width: 0.405818; stroke-linejoin: miter"/>
   </g>
   <g id="patch_32">
    <path d="M 124.708617 246.76 
L 127.254855 246.76 
L 127.254855 219.839675 
L 124.708617 219.839675 
z
" clip-path="url(#p08d8f41694)" style="fill: #888888; fill-opacity: 0.7; stroke: #000000; stroke-width: 0.405818; stroke-linejoin: miter"/>
   </g>
   <g id="patch_33">
    <path d="M 127.254855 246.76 
L 129.801093 246.76 
L 129.801093 200.837093 
L 127.254855 200.837093 
z
" clip-path="url(#p08d8f41694)" style="fill: #888888; fill-opacity: 0.7; stroke: #000000; stroke-width: 0.405818; stroke-linejoin: miter"/>
   </g>
   <g id="patch_34">
    <path d="M 129.801093 246.76 
L 132.34733 246.76 
L 132.34733 210.338384 
L 129.801093 210.338384 
z
" clip-path="url(#p08d8f41694)" style="fill: #888888; fill-opacity: 0.7; stroke: #000000; stroke-width: 0.405818; stroke-linejoin: miter"/>
   </g>
   <g id="patch_35">
    <path d="M 132.34733 246.76 
L 134.893568 246.76 
L 134.893568 221.423224 
L 132.34733 221.423224 
z
" clip-path="url(#p08d8f41694)" style="fill: #888888; fill-opacity: 0.7; stroke: #000000; stroke-width: 0.405818; stroke-linejoin: miter"/>
   </g>
   <g id="patch_36">
    <path d="M 134.893568 246.76 
L 137.439805 246.76 
L 137.439805 235.67516 
L 134.893568 235.67516 
z
" clip-path="url(#p08d8f41694)" style="fill: #888888; fill-opacity: 0.7; stroke: #000000; stroke-width: 0.405818; stroke-linejoin: miter"/>
   </g>
   <g id="patch_37">
    <path d="M 137.439805 246.76 
L 139.986043 246.76 
L 139.986043 229.340966 
L 137.439805 229.340966 
z
" clip-path="url(#p08d8f41694)" style="fill: #888888; fill-opacity: 0.7; stroke: #000000; stroke-width: 0.405818; stroke-linejoin: miter"/>
   </g>
   <g id="patch_38">
    <path d="M 139.986043 246.76 
L 142.532281 246.76 
L 142.532281 237.258709 
L 139.986043 237.258709 
z
" clip-path="url(#p08d8f41694)" style="fill: #888888; fill-opacity: 0.7; stroke: #000000; stroke-width: 0.405818; stroke-linejoin: miter"/>
   </g>
   <g id="patch_39">
    <path d="M 142.532281 246.76 
L 145.078518 246.76 
L 145.078518 242.009354 
L 142.532281 242.009354 
z
" clip-path="url(#p08d8f41694)" style="fill: #888888; fill-opacity: 0.7; stroke: #000000; stroke-width: 0.405818; stroke-linejoin: miter"/>
   </g>
   <g id="patch_40">
    <path d="M 145.078518 246.76 
L 147.624756 246.76 
L 147.624756 237.258709 
L 145.078518 237.258709 
z
" clip-path="url(#p08d8f41694)" style="fill: #888888; fill-opacity: 0.7; stroke: #000000; stroke-width: 0.405818; stroke-linejoin: miter"/>
   </g>
   <g id="patch_41">
    <path d="M 147.624756 246.76 
L 150.170993 246.76 
L 150.170993 237.258709 
L 147.624756 237.258709 
z
" clip-path="url(#p08d8f41694)" style="fill: #888888; fill-opacity: 0.7; stroke: #000000; stroke-width: 0.405818; stroke-linejoin: miter"/>
   </g>
   <g id="patch_42">
    <path d="M 150.170993 246.76 
L 152.717231 246.76 
L 152.717231 245.176451 
L 150.170993 245.176451 
z
" clip-path="url(#p08d8f41694)" style="fill: #888888; fill-opacity: 0.7; stroke: #000000; stroke-width: 0.405818; stroke-linejoin: miter"/>
   </g>
   <g id="patch_43">
    <path d="M 152.717231 246.76 
L 155.263469 246.76 
L 155.263469 245.176451 
L 152.717231 245.176451 
z
" clip-path="url(#p08d8f41694)" style="fill: #888888; fill-opacity: 0.7; stroke: #000000; stroke-width: 0.405818; stroke-linejoin: miter"/>
   </g>
   <g id="patch_44">
    <path d="M 155.263469 246.76 
L 157.809706 246.76 
L 157.809706 245.176451 
L 155.263469 245.176451 
z
" clip-path="url(#p08d8f41694)" style="fill: #888888; fill-opacity: 0.7; stroke: #000000; stroke-width: 0.405818; stroke-linejoin: miter"/>
   </g>
   <g id="patch_45">
    <path d="M 157.809706 246.76 
L 160.355944 246.76 
L 160.355944 238.842257 
L 157.809706 238.842257 
z
" clip-path="url(#p08d8f41694)" style="fill: #888888; fill-opacity: 0.7; stroke: #000000; stroke-width: 0.405818; stroke-linejoin: miter"/>
   </g>
   <g id="patch_46">
    <path d="M 160.355944 246.76 
L 162.902181 246.76 
L 162.902181 245.176451 
L 160.355944 245.176451 
z
" clip-path="url(#p08d8f41694)" style="fill: #888888; fill-opacity: 0.7; stroke: #000000; stroke-width: 0.405818; stroke-linejoin: miter"/>
   </g>
   <g id="patch_47">
    <path d="M 162.902181 246.76 
L 165.448419 246.76 
L 165.448419 245.176451 
L 162.902181 245.176451 
z
" clip-path="url(#p08d8f41694)" style="fill: #888888; fill-opacity: 0.7; stroke: #000000; stroke-width: 0.405818; stroke-linejoin: miter"/>
   </g>
   <g id="patch_48">
    <path d="M 165.448419 246.76 
L 167.994657 246.76 
L 167.994657 243.592903 
L 165.448419 243.592903 
z
" clip-path="url(#p08d8f41694)" style="fill: #888888; fill-opacity: 0.7; stroke: #000000; stroke-width: 0.405818; stroke-linejoin: miter"/>
   </g>
   <g id="patch_49">
    <path d="M 167.994657 246.76 
L 170.540894 246.76 
L 170.540894 246.76 
L 167.994657 246.76 
z
" clip-path="url(#p08d8f41694)" style="fill: #888888; fill-opacity: 0.7; stroke: #000000; stroke-width: 0.405818; stroke-linejoin: miter"/>
   </g>
   <g id="patch_50">
    <path d="M 170.540894 246.76 
L 173.087132 246.76 
L 173.087132 246.76 
L 170.540894 246.76 
z
" clip-path="url(#p08d8f41694)" style="fill: #888888; fill-opacity: 0.7; stroke: #000000; stroke-width: 0.405818; stroke-linejoin: miter"/>
   </g>
   <g id="patch_51">
    <path d="M 173.087132 246.76 
L 175.633369 246.76 
L 175.633369 246.76 
L 173.087132 246.76 
z
" clip-path="url(#p08d8f41694)" style="fill: #888888; fill-opacity: 0.7; stroke: #000000; stroke-width: 0.405818; stroke-linejoin: miter"/>
   </g>
   <g id="patch_52">
    <path d="M 175.633369 246.76 
L 178.179607 246.76 
L 178.179607 243.592903 
L 175.633369 243.592903 
z
" clip-path="url(#p08d8f41694)" style="fill: #888888; fill-opacity: 0.7; stroke: #000000; stroke-width: 0.405818; stroke-linejoin: miter"/>
   </g>
   <g id="patch_53">
    <path d="M 121.324082 246.76 
L 124.226046 246.76 
L 124.226046 243.572428 
L 121.324082 243.572428 
z
" clip-path="url(#p08d8f41694)" style="fill: #bbbbbb; fill-opacity: 0.7; stroke: #000000; stroke-width: 0.273172; stroke-linejoin: miter"/>
   </g>
   <g id="patch_54">
    <path d="M 124.226046 246.76 
L 127.12801 246.76 
L 127.12801 243.572428 
L 124.226046 243.572428 
z
" clip-path="url(#p08d8f41694)" style="fill: #bbbbbb; fill-opacity: 0.7; stroke: #000000; stroke-width: 0.273172; stroke-linejoin: miter"/>
   </g>
   <g id="patch_55">
    <path d="M 127.12801 246.76 
L 130.029974 246.76 
L 130.029974 243.572428 
L 127.12801 243.572428 
z
" clip-path="url(#p08d8f41694)" style="fill: #bbbbbb; fill-opacity: 0.7; stroke: #000000; stroke-width: 0.273172; stroke-linejoin: miter"/>
   </g>
   <g id="patch_56">
    <path d="M 130.029974 246.76 
L 132.931937 246.76 
L 132.931937 234.009713 
L 130.029974 234.009713 
z
" clip-path="url(#p08d8f41694)" style="fill: #bbbbbb; fill-opacity: 0.7; stroke: #000000; stroke-width: 0.273172; stroke-linejoin: miter"/>
   </g>
   <g id="patch_57">
    <path d="M 132.931937 246.76 
L 135.833901 246.76 
L 135.833901 232.415927 
L 132.931937 232.415927 
z
" clip-path="url(#p08d8f41694)" style="fill: #bbbbbb; fill-opacity: 0.7; stroke: #000000; stroke-width: 0.273172; stroke-linejoin: miter"/>
   </g>
   <g id="patch_58">
    <path d="M 135.833901 246.76 
L 138.735865 246.76 
L 138.735865 221.259426 
L 135.833901 221.259426 
z
" clip-path="url(#p08d8f41694)" style="fill: #bbbbbb; fill-opacity: 0.7; stroke: #000000; stroke-width: 0.273172; stroke-linejoin: miter"/>
   </g>
   <g id="patch_59">
    <path d="M 138.735865 246.76 
L 141.637829 246.76 
L 141.637829 213.290496 
L 138.735865 213.290496 
z
" clip-path="url(#p08d8f41694)" style="fill: #bbbbbb; fill-opacity: 0.7; stroke: #000000; stroke-width: 0.273172; stroke-linejoin: miter"/>
   </g>
   <g id="patch_60">
    <path d="M 141.637829 246.76 
L 144.539793 246.76 
L 144.539793 203.727781 
L 141.637829 203.727781 
z
" clip-path="url(#p08d8f41694)" style="fill: #bbbbbb; fill-opacity: 0.7; stroke: #000000; stroke-width: 0.273172; stroke-linejoin: miter"/>
   </g>
   <g id="patch_61">
    <path d="M 144.539793 246.76 
L 147.441756 246.76 
L 147.441756 159.101776 
L 144.539793 159.101776 
z
" clip-path="url(#p08d8f41694)" style="fill: #bbbbbb; fill-opacity: 0.7; stroke: #000000; stroke-width: 0.273172; stroke-linejoin: miter"/>
   </g>
   <g id="patch_62">
    <path d="M 147.441756 246.76 
L 150.34372 246.76 
L 150.34372 133.601202 
L 147.441756 133.601202 
z
" clip-path="url(#p08d8f41694)" style="fill: #bbbbbb; fill-opacity: 0.7; stroke: #000000; stroke-width: 0.273172; stroke-linejoin: miter"/>
   </g>
   <g id="patch_63">
    <path d="M 150.34372 246.76 
L 153.245684 246.76 
L 153.245684 146.351489 
L 150.34372 146.351489 
z
" clip-path="url(#p08d8f41694)" style="fill: #bbbbbb; fill-opacity: 0.7; stroke: #000000; stroke-width: 0.273172; stroke-linejoin: miter"/>
   </g>
   <g id="patch_64">
    <path d="M 153.245684 246.76 
L 156.147648 246.76 
L 156.147648 108.100628 
L 153.245684 108.100628 
z
" clip-path="url(#p08d8f41694)" style="fill: #bbbbbb; fill-opacity: 0.7; stroke: #000000; stroke-width: 0.273172; stroke-linejoin: miter"/>
   </g>
   <g id="patch_65">
    <path d="M 156.147648 246.76 
L 159.049612 246.76 
L 159.049612 90.568983 
L 156.147648 90.568983 
z
" clip-path="url(#p08d8f41694)" style="fill: #bbbbbb; fill-opacity: 0.7; stroke: #000000; stroke-width: 0.273172; stroke-linejoin: miter"/>
   </g>
   <g id="patch_66">
    <path d="M 159.049612 246.76 
L 161.951576 246.76 
L 161.951576 84.19384 
L 159.049612 84.19384 
z
" clip-path="url(#p08d8f41694)" style="fill: #bbbbbb; fill-opacity: 0.7; stroke: #000000; stroke-width: 0.273172; stroke-linejoin: miter"/>
   </g>
   <g id="patch_67">
    <path d="M 161.951576 246.76 
L 164.853539 246.76 
L 164.853539 63.474623 
L 161.951576 63.474623 
z
" clip-path="url(#p08d8f41694)" style="fill: #bbbbbb; fill-opacity: 0.7; stroke: #000000; stroke-width: 0.273172; stroke-linejoin: miter"/>
   </g>
   <g id="patch_68">
    <path d="M 164.853539 246.76 
L 167.755503 246.76 
L 167.755503 63.474623 
L 164.853539 63.474623 
z
" clip-path="url(#p08d8f41694)" style="fill: #bbbbbb; fill-opacity: 0.7; stroke: #000000; stroke-width: 0.273172; stroke-linejoin: miter"/>
   </g>
   <g id="patch_69">
    <path d="M 167.755503 246.76 
L 170.657467 246.76 
L 170.657467 22.03619 
L 167.755503 22.03619 
z
" clip-path="url(#p08d8f41694)" style="fill: #bbbbbb; fill-opacity: 0.7; stroke: #000000; stroke-width: 0.273172; stroke-linejoin: miter"/>
   </g>
   <g id="patch_70">
    <path d="M 170.657467 246.76 
L 173.559431 246.76 
L 173.559431 69.849767 
L 170.657467 69.849767 
z
" clip-path="url(#p08d8f41694)" style="fill: #bbbbbb; fill-opacity: 0.7; stroke: #000000; stroke-width: 0.273172; stroke-linejoin: miter"/>
   </g>
   <g id="patch_71">
    <path d="M 173.559431 246.76 
L 176.461395 246.76 
L 176.461395 74.631125 
L 173.559431 74.631125 
z
" clip-path="url(#p08d8f41694)" style="fill: #bbbbbb; fill-opacity: 0.7; stroke: #000000; stroke-width: 0.273172; stroke-linejoin: miter"/>
   </g>
   <g id="patch_72">
    <path d="M 176.461395 246.76 
L 179.363358 246.76 
L 179.363358 100.131699 
L 176.461395 100.131699 
z
" clip-path="url(#p08d8f41694)" style="fill: #bbbbbb; fill-opacity: 0.7; stroke: #000000; stroke-width: 0.273172; stroke-linejoin: miter"/>
   </g>
   <g id="patch_73">
    <path d="M 179.363358 246.76 
L 182.265322 246.76 
L 182.265322 101.725485 
L 179.363358 101.725485 
z
" clip-path="url(#p08d8f41694)" style="fill: #bbbbbb; fill-opacity: 0.7; stroke: #000000; stroke-width: 0.273172; stroke-linejoin: miter"/>
   </g>
   <g id="patch_74">
    <path d="M 182.265322 246.76 
L 185.167286 246.76 
L 185.167286 81.006268 
L 182.265322 81.006268 
z
" clip-path="url(#p08d8f41694)" style="fill: #bbbbbb; fill-opacity: 0.7; stroke: #000000; stroke-width: 0.273172; stroke-linejoin: miter"/>
   </g>
   <g id="patch_75">
    <path d="M 185.167286 246.76 
L 188.06925 246.76 
L 188.06925 127.226059 
L 185.167286 127.226059 
z
" clip-path="url(#p08d8f41694)" style="fill: #bbbbbb; fill-opacity: 0.7; stroke: #000000; stroke-width: 0.273172; stroke-linejoin: miter"/>
   </g>
   <g id="patch_76">
    <path d="M 188.06925 246.76 
L 190.971214 246.76 
L 190.971214 124.038487 
L 188.06925 124.038487 
z
" clip-path="url(#p08d8f41694)" style="fill: #bbbbbb; fill-opacity: 0.7; stroke: #000000; stroke-width: 0.273172; stroke-linejoin: miter"/>
   </g>
   <g id="patch_77">
    <path d="M 190.971214 246.76 
L 193.873177 246.76 
L 193.873177 168.664492 
L 190.971214 168.664492 
z
" clip-path="url(#p08d8f41694)" style="fill: #bbbbbb; fill-opacity: 0.7; stroke: #000000; stroke-width: 0.273172; stroke-linejoin: miter"/>
   </g>
   <g id="patch_78">
    <path d="M 193.873177 246.76 
L 196.775141 246.76 
L 196.775141 165.47692 
L 193.873177 165.47692 
z
" clip-path="url(#p08d8f41694)" style="fill: #bbbbbb; fill-opacity: 0.7; stroke: #000000; stroke-width: 0.273172; stroke-linejoin: miter"/>
   </g>
   <g id="patch_79">
    <path d="M 196.775141 246.76 
L 199.677105 246.76 
L 199.677105 190.977494 
L 196.775141 190.977494 
z
" clip-path="url(#p08d8f41694)" style="fill: #bbbbbb; fill-opacity: 0.7; stroke: #000000; stroke-width: 0.273172; stroke-linejoin: miter"/>
   </g>
   <g id="patch_80">
    <path d="M 199.677105 246.76 
L 202.579069 246.76 
L 202.579069 206.915353 
L 199.677105 206.915353 
z
" clip-path="url(#p08d8f41694)" style="fill: #bbbbbb; fill-opacity: 0.7; stroke: #000000; stroke-width: 0.273172; stroke-linejoin: miter"/>
   </g>
   <g id="patch_81">
    <path d="M 202.579069 246.76 
L 205.481033 246.76 
L 205.481033 203.727781 
L 202.579069 203.727781 
z
" clip-path="url(#p08d8f41694)" style="fill: #bbbbbb; fill-opacity: 0.7; stroke: #000000; stroke-width: 0.273172; stroke-linejoin: miter"/>
   </g>
   <g id="patch_82">
    <path d="M 205.481033 246.76 
L 208.382997 246.76 
L 208.382997 218.071854 
L 205.481033 218.071854 
z
" clip-path="url(#p08d8f41694)" style="fill: #bbbbbb; fill-opacity: 0.7; stroke: #000000; stroke-width: 0.273172; stroke-linejoin: miter"/>
   </g>
   <g id="patch_83">
    <path d="M 208.382997 246.76 
L 211.28496 246.76 
L 211.28496 218.071854 
L 208.382997 218.071854 
z
" clip-path="url(#p08d8f41694)" style="fill: #bbbbbb; fill-opacity: 0.7; stroke: #000000; stroke-width: 0.273172; stroke-linejoin: miter"/>
   </g>
   <g id="patch_84">
    <path d="M 211.28496 246.76 
L 214.186924 246.76 
L 214.186924 227.634569 
L 211.28496 227.634569 
z
" clip-path="url(#p08d8f41694)" style="fill: #bbbbbb; fill-opacity: 0.7; stroke: #000000; stroke-width: 0.273172; stroke-linejoin: miter"/>
   </g>
   <g id="patch_85">
    <path d="M 214.186924 246.76 
L 217.088888 246.76 
L 217.088888 235.603499 
L 214.186924 235.603499 
z
" clip-path="url(#p08d8f41694)" style="fill: #bbbbbb; fill-opacity: 0.7; stroke: #000000; stroke-width: 0.273172; stroke-linejoin: miter"/>
   </g>
   <g id="patch_86">
    <path d="M 217.088888 246.76 
L 219.990852 246.76 
L 219.990852 227.634569 
L 217.088888 227.634569 
z
" clip-path="url(#p08d8f41694)" style="fill: #bbbbbb; fill-opacity: 0.7; stroke: #000000; stroke-width: 0.273172; stroke-linejoin: miter"/>
   </g>
   <g id="patch_87">
    <path d="M 219.990852 246.76 
L 222.892816 246.76 
L 222.892816 234.009713 
L 219.990852 234.009713 
z
" clip-path="url(#p08d8f41694)" style="fill: #bbbbbb; fill-opacity: 0.7; stroke: #000000; stroke-width: 0.273172; stroke-linejoin: miter"/>
   </g>
   <g id="patch_88">
    <path d="M 222.892816 246.76 
L 225.794779 246.76 
L 225.794779 241.978642 
L 222.892816 241.978642 
z
" clip-path="url(#p08d8f41694)" style="fill: #bbbbbb; fill-opacity: 0.7; stroke: #000000; stroke-width: 0.273172; stroke-linejoin: miter"/>
   </g>
   <g id="patch_89">
    <path d="M 225.794779 246.76 
L 228.696743 246.76 
L 228.696743 246.76 
L 225.794779 246.76 
z
" clip-path="url(#p08d8f41694)" style="fill: #bbbbbb; fill-opacity: 0.7; stroke: #000000; stroke-width: 0.273172; stroke-linejoin: miter"/>
   </g>
   <g id="patch_90">
    <path d="M 228.696743 246.76 
L 231.598707 246.76 
L 231.598707 245.166214 
L 228.696743 245.166214 
z
" clip-path="url(#p08d8f41694)" style="fill: #bbbbbb; fill-opacity: 0.7; stroke: #000000; stroke-width: 0.273172; stroke-linejoin: miter"/>
   </g>
   <g id="patch_91">
    <path d="M 231.598707 246.76 
L 234.500671 246.76 
L 234.500671 243.572428 
L 231.598707 243.572428 
z
" clip-path="url(#p08d8f41694)" style="fill: #bbbbbb; fill-opacity: 0.7; stroke: #000000; stroke-width: 0.273172; stroke-linejoin: miter"/>
   </g>
   <g id="patch_92">
    <path d="M 234.500671 246.76 
L 237.402635 246.76 
L 237.402635 243.572428 
L 234.500671 243.572428 
z
" clip-path="url(#p08d8f41694)" style="fill: #bbbbbb; fill-opacity: 0.7; stroke: #000000; stroke-width: 0.273172; stroke-linejoin: miter"/>
   </g>
   <g id="patch_93">
    <path d="M 237.402635 246.76 
L 240.304598 246.76 
L 240.304598 246.76 
L 237.402635 246.76 
z
" clip-path="url(#p08d8f41694)" style="fill: #bbbbbb; fill-opacity: 0.7; stroke: #000000; stroke-width: 0.273172; stroke-linejoin: miter"/>
   </g>
   <g id="patch_94">
    <path d="M 240.304598 246.76 
L 243.206562 246.76 
L 243.206562 246.76 
L 240.304598 246.76 
z
" clip-path="url(#p08d8f41694)" style="fill: #bbbbbb; fill-opacity: 0.7; stroke: #000000; stroke-width: 0.273172; stroke-linejoin: miter"/>
   </g>
   <g id="patch_95">
    <path d="M 243.206562 246.76 
L 246.108526 246.76 
L 246.108526 246.76 
L 243.206562 246.76 
z
" clip-path="url(#p08d8f41694)" style="fill: #bbbbbb; fill-opacity: 0.7; stroke: #000000; stroke-width: 0.273172; stroke-linejoin: miter"/>
   </g>
   <g id="patch_96">
    <path d="M 246.108526 246.76 
L 249.01049 246.76 
L 249.01049 246.76 
L 246.108526 246.76 
z
" clip-path="url(#p08d8f41694)" style="fill: #bbbbbb; fill-opacity: 0.7; stroke: #000000; stroke-width: 0.273172; stroke-linejoin: miter"/>
   </g>
   <g id="patch_97">
    <path d="M 249.01049 246.76 
L 251.912454 246.76 
L 251.912454 246.76 
L 249.01049 246.76 
z
" clip-path="url(#p08d8f41694)" style="fill: #bbbbbb; fill-opacity: 0.7; stroke: #000000; stroke-width: 0.273172; stroke-linejoin: miter"/>
   </g>
   <g id="patch_98">
    <path d="M 251.912454 246.76 
L 254.814417 246.76 
L 254.814417 246.76 
L 251.912454 246.76 
z
" clip-path="url(#p08d8f41694)" style="fill: #bbbbbb; fill-opacity: 0.7; stroke: #000000; stroke-width: 0.273172; stroke-linejoin: miter"/>
   </g>
   <g id="patch_99">
    <path d="M 254.814417 246.76 
L 257.716381 246.76 
L 257.716381 246.76 
L 254.814417 246.76 
z
" clip-path="url(#p08d8f41694)" style="fill: #bbbbbb; fill-opacity: 0.7; stroke: #000000; stroke-width: 0.273172; stroke-linejoin: miter"/>
   </g>
   <g id="patch_100">
    <path d="M 257.716381 246.76 
L 260.618345 246.76 
L 260.618345 246.76 
L 257.716381 246.76 
z
" clip-path="url(#p08d8f41694)" style="fill: #bbbbbb; fill-opacity: 0.7; stroke: #000000; stroke-width: 0.273172; stroke-linejoin: miter"/>
   </g>
   <g id="patch_101">
    <path d="M 260.618345 246.76 
L 263.520309 246.76 
L 263.520309 246.76 
L 260.618345 246.76 
z
" clip-path="url(#p08d8f41694)" style="fill: #bbbbbb; fill-opacity: 0.7; stroke: #000000; stroke-width: 0.273172; stroke-linejoin: miter"/>
   </g>
   <g id="patch_102">
    <path d="M 263.520309 246.76 
L 266.422273 246.76 
L 266.422273 245.166214 
L 263.520309 245.166214 
z
" clip-path="url(#p08d8f41694)" style="fill: #bbbbbb; fill-opacity: 0.7; stroke: #000000; stroke-width: 0.273172; stroke-linejoin: miter"/>
   </g>
   <g id="matplotlib.axis_1">
    <g id="xtick_1">
     <g id="line2d_1">
      <defs>
       <path id="m0d2df26569" d="M 0 0 
L 0 3.5 
" style="stroke: #000000; stroke-width: 0.8"/>
      </defs>
      <g>
       <use xlink:href="#m0d2df26569" x="70.131548" y="246.76" style="stroke: #000000; stroke-width: 0.8"/>
      </g>
     </g>
     <g id="text_1">
      <!-- 10 -->
      <g transform="translate(63.769048 261.358437) scale(0.1 -0.1)">
       <defs>
        <path id="DejaVuSans-31" d="M 794 531 
L 1825 531 
L 1825 4091 
L 703 3866 
L 703 4441 
L 1819 4666 
L 2450 4666 
L 2450 531 
L 3481 531 
L 3481 0 
L 794 0 
L 794 531 
z
" transform="scale(0.015625)"/>
        <path id="DejaVuSans-30" d="M 2034 4250 
Q 1547 4250 1301 3770 
Q 1056 3291 1056 2328 
Q 1056 1369 1301 889 
Q 1547 409 2034 409 
Q 2525 409 2770 889 
Q 3016 1369 3016 2328 
Q 3016 3291 2770 3770 
Q 2525 4250 2034 4250 
z
M 2034 4750 
Q 2819 4750 3233 4129 
Q 3647 3509 3647 2328 
Q 3647 1150 3233 529 
Q 2819 -91 2034 -91 
Q 1250 -91 836 529 
Q 422 1150 422 2328 
Q 422 3509 836 4129 
Q 1250 4750 2034 4750 
z
" transform="scale(0.015625)"/>
       </defs>
       <use xlink:href="#DejaVuSans-31"/>
       <use xlink:href="#DejaVuSans-30" transform="translate(63.623047 0)"/>
      </g>
     </g>
    </g>
    <g id="xtick_2">
     <g id="line2d_2">
      <g>
       <use xlink:href="#m0d2df26569" x="133.542983" y="246.76" style="stroke: #000000; stroke-width: 0.8"/>
      </g>
     </g>
     <g id="text_2">
      <!-- 20 -->
      <g transform="translate(127.180483 261.358437) scale(0.1 -0.1)">
       <defs>
        <path id="DejaVuSans-32" d="M 1228 531 
L 3431 531 
L 3431 0 
L 469 0 
L 469 531 
Q 828 903 1448 1529 
Q 2069 2156 2228 2338 
Q 2531 2678 2651 2914 
Q 2772 3150 2772 3378 
Q 2772 3750 2511 3984 
Q 2250 4219 1831 4219 
Q 1534 4219 1204 4116 
Q 875 4013 500 3803 
L 500 4441 
Q 881 4594 1212 4672 
Q 1544 4750 1819 4750 
Q 2544 4750 2975 4387 
Q 3406 4025 3406 3419 
Q 3406 3131 3298 2873 
Q 3191 2616 2906 2266 
Q 2828 2175 2409 1742 
Q 1991 1309 1228 531 
z
" transform="scale(0.015625)"/>
       </defs>
       <use xlink:href="#DejaVuSans-32"/>
       <use xlink:href="#DejaVuSans-30" transform="translate(63.623047 0)"/>
      </g>
     </g>
    </g>
    <g id="xtick_3">
     <g id="line2d_3">
      <g>
       <use xlink:href="#m0d2df26569" x="196.954417" y="246.76" style="stroke: #000000; stroke-width: 0.8"/>
      </g>
     </g>
     <g id="text_3">
      <!-- 30 -->
      <g transform="translate(190.591917 261.358437) scale(0.1 -0.1)">
       <defs>
        <path id="DejaVuSans-33" d="M 2597 2516 
Q 3050 2419 3304 2112 
Q 3559 1806 3559 1356 
Q 3559 666 3084 287 
Q 2609 -91 1734 -91 
Q 1441 -91 1130 -33 
Q 819 25 488 141 
L 488 750 
Q 750 597 1062 519 
Q 1375 441 1716 441 
Q 2309 441 2620 675 
Q 2931 909 2931 1356 
Q 2931 1769 2642 2001 
Q 2353 2234 1838 2234 
L 1294 2234 
L 1294 2753 
L 1863 2753 
Q 2328 2753 2575 2939 
Q 2822 3125 2822 3475 
Q 2822 3834 2567 4026 
Q 2313 4219 1838 4219 
Q 1578 4219 1281 4162 
Q 984 4106 628 3988 
L 628 4550 
Q 988 4650 1302 4700 
Q 1616 4750 1894 4750 
Q 2613 4750 3031 4423 
Q 3450 4097 3450 3541 
Q 3450 3153 3228 2886 
Q 3006 2619 2597 2516 
z
" transform="scale(0.015625)"/>
       </defs>
       <use xlink:href="#DejaVuSans-33"/>
       <use xlink:href="#DejaVuSans-30" transform="translate(63.623047 0)"/>
      </g>
     </g>
    </g>
    <g id="xtick_4">
     <g id="line2d_4">
      <g>
       <use xlink:href="#m0d2df26569" x="260.365852" y="246.76" style="stroke: #000000; stroke-width: 0.8"/>
      </g>
     </g>
     <g id="text_4">
      <!-- 40 -->
      <g transform="translate(254.003352 261.358437) scale(0.1 -0.1)">
       <defs>
        <path id="DejaVuSans-34" d="M 2419 4116 
L 825 1625 
L 2419 1625 
L 2419 4116 
z
M 2253 4666 
L 3047 4666 
L 3047 1625 
L 3713 1625 
L 3713 1100 
L 3047 1100 
L 3047 0 
L 2419 0 
L 2419 1100 
L 313 1100 
L 313 1709 
L 2253 4666 
z
" transform="scale(0.015625)"/>
       </defs>
       <use xlink:href="#DejaVuSans-34"/>
       <use xlink:href="#DejaVuSans-30" transform="translate(63.623047 0)"/>
      </g>
     </g>
    </g>
    <g id="text_5">
     <!-- Processing Time -->
     <g transform="translate(118.125469 275.036563) scale(0.1 -0.1)">
      <defs>
       <path id="DejaVuSans-50" d="M 1259 4147 
L 1259 2394 
L 2053 2394 
Q 2494 2394 2734 2622 
Q 2975 2850 2975 3272 
Q 2975 3691 2734 3919 
Q 2494 4147 2053 4147 
L 1259 4147 
z
M 628 4666 
L 2053 4666 
Q 2838 4666 3239 4311 
Q 3641 3956 3641 3272 
Q 3641 2581 3239 2228 
Q 2838 1875 2053 1875 
L 1259 1875 
L 1259 0 
L 628 0 
L 628 4666 
z
" transform="scale(0.015625)"/>
       <path id="DejaVuSans-72" d="M 2631 2963 
Q 2534 3019 2420 3045 
Q 2306 3072 2169 3072 
Q 1681 3072 1420 2755 
Q 1159 2438 1159 1844 
L 1159 0 
L 581 0 
L 581 3500 
L 1159 3500 
L 1159 2956 
Q 1341 3275 1631 3429 
Q 1922 3584 2338 3584 
Q 2397 3584 2469 3576 
Q 2541 3569 2628 3553 
L 2631 2963 
z
" transform="scale(0.015625)"/>
       <path id="DejaVuSans-6f" d="M 1959 3097 
Q 1497 3097 1228 2736 
Q 959 2375 959 1747 
Q 959 1119 1226 758 
Q 1494 397 1959 397 
Q 2419 397 2687 759 
Q 2956 1122 2956 1747 
Q 2956 2369 2687 2733 
Q 2419 3097 1959 3097 
z
M 1959 3584 
Q 2709 3584 3137 3096 
Q 3566 2609 3566 1747 
Q 3566 888 3137 398 
Q 2709 -91 1959 -91 
Q 1206 -91 779 398 
Q 353 888 353 1747 
Q 353 2609 779 3096 
Q 1206 3584 1959 3584 
z
" transform="scale(0.015625)"/>
       <path id="DejaVuSans-63" d="M 3122 3366 
L 3122 2828 
Q 2878 2963 2633 3030 
Q 2388 3097 2138 3097 
Q 1578 3097 1268 2742 
Q 959 2388 959 1747 
Q 959 1106 1268 751 
Q 1578 397 2138 397 
Q 2388 397 2633 464 
Q 2878 531 3122 666 
L 3122 134 
Q 2881 22 2623 -34 
Q 2366 -91 2075 -91 
Q 1284 -91 818 406 
Q 353 903 353 1747 
Q 353 2603 823 3093 
Q 1294 3584 2113 3584 
Q 2378 3584 2631 3529 
Q 2884 3475 3122 3366 
z
" transform="scale(0.015625)"/>
       <path id="DejaVuSans-65" d="M 3597 1894 
L 3597 1613 
L 953 1613 
Q 991 1019 1311 708 
Q 1631 397 2203 397 
Q 2534 397 2845 478 
Q 3156 559 3463 722 
L 3463 178 
Q 3153 47 2828 -22 
Q 2503 -91 2169 -91 
Q 1331 -91 842 396 
Q 353 884 353 1716 
Q 353 2575 817 3079 
Q 1281 3584 2069 3584 
Q 2775 3584 3186 3129 
Q 3597 2675 3597 1894 
z
M 3022 2063 
Q 3016 2534 2758 2815 
Q 2500 3097 2075 3097 
Q 1594 3097 1305 2825 
Q 1016 2553 972 2059 
L 3022 2063 
z
" transform="scale(0.015625)"/>
       <path id="DejaVuSans-73" d="M 2834 3397 
L 2834 2853 
Q 2591 2978 2328 3040 
Q 2066 3103 1784 3103 
Q 1356 3103 1142 2972 
Q 928 2841 928 2578 
Q 928 2378 1081 2264 
Q 1234 2150 1697 2047 
L 1894 2003 
Q 2506 1872 2764 1633 
Q 3022 1394 3022 966 
Q 3022 478 2636 193 
Q 2250 -91 1575 -91 
Q 1294 -91 989 -36 
Q 684 19 347 128 
L 347 722 
Q 666 556 975 473 
Q 1284 391 1588 391 
Q 1994 391 2212 530 
Q 2431 669 2431 922 
Q 2431 1156 2273 1281 
Q 2116 1406 1581 1522 
L 1381 1569 
Q 847 1681 609 1914 
Q 372 2147 372 2553 
Q 372 3047 722 3315 
Q 1072 3584 1716 3584 
Q 2034 3584 2315 3537 
Q 2597 3491 2834 3397 
z
" transform="scale(0.015625)"/>
       <path id="DejaVuSans-69" d="M 603 3500 
L 1178 3500 
L 1178 0 
L 603 0 
L 603 3500 
z
M 603 4863 
L 1178 4863 
L 1178 4134 
L 603 4134 
L 603 4863 
z
" transform="scale(0.015625)"/>
       <path id="DejaVuSans-6e" d="M 3513 2113 
L 3513 0 
L 2938 0 
L 2938 2094 
Q 2938 2591 2744 2837 
Q 2550 3084 2163 3084 
Q 1697 3084 1428 2787 
Q 1159 2491 1159 1978 
L 1159 0 
L 581 0 
L 581 3500 
L 1159 3500 
L 1159 2956 
Q 1366 3272 1645 3428 
Q 1925 3584 2291 3584 
Q 2894 3584 3203 3211 
Q 3513 2838 3513 2113 
z
" transform="scale(0.015625)"/>
       <path id="DejaVuSans-67" d="M 2906 1791 
Q 2906 2416 2648 2759 
Q 2391 3103 1925 3103 
Q 1463 3103 1205 2759 
Q 947 2416 947 1791 
Q 947 1169 1205 825 
Q 1463 481 1925 481 
Q 2391 481 2648 825 
Q 2906 1169 2906 1791 
z
M 3481 434 
Q 3481 -459 3084 -895 
Q 2688 -1331 1869 -1331 
Q 1566 -1331 1297 -1286 
Q 1028 -1241 775 -1147 
L 775 -588 
Q 1028 -725 1275 -790 
Q 1522 -856 1778 -856 
Q 2344 -856 2625 -561 
Q 2906 -266 2906 331 
L 2906 616 
Q 2728 306 2450 153 
Q 2172 0 1784 0 
Q 1141 0 747 490 
Q 353 981 353 1791 
Q 353 2603 747 3093 
Q 1141 3584 1784 3584 
Q 2172 3584 2450 3431 
Q 2728 3278 2906 2969 
L 2906 3500 
L 3481 3500 
L 3481 434 
z
" transform="scale(0.015625)"/>
       <path id="DejaVuSans-20" transform="scale(0.015625)"/>
       <path id="DejaVuSans-54" d="M -19 4666 
L 3928 4666 
L 3928 4134 
L 2272 4134 
L 2272 0 
L 1638 0 
L 1638 4134 
L -19 4134 
L -19 4666 
z
" transform="scale(0.015625)"/>
       <path id="DejaVuSans-6d" d="M 3328 2828 
Q 3544 3216 3844 3400 
Q 4144 3584 4550 3584 
Q 5097 3584 5394 3201 
Q 5691 2819 5691 2113 
L 5691 0 
L 5113 0 
L 5113 2094 
Q 5113 2597 4934 2840 
Q 4756 3084 4391 3084 
Q 3944 3084 3684 2787 
Q 3425 2491 3425 1978 
L 3425 0 
L 2847 0 
L 2847 2094 
Q 2847 2600 2669 2842 
Q 2491 3084 2119 3084 
Q 1678 3084 1418 2786 
Q 1159 2488 1159 1978 
L 1159 0 
L 581 0 
L 581 3500 
L 1159 3500 
L 1159 2956 
Q 1356 3278 1631 3431 
Q 1906 3584 2284 3584 
Q 2666 3584 2933 3390 
Q 3200 3197 3328 2828 
z
" transform="scale(0.015625)"/>
      </defs>
      <use xlink:href="#DejaVuSans-50"/>
      <use xlink:href="#DejaVuSans-72" transform="translate(58.552734 0)"/>
      <use xlink:href="#DejaVuSans-6f" transform="translate(97.416016 0)"/>
      <use xlink:href="#DejaVuSans-63" transform="translate(158.597656 0)"/>
      <use xlink:href="#DejaVuSans-65" transform="translate(213.578125 0)"/>
      <use xlink:href="#DejaVuSans-73" transform="translate(275.101562 0)"/>
      <use xlink:href="#DejaVuSans-73" transform="translate(327.201172 0)"/>
      <use xlink:href="#DejaVuSans-69" transform="translate(379.300781 0)"/>
      <use xlink:href="#DejaVuSans-6e" transform="translate(407.083984 0)"/>
      <use xlink:href="#DejaVuSans-67" transform="translate(470.462891 0)"/>
      <use xlink:href="#DejaVuSans-20" transform="translate(533.939453 0)"/>
      <use xlink:href="#DejaVuSans-54" transform="translate(565.726562 0)"/>
      <use xlink:href="#DejaVuSans-69" transform="translate(623.685547 0)"/>
      <use xlink:href="#DejaVuSans-6d" transform="translate(651.46875 0)"/>
      <use xlink:href="#DejaVuSans-65" transform="translate(748.880859 0)"/>
     </g>
    </g>
   </g>
   <g id="matplotlib.axis_2">
    <g id="ytick_1">
     <g id="line2d_5">
      <defs>
       <path id="m6ab75073ec" d="M 0 0 
L -3.5 0 
" style="stroke: #000000; stroke-width: 0.8"/>
      </defs>
      <g>
       <use xlink:href="#m6ab75073ec" x="40.09" y="246.76" style="stroke: #000000; stroke-width: 0.8"/>
      </g>
     </g>
     <g id="text_6">
      <!-- 0.00 -->
      <g transform="translate(10.824375 250.559219) scale(0.1 -0.1)">
       <defs>
        <path id="DejaVuSans-2e" d="M 684 794 
L 1344 794 
L 1344 0 
L 684 0 
L 684 794 
z
" transform="scale(0.015625)"/>
       </defs>
       <use xlink:href="#DejaVuSans-30"/>
       <use xlink:href="#DejaVuSans-2e" transform="translate(63.623047 0)"/>
       <use xlink:href="#DejaVuSans-30" transform="translate(95.410156 0)"/>
       <use xlink:href="#DejaVuSans-30" transform="translate(159.033203 0)"/>
      </g>
     </g>
    </g>
    <g id="ytick_2">
     <g id="line2d_6">
      <g>
       <use xlink:href="#m6ab75073ec" x="40.09" y="219.583267" style="stroke: #000000; stroke-width: 0.8"/>
      </g>
     </g>
     <g id="text_7">
      <!-- 0.02 -->
      <g transform="translate(10.824375 223.382486) scale(0.1 -0.1)">
       <use xlink:href="#DejaVuSans-30"/>
       <use xlink:href="#DejaVuSans-2e" transform="translate(63.623047 0)"/>
       <use xlink:href="#DejaVuSans-30" transform="translate(95.410156 0)"/>
       <use xlink:href="#DejaVuSans-32" transform="translate(159.033203 0)"/>
      </g>
     </g>
    </g>
    <g id="ytick_3">
     <g id="line2d_7">
      <g>
       <use xlink:href="#m6ab75073ec" x="40.09" y="192.406535" style="stroke: #000000; stroke-width: 0.8"/>
      </g>
     </g>
     <g id="text_8">
      <!-- 0.04 -->
      <g transform="translate(10.824375 196.205754) scale(0.1 -0.1)">
       <use xlink:href="#DejaVuSans-30"/>
       <use xlink:href="#DejaVuSans-2e" transform="translate(63.623047 0)"/>
       <use xlink:href="#DejaVuSans-30" transform="translate(95.410156 0)"/>
       <use xlink:href="#DejaVuSans-34" transform="translate(159.033203 0)"/>
      </g>
     </g>
    </g>
    <g id="ytick_4">
     <g id="line2d_8">
      <g>
       <use xlink:href="#m6ab75073ec" x="40.09" y="165.229802" style="stroke: #000000; stroke-width: 0.8"/>
      </g>
     </g>
     <g id="text_9">
      <!-- 0.06 -->
      <g transform="translate(10.824375 169.029021) scale(0.1 -0.1)">
       <defs>
        <path id="DejaVuSans-36" d="M 2113 2584 
Q 1688 2584 1439 2293 
Q 1191 2003 1191 1497 
Q 1191 994 1439 701 
Q 1688 409 2113 409 
Q 2538 409 2786 701 
Q 3034 994 3034 1497 
Q 3034 2003 2786 2293 
Q 2538 2584 2113 2584 
z
M 3366 4563 
L 3366 3988 
Q 3128 4100 2886 4159 
Q 2644 4219 2406 4219 
Q 1781 4219 1451 3797 
Q 1122 3375 1075 2522 
Q 1259 2794 1537 2939 
Q 1816 3084 2150 3084 
Q 2853 3084 3261 2657 
Q 3669 2231 3669 1497 
Q 3669 778 3244 343 
Q 2819 -91 2113 -91 
Q 1303 -91 875 529 
Q 447 1150 447 2328 
Q 447 3434 972 4092 
Q 1497 4750 2381 4750 
Q 2619 4750 2861 4703 
Q 3103 4656 3366 4563 
z
" transform="scale(0.015625)"/>
       </defs>
       <use xlink:href="#DejaVuSans-30"/>
       <use xlink:href="#DejaVuSans-2e" transform="translate(63.623047 0)"/>
       <use xlink:href="#DejaVuSans-30" transform="translate(95.410156 0)"/>
       <use xlink:href="#DejaVuSans-36" transform="translate(159.033203 0)"/>
      </g>
     </g>
    </g>
    <g id="ytick_5">
     <g id="line2d_9">
      <g>
       <use xlink:href="#m6ab75073ec" x="40.09" y="138.05307" style="stroke: #000000; stroke-width: 0.8"/>
      </g>
     </g>
     <g id="text_10">
      <!-- 0.08 -->
      <g transform="translate(10.824375 141.852289) scale(0.1 -0.1)">
       <defs>
        <path id="DejaVuSans-38" d="M 2034 2216 
Q 1584 2216 1326 1975 
Q 1069 1734 1069 1313 
Q 1069 891 1326 650 
Q 1584 409 2034 409 
Q 2484 409 2743 651 
Q 3003 894 3003 1313 
Q 3003 1734 2745 1975 
Q 2488 2216 2034 2216 
z
M 1403 2484 
Q 997 2584 770 2862 
Q 544 3141 544 3541 
Q 544 4100 942 4425 
Q 1341 4750 2034 4750 
Q 2731 4750 3128 4425 
Q 3525 4100 3525 3541 
Q 3525 3141 3298 2862 
Q 3072 2584 2669 2484 
Q 3125 2378 3379 2068 
Q 3634 1759 3634 1313 
Q 3634 634 3220 271 
Q 2806 -91 2034 -91 
Q 1263 -91 848 271 
Q 434 634 434 1313 
Q 434 1759 690 2068 
Q 947 2378 1403 2484 
z
M 1172 3481 
Q 1172 3119 1398 2916 
Q 1625 2713 2034 2713 
Q 2441 2713 2670 2916 
Q 2900 3119 2900 3481 
Q 2900 3844 2670 4047 
Q 2441 4250 2034 4250 
Q 1625 4250 1398 4047 
Q 1172 3844 1172 3481 
z
" transform="scale(0.015625)"/>
       </defs>
       <use xlink:href="#DejaVuSans-30"/>
       <use xlink:href="#DejaVuSans-2e" transform="translate(63.623047 0)"/>
       <use xlink:href="#DejaVuSans-30" transform="translate(95.410156 0)"/>
       <use xlink:href="#DejaVuSans-38" transform="translate(159.033203 0)"/>
      </g>
     </g>
    </g>
    <g id="ytick_6">
     <g id="line2d_10">
      <g>
       <use xlink:href="#m6ab75073ec" x="40.09" y="110.876337" style="stroke: #000000; stroke-width: 0.8"/>
      </g>
     </g>
     <g id="text_11">
      <!-- 0.10 -->
      <g transform="translate(10.824375 114.675556) scale(0.1 -0.1)">
       <use xlink:href="#DejaVuSans-30"/>
       <use xlink:href="#DejaVuSans-2e" transform="translate(63.623047 0)"/>
       <use xlink:href="#DejaVuSans-31" transform="translate(95.410156 0)"/>
       <use xlink:href="#DejaVuSans-30" transform="translate(159.033203 0)"/>
      </g>
     </g>
    </g>
    <g id="ytick_7">
     <g id="line2d_11">
      <g>
       <use xlink:href="#m6ab75073ec" x="40.09" y="83.699605" style="stroke: #000000; stroke-width: 0.8"/>
      </g>
     </g>
     <g id="text_12">
      <!-- 0.12 -->
      <g transform="translate(10.824375 87.498823) scale(0.1 -0.1)">
       <use xlink:href="#DejaVuSans-30"/>
       <use xlink:href="#DejaVuSans-2e" transform="translate(63.623047 0)"/>
       <use xlink:href="#DejaVuSans-31" transform="translate(95.410156 0)"/>
       <use xlink:href="#DejaVuSans-32" transform="translate(159.033203 0)"/>
      </g>
     </g>
    </g>
    <g id="ytick_8">
     <g id="line2d_12">
      <g>
       <use xlink:href="#m6ab75073ec" x="40.09" y="56.522872" style="stroke: #000000; stroke-width: 0.8"/>
      </g>
     </g>
     <g id="text_13">
      <!-- 0.14 -->
      <g transform="translate(10.824375 60.322091) scale(0.1 -0.1)">
       <use xlink:href="#DejaVuSans-30"/>
       <use xlink:href="#DejaVuSans-2e" transform="translate(63.623047 0)"/>
       <use xlink:href="#DejaVuSans-31" transform="translate(95.410156 0)"/>
       <use xlink:href="#DejaVuSans-34" transform="translate(159.033203 0)"/>
      </g>
     </g>
    </g>
    <g id="ytick_9">
     <g id="line2d_13">
      <g>
       <use xlink:href="#m6ab75073ec" x="40.09" y="29.34614" style="stroke: #000000; stroke-width: 0.8"/>
      </g>
     </g>
     <g id="text_14">
      <!-- 0.16 -->
      <g transform="translate(10.824375 33.145358) scale(0.1 -0.1)">
       <use xlink:href="#DejaVuSans-30"/>
       <use xlink:href="#DejaVuSans-2e" transform="translate(63.623047 0)"/>
       <use xlink:href="#DejaVuSans-31" transform="translate(95.410156 0)"/>
       <use xlink:href="#DejaVuSans-36" transform="translate(159.033203 0)"/>
      </g>
     </g>
    </g>
   </g>
   <g id="line2d_14">
    <path d="M 50.867727 245.243868 
L 52.163646 244.418739 
L 53.459565 243.25716 
L 54.755485 241.671054 
L 56.051404 239.566146 
L 57.347323 236.846413 
L 58.643242 233.419449 
L 59.939161 229.202393 
L 61.23508 224.127954 
L 62.530999 218.150069 
L 63.826918 211.24872 
L 65.554811 200.631609 
L 67.282703 188.504308 
L 69.442568 171.551389 
L 72.466379 145.606682 
L 77.218083 104.573945 
L 79.377948 87.925602 
L 81.10584 76.24534 
L 82.401759 68.64316 
L 83.697678 62.144312 
L 84.993597 56.820157 
L 85.857543 53.946568 
L 86.721489 51.622409 
L 87.585435 49.849597 
L 88.449381 48.625333 
L 89.313328 47.942392 
L 89.745301 47.800527 
L 90.177274 47.789444 
L 90.609247 47.907144 
L 91.473193 48.519866 
L 92.337139 49.618737 
L 93.201085 51.181048 
L 94.065031 53.181747 
L 95.36095 56.945303 
L 96.656869 61.536982 
L 98.384761 68.770599 
L 100.112653 77.047587 
L 102.272519 88.4894 
L 105.728303 108.28015 
L 111.775925 143.24343 
L 114.799737 159.373829 
L 117.391575 172.026446 
L 119.55144 181.636031 
L 121.711305 190.359683 
L 123.871171 198.196721 
L 126.031036 205.170984 
L 128.190901 211.3243 
L 130.350766 216.71082 
L 132.510631 221.392257 
L 134.670496 225.434045 
L 136.830362 228.902336 
L 138.990227 231.861753 
L 141.150092 234.373795 
L 143.309957 236.495779 
L 145.469822 238.280218 
L 147.629688 239.774534 
L 149.789553 241.021025 
L 152.381391 242.241912 
L 154.973229 243.215082 
L 157.99704 244.099359 
L 161.452825 244.852357 
L 165.340582 245.455126 
L 170.092285 245.945369 
L 176.139908 246.317002 
L 184.347396 246.568897 
L 197.306587 246.710551 
L 228.408645 246.75819 
L 266.422273 246.759969 
L 266.422273 246.759969 
" clip-path="url(#p08d8f41694)" style="fill: none; stroke: #888888; stroke-width: 2; stroke-linecap: square"/>
   </g>
   <g id="line2d_15">
    <path d="M 50.867727 246.76 
L 112.639872 246.660972 
L 116.527629 246.42399 
L 119.119467 246.060389 
L 121.279332 245.529079 
L 123.007224 244.880357 
L 124.735117 243.958871 
L 126.031036 243.039656 
L 127.326955 241.881514 
L 128.622874 240.441667 
L 129.918793 238.674763 
L 131.214712 236.533967 
L 132.510631 233.972321 
L 133.80655 230.944355 
L 135.102469 227.407895 
L 136.398389 223.326006 
L 138.126281 216.985024 
L 139.854173 209.578642 
L 141.582065 201.099454 
L 143.309957 191.582773 
L 145.469822 178.357468 
L 148.061661 160.902639 
L 152.381391 129.799306 
L 155.837175 105.488685 
L 157.99704 91.671417 
L 159.724933 81.81681 
L 161.452825 73.287166 
L 162.748744 67.879919 
L 164.044663 63.396163 
L 165.340582 59.885921 
L 166.204528 58.103675 
L 167.068474 56.774783 
L 167.93242 55.901476 
L 168.796366 55.482686 
L 169.228339 55.442522 
L 170.092285 55.696539 
L 170.956232 56.388701 
L 171.820178 57.507391 
L 172.684124 59.038389 
L 173.54807 60.965096 
L 174.843989 64.555601 
L 176.139908 68.922954 
L 177.435827 73.988741 
L 179.163719 81.684034 
L 181.323584 92.522258 
L 183.915423 106.77525 
L 194.282776 165.393441 
L 196.874614 178.184454 
L 199.034479 187.880417 
L 201.194344 196.64215 
L 203.354209 204.45564 
L 205.514075 211.33824 
L 207.241967 216.201302 
L 208.969859 220.524268 
L 210.697751 224.341658 
L 212.425643 227.691249 
L 214.153535 230.612542 
L 215.881427 233.145483 
L 217.60932 235.329432 
L 219.337212 237.202361 
L 221.065104 238.80026 
L 223.224969 240.461805 
L 225.384834 241.805677 
L 227.544699 242.884851 
L 230.136538 243.895059 
L 232.728376 244.657928 
L 235.752187 245.308636 
L 239.207971 245.820496 
L 243.527702 246.223378 
L 249.143351 246.50742 
L 257.350839 246.679918 
L 266.422273 246.738776 
L 266.422273 246.738776 
" clip-path="url(#p08d8f41694)" style="fill: none; stroke: #bbbbbb; stroke-width: 2; stroke-linecap: square"/>
   </g>
   <g id="patch_103">
    <path d="M 40.09 246.76 
L 40.09 10.8 
" style="fill: none; stroke: #000000; stroke-width: 0.8; stroke-linejoin: miter; stroke-linecap: square"/>
   </g>
   <g id="patch_104">
    <path d="M 277.2 246.76 
L 277.2 10.8 
" style="fill: none; stroke: #000000; stroke-width: 0.8; stroke-linejoin: miter; stroke-linecap: square"/>
   </g>
   <g id="patch_105">
    <path d="M 40.09 246.76 
L 277.2 246.76 
" style="fill: none; stroke: #000000; stroke-width: 0.8; stroke-linejoin: miter; stroke-linecap: square"/>
   </g>
   <g id="patch_106">
    <path d="M 40.09 10.8 
L 277.2 10.8 
" style="fill: none; stroke: #000000; stroke-width: 0.8; stroke-linejoin: miter; stroke-linecap: square"/>
   </g>
   <g id="patch_107">
    <path d="M 64.297001 130.432095 
Q 78.992752 140.826788 92.775727 150.57585 
" style="fill: none; stroke: #000000; stroke-linecap: round"/>
    <path d="M 90.665018 146.633146 
L 92.775727 150.57585 
L 88.355139 149.898795 
" style="fill: none; stroke: #000000; stroke-linecap: round"/>
   </g>
   <g id="text_15">
    <!-- True -->
    <g transform="translate(42.380641 125.199267) scale(0.1 -0.1)">
     <defs>
      <path id="DejaVuSans-75" d="M 544 1381 
L 544 3500 
L 1119 3500 
L 1119 1403 
Q 1119 906 1312 657 
Q 1506 409 1894 409 
Q 2359 409 2629 706 
Q 2900 1003 2900 1516 
L 2900 3500 
L 3475 3500 
L 3475 0 
L 2900 0 
L 2900 538 
Q 2691 219 2414 64 
Q 2138 -91 1772 -91 
Q 1169 -91 856 284 
Q 544 659 544 1381 
z
M 1991 3584 
L 1991 3584 
z
" transform="scale(0.015625)"/>
     </defs>
     <use xlink:href="#DejaVuSans-54"/>
     <use xlink:href="#DejaVuSans-72" transform="translate(46.333984 0)"/>
     <use xlink:href="#DejaVuSans-75" transform="translate(87.447266 0)"/>
     <use xlink:href="#DejaVuSans-65" transform="translate(150.826172 0)"/>
    </g>
   </g>
   <g id="patch_108">
    <path d="M 214.302386 130.210767 
Q 194.105904 140.828677 174.89903 150.926319 
" style="fill: none; stroke: #000000; stroke-linecap: round"/>
    <path d="M 179.370238 150.835219 
L 174.89903 150.926319 
L 177.508874 147.294693 
" style="fill: none; stroke: #000000; stroke-linecap: round"/>
   </g>
   <g id="text_16">
    <!-- False -->
    <g transform="translate(216.529575 125.199267) scale(0.1 -0.1)">
     <defs>
      <path id="DejaVuSans-46" d="M 628 4666 
L 3309 4666 
L 3309 4134 
L 1259 4134 
L 1259 2759 
L 3109 2759 
L 3109 2228 
L 1259 2228 
L 1259 0 
L 628 0 
L 628 4666 
z
" transform="scale(0.015625)"/>
      <path id="DejaVuSans-61" d="M 2194 1759 
Q 1497 1759 1228 1600 
Q 959 1441 959 1056 
Q 959 750 1161 570 
Q 1363 391 1709 391 
Q 2188 391 2477 730 
Q 2766 1069 2766 1631 
L 2766 1759 
L 2194 1759 
z
M 3341 1997 
L 3341 0 
L 2766 0 
L 2766 531 
Q 2569 213 2275 61 
Q 1981 -91 1556 -91 
Q 1019 -91 701 211 
Q 384 513 384 1019 
Q 384 1609 779 1909 
Q 1175 2209 1959 2209 
L 2766 2209 
L 2766 2266 
Q 2766 2663 2505 2880 
Q 2244 3097 1772 3097 
Q 1472 3097 1187 3025 
Q 903 2953 641 2809 
L 641 3341 
Q 956 3463 1253 3523 
Q 1550 3584 1831 3584 
Q 2591 3584 2966 3190 
Q 3341 2797 3341 1997 
z
" transform="scale(0.015625)"/>
      <path id="DejaVuSans-6c" d="M 603 4863 
L 1178 4863 
L 1178 0 
L 603 0 
L 603 4863 
z
" transform="scale(0.015625)"/>
     </defs>
     <use xlink:href="#DejaVuSans-46"/>
     <use xlink:href="#DejaVuSans-61" transform="translate(48.394531 0)"/>
     <use xlink:href="#DejaVuSans-6c" transform="translate(109.673828 0)"/>
     <use xlink:href="#DejaVuSans-73" transform="translate(137.457031 0)"/>
     <use xlink:href="#DejaVuSans-65" transform="translate(189.556641 0)"/>
    </g>
   </g>
  </g>
 </g>
 <defs>
  <clipPath id="p08d8f41694">
   <rect x="40.09" y="10.8" width="237.11" height="235.96"/>
  </clipPath>
 </defs>
</svg>
