<?xml version="1.0" encoding="utf-8" standalone="no"?>
<!DOCTYPE svg PUBLIC "-//W3C//DTD SVG 1.1//EN"
  "http://www.w3.org/Graphics/SVG/1.1/DTD/svg11.dtd">
<svg xmlns:xlink="http://www.w3.org/1999/xlink" width="360pt" height="360pt" viewBox="0 0 360 360" xmlns="http://www.w3.org/2000/svg" version="1.1">
 <metadata>
  <rdf:RDF xmlns:dc="http://purl.org/dc/elements/1.1/" xmlns:cc="http://creativecommons.org/ns#" xmlns:rdf="http://www.w3.org/1999/02/22-rdf-syntax-ns#">
   <cc:Work>
    <dc:type rdf:resource="http://purl.org/dc/dcmitype/StillImage"/>
    <dc:date>2025-05-09T14:07:34.544424</dc:date>
    <dc:format>image/svg+xml</dc:format>
    <dc:creator>
     <cc:Agent>
      <dc:title>Matplotlib v3.10.0, https://matplotlib.org/</dc:title>
     </cc:Agent>
    </dc:creator>
   </cc:Work>
  </rdf:RDF>
 </metadata>
 <defs>
  <style type="text/css">*{stroke-linejoin: round; stroke-linecap: butt}</style>
 </defs>
 <g id="figure_1">
  <g id="patch_1">
   <path d="M 0 360 
L 360 360 
L 360 0 
L 0 0 
z
" style="fill: #ffffff"/>
  </g>
  <g id="axes_1">
   <g id="patch_2">
    <path d="M 44.255 284.741751 
L 349.2 284.741751 
L 349.2 10.8 
L 44.255 10.8 
z
" style="fill: #ffffff"/>
   </g>
   <g id="FillBetweenPolyCollection_1">
    <defs>
     <path id="m65f0af68b3" d="M 87.472173 -87.710147 
L 87.122779 -87.710147 
L 87.058062 -89.80857 
L 86.975583 -91.906994 
L 86.872694 -94.005417 
L 86.74701 -96.103841 
L 86.596601 -98.202264 
L 86.420172 -100.300688 
L 86.217209 -102.399111 
L 85.988075 -104.497535 
L 85.734043 -106.595958 
L 85.45726 -108.694381 
L 85.160634 -110.792805 
L 84.847659 -112.891228 
L 84.522172 -114.989652 
L 84.188059 -117.088075 
L 83.848906 -119.186499 
L 83.507611 -121.284922 
L 83.165962 -123.383346 
L 82.824206 -125.481769 
L 82.480622 -127.580193 
L 82.131159 -129.678616 
L 81.76918 -131.77704 
L 81.385371 -133.875463 
L 80.967876 -135.973887 
L 80.502703 -138.07231 
L 79.974428 -140.170734 
L 79.367181 -142.269157 
L 78.6659 -144.367581 
L 77.857742 -146.466004 
L 76.933581 -148.564428 
L 75.88943 -150.662851 
L 74.727636 -152.761275 
L 73.457716 -154.859698 
L 72.096667 -156.958122 
L 70.668663 -159.056545 
L 69.204088 -161.154969 
L 67.73791 -163.253392 
L 66.307496 -165.351815 
L 64.950031 -167.450239 
L 63.699769 -169.548662 
L 62.585379 -171.647086 
L 61.627656 -173.745509 
L 60.837861 -175.843933 
L 60.216872 -177.942356 
L 59.755275 -180.04078 
L 59.43441 -182.139203 
L 59.228305 -184.237627 
L 59.106322 -186.33605 
L 59.036273 -188.434474 
L 58.9877 -190.532897 
L 58.934987 -192.631321 
L 58.85999 -194.729744 
L 58.75388 -196.828168 
L 58.617998 -198.926591 
L 58.463609 -201.025015 
L 58.310555 -203.123438 
L 58.184944 -205.221862 
L 58.116136 -207.320285 
L 58.133359 -209.418709 
L 58.262352 -211.517132 
L 58.522442 -213.615556 
L 58.924387 -215.713979 
L 59.469256 -217.812403 
L 60.148443 -219.910826 
L 60.944818 -222.00925 
L 61.834828 -224.107673 
L 62.791283 -226.206096 
L 63.786444 -228.30452 
L 64.795028 -230.402943 
L 65.796745 -232.501367 
L 66.778054 -234.59979 
L 67.732934 -236.698214 
L 68.66262 -238.796637 
L 69.574364 -240.895061 
L 70.47945 -242.993484 
L 71.390771 -245.091908 
L 72.320339 -247.190331 
L 73.277071 -249.288755 
L 74.265177 -251.387178 
L 75.283309 -253.485602 
L 76.324559 -255.584025 
L 77.37721 -257.682449 
L 78.426079 -259.780872 
L 79.454181 -261.879296 
L 80.444465 -263.977719 
L 81.381365 -266.076143 
L 82.251995 -268.174566 
L 83.046892 -270.27299 
L 83.760306 -272.371413 
L 84.390072 -274.469837 
L 84.937202 -276.56826 
L 85.405272 -278.666684 
L 85.799763 -280.765107 
L 86.127398 -282.863531 
L 86.395576 -284.961954 
L 86.611898 -287.060377 
L 86.783812 -289.158801 
L 86.918362 -291.257224 
L 87.022013 -293.355648 
L 87.100557 -295.454071 
L 87.494395 -295.454071 
L 87.494395 -295.454071 
L 87.572939 -293.355648 
L 87.67659 -291.257224 
L 87.81114 -289.158801 
L 87.983055 -287.060377 
L 88.199377 -284.961954 
L 88.467554 -282.863531 
L 88.79519 -280.765107 
L 89.18968 -278.666684 
L 89.65775 -276.56826 
L 90.20488 -274.469837 
L 90.834647 -272.371413 
L 91.54806 -270.27299 
L 92.342957 -268.174566 
L 93.213587 -266.076143 
L 94.150487 -263.977719 
L 95.140771 -261.879296 
L 96.168873 -259.780872 
L 97.217742 -257.682449 
L 98.270393 -255.584025 
L 99.311643 -253.485602 
L 100.329776 -251.387178 
L 101.317881 -249.288755 
L 102.274613 -247.190331 
L 103.204181 -245.091908 
L 104.115502 -242.993484 
L 105.020588 -240.895061 
L 105.932332 -238.796637 
L 106.862018 -236.698214 
L 107.816898 -234.59979 
L 108.798207 -232.501367 
L 109.799924 -230.402943 
L 110.808509 -228.30452 
L 111.803669 -226.206096 
L 112.760124 -224.107673 
L 113.650134 -222.00925 
L 114.446509 -219.910826 
L 115.125696 -217.812403 
L 115.670565 -215.713979 
L 116.07251 -213.615556 
L 116.3326 -211.517132 
L 116.461593 -209.418709 
L 116.478816 -207.320285 
L 116.410008 -205.221862 
L 116.284397 -203.123438 
L 116.131343 -201.025015 
L 115.976954 -198.926591 
L 115.841072 -196.828168 
L 115.734962 -194.729744 
L 115.659965 -192.631321 
L 115.607253 -190.532897 
L 115.558679 -188.434474 
L 115.48863 -186.33605 
L 115.366647 -184.237627 
L 115.160542 -182.139203 
L 114.839677 -180.04078 
L 114.37808 -177.942356 
L 113.757091 -175.843933 
L 112.967296 -173.745509 
L 112.009573 -171.647086 
L 110.895183 -169.548662 
L 109.644922 -167.450239 
L 108.287457 -165.351815 
L 106.857042 -163.253392 
L 105.390864 -161.154969 
L 103.926289 -159.056545 
L 102.498285 -156.958122 
L 101.137236 -154.859698 
L 99.867316 -152.761275 
L 98.705522 -150.662851 
L 97.661371 -148.564428 
L 96.737211 -146.466004 
L 95.929053 -144.367581 
L 95.227771 -142.269157 
L 94.620525 -140.170734 
L 94.092249 -138.07231 
L 93.627077 -135.973887 
L 93.209581 -133.875463 
L 92.825772 -131.77704 
L 92.463793 -129.678616 
L 92.11433 -127.580193 
L 91.770746 -125.481769 
L 91.42899 -123.383346 
L 91.087342 -121.284922 
L 90.746046 -119.186499 
L 90.406893 -117.088075 
L 90.07278 -114.989652 
L 89.747294 -112.891228 
L 89.434318 -110.792805 
L 89.137692 -108.694381 
L 88.860909 -106.595958 
L 88.606877 -104.497535 
L 88.377743 -102.399111 
L 88.17478 -100.300688 
L 87.998351 -98.202264 
L 87.847943 -96.103841 
L 87.722258 -94.005417 
L 87.619369 -91.906994 
L 87.53689 -89.80857 
L 87.472173 -87.710147 
z
" style="stroke: #525252; stroke-width: 1.2"/>
    </defs>
    <g clip-path="url(#p0ee94bfad9)">
     <use xlink:href="#m65f0af68b3" x="0" y="360" style="fill: #bbbbbb; stroke: #525252; stroke-width: 1.2"/>
    </g>
   </g>
   <g id="FillBetweenPolyCollection_2">
    <defs>
     <path id="m28ea67e6d2" d="M 160.40091 -107.51085 
L 160.100741 -107.51085 
L 160.050024 -109.37982 
L 159.987845 -111.248789 
L 159.91356 -113.117758 
L 159.827047 -114.986727 
L 159.728752 -116.855696 
L 159.619629 -118.724665 
L 159.500946 -120.593635 
L 159.373932 -122.462604 
L 159.239292 -124.331573 
L 159.096604 -126.200542 
L 158.943671 -128.069511 
L 158.775927 -129.93848 
L 158.58598 -131.80745 
L 158.363413 -133.676419 
L 158.094927 -135.545388 
L 157.764878 -137.414357 
L 157.356228 -139.283326 
L 156.851857 -141.152295 
L 156.236153 -143.021265 
L 155.496733 -144.890234 
L 154.626119 -146.759203 
L 153.623186 -148.628172 
L 152.494187 -150.497141 
L 151.2532 -152.36611 
L 149.921895 -154.23508 
L 148.52855 -156.104049 
L 147.106387 -157.973018 
L 145.691295 -159.841987 
L 144.319176 -161.710956 
L 143.023135 -163.579925 
L 141.83083 -165.448895 
L 140.762258 -167.317864 
L 139.828253 -169.186833 
L 139.029871 -171.055802 
L 138.358755 -172.924771 
L 137.79844 -174.79374 
L 137.326439 -176.66271 
L 136.916875 -178.531679 
L 136.543331 -180.400648 
L 136.181592 -182.269617 
L 135.811973 -184.138586 
L 135.420992 -186.007555 
L 135.002244 -187.876525 
L 134.556414 -189.745494 
L 134.09051 -191.614463 
L 133.616437 -193.483432 
L 133.149134 -195.352401 
L 132.704525 -197.22137 
L 132.297548 -199.090339 
L 131.94051 -200.959309 
L 131.641984 -202.828278 
L 131.406385 -204.697247 
L 131.234258 -206.566216 
L 131.123241 -208.435185 
L 131.069508 -210.304154 
L 131.069486 -212.173124 
L 131.121498 -214.042093 
L 131.227071 -215.911062 
L 131.391624 -217.780031 
L 131.624384 -219.649 
L 131.937499 -221.517969 
L 132.344449 -223.386939 
L 132.857999 -225.255908 
L 133.488003 -227.124877 
L 134.239436 -228.993846 
L 135.110968 -230.862815 
L 136.094335 -232.731784 
L 137.174612 -234.600754 
L 138.331363 -236.469723 
L 139.540469 -238.338692 
L 140.776379 -240.207661 
L 142.014412 -242.07663 
L 143.232806 -243.945599 
L 144.414237 -245.814569 
L 145.546647 -247.683538 
L 146.623355 -249.552507 
L 147.642526 -251.421476 
L 148.606167 -253.290445 
L 149.518867 -255.159414 
L 150.386492 -257.028384 
L 151.215018 -258.897353 
L 152.009611 -260.766322 
L 152.774016 -262.635291 
L 153.51026 -264.50426 
L 154.21861 -266.373229 
L 154.897751 -268.242199 
L 155.545098 -270.111168 
L 156.157212 -271.980137 
L 156.730245 -273.849106 
L 157.2604 -275.718075 
L 157.744359 -277.587044 
L 158.179647 -279.456014 
L 158.564908 -281.324983 
L 158.90007 -283.193952 
L 159.186385 -285.062921 
L 159.426352 -286.93189 
L 159.623526 -288.800859 
L 159.782255 -290.669829 
L 159.90738 -292.538798 
L 160.59427 -292.538798 
L 160.59427 -292.538798 
L 160.719395 -290.669829 
L 160.878125 -288.800859 
L 161.075299 -286.93189 
L 161.315266 -285.062921 
L 161.601581 -283.193952 
L 161.936743 -281.324983 
L 162.322003 -279.456014 
L 162.757291 -277.587044 
L 163.241251 -275.718075 
L 163.771406 -273.849106 
L 164.344439 -271.980137 
L 164.956552 -270.111168 
L 165.6039 -268.242199 
L 166.28304 -266.373229 
L 166.991391 -264.50426 
L 167.727634 -262.635291 
L 168.49204 -260.766322 
L 169.286632 -258.897353 
L 170.115159 -257.028384 
L 170.982784 -255.159414 
L 171.895484 -253.290445 
L 172.859124 -251.421476 
L 173.878295 -249.552507 
L 174.955004 -247.683538 
L 176.087414 -245.814569 
L 177.268845 -243.945599 
L 178.487239 -242.07663 
L 179.725272 -240.207661 
L 180.961182 -238.338692 
L 182.170288 -236.469723 
L 183.327038 -234.600754 
L 184.407316 -232.731784 
L 185.390683 -230.862815 
L 186.262215 -228.993846 
L 187.013648 -227.124877 
L 187.643652 -225.255908 
L 188.157201 -223.386939 
L 188.564152 -221.517969 
L 188.877266 -219.649 
L 189.110027 -217.780031 
L 189.27458 -215.911062 
L 189.380153 -214.042093 
L 189.432165 -212.173124 
L 189.432142 -210.304154 
L 189.37841 -208.435185 
L 189.267392 -206.566216 
L 189.095266 -204.697247 
L 188.859667 -202.828278 
L 188.561141 -200.959309 
L 188.204102 -199.090339 
L 187.797125 -197.22137 
L 187.352517 -195.352401 
L 186.885214 -193.483432 
L 186.411141 -191.614463 
L 185.945237 -189.745494 
L 185.499407 -187.876525 
L 185.080658 -186.007555 
L 184.689678 -184.138586 
L 184.320059 -182.269617 
L 183.958319 -180.400648 
L 183.584775 -178.531679 
L 183.175211 -176.66271 
L 182.70321 -174.79374 
L 182.142895 -172.924771 
L 181.47178 -171.055802 
L 180.673398 -169.186833 
L 179.739393 -167.317864 
L 178.670821 -165.448895 
L 177.478516 -163.579925 
L 176.182475 -161.710956 
L 174.810356 -159.841987 
L 173.395264 -157.973018 
L 171.9731 -156.104049 
L 170.579756 -154.23508 
L 169.24845 -152.36611 
L 168.007464 -150.497141 
L 166.878464 -148.628172 
L 165.875532 -146.759203 
L 165.004918 -144.890234 
L 164.265497 -143.021265 
L 163.649794 -141.152295 
L 163.145423 -139.283326 
L 162.736773 -137.414357 
L 162.406724 -135.545388 
L 162.138238 -133.676419 
L 161.915671 -131.80745 
L 161.725723 -129.93848 
L 161.55798 -128.069511 
L 161.405047 -126.200542 
L 161.262359 -124.331573 
L 161.127719 -122.462604 
L 161.000705 -120.593635 
L 160.882021 -118.724665 
L 160.772899 -116.855696 
L 160.674604 -114.986727 
L 160.588091 -113.117758 
L 160.513805 -111.248789 
L 160.451626 -109.37982 
L 160.40091 -107.51085 
z
" style="stroke: #525252; stroke-width: 1.2"/>
    </defs>
    <g clip-path="url(#p0ee94bfad9)">
     <use xlink:href="#m28ea67e6d2" x="0" y="360" style="fill: #888888; stroke: #525252; stroke-width: 1.2"/>
    </g>
   </g>
   <g id="FillBetweenPolyCollection_3">
    <defs>
     <path id="m03ae1e46cb" d="M 233.45821 -147.728696 
L 232.950139 -147.728696 
L 232.855322 -149.637983 
L 232.735742 -151.54727 
L 232.588827 -153.456557 
L 232.412928 -155.365844 
L 232.207596 -157.275131 
L 231.973737 -159.184418 
L 231.713628 -161.093705 
L 231.43074 -163.002992 
L 231.129403 -164.912279 
L 230.814337 -166.821566 
L 230.490126 -168.730853 
L 230.160705 -170.640139 
L 229.828938 -172.549426 
L 229.496346 -174.458713 
L 229.163011 -176.368 
L 228.82764 -178.277287 
L 228.487788 -180.186574 
L 228.140166 -182.095861 
L 227.781022 -184.005148 
L 227.406555 -185.914435 
L 227.013321 -187.823722 
L 226.598637 -189.733009 
L 226.160907 -191.642296 
L 225.699856 -193.551583 
L 225.216574 -195.46087 
L 224.713316 -197.370156 
L 224.193003 -199.279443 
L 223.658419 -201.18873 
L 223.111145 -203.098017 
L 222.55038 -205.007304 
L 221.971816 -206.916591 
L 221.366823 -208.825878 
L 220.722185 -210.735165 
L 220.020584 -212.644452 
L 219.241994 -214.553739 
L 218.365968 -216.463026 
L 217.374719 -218.372313 
L 216.256672 -220.2816 
L 215.010082 -222.190887 
L 213.64616 -224.100173 
L 212.191141 -226.00946 
L 210.686758 -227.918747 
L 209.188786 -229.828034 
L 207.763511 -231.737321 
L 206.482346 -233.646608 
L 205.41511 -235.555895 
L 204.622769 -237.465182 
L 204.150612 -239.374469 
L 204.022835 -241.283756 
L 204.23936 -243.193043 
L 204.775424 -245.10233 
L 205.584053 -247.011617 
L 206.601123 -248.920904 
L 207.752333 -250.83019 
L 208.961134 -252.739477 
L 210.156579 -254.648764 
L 211.280088 -256.558051 
L 212.290364 -258.467338 
L 213.165965 -260.376625 
L 213.905432 -262.285912 
L 214.525159 -264.195199 
L 215.055502 -266.104486 
L 215.53575 -268.013773 
L 216.008674 -269.92306 
L 216.515294 -271.832347 
L 217.090432 -273.741634 
L 217.759394 -275.650921 
L 218.536013 -277.560207 
L 219.422054 -279.469494 
L 220.407876 -281.378781 
L 221.474135 -283.288068 
L 222.594221 -285.197355 
L 223.737128 -287.106642 
L 224.870432 -289.015929 
L 225.963095 -290.925216 
L 226.987866 -292.834503 
L 227.923101 -294.74379 
L 228.753906 -296.653077 
L 229.472579 -298.562364 
L 230.078381 -300.471651 
L 230.576736 -302.380938 
L 230.977978 -304.290224 
L 231.295844 -306.199511 
L 231.545841 -308.108798 
L 231.743704 -310.018085 
L 231.904056 -311.927372 
L 232.039402 -313.836659 
L 232.159508 -315.745946 
L 232.27118 -317.655233 
L 232.378405 -319.56452 
L 232.482776 -321.473807 
L 232.584086 -323.383094 
L 232.680997 -325.292381 
L 232.771676 -327.201668 
L 232.854312 -329.110955 
L 232.927495 -331.020241 
L 232.990411 -332.929528 
L 233.042903 -334.838815 
L 233.085406 -336.748102 
L 233.322943 -336.748102 
L 233.322943 -336.748102 
L 233.365446 -334.838815 
L 233.417938 -332.929528 
L 233.480854 -331.020241 
L 233.554037 -329.110955 
L 233.636674 -327.201668 
L 233.727352 -325.292381 
L 233.824264 -323.383094 
L 233.925573 -321.473807 
L 234.029944 -319.56452 
L 234.13717 -317.655233 
L 234.248841 -315.745946 
L 234.368947 -313.836659 
L 234.504293 -311.927372 
L 234.664646 -310.018085 
L 234.862508 -308.108798 
L 235.112506 -306.199511 
L 235.430371 -304.290224 
L 235.831614 -302.380938 
L 236.329968 -300.471651 
L 236.935771 -298.562364 
L 237.654443 -296.653077 
L 238.485248 -294.74379 
L 239.420483 -292.834503 
L 240.445254 -290.925216 
L 241.537918 -289.015929 
L 242.671221 -287.106642 
L 243.814128 -285.197355 
L 244.934214 -283.288068 
L 246.000473 -281.378781 
L 246.986296 -279.469494 
L 247.872336 -277.560207 
L 248.648955 -275.650921 
L 249.317918 -273.741634 
L 249.893055 -271.832347 
L 250.399676 -269.92306 
L 250.872599 -268.013773 
L 251.352847 -266.104486 
L 251.88319 -264.195199 
L 252.502917 -262.285912 
L 253.242384 -260.376625 
L 254.117985 -258.467338 
L 255.128261 -256.558051 
L 256.25177 -254.648764 
L 257.447215 -252.739477 
L 258.656016 -250.83019 
L 259.807226 -248.920904 
L 260.824297 -247.011617 
L 261.632925 -245.10233 
L 262.168989 -243.193043 
L 262.385514 -241.283756 
L 262.257737 -239.374469 
L 261.785581 -237.465182 
L 260.99324 -235.555895 
L 259.926003 -233.646608 
L 258.644838 -231.737321 
L 257.219563 -229.828034 
L 255.721591 -227.918747 
L 254.217209 -226.00946 
L 252.762189 -224.100173 
L 251.398267 -222.190887 
L 250.151677 -220.2816 
L 249.03363 -218.372313 
L 248.042381 -216.463026 
L 247.166356 -214.553739 
L 246.387765 -212.644452 
L 245.686164 -210.735165 
L 245.041526 -208.825878 
L 244.436534 -206.916591 
L 243.857969 -205.007304 
L 243.297204 -203.098017 
L 242.74993 -201.18873 
L 242.215346 -199.279443 
L 241.695034 -197.370156 
L 241.191775 -195.46087 
L 240.708493 -193.551583 
L 240.247442 -191.642296 
L 239.809713 -189.733009 
L 239.395028 -187.823722 
L 239.001794 -185.914435 
L 238.627327 -184.005148 
L 238.268183 -182.095861 
L 237.920561 -180.186574 
L 237.580709 -178.277287 
L 237.245339 -176.368 
L 236.912003 -174.458713 
L 236.579411 -172.549426 
L 236.247644 -170.640139 
L 235.918223 -168.730853 
L 235.594013 -166.821566 
L 235.278947 -164.912279 
L 234.977609 -163.002992 
L 234.694721 -161.093705 
L 234.434612 -159.184418 
L 234.200754 -157.275131 
L 233.995421 -155.365844 
L 233.819523 -153.456557 
L 233.672607 -151.54727 
L 233.553027 -149.637983 
L 233.45821 -147.728696 
z
" style="stroke: #525252; stroke-width: 1.2"/>
    </defs>
    <g clip-path="url(#p0ee94bfad9)">
     <use xlink:href="#m03ae1e46cb" x="0" y="360" style="fill: #aaaaaa; stroke: #525252; stroke-width: 1.2"/>
    </g>
   </g>
   <g id="FillBetweenPolyCollection_4">
    <defs>
     <path id="md846ef7c63" d="M 306.318906 -135.481974 
L 305.996142 -135.481974 
L 305.941764 -137.354403 
L 305.875075 -139.226832 
L 305.795348 -141.099261 
L 305.70242 -142.97169 
L 305.596763 -144.844119 
L 305.479468 -146.716548 
L 305.352109 -148.588977 
L 305.216476 -150.461406 
L 305.074183 -152.333835 
L 304.926182 -154.206264 
L 304.772235 -156.078693 
L 304.610404 -157.951122 
L 304.436642 -159.823551 
L 304.244534 -161.69598 
L 304.025235 -163.568409 
L 303.767631 -165.440838 
L 303.458698 -167.313267 
L 303.084035 -169.185695 
L 302.628524 -171.058124 
L 302.077074 -172.930553 
L 301.415421 -174.802982 
L 300.630979 -176.675411 
L 299.713725 -178.54784 
L 298.657144 -180.420269 
L 297.45921 -182.292698 
L 296.123353 -184.165127 
L 294.659344 -186.037556 
L 293.083953 -187.909985 
L 291.421224 -189.782414 
L 289.702235 -191.654843 
L 287.964209 -193.527272 
L 286.248931 -195.399701 
L 284.600534 -197.27213 
L 283.062792 -199.144559 
L 281.676162 -201.016988 
L 280.474873 -202.889417 
L 279.48438 -204.761846 
L 278.719446 -206.634275 
L 278.183084 -208.506704 
L 277.866434 -210.379132 
L 277.749603 -212.251561 
L 277.803324 -214.12399 
L 277.991274 -215.996419 
L 278.272805 -217.868848 
L 278.605817 -219.741277 
L 278.94957 -221.613706 
L 279.267189 -223.486135 
L 279.527748 -225.358564 
L 279.707794 -227.230993 
L 279.792288 -229.103422 
L 279.774929 -230.975851 
L 279.657896 -232.84828 
L 279.451051 -234.720709 
L 279.17069 -236.593138 
L 278.837913 -238.465567 
L 278.476776 -240.337996 
L 278.112326 -242.210425 
L 277.76873 -244.082854 
L 277.467637 -245.955283 
L 277.226954 -247.827712 
L 277.060153 -249.700141 
L 276.976184 -251.572569 
L 276.979971 -253.444998 
L 277.073404 -255.317427 
L 277.256651 -257.189856 
L 277.529568 -259.062285 
L 277.892954 -260.934714 
L 278.349424 -262.807143 
L 278.903743 -264.679572 
L 279.562522 -266.552001 
L 280.333302 -268.42443 
L 281.223158 -270.296859 
L 282.237018 -272.169288 
L 283.375968 -274.041717 
L 284.635809 -275.914146 
L 286.006134 -277.786575 
L 287.47007 -279.659004 
L 289.004775 -281.531433 
L 290.582663 -283.403862 
L 292.173175 -285.276291 
L 293.744904 -287.14872 
L 295.267776 -289.021149 
L 296.715022 -290.893578 
L 298.064726 -292.766006 
L 299.300792 -294.638435 
L 300.413281 -296.510864 
L 301.398179 -298.383293 
L 302.25669 -300.255722 
L 302.994228 -302.128151 
L 303.61928 -304.00058 
L 304.142282 -305.873009 
L 304.574633 -307.745438 
L 304.927904 -309.617867 
L 305.213265 -311.490296 
L 305.441116 -313.362725 
L 305.620882 -315.235154 
L 305.760939 -317.107583 
L 305.868608 -318.980012 
L 305.950203 -320.852441 
L 306.364844 -320.852441 
L 306.364844 -320.852441 
L 306.44644 -318.980012 
L 306.554109 -317.107583 
L 306.694166 -315.235154 
L 306.873932 -313.362725 
L 307.101782 -311.490296 
L 307.387144 -309.617867 
L 307.740415 -307.745438 
L 308.172766 -305.873009 
L 308.695768 -304.00058 
L 309.32082 -302.128151 
L 310.058358 -300.255722 
L 310.916869 -298.383293 
L 311.901767 -296.510864 
L 313.014256 -294.638435 
L 314.250322 -292.766006 
L 315.600026 -290.893578 
L 317.047272 -289.021149 
L 318.570143 -287.14872 
L 320.141873 -285.276291 
L 321.732385 -283.403862 
L 323.310272 -281.531433 
L 324.844978 -279.659004 
L 326.308913 -277.786575 
L 327.679239 -275.914146 
L 328.93908 -274.041717 
L 330.078029 -272.169288 
L 331.09189 -270.296859 
L 331.981746 -268.42443 
L 332.752526 -266.552001 
L 333.411305 -264.679572 
L 333.965624 -262.807143 
L 334.422094 -260.934714 
L 334.78548 -259.062285 
L 335.058397 -257.189856 
L 335.241644 -255.317427 
L 335.335077 -253.444998 
L 335.338864 -251.572569 
L 335.254895 -249.700141 
L 335.088094 -247.827712 
L 334.847411 -245.955283 
L 334.546318 -244.082854 
L 334.202722 -242.210425 
L 333.838272 -240.337996 
L 333.477134 -238.465567 
L 333.144358 -236.593138 
L 332.863996 -234.720709 
L 332.657152 -232.84828 
L 332.540118 -230.975851 
L 332.522759 -229.103422 
L 332.607254 -227.230993 
L 332.7873 -225.358564 
L 333.047859 -223.486135 
L 333.365478 -221.613706 
L 333.709231 -219.741277 
L 334.042243 -217.868848 
L 334.323773 -215.996419 
L 334.511724 -214.12399 
L 334.565445 -212.251561 
L 334.448613 -210.379132 
L 334.131964 -208.506704 
L 333.595602 -206.634275 
L 332.830668 -204.761846 
L 331.840175 -202.889417 
L 330.638886 -201.016988 
L 329.252256 -199.144559 
L 327.714514 -197.27213 
L 326.066117 -195.399701 
L 324.350839 -193.527272 
L 322.612813 -191.654843 
L 320.893824 -189.782414 
L 319.231095 -187.909985 
L 317.655703 -186.037556 
L 316.191695 -184.165127 
L 314.855838 -182.292698 
L 313.657903 -180.420269 
L 312.601323 -178.54784 
L 311.684069 -176.675411 
L 310.899627 -174.802982 
L 310.237974 -172.930553 
L 309.686524 -171.058124 
L 309.231012 -169.185695 
L 308.85635 -167.313267 
L 308.547417 -165.440838 
L 308.289813 -163.568409 
L 308.070514 -161.69598 
L 307.878405 -159.823551 
L 307.704644 -157.951122 
L 307.542813 -156.078693 
L 307.388865 -154.206264 
L 307.240865 -152.333835 
L 307.098572 -150.461406 
L 306.962939 -148.588977 
L 306.83558 -146.716548 
L 306.718285 -144.844119 
L 306.612628 -142.97169 
L 306.5197 -141.099261 
L 306.439973 -139.226832 
L 306.373284 -137.354403 
L 306.318906 -135.481974 
z
" style="stroke: #525252; stroke-width: 1.2"/>
    </defs>
    <g clip-path="url(#p0ee94bfad9)">
     <use xlink:href="#md846ef7c63" x="0" y="360" style="fill: #cccccc; stroke: #525252; stroke-width: 1.2"/>
    </g>
   </g>
   <g id="matplotlib.axis_1">
    <g id="xtick_1">
     <g id="line2d_1">
      <defs>
       <path id="me37bb9bfc3" d="M 0 0 
L 0 3.5 
" style="stroke: #000000; stroke-width: 0.8"/>
      </defs>
      <g>
       <use xlink:href="#me37bb9bfc3" x="87.297476" y="284.741751" style="stroke: #000000; stroke-width: 0.8"/>
      </g>
     </g>
     <g id="text_1">
      <!-- Bayesian Network -->
      <g transform="translate(49.513194 343.544847) rotate(-30) scale(0.1 -0.1)">
       <defs>
        <path id="DejaVuSans-42" d="M 1259 2228 
L 1259 519 
L 2272 519 
Q 2781 519 3026 730 
Q 3272 941 3272 1375 
Q 3272 1813 3026 2020 
Q 2781 2228 2272 2228 
L 1259 2228 
z
M 1259 4147 
L 1259 2741 
L 2194 2741 
Q 2656 2741 2882 2914 
Q 3109 3088 3109 3444 
Q 3109 3797 2882 3972 
Q 2656 4147 2194 4147 
L 1259 4147 
z
M 628 4666 
L 2241 4666 
Q 2963 4666 3353 4366 
Q 3744 4066 3744 3513 
Q 3744 3084 3544 2831 
Q 3344 2578 2956 2516 
Q 3422 2416 3680 2098 
Q 3938 1781 3938 1306 
Q 3938 681 3513 340 
Q 3088 0 2303 0 
L 628 0 
L 628 4666 
z
" transform="scale(0.015625)"/>
        <path id="DejaVuSans-61" d="M 2194 1759 
Q 1497 1759 1228 1600 
Q 959 1441 959 1056 
Q 959 750 1161 570 
Q 1363 391 1709 391 
Q 2188 391 2477 730 
Q 2766 1069 2766 1631 
L 2766 1759 
L 2194 1759 
z
M 3341 1997 
L 3341 0 
L 2766 0 
L 2766 531 
Q 2569 213 2275 61 
Q 1981 -91 1556 -91 
Q 1019 -91 701 211 
Q 384 513 384 1019 
Q 384 1609 779 1909 
Q 1175 2209 1959 2209 
L 2766 2209 
L 2766 2266 
Q 2766 2663 2505 2880 
Q 2244 3097 1772 3097 
Q 1472 3097 1187 3025 
Q 903 2953 641 2809 
L 641 3341 
Q 956 3463 1253 3523 
Q 1550 3584 1831 3584 
Q 2591 3584 2966 3190 
Q 3341 2797 3341 1997 
z
" transform="scale(0.015625)"/>
        <path id="DejaVuSans-79" d="M 2059 -325 
Q 1816 -950 1584 -1140 
Q 1353 -1331 966 -1331 
L 506 -1331 
L 506 -850 
L 844 -850 
Q 1081 -850 1212 -737 
Q 1344 -625 1503 -206 
L 1606 56 
L 191 3500 
L 800 3500 
L 1894 763 
L 2988 3500 
L 3597 3500 
L 2059 -325 
z
" transform="scale(0.015625)"/>
        <path id="DejaVuSans-65" d="M 3597 1894 
L 3597 1613 
L 953 1613 
Q 991 1019 1311 708 
Q 1631 397 2203 397 
Q 2534 397 2845 478 
Q 3156 559 3463 722 
L 3463 178 
Q 3153 47 2828 -22 
Q 2503 -91 2169 -91 
Q 1331 -91 842 396 
Q 353 884 353 1716 
Q 353 2575 817 3079 
Q 1281 3584 2069 3584 
Q 2775 3584 3186 3129 
Q 3597 2675 3597 1894 
z
M 3022 2063 
Q 3016 2534 2758 2815 
Q 2500 3097 2075 3097 
Q 1594 3097 1305 2825 
Q 1016 2553 972 2059 
L 3022 2063 
z
" transform="scale(0.015625)"/>
        <path id="DejaVuSans-73" d="M 2834 3397 
L 2834 2853 
Q 2591 2978 2328 3040 
Q 2066 3103 1784 3103 
Q 1356 3103 1142 2972 
Q 928 2841 928 2578 
Q 928 2378 1081 2264 
Q 1234 2150 1697 2047 
L 1894 2003 
Q 2506 1872 2764 1633 
Q 3022 1394 3022 966 
Q 3022 478 2636 193 
Q 2250 -91 1575 -91 
Q 1294 -91 989 -36 
Q 684 19 347 128 
L 347 722 
Q 666 556 975 473 
Q 1284 391 1588 391 
Q 1994 391 2212 530 
Q 2431 669 2431 922 
Q 2431 1156 2273 1281 
Q 2116 1406 1581 1522 
L 1381 1569 
Q 847 1681 609 1914 
Q 372 2147 372 2553 
Q 372 3047 722 3315 
Q 1072 3584 1716 3584 
Q 2034 3584 2315 3537 
Q 2597 3491 2834 3397 
z
" transform="scale(0.015625)"/>
        <path id="DejaVuSans-69" d="M 603 3500 
L 1178 3500 
L 1178 0 
L 603 0 
L 603 3500 
z
M 603 4863 
L 1178 4863 
L 1178 4134 
L 603 4134 
L 603 4863 
z
" transform="scale(0.015625)"/>
        <path id="DejaVuSans-6e" d="M 3513 2113 
L 3513 0 
L 2938 0 
L 2938 2094 
Q 2938 2591 2744 2837 
Q 2550 3084 2163 3084 
Q 1697 3084 1428 2787 
Q 1159 2491 1159 1978 
L 1159 0 
L 581 0 
L 581 3500 
L 1159 3500 
L 1159 2956 
Q 1366 3272 1645 3428 
Q 1925 3584 2291 3584 
Q 2894 3584 3203 3211 
Q 3513 2838 3513 2113 
z
" transform="scale(0.015625)"/>
        <path id="DejaVuSans-20" transform="scale(0.015625)"/>
        <path id="DejaVuSans-4e" d="M 628 4666 
L 1478 4666 
L 3547 763 
L 3547 4666 
L 4159 4666 
L 4159 0 
L 3309 0 
L 1241 3903 
L 1241 0 
L 628 0 
L 628 4666 
z
" transform="scale(0.015625)"/>
        <path id="DejaVuSans-74" d="M 1172 4494 
L 1172 3500 
L 2356 3500 
L 2356 3053 
L 1172 3053 
L 1172 1153 
Q 1172 725 1289 603 
Q 1406 481 1766 481 
L 2356 481 
L 2356 0 
L 1766 0 
Q 1100 0 847 248 
Q 594 497 594 1153 
L 594 3053 
L 172 3053 
L 172 3500 
L 594 3500 
L 594 4494 
L 1172 4494 
z
" transform="scale(0.015625)"/>
        <path id="DejaVuSans-77" d="M 269 3500 
L 844 3500 
L 1563 769 
L 2278 3500 
L 2956 3500 
L 3675 769 
L 4391 3500 
L 4966 3500 
L 4050 0 
L 3372 0 
L 2619 2869 
L 1863 0 
L 1184 0 
L 269 3500 
z
" transform="scale(0.015625)"/>
        <path id="DejaVuSans-6f" d="M 1959 3097 
Q 1497 3097 1228 2736 
Q 959 2375 959 1747 
Q 959 1119 1226 758 
Q 1494 397 1959 397 
Q 2419 397 2687 759 
Q 2956 1122 2956 1747 
Q 2956 2369 2687 2733 
Q 2419 3097 1959 3097 
z
M 1959 3584 
Q 2709 3584 3137 3096 
Q 3566 2609 3566 1747 
Q 3566 888 3137 398 
Q 2709 -91 1959 -91 
Q 1206 -91 779 398 
Q 353 888 353 1747 
Q 353 2609 779 3096 
Q 1206 3584 1959 3584 
z
" transform="scale(0.015625)"/>
        <path id="DejaVuSans-72" d="M 2631 2963 
Q 2534 3019 2420 3045 
Q 2306 3072 2169 3072 
Q 1681 3072 1420 2755 
Q 1159 2438 1159 1844 
L 1159 0 
L 581 0 
L 581 3500 
L 1159 3500 
L 1159 2956 
Q 1341 3275 1631 3429 
Q 1922 3584 2338 3584 
Q 2397 3584 2469 3576 
Q 2541 3569 2628 3553 
L 2631 2963 
z
" transform="scale(0.015625)"/>
        <path id="DejaVuSans-6b" d="M 581 4863 
L 1159 4863 
L 1159 1991 
L 2875 3500 
L 3609 3500 
L 1753 1863 
L 3688 0 
L 2938 0 
L 1159 1709 
L 1159 0 
L 581 0 
L 581 4863 
z
" transform="scale(0.015625)"/>
       </defs>
       <use xlink:href="#DejaVuSans-42"/>
       <use xlink:href="#DejaVuSans-61" transform="translate(68.603516 0)"/>
       <use xlink:href="#DejaVuSans-79" transform="translate(129.882812 0)"/>
       <use xlink:href="#DejaVuSans-65" transform="translate(189.0625 0)"/>
       <use xlink:href="#DejaVuSans-73" transform="translate(250.585938 0)"/>
       <use xlink:href="#DejaVuSans-69" transform="translate(302.685547 0)"/>
       <use xlink:href="#DejaVuSans-61" transform="translate(330.46875 0)"/>
       <use xlink:href="#DejaVuSans-6e" transform="translate(391.748047 0)"/>
       <use xlink:href="#DejaVuSans-20" transform="translate(455.126953 0)"/>
       <use xlink:href="#DejaVuSans-4e" transform="translate(486.914062 0)"/>
       <use xlink:href="#DejaVuSans-65" transform="translate(561.71875 0)"/>
       <use xlink:href="#DejaVuSans-74" transform="translate(623.242188 0)"/>
       <use xlink:href="#DejaVuSans-77" transform="translate(662.451172 0)"/>
       <use xlink:href="#DejaVuSans-6f" transform="translate(744.238281 0)"/>
       <use xlink:href="#DejaVuSans-72" transform="translate(805.419922 0)"/>
       <use xlink:href="#DejaVuSans-6b" transform="translate(846.533203 0)"/>
      </g>
     </g>
    </g>
    <g id="xtick_2">
     <g id="line2d_2">
      <g>
       <use xlink:href="#me37bb9bfc3" x="160.250825" y="284.741751" style="stroke: #000000; stroke-width: 0.8"/>
      </g>
     </g>
     <g id="text_2">
      <!-- Mean Duration -->
      <g transform="translate(129.649818 335.250316) rotate(-30) scale(0.1 -0.1)">
       <defs>
        <path id="DejaVuSans-4d" d="M 628 4666 
L 1569 4666 
L 2759 1491 
L 3956 4666 
L 4897 4666 
L 4897 0 
L 4281 0 
L 4281 4097 
L 3078 897 
L 2444 897 
L 1241 4097 
L 1241 0 
L 628 0 
L 628 4666 
z
" transform="scale(0.015625)"/>
        <path id="DejaVuSans-44" d="M 1259 4147 
L 1259 519 
L 2022 519 
Q 2988 519 3436 956 
Q 3884 1394 3884 2338 
Q 3884 3275 3436 3711 
Q 2988 4147 2022 4147 
L 1259 4147 
z
M 628 4666 
L 1925 4666 
Q 3281 4666 3915 4102 
Q 4550 3538 4550 2338 
Q 4550 1131 3912 565 
Q 3275 0 1925 0 
L 628 0 
L 628 4666 
z
" transform="scale(0.015625)"/>
        <path id="DejaVuSans-75" d="M 544 1381 
L 544 3500 
L 1119 3500 
L 1119 1403 
Q 1119 906 1312 657 
Q 1506 409 1894 409 
Q 2359 409 2629 706 
Q 2900 1003 2900 1516 
L 2900 3500 
L 3475 3500 
L 3475 0 
L 2900 0 
L 2900 538 
Q 2691 219 2414 64 
Q 2138 -91 1772 -91 
Q 1169 -91 856 284 
Q 544 659 544 1381 
z
M 1991 3584 
L 1991 3584 
z
" transform="scale(0.015625)"/>
       </defs>
       <use xlink:href="#DejaVuSans-4d"/>
       <use xlink:href="#DejaVuSans-65" transform="translate(86.279297 0)"/>
       <use xlink:href="#DejaVuSans-61" transform="translate(147.802734 0)"/>
       <use xlink:href="#DejaVuSans-6e" transform="translate(209.082031 0)"/>
       <use xlink:href="#DejaVuSans-20" transform="translate(272.460938 0)"/>
       <use xlink:href="#DejaVuSans-44" transform="translate(304.248047 0)"/>
       <use xlink:href="#DejaVuSans-75" transform="translate(381.25 0)"/>
       <use xlink:href="#DejaVuSans-72" transform="translate(444.628906 0)"/>
       <use xlink:href="#DejaVuSans-61" transform="translate(485.742188 0)"/>
       <use xlink:href="#DejaVuSans-74" transform="translate(547.021484 0)"/>
       <use xlink:href="#DejaVuSans-69" transform="translate(586.230469 0)"/>
       <use xlink:href="#DejaVuSans-6f" transform="translate(614.013672 0)"/>
       <use xlink:href="#DejaVuSans-6e" transform="translate(675.195312 0)"/>
      </g>
     </g>
    </g>
    <g id="xtick_3">
     <g id="line2d_3">
      <g>
       <use xlink:href="#me37bb9bfc3" x="233.204175" y="284.741751" style="stroke: #000000; stroke-width: 0.8"/>
      </g>
     </g>
     <g id="text_3">
      <!-- LogNormal- -->
      <g transform="translate(206.819197 327.320238) rotate(-30) scale(0.1 -0.1)">
       <defs>
        <path id="DejaVuSans-4c" d="M 628 4666 
L 1259 4666 
L 1259 531 
L 3531 531 
L 3531 0 
L 628 0 
L 628 4666 
z
" transform="scale(0.015625)"/>
        <path id="DejaVuSans-67" d="M 2906 1791 
Q 2906 2416 2648 2759 
Q 2391 3103 1925 3103 
Q 1463 3103 1205 2759 
Q 947 2416 947 1791 
Q 947 1169 1205 825 
Q 1463 481 1925 481 
Q 2391 481 2648 825 
Q 2906 1169 2906 1791 
z
M 3481 434 
Q 3481 -459 3084 -895 
Q 2688 -1331 1869 -1331 
Q 1566 -1331 1297 -1286 
Q 1028 -1241 775 -1147 
L 775 -588 
Q 1028 -725 1275 -790 
Q 1522 -856 1778 -856 
Q 2344 -856 2625 -561 
Q 2906 -266 2906 331 
L 2906 616 
Q 2728 306 2450 153 
Q 2172 0 1784 0 
Q 1141 0 747 490 
Q 353 981 353 1791 
Q 353 2603 747 3093 
Q 1141 3584 1784 3584 
Q 2172 3584 2450 3431 
Q 2728 3278 2906 2969 
L 2906 3500 
L 3481 3500 
L 3481 434 
z
" transform="scale(0.015625)"/>
        <path id="DejaVuSans-6d" d="M 3328 2828 
Q 3544 3216 3844 3400 
Q 4144 3584 4550 3584 
Q 5097 3584 5394 3201 
Q 5691 2819 5691 2113 
L 5691 0 
L 5113 0 
L 5113 2094 
Q 5113 2597 4934 2840 
Q 4756 3084 4391 3084 
Q 3944 3084 3684 2787 
Q 3425 2491 3425 1978 
L 3425 0 
L 2847 0 
L 2847 2094 
Q 2847 2600 2669 2842 
Q 2491 3084 2119 3084 
Q 1678 3084 1418 2786 
Q 1159 2488 1159 1978 
L 1159 0 
L 581 0 
L 581 3500 
L 1159 3500 
L 1159 2956 
Q 1356 3278 1631 3431 
Q 1906 3584 2284 3584 
Q 2666 3584 2933 3390 
Q 3200 3197 3328 2828 
z
" transform="scale(0.015625)"/>
        <path id="DejaVuSans-6c" d="M 603 4863 
L 1178 4863 
L 1178 0 
L 603 0 
L 603 4863 
z
" transform="scale(0.015625)"/>
        <path id="DejaVuSans-2d" d="M 313 2009 
L 1997 2009 
L 1997 1497 
L 313 1497 
L 313 2009 
z
" transform="scale(0.015625)"/>
       </defs>
       <use xlink:href="#DejaVuSans-4c"/>
       <use xlink:href="#DejaVuSans-6f" transform="translate(53.962891 0)"/>
       <use xlink:href="#DejaVuSans-67" transform="translate(115.144531 0)"/>
       <use xlink:href="#DejaVuSans-4e" transform="translate(178.621094 0)"/>
       <use xlink:href="#DejaVuSans-6f" transform="translate(253.425781 0)"/>
       <use xlink:href="#DejaVuSans-72" transform="translate(314.607422 0)"/>
       <use xlink:href="#DejaVuSans-6d" transform="translate(353.970703 0)"/>
       <use xlink:href="#DejaVuSans-61" transform="translate(451.382812 0)"/>
       <use xlink:href="#DejaVuSans-6c" transform="translate(512.662109 0)"/>
       <use xlink:href="#DejaVuSans-2d" transform="translate(540.445312 0)"/>
      </g>
      <!-- Distribution -->
      <g transform="translate(212.122437 337.188531) rotate(-30) scale(0.1 -0.1)">
       <defs>
        <path id="DejaVuSans-62" d="M 3116 1747 
Q 3116 2381 2855 2742 
Q 2594 3103 2138 3103 
Q 1681 3103 1420 2742 
Q 1159 2381 1159 1747 
Q 1159 1113 1420 752 
Q 1681 391 2138 391 
Q 2594 391 2855 752 
Q 3116 1113 3116 1747 
z
M 1159 2969 
Q 1341 3281 1617 3432 
Q 1894 3584 2278 3584 
Q 2916 3584 3314 3078 
Q 3713 2572 3713 1747 
Q 3713 922 3314 415 
Q 2916 -91 2278 -91 
Q 1894 -91 1617 61 
Q 1341 213 1159 525 
L 1159 0 
L 581 0 
L 581 4863 
L 1159 4863 
L 1159 2969 
z
" transform="scale(0.015625)"/>
       </defs>
       <use xlink:href="#DejaVuSans-44"/>
       <use xlink:href="#DejaVuSans-69" transform="translate(77.001953 0)"/>
       <use xlink:href="#DejaVuSans-73" transform="translate(104.785156 0)"/>
       <use xlink:href="#DejaVuSans-74" transform="translate(156.884766 0)"/>
       <use xlink:href="#DejaVuSans-72" transform="translate(196.09375 0)"/>
       <use xlink:href="#DejaVuSans-69" transform="translate(237.207031 0)"/>
       <use xlink:href="#DejaVuSans-62" transform="translate(264.990234 0)"/>
       <use xlink:href="#DejaVuSans-75" transform="translate(328.466797 0)"/>
       <use xlink:href="#DejaVuSans-74" transform="translate(391.845703 0)"/>
       <use xlink:href="#DejaVuSans-69" transform="translate(431.054688 0)"/>
       <use xlink:href="#DejaVuSans-6f" transform="translate(458.837891 0)"/>
       <use xlink:href="#DejaVuSans-6e" transform="translate(520.019531 0)"/>
      </g>
     </g>
    </g>
    <g id="xtick_4">
     <g id="line2d_4">
      <g>
       <use xlink:href="#me37bb9bfc3" x="306.157524" y="284.741751" style="stroke: #000000; stroke-width: 0.8"/>
      </g>
     </g>
     <g id="text_4">
      <!-- Nonparametric- -->
      <g transform="translate(270.762499 337.553441) rotate(-30) scale(0.1 -0.1)">
       <defs>
        <path id="DejaVuSans-70" d="M 1159 525 
L 1159 -1331 
L 581 -1331 
L 581 3500 
L 1159 3500 
L 1159 2969 
Q 1341 3281 1617 3432 
Q 1894 3584 2278 3584 
Q 2916 3584 3314 3078 
Q 3713 2572 3713 1747 
Q 3713 922 3314 415 
Q 2916 -91 2278 -91 
Q 1894 -91 1617 61 
Q 1341 213 1159 525 
z
M 3116 1747 
Q 3116 2381 2855 2742 
Q 2594 3103 2138 3103 
Q 1681 3103 1420 2742 
Q 1159 2381 1159 1747 
Q 1159 1113 1420 752 
Q 1681 391 2138 391 
Q 2594 391 2855 752 
Q 3116 1113 3116 1747 
z
" transform="scale(0.015625)"/>
        <path id="DejaVuSans-63" d="M 3122 3366 
L 3122 2828 
Q 2878 2963 2633 3030 
Q 2388 3097 2138 3097 
Q 1578 3097 1268 2742 
Q 959 2388 959 1747 
Q 959 1106 1268 751 
Q 1578 397 2138 397 
Q 2388 397 2633 464 
Q 2878 531 3122 666 
L 3122 134 
Q 2881 22 2623 -34 
Q 2366 -91 2075 -91 
Q 1284 -91 818 406 
Q 353 903 353 1747 
Q 353 2603 823 3093 
Q 1294 3584 2113 3584 
Q 2378 3584 2631 3529 
Q 2884 3475 3122 3366 
z
" transform="scale(0.015625)"/>
       </defs>
       <use xlink:href="#DejaVuSans-4e"/>
       <use xlink:href="#DejaVuSans-6f" transform="translate(74.804688 0)"/>
       <use xlink:href="#DejaVuSans-6e" transform="translate(135.986328 0)"/>
       <use xlink:href="#DejaVuSans-70" transform="translate(199.365234 0)"/>
       <use xlink:href="#DejaVuSans-61" transform="translate(262.841797 0)"/>
       <use xlink:href="#DejaVuSans-72" transform="translate(324.121094 0)"/>
       <use xlink:href="#DejaVuSans-61" transform="translate(365.234375 0)"/>
       <use xlink:href="#DejaVuSans-6d" transform="translate(426.513672 0)"/>
       <use xlink:href="#DejaVuSans-65" transform="translate(523.925781 0)"/>
       <use xlink:href="#DejaVuSans-74" transform="translate(585.449219 0)"/>
       <use xlink:href="#DejaVuSans-72" transform="translate(624.658203 0)"/>
       <use xlink:href="#DejaVuSans-69" transform="translate(665.771484 0)"/>
       <use xlink:href="#DejaVuSans-63" transform="translate(693.554688 0)"/>
       <use xlink:href="#DejaVuSans-2d" transform="translate(748.535156 0)"/>
      </g>
      <!-- Distribution -->
      <g transform="translate(285.075786 342.219781) rotate(-30) scale(0.1 -0.1)">
       <use xlink:href="#DejaVuSans-44"/>
       <use xlink:href="#DejaVuSans-69" transform="translate(77.001953 0)"/>
       <use xlink:href="#DejaVuSans-73" transform="translate(104.785156 0)"/>
       <use xlink:href="#DejaVuSans-74" transform="translate(156.884766 0)"/>
       <use xlink:href="#DejaVuSans-72" transform="translate(196.09375 0)"/>
       <use xlink:href="#DejaVuSans-69" transform="translate(237.207031 0)"/>
       <use xlink:href="#DejaVuSans-62" transform="translate(264.990234 0)"/>
       <use xlink:href="#DejaVuSans-75" transform="translate(328.466797 0)"/>
       <use xlink:href="#DejaVuSans-74" transform="translate(391.845703 0)"/>
       <use xlink:href="#DejaVuSans-69" transform="translate(431.054688 0)"/>
       <use xlink:href="#DejaVuSans-6f" transform="translate(458.837891 0)"/>
       <use xlink:href="#DejaVuSans-6e" transform="translate(520.019531 0)"/>
      </g>
     </g>
    </g>
   </g>
   <g id="matplotlib.axis_2">
    <g id="ytick_1">
     <g id="line2d_5">
      <defs>
       <path id="m3b412176d7" d="M 0 0 
L -3.5 0 
" style="stroke: #000000; stroke-width: 0.8"/>
      </defs>
      <g>
       <use xlink:href="#m3b412176d7" x="44.255" y="255.65928" style="stroke: #000000; stroke-width: 0.8"/>
      </g>
     </g>
     <g id="text_5">
      <!-- 0 -->
      <g transform="translate(30.8925 259.458499) scale(0.1 -0.1)">
       <defs>
        <path id="DejaVuSans-30" d="M 2034 4250 
Q 1547 4250 1301 3770 
Q 1056 3291 1056 2328 
Q 1056 1369 1301 889 
Q 1547 409 2034 409 
Q 2525 409 2770 889 
Q 3016 1369 3016 2328 
Q 3016 3291 2770 3770 
Q 2525 4250 2034 4250 
z
M 2034 4750 
Q 2819 4750 3233 4129 
Q 3647 3509 3647 2328 
Q 3647 1150 3233 529 
Q 2819 -91 2034 -91 
Q 1250 -91 836 529 
Q 422 1150 422 2328 
Q 422 3509 836 4129 
Q 1250 4750 2034 4750 
z
" transform="scale(0.015625)"/>
       </defs>
       <use xlink:href="#DejaVuSans-30"/>
      </g>
     </g>
    </g>
    <g id="ytick_2">
     <g id="line2d_6">
      <g>
       <use xlink:href="#m3b412176d7" x="44.255" y="199.374513" style="stroke: #000000; stroke-width: 0.8"/>
      </g>
     </g>
     <g id="text_6">
      <!-- 10 -->
      <g transform="translate(24.53 203.173732) scale(0.1 -0.1)">
       <defs>
        <path id="DejaVuSans-31" d="M 794 531 
L 1825 531 
L 1825 4091 
L 703 3866 
L 703 4441 
L 1819 4666 
L 2450 4666 
L 2450 531 
L 3481 531 
L 3481 0 
L 794 0 
L 794 531 
z
" transform="scale(0.015625)"/>
       </defs>
       <use xlink:href="#DejaVuSans-31"/>
       <use xlink:href="#DejaVuSans-30" transform="translate(63.623047 0)"/>
      </g>
     </g>
    </g>
    <g id="ytick_3">
     <g id="line2d_7">
      <g>
       <use xlink:href="#m3b412176d7" x="44.255" y="143.089746" style="stroke: #000000; stroke-width: 0.8"/>
      </g>
     </g>
     <g id="text_7">
      <!-- 20 -->
      <g transform="translate(24.53 146.888965) scale(0.1 -0.1)">
       <defs>
        <path id="DejaVuSans-32" d="M 1228 531 
L 3431 531 
L 3431 0 
L 469 0 
L 469 531 
Q 828 903 1448 1529 
Q 2069 2156 2228 2338 
Q 2531 2678 2651 2914 
Q 2772 3150 2772 3378 
Q 2772 3750 2511 3984 
Q 2250 4219 1831 4219 
Q 1534 4219 1204 4116 
Q 875 4013 500 3803 
L 500 4441 
Q 881 4594 1212 4672 
Q 1544 4750 1819 4750 
Q 2544 4750 2975 4387 
Q 3406 4025 3406 3419 
Q 3406 3131 3298 2873 
Q 3191 2616 2906 2266 
Q 2828 2175 2409 1742 
Q 1991 1309 1228 531 
z
" transform="scale(0.015625)"/>
       </defs>
       <use xlink:href="#DejaVuSans-32"/>
       <use xlink:href="#DejaVuSans-30" transform="translate(63.623047 0)"/>
      </g>
     </g>
    </g>
    <g id="ytick_4">
     <g id="line2d_8">
      <g>
       <use xlink:href="#m3b412176d7" x="44.255" y="86.804979" style="stroke: #000000; stroke-width: 0.8"/>
      </g>
     </g>
     <g id="text_8">
      <!-- 30 -->
      <g transform="translate(24.53 90.604198) scale(0.1 -0.1)">
       <defs>
        <path id="DejaVuSans-33" d="M 2597 2516 
Q 3050 2419 3304 2112 
Q 3559 1806 3559 1356 
Q 3559 666 3084 287 
Q 2609 -91 1734 -91 
Q 1441 -91 1130 -33 
Q 819 25 488 141 
L 488 750 
Q 750 597 1062 519 
Q 1375 441 1716 441 
Q 2309 441 2620 675 
Q 2931 909 2931 1356 
Q 2931 1769 2642 2001 
Q 2353 2234 1838 2234 
L 1294 2234 
L 1294 2753 
L 1863 2753 
Q 2328 2753 2575 2939 
Q 2822 3125 2822 3475 
Q 2822 3834 2567 4026 
Q 2313 4219 1838 4219 
Q 1578 4219 1281 4162 
Q 984 4106 628 3988 
L 628 4550 
Q 988 4650 1302 4700 
Q 1616 4750 1894 4750 
Q 2613 4750 3031 4423 
Q 3450 4097 3450 3541 
Q 3450 3153 3228 2886 
Q 3006 2619 2597 2516 
z
" transform="scale(0.015625)"/>
       </defs>
       <use xlink:href="#DejaVuSans-33"/>
       <use xlink:href="#DejaVuSans-30" transform="translate(63.623047 0)"/>
      </g>
     </g>
    </g>
    <g id="ytick_5">
     <g id="line2d_9">
      <g>
       <use xlink:href="#m3b412176d7" x="44.255" y="30.520212" style="stroke: #000000; stroke-width: 0.8"/>
      </g>
     </g>
     <g id="text_9">
      <!-- 40 -->
      <g transform="translate(24.53 34.319431) scale(0.1 -0.1)">
       <defs>
        <path id="DejaVuSans-34" d="M 2419 4116 
L 825 1625 
L 2419 1625 
L 2419 4116 
z
M 2253 4666 
L 3047 4666 
L 3047 1625 
L 3713 1625 
L 3713 1100 
L 3047 1100 
L 3047 0 
L 2419 0 
L 2419 1100 
L 313 1100 
L 313 1709 
L 2253 4666 
z
" transform="scale(0.015625)"/>
       </defs>
       <use xlink:href="#DejaVuSans-34"/>
       <use xlink:href="#DejaVuSans-30" transform="translate(63.623047 0)"/>
      </g>
     </g>
    </g>
    <g id="text_10">
     <!-- Sequence similarty (Levenshtein distance) -->
     <g transform="translate(18.450312 254.320094) rotate(-90) scale(0.1 -0.1)">
      <defs>
       <path id="DejaVuSans-53" d="M 3425 4513 
L 3425 3897 
Q 3066 4069 2747 4153 
Q 2428 4238 2131 4238 
Q 1616 4238 1336 4038 
Q 1056 3838 1056 3469 
Q 1056 3159 1242 3001 
Q 1428 2844 1947 2747 
L 2328 2669 
Q 3034 2534 3370 2195 
Q 3706 1856 3706 1288 
Q 3706 609 3251 259 
Q 2797 -91 1919 -91 
Q 1588 -91 1214 -16 
Q 841 59 441 206 
L 441 856 
Q 825 641 1194 531 
Q 1563 422 1919 422 
Q 2459 422 2753 634 
Q 3047 847 3047 1241 
Q 3047 1584 2836 1778 
Q 2625 1972 2144 2069 
L 1759 2144 
Q 1053 2284 737 2584 
Q 422 2884 422 3419 
Q 422 4038 858 4394 
Q 1294 4750 2059 4750 
Q 2388 4750 2728 4690 
Q 3069 4631 3425 4513 
z
" transform="scale(0.015625)"/>
       <path id="DejaVuSans-71" d="M 947 1747 
Q 947 1113 1208 752 
Q 1469 391 1925 391 
Q 2381 391 2643 752 
Q 2906 1113 2906 1747 
Q 2906 2381 2643 2742 
Q 2381 3103 1925 3103 
Q 1469 3103 1208 2742 
Q 947 2381 947 1747 
z
M 2906 525 
Q 2725 213 2448 61 
Q 2172 -91 1784 -91 
Q 1150 -91 751 415 
Q 353 922 353 1747 
Q 353 2572 751 3078 
Q 1150 3584 1784 3584 
Q 2172 3584 2448 3432 
Q 2725 3281 2906 2969 
L 2906 3500 
L 3481 3500 
L 3481 -1331 
L 2906 -1331 
L 2906 525 
z
" transform="scale(0.015625)"/>
       <path id="DejaVuSans-28" d="M 1984 4856 
Q 1566 4138 1362 3434 
Q 1159 2731 1159 2009 
Q 1159 1288 1364 580 
Q 1569 -128 1984 -844 
L 1484 -844 
Q 1016 -109 783 600 
Q 550 1309 550 2009 
Q 550 2706 781 3412 
Q 1013 4119 1484 4856 
L 1984 4856 
z
" transform="scale(0.015625)"/>
       <path id="DejaVuSans-76" d="M 191 3500 
L 800 3500 
L 1894 563 
L 2988 3500 
L 3597 3500 
L 2284 0 
L 1503 0 
L 191 3500 
z
" transform="scale(0.015625)"/>
       <path id="DejaVuSans-68" d="M 3513 2113 
L 3513 0 
L 2938 0 
L 2938 2094 
Q 2938 2591 2744 2837 
Q 2550 3084 2163 3084 
Q 1697 3084 1428 2787 
Q 1159 2491 1159 1978 
L 1159 0 
L 581 0 
L 581 4863 
L 1159 4863 
L 1159 2956 
Q 1366 3272 1645 3428 
Q 1925 3584 2291 3584 
Q 2894 3584 3203 3211 
Q 3513 2838 3513 2113 
z
" transform="scale(0.015625)"/>
       <path id="DejaVuSans-64" d="M 2906 2969 
L 2906 4863 
L 3481 4863 
L 3481 0 
L 2906 0 
L 2906 525 
Q 2725 213 2448 61 
Q 2172 -91 1784 -91 
Q 1150 -91 751 415 
Q 353 922 353 1747 
Q 353 2572 751 3078 
Q 1150 3584 1784 3584 
Q 2172 3584 2448 3432 
Q 2725 3281 2906 2969 
z
M 947 1747 
Q 947 1113 1208 752 
Q 1469 391 1925 391 
Q 2381 391 2643 752 
Q 2906 1113 2906 1747 
Q 2906 2381 2643 2742 
Q 2381 3103 1925 3103 
Q 1469 3103 1208 2742 
Q 947 2381 947 1747 
z
" transform="scale(0.015625)"/>
       <path id="DejaVuSans-29" d="M 513 4856 
L 1013 4856 
Q 1481 4119 1714 3412 
Q 1947 2706 1947 2009 
Q 1947 1309 1714 600 
Q 1481 -109 1013 -844 
L 513 -844 
Q 928 -128 1133 580 
Q 1338 1288 1338 2009 
Q 1338 2731 1133 3434 
Q 928 4138 513 4856 
z
" transform="scale(0.015625)"/>
      </defs>
      <use xlink:href="#DejaVuSans-53"/>
      <use xlink:href="#DejaVuSans-65" transform="translate(63.476562 0)"/>
      <use xlink:href="#DejaVuSans-71" transform="translate(125 0)"/>
      <use xlink:href="#DejaVuSans-75" transform="translate(188.476562 0)"/>
      <use xlink:href="#DejaVuSans-65" transform="translate(251.855469 0)"/>
      <use xlink:href="#DejaVuSans-6e" transform="translate(313.378906 0)"/>
      <use xlink:href="#DejaVuSans-63" transform="translate(376.757812 0)"/>
      <use xlink:href="#DejaVuSans-65" transform="translate(431.738281 0)"/>
      <use xlink:href="#DejaVuSans-20" transform="translate(493.261719 0)"/>
      <use xlink:href="#DejaVuSans-73" transform="translate(525.048828 0)"/>
      <use xlink:href="#DejaVuSans-69" transform="translate(577.148438 0)"/>
      <use xlink:href="#DejaVuSans-6d" transform="translate(604.931641 0)"/>
      <use xlink:href="#DejaVuSans-69" transform="translate(702.34375 0)"/>
      <use xlink:href="#DejaVuSans-6c" transform="translate(730.126953 0)"/>
      <use xlink:href="#DejaVuSans-61" transform="translate(757.910156 0)"/>
      <use xlink:href="#DejaVuSans-72" transform="translate(819.189453 0)"/>
      <use xlink:href="#DejaVuSans-74" transform="translate(860.302734 0)"/>
      <use xlink:href="#DejaVuSans-79" transform="translate(899.511719 0)"/>
      <use xlink:href="#DejaVuSans-20" transform="translate(958.691406 0)"/>
      <use xlink:href="#DejaVuSans-28" transform="translate(990.478516 0)"/>
      <use xlink:href="#DejaVuSans-4c" transform="translate(1029.492188 0)"/>
      <use xlink:href="#DejaVuSans-65" transform="translate(1083.455078 0)"/>
      <use xlink:href="#DejaVuSans-76" transform="translate(1144.978516 0)"/>
      <use xlink:href="#DejaVuSans-65" transform="translate(1204.158203 0)"/>
      <use xlink:href="#DejaVuSans-6e" transform="translate(1265.681641 0)"/>
      <use xlink:href="#DejaVuSans-73" transform="translate(1329.060547 0)"/>
      <use xlink:href="#DejaVuSans-68" transform="translate(1381.160156 0)"/>
      <use xlink:href="#DejaVuSans-74" transform="translate(1444.539062 0)"/>
      <use xlink:href="#DejaVuSans-65" transform="translate(1483.748047 0)"/>
      <use xlink:href="#DejaVuSans-69" transform="translate(1545.271484 0)"/>
      <use xlink:href="#DejaVuSans-6e" transform="translate(1573.054688 0)"/>
      <use xlink:href="#DejaVuSans-20" transform="translate(1636.433594 0)"/>
      <use xlink:href="#DejaVuSans-64" transform="translate(1668.220703 0)"/>
      <use xlink:href="#DejaVuSans-69" transform="translate(1731.697266 0)"/>
      <use xlink:href="#DejaVuSans-73" transform="translate(1759.480469 0)"/>
      <use xlink:href="#DejaVuSans-74" transform="translate(1811.580078 0)"/>
      <use xlink:href="#DejaVuSans-61" transform="translate(1850.789062 0)"/>
      <use xlink:href="#DejaVuSans-6e" transform="translate(1912.068359 0)"/>
      <use xlink:href="#DejaVuSans-63" transform="translate(1975.447266 0)"/>
      <use xlink:href="#DejaVuSans-65" transform="translate(2030.427734 0)"/>
      <use xlink:href="#DejaVuSans-29" transform="translate(2091.951172 0)"/>
     </g>
    </g>
   </g>
   <g id="line2d_10">
    <path d="M 60.344549 182.489083 
L 114.250403 182.489083 
" clip-path="url(#p0ee94bfad9)" style="fill: none; stroke-dasharray: 1.5,0.9; stroke-dashoffset: 0; stroke: #525252; stroke-width: 1.2"/>
   </g>
   <g id="line2d_11">
    <path d="M 58.537197 159.975176 
L 116.057755 159.975176 
" clip-path="url(#p0ee94bfad9)" style="fill: none; stroke-dasharray: 3,1.2; stroke-dashoffset: 0; stroke: #525252; stroke-width: 1.2"/>
   </g>
   <g id="line2d_12">
    <path d="M 61.169388 137.461269 
L 113.425564 137.461269 
" clip-path="url(#p0ee94bfad9)" style="fill: none; stroke-dasharray: 1.5,0.9; stroke-dashoffset: 0; stroke: #525252; stroke-width: 1.2"/>
   </g>
   <g id="line2d_13">
    <path d="M 136.009579 176.860606 
L 184.492071 176.860606 
" clip-path="url(#p0ee94bfad9)" style="fill: none; stroke-dasharray: 1.5,0.9; stroke-dashoffset: 0; stroke: #525252; stroke-width: 1.2"/>
   </g>
   <g id="line2d_14">
    <path d="M 131.318335 154.346699 
L 189.183316 154.346699 
" clip-path="url(#p0ee94bfad9)" style="fill: none; stroke-dasharray: 3,1.2; stroke-dashoffset: 0; stroke: #525252; stroke-width: 1.2"/>
   </g>
   <g id="line2d_15">
    <path d="M 133.90708 131.832792 
L 186.594571 131.832792 
" clip-path="url(#p0ee94bfad9)" style="fill: none; stroke-dasharray: 1.5,0.9; stroke-dashoffset: 0; stroke: #525252; stroke-width: 1.2"/>
   </g>
   <g id="line2d_16">
    <path d="M 212.691436 134.647031 
L 253.716913 134.647031 
" clip-path="url(#p0ee94bfad9)" style="fill: none; stroke-dasharray: 1.5,0.9; stroke-dashoffset: 0; stroke: #525252; stroke-width: 1.2"/>
   </g>
   <g id="line2d_17">
    <path d="M 204.147287 120.575839 
L 262.261063 120.575839 
" clip-path="url(#p0ee94bfad9)" style="fill: none; stroke-dasharray: 3,1.2; stroke-dashoffset: 0; stroke: #525252; stroke-width: 1.2"/>
   </g>
   <g id="line2d_18">
    <path d="M 213.770712 98.061932 
L 252.637638 98.061932 
" clip-path="url(#p0ee94bfad9)" style="fill: none; stroke-dasharray: 1.5,0.9; stroke-dashoffset: 0; stroke: #525252; stroke-width: 1.2"/>
   </g>
   <g id="line2d_19">
    <path d="M 277.810113 148.718223 
L 334.504934 148.718223 
" clip-path="url(#p0ee94bfad9)" style="fill: none; stroke-dasharray: 1.5,0.9; stroke-dashoffset: 0; stroke: #525252; stroke-width: 1.2"/>
   </g>
   <g id="line2d_20">
    <path d="M 279.553238 126.204316 
L 332.76181 126.204316 
" clip-path="url(#p0ee94bfad9)" style="fill: none; stroke-dasharray: 3,1.2; stroke-dashoffset: 0; stroke: #525252; stroke-width: 1.2"/>
   </g>
   <g id="line2d_21">
    <path d="M 278.137556 98.061932 
L 334.177492 98.061932 
" clip-path="url(#p0ee94bfad9)" style="fill: none; stroke-dasharray: 1.5,0.9; stroke-dashoffset: 0; stroke: #525252; stroke-width: 1.2"/>
   </g>
   <g id="LineCollection_1">
    <path d="M 87.297476 193.942539 
L 87.297476 127.808925 
" clip-path="url(#p0ee94bfad9)" style="fill: none; stroke: #000000; stroke-width: 1.5"/>
    <path d="M 160.250825 183.956807 
L 160.250825 124.736591 
" clip-path="url(#p0ee94bfad9)" style="fill: none; stroke: #000000; stroke-width: 1.5"/>
    <path d="M 233.204175 147.489358 
L 233.204175 90.210188 
" clip-path="url(#p0ee94bfad9)" style="fill: none; stroke: #000000; stroke-width: 1.5"/>
    <path d="M 306.157524 153.691052 
L 306.157524 94.064705 
" clip-path="url(#p0ee94bfad9)" style="fill: none; stroke: #000000; stroke-width: 1.5"/>
   </g>
   <g id="line2d_22">
    <defs>
     <path id="mbd2cc9c588" d="M 5 0 
L -5 -0 
" style="stroke: #000000"/>
    </defs>
    <g clip-path="url(#p0ee94bfad9)">
     <use xlink:href="#mbd2cc9c588" x="87.297476" y="193.942539" style="stroke: #000000"/>
     <use xlink:href="#mbd2cc9c588" x="160.250825" y="183.956807" style="stroke: #000000"/>
     <use xlink:href="#mbd2cc9c588" x="233.204175" y="147.489358" style="stroke: #000000"/>
     <use xlink:href="#mbd2cc9c588" x="306.157524" y="153.691052" style="stroke: #000000"/>
    </g>
   </g>
   <g id="line2d_23">
    <g clip-path="url(#p0ee94bfad9)">
     <use xlink:href="#mbd2cc9c588" x="87.297476" y="127.808925" style="stroke: #000000"/>
     <use xlink:href="#mbd2cc9c588" x="160.250825" y="124.736591" style="stroke: #000000"/>
     <use xlink:href="#mbd2cc9c588" x="233.204175" y="90.210188" style="stroke: #000000"/>
     <use xlink:href="#mbd2cc9c588" x="306.157524" y="94.064705" style="stroke: #000000"/>
    </g>
   </g>
   <g id="line2d_24">
    <defs>
     <path id="m62055e3e8a" d="M 0 3 
C 0.795609 3 1.55874 2.683901 2.12132 2.12132 
C 2.683901 1.55874 3 0.795609 3 0 
C 3 -0.795609 2.683901 -1.55874 2.12132 -2.12132 
C 1.55874 -2.683901 0.795609 -3 0 -3 
C -0.795609 -3 -1.55874 -2.683901 -2.12132 -2.12132 
C -2.683901 -1.55874 -3 -0.795609 -3 0 
C -3 0.795609 -2.683901 1.55874 -2.12132 2.12132 
C -1.55874 2.683901 -0.795609 3 0 3 
z
" style="stroke: #000000"/>
    </defs>
    <g clip-path="url(#p0ee94bfad9)">
     <use xlink:href="#m62055e3e8a" x="87.297476" y="160.875732" style="stroke: #000000"/>
     <use xlink:href="#m62055e3e8a" x="160.250825" y="154.346699" style="stroke: #000000"/>
     <use xlink:href="#m62055e3e8a" x="233.204175" y="118.849773" style="stroke: #000000"/>
     <use xlink:href="#m62055e3e8a" x="306.157524" y="123.877879" style="stroke: #000000"/>
    </g>
   </g>
   <g id="patch_3">
    <path d="M 44.255 284.741751 
L 44.255 10.8 
" style="fill: none; stroke: #000000; stroke-width: 0.8; stroke-linejoin: miter; stroke-linecap: square"/>
   </g>
   <g id="patch_4">
    <path d="M 349.2 284.741751 
L 349.2 10.8 
" style="fill: none; stroke: #000000; stroke-width: 0.8; stroke-linejoin: miter; stroke-linecap: square"/>
   </g>
   <g id="patch_5">
    <path d="M 44.255 284.741751 
L 349.2 284.741751 
" style="fill: none; stroke: #000000; stroke-width: 0.8; stroke-linejoin: miter; stroke-linecap: square"/>
   </g>
   <g id="patch_6">
    <path d="M 44.255 10.8 
L 349.2 10.8 
" style="fill: none; stroke: #000000; stroke-width: 0.8; stroke-linejoin: miter; stroke-linecap: square"/>
   </g>
   <g id="text_11">
    <!-- 16.84 -->
    <g transform="translate(74.41482 123.122968) scale(0.09 -0.09)">
     <defs>
      <path id="DejaVuSans-36" d="M 2113 2584 
Q 1688 2584 1439 2293 
Q 1191 2003 1191 1497 
Q 1191 994 1439 701 
Q 1688 409 2113 409 
Q 2538 409 2786 701 
Q 3034 994 3034 1497 
Q 3034 2003 2786 2293 
Q 2538 2584 2113 2584 
z
M 3366 4563 
L 3366 3988 
Q 3128 4100 2886 4159 
Q 2644 4219 2406 4219 
Q 1781 4219 1451 3797 
Q 1122 3375 1075 2522 
Q 1259 2794 1537 2939 
Q 1816 3084 2150 3084 
Q 2853 3084 3261 2657 
Q 3669 2231 3669 1497 
Q 3669 778 3244 343 
Q 2819 -91 2113 -91 
Q 1303 -91 875 529 
Q 447 1150 447 2328 
Q 447 3434 972 4092 
Q 1497 4750 2381 4750 
Q 2619 4750 2861 4703 
Q 3103 4656 3366 4563 
z
" transform="scale(0.015625)"/>
      <path id="DejaVuSans-2e" d="M 684 794 
L 1344 794 
L 1344 0 
L 684 0 
L 684 794 
z
" transform="scale(0.015625)"/>
      <path id="DejaVuSans-38" d="M 2034 2216 
Q 1584 2216 1326 1975 
Q 1069 1734 1069 1313 
Q 1069 891 1326 650 
Q 1584 409 2034 409 
Q 2484 409 2743 651 
Q 3003 894 3003 1313 
Q 3003 1734 2745 1975 
Q 2488 2216 2034 2216 
z
M 1403 2484 
Q 997 2584 770 2862 
Q 544 3141 544 3541 
Q 544 4100 942 4425 
Q 1341 4750 2034 4750 
Q 2731 4750 3128 4425 
Q 3525 4100 3525 3541 
Q 3525 3141 3298 2862 
Q 3072 2584 2669 2484 
Q 3125 2378 3379 2068 
Q 3634 1759 3634 1313 
Q 3634 634 3220 271 
Q 2806 -91 2034 -91 
Q 1263 -91 848 271 
Q 434 634 434 1313 
Q 434 1759 690 2068 
Q 947 2378 1403 2484 
z
M 1172 3481 
Q 1172 3119 1398 2916 
Q 1625 2713 2034 2713 
Q 2441 2713 2670 2916 
Q 2900 3119 2900 3481 
Q 2900 3844 2670 4047 
Q 2441 4250 2034 4250 
Q 1625 4250 1398 4047 
Q 1172 3844 1172 3481 
z
" transform="scale(0.015625)"/>
     </defs>
     <use xlink:href="#DejaVuSans-31"/>
     <use xlink:href="#DejaVuSans-36" transform="translate(63.623047 0)"/>
     <use xlink:href="#DejaVuSans-2e" transform="translate(127.246094 0)"/>
     <use xlink:href="#DejaVuSans-38" transform="translate(159.033203 0)"/>
     <use xlink:href="#DejaVuSans-34" transform="translate(222.65625 0)"/>
    </g>
   </g>
   <g id="text_12">
    <!-- 18.00 -->
    <g transform="translate(147.368169 120.050634) scale(0.09 -0.09)">
     <use xlink:href="#DejaVuSans-31"/>
     <use xlink:href="#DejaVuSans-38" transform="translate(63.623047 0)"/>
     <use xlink:href="#DejaVuSans-2e" transform="translate(127.246094 0)"/>
     <use xlink:href="#DejaVuSans-30" transform="translate(159.033203 0)"/>
     <use xlink:href="#DejaVuSans-30" transform="translate(222.65625 0)"/>
    </g>
   </g>
   <g id="text_13">
    <!-- 24.31 -->
    <g transform="translate(220.321518 85.524231) scale(0.09 -0.09)">
     <use xlink:href="#DejaVuSans-32"/>
     <use xlink:href="#DejaVuSans-34" transform="translate(63.623047 0)"/>
     <use xlink:href="#DejaVuSans-2e" transform="translate(127.246094 0)"/>
     <use xlink:href="#DejaVuSans-33" transform="translate(159.033203 0)"/>
     <use xlink:href="#DejaVuSans-31" transform="translate(222.65625 0)"/>
    </g>
   </g>
   <g id="text_14">
    <!-- 23.41 -->
    <g transform="translate(293.274868 89.378748) scale(0.09 -0.09)">
     <use xlink:href="#DejaVuSans-32"/>
     <use xlink:href="#DejaVuSans-33" transform="translate(63.623047 0)"/>
     <use xlink:href="#DejaVuSans-2e" transform="translate(127.246094 0)"/>
     <use xlink:href="#DejaVuSans-34" transform="translate(159.033203 0)"/>
     <use xlink:href="#DejaVuSans-31" transform="translate(222.65625 0)"/>
    </g>
   </g>
  </g>
 </g>
 <defs>
  <clipPath id="p0ee94bfad9">
   <rect x="44.255" y="10.8" width="304.945" height="273.941751"/>
  </clipPath>
 </defs>
</svg>
