<?xml version="1.0" encoding="utf-8" standalone="no"?>
<!DOCTYPE svg PUBLIC "-//W3C//DTD SVG 1.1//EN"
  "http://www.w3.org/Graphics/SVG/1.1/DTD/svg11.dtd">
<svg xmlns:xlink="http://www.w3.org/1999/xlink" width="648pt" height="360pt" viewBox="0 0 648 360" xmlns="http://www.w3.org/2000/svg" version="1.1">
 <metadata>
  <rdf:RDF xmlns:dc="http://purl.org/dc/elements/1.1/" xmlns:cc="http://creativecommons.org/ns#" xmlns:rdf="http://www.w3.org/1999/02/22-rdf-syntax-ns#">
   <cc:Work>
    <dc:type rdf:resource="http://purl.org/dc/dcmitype/StillImage"/>
    <dc:date>2025-04-28T14:26:45.683569</dc:date>
    <dc:format>image/svg+xml</dc:format>
    <dc:creator>
     <cc:Agent>
      <dc:title>Matplotlib v3.10.0, https://matplotlib.org/</dc:title>
     </cc:Agent>
    </dc:creator>
   </cc:Work>
  </rdf:RDF>
 </metadata>
 <defs>
  <style type="text/css">*{stroke-linejoin: round; stroke-linecap: butt}</style>
 </defs>
 <g id="figure_1">
  <g id="patch_1">
   <path d="M 0 360 
L 648 360 
L 648 0 
L 0 0 
z
" style="fill: #ffffff"/>
  </g>
  <g id="axes_1">
   <g id="patch_2">
    <path d="M 46.175 287.949733 
L 637.2 287.949733 
L 637.2 10.8 
L 46.175 10.8 
z
" style="fill: #ffffff"/>
   </g>
   <g id="FillBetweenPolyCollection_1">
    <defs>
     <path id="m46a156cd77" d="M 203.464301 -132.540872 
L 201.999257 -132.540872 
L 201.815702 -134.407932 
L 201.596048 -136.274992 
L 201.335623 -138.142052 
L 201.029641 -140.009111 
L 200.67329 -141.876171 
L 200.261825 -143.743231 
L 199.79067 -145.610291 
L 199.255522 -147.477351 
L 198.652465 -149.34441 
L 197.978079 -151.21147 
L 197.229563 -153.07853 
L 196.404854 -154.94559 
L 195.50276 -156.81265 
L 194.523092 -158.679709 
L 193.466803 -160.546769 
L 192.336125 -162.413829 
L 191.134703 -164.280889 
L 189.867708 -166.147949 
L 188.541926 -168.015008 
L 187.165805 -169.882068 
L 185.74944 -171.749128 
L 184.304498 -173.616188 
L 182.844055 -175.483247 
L 181.382347 -177.350307 
L 179.934439 -179.217367 
L 178.515815 -181.084427 
L 177.141902 -182.951487 
L 175.827558 -184.818546 
L 174.586553 -186.685606 
L 173.431063 -188.552666 
L 172.371228 -190.419726 
L 171.414789 -192.286786 
L 170.566834 -194.153845 
L 169.829675 -196.020905 
L 169.202847 -197.887965 
L 168.683241 -199.755025 
L 168.265342 -201.622084 
L 167.941555 -203.489144 
L 167.702595 -205.356204 
L 167.537897 -207.223264 
L 167.436037 -209.090324 
L 167.385117 -210.957383 
L 167.373122 -212.824443 
L 167.388222 -214.691503 
L 167.419031 -216.558563 
L 167.454831 -218.425623 
L 167.485773 -220.292682 
L 167.503072 -222.159742 
L 167.499207 -224.026802 
L 167.46814 -225.893862 
L 167.405553 -227.760922 
L 167.309093 -229.627981 
L 167.178618 -231.495041 
L 167.016407 -233.362101 
L 166.827319 -235.229161 
L 166.618862 -237.09622 
L 166.401155 -238.96328 
L 166.18675 -240.83034 
L 165.990318 -242.6974 
L 165.828194 -244.56446 
L 165.717791 -246.431519 
L 165.67692 -248.298579 
L 165.723044 -250.165639 
L 165.87251 -252.032699 
L 166.139812 -253.899759 
L 166.536916 -255.766818 
L 167.072706 -257.633878 
L 167.752565 -259.500938 
L 168.578119 -261.367998 
L 169.54716 -263.235058 
L 170.653732 -265.102117 
L 171.888381 -266.969177 
L 173.238536 -268.836237 
L 174.688997 -270.703297 
L 176.222501 -272.570356 
L 177.820331 -274.437416 
L 179.462933 -276.304476 
L 181.13052 -278.171536 
L 182.80363 -280.038596 
L 184.463634 -281.905655 
L 186.093166 -283.772715 
L 187.676474 -285.639775 
L 189.199694 -287.506835 
L 190.651038 -289.373895 
L 192.020902 -291.240954 
L 193.301911 -293.108014 
L 194.488881 -294.975074 
L 195.578742 -296.842134 
L 196.570397 -298.709194 
L 197.464545 -300.576253 
L 198.263477 -302.443313 
L 198.970842 -304.310373 
L 199.591406 -306.177433 
L 200.130803 -308.044492 
L 200.595291 -309.911552 
L 200.991522 -311.778612 
L 201.326325 -313.645672 
L 201.606518 -315.512732 
L 201.838746 -317.379791 
L 203.624812 -317.379791 
L 203.624812 -317.379791 
L 203.85704 -315.512732 
L 204.137233 -313.645672 
L 204.472036 -311.778612 
L 204.868267 -309.911552 
L 205.332755 -308.044492 
L 205.872152 -306.177433 
L 206.492716 -304.310373 
L 207.200081 -302.443313 
L 207.999013 -300.576253 
L 208.893161 -298.709194 
L 209.884816 -296.842134 
L 210.974677 -294.975074 
L 212.161647 -293.108014 
L 213.442656 -291.240954 
L 214.81252 -289.373895 
L 216.263864 -287.506835 
L 217.787084 -285.639775 
L 219.370392 -283.772715 
L 220.999924 -281.905655 
L 222.659928 -280.038596 
L 224.333038 -278.171536 
L 226.000625 -276.304476 
L 227.643227 -274.437416 
L 229.241057 -272.570356 
L 230.774561 -270.703297 
L 232.225022 -268.836237 
L 233.575177 -266.969177 
L 234.809826 -265.102117 
L 235.916398 -263.235058 
L 236.885439 -261.367998 
L 237.710993 -259.500938 
L 238.390852 -257.633878 
L 238.926642 -255.766818 
L 239.323746 -253.899759 
L 239.591048 -252.032699 
L 239.740514 -250.165639 
L 239.786638 -248.298579 
L 239.745767 -246.431519 
L 239.635364 -244.56446 
L 239.47324 -242.6974 
L 239.276808 -240.83034 
L 239.062403 -238.96328 
L 238.844696 -237.09622 
L 238.636239 -235.229161 
L 238.447151 -233.362101 
L 238.28494 -231.495041 
L 238.154465 -229.627981 
L 238.058005 -227.760922 
L 237.995418 -225.893862 
L 237.964351 -224.026802 
L 237.960486 -222.159742 
L 237.977785 -220.292682 
L 238.008727 -218.425623 
L 238.044527 -216.558563 
L 238.075336 -214.691503 
L 238.090436 -212.824443 
L 238.078441 -210.957383 
L 238.027521 -209.090324 
L 237.925661 -207.223264 
L 237.760963 -205.356204 
L 237.522003 -203.489144 
L 237.198216 -201.622084 
L 236.780317 -199.755025 
L 236.260711 -197.887965 
L 235.633883 -196.020905 
L 234.896724 -194.153845 
L 234.048769 -192.286786 
L 233.09233 -190.419726 
L 232.032495 -188.552666 
L 230.877005 -186.685606 
L 229.636 -184.818546 
L 228.321656 -182.951487 
L 226.947743 -181.084427 
L 225.529119 -179.217367 
L 224.081211 -177.350307 
L 222.619503 -175.483247 
L 221.15906 -173.616188 
L 219.714118 -171.749128 
L 218.297753 -169.882068 
L 216.921632 -168.015008 
L 215.59585 -166.147949 
L 214.328855 -164.280889 
L 213.127433 -162.413829 
L 211.996755 -160.546769 
L 210.940466 -158.679709 
L 209.960798 -156.81265 
L 209.058704 -154.94559 
L 208.233995 -153.07853 
L 207.485479 -151.21147 
L 206.811093 -149.34441 
L 206.208036 -147.477351 
L 205.672888 -145.610291 
L 205.201733 -143.743231 
L 204.790268 -141.876171 
L 204.433917 -140.009111 
L 204.127935 -138.142052 
L 203.86751 -136.274992 
L 203.647856 -134.407932 
L 203.464301 -132.540872 
z
" style="stroke: #525252; stroke-width: 1.2"/>
    </defs>
    <g clip-path="url(#p3bb5e16702)">
     <use xlink:href="#m46a156cd77" x="0" y="360" style="fill: #888888; stroke: #525252; stroke-width: 1.2"/>
    </g>
   </g>
   <g id="FillBetweenPolyCollection_2">
    <defs>
     <path id="m04b1e6a5a4" d="M 295.947231 -132.166588 
L 294.790622 -132.166588 
L 294.63704 -134.231595 
L 294.452704 -136.296602 
L 294.234022 -138.361609 
L 293.977481 -140.426616 
L 293.679706 -142.491623 
L 293.337499 -144.55663 
L 292.94784 -146.621637 
L 292.507859 -148.686644 
L 292.01477 -150.751651 
L 291.465773 -152.816658 
L 290.857955 -154.881665 
L 290.188182 -156.946672 
L 289.453034 -159.011679 
L 288.648794 -161.076686 
L 287.771515 -163.141693 
L 286.817196 -165.2067 
L 285.782069 -167.271707 
L 284.66299 -169.336715 
L 283.457928 -171.401722 
L 282.166512 -173.466729 
L 280.790594 -175.531736 
L 279.334768 -177.596743 
L 277.80679 -179.66175 
L 276.217842 -181.726757 
L 274.582592 -183.791764 
L 272.91902 -185.856771 
L 271.247993 -187.921778 
L 269.592609 -189.986785 
L 267.977344 -192.051792 
L 266.427048 -194.116799 
L 264.965872 -196.181806 
L 263.616194 -198.246813 
L 262.397622 -200.31182 
L 261.326147 -202.376827 
L 260.413494 -204.441834 
L 259.666715 -206.506841 
L 259.088031 -208.571848 
L 258.674939 -210.636855 
L 258.420537 -212.701862 
L 258.314067 -214.766869 
L 258.341618 -216.831876 
L 258.486947 -218.896883 
L 258.732387 -220.961891 
L 259.059788 -223.026898 
L 259.451449 -225.091905 
L 259.891003 -227.156912 
L 260.364219 -229.221919 
L 260.85967 -231.286926 
L 261.369225 -233.351933 
L 261.888353 -235.41694 
L 262.416173 -237.481947 
L 262.955272 -239.546954 
L 263.511258 -241.611961 
L 264.092099 -243.676968 
L 264.707261 -245.741975 
L 265.366723 -247.806982 
L 266.079939 -249.871989 
L 266.854837 -251.936996 
L 267.696934 -254.002003 
L 268.608647 -256.06701 
L 269.58886 -258.132017 
L 270.632792 -260.197024 
L 271.732155 -262.262031 
L 272.875602 -264.327038 
L 274.049409 -266.392045 
L 275.238323 -268.457052 
L 276.426509 -270.52206 
L 277.598501 -272.587067 
L 278.740084 -274.652074 
L 279.839046 -276.717081 
L 280.885729 -278.782088 
L 281.873382 -280.847095 
L 282.798273 -282.912102 
L 283.659586 -284.977109 
L 284.459134 -287.042116 
L 285.200914 -289.107123 
L 285.890552 -291.17213 
L 286.534702 -293.237137 
L 287.140433 -295.302144 
L 287.714654 -297.367151 
L 288.26362 -299.432158 
L 288.792548 -301.497165 
L 289.305349 -303.562172 
L 289.804502 -305.627179 
L 290.291048 -307.692186 
L 290.764711 -309.757193 
L 291.224101 -311.8222 
L 291.666992 -313.887207 
L 292.090634 -315.952214 
L 292.492075 -318.017221 
L 292.868465 -320.082229 
L 293.217311 -322.147236 
L 293.536682 -324.212243 
L 293.825341 -326.27725 
L 294.082814 -328.342257 
L 294.309383 -330.407264 
L 294.50604 -332.472271 
L 294.674379 -334.537278 
L 294.81648 -336.602285 
L 295.921373 -336.602285 
L 295.921373 -336.602285 
L 296.063473 -334.537278 
L 296.231813 -332.472271 
L 296.428469 -330.407264 
L 296.655039 -328.342257 
L 296.912511 -326.27725 
L 297.201171 -324.212243 
L 297.520542 -322.147236 
L 297.869388 -320.082229 
L 298.245778 -318.017221 
L 298.647219 -315.952214 
L 299.070861 -313.887207 
L 299.513751 -311.8222 
L 299.973141 -309.757193 
L 300.446804 -307.692186 
L 300.933351 -305.627179 
L 301.432503 -303.562172 
L 301.945304 -301.497165 
L 302.474232 -299.432158 
L 303.023199 -297.367151 
L 303.59742 -295.302144 
L 304.20315 -293.237137 
L 304.847301 -291.17213 
L 305.536939 -289.107123 
L 306.278719 -287.042116 
L 307.078267 -284.977109 
L 307.93958 -282.912102 
L 308.86447 -280.847095 
L 309.852124 -278.782088 
L 310.898807 -276.717081 
L 311.997768 -274.652074 
L 313.139352 -272.587067 
L 314.311344 -270.52206 
L 315.49953 -268.457052 
L 316.688443 -266.392045 
L 317.86225 -264.327038 
L 319.005698 -262.262031 
L 320.105061 -260.197024 
L 321.148993 -258.132017 
L 322.129206 -256.06701 
L 323.040918 -254.002003 
L 323.883015 -251.936996 
L 324.657914 -249.871989 
L 325.37113 -247.806982 
L 326.030592 -245.741975 
L 326.645753 -243.676968 
L 327.226595 -241.611961 
L 327.782581 -239.546954 
L 328.321679 -237.481947 
L 328.8495 -235.41694 
L 329.368627 -233.351933 
L 329.878183 -231.286926 
L 330.373633 -229.221919 
L 330.84685 -227.156912 
L 331.286404 -225.091905 
L 331.678064 -223.026898 
L 332.005466 -220.961891 
L 332.250906 -218.896883 
L 332.396235 -216.831876 
L 332.423785 -214.766869 
L 332.317316 -212.701862 
L 332.062914 -210.636855 
L 331.649821 -208.571848 
L 331.071138 -206.506841 
L 330.324358 -204.441834 
L 329.411705 -202.376827 
L 328.34023 -200.31182 
L 327.121659 -198.246813 
L 325.771981 -196.181806 
L 324.310805 -194.116799 
L 322.760509 -192.051792 
L 321.145244 -189.986785 
L 319.48986 -187.921778 
L 317.818832 -185.856771 
L 316.15526 -183.791764 
L 314.520011 -181.726757 
L 312.931063 -179.66175 
L 311.403084 -177.596743 
L 309.947258 -175.531736 
L 308.571341 -173.466729 
L 307.279925 -171.401722 
L 306.074863 -169.336715 
L 304.955783 -167.271707 
L 303.920656 -165.2067 
L 302.966338 -163.141693 
L 302.089059 -161.076686 
L 301.284819 -159.011679 
L 300.549671 -156.946672 
L 299.879898 -154.881665 
L 299.272079 -152.816658 
L 298.723083 -150.751651 
L 298.229993 -148.686644 
L 297.790013 -146.621637 
L 297.400354 -144.55663 
L 297.058147 -142.491623 
L 296.760372 -140.426616 
L 296.503831 -138.361609 
L 296.285149 -136.296602 
L 296.100813 -134.231595 
L 295.947231 -132.166588 
z
" style="stroke: #525252; stroke-width: 1.2"/>
    </defs>
    <g clip-path="url(#p3bb5e16702)">
     <use xlink:href="#m04b1e6a5a4" x="0" y="360" style="fill: #aaaaaa; stroke: #525252; stroke-width: 1.2"/>
    </g>
   </g>
   <g id="FillBetweenPolyCollection_3">
    <defs>
     <path id="ma649c56b1e" d="M 389.296846 -130.402066 
L 386.715302 -130.402066 
L 386.406289 -132.333531 
L 386.042078 -134.264995 
L 385.61761 -136.196459 
L 385.128463 -138.127923 
L 384.571118 -140.059388 
L 383.943222 -141.990852 
L 383.24382 -143.922316 
L 382.473558 -145.853781 
L 381.634819 -147.785245 
L 380.731776 -149.716709 
L 379.770367 -151.648173 
L 378.758164 -153.579638 
L 377.704141 -155.511102 
L 376.618352 -157.442566 
L 375.511533 -159.374031 
L 374.394643 -161.305495 
L 373.278377 -163.236959 
L 372.172683 -165.168424 
L 371.086318 -167.099888 
L 370.026475 -169.031352 
L 368.998501 -170.962816 
L 368.005747 -172.894281 
L 367.049545 -174.825745 
L 366.129321 -176.757209 
L 365.24284 -178.688674 
L 364.386554 -180.620138 
L 363.556044 -182.551602 
L 362.746495 -184.483066 
L 361.953195 -186.414531 
L 361.172001 -188.345995 
L 360.399742 -190.277459 
L 359.634538 -192.208924 
L 358.875998 -194.140388 
L 358.125304 -196.071852 
L 357.385165 -198.003317 
L 356.659659 -199.934781 
L 355.953983 -201.866245 
L 355.27412 -203.797709 
L 354.626478 -205.729174 
L 354.017501 -207.660638 
L 353.453314 -209.592102 
L 352.939393 -211.523567 
L 352.480313 -213.455031 
L 352.079566 -215.386495 
L 351.739462 -217.317959 
L 351.46112 -219.249424 
L 351.244526 -221.180888 
L 351.088665 -223.112352 
L 350.991706 -225.043817 
L 350.951215 -226.975281 
L 350.964394 -228.906745 
L 351.028323 -230.83821 
L 351.140183 -232.769674 
L 351.29747 -234.701138 
L 351.498165 -236.632602 
L 351.740874 -238.564067 
L 352.024913 -240.495531 
L 352.350357 -242.426995 
L 352.718037 -244.35846 
L 353.129484 -246.289924 
L 353.58684 -248.221388 
L 354.092718 -250.152853 
L 354.650033 -252.084317 
L 355.261809 -254.015781 
L 355.93096 -255.947245 
L 356.660072 -257.87871 
L 357.451181 -259.810174 
L 358.30557 -261.741638 
L 359.22358 -263.673103 
L 360.204465 -265.604567 
L 361.24627 -267.536031 
L 362.345768 -269.467495 
L 363.498436 -271.39896 
L 364.69848 -273.330424 
L 365.938908 -275.261888 
L 367.211656 -277.193353 
L 368.50774 -279.124817 
L 369.81746 -281.056281 
L 371.130619 -282.987746 
L 372.436773 -284.91921 
L 373.725487 -286.850674 
L 374.986591 -288.782138 
L 376.21044 -290.713603 
L 377.388144 -292.645067 
L 378.511778 -294.576531 
L 379.574559 -296.507996 
L 380.570983 -298.43946 
L 381.496905 -300.370924 
L 382.349589 -302.302388 
L 383.127691 -304.233853 
L 383.831208 -306.165317 
L 384.46138 -308.096781 
L 385.020553 -310.028246 
L 385.512023 -311.95971 
L 385.939857 -313.891174 
L 386.308703 -315.822639 
L 386.623602 -317.754103 
L 386.889814 -319.685567 
L 387.11265 -321.617031 
L 388.899497 -321.617031 
L 388.899497 -321.617031 
L 389.122333 -319.685567 
L 389.388545 -317.754103 
L 389.703445 -315.822639 
L 390.07229 -313.891174 
L 390.500124 -311.95971 
L 390.991594 -310.028246 
L 391.550767 -308.096781 
L 392.180939 -306.165317 
L 392.884456 -304.233853 
L 393.662559 -302.302388 
L 394.515242 -300.370924 
L 395.441165 -298.43946 
L 396.437588 -296.507996 
L 397.50037 -294.576531 
L 398.624003 -292.645067 
L 399.801707 -290.713603 
L 401.025556 -288.782138 
L 402.286661 -286.850674 
L 403.575374 -284.91921 
L 404.881529 -282.987746 
L 406.194688 -281.056281 
L 407.504407 -279.124817 
L 408.800492 -277.193353 
L 410.073239 -275.261888 
L 411.313668 -273.330424 
L 412.513711 -271.39896 
L 413.666379 -269.467495 
L 414.765877 -267.536031 
L 415.807683 -265.604567 
L 416.788567 -263.673103 
L 417.706578 -261.741638 
L 418.560966 -259.810174 
L 419.352076 -257.87871 
L 420.081187 -255.947245 
L 420.750338 -254.015781 
L 421.362114 -252.084317 
L 421.91943 -250.152853 
L 422.425307 -248.221388 
L 422.882663 -246.289924 
L 423.294111 -244.35846 
L 423.66179 -242.426995 
L 423.987235 -240.495531 
L 424.271273 -238.564067 
L 424.513982 -236.632602 
L 424.714678 -234.701138 
L 424.871964 -232.769674 
L 424.983825 -230.83821 
L 425.047753 -228.906745 
L 425.060933 -226.975281 
L 425.020442 -225.043817 
L 424.923482 -223.112352 
L 424.767622 -221.180888 
L 424.551027 -219.249424 
L 424.272685 -217.317959 
L 423.932582 -215.386495 
L 423.531835 -213.455031 
L 423.072755 -211.523567 
L 422.558834 -209.592102 
L 421.994646 -207.660638 
L 421.38567 -205.729174 
L 420.738027 -203.797709 
L 420.058165 -201.866245 
L 419.352488 -199.934781 
L 418.626983 -198.003317 
L 417.886843 -196.071852 
L 417.136149 -194.140388 
L 416.377609 -192.208924 
L 415.612405 -190.277459 
L 414.840147 -188.345995 
L 414.058952 -186.414531 
L 413.265653 -184.483066 
L 412.456104 -182.551602 
L 411.625593 -180.620138 
L 410.769308 -178.688674 
L 409.882826 -176.757209 
L 408.962602 -174.825745 
L 408.0064 -172.894281 
L 407.013647 -170.962816 
L 405.985672 -169.031352 
L 404.925829 -167.099888 
L 403.839464 -165.168424 
L 402.73377 -163.236959 
L 401.617504 -161.305495 
L 400.500614 -159.374031 
L 399.393796 -157.442566 
L 398.308007 -155.511102 
L 397.253983 -153.579638 
L 396.24178 -151.648173 
L 395.280371 -149.716709 
L 394.377329 -147.785245 
L 393.538589 -145.853781 
L 392.768328 -143.922316 
L 392.068926 -141.990852 
L 391.441029 -140.059388 
L 390.883685 -138.127923 
L 390.394538 -136.196459 
L 389.970069 -134.264995 
L 389.605858 -132.333531 
L 389.296846 -130.402066 
z
" style="stroke: #525252; stroke-width: 1.2"/>
    </defs>
    <g clip-path="url(#p3bb5e16702)">
     <use xlink:href="#ma649c56b1e" x="0" y="360" style="fill: #cccccc; stroke: #525252; stroke-width: 1.2"/>
    </g>
   </g>
   <g id="FillBetweenPolyCollection_4">
    <defs>
     <path id="m8d624b851b" d="M 481.306977 -133.242586 
L 479.979465 -133.242586 
L 479.820148 -135.032008 
L 479.631058 -136.82143 
L 479.408585 -138.610852 
L 479.149032 -140.400274 
L 478.848658 -142.189695 
L 478.503717 -143.979117 
L 478.110494 -145.768539 
L 477.665332 -147.557961 
L 477.164657 -149.347382 
L 476.605003 -151.136804 
L 475.983032 -152.926226 
L 475.295567 -154.715648 
L 474.539641 -156.505069 
L 473.712565 -158.294491 
L 472.812024 -160.083913 
L 471.836214 -161.873335 
L 470.784006 -163.662756 
L 469.655152 -165.452178 
L 468.450517 -167.2416 
L 467.172324 -169.031022 
L 465.824404 -170.820443 
L 464.412425 -172.609865 
L 462.944076 -174.399287 
L 461.429193 -176.188709 
L 459.879787 -177.978131 
L 458.309974 -179.767552 
L 456.735785 -181.556974 
L 455.174848 -183.346396 
L 453.645959 -185.135818 
L 452.168542 -186.925239 
L 450.762019 -188.714661 
L 449.445141 -190.504083 
L 448.235286 -192.293505 
L 447.147783 -194.082926 
L 446.195299 -195.872348 
L 445.387319 -197.66177 
L 444.729756 -199.451192 
L 444.224717 -201.240613 
L 443.870426 -203.030035 
L 443.661331 -204.819457 
L 443.588362 -206.608879 
L 443.639344 -208.3983 
L 443.799521 -210.187722 
L 444.052175 -211.977144 
L 444.379292 -213.766566 
L 444.762246 -215.555988 
L 445.182462 -217.345409 
L 445.622036 -219.134831 
L 446.064274 -220.924253 
L 446.49415 -222.713675 
L 446.898671 -224.503096 
L 447.267136 -226.292518 
L 447.591316 -228.08194 
L 447.865545 -229.871362 
L 448.086746 -231.660783 
L 448.254402 -233.450205 
L 448.370474 -235.239627 
L 448.439295 -237.029049 
L 448.467413 -238.81847 
L 448.463417 -240.607892 
L 448.437721 -242.397314 
L 448.402312 -244.186736 
L 448.370457 -245.976157 
L 448.356368 -247.765579 
L 448.374824 -249.555001 
L 448.44075 -251.344423 
L 448.568772 -253.133845 
L 448.772747 -254.923266 
L 449.065291 -256.712688 
L 449.457329 -258.50211 
L 449.957668 -260.291532 
L 450.572634 -262.080953 
L 451.305782 -263.870375 
L 452.157692 -265.659797 
L 453.12587 -267.449219 
L 454.204755 -269.23864 
L 455.385845 -271.028062 
L 456.657926 -272.817484 
L 458.00741 -274.606906 
L 459.418753 -276.396327 
L 460.874952 -278.185749 
L 462.35809 -279.975171 
L 463.849905 -281.764593 
L 465.332357 -283.554014 
L 466.788182 -285.343436 
L 468.201381 -287.132858 
L 469.557651 -288.92228 
L 470.844728 -290.711702 
L 472.052628 -292.501123 
L 473.173785 -294.290545 
L 474.203091 -296.079967 
L 475.137828 -297.869389 
L 475.977525 -299.65881 
L 476.723728 -301.448232 
L 477.379733 -303.237654 
L 477.950263 -305.027076 
L 478.441149 -306.816497 
L 478.858995 -308.605919 
L 479.210872 -310.395341 
L 482.07557 -310.395341 
L 482.07557 -310.395341 
L 482.427447 -308.605919 
L 482.845293 -306.816497 
L 483.336179 -305.027076 
L 483.906709 -303.237654 
L 484.562714 -301.448232 
L 485.308918 -299.65881 
L 486.148614 -297.869389 
L 487.083351 -296.079967 
L 488.112657 -294.290545 
L 489.233814 -292.501123 
L 490.441714 -290.711702 
L 491.728791 -288.92228 
L 493.085061 -287.132858 
L 494.49826 -285.343436 
L 495.954085 -283.554014 
L 497.436537 -281.764593 
L 498.928352 -279.975171 
L 500.41149 -278.185749 
L 501.867689 -276.396327 
L 503.279032 -274.606906 
L 504.628516 -272.817484 
L 505.900597 -271.028062 
L 507.081687 -269.23864 
L 508.160572 -267.449219 
L 509.12875 -265.659797 
L 509.98066 -263.870375 
L 510.713808 -262.080953 
L 511.328774 -260.291532 
L 511.829113 -258.50211 
L 512.221151 -256.712688 
L 512.513695 -254.923266 
L 512.71767 -253.133845 
L 512.845692 -251.344423 
L 512.911618 -249.555001 
L 512.930074 -247.765579 
L 512.915985 -245.976157 
L 512.88413 -244.186736 
L 512.848721 -242.397314 
L 512.823025 -240.607892 
L 512.819029 -238.81847 
L 512.847147 -237.029049 
L 512.915968 -235.239627 
L 513.03204 -233.450205 
L 513.199696 -231.660783 
L 513.420897 -229.871362 
L 513.695126 -228.08194 
L 514.019306 -226.292518 
L 514.387771 -224.503096 
L 514.792292 -222.713675 
L 515.222168 -220.924253 
L 515.664406 -219.134831 
L 516.10398 -217.345409 
L 516.524196 -215.555988 
L 516.90715 -213.766566 
L 517.234267 -211.977144 
L 517.486921 -210.187722 
L 517.647098 -208.3983 
L 517.69808 -206.608879 
L 517.625111 -204.819457 
L 517.416016 -203.030035 
L 517.061725 -201.240613 
L 516.556686 -199.451192 
L 515.899123 -197.66177 
L 515.091143 -195.872348 
L 514.138659 -194.082926 
L 513.051156 -192.293505 
L 511.841301 -190.504083 
L 510.524423 -188.714661 
L 509.1179 -186.925239 
L 507.640483 -185.135818 
L 506.111594 -183.346396 
L 504.550657 -181.556974 
L 502.976468 -179.767552 
L 501.406655 -177.978131 
L 499.857249 -176.188709 
L 498.342366 -174.399287 
L 496.874017 -172.609865 
L 495.462038 -170.820443 
L 494.114118 -169.031022 
L 492.835925 -167.2416 
L 491.63129 -165.452178 
L 490.502436 -163.662756 
L 489.450228 -161.873335 
L 488.474418 -160.083913 
L 487.573877 -158.294491 
L 486.746801 -156.505069 
L 485.990875 -154.715648 
L 485.30341 -152.926226 
L 484.681439 -151.136804 
L 484.121785 -149.347382 
L 483.62111 -147.557961 
L 483.175948 -145.768539 
L 482.782725 -143.979117 
L 482.437784 -142.189695 
L 482.13741 -140.400274 
L 481.877857 -138.610852 
L 481.655384 -136.82143 
L 481.466294 -135.032008 
L 481.306977 -133.242586 
z
" style="stroke: #525252; stroke-width: 1.2"/>
    </defs>
    <g clip-path="url(#p3bb5e16702)">
     <use xlink:href="#m8d624b851b" x="0" y="360" style="fill: #dddddd; stroke: #525252; stroke-width: 1.2"/>
    </g>
   </g>
   <g id="FillBetweenPolyCollection_5">
    <defs>
     <path id="m65158af0b6" d="M 573.975791 -134.774235 
L 572.584946 -134.774235 
L 572.415077 -136.490448 
L 572.212713 -138.206662 
L 571.973799 -139.922876 
L 571.694209 -141.639089 
L 571.369818 -143.355303 
L 570.996585 -145.071517 
L 570.570647 -146.78773 
L 570.088404 -148.503944 
L 569.546619 -150.220158 
L 568.942513 -151.936371 
L 568.273866 -153.652585 
L 567.539117 -155.368799 
L 566.737473 -157.085013 
L 565.869016 -158.801226 
L 564.934817 -160.51744 
L 563.937047 -162.233654 
L 562.879083 -163.949867 
L 561.765599 -165.666081 
L 560.602641 -167.382295 
L 559.397658 -169.098508 
L 558.159499 -170.814722 
L 556.898337 -172.530936 
L 555.625535 -174.24715 
L 554.353434 -175.963363 
L 553.095055 -177.679577 
L 551.86374 -179.395791 
L 550.672714 -181.112004 
L 549.534621 -182.828218 
L 548.46102 -184.544432 
L 547.461903 -186.260645 
L 546.545249 -187.976859 
L 545.716644 -189.693073 
L 544.979014 -191.409287 
L 544.332465 -193.1255 
L 543.774281 -194.841714 
L 543.299054 -196.557928 
L 542.89896 -198.274141 
L 542.564161 -199.990355 
L 542.283311 -201.706569 
L 542.044125 -203.422782 
L 541.833993 -205.138996 
L 541.640583 -206.85521 
L 541.452407 -208.571423 
L 541.25931 -210.287637 
L 541.05287 -212.003851 
L 540.826677 -213.720065 
L 540.576491 -215.436278 
L 540.30028 -217.152492 
L 539.99815 -218.868706 
L 539.672181 -220.584919 
L 539.32619 -222.301133 
L 538.965458 -224.017347 
L 538.596432 -225.73356 
L 538.226432 -227.449774 
L 537.863386 -229.165988 
L 537.515607 -230.882202 
L 537.191611 -232.598415 
L 536.89999 -234.314629 
L 536.649328 -236.030843 
L 536.448155 -237.747056 
L 536.30492 -239.46327 
L 536.227967 -241.179484 
L 536.225509 -242.895697 
L 536.305565 -244.611911 
L 536.475864 -246.328125 
L 536.743706 -248.044339 
L 537.115768 -249.760552 
L 537.597873 -251.476766 
L 538.19472 -253.19298 
L 538.909595 -254.909193 
L 539.744084 -256.625407 
L 540.697807 -258.341621 
L 541.768192 -260.057834 
L 542.950316 -261.774048 
L 544.236834 -263.490262 
L 545.617994 -265.206475 
L 547.081769 -266.922689 
L 548.614086 -268.638903 
L 550.199157 -270.355117 
L 551.819898 -272.07133 
L 553.458409 -273.787544 
L 555.096506 -275.503758 
L 556.716258 -277.219971 
L 558.300523 -278.936185 
L 559.833437 -280.652399 
L 561.300847 -282.368612 
L 562.690651 -284.084826 
L 563.993053 -285.80104 
L 565.200706 -287.517254 
L 566.308752 -289.233467 
L 567.314761 -290.949681 
L 568.218581 -292.665895 
L 569.022115 -294.382108 
L 569.72904 -296.098322 
L 570.344489 -297.814536 
L 570.874719 -299.530749 
L 571.326771 -301.246963 
L 571.708159 -302.963177 
L 572.026581 -304.679391 
L 574.534156 -304.679391 
L 574.534156 -304.679391 
L 574.852577 -302.963177 
L 575.233966 -301.246963 
L 575.686018 -299.530749 
L 576.216247 -297.814536 
L 576.831697 -296.098322 
L 577.538622 -294.382108 
L 578.342156 -292.665895 
L 579.245976 -290.949681 
L 580.251985 -289.233467 
L 581.36003 -287.517254 
L 582.567684 -285.80104 
L 583.870086 -284.084826 
L 585.25989 -282.368612 
L 586.727299 -280.652399 
L 588.260214 -278.936185 
L 589.844479 -277.219971 
L 591.464231 -275.503758 
L 593.102327 -273.787544 
L 594.740839 -272.07133 
L 596.36158 -270.355117 
L 597.946651 -268.638903 
L 599.478968 -266.922689 
L 600.942743 -265.206475 
L 602.323903 -263.490262 
L 603.61042 -261.774048 
L 604.792545 -260.057834 
L 605.862929 -258.341621 
L 606.816653 -256.625407 
L 607.651142 -254.909193 
L 608.366017 -253.19298 
L 608.962864 -251.476766 
L 609.444969 -249.760552 
L 609.817031 -248.044339 
L 610.084873 -246.328125 
L 610.255172 -244.611911 
L 610.335227 -242.895697 
L 610.332769 -241.179484 
L 610.255817 -239.46327 
L 610.112582 -237.747056 
L 609.911409 -236.030843 
L 609.660747 -234.314629 
L 609.369125 -232.598415 
L 609.045129 -230.882202 
L 608.69735 -229.165988 
L 608.334305 -227.449774 
L 607.964305 -225.73356 
L 607.595278 -224.017347 
L 607.234547 -222.301133 
L 606.888556 -220.584919 
L 606.562587 -218.868706 
L 606.260457 -217.152492 
L 605.984246 -215.436278 
L 605.73406 -213.720065 
L 605.507867 -212.003851 
L 605.301427 -210.287637 
L 605.10833 -208.571423 
L 604.920153 -206.85521 
L 604.726744 -205.138996 
L 604.516612 -203.422782 
L 604.277426 -201.706569 
L 603.996575 -199.990355 
L 603.661777 -198.274141 
L 603.261683 -196.557928 
L 602.786456 -194.841714 
L 602.228272 -193.1255 
L 601.581723 -191.409287 
L 600.844092 -189.693073 
L 600.015488 -187.976859 
L 599.098833 -186.260645 
L 598.099717 -184.544432 
L 597.026116 -182.828218 
L 595.888022 -181.112004 
L 594.696997 -179.395791 
L 593.465681 -177.679577 
L 592.207303 -175.963363 
L 590.935202 -174.24715 
L 589.6624 -172.530936 
L 588.401238 -170.814722 
L 587.163078 -169.098508 
L 585.958096 -167.382295 
L 584.795138 -165.666081 
L 583.681654 -163.949867 
L 582.623689 -162.233654 
L 581.62592 -160.51744 
L 580.691721 -158.801226 
L 579.823264 -157.085013 
L 579.021619 -155.368799 
L 578.28687 -153.652585 
L 577.618223 -151.936371 
L 577.014118 -150.220158 
L 576.472333 -148.503944 
L 575.99009 -146.78773 
L 575.564152 -145.071517 
L 575.190919 -143.355303 
L 574.866527 -141.639089 
L 574.586937 -139.922876 
L 574.348024 -138.206662 
L 574.14566 -136.490448 
L 573.975791 -134.774235 
z
" style="stroke: #525252; stroke-width: 1.2"/>
    </defs>
    <g clip-path="url(#p3bb5e16702)">
     <use xlink:href="#m65158af0b6" x="0" y="360" style="fill: #999999; stroke: #525252; stroke-width: 1.2"/>
    </g>
   </g>
   <g id="matplotlib.axis_1">
    <g id="xtick_1">
     <g id="line2d_1">
      <defs>
       <path id="m963ddb422f" d="M 0 0 
L 0 3.5 
" style="stroke: #000000; stroke-width: 0.8"/>
      </defs>
      <g>
       <use xlink:href="#m963ddb422f" x="110.094632" y="287.949733" style="stroke: #000000; stroke-width: 0.8"/>
      </g>
     </g>
     <g id="text_1">
      <!-- Static Duration -->
      <g transform="translate(78.910411 339.131735) rotate(-30) scale(0.1 -0.1)">
       <defs>
        <path id="DejaVuSans-53" d="M 3425 4513 
L 3425 3897 
Q 3066 4069 2747 4153 
Q 2428 4238 2131 4238 
Q 1616 4238 1336 4038 
Q 1056 3838 1056 3469 
Q 1056 3159 1242 3001 
Q 1428 2844 1947 2747 
L 2328 2669 
Q 3034 2534 3370 2195 
Q 3706 1856 3706 1288 
Q 3706 609 3251 259 
Q 2797 -91 1919 -91 
Q 1588 -91 1214 -16 
Q 841 59 441 206 
L 441 856 
Q 825 641 1194 531 
Q 1563 422 1919 422 
Q 2459 422 2753 634 
Q 3047 847 3047 1241 
Q 3047 1584 2836 1778 
Q 2625 1972 2144 2069 
L 1759 2144 
Q 1053 2284 737 2584 
Q 422 2884 422 3419 
Q 422 4038 858 4394 
Q 1294 4750 2059 4750 
Q 2388 4750 2728 4690 
Q 3069 4631 3425 4513 
z
" transform="scale(0.015625)"/>
        <path id="DejaVuSans-74" d="M 1172 4494 
L 1172 3500 
L 2356 3500 
L 2356 3053 
L 1172 3053 
L 1172 1153 
Q 1172 725 1289 603 
Q 1406 481 1766 481 
L 2356 481 
L 2356 0 
L 1766 0 
Q 1100 0 847 248 
Q 594 497 594 1153 
L 594 3053 
L 172 3053 
L 172 3500 
L 594 3500 
L 594 4494 
L 1172 4494 
z
" transform="scale(0.015625)"/>
        <path id="DejaVuSans-61" d="M 2194 1759 
Q 1497 1759 1228 1600 
Q 959 1441 959 1056 
Q 959 750 1161 570 
Q 1363 391 1709 391 
Q 2188 391 2477 730 
Q 2766 1069 2766 1631 
L 2766 1759 
L 2194 1759 
z
M 3341 1997 
L 3341 0 
L 2766 0 
L 2766 531 
Q 2569 213 2275 61 
Q 1981 -91 1556 -91 
Q 1019 -91 701 211 
Q 384 513 384 1019 
Q 384 1609 779 1909 
Q 1175 2209 1959 2209 
L 2766 2209 
L 2766 2266 
Q 2766 2663 2505 2880 
Q 2244 3097 1772 3097 
Q 1472 3097 1187 3025 
Q 903 2953 641 2809 
L 641 3341 
Q 956 3463 1253 3523 
Q 1550 3584 1831 3584 
Q 2591 3584 2966 3190 
Q 3341 2797 3341 1997 
z
" transform="scale(0.015625)"/>
        <path id="DejaVuSans-69" d="M 603 3500 
L 1178 3500 
L 1178 0 
L 603 0 
L 603 3500 
z
M 603 4863 
L 1178 4863 
L 1178 4134 
L 603 4134 
L 603 4863 
z
" transform="scale(0.015625)"/>
        <path id="DejaVuSans-63" d="M 3122 3366 
L 3122 2828 
Q 2878 2963 2633 3030 
Q 2388 3097 2138 3097 
Q 1578 3097 1268 2742 
Q 959 2388 959 1747 
Q 959 1106 1268 751 
Q 1578 397 2138 397 
Q 2388 397 2633 464 
Q 2878 531 3122 666 
L 3122 134 
Q 2881 22 2623 -34 
Q 2366 -91 2075 -91 
Q 1284 -91 818 406 
Q 353 903 353 1747 
Q 353 2603 823 3093 
Q 1294 3584 2113 3584 
Q 2378 3584 2631 3529 
Q 2884 3475 3122 3366 
z
" transform="scale(0.015625)"/>
        <path id="DejaVuSans-20" transform="scale(0.015625)"/>
        <path id="DejaVuSans-44" d="M 1259 4147 
L 1259 519 
L 2022 519 
Q 2988 519 3436 956 
Q 3884 1394 3884 2338 
Q 3884 3275 3436 3711 
Q 2988 4147 2022 4147 
L 1259 4147 
z
M 628 4666 
L 1925 4666 
Q 3281 4666 3915 4102 
Q 4550 3538 4550 2338 
Q 4550 1131 3912 565 
Q 3275 0 1925 0 
L 628 0 
L 628 4666 
z
" transform="scale(0.015625)"/>
        <path id="DejaVuSans-75" d="M 544 1381 
L 544 3500 
L 1119 3500 
L 1119 1403 
Q 1119 906 1312 657 
Q 1506 409 1894 409 
Q 2359 409 2629 706 
Q 2900 1003 2900 1516 
L 2900 3500 
L 3475 3500 
L 3475 0 
L 2900 0 
L 2900 538 
Q 2691 219 2414 64 
Q 2138 -91 1772 -91 
Q 1169 -91 856 284 
Q 544 659 544 1381 
z
M 1991 3584 
L 1991 3584 
z
" transform="scale(0.015625)"/>
        <path id="DejaVuSans-72" d="M 2631 2963 
Q 2534 3019 2420 3045 
Q 2306 3072 2169 3072 
Q 1681 3072 1420 2755 
Q 1159 2438 1159 1844 
L 1159 0 
L 581 0 
L 581 3500 
L 1159 3500 
L 1159 2956 
Q 1341 3275 1631 3429 
Q 1922 3584 2338 3584 
Q 2397 3584 2469 3576 
Q 2541 3569 2628 3553 
L 2631 2963 
z
" transform="scale(0.015625)"/>
        <path id="DejaVuSans-6f" d="M 1959 3097 
Q 1497 3097 1228 2736 
Q 959 2375 959 1747 
Q 959 1119 1226 758 
Q 1494 397 1959 397 
Q 2419 397 2687 759 
Q 2956 1122 2956 1747 
Q 2956 2369 2687 2733 
Q 2419 3097 1959 3097 
z
M 1959 3584 
Q 2709 3584 3137 3096 
Q 3566 2609 3566 1747 
Q 3566 888 3137 398 
Q 2709 -91 1959 -91 
Q 1206 -91 779 398 
Q 353 888 353 1747 
Q 353 2609 779 3096 
Q 1206 3584 1959 3584 
z
" transform="scale(0.015625)"/>
        <path id="DejaVuSans-6e" d="M 3513 2113 
L 3513 0 
L 2938 0 
L 2938 2094 
Q 2938 2591 2744 2837 
Q 2550 3084 2163 3084 
Q 1697 3084 1428 2787 
Q 1159 2491 1159 1978 
L 1159 0 
L 581 0 
L 581 3500 
L 1159 3500 
L 1159 2956 
Q 1366 3272 1645 3428 
Q 1925 3584 2291 3584 
Q 2894 3584 3203 3211 
Q 3513 2838 3513 2113 
z
" transform="scale(0.015625)"/>
       </defs>
       <use xlink:href="#DejaVuSans-53"/>
       <use xlink:href="#DejaVuSans-74" transform="translate(63.476562 0)"/>
       <use xlink:href="#DejaVuSans-61" transform="translate(102.685547 0)"/>
       <use xlink:href="#DejaVuSans-74" transform="translate(163.964844 0)"/>
       <use xlink:href="#DejaVuSans-69" transform="translate(203.173828 0)"/>
       <use xlink:href="#DejaVuSans-63" transform="translate(230.957031 0)"/>
       <use xlink:href="#DejaVuSans-20" transform="translate(285.9375 0)"/>
       <use xlink:href="#DejaVuSans-44" transform="translate(317.724609 0)"/>
       <use xlink:href="#DejaVuSans-75" transform="translate(394.726562 0)"/>
       <use xlink:href="#DejaVuSans-72" transform="translate(458.105469 0)"/>
       <use xlink:href="#DejaVuSans-61" transform="translate(499.21875 0)"/>
       <use xlink:href="#DejaVuSans-74" transform="translate(560.498047 0)"/>
       <use xlink:href="#DejaVuSans-69" transform="translate(599.707031 0)"/>
       <use xlink:href="#DejaVuSans-6f" transform="translate(627.490234 0)"/>
       <use xlink:href="#DejaVuSans-6e" transform="translate(688.671875 0)"/>
      </g>
     </g>
    </g>
    <g id="xtick_2">
     <g id="line2d_2">
      <g>
       <use xlink:href="#m963ddb422f" x="202.731779" y="287.949733" style="stroke: #000000; stroke-width: 0.8"/>
      </g>
     </g>
     <g id="text_2">
      <!-- Causal (Inference) -->
      <g transform="translate(164.475919 347.29736) rotate(-30) scale(0.1 -0.1)">
       <defs>
        <path id="DejaVuSans-43" d="M 4122 4306 
L 4122 3641 
Q 3803 3938 3442 4084 
Q 3081 4231 2675 4231 
Q 1875 4231 1450 3742 
Q 1025 3253 1025 2328 
Q 1025 1406 1450 917 
Q 1875 428 2675 428 
Q 3081 428 3442 575 
Q 3803 722 4122 1019 
L 4122 359 
Q 3791 134 3420 21 
Q 3050 -91 2638 -91 
Q 1578 -91 968 557 
Q 359 1206 359 2328 
Q 359 3453 968 4101 
Q 1578 4750 2638 4750 
Q 3056 4750 3426 4639 
Q 3797 4528 4122 4306 
z
" transform="scale(0.015625)"/>
        <path id="DejaVuSans-73" d="M 2834 3397 
L 2834 2853 
Q 2591 2978 2328 3040 
Q 2066 3103 1784 3103 
Q 1356 3103 1142 2972 
Q 928 2841 928 2578 
Q 928 2378 1081 2264 
Q 1234 2150 1697 2047 
L 1894 2003 
Q 2506 1872 2764 1633 
Q 3022 1394 3022 966 
Q 3022 478 2636 193 
Q 2250 -91 1575 -91 
Q 1294 -91 989 -36 
Q 684 19 347 128 
L 347 722 
Q 666 556 975 473 
Q 1284 391 1588 391 
Q 1994 391 2212 530 
Q 2431 669 2431 922 
Q 2431 1156 2273 1281 
Q 2116 1406 1581 1522 
L 1381 1569 
Q 847 1681 609 1914 
Q 372 2147 372 2553 
Q 372 3047 722 3315 
Q 1072 3584 1716 3584 
Q 2034 3584 2315 3537 
Q 2597 3491 2834 3397 
z
" transform="scale(0.015625)"/>
        <path id="DejaVuSans-6c" d="M 603 4863 
L 1178 4863 
L 1178 0 
L 603 0 
L 603 4863 
z
" transform="scale(0.015625)"/>
        <path id="DejaVuSans-28" d="M 1984 4856 
Q 1566 4138 1362 3434 
Q 1159 2731 1159 2009 
Q 1159 1288 1364 580 
Q 1569 -128 1984 -844 
L 1484 -844 
Q 1016 -109 783 600 
Q 550 1309 550 2009 
Q 550 2706 781 3412 
Q 1013 4119 1484 4856 
L 1984 4856 
z
" transform="scale(0.015625)"/>
        <path id="DejaVuSans-49" d="M 628 4666 
L 1259 4666 
L 1259 0 
L 628 0 
L 628 4666 
z
" transform="scale(0.015625)"/>
        <path id="DejaVuSans-66" d="M 2375 4863 
L 2375 4384 
L 1825 4384 
Q 1516 4384 1395 4259 
Q 1275 4134 1275 3809 
L 1275 3500 
L 2222 3500 
L 2222 3053 
L 1275 3053 
L 1275 0 
L 697 0 
L 697 3053 
L 147 3053 
L 147 3500 
L 697 3500 
L 697 3744 
Q 697 4328 969 4595 
Q 1241 4863 1831 4863 
L 2375 4863 
z
" transform="scale(0.015625)"/>
        <path id="DejaVuSans-65" d="M 3597 1894 
L 3597 1613 
L 953 1613 
Q 991 1019 1311 708 
Q 1631 397 2203 397 
Q 2534 397 2845 478 
Q 3156 559 3463 722 
L 3463 178 
Q 3153 47 2828 -22 
Q 2503 -91 2169 -91 
Q 1331 -91 842 396 
Q 353 884 353 1716 
Q 353 2575 817 3079 
Q 1281 3584 2069 3584 
Q 2775 3584 3186 3129 
Q 3597 2675 3597 1894 
z
M 3022 2063 
Q 3016 2534 2758 2815 
Q 2500 3097 2075 3097 
Q 1594 3097 1305 2825 
Q 1016 2553 972 2059 
L 3022 2063 
z
" transform="scale(0.015625)"/>
        <path id="DejaVuSans-29" d="M 513 4856 
L 1013 4856 
Q 1481 4119 1714 3412 
Q 1947 2706 1947 2009 
Q 1947 1309 1714 600 
Q 1481 -109 1013 -844 
L 513 -844 
Q 928 -128 1133 580 
Q 1338 1288 1338 2009 
Q 1338 2731 1133 3434 
Q 928 4138 513 4856 
z
" transform="scale(0.015625)"/>
       </defs>
       <use xlink:href="#DejaVuSans-43"/>
       <use xlink:href="#DejaVuSans-61" transform="translate(69.824219 0)"/>
       <use xlink:href="#DejaVuSans-75" transform="translate(131.103516 0)"/>
       <use xlink:href="#DejaVuSans-73" transform="translate(194.482422 0)"/>
       <use xlink:href="#DejaVuSans-61" transform="translate(246.582031 0)"/>
       <use xlink:href="#DejaVuSans-6c" transform="translate(307.861328 0)"/>
       <use xlink:href="#DejaVuSans-20" transform="translate(335.644531 0)"/>
       <use xlink:href="#DejaVuSans-28" transform="translate(367.431641 0)"/>
       <use xlink:href="#DejaVuSans-49" transform="translate(406.445312 0)"/>
       <use xlink:href="#DejaVuSans-6e" transform="translate(435.9375 0)"/>
       <use xlink:href="#DejaVuSans-66" transform="translate(499.316406 0)"/>
       <use xlink:href="#DejaVuSans-65" transform="translate(534.521484 0)"/>
       <use xlink:href="#DejaVuSans-72" transform="translate(596.044922 0)"/>
       <use xlink:href="#DejaVuSans-65" transform="translate(634.908203 0)"/>
       <use xlink:href="#DejaVuSans-6e" transform="translate(696.431641 0)"/>
       <use xlink:href="#DejaVuSans-63" transform="translate(759.810547 0)"/>
       <use xlink:href="#DejaVuSans-65" transform="translate(814.791016 0)"/>
       <use xlink:href="#DejaVuSans-29" transform="translate(876.314453 0)"/>
      </g>
     </g>
    </g>
    <g id="xtick_3">
     <g id="line2d_3">
      <g>
       <use xlink:href="#m963ddb422f" x="295.368926" y="287.949733" style="stroke: #000000; stroke-width: 0.8"/>
      </g>
     </g>
     <g id="text_3">
      <!-- Causal (Do) -->
      <g transform="translate(271.476233 330.712204) rotate(-30) scale(0.1 -0.1)">
       <use xlink:href="#DejaVuSans-43"/>
       <use xlink:href="#DejaVuSans-61" transform="translate(69.824219 0)"/>
       <use xlink:href="#DejaVuSans-75" transform="translate(131.103516 0)"/>
       <use xlink:href="#DejaVuSans-73" transform="translate(194.482422 0)"/>
       <use xlink:href="#DejaVuSans-61" transform="translate(246.582031 0)"/>
       <use xlink:href="#DejaVuSans-6c" transform="translate(307.861328 0)"/>
       <use xlink:href="#DejaVuSans-20" transform="translate(335.644531 0)"/>
       <use xlink:href="#DejaVuSans-28" transform="translate(367.431641 0)"/>
       <use xlink:href="#DejaVuSans-44" transform="translate(406.445312 0)"/>
       <use xlink:href="#DejaVuSans-6f" transform="translate(483.447266 0)"/>
       <use xlink:href="#DejaVuSans-29" transform="translate(544.628906 0)"/>
      </g>
     </g>
    </g>
    <g id="xtick_4">
     <g id="line2d_4">
      <g>
       <use xlink:href="#m963ddb422f" x="388.006074" y="287.949733" style="stroke: #000000; stroke-width: 0.8"/>
      </g>
     </g>
     <g id="text_4">
      <!-- Mean Duration -->
      <g transform="translate(357.405067 338.458298) rotate(-30) scale(0.1 -0.1)">
       <defs>
        <path id="DejaVuSans-4d" d="M 628 4666 
L 1569 4666 
L 2759 1491 
L 3956 4666 
L 4897 4666 
L 4897 0 
L 4281 0 
L 4281 4097 
L 3078 897 
L 2444 897 
L 1241 4097 
L 1241 0 
L 628 0 
L 628 4666 
z
" transform="scale(0.015625)"/>
       </defs>
       <use xlink:href="#DejaVuSans-4d"/>
       <use xlink:href="#DejaVuSans-65" transform="translate(86.279297 0)"/>
       <use xlink:href="#DejaVuSans-61" transform="translate(147.802734 0)"/>
       <use xlink:href="#DejaVuSans-6e" transform="translate(209.082031 0)"/>
       <use xlink:href="#DejaVuSans-20" transform="translate(272.460938 0)"/>
       <use xlink:href="#DejaVuSans-44" transform="translate(304.248047 0)"/>
       <use xlink:href="#DejaVuSans-75" transform="translate(381.25 0)"/>
       <use xlink:href="#DejaVuSans-72" transform="translate(444.628906 0)"/>
       <use xlink:href="#DejaVuSans-61" transform="translate(485.742188 0)"/>
       <use xlink:href="#DejaVuSans-74" transform="translate(547.021484 0)"/>
       <use xlink:href="#DejaVuSans-69" transform="translate(586.230469 0)"/>
       <use xlink:href="#DejaVuSans-6f" transform="translate(614.013672 0)"/>
       <use xlink:href="#DejaVuSans-6e" transform="translate(675.195312 0)"/>
      </g>
     </g>
    </g>
    <g id="xtick_5">
     <g id="line2d_5">
      <g>
       <use xlink:href="#m963ddb422f" x="480.643221" y="287.949733" style="stroke: #000000; stroke-width: 0.8"/>
      </g>
     </g>
     <g id="text_5">
      <!-- Log-Normal -->
      <g transform="translate(457.057696 330.357517) rotate(-30) scale(0.1 -0.1)">
       <defs>
        <path id="DejaVuSans-4c" d="M 628 4666 
L 1259 4666 
L 1259 531 
L 3531 531 
L 3531 0 
L 628 0 
L 628 4666 
z
" transform="scale(0.015625)"/>
        <path id="DejaVuSans-67" d="M 2906 1791 
Q 2906 2416 2648 2759 
Q 2391 3103 1925 3103 
Q 1463 3103 1205 2759 
Q 947 2416 947 1791 
Q 947 1169 1205 825 
Q 1463 481 1925 481 
Q 2391 481 2648 825 
Q 2906 1169 2906 1791 
z
M 3481 434 
Q 3481 -459 3084 -895 
Q 2688 -1331 1869 -1331 
Q 1566 -1331 1297 -1286 
Q 1028 -1241 775 -1147 
L 775 -588 
Q 1028 -725 1275 -790 
Q 1522 -856 1778 -856 
Q 2344 -856 2625 -561 
Q 2906 -266 2906 331 
L 2906 616 
Q 2728 306 2450 153 
Q 2172 0 1784 0 
Q 1141 0 747 490 
Q 353 981 353 1791 
Q 353 2603 747 3093 
Q 1141 3584 1784 3584 
Q 2172 3584 2450 3431 
Q 2728 3278 2906 2969 
L 2906 3500 
L 3481 3500 
L 3481 434 
z
" transform="scale(0.015625)"/>
        <path id="DejaVuSans-2d" d="M 313 2009 
L 1997 2009 
L 1997 1497 
L 313 1497 
L 313 2009 
z
" transform="scale(0.015625)"/>
        <path id="DejaVuSans-4e" d="M 628 4666 
L 1478 4666 
L 3547 763 
L 3547 4666 
L 4159 4666 
L 4159 0 
L 3309 0 
L 1241 3903 
L 1241 0 
L 628 0 
L 628 4666 
z
" transform="scale(0.015625)"/>
        <path id="DejaVuSans-6d" d="M 3328 2828 
Q 3544 3216 3844 3400 
Q 4144 3584 4550 3584 
Q 5097 3584 5394 3201 
Q 5691 2819 5691 2113 
L 5691 0 
L 5113 0 
L 5113 2094 
Q 5113 2597 4934 2840 
Q 4756 3084 4391 3084 
Q 3944 3084 3684 2787 
Q 3425 2491 3425 1978 
L 3425 0 
L 2847 0 
L 2847 2094 
Q 2847 2600 2669 2842 
Q 2491 3084 2119 3084 
Q 1678 3084 1418 2786 
Q 1159 2488 1159 1978 
L 1159 0 
L 581 0 
L 581 3500 
L 1159 3500 
L 1159 2956 
Q 1356 3278 1631 3431 
Q 1906 3584 2284 3584 
Q 2666 3584 2933 3390 
Q 3200 3197 3328 2828 
z
" transform="scale(0.015625)"/>
       </defs>
       <use xlink:href="#DejaVuSans-4c"/>
       <use xlink:href="#DejaVuSans-6f" transform="translate(53.962891 0)"/>
       <use xlink:href="#DejaVuSans-67" transform="translate(115.144531 0)"/>
       <use xlink:href="#DejaVuSans-2d" transform="translate(178.621094 0)"/>
       <use xlink:href="#DejaVuSans-4e" transform="translate(214.705078 0)"/>
       <use xlink:href="#DejaVuSans-6f" transform="translate(289.509766 0)"/>
       <use xlink:href="#DejaVuSans-72" transform="translate(350.691406 0)"/>
       <use xlink:href="#DejaVuSans-6d" transform="translate(390.054688 0)"/>
       <use xlink:href="#DejaVuSans-61" transform="translate(487.466797 0)"/>
       <use xlink:href="#DejaVuSans-6c" transform="translate(548.746094 0)"/>
      </g>
     </g>
    </g>
    <g id="xtick_6">
     <g id="line2d_6">
      <g>
       <use xlink:href="#m963ddb422f" x="573.280368" y="287.949733" style="stroke: #000000; stroke-width: 0.8"/>
      </g>
     </g>
     <g id="text_6">
      <!-- Nonparametric -->
      <g transform="translate(542.247025 338.957517) rotate(-30) scale(0.1 -0.1)">
       <defs>
        <path id="DejaVuSans-70" d="M 1159 525 
L 1159 -1331 
L 581 -1331 
L 581 3500 
L 1159 3500 
L 1159 2969 
Q 1341 3281 1617 3432 
Q 1894 3584 2278 3584 
Q 2916 3584 3314 3078 
Q 3713 2572 3713 1747 
Q 3713 922 3314 415 
Q 2916 -91 2278 -91 
Q 1894 -91 1617 61 
Q 1341 213 1159 525 
z
M 3116 1747 
Q 3116 2381 2855 2742 
Q 2594 3103 2138 3103 
Q 1681 3103 1420 2742 
Q 1159 2381 1159 1747 
Q 1159 1113 1420 752 
Q 1681 391 2138 391 
Q 2594 391 2855 752 
Q 3116 1113 3116 1747 
z
" transform="scale(0.015625)"/>
       </defs>
       <use xlink:href="#DejaVuSans-4e"/>
       <use xlink:href="#DejaVuSans-6f" transform="translate(74.804688 0)"/>
       <use xlink:href="#DejaVuSans-6e" transform="translate(135.986328 0)"/>
       <use xlink:href="#DejaVuSans-70" transform="translate(199.365234 0)"/>
       <use xlink:href="#DejaVuSans-61" transform="translate(262.841797 0)"/>
       <use xlink:href="#DejaVuSans-72" transform="translate(324.121094 0)"/>
       <use xlink:href="#DejaVuSans-61" transform="translate(365.234375 0)"/>
       <use xlink:href="#DejaVuSans-6d" transform="translate(426.513672 0)"/>
       <use xlink:href="#DejaVuSans-65" transform="translate(523.925781 0)"/>
       <use xlink:href="#DejaVuSans-74" transform="translate(585.449219 0)"/>
       <use xlink:href="#DejaVuSans-72" transform="translate(624.658203 0)"/>
       <use xlink:href="#DejaVuSans-69" transform="translate(665.771484 0)"/>
       <use xlink:href="#DejaVuSans-63" transform="translate(693.554688 0)"/>
      </g>
     </g>
    </g>
   </g>
   <g id="matplotlib.axis_2">
    <g id="ytick_1">
     <g id="line2d_7">
      <defs>
       <path id="m62c6b17a4d" d="M 0 0 
L -3.5 0 
" style="stroke: #000000; stroke-width: 0.8"/>
      </defs>
      <g>
       <use xlink:href="#m62c6b17a4d" x="46.175" y="275.352018" style="stroke: #000000; stroke-width: 0.8"/>
      </g>
     </g>
     <g id="text_7">
      <!-- 0 -->
      <g transform="translate(32.8125 279.151237) scale(0.1 -0.1)">
       <defs>
        <path id="DejaVuSans-30" d="M 2034 4250 
Q 1547 4250 1301 3770 
Q 1056 3291 1056 2328 
Q 1056 1369 1301 889 
Q 1547 409 2034 409 
Q 2525 409 2770 889 
Q 3016 1369 3016 2328 
Q 3016 3291 2770 3770 
Q 2525 4250 2034 4250 
z
M 2034 4750 
Q 2819 4750 3233 4129 
Q 3647 3509 3647 2328 
Q 3647 1150 3233 529 
Q 2819 -91 2034 -91 
Q 1250 -91 836 529 
Q 422 1150 422 2328 
Q 422 3509 836 4129 
Q 1250 4750 2034 4750 
z
" transform="scale(0.015625)"/>
       </defs>
       <use xlink:href="#DejaVuSans-30"/>
      </g>
     </g>
    </g>
    <g id="ytick_2">
     <g id="line2d_8">
      <g>
       <use xlink:href="#m62c6b17a4d" x="46.175" y="243.938336" style="stroke: #000000; stroke-width: 0.8"/>
      </g>
     </g>
     <g id="text_8">
      <!-- 5 -->
      <g transform="translate(32.8125 247.737555) scale(0.1 -0.1)">
       <defs>
        <path id="DejaVuSans-35" d="M 691 4666 
L 3169 4666 
L 3169 4134 
L 1269 4134 
L 1269 2991 
Q 1406 3038 1543 3061 
Q 1681 3084 1819 3084 
Q 2600 3084 3056 2656 
Q 3513 2228 3513 1497 
Q 3513 744 3044 326 
Q 2575 -91 1722 -91 
Q 1428 -91 1123 -41 
Q 819 9 494 109 
L 494 744 
Q 775 591 1075 516 
Q 1375 441 1709 441 
Q 2250 441 2565 725 
Q 2881 1009 2881 1497 
Q 2881 1984 2565 2268 
Q 2250 2553 1709 2553 
Q 1456 2553 1204 2497 
Q 953 2441 691 2322 
L 691 4666 
z
" transform="scale(0.015625)"/>
       </defs>
       <use xlink:href="#DejaVuSans-35"/>
      </g>
     </g>
    </g>
    <g id="ytick_3">
     <g id="line2d_9">
      <g>
       <use xlink:href="#m62c6b17a4d" x="46.175" y="212.524655" style="stroke: #000000; stroke-width: 0.8"/>
      </g>
     </g>
     <g id="text_9">
      <!-- 10 -->
      <g transform="translate(26.45 216.323874) scale(0.1 -0.1)">
       <defs>
        <path id="DejaVuSans-31" d="M 794 531 
L 1825 531 
L 1825 4091 
L 703 3866 
L 703 4441 
L 1819 4666 
L 2450 4666 
L 2450 531 
L 3481 531 
L 3481 0 
L 794 0 
L 794 531 
z
" transform="scale(0.015625)"/>
       </defs>
       <use xlink:href="#DejaVuSans-31"/>
       <use xlink:href="#DejaVuSans-30" transform="translate(63.623047 0)"/>
      </g>
     </g>
    </g>
    <g id="ytick_4">
     <g id="line2d_10">
      <g>
       <use xlink:href="#m62c6b17a4d" x="46.175" y="181.110973" style="stroke: #000000; stroke-width: 0.8"/>
      </g>
     </g>
     <g id="text_10">
      <!-- 15 -->
      <g transform="translate(26.45 184.910192) scale(0.1 -0.1)">
       <use xlink:href="#DejaVuSans-31"/>
       <use xlink:href="#DejaVuSans-35" transform="translate(63.623047 0)"/>
      </g>
     </g>
    </g>
    <g id="ytick_5">
     <g id="line2d_11">
      <g>
       <use xlink:href="#m62c6b17a4d" x="46.175" y="149.697292" style="stroke: #000000; stroke-width: 0.8"/>
      </g>
     </g>
     <g id="text_11">
      <!-- 20 -->
      <g transform="translate(26.45 153.496511) scale(0.1 -0.1)">
       <defs>
        <path id="DejaVuSans-32" d="M 1228 531 
L 3431 531 
L 3431 0 
L 469 0 
L 469 531 
Q 828 903 1448 1529 
Q 2069 2156 2228 2338 
Q 2531 2678 2651 2914 
Q 2772 3150 2772 3378 
Q 2772 3750 2511 3984 
Q 2250 4219 1831 4219 
Q 1534 4219 1204 4116 
Q 875 4013 500 3803 
L 500 4441 
Q 881 4594 1212 4672 
Q 1544 4750 1819 4750 
Q 2544 4750 2975 4387 
Q 3406 4025 3406 3419 
Q 3406 3131 3298 2873 
Q 3191 2616 2906 2266 
Q 2828 2175 2409 1742 
Q 1991 1309 1228 531 
z
" transform="scale(0.015625)"/>
       </defs>
       <use xlink:href="#DejaVuSans-32"/>
       <use xlink:href="#DejaVuSans-30" transform="translate(63.623047 0)"/>
      </g>
     </g>
    </g>
    <g id="ytick_6">
     <g id="line2d_12">
      <g>
       <use xlink:href="#m62c6b17a4d" x="46.175" y="118.28361" style="stroke: #000000; stroke-width: 0.8"/>
      </g>
     </g>
     <g id="text_12">
      <!-- 25 -->
      <g transform="translate(26.45 122.082829) scale(0.1 -0.1)">
       <use xlink:href="#DejaVuSans-32"/>
       <use xlink:href="#DejaVuSans-35" transform="translate(63.623047 0)"/>
      </g>
     </g>
    </g>
    <g id="ytick_7">
     <g id="line2d_13">
      <g>
       <use xlink:href="#m62c6b17a4d" x="46.175" y="86.869929" style="stroke: #000000; stroke-width: 0.8"/>
      </g>
     </g>
     <g id="text_13">
      <!-- 30 -->
      <g transform="translate(26.45 90.669148) scale(0.1 -0.1)">
       <defs>
        <path id="DejaVuSans-33" d="M 2597 2516 
Q 3050 2419 3304 2112 
Q 3559 1806 3559 1356 
Q 3559 666 3084 287 
Q 2609 -91 1734 -91 
Q 1441 -91 1130 -33 
Q 819 25 488 141 
L 488 750 
Q 750 597 1062 519 
Q 1375 441 1716 441 
Q 2309 441 2620 675 
Q 2931 909 2931 1356 
Q 2931 1769 2642 2001 
Q 2353 2234 1838 2234 
L 1294 2234 
L 1294 2753 
L 1863 2753 
Q 2328 2753 2575 2939 
Q 2822 3125 2822 3475 
Q 2822 3834 2567 4026 
Q 2313 4219 1838 4219 
Q 1578 4219 1281 4162 
Q 984 4106 628 3988 
L 628 4550 
Q 988 4650 1302 4700 
Q 1616 4750 1894 4750 
Q 2613 4750 3031 4423 
Q 3450 4097 3450 3541 
Q 3450 3153 3228 2886 
Q 3006 2619 2597 2516 
z
" transform="scale(0.015625)"/>
       </defs>
       <use xlink:href="#DejaVuSans-33"/>
       <use xlink:href="#DejaVuSans-30" transform="translate(63.623047 0)"/>
      </g>
     </g>
    </g>
    <g id="ytick_8">
     <g id="line2d_14">
      <g>
       <use xlink:href="#m62c6b17a4d" x="46.175" y="55.456247" style="stroke: #000000; stroke-width: 0.8"/>
      </g>
     </g>
     <g id="text_14">
      <!-- 35 -->
      <g transform="translate(26.45 59.255466) scale(0.1 -0.1)">
       <use xlink:href="#DejaVuSans-33"/>
       <use xlink:href="#DejaVuSans-35" transform="translate(63.623047 0)"/>
      </g>
     </g>
    </g>
    <g id="ytick_9">
     <g id="line2d_15">
      <g>
       <use xlink:href="#m62c6b17a4d" x="46.175" y="24.042566" style="stroke: #000000; stroke-width: 0.8"/>
      </g>
     </g>
     <g id="text_15">
      <!-- 40 -->
      <g transform="translate(26.45 27.841785) scale(0.1 -0.1)">
       <defs>
        <path id="DejaVuSans-34" d="M 2419 4116 
L 825 1625 
L 2419 1625 
L 2419 4116 
z
M 2253 4666 
L 3047 4666 
L 3047 1625 
L 3713 1625 
L 3713 1100 
L 3047 1100 
L 3047 0 
L 2419 0 
L 2419 1100 
L 313 1100 
L 313 1709 
L 2253 4666 
z
" transform="scale(0.015625)"/>
       </defs>
       <use xlink:href="#DejaVuSans-34"/>
       <use xlink:href="#DejaVuSans-30" transform="translate(63.623047 0)"/>
      </g>
     </g>
    </g>
    <g id="text_16">
     <!-- Levenshtein Distance -->
     <g transform="translate(19.954375 213.933929) rotate(-90) scale(0.12 -0.12)">
      <defs>
       <path id="DejaVuSans-76" d="M 191 3500 
L 800 3500 
L 1894 563 
L 2988 3500 
L 3597 3500 
L 2284 0 
L 1503 0 
L 191 3500 
z
" transform="scale(0.015625)"/>
       <path id="DejaVuSans-68" d="M 3513 2113 
L 3513 0 
L 2938 0 
L 2938 2094 
Q 2938 2591 2744 2837 
Q 2550 3084 2163 3084 
Q 1697 3084 1428 2787 
Q 1159 2491 1159 1978 
L 1159 0 
L 581 0 
L 581 4863 
L 1159 4863 
L 1159 2956 
Q 1366 3272 1645 3428 
Q 1925 3584 2291 3584 
Q 2894 3584 3203 3211 
Q 3513 2838 3513 2113 
z
" transform="scale(0.015625)"/>
      </defs>
      <use xlink:href="#DejaVuSans-4c"/>
      <use xlink:href="#DejaVuSans-65" transform="translate(53.962891 0)"/>
      <use xlink:href="#DejaVuSans-76" transform="translate(115.486328 0)"/>
      <use xlink:href="#DejaVuSans-65" transform="translate(174.666016 0)"/>
      <use xlink:href="#DejaVuSans-6e" transform="translate(236.189453 0)"/>
      <use xlink:href="#DejaVuSans-73" transform="translate(299.568359 0)"/>
      <use xlink:href="#DejaVuSans-68" transform="translate(351.667969 0)"/>
      <use xlink:href="#DejaVuSans-74" transform="translate(415.046875 0)"/>
      <use xlink:href="#DejaVuSans-65" transform="translate(454.255859 0)"/>
      <use xlink:href="#DejaVuSans-69" transform="translate(515.779297 0)"/>
      <use xlink:href="#DejaVuSans-6e" transform="translate(543.5625 0)"/>
      <use xlink:href="#DejaVuSans-20" transform="translate(606.941406 0)"/>
      <use xlink:href="#DejaVuSans-44" transform="translate(638.728516 0)"/>
      <use xlink:href="#DejaVuSans-69" transform="translate(715.730469 0)"/>
      <use xlink:href="#DejaVuSans-73" transform="translate(743.513672 0)"/>
      <use xlink:href="#DejaVuSans-74" transform="translate(795.613281 0)"/>
      <use xlink:href="#DejaVuSans-61" transform="translate(834.822266 0)"/>
      <use xlink:href="#DejaVuSans-6e" transform="translate(896.101562 0)"/>
      <use xlink:href="#DejaVuSans-63" transform="translate(959.480469 0)"/>
      <use xlink:href="#DejaVuSans-65" transform="translate(1014.460938 0)"/>
     </g>
    </g>
   </g>
   <g id="line2d_16">
    <path d="M 73.039773 275.352018 
L 147.149491 275.352018 
" clip-path="url(#p3bb5e16702)" style="fill: none; stroke: #525252; stroke-width: 1.2; stroke-linecap: square"/>
   </g>
   <g id="line2d_17">
    <path d="M 168.808109 160.693651 
L 236.655449 160.693651 
" clip-path="url(#p3bb5e16702)" style="fill: none; stroke-dasharray: 1.5,0.9; stroke-dashoffset: 0; stroke: #525252; stroke-width: 1.2"/>
   </g>
   <g id="line2d_18">
    <path d="M 167.464262 133.990451 
L 237.999296 133.990451 
" clip-path="url(#p3bb5e16702)" style="fill: none; stroke-dasharray: 3,1.2; stroke-dashoffset: 0; stroke: #525252; stroke-width: 1.2"/>
   </g>
   <g id="line2d_19">
    <path d="M 166.044753 106.764213 
L 239.418805 106.764213 
" clip-path="url(#p3bb5e16702)" style="fill: none; stroke-dasharray: 1.5,0.9; stroke-dashoffset: 0; stroke: #525252; stroke-width: 1.2"/>
   </g>
   <g id="line2d_20">
    <path d="M 260.831104 156.503066 
L 329.906749 156.503066 
" clip-path="url(#p3bb5e16702)" style="fill: none; stroke-dasharray: 1.5,0.9; stroke-dashoffset: 0; stroke: #525252; stroke-width: 1.2"/>
   </g>
   <g id="line2d_21">
    <path d="M 259.646777 133.990451 
L 331.091076 133.990451 
" clip-path="url(#p3bb5e16702)" style="fill: none; stroke-dasharray: 3,1.2; stroke-dashoffset: 0; stroke: #525252; stroke-width: 1.2"/>
   </g>
   <g id="line2d_22">
    <path d="M 266.359088 109.384114 
L 324.378765 109.384114 
" clip-path="url(#p3bb5e16702)" style="fill: none; stroke-dasharray: 1.5,0.9; stroke-dashoffset: 0; stroke: #525252; stroke-width: 1.2"/>
   </g>
   <g id="line2d_23">
    <path d="M 354.847778 154.930811 
L 421.164369 154.930811 
" clip-path="url(#p3bb5e16702)" style="fill: none; stroke-dasharray: 1.5,0.9; stroke-dashoffset: 0; stroke: #525252; stroke-width: 1.2"/>
   </g>
   <g id="line2d_24">
    <path d="M 350.951784 132.941234 
L 425.060363 132.941234 
" clip-path="url(#p3bb5e16702)" style="fill: none; stroke-dasharray: 3,1.2; stroke-dashoffset: 0; stroke: #525252; stroke-width: 1.2"/>
   </g>
   <g id="line2d_25">
    <path d="M 355.180918 106.239605 
L 420.83123 106.239605 
" clip-path="url(#p3bb5e16702)" style="fill: none; stroke-dasharray: 1.5,0.9; stroke-dashoffset: 0; stroke: #525252; stroke-width: 1.2"/>
   </g>
   <g id="line2d_26">
    <path d="M 444.192524 158.596788 
L 517.093918 158.596788 
" clip-path="url(#p3bb5e16702)" style="fill: none; stroke-dasharray: 1.5,0.9; stroke-dashoffset: 0; stroke: #525252; stroke-width: 1.2"/>
   </g>
   <g id="line2d_27">
    <path d="M 446.992822 135.039668 
L 514.29362 135.039668 
" clip-path="url(#p3bb5e16702)" style="fill: none; stroke-dasharray: 3,1.2; stroke-dashoffset: 0; stroke: #525252; stroke-width: 1.2"/>
   </g>
   <g id="line2d_28">
    <path d="M 448.759254 105.1951 
L 512.527188 105.1951 
" clip-path="url(#p3bb5e16702)" style="fill: none; stroke-dasharray: 1.5,0.9; stroke-dashoffset: 0; stroke: #525252; stroke-width: 1.2"/>
   </g>
   <g id="line2d_29">
    <path d="M 543.146061 162.785802 
L 603.414676 162.785802 
" clip-path="url(#p3bb5e16702)" style="fill: none; stroke-dasharray: 1.5,0.9; stroke-dashoffset: 0; stroke: #525252; stroke-width: 1.2"/>
   </g>
   <g id="line2d_30">
    <path d="M 538.08786 131.895159 
L 608.472877 131.895159 
" clip-path="url(#p3bb5e16702)" style="fill: none; stroke-dasharray: 3,1.2; stroke-dashoffset: 0; stroke: #525252; stroke-width: 1.2"/>
   </g>
   <g id="line2d_31">
    <path d="M 537.845814 107.810289 
L 608.714923 107.810289 
" clip-path="url(#p3bb5e16702)" style="fill: none; stroke-dasharray: 1.5,0.9; stroke-dashoffset: 0; stroke: #525252; stroke-width: 1.2"/>
   </g>
   <g id="LineCollection_1">
    <path d="M 110.094632 275.352018 
L 110.094632 275.352018 
" clip-path="url(#p3bb5e16702)" style="fill: none; stroke: #000000; stroke-width: 1.5"/>
    <path d="M 202.731779 165.076614 
L 202.731779 99.764177 
" clip-path="url(#p3bb5e16702)" style="fill: none; stroke: #000000; stroke-width: 1.5"/>
    <path d="M 295.368926 164.684123 
L 295.368926 98.690277 
" clip-path="url(#p3bb5e16702)" style="fill: none; stroke: #000000; stroke-width: 1.5"/>
    <path d="M 388.006074 169.220918 
L 388.006074 100.014647 
" clip-path="url(#p3bb5e16702)" style="fill: none; stroke: #000000; stroke-width: 1.5"/>
    <path d="M 480.643221 165.903618 
L 480.643221 101.868697 
" clip-path="url(#p3bb5e16702)" style="fill: none; stroke: #000000; stroke-width: 1.5"/>
    <path d="M 573.280368 165.346561 
L 573.280368 104.100104 
" clip-path="url(#p3bb5e16702)" style="fill: none; stroke: #000000; stroke-width: 1.5"/>
   </g>
   <g id="line2d_32">
    <defs>
     <path id="mfafe6ed271" d="M 5 0 
L -5 -0 
" style="stroke: #000000"/>
    </defs>
    <g clip-path="url(#p3bb5e16702)">
     <use xlink:href="#mfafe6ed271" x="110.094632" y="275.352018" style="stroke: #000000"/>
     <use xlink:href="#mfafe6ed271" x="202.731779" y="165.076614" style="stroke: #000000"/>
     <use xlink:href="#mfafe6ed271" x="295.368926" y="164.684123" style="stroke: #000000"/>
     <use xlink:href="#mfafe6ed271" x="388.006074" y="169.220918" style="stroke: #000000"/>
     <use xlink:href="#mfafe6ed271" x="480.643221" y="165.903618" style="stroke: #000000"/>
     <use xlink:href="#mfafe6ed271" x="573.280368" y="165.346561" style="stroke: #000000"/>
    </g>
   </g>
   <g id="line2d_33">
    <g clip-path="url(#p3bb5e16702)">
     <use xlink:href="#mfafe6ed271" x="110.094632" y="275.352018" style="stroke: #000000"/>
     <use xlink:href="#mfafe6ed271" x="202.731779" y="99.764177" style="stroke: #000000"/>
     <use xlink:href="#mfafe6ed271" x="295.368926" y="98.690277" style="stroke: #000000"/>
     <use xlink:href="#mfafe6ed271" x="388.006074" y="100.014647" style="stroke: #000000"/>
     <use xlink:href="#mfafe6ed271" x="480.643221" y="101.868697" style="stroke: #000000"/>
     <use xlink:href="#mfafe6ed271" x="573.280368" y="104.100104" style="stroke: #000000"/>
    </g>
   </g>
   <g id="line2d_34">
    <defs>
     <path id="meb17a26268" d="M 0 3 
C 0.795609 3 1.55874 2.683901 2.12132 2.12132 
C 2.683901 1.55874 3 0.795609 3 0 
C 3 -0.795609 2.683901 -1.55874 2.12132 -2.12132 
C 1.55874 -2.683901 0.795609 -3 0 -3 
C -0.795609 -3 -1.55874 -2.683901 -2.12132 -2.12132 
C -2.683901 -1.55874 -3 -0.795609 -3 0 
C -3 0.795609 -2.683901 1.55874 -2.12132 2.12132 
C -1.55874 2.683901 -0.795609 3 0 3 
z
" style="stroke: #000000"/>
    </defs>
    <g clip-path="url(#p3bb5e16702)">
     <use xlink:href="#meb17a26268" x="110.094632" y="275.352018" style="stroke: #000000"/>
     <use xlink:href="#meb17a26268" x="202.731779" y="132.420395" style="stroke: #000000"/>
     <use xlink:href="#meb17a26268" x="295.368926" y="131.6872" style="stroke: #000000"/>
     <use xlink:href="#meb17a26268" x="388.006074" y="134.617782" style="stroke: #000000"/>
     <use xlink:href="#meb17a26268" x="480.643221" y="133.886158" style="stroke: #000000"/>
     <use xlink:href="#meb17a26268" x="573.280368" y="134.723332" style="stroke: #000000"/>
    </g>
   </g>
   <g id="patch_3">
    <path d="M 46.175 287.949733 
L 46.175 10.8 
" style="fill: none; stroke: #000000; stroke-width: 0.8; stroke-linejoin: miter; stroke-linecap: square"/>
   </g>
   <g id="patch_4">
    <path d="M 637.2 287.949733 
L 637.2 10.8 
" style="fill: none; stroke: #000000; stroke-width: 0.8; stroke-linejoin: miter; stroke-linecap: square"/>
   </g>
   <g id="patch_5">
    <path d="M 46.175 287.949733 
L 637.2 287.949733 
" style="fill: none; stroke: #000000; stroke-width: 0.8; stroke-linejoin: miter; stroke-linecap: square"/>
   </g>
   <g id="patch_6">
    <path d="M 46.175 10.8 
L 637.2 10.8 
" style="fill: none; stroke: #000000; stroke-width: 0.8; stroke-linejoin: miter; stroke-linecap: square"/>
   </g>
   <g id="text_17">
    <!-- 0.00 -->
    <g transform="translate(100.0751 270.338931) scale(0.09 -0.09)">
     <defs>
      <path id="DejaVuSans-2e" d="M 684 794 
L 1344 794 
L 1344 0 
L 684 0 
L 684 794 
z
" transform="scale(0.015625)"/>
     </defs>
     <use xlink:href="#DejaVuSans-30"/>
     <use xlink:href="#DejaVuSans-2e" transform="translate(63.623047 0)"/>
     <use xlink:href="#DejaVuSans-30" transform="translate(95.410156 0)"/>
     <use xlink:href="#DejaVuSans-30" transform="translate(159.033203 0)"/>
    </g>
   </g>
   <g id="text_18">
    <!-- 22.75 -->
    <g transform="translate(189.849123 94.75109) scale(0.09 -0.09)">
     <defs>
      <path id="DejaVuSans-37" d="M 525 4666 
L 3525 4666 
L 3525 4397 
L 1831 0 
L 1172 0 
L 2766 4134 
L 525 4134 
L 525 4666 
z
" transform="scale(0.015625)"/>
     </defs>
     <use xlink:href="#DejaVuSans-32"/>
     <use xlink:href="#DejaVuSans-32" transform="translate(63.623047 0)"/>
     <use xlink:href="#DejaVuSans-2e" transform="translate(127.246094 0)"/>
     <use xlink:href="#DejaVuSans-37" transform="translate(159.033203 0)"/>
     <use xlink:href="#DejaVuSans-35" transform="translate(222.65625 0)"/>
    </g>
   </g>
   <g id="text_19">
    <!-- 22.87 -->
    <g transform="translate(282.48627 93.67719) scale(0.09 -0.09)">
     <defs>
      <path id="DejaVuSans-38" d="M 2034 2216 
Q 1584 2216 1326 1975 
Q 1069 1734 1069 1313 
Q 1069 891 1326 650 
Q 1584 409 2034 409 
Q 2484 409 2743 651 
Q 3003 894 3003 1313 
Q 3003 1734 2745 1975 
Q 2488 2216 2034 2216 
z
M 1403 2484 
Q 997 2584 770 2862 
Q 544 3141 544 3541 
Q 544 4100 942 4425 
Q 1341 4750 2034 4750 
Q 2731 4750 3128 4425 
Q 3525 4100 3525 3541 
Q 3525 3141 3298 2862 
Q 3072 2584 2669 2484 
Q 3125 2378 3379 2068 
Q 3634 1759 3634 1313 
Q 3634 634 3220 271 
Q 2806 -91 2034 -91 
Q 1263 -91 848 271 
Q 434 634 434 1313 
Q 434 1759 690 2068 
Q 947 2378 1403 2484 
z
M 1172 3481 
Q 1172 3119 1398 2916 
Q 1625 2713 2034 2713 
Q 2441 2713 2670 2916 
Q 2900 3119 2900 3481 
Q 2900 3844 2670 4047 
Q 2441 4250 2034 4250 
Q 1625 4250 1398 4047 
Q 1172 3844 1172 3481 
z
" transform="scale(0.015625)"/>
     </defs>
     <use xlink:href="#DejaVuSans-32"/>
     <use xlink:href="#DejaVuSans-32" transform="translate(63.623047 0)"/>
     <use xlink:href="#DejaVuSans-2e" transform="translate(127.246094 0)"/>
     <use xlink:href="#DejaVuSans-38" transform="translate(159.033203 0)"/>
     <use xlink:href="#DejaVuSans-37" transform="translate(222.65625 0)"/>
    </g>
   </g>
   <g id="text_20">
    <!-- 22.40 -->
    <g transform="translate(375.123417 95.00156) scale(0.09 -0.09)">
     <use xlink:href="#DejaVuSans-32"/>
     <use xlink:href="#DejaVuSans-32" transform="translate(63.623047 0)"/>
     <use xlink:href="#DejaVuSans-2e" transform="translate(127.246094 0)"/>
     <use xlink:href="#DejaVuSans-34" transform="translate(159.033203 0)"/>
     <use xlink:href="#DejaVuSans-30" transform="translate(222.65625 0)"/>
    </g>
   </g>
   <g id="text_21">
    <!-- 22.52 -->
    <g transform="translate(467.760565 96.85561) scale(0.09 -0.09)">
     <use xlink:href="#DejaVuSans-32"/>
     <use xlink:href="#DejaVuSans-32" transform="translate(63.623047 0)"/>
     <use xlink:href="#DejaVuSans-2e" transform="translate(127.246094 0)"/>
     <use xlink:href="#DejaVuSans-35" transform="translate(159.033203 0)"/>
     <use xlink:href="#DejaVuSans-32" transform="translate(222.65625 0)"/>
    </g>
   </g>
   <g id="text_22">
    <!-- 22.38 -->
    <g transform="translate(560.397712 99.087017) scale(0.09 -0.09)">
     <use xlink:href="#DejaVuSans-32"/>
     <use xlink:href="#DejaVuSans-32" transform="translate(63.623047 0)"/>
     <use xlink:href="#DejaVuSans-2e" transform="translate(127.246094 0)"/>
     <use xlink:href="#DejaVuSans-33" transform="translate(159.033203 0)"/>
     <use xlink:href="#DejaVuSans-38" transform="translate(222.65625 0)"/>
    </g>
   </g>
   <g id="legend_1">
    <g id="patch_7">
     <path d="M 626.2 23.8 
L 630.2 23.8 
Q 632.2 23.8 632.2 21.8 
L 632.2 17.8 
Q 632.2 15.8 630.2 15.8 
L 626.2 15.8 
Q 624.2 15.8 624.2 17.8 
L 624.2 21.8 
Q 624.2 23.8 626.2 23.8 
z
" style="fill: #ffffff; opacity: 0.8; stroke: #cccccc; stroke-linejoin: miter"/>
    </g>
   </g>
  </g>
 </g>
 <defs>
  <clipPath id="p3bb5e16702">
   <rect x="46.175" y="10.8" width="591.025" height="277.149733"/>
  </clipPath>
 </defs>
</svg>
