<?xml version="1.0" encoding="utf-8" standalone="no"?>
<!DOCTYPE svg PUBLIC "-//W3C//DTD SVG 1.1//EN"
  "http://www.w3.org/Graphics/SVG/1.1/DTD/svg11.dtd">
<svg xmlns:xlink="http://www.w3.org/1999/xlink" width="648pt" height="360pt" viewBox="0 0 648 360" xmlns="http://www.w3.org/2000/svg" version="1.1">
 <metadata>
  <rdf:RDF xmlns:dc="http://purl.org/dc/elements/1.1/" xmlns:cc="http://creativecommons.org/ns#" xmlns:rdf="http://www.w3.org/1999/02/22-rdf-syntax-ns#">
   <cc:Work>
    <dc:type rdf:resource="http://purl.org/dc/dcmitype/StillImage"/>
    <dc:date>2025-04-29T13:18:08.194038</dc:date>
    <dc:format>image/svg+xml</dc:format>
    <dc:creator>
     <cc:Agent>
      <dc:title>Matplotlib v3.10.0, https://matplotlib.org/</dc:title>
     </cc:Agent>
    </dc:creator>
   </cc:Work>
  </rdf:RDF>
 </metadata>
 <defs>
  <style type="text/css">*{stroke-linejoin: round; stroke-linecap: butt}</style>
 </defs>
 <g id="figure_1">
  <g id="patch_1">
   <path d="M 0 360 
L 648 360 
L 648 0 
L 0 0 
z
" style="fill: #ffffff"/>
  </g>
  <g id="axes_1">
   <g id="patch_2">
    <path d="M 52.55 284.741751 
L 637.2 284.741751 
L 637.2 10.8 
L 52.55 10.8 
z
" style="fill: #ffffff"/>
   </g>
   <g id="FillBetweenPolyCollection_1">
    <defs>
     <path id="m39ee23450a" d="M 125.472178 -90.126101 
L 121.361155 -90.126101 
L 120.754699 -92.480686 
L 120.011225 -94.835271 
L 119.112749 -97.189856 
L 118.042527 -99.544441 
L 116.786176 -101.899026 
L 115.332888 -104.253611 
L 113.676672 -106.608195 
L 111.817529 -108.96278 
L 109.762466 -111.317365 
L 107.526237 -113.67195 
L 105.131736 -116.026535 
L 102.609941 -118.38112 
L 99.999385 -120.735705 
L 97.345128 -123.09029 
L 94.697279 -125.444875 
L 92.109122 -127.79946 
L 89.634965 -130.154044 
L 87.327862 -132.508629 
L 85.237341 -134.863214 
L 83.407321 -137.217799 
L 81.874335 -139.572384 
L 80.666204 -141.926969 
L 79.801212 -144.281554 
L 79.287835 -146.636139 
L 79.125 -148.990724 
L 79.30282 -151.345308 
L 79.803707 -153.699893 
L 80.603758 -156.054478 
L 81.674267 -158.409063 
L 82.983267 -160.763648 
L 84.496964 -163.118233 
L 86.180998 -165.472818 
L 88.001466 -167.827403 
L 89.925685 -170.181988 
L 91.922707 -172.536573 
L 93.963604 -174.891157 
L 96.021579 -177.245742 
L 98.071963 -179.600327 
L 100.092147 -181.954912 
L 102.061511 -184.309497 
L 103.96139 -186.664082 
L 105.775094 -189.018667 
L 107.48801 -191.373252 
L 109.087764 -193.727837 
L 110.564431 -196.082421 
L 111.91077 -198.437006 
L 113.122425 -200.791591 
L 114.198085 -203.146176 
L 115.139541 -205.500761 
L 115.951632 -207.855346 
L 116.642037 -210.209931 
L 117.220944 -212.564516 
L 117.70056 -214.919101 
L 118.094524 -217.273686 
L 118.417223 -219.62827 
L 118.683078 -221.982855 
L 118.905828 -224.33744 
L 119.097884 -226.692025 
L 119.269774 -229.04661 
L 119.429735 -231.401195 
L 119.583484 -233.75578 
L 119.73416 -236.110365 
L 119.882465 -238.46495 
L 120.02697 -240.819534 
L 120.164567 -243.174119 
L 120.291019 -245.528704 
L 120.401582 -247.883289 
L 120.491624 -250.237874 
L 120.557213 -252.592459 
L 120.595618 -254.947044 
L 120.605691 -257.301629 
L 120.588107 -259.656214 
L 120.545438 -262.010799 
L 120.482066 -264.365383 
L 120.403946 -266.719968 
L 120.318239 -269.074553 
L 120.232847 -271.429138 
L 120.155888 -273.783723 
L 120.095159 -276.138308 
L 120.057622 -278.492893 
L 120.048965 -280.847478 
L 120.073255 -283.202063 
L 120.132723 -285.556647 
L 120.227682 -287.911232 
L 120.356592 -290.265817 
L 120.516234 -292.620402 
L 120.702008 -294.974987 
L 120.90829 -297.329572 
L 121.128842 -299.684157 
L 121.357213 -302.038742 
L 121.587135 -304.393327 
L 121.81284 -306.747912 
L 122.02933 -309.102496 
L 122.232542 -311.457081 
L 122.419445 -313.811666 
L 122.588045 -316.166251 
L 122.737332 -318.520836 
L 122.867165 -320.875421 
L 122.978126 -323.230006 
L 123.855207 -323.230006 
L 123.855207 -323.230006 
L 123.966169 -320.875421 
L 124.096001 -318.520836 
L 124.245288 -316.166251 
L 124.413889 -313.811666 
L 124.600791 -311.457081 
L 124.804004 -309.102496 
L 125.020493 -306.747912 
L 125.246199 -304.393327 
L 125.47612 -302.038742 
L 125.704492 -299.684157 
L 125.925043 -297.329572 
L 126.131325 -294.974987 
L 126.317099 -292.620402 
L 126.476742 -290.265817 
L 126.605651 -287.911232 
L 126.700611 -285.556647 
L 126.760078 -283.202063 
L 126.784368 -280.847478 
L 126.775711 -278.492893 
L 126.738175 -276.138308 
L 126.677445 -273.783723 
L 126.600486 -271.429138 
L 126.515094 -269.074553 
L 126.429387 -266.719968 
L 126.351267 -264.365383 
L 126.287895 -262.010799 
L 126.245226 -259.656214 
L 126.227642 -257.301629 
L 126.237716 -254.947044 
L 126.27612 -252.592459 
L 126.341709 -250.237874 
L 126.431751 -247.883289 
L 126.542314 -245.528704 
L 126.668767 -243.174119 
L 126.806363 -240.819534 
L 126.950868 -238.46495 
L 127.099174 -236.110365 
L 127.24985 -233.75578 
L 127.403598 -231.401195 
L 127.56356 -229.04661 
L 127.735449 -226.692025 
L 127.927505 -224.33744 
L 128.150256 -221.982855 
L 128.41611 -219.62827 
L 128.738809 -217.273686 
L 129.132773 -214.919101 
L 129.61239 -212.564516 
L 130.191296 -210.209931 
L 130.881702 -207.855346 
L 131.693792 -205.500761 
L 132.635249 -203.146176 
L 133.710909 -200.791591 
L 134.922564 -198.437006 
L 136.268902 -196.082421 
L 137.74557 -193.727837 
L 139.345323 -191.373252 
L 141.058239 -189.018667 
L 142.871943 -186.664082 
L 144.771822 -184.309497 
L 146.741187 -181.954912 
L 148.76137 -179.600327 
L 150.811754 -177.245742 
L 152.869729 -174.891157 
L 154.910626 -172.536573 
L 156.907648 -170.181988 
L 158.831868 -167.827403 
L 160.652335 -165.472818 
L 162.336369 -163.118233 
L 163.850066 -160.763648 
L 165.159066 -158.409063 
L 166.229576 -156.054478 
L 167.029626 -153.699893 
L 167.530514 -151.345308 
L 167.708333 -148.990724 
L 167.545498 -146.636139 
L 167.032121 -144.281554 
L 166.167129 -141.926969 
L 164.958998 -139.572384 
L 163.426013 -137.217799 
L 161.595992 -134.863214 
L 159.505472 -132.508629 
L 157.198368 -130.154044 
L 154.724211 -127.79946 
L 152.136054 -125.444875 
L 149.488205 -123.09029 
L 146.833949 -120.735705 
L 144.223392 -118.38112 
L 141.701597 -116.026535 
L 139.307096 -113.67195 
L 137.070868 -111.317365 
L 135.015804 -108.96278 
L 133.156661 -106.608195 
L 131.500445 -104.253611 
L 130.047158 -101.899026 
L 128.790807 -99.544441 
L 127.720585 -97.189856 
L 126.822108 -94.835271 
L 126.078634 -92.480686 
L 125.472178 -90.126101 
z
" style="stroke: #525252; stroke-width: 1.2"/>
    </defs>
    <g clip-path="url(#p06fb2e651b)">
     <use xlink:href="#m39ee23450a" x="0" y="360" style="fill: #888888; stroke: #525252; stroke-width: 1.2"/>
    </g>
   </g>
   <g id="FillBetweenPolyCollection_2">
    <defs>
     <path id="m89b95d7d7b" d="M 236.291009 -87.999252 
L 232.000658 -87.999252 
L 231.355976 -90.508946 
L 230.563115 -93.018641 
L 229.602427 -95.528335 
L 228.455766 -98.038029 
L 227.107799 -100.547724 
L 225.547439 -103.057418 
L 223.769301 -105.567113 
L 221.775076 -108.076807 
L 219.574697 -110.586501 
L 217.187166 -113.096196 
L 214.640937 -115.60589 
L 211.97374 -118.115585 
L 209.231816 -120.625279 
L 206.468543 -123.134973 
L 203.742501 -125.644668 
L 201.115084 -128.154362 
L 198.647806 -130.664057 
L 196.399485 -133.173751 
L 194.423518 -135.683445 
L 192.765436 -138.19314 
L 191.46093 -140.702834 
L 190.534478 -143.212529 
L 189.998658 -145.722223 
L 189.854167 -148.231917 
L 190.090496 -150.741612 
L 190.687176 -153.251306 
L 191.615432 -155.761 
L 192.84011 -158.270695 
L 194.321679 -160.780389 
L 196.018174 -163.290084 
L 197.886934 -165.799778 
L 199.886065 -168.309472 
L 201.975565 -170.819167 
L 204.118111 -173.328861 
L 206.279547 -175.838556 
L 208.429112 -178.34825 
L 210.539492 -180.857944 
L 212.586763 -183.367639 
L 214.550287 -185.877333 
L 216.412625 -188.387028 
L 218.159474 -190.896722 
L 219.779665 -193.406416 
L 221.265197 -195.916111 
L 222.611285 -198.425805 
L 223.816395 -200.9355 
L 224.882222 -203.445194 
L 225.813583 -205.954888 
L 226.618195 -208.464583 
L 227.306318 -210.974277 
L 227.890286 -213.483972 
L 228.383907 -215.993666 
L 228.801799 -218.50336 
L 229.158668 -221.013055 
L 229.468602 -223.522749 
L 229.744414 -226.032444 
L 229.997084 -228.542138 
L 230.23534 -231.051832 
L 230.465403 -233.561527 
L 230.690899 -236.071221 
L 230.912958 -238.580916 
L 231.130456 -241.09061 
L 231.340402 -243.600304 
L 231.538414 -246.109999 
L 231.719257 -248.619693 
L 231.877403 -251.129388 
L 232.007573 -253.639082 
L 232.10523 -256.148776 
L 232.167008 -258.658471 
L 232.191032 -261.168165 
L 232.177149 -263.67786 
L 232.127035 -266.187554 
L 232.044191 -268.697248 
L 231.933822 -271.206943 
L 231.802614 -273.716637 
L 231.658416 -276.226332 
L 231.509838 -278.736026 
L 231.365809 -281.24572 
L 231.235086 -283.755415 
L 231.125789 -286.265109 
L 231.044946 -288.774804 
L 230.998124 -291.284498 
L 230.989139 -293.794192 
L 231.019889 -296.303887 
L 231.090303 -298.813581 
L 231.198427 -301.323276 
L 231.340625 -303.83297 
L 231.511878 -306.342664 
L 231.706156 -308.852359 
L 231.916829 -311.362053 
L 232.137084 -313.871748 
L 232.360316 -316.381442 
L 232.580464 -318.891136 
L 232.792272 -321.400831 
L 232.991469 -323.910525 
L 233.174856 -326.42022 
L 233.340318 -328.929914 
L 233.486757 -331.439608 
L 233.613977 -333.949303 
L 233.722533 -336.458997 
L 234.569134 -336.458997 
L 234.569134 -336.458997 
L 234.67769 -333.949303 
L 234.80491 -331.439608 
L 234.951349 -328.929914 
L 235.11681 -326.42022 
L 235.300198 -323.910525 
L 235.499395 -321.400831 
L 235.711202 -318.891136 
L 235.93135 -316.381442 
L 236.154582 -313.871748 
L 236.374838 -311.362053 
L 236.585511 -308.852359 
L 236.779789 -306.342664 
L 236.951042 -303.83297 
L 237.09324 -301.323276 
L 237.201364 -298.813581 
L 237.271778 -296.303887 
L 237.302527 -293.794192 
L 237.293543 -291.284498 
L 237.246721 -288.774804 
L 237.165878 -286.265109 
L 237.05658 -283.755415 
L 236.925858 -281.24572 
L 236.781828 -278.736026 
L 236.633251 -276.226332 
L 236.489052 -273.716637 
L 236.357845 -271.206943 
L 236.247476 -268.697248 
L 236.164631 -266.187554 
L 236.114518 -263.67786 
L 236.100635 -261.168165 
L 236.124659 -258.658471 
L 236.186436 -256.148776 
L 236.284094 -253.639082 
L 236.414264 -251.129388 
L 236.57241 -248.619693 
L 236.753253 -246.109999 
L 236.951265 -243.600304 
L 237.161211 -241.09061 
L 237.378709 -238.580916 
L 237.600767 -236.071221 
L 237.826264 -233.561527 
L 238.056326 -231.051832 
L 238.294583 -228.542138 
L 238.547253 -226.032444 
L 238.823065 -223.522749 
L 239.132998 -221.013055 
L 239.489867 -218.50336 
L 239.907759 -215.993666 
L 240.401381 -213.483972 
L 240.985349 -210.974277 
L 241.673472 -208.464583 
L 242.478083 -205.954888 
L 243.409445 -203.445194 
L 244.475272 -200.9355 
L 245.680382 -198.425805 
L 247.02647 -195.916111 
L 248.512001 -193.406416 
L 250.132193 -190.896722 
L 251.879042 -188.387028 
L 253.741379 -185.877333 
L 255.704904 -183.367639 
L 257.752175 -180.857944 
L 259.862555 -178.34825 
L 262.01212 -175.838556 
L 264.173556 -173.328861 
L 266.316102 -170.819167 
L 268.405601 -168.309472 
L 270.404733 -165.799778 
L 272.273493 -163.290084 
L 273.969987 -160.780389 
L 275.451557 -158.270695 
L 276.676235 -155.761 
L 277.604491 -153.251306 
L 278.20117 -150.741612 
L 278.4375 -148.231917 
L 278.293009 -145.722223 
L 277.757189 -143.212529 
L 276.830737 -140.702834 
L 275.52623 -138.19314 
L 273.868149 -135.683445 
L 271.892182 -133.173751 
L 269.643861 -130.664057 
L 267.176583 -128.154362 
L 264.549166 -125.644668 
L 261.823124 -123.134973 
L 259.059851 -120.625279 
L 256.317927 -118.115585 
L 253.65073 -115.60589 
L 251.1045 -113.096196 
L 248.71697 -110.586501 
L 246.516591 -108.076807 
L 244.522365 -105.567113 
L 242.744227 -103.057418 
L 241.183868 -100.547724 
L 239.835901 -98.038029 
L 238.68924 -95.528335 
L 237.728552 -93.018641 
L 236.935691 -90.508946 
L 236.291009 -87.999252 
z
" style="stroke: #525252; stroke-width: 1.2"/>
    </defs>
    <g clip-path="url(#p06fb2e651b)">
     <use xlink:href="#m89b95d7d7b" x="0" y="360" style="fill: #aaaaaa; stroke: #525252; stroke-width: 1.2"/>
    </g>
   </g>
   <g id="FillBetweenPolyCollection_3">
    <defs>
     <path id="m6bb238bc99" d="M 347.080982 -87.710147 
L 342.669018 -87.710147 
L 342.012053 -90.225682 
L 341.205915 -92.741216 
L 340.231321 -95.256751 
L 339.070625 -97.772286 
L 337.709121 -100.287821 
L 336.136463 -102.803356 
L 334.348079 -105.318891 
L 332.346505 -107.834426 
L 330.142479 -110.349961 
L 327.755704 -112.865496 
L 325.21514 -115.381031 
L 322.558762 -117.896566 
L 319.832722 -120.4121 
L 317.089923 -122.927635 
L 314.388058 -125.44317 
L 311.787224 -127.958705 
L 309.347258 -130.47424 
L 307.124984 -132.989775 
L 305.171577 -135.50531 
L 303.530224 -138.020845 
L 302.234275 -140.53638 
L 301.305992 -143.051915 
L 300.755984 -145.567449 
L 300.583333 -148.082984 
L 300.776368 -150.598519 
L 301.313978 -153.114054 
L 302.167335 -155.629589 
L 303.301846 -158.145124 
L 304.679181 -160.660659 
L 306.259213 -163.176194 
L 308.001734 -165.691729 
L 309.867867 -168.207264 
L 311.821119 -170.722799 
L 313.82806 -173.238333 
L 315.858668 -175.753868 
L 317.886388 -178.269403 
L 319.887985 -180.784938 
L 321.84328 -183.300473 
L 323.734834 -185.816008 
L 325.547667 -188.331543 
L 327.269039 -190.847078 
L 328.888347 -193.362613 
L 330.39711 -195.878148 
L 331.789054 -198.393682 
L 333.060243 -200.909217 
L 334.209219 -203.424752 
L 335.237104 -205.940287 
L 336.147614 -208.455822 
L 336.946957 -210.971357 
L 337.643586 -213.486892 
L 338.247812 -216.002427 
L 338.77129 -218.517962 
L 339.226403 -221.033497 
L 339.6256 -223.549032 
L 339.980731 -226.064566 
L 340.302432 -228.580101 
L 340.599618 -231.095636 
L 340.87911 -233.611171 
L 341.145433 -236.126706 
L 341.400782 -238.642241 
L 341.645167 -241.157776 
L 341.876706 -243.673311 
L 342.092035 -246.188846 
L 342.286804 -248.704381 
L 342.456223 -251.219915 
L 342.595597 -253.73545 
L 342.700842 -256.250985 
L 342.768928 -258.76652 
L 342.798239 -261.282055 
L 342.788819 -263.79759 
L 342.742511 -266.313125 
L 342.662965 -268.82866 
L 342.555531 -271.344195 
L 342.427041 -273.85973 
L 342.285481 -276.375265 
L 342.139595 -278.890799 
L 341.998426 -281.406334 
L 341.870825 -283.921869 
L 341.764973 -286.437404 
L 341.68793 -288.952939 
L 341.645261 -291.468474 
L 341.640754 -293.984009 
L 341.67625 -296.499544 
L 341.751608 -299.015079 
L 341.864795 -301.530614 
L 342.012092 -304.046148 
L 342.188402 -306.561683 
L 342.387624 -309.077218 
L 342.60307 -311.592753 
L 342.827882 -314.108288 
L 343.05542 -316.623823 
L 343.279598 -319.139358 
L 343.495148 -321.654893 
L 343.697792 -324.170428 
L 343.88433 -326.685963 
L 344.052649 -329.201498 
L 344.201657 -331.717032 
L 344.331167 -334.232567 
L 344.441745 -336.748102 
L 345.308255 -336.748102 
L 345.308255 -336.748102 
L 345.418833 -334.232567 
L 345.548343 -331.717032 
L 345.697351 -329.201498 
L 345.86567 -326.685963 
L 346.052208 -324.170428 
L 346.254852 -321.654893 
L 346.470402 -319.139358 
L 346.69458 -316.623823 
L 346.922118 -314.108288 
L 347.14693 -311.592753 
L 347.362376 -309.077218 
L 347.561598 -306.561683 
L 347.737908 -304.046148 
L 347.885205 -301.530614 
L 347.998392 -299.015079 
L 348.07375 -296.499544 
L 348.109246 -293.984009 
L 348.104739 -291.468474 
L 348.06207 -288.952939 
L 347.985027 -286.437404 
L 347.879175 -283.921869 
L 347.751574 -281.406334 
L 347.610405 -278.890799 
L 347.464519 -276.375265 
L 347.322959 -273.85973 
L 347.194469 -271.344195 
L 347.087035 -268.82866 
L 347.007489 -266.313125 
L 346.961181 -263.79759 
L 346.951761 -261.282055 
L 346.981072 -258.76652 
L 347.049158 -256.250985 
L 347.154403 -253.73545 
L 347.293777 -251.219915 
L 347.463196 -248.704381 
L 347.657965 -246.188846 
L 347.873294 -243.673311 
L 348.104833 -241.157776 
L 348.349218 -238.642241 
L 348.604567 -236.126706 
L 348.87089 -233.611171 
L 349.150382 -231.095636 
L 349.447568 -228.580101 
L 349.769269 -226.064566 
L 350.1244 -223.549032 
L 350.523597 -221.033497 
L 350.97871 -218.517962 
L 351.502188 -216.002427 
L 352.106414 -213.486892 
L 352.803043 -210.971357 
L 353.602386 -208.455822 
L 354.512896 -205.940287 
L 355.540781 -203.424752 
L 356.689757 -200.909217 
L 357.960946 -198.393682 
L 359.35289 -195.878148 
L 360.861653 -193.362613 
L 362.480961 -190.847078 
L 364.202333 -188.331543 
L 366.015166 -185.816008 
L 367.90672 -183.300473 
L 369.862015 -180.784938 
L 371.863612 -178.269403 
L 373.891332 -175.753868 
L 375.92194 -173.238333 
L 377.928881 -170.722799 
L 379.882133 -168.207264 
L 381.748266 -165.691729 
L 383.490787 -163.176194 
L 385.070819 -160.660659 
L 386.448154 -158.145124 
L 387.582665 -155.629589 
L 388.436022 -153.114054 
L 388.973632 -150.598519 
L 389.166667 -148.082984 
L 388.994016 -145.567449 
L 388.444008 -143.051915 
L 387.515725 -140.53638 
L 386.219776 -138.020845 
L 384.578423 -135.50531 
L 382.625016 -132.989775 
L 380.402742 -130.47424 
L 377.962776 -127.958705 
L 375.361942 -125.44317 
L 372.660077 -122.927635 
L 369.917278 -120.4121 
L 367.191238 -117.896566 
L 364.53486 -115.381031 
L 361.994296 -112.865496 
L 359.607521 -110.349961 
L 357.403495 -107.834426 
L 355.401921 -105.318891 
L 353.613537 -102.803356 
L 352.040879 -100.287821 
L 350.679375 -97.772286 
L 349.518679 -95.256751 
L 348.544085 -92.741216 
L 347.737947 -90.225682 
L 347.080982 -87.710147 
z
" style="stroke: #525252; stroke-width: 1.2"/>
    </defs>
    <g clip-path="url(#p06fb2e651b)">
     <use xlink:href="#m6bb238bc99" x="0" y="360" style="fill: #cccccc; stroke: #525252; stroke-width: 1.2"/>
    </g>
   </g>
   <g id="FillBetweenPolyCollection_4">
    <defs>
     <path id="m208e261f44" d="M 457.729991 -89.097425 
L 453.478342 -89.097425 
L 452.849496 -91.512842 
L 452.078273 -93.92826 
L 451.146021 -96.343677 
L 450.03544 -98.759094 
L 448.731784 -101.174511 
L 447.224156 -103.589929 
L 445.506835 -106.005346 
L 443.580539 -108.420763 
L 441.453502 -110.83618 
L 439.142268 -113.251598 
L 436.672102 -115.667015 
L 434.076912 -118.082432 
L 431.398663 -120.497849 
L 428.686243 -122.913267 
L 425.993829 -125.328684 
L 423.378826 -127.744101 
L 420.899501 -130.159518 
L 418.612456 -132.574936 
L 416.570121 -134.990353 
L 414.818425 -137.40577 
L 413.394823 -139.821187 
L 412.326792 -142.236605 
L 411.630903 -144.652022 
L 411.3125 -147.067439 
L 411.365991 -149.482856 
L 411.775694 -151.898274 
L 412.517144 -154.313691 
L 413.558748 -156.729108 
L 414.863636 -159.144525 
L 416.391592 -161.559942 
L 418.100906 -163.97536 
L 419.950068 -166.390777 
L 421.899182 -168.806194 
L 423.911088 -171.221611 
L 425.952129 -173.637029 
L 427.992601 -176.052446 
L 430.006899 -178.467863 
L 431.973427 -180.88328 
L 433.874317 -183.298698 
L 435.695053 -185.714115 
L 437.424046 -188.129532 
L 439.05223 -190.544949 
L 440.572729 -192.960367 
L 441.980614 -195.375784 
L 443.27276 -197.791201 
L 444.447803 -200.206618 
L 445.506162 -202.622036 
L 446.450086 -205.037453 
L 447.283696 -207.45287 
L 448.012966 -209.868287 
L 448.645625 -212.283705 
L 449.190935 -214.699122 
L 449.659364 -217.114539 
L 450.062144 -219.529956 
L 450.410752 -221.945374 
L 450.716341 -224.360791 
L 450.989186 -226.776208 
L 451.23817 -229.191625 
L 451.470381 -231.607043 
L 451.690829 -234.02246 
L 451.902335 -236.437877 
L 452.105581 -238.853294 
L 452.299326 -241.268712 
L 452.480763 -243.684129 
L 452.645985 -246.099546 
L 452.790528 -248.514963 
L 452.909932 -250.930381 
L 453.00029 -253.345798 
L 453.058736 -255.761215 
L 453.083839 -258.176632 
L 453.07587 -260.59205 
L 453.036936 -263.007467 
L 452.970967 -265.422884 
L 452.883552 -267.838301 
L 452.781661 -270.253719 
L 452.673243 -272.669136 
L 452.566763 -275.084553 
L 452.470688 -277.49997 
L 452.392976 -279.915388 
L 452.340598 -282.330805 
L 452.319134 -284.746222 
L 452.332466 -287.161639 
L 452.382599 -289.577057 
L 452.469605 -291.992474 
L 452.591706 -294.407891 
L 452.745474 -296.823308 
L 452.926125 -299.238726 
L 453.127891 -301.654143 
L 453.344417 -304.06956 
L 453.569174 -306.484977 
L 453.795831 -308.900395 
L 454.018587 -311.315812 
L 454.232414 -313.731229 
L 454.433237 -316.146646 
L 454.61801 -318.562064 
L 454.784731 -320.977481 
L 454.932376 -323.392898 
L 455.060791 -325.808315 
L 455.170545 -328.223733 
L 456.037788 -328.223733 
L 456.037788 -328.223733 
L 456.147542 -325.808315 
L 456.275957 -323.392898 
L 456.423603 -320.977481 
L 456.590323 -318.562064 
L 456.775097 -316.146646 
L 456.975919 -313.731229 
L 457.189747 -311.315812 
L 457.412502 -308.900395 
L 457.63916 -306.484977 
L 457.863916 -304.06956 
L 458.080443 -301.654143 
L 458.282208 -299.238726 
L 458.46286 -296.823308 
L 458.616627 -294.407891 
L 458.738729 -291.992474 
L 458.825734 -289.577057 
L 458.875867 -287.161639 
L 458.889199 -284.746222 
L 458.867735 -282.330805 
L 458.815357 -279.915388 
L 458.737645 -277.49997 
L 458.64157 -275.084553 
L 458.53509 -272.669136 
L 458.426672 -270.253719 
L 458.324781 -267.838301 
L 458.237367 -265.422884 
L 458.171397 -263.007467 
L 458.132464 -260.59205 
L 458.124494 -258.176632 
L 458.149597 -255.761215 
L 458.208044 -253.345798 
L 458.298402 -250.930381 
L 458.417805 -248.514963 
L 458.562348 -246.099546 
L 458.727571 -243.684129 
L 458.909007 -241.268712 
L 459.102752 -238.853294 
L 459.305999 -236.437877 
L 459.517504 -234.02246 
L 459.737952 -231.607043 
L 459.970163 -229.191625 
L 460.219148 -226.776208 
L 460.491992 -224.360791 
L 460.797582 -221.945374 
L 461.146189 -219.529956 
L 461.54897 -217.114539 
L 462.017399 -214.699122 
L 462.562709 -212.283705 
L 463.195367 -209.868287 
L 463.924638 -207.45287 
L 464.758247 -205.037453 
L 465.702171 -202.622036 
L 466.76053 -200.206618 
L 467.935574 -197.791201 
L 469.22772 -195.375784 
L 470.635604 -192.960367 
L 472.156103 -190.544949 
L 473.784287 -188.129532 
L 475.51328 -185.714115 
L 477.334016 -183.298698 
L 479.234906 -180.88328 
L 481.201434 -178.467863 
L 483.215733 -176.052446 
L 485.256204 -173.637029 
L 487.297245 -171.221611 
L 489.309151 -168.806194 
L 491.258266 -166.390777 
L 493.107427 -163.97536 
L 494.816742 -161.559942 
L 496.344697 -159.144525 
L 497.649586 -156.729108 
L 498.691189 -154.313691 
L 499.43264 -151.898274 
L 499.842342 -149.482856 
L 499.895833 -147.067439 
L 499.57743 -144.652022 
L 498.881541 -142.236605 
L 497.813511 -139.821187 
L 496.389909 -137.40577 
L 494.638213 -134.990353 
L 492.595877 -132.574936 
L 490.308832 -130.159518 
L 487.829507 -127.744101 
L 485.214505 -125.328684 
L 482.52209 -122.913267 
L 479.80967 -120.497849 
L 477.131421 -118.082432 
L 474.536231 -115.667015 
L 472.066065 -113.251598 
L 469.754832 -110.83618 
L 467.627794 -108.420763 
L 465.701498 -106.005346 
L 463.984178 -103.589929 
L 462.476549 -101.174511 
L 461.172893 -98.759094 
L 460.062313 -96.343677 
L 459.13006 -93.92826 
L 458.358837 -91.512842 
L 457.729991 -89.097425 
z
" style="stroke: #525252; stroke-width: 1.2"/>
    </defs>
    <g clip-path="url(#p06fb2e651b)">
     <use xlink:href="#m208e261f44" x="0" y="360" style="fill: #dddddd; stroke: #525252; stroke-width: 1.2"/>
    </g>
   </g>
   <g id="FillBetweenPolyCollection_5">
    <defs>
     <path id="mf6e7ceec97" d="M 568.43156 -88.666139 
L 564.235107 -88.666139 
L 563.608218 -91.12231 
L 562.837874 -93.578481 
L 561.905025 -96.034651 
L 560.79198 -98.490822 
L 559.483648 -100.946993 
L 557.968879 -103.403164 
L 556.241845 -105.859335 
L 554.303344 -108.315506 
L 552.161917 -110.771677 
L 549.83466 -113.227848 
L 547.34763 -115.684019 
L 544.735736 -118.14019 
L 542.042088 -120.596361 
L 539.31677 -123.052532 
L 536.6151 -125.508702 
L 533.995436 -127.964873 
L 531.516691 -130.421044 
L 529.235699 -132.877215 
L 527.204642 -135.333386 
L 525.468699 -137.789557 
L 524.064107 -140.245728 
L 523.016761 -142.701899 
L 522.341436 -145.15807 
L 522.041667 -147.614241 
L 522.110258 -150.070412 
L 522.530345 -152.526583 
L 523.276887 -154.982753 
L 524.318441 -157.438924 
L 525.619069 -159.895095 
L 527.140206 -162.351266 
L 528.842388 -164.807437 
L 530.686707 -167.263608 
L 532.635955 -169.719779 
L 534.655427 -172.17595 
L 536.71339 -174.632121 
L 538.781276 -177.088292 
L 540.833652 -179.544463 
L 542.848054 -182.000634 
L 544.804749 -184.456804 
L 546.686504 -186.912975 
L 548.478411 -189.369146 
L 550.167793 -191.825317 
L 551.744212 -194.281488 
L 553.199555 -196.737659 
L 554.528188 -199.19383 
L 555.727121 -201.650001 
L 556.796138 -204.106172 
L 557.737866 -206.562343 
L 558.55772 -209.018514 
L 559.263714 -211.474685 
L 559.86612 -213.930855 
L 560.37699 -216.387026 
L 560.809554 -218.843197 
L 561.177538 -221.299368 
L 561.494457 -223.755539 
L 561.77292 -226.21171 
L 562.024019 -228.667881 
L 562.256829 -231.124052 
L 562.478072 -233.580223 
L 562.691958 -236.036394 
L 562.900207 -238.492565 
L 563.102254 -240.948736 
L 563.295603 -243.404906 
L 563.4763 -245.861077 
L 563.639493 -248.317248 
L 563.78002 -250.773419 
L 563.892997 -253.22959 
L 563.974353 -255.685761 
L 564.021285 -258.141932 
L 564.032604 -260.598103 
L 564.008955 -263.054274 
L 563.952894 -265.510445 
L 563.86883 -267.966616 
L 563.762829 -270.422787 
L 563.642305 -272.878957 
L 563.515606 -275.335128 
L 563.391545 -277.791299 
L 563.278877 -280.24747 
L 563.185799 -282.703641 
L 563.119465 -285.159812 
L 563.085589 -287.615983 
L 563.088137 -290.072154 
L 563.12915 -292.528325 
L 563.208687 -294.984496 
L 563.32491 -297.440667 
L 563.474286 -299.896838 
L 563.65189 -302.353008 
L 563.851779 -304.809179 
L 564.067409 -307.26535 
L 564.292044 -309.721521 
L 564.519155 -312.177692 
L 564.74275 -314.633863 
L 564.957634 -317.090034 
L 565.15959 -319.546205 
L 565.345462 -322.002376 
L 565.51317 -324.458547 
L 565.66164 -326.914718 
L 565.790696 -329.370889 
L 565.900904 -331.827059 
L 566.765763 -331.827059 
L 566.765763 -331.827059 
L 566.875971 -329.370889 
L 567.005026 -326.914718 
L 567.153497 -324.458547 
L 567.321204 -322.002376 
L 567.507077 -319.546205 
L 567.709033 -317.090034 
L 567.923917 -314.633863 
L 568.147512 -312.177692 
L 568.374623 -309.721521 
L 568.599258 -307.26535 
L 568.814887 -304.809179 
L 569.014777 -302.353008 
L 569.192381 -299.896838 
L 569.341757 -297.440667 
L 569.45798 -294.984496 
L 569.537516 -292.528325 
L 569.578529 -290.072154 
L 569.581078 -287.615983 
L 569.547202 -285.159812 
L 569.480868 -282.703641 
L 569.387789 -280.24747 
L 569.275122 -277.791299 
L 569.15106 -275.335128 
L 569.024362 -272.878957 
L 568.903838 -270.422787 
L 568.797837 -267.966616 
L 568.713773 -265.510445 
L 568.657712 -263.054274 
L 568.634063 -260.598103 
L 568.645382 -258.141932 
L 568.692314 -255.685761 
L 568.773669 -253.22959 
L 568.886647 -250.773419 
L 569.027174 -248.317248 
L 569.190367 -245.861077 
L 569.371064 -243.404906 
L 569.564413 -240.948736 
L 569.76646 -238.492565 
L 569.974709 -236.036394 
L 570.188595 -233.580223 
L 570.409838 -231.124052 
L 570.642648 -228.667881 
L 570.893746 -226.21171 
L 571.17221 -223.755539 
L 571.489129 -221.299368 
L 571.857113 -218.843197 
L 572.289676 -216.387026 
L 572.800546 -213.930855 
L 573.402953 -211.474685 
L 574.108946 -209.018514 
L 574.9288 -206.562343 
L 575.870528 -204.106172 
L 576.939546 -201.650001 
L 578.138478 -199.19383 
L 579.467112 -196.737659 
L 580.922455 -194.281488 
L 582.498873 -191.825317 
L 584.188255 -189.369146 
L 585.980163 -186.912975 
L 587.861918 -184.456804 
L 589.818613 -182.000634 
L 591.833014 -179.544463 
L 593.885391 -177.088292 
L 595.953276 -174.632121 
L 598.011239 -172.17595 
L 600.030711 -169.719779 
L 601.97996 -167.263608 
L 603.824279 -164.807437 
L 605.526461 -162.351266 
L 607.047598 -159.895095 
L 608.348225 -157.438924 
L 609.38978 -154.982753 
L 610.136322 -152.526583 
L 610.556409 -150.070412 
L 610.625 -147.614241 
L 610.325231 -145.15807 
L 609.649905 -142.701899 
L 608.60256 -140.245728 
L 607.197968 -137.789557 
L 605.462024 -135.333386 
L 603.430967 -132.877215 
L 601.149976 -130.421044 
L 598.67123 -127.964873 
L 596.051567 -125.508702 
L 593.349896 -123.052532 
L 590.624579 -120.596361 
L 587.93093 -118.14019 
L 585.319036 -115.684019 
L 582.832006 -113.227848 
L 580.50475 -110.771677 
L 578.363322 -108.315506 
L 576.424821 -105.859335 
L 574.697788 -103.403164 
L 573.183019 -100.946993 
L 571.874686 -98.490822 
L 570.761642 -96.034651 
L 569.828792 -93.578481 
L 569.058449 -91.12231 
L 568.43156 -88.666139 
z
" style="stroke: #525252; stroke-width: 1.2"/>
    </defs>
    <g clip-path="url(#p06fb2e651b)">
     <use xlink:href="#mf6e7ceec97" x="0" y="360" style="fill: #999999; stroke: #525252; stroke-width: 1.2"/>
    </g>
   </g>
   <g id="matplotlib.axis_1">
    <g id="xtick_1">
     <g id="line2d_1">
      <defs>
       <path id="m391934e827" d="M 0 0 
L 0 3.5 
" style="stroke: #000000; stroke-width: 0.8"/>
      </defs>
      <g>
       <use xlink:href="#m391934e827" x="123.416667" y="284.741751" style="stroke: #000000; stroke-width: 0.8"/>
      </g>
     </g>
     <g id="text_1">
      <!-- Causal (Inference) -->
      <g transform="translate(85.160807 344.089379) rotate(-30) scale(0.1 -0.1)">
       <defs>
        <path id="DejaVuSans-43" d="M 4122 4306 
L 4122 3641 
Q 3803 3938 3442 4084 
Q 3081 4231 2675 4231 
Q 1875 4231 1450 3742 
Q 1025 3253 1025 2328 
Q 1025 1406 1450 917 
Q 1875 428 2675 428 
Q 3081 428 3442 575 
Q 3803 722 4122 1019 
L 4122 359 
Q 3791 134 3420 21 
Q 3050 -91 2638 -91 
Q 1578 -91 968 557 
Q 359 1206 359 2328 
Q 359 3453 968 4101 
Q 1578 4750 2638 4750 
Q 3056 4750 3426 4639 
Q 3797 4528 4122 4306 
z
" transform="scale(0.015625)"/>
        <path id="DejaVuSans-61" d="M 2194 1759 
Q 1497 1759 1228 1600 
Q 959 1441 959 1056 
Q 959 750 1161 570 
Q 1363 391 1709 391 
Q 2188 391 2477 730 
Q 2766 1069 2766 1631 
L 2766 1759 
L 2194 1759 
z
M 3341 1997 
L 3341 0 
L 2766 0 
L 2766 531 
Q 2569 213 2275 61 
Q 1981 -91 1556 -91 
Q 1019 -91 701 211 
Q 384 513 384 1019 
Q 384 1609 779 1909 
Q 1175 2209 1959 2209 
L 2766 2209 
L 2766 2266 
Q 2766 2663 2505 2880 
Q 2244 3097 1772 3097 
Q 1472 3097 1187 3025 
Q 903 2953 641 2809 
L 641 3341 
Q 956 3463 1253 3523 
Q 1550 3584 1831 3584 
Q 2591 3584 2966 3190 
Q 3341 2797 3341 1997 
z
" transform="scale(0.015625)"/>
        <path id="DejaVuSans-75" d="M 544 1381 
L 544 3500 
L 1119 3500 
L 1119 1403 
Q 1119 906 1312 657 
Q 1506 409 1894 409 
Q 2359 409 2629 706 
Q 2900 1003 2900 1516 
L 2900 3500 
L 3475 3500 
L 3475 0 
L 2900 0 
L 2900 538 
Q 2691 219 2414 64 
Q 2138 -91 1772 -91 
Q 1169 -91 856 284 
Q 544 659 544 1381 
z
M 1991 3584 
L 1991 3584 
z
" transform="scale(0.015625)"/>
        <path id="DejaVuSans-73" d="M 2834 3397 
L 2834 2853 
Q 2591 2978 2328 3040 
Q 2066 3103 1784 3103 
Q 1356 3103 1142 2972 
Q 928 2841 928 2578 
Q 928 2378 1081 2264 
Q 1234 2150 1697 2047 
L 1894 2003 
Q 2506 1872 2764 1633 
Q 3022 1394 3022 966 
Q 3022 478 2636 193 
Q 2250 -91 1575 -91 
Q 1294 -91 989 -36 
Q 684 19 347 128 
L 347 722 
Q 666 556 975 473 
Q 1284 391 1588 391 
Q 1994 391 2212 530 
Q 2431 669 2431 922 
Q 2431 1156 2273 1281 
Q 2116 1406 1581 1522 
L 1381 1569 
Q 847 1681 609 1914 
Q 372 2147 372 2553 
Q 372 3047 722 3315 
Q 1072 3584 1716 3584 
Q 2034 3584 2315 3537 
Q 2597 3491 2834 3397 
z
" transform="scale(0.015625)"/>
        <path id="DejaVuSans-6c" d="M 603 4863 
L 1178 4863 
L 1178 0 
L 603 0 
L 603 4863 
z
" transform="scale(0.015625)"/>
        <path id="DejaVuSans-20" transform="scale(0.015625)"/>
        <path id="DejaVuSans-28" d="M 1984 4856 
Q 1566 4138 1362 3434 
Q 1159 2731 1159 2009 
Q 1159 1288 1364 580 
Q 1569 -128 1984 -844 
L 1484 -844 
Q 1016 -109 783 600 
Q 550 1309 550 2009 
Q 550 2706 781 3412 
Q 1013 4119 1484 4856 
L 1984 4856 
z
" transform="scale(0.015625)"/>
        <path id="DejaVuSans-49" d="M 628 4666 
L 1259 4666 
L 1259 0 
L 628 0 
L 628 4666 
z
" transform="scale(0.015625)"/>
        <path id="DejaVuSans-6e" d="M 3513 2113 
L 3513 0 
L 2938 0 
L 2938 2094 
Q 2938 2591 2744 2837 
Q 2550 3084 2163 3084 
Q 1697 3084 1428 2787 
Q 1159 2491 1159 1978 
L 1159 0 
L 581 0 
L 581 3500 
L 1159 3500 
L 1159 2956 
Q 1366 3272 1645 3428 
Q 1925 3584 2291 3584 
Q 2894 3584 3203 3211 
Q 3513 2838 3513 2113 
z
" transform="scale(0.015625)"/>
        <path id="DejaVuSans-66" d="M 2375 4863 
L 2375 4384 
L 1825 4384 
Q 1516 4384 1395 4259 
Q 1275 4134 1275 3809 
L 1275 3500 
L 2222 3500 
L 2222 3053 
L 1275 3053 
L 1275 0 
L 697 0 
L 697 3053 
L 147 3053 
L 147 3500 
L 697 3500 
L 697 3744 
Q 697 4328 969 4595 
Q 1241 4863 1831 4863 
L 2375 4863 
z
" transform="scale(0.015625)"/>
        <path id="DejaVuSans-65" d="M 3597 1894 
L 3597 1613 
L 953 1613 
Q 991 1019 1311 708 
Q 1631 397 2203 397 
Q 2534 397 2845 478 
Q 3156 559 3463 722 
L 3463 178 
Q 3153 47 2828 -22 
Q 2503 -91 2169 -91 
Q 1331 -91 842 396 
Q 353 884 353 1716 
Q 353 2575 817 3079 
Q 1281 3584 2069 3584 
Q 2775 3584 3186 3129 
Q 3597 2675 3597 1894 
z
M 3022 2063 
Q 3016 2534 2758 2815 
Q 2500 3097 2075 3097 
Q 1594 3097 1305 2825 
Q 1016 2553 972 2059 
L 3022 2063 
z
" transform="scale(0.015625)"/>
        <path id="DejaVuSans-72" d="M 2631 2963 
Q 2534 3019 2420 3045 
Q 2306 3072 2169 3072 
Q 1681 3072 1420 2755 
Q 1159 2438 1159 1844 
L 1159 0 
L 581 0 
L 581 3500 
L 1159 3500 
L 1159 2956 
Q 1341 3275 1631 3429 
Q 1922 3584 2338 3584 
Q 2397 3584 2469 3576 
Q 2541 3569 2628 3553 
L 2631 2963 
z
" transform="scale(0.015625)"/>
        <path id="DejaVuSans-63" d="M 3122 3366 
L 3122 2828 
Q 2878 2963 2633 3030 
Q 2388 3097 2138 3097 
Q 1578 3097 1268 2742 
Q 959 2388 959 1747 
Q 959 1106 1268 751 
Q 1578 397 2138 397 
Q 2388 397 2633 464 
Q 2878 531 3122 666 
L 3122 134 
Q 2881 22 2623 -34 
Q 2366 -91 2075 -91 
Q 1284 -91 818 406 
Q 353 903 353 1747 
Q 353 2603 823 3093 
Q 1294 3584 2113 3584 
Q 2378 3584 2631 3529 
Q 2884 3475 3122 3366 
z
" transform="scale(0.015625)"/>
        <path id="DejaVuSans-29" d="M 513 4856 
L 1013 4856 
Q 1481 4119 1714 3412 
Q 1947 2706 1947 2009 
Q 1947 1309 1714 600 
Q 1481 -109 1013 -844 
L 513 -844 
Q 928 -128 1133 580 
Q 1338 1288 1338 2009 
Q 1338 2731 1133 3434 
Q 928 4138 513 4856 
z
" transform="scale(0.015625)"/>
       </defs>
       <use xlink:href="#DejaVuSans-43"/>
       <use xlink:href="#DejaVuSans-61" transform="translate(69.824219 0)"/>
       <use xlink:href="#DejaVuSans-75" transform="translate(131.103516 0)"/>
       <use xlink:href="#DejaVuSans-73" transform="translate(194.482422 0)"/>
       <use xlink:href="#DejaVuSans-61" transform="translate(246.582031 0)"/>
       <use xlink:href="#DejaVuSans-6c" transform="translate(307.861328 0)"/>
       <use xlink:href="#DejaVuSans-20" transform="translate(335.644531 0)"/>
       <use xlink:href="#DejaVuSans-28" transform="translate(367.431641 0)"/>
       <use xlink:href="#DejaVuSans-49" transform="translate(406.445312 0)"/>
       <use xlink:href="#DejaVuSans-6e" transform="translate(435.9375 0)"/>
       <use xlink:href="#DejaVuSans-66" transform="translate(499.316406 0)"/>
       <use xlink:href="#DejaVuSans-65" transform="translate(534.521484 0)"/>
       <use xlink:href="#DejaVuSans-72" transform="translate(596.044922 0)"/>
       <use xlink:href="#DejaVuSans-65" transform="translate(634.908203 0)"/>
       <use xlink:href="#DejaVuSans-6e" transform="translate(696.431641 0)"/>
       <use xlink:href="#DejaVuSans-63" transform="translate(759.810547 0)"/>
       <use xlink:href="#DejaVuSans-65" transform="translate(814.791016 0)"/>
       <use xlink:href="#DejaVuSans-29" transform="translate(876.314453 0)"/>
      </g>
     </g>
    </g>
    <g id="xtick_2">
     <g id="line2d_2">
      <g>
       <use xlink:href="#m391934e827" x="234.145833" y="284.741751" style="stroke: #000000; stroke-width: 0.8"/>
      </g>
     </g>
     <g id="text_2">
      <!-- Causal (Do) -->
      <g transform="translate(210.25314 327.504222) rotate(-30) scale(0.1 -0.1)">
       <defs>
        <path id="DejaVuSans-44" d="M 1259 4147 
L 1259 519 
L 2022 519 
Q 2988 519 3436 956 
Q 3884 1394 3884 2338 
Q 3884 3275 3436 3711 
Q 2988 4147 2022 4147 
L 1259 4147 
z
M 628 4666 
L 1925 4666 
Q 3281 4666 3915 4102 
Q 4550 3538 4550 2338 
Q 4550 1131 3912 565 
Q 3275 0 1925 0 
L 628 0 
L 628 4666 
z
" transform="scale(0.015625)"/>
        <path id="DejaVuSans-6f" d="M 1959 3097 
Q 1497 3097 1228 2736 
Q 959 2375 959 1747 
Q 959 1119 1226 758 
Q 1494 397 1959 397 
Q 2419 397 2687 759 
Q 2956 1122 2956 1747 
Q 2956 2369 2687 2733 
Q 2419 3097 1959 3097 
z
M 1959 3584 
Q 2709 3584 3137 3096 
Q 3566 2609 3566 1747 
Q 3566 888 3137 398 
Q 2709 -91 1959 -91 
Q 1206 -91 779 398 
Q 353 888 353 1747 
Q 353 2609 779 3096 
Q 1206 3584 1959 3584 
z
" transform="scale(0.015625)"/>
       </defs>
       <use xlink:href="#DejaVuSans-43"/>
       <use xlink:href="#DejaVuSans-61" transform="translate(69.824219 0)"/>
       <use xlink:href="#DejaVuSans-75" transform="translate(131.103516 0)"/>
       <use xlink:href="#DejaVuSans-73" transform="translate(194.482422 0)"/>
       <use xlink:href="#DejaVuSans-61" transform="translate(246.582031 0)"/>
       <use xlink:href="#DejaVuSans-6c" transform="translate(307.861328 0)"/>
       <use xlink:href="#DejaVuSans-20" transform="translate(335.644531 0)"/>
       <use xlink:href="#DejaVuSans-28" transform="translate(367.431641 0)"/>
       <use xlink:href="#DejaVuSans-44" transform="translate(406.445312 0)"/>
       <use xlink:href="#DejaVuSans-6f" transform="translate(483.447266 0)"/>
       <use xlink:href="#DejaVuSans-29" transform="translate(544.628906 0)"/>
      </g>
     </g>
    </g>
    <g id="xtick_3">
     <g id="line2d_3">
      <g>
       <use xlink:href="#m391934e827" x="344.875" y="284.741751" style="stroke: #000000; stroke-width: 0.8"/>
      </g>
     </g>
     <g id="text_3">
      <!-- Log-Normal- -->
      <g transform="translate(316.927794 328.953441) rotate(-30) scale(0.1 -0.1)">
       <defs>
        <path id="DejaVuSans-4c" d="M 628 4666 
L 1259 4666 
L 1259 531 
L 3531 531 
L 3531 0 
L 628 0 
L 628 4666 
z
" transform="scale(0.015625)"/>
        <path id="DejaVuSans-67" d="M 2906 1791 
Q 2906 2416 2648 2759 
Q 2391 3103 1925 3103 
Q 1463 3103 1205 2759 
Q 947 2416 947 1791 
Q 947 1169 1205 825 
Q 1463 481 1925 481 
Q 2391 481 2648 825 
Q 2906 1169 2906 1791 
z
M 3481 434 
Q 3481 -459 3084 -895 
Q 2688 -1331 1869 -1331 
Q 1566 -1331 1297 -1286 
Q 1028 -1241 775 -1147 
L 775 -588 
Q 1028 -725 1275 -790 
Q 1522 -856 1778 -856 
Q 2344 -856 2625 -561 
Q 2906 -266 2906 331 
L 2906 616 
Q 2728 306 2450 153 
Q 2172 0 1784 0 
Q 1141 0 747 490 
Q 353 981 353 1791 
Q 353 2603 747 3093 
Q 1141 3584 1784 3584 
Q 2172 3584 2450 3431 
Q 2728 3278 2906 2969 
L 2906 3500 
L 3481 3500 
L 3481 434 
z
" transform="scale(0.015625)"/>
        <path id="DejaVuSans-2d" d="M 313 2009 
L 1997 2009 
L 1997 1497 
L 313 1497 
L 313 2009 
z
" transform="scale(0.015625)"/>
        <path id="DejaVuSans-4e" d="M 628 4666 
L 1478 4666 
L 3547 763 
L 3547 4666 
L 4159 4666 
L 4159 0 
L 3309 0 
L 1241 3903 
L 1241 0 
L 628 0 
L 628 4666 
z
" transform="scale(0.015625)"/>
        <path id="DejaVuSans-6d" d="M 3328 2828 
Q 3544 3216 3844 3400 
Q 4144 3584 4550 3584 
Q 5097 3584 5394 3201 
Q 5691 2819 5691 2113 
L 5691 0 
L 5113 0 
L 5113 2094 
Q 5113 2597 4934 2840 
Q 4756 3084 4391 3084 
Q 3944 3084 3684 2787 
Q 3425 2491 3425 1978 
L 3425 0 
L 2847 0 
L 2847 2094 
Q 2847 2600 2669 2842 
Q 2491 3084 2119 3084 
Q 1678 3084 1418 2786 
Q 1159 2488 1159 1978 
L 1159 0 
L 581 0 
L 581 3500 
L 1159 3500 
L 1159 2956 
Q 1356 3278 1631 3431 
Q 1906 3584 2284 3584 
Q 2666 3584 2933 3390 
Q 3200 3197 3328 2828 
z
" transform="scale(0.015625)"/>
       </defs>
       <use xlink:href="#DejaVuSans-4c"/>
       <use xlink:href="#DejaVuSans-6f" transform="translate(53.962891 0)"/>
       <use xlink:href="#DejaVuSans-67" transform="translate(115.144531 0)"/>
       <use xlink:href="#DejaVuSans-2d" transform="translate(178.621094 0)"/>
       <use xlink:href="#DejaVuSans-4e" transform="translate(214.705078 0)"/>
       <use xlink:href="#DejaVuSans-6f" transform="translate(289.509766 0)"/>
       <use xlink:href="#DejaVuSans-72" transform="translate(350.691406 0)"/>
       <use xlink:href="#DejaVuSans-6d" transform="translate(390.054688 0)"/>
       <use xlink:href="#DejaVuSans-61" transform="translate(487.466797 0)"/>
       <use xlink:href="#DejaVuSans-6c" transform="translate(548.746094 0)"/>
       <use xlink:href="#DejaVuSans-2d" transform="translate(576.529297 0)"/>
      </g>
      <!-- Distribution -->
      <g transform="translate(323.793262 337.919781) rotate(-30) scale(0.1 -0.1)">
       <defs>
        <path id="DejaVuSans-69" d="M 603 3500 
L 1178 3500 
L 1178 0 
L 603 0 
L 603 3500 
z
M 603 4863 
L 1178 4863 
L 1178 4134 
L 603 4134 
L 603 4863 
z
" transform="scale(0.015625)"/>
        <path id="DejaVuSans-74" d="M 1172 4494 
L 1172 3500 
L 2356 3500 
L 2356 3053 
L 1172 3053 
L 1172 1153 
Q 1172 725 1289 603 
Q 1406 481 1766 481 
L 2356 481 
L 2356 0 
L 1766 0 
Q 1100 0 847 248 
Q 594 497 594 1153 
L 594 3053 
L 172 3053 
L 172 3500 
L 594 3500 
L 594 4494 
L 1172 4494 
z
" transform="scale(0.015625)"/>
        <path id="DejaVuSans-62" d="M 3116 1747 
Q 3116 2381 2855 2742 
Q 2594 3103 2138 3103 
Q 1681 3103 1420 2742 
Q 1159 2381 1159 1747 
Q 1159 1113 1420 752 
Q 1681 391 2138 391 
Q 2594 391 2855 752 
Q 3116 1113 3116 1747 
z
M 1159 2969 
Q 1341 3281 1617 3432 
Q 1894 3584 2278 3584 
Q 2916 3584 3314 3078 
Q 3713 2572 3713 1747 
Q 3713 922 3314 415 
Q 2916 -91 2278 -91 
Q 1894 -91 1617 61 
Q 1341 213 1159 525 
L 1159 0 
L 581 0 
L 581 4863 
L 1159 4863 
L 1159 2969 
z
" transform="scale(0.015625)"/>
       </defs>
       <use xlink:href="#DejaVuSans-44"/>
       <use xlink:href="#DejaVuSans-69" transform="translate(77.001953 0)"/>
       <use xlink:href="#DejaVuSans-73" transform="translate(104.785156 0)"/>
       <use xlink:href="#DejaVuSans-74" transform="translate(156.884766 0)"/>
       <use xlink:href="#DejaVuSans-72" transform="translate(196.09375 0)"/>
       <use xlink:href="#DejaVuSans-69" transform="translate(237.207031 0)"/>
       <use xlink:href="#DejaVuSans-62" transform="translate(264.990234 0)"/>
       <use xlink:href="#DejaVuSans-75" transform="translate(328.466797 0)"/>
       <use xlink:href="#DejaVuSans-74" transform="translate(391.845703 0)"/>
       <use xlink:href="#DejaVuSans-69" transform="translate(431.054688 0)"/>
       <use xlink:href="#DejaVuSans-6f" transform="translate(458.837891 0)"/>
       <use xlink:href="#DejaVuSans-6e" transform="translate(520.019531 0)"/>
      </g>
     </g>
    </g>
    <g id="xtick_4">
     <g id="line2d_4">
      <g>
       <use xlink:href="#m391934e827" x="455.604167" y="284.741751" style="stroke: #000000; stroke-width: 0.8"/>
      </g>
     </g>
     <g id="text_4">
      <!-- Nonparametric- -->
      <g transform="translate(420.209142 337.553441) rotate(-30) scale(0.1 -0.1)">
       <defs>
        <path id="DejaVuSans-70" d="M 1159 525 
L 1159 -1331 
L 581 -1331 
L 581 3500 
L 1159 3500 
L 1159 2969 
Q 1341 3281 1617 3432 
Q 1894 3584 2278 3584 
Q 2916 3584 3314 3078 
Q 3713 2572 3713 1747 
Q 3713 922 3314 415 
Q 2916 -91 2278 -91 
Q 1894 -91 1617 61 
Q 1341 213 1159 525 
z
M 3116 1747 
Q 3116 2381 2855 2742 
Q 2594 3103 2138 3103 
Q 1681 3103 1420 2742 
Q 1159 2381 1159 1747 
Q 1159 1113 1420 752 
Q 1681 391 2138 391 
Q 2594 391 2855 752 
Q 3116 1113 3116 1747 
z
" transform="scale(0.015625)"/>
       </defs>
       <use xlink:href="#DejaVuSans-4e"/>
       <use xlink:href="#DejaVuSans-6f" transform="translate(74.804688 0)"/>
       <use xlink:href="#DejaVuSans-6e" transform="translate(135.986328 0)"/>
       <use xlink:href="#DejaVuSans-70" transform="translate(199.365234 0)"/>
       <use xlink:href="#DejaVuSans-61" transform="translate(262.841797 0)"/>
       <use xlink:href="#DejaVuSans-72" transform="translate(324.121094 0)"/>
       <use xlink:href="#DejaVuSans-61" transform="translate(365.234375 0)"/>
       <use xlink:href="#DejaVuSans-6d" transform="translate(426.513672 0)"/>
       <use xlink:href="#DejaVuSans-65" transform="translate(523.925781 0)"/>
       <use xlink:href="#DejaVuSans-74" transform="translate(585.449219 0)"/>
       <use xlink:href="#DejaVuSans-72" transform="translate(624.658203 0)"/>
       <use xlink:href="#DejaVuSans-69" transform="translate(665.771484 0)"/>
       <use xlink:href="#DejaVuSans-63" transform="translate(693.554688 0)"/>
       <use xlink:href="#DejaVuSans-2d" transform="translate(748.535156 0)"/>
      </g>
      <!-- Distribution -->
      <g transform="translate(434.522429 342.219781) rotate(-30) scale(0.1 -0.1)">
       <use xlink:href="#DejaVuSans-44"/>
       <use xlink:href="#DejaVuSans-69" transform="translate(77.001953 0)"/>
       <use xlink:href="#DejaVuSans-73" transform="translate(104.785156 0)"/>
       <use xlink:href="#DejaVuSans-74" transform="translate(156.884766 0)"/>
       <use xlink:href="#DejaVuSans-72" transform="translate(196.09375 0)"/>
       <use xlink:href="#DejaVuSans-69" transform="translate(237.207031 0)"/>
       <use xlink:href="#DejaVuSans-62" transform="translate(264.990234 0)"/>
       <use xlink:href="#DejaVuSans-75" transform="translate(328.466797 0)"/>
       <use xlink:href="#DejaVuSans-74" transform="translate(391.845703 0)"/>
       <use xlink:href="#DejaVuSans-69" transform="translate(431.054688 0)"/>
       <use xlink:href="#DejaVuSans-6f" transform="translate(458.837891 0)"/>
       <use xlink:href="#DejaVuSans-6e" transform="translate(520.019531 0)"/>
      </g>
     </g>
    </g>
    <g id="xtick_5">
     <g id="line2d_5">
      <g>
       <use xlink:href="#m391934e827" x="566.333333" y="284.741751" style="stroke: #000000; stroke-width: 0.8"/>
      </g>
     </g>
     <g id="text_5">
      <!-- Static Duration -->
      <g transform="translate(535.149112 335.923754) rotate(-30) scale(0.1 -0.1)">
       <defs>
        <path id="DejaVuSans-53" d="M 3425 4513 
L 3425 3897 
Q 3066 4069 2747 4153 
Q 2428 4238 2131 4238 
Q 1616 4238 1336 4038 
Q 1056 3838 1056 3469 
Q 1056 3159 1242 3001 
Q 1428 2844 1947 2747 
L 2328 2669 
Q 3034 2534 3370 2195 
Q 3706 1856 3706 1288 
Q 3706 609 3251 259 
Q 2797 -91 1919 -91 
Q 1588 -91 1214 -16 
Q 841 59 441 206 
L 441 856 
Q 825 641 1194 531 
Q 1563 422 1919 422 
Q 2459 422 2753 634 
Q 3047 847 3047 1241 
Q 3047 1584 2836 1778 
Q 2625 1972 2144 2069 
L 1759 2144 
Q 1053 2284 737 2584 
Q 422 2884 422 3419 
Q 422 4038 858 4394 
Q 1294 4750 2059 4750 
Q 2388 4750 2728 4690 
Q 3069 4631 3425 4513 
z
" transform="scale(0.015625)"/>
       </defs>
       <use xlink:href="#DejaVuSans-53"/>
       <use xlink:href="#DejaVuSans-74" transform="translate(63.476562 0)"/>
       <use xlink:href="#DejaVuSans-61" transform="translate(102.685547 0)"/>
       <use xlink:href="#DejaVuSans-74" transform="translate(163.964844 0)"/>
       <use xlink:href="#DejaVuSans-69" transform="translate(203.173828 0)"/>
       <use xlink:href="#DejaVuSans-63" transform="translate(230.957031 0)"/>
       <use xlink:href="#DejaVuSans-20" transform="translate(285.9375 0)"/>
       <use xlink:href="#DejaVuSans-44" transform="translate(317.724609 0)"/>
       <use xlink:href="#DejaVuSans-75" transform="translate(394.726562 0)"/>
       <use xlink:href="#DejaVuSans-72" transform="translate(458.105469 0)"/>
       <use xlink:href="#DejaVuSans-61" transform="translate(499.21875 0)"/>
       <use xlink:href="#DejaVuSans-74" transform="translate(560.498047 0)"/>
       <use xlink:href="#DejaVuSans-69" transform="translate(599.707031 0)"/>
       <use xlink:href="#DejaVuSans-6f" transform="translate(627.490234 0)"/>
       <use xlink:href="#DejaVuSans-6e" transform="translate(688.671875 0)"/>
      </g>
     </g>
    </g>
   </g>
   <g id="matplotlib.axis_2">
    <g id="ytick_1">
     <g id="line2d_6">
      <defs>
       <path id="m1c77ccc7e6" d="M 0 0 
L -3.5 0 
" style="stroke: #000000; stroke-width: 0.8"/>
      </defs>
      <g>
       <use xlink:href="#m1c77ccc7e6" x="52.55" y="262.096768" style="stroke: #000000; stroke-width: 0.8"/>
      </g>
     </g>
     <g id="text_6">
      <!-- 0 -->
      <g transform="translate(39.1875 265.895987) scale(0.1 -0.1)">
       <defs>
        <path id="DejaVuSans-30" d="M 2034 4250 
Q 1547 4250 1301 3770 
Q 1056 3291 1056 2328 
Q 1056 1369 1301 889 
Q 1547 409 2034 409 
Q 2525 409 2770 889 
Q 3016 1369 3016 2328 
Q 3016 3291 2770 3770 
Q 2525 4250 2034 4250 
z
M 2034 4750 
Q 2819 4750 3233 4129 
Q 3647 3509 3647 2328 
Q 3647 1150 3233 529 
Q 2819 -91 2034 -91 
Q 1250 -91 836 529 
Q 422 1150 422 2328 
Q 422 3509 836 4129 
Q 1250 4750 2034 4750 
z
" transform="scale(0.015625)"/>
       </defs>
       <use xlink:href="#DejaVuSans-30"/>
      </g>
     </g>
    </g>
    <g id="ytick_2">
     <g id="line2d_7">
      <g>
       <use xlink:href="#m1c77ccc7e6" x="52.55" y="230.376362" style="stroke: #000000; stroke-width: 0.8"/>
      </g>
     </g>
     <g id="text_7">
      <!-- 20 -->
      <g transform="translate(32.825 234.175581) scale(0.1 -0.1)">
       <defs>
        <path id="DejaVuSans-32" d="M 1228 531 
L 3431 531 
L 3431 0 
L 469 0 
L 469 531 
Q 828 903 1448 1529 
Q 2069 2156 2228 2338 
Q 2531 2678 2651 2914 
Q 2772 3150 2772 3378 
Q 2772 3750 2511 3984 
Q 2250 4219 1831 4219 
Q 1534 4219 1204 4116 
Q 875 4013 500 3803 
L 500 4441 
Q 881 4594 1212 4672 
Q 1544 4750 1819 4750 
Q 2544 4750 2975 4387 
Q 3406 4025 3406 3419 
Q 3406 3131 3298 2873 
Q 3191 2616 2906 2266 
Q 2828 2175 2409 1742 
Q 1991 1309 1228 531 
z
" transform="scale(0.015625)"/>
       </defs>
       <use xlink:href="#DejaVuSans-32"/>
       <use xlink:href="#DejaVuSans-30" transform="translate(63.623047 0)"/>
      </g>
     </g>
    </g>
    <g id="ytick_3">
     <g id="line2d_8">
      <g>
       <use xlink:href="#m1c77ccc7e6" x="52.55" y="198.655957" style="stroke: #000000; stroke-width: 0.8"/>
      </g>
     </g>
     <g id="text_8">
      <!-- 40 -->
      <g transform="translate(32.825 202.455176) scale(0.1 -0.1)">
       <defs>
        <path id="DejaVuSans-34" d="M 2419 4116 
L 825 1625 
L 2419 1625 
L 2419 4116 
z
M 2253 4666 
L 3047 4666 
L 3047 1625 
L 3713 1625 
L 3713 1100 
L 3047 1100 
L 3047 0 
L 2419 0 
L 2419 1100 
L 313 1100 
L 313 1709 
L 2253 4666 
z
" transform="scale(0.015625)"/>
       </defs>
       <use xlink:href="#DejaVuSans-34"/>
       <use xlink:href="#DejaVuSans-30" transform="translate(63.623047 0)"/>
      </g>
     </g>
    </g>
    <g id="ytick_4">
     <g id="line2d_9">
      <g>
       <use xlink:href="#m1c77ccc7e6" x="52.55" y="166.935552" style="stroke: #000000; stroke-width: 0.8"/>
      </g>
     </g>
     <g id="text_9">
      <!-- 60 -->
      <g transform="translate(32.825 170.73477) scale(0.1 -0.1)">
       <defs>
        <path id="DejaVuSans-36" d="M 2113 2584 
Q 1688 2584 1439 2293 
Q 1191 2003 1191 1497 
Q 1191 994 1439 701 
Q 1688 409 2113 409 
Q 2538 409 2786 701 
Q 3034 994 3034 1497 
Q 3034 2003 2786 2293 
Q 2538 2584 2113 2584 
z
M 3366 4563 
L 3366 3988 
Q 3128 4100 2886 4159 
Q 2644 4219 2406 4219 
Q 1781 4219 1451 3797 
Q 1122 3375 1075 2522 
Q 1259 2794 1537 2939 
Q 1816 3084 2150 3084 
Q 2853 3084 3261 2657 
Q 3669 2231 3669 1497 
Q 3669 778 3244 343 
Q 2819 -91 2113 -91 
Q 1303 -91 875 529 
Q 447 1150 447 2328 
Q 447 3434 972 4092 
Q 1497 4750 2381 4750 
Q 2619 4750 2861 4703 
Q 3103 4656 3366 4563 
z
" transform="scale(0.015625)"/>
       </defs>
       <use xlink:href="#DejaVuSans-36"/>
       <use xlink:href="#DejaVuSans-30" transform="translate(63.623047 0)"/>
      </g>
     </g>
    </g>
    <g id="ytick_5">
     <g id="line2d_10">
      <g>
       <use xlink:href="#m1c77ccc7e6" x="52.55" y="135.215146" style="stroke: #000000; stroke-width: 0.8"/>
      </g>
     </g>
     <g id="text_10">
      <!-- 80 -->
      <g transform="translate(32.825 139.014365) scale(0.1 -0.1)">
       <defs>
        <path id="DejaVuSans-38" d="M 2034 2216 
Q 1584 2216 1326 1975 
Q 1069 1734 1069 1313 
Q 1069 891 1326 650 
Q 1584 409 2034 409 
Q 2484 409 2743 651 
Q 3003 894 3003 1313 
Q 3003 1734 2745 1975 
Q 2488 2216 2034 2216 
z
M 1403 2484 
Q 997 2584 770 2862 
Q 544 3141 544 3541 
Q 544 4100 942 4425 
Q 1341 4750 2034 4750 
Q 2731 4750 3128 4425 
Q 3525 4100 3525 3541 
Q 3525 3141 3298 2862 
Q 3072 2584 2669 2484 
Q 3125 2378 3379 2068 
Q 3634 1759 3634 1313 
Q 3634 634 3220 271 
Q 2806 -91 2034 -91 
Q 1263 -91 848 271 
Q 434 634 434 1313 
Q 434 1759 690 2068 
Q 947 2378 1403 2484 
z
M 1172 3481 
Q 1172 3119 1398 2916 
Q 1625 2713 2034 2713 
Q 2441 2713 2670 2916 
Q 2900 3119 2900 3481 
Q 2900 3844 2670 4047 
Q 2441 4250 2034 4250 
Q 1625 4250 1398 4047 
Q 1172 3844 1172 3481 
z
" transform="scale(0.015625)"/>
       </defs>
       <use xlink:href="#DejaVuSans-38"/>
       <use xlink:href="#DejaVuSans-30" transform="translate(63.623047 0)"/>
      </g>
     </g>
    </g>
    <g id="ytick_6">
     <g id="line2d_11">
      <g>
       <use xlink:href="#m1c77ccc7e6" x="52.55" y="103.494741" style="stroke: #000000; stroke-width: 0.8"/>
      </g>
     </g>
     <g id="text_11">
      <!-- 100 -->
      <g transform="translate(26.4625 107.293959) scale(0.1 -0.1)">
       <defs>
        <path id="DejaVuSans-31" d="M 794 531 
L 1825 531 
L 1825 4091 
L 703 3866 
L 703 4441 
L 1819 4666 
L 2450 4666 
L 2450 531 
L 3481 531 
L 3481 0 
L 794 0 
L 794 531 
z
" transform="scale(0.015625)"/>
       </defs>
       <use xlink:href="#DejaVuSans-31"/>
       <use xlink:href="#DejaVuSans-30" transform="translate(63.623047 0)"/>
       <use xlink:href="#DejaVuSans-30" transform="translate(127.246094 0)"/>
      </g>
     </g>
    </g>
    <g id="ytick_7">
     <g id="line2d_12">
      <g>
       <use xlink:href="#m1c77ccc7e6" x="52.55" y="71.774335" style="stroke: #000000; stroke-width: 0.8"/>
      </g>
     </g>
     <g id="text_12">
      <!-- 120 -->
      <g transform="translate(26.4625 75.573554) scale(0.1 -0.1)">
       <use xlink:href="#DejaVuSans-31"/>
       <use xlink:href="#DejaVuSans-32" transform="translate(63.623047 0)"/>
       <use xlink:href="#DejaVuSans-30" transform="translate(127.246094 0)"/>
      </g>
     </g>
    </g>
    <g id="ytick_8">
     <g id="line2d_13">
      <g>
       <use xlink:href="#m1c77ccc7e6" x="52.55" y="40.05393" style="stroke: #000000; stroke-width: 0.8"/>
      </g>
     </g>
     <g id="text_13">
      <!-- 140 -->
      <g transform="translate(26.4625 43.853149) scale(0.1 -0.1)">
       <use xlink:href="#DejaVuSans-31"/>
       <use xlink:href="#DejaVuSans-34" transform="translate(63.623047 0)"/>
       <use xlink:href="#DejaVuSans-30" transform="translate(127.246094 0)"/>
      </g>
     </g>
    </g>
    <g id="text_14">
     <!-- Levenshtein Distance -->
     <g transform="translate(19.966875 212.329938) rotate(-90) scale(0.12 -0.12)">
      <defs>
       <path id="DejaVuSans-76" d="M 191 3500 
L 800 3500 
L 1894 563 
L 2988 3500 
L 3597 3500 
L 2284 0 
L 1503 0 
L 191 3500 
z
" transform="scale(0.015625)"/>
       <path id="DejaVuSans-68" d="M 3513 2113 
L 3513 0 
L 2938 0 
L 2938 2094 
Q 2938 2591 2744 2837 
Q 2550 3084 2163 3084 
Q 1697 3084 1428 2787 
Q 1159 2491 1159 1978 
L 1159 0 
L 581 0 
L 581 4863 
L 1159 4863 
L 1159 2956 
Q 1366 3272 1645 3428 
Q 1925 3584 2291 3584 
Q 2894 3584 3203 3211 
Q 3513 2838 3513 2113 
z
" transform="scale(0.015625)"/>
      </defs>
      <use xlink:href="#DejaVuSans-4c"/>
      <use xlink:href="#DejaVuSans-65" transform="translate(53.962891 0)"/>
      <use xlink:href="#DejaVuSans-76" transform="translate(115.486328 0)"/>
      <use xlink:href="#DejaVuSans-65" transform="translate(174.666016 0)"/>
      <use xlink:href="#DejaVuSans-6e" transform="translate(236.189453 0)"/>
      <use xlink:href="#DejaVuSans-73" transform="translate(299.568359 0)"/>
      <use xlink:href="#DejaVuSans-68" transform="translate(351.667969 0)"/>
      <use xlink:href="#DejaVuSans-74" transform="translate(415.046875 0)"/>
      <use xlink:href="#DejaVuSans-65" transform="translate(454.255859 0)"/>
      <use xlink:href="#DejaVuSans-69" transform="translate(515.779297 0)"/>
      <use xlink:href="#DejaVuSans-6e" transform="translate(543.5625 0)"/>
      <use xlink:href="#DejaVuSans-20" transform="translate(606.941406 0)"/>
      <use xlink:href="#DejaVuSans-44" transform="translate(638.728516 0)"/>
      <use xlink:href="#DejaVuSans-69" transform="translate(715.730469 0)"/>
      <use xlink:href="#DejaVuSans-73" transform="translate(743.513672 0)"/>
      <use xlink:href="#DejaVuSans-74" transform="translate(795.613281 0)"/>
      <use xlink:href="#DejaVuSans-61" transform="translate(834.822266 0)"/>
      <use xlink:href="#DejaVuSans-6e" transform="translate(896.101562 0)"/>
      <use xlink:href="#DejaVuSans-63" transform="translate(959.480469 0)"/>
      <use xlink:href="#DejaVuSans-65" transform="translate(1014.460938 0)"/>
     </g>
    </g>
   </g>
   <g id="line2d_14">
    <path d="M 82.156002 220.860241 
L 164.677332 220.860241 
" clip-path="url(#p06fb2e651b)" style="fill: none; stroke-dasharray: 1.5,0.9; stroke-dashoffset: 0; stroke: #525252; stroke-width: 1.2"/>
   </g>
   <g id="line2d_15">
    <path d="M 79.239433 209.494026 
L 167.593901 209.494026 
" clip-path="url(#p06fb2e651b)" style="fill: none; stroke-dasharray: 3,1.2; stroke-dashoffset: 0; stroke: #525252; stroke-width: 1.2"/>
   </g>
   <g id="line2d_16">
    <path d="M 90.389226 189.271475 
L 156.444107 189.271475 
" clip-path="url(#p06fb2e651b)" style="fill: none; stroke-dasharray: 1.5,0.9; stroke-dashoffset: 0; stroke: #525252; stroke-width: 1.2"/>
   </g>
   <g id="line2d_17">
    <path d="M 192.273396 220.860241 
L 276.018271 220.860241 
" clip-path="url(#p06fb2e651b)" style="fill: none; stroke-dasharray: 1.5,0.9; stroke-dashoffset: 0; stroke: #525252; stroke-width: 1.2"/>
   </g>
   <g id="line2d_18">
    <path d="M 189.875414 212.137129 
L 278.416253 212.137129 
" clip-path="url(#p06fb2e651b)" style="fill: none; stroke-dasharray: 3,1.2; stroke-dashoffset: 0; stroke: #525252; stroke-width: 1.2"/>
   </g>
   <g id="line2d_19">
    <path d="M 201.45906 189.801206 
L 266.832606 189.801206 
" clip-path="url(#p06fb2e651b)" style="fill: none; stroke-dasharray: 1.5,0.9; stroke-dashoffset: 0; stroke: #525252; stroke-width: 1.2"/>
   </g>
   <g id="line2d_20">
    <path d="M 302.953783 220.860241 
L 386.796217 220.860241 
" clip-path="url(#p06fb2e651b)" style="fill: none; stroke-dasharray: 1.5,0.9; stroke-dashoffset: 0; stroke: #525252; stroke-width: 1.2"/>
   </g>
   <g id="line2d_21">
    <path d="M 300.769266 209.494026 
L 388.980734 209.494026 
" clip-path="url(#p06fb2e651b)" style="fill: none; stroke-dasharray: 3,1.2; stroke-dashoffset: 0; stroke: #525252; stroke-width: 1.2"/>
   </g>
   <g id="line2d_22">
    <path d="M 311.620212 189.535944 
L 378.129788 189.535944 
" clip-path="url(#p06fb2e651b)" style="fill: none; stroke-dasharray: 1.5,0.9; stroke-dashoffset: 0; stroke: #525252; stroke-width: 1.2"/>
   </g>
   <g id="line2d_23">
    <path d="M 413.796444 220.860241 
L 497.41189 220.860241 
" clip-path="url(#p06fb2e651b)" style="fill: none; stroke-dasharray: 1.5,0.9; stroke-dashoffset: 0; stroke: #525252; stroke-width: 1.2"/>
   </g>
   <g id="line2d_24">
    <path d="M 411.449948 210.022171 
L 499.758385 210.022171 
" clip-path="url(#p06fb2e651b)" style="fill: none; stroke-dasharray: 3,1.2; stroke-dashoffset: 0; stroke: #525252; stroke-width: 1.2"/>
   </g>
   <g id="line2d_25">
    <path d="M 422.619225 190.329351 
L 488.589109 190.329351 
" clip-path="url(#p06fb2e651b)" style="fill: none; stroke-dasharray: 1.5,0.9; stroke-dashoffset: 0; stroke: #525252; stroke-width: 1.2"/>
   </g>
   <g id="line2d_26">
    <path d="M 524.696569 220.860241 
L 607.970098 220.860241 
" clip-path="url(#p06fb2e651b)" style="fill: none; stroke-dasharray: 1.5,0.9; stroke-dashoffset: 0; stroke: #525252; stroke-width: 1.2"/>
   </g>
   <g id="line2d_27">
    <path d="M 522.107672 210.022171 
L 610.558994 210.022171 
" clip-path="url(#p06fb2e651b)" style="fill: none; stroke-dasharray: 3,1.2; stroke-dashoffset: 0; stroke: #525252; stroke-width: 1.2"/>
   </g>
   <g id="line2d_28">
    <path d="M 534.008153 188.611294 
L 598.658514 188.611294 
" clip-path="url(#p06fb2e651b)" style="fill: none; stroke-dasharray: 1.5,0.9; stroke-dashoffset: 0; stroke: #525252; stroke-width: 1.2"/>
   </g>
   <g id="LineCollection_1">
    <path clip-path="url(#p06fb2e651b)" style="fill: none; stroke: #000000; stroke-width: 1.5"/>
    <path d="M 123.416667 233.973559 
L 123.416667 160.139828 
" clip-path="url(#p06fb2e651b)" style="fill: none; stroke: #000000; stroke-width: 1.5"/>
    <path d="M 234.145833 236.359149 
L 234.145833 158.653352 
" clip-path="url(#p06fb2e651b)" style="fill: none; stroke: #000000; stroke-width: 1.5"/>
    <path d="M 344.875 235.802661 
L 344.875 157.57053 
" clip-path="url(#p06fb2e651b)" style="fill: none; stroke: #000000; stroke-width: 1.5"/>
    <path d="M 455.604167 234.976082 
L 455.604167 159.269579 
" clip-path="url(#p06fb2e651b)" style="fill: none; stroke: #000000; stroke-width: 1.5"/>
    <path d="M 566.333333 235.13085 
L 566.333333 158.639163 
" clip-path="url(#p06fb2e651b)" style="fill: none; stroke: #000000; stroke-width: 1.5"/>
   </g>
   <g id="line2d_29">
    <defs>
     <path id="mc029185636" d="M 5 0 
L -5 -0 
" style="stroke: #000000"/>
    </defs>
    <g clip-path="url(#p06fb2e651b)">
     <use xlink:href="#mc029185636" x="123.416667" y="233.973559" style="stroke: #000000"/>
     <use xlink:href="#mc029185636" x="234.145833" y="236.359149" style="stroke: #000000"/>
     <use xlink:href="#mc029185636" x="344.875" y="235.802661" style="stroke: #000000"/>
     <use xlink:href="#mc029185636" x="455.604167" y="234.976082" style="stroke: #000000"/>
     <use xlink:href="#mc029185636" x="566.333333" y="235.13085" style="stroke: #000000"/>
    </g>
   </g>
   <g id="line2d_30">
    <g clip-path="url(#p06fb2e651b)">
     <use xlink:href="#mc029185636" x="123.416667" y="160.139828" style="stroke: #000000"/>
     <use xlink:href="#mc029185636" x="234.145833" y="158.653352" style="stroke: #000000"/>
     <use xlink:href="#mc029185636" x="344.875" y="157.57053" style="stroke: #000000"/>
     <use xlink:href="#mc029185636" x="455.604167" y="159.269579" style="stroke: #000000"/>
     <use xlink:href="#mc029185636" x="566.333333" y="158.639163" style="stroke: #000000"/>
    </g>
   </g>
   <g id="line2d_31">
    <defs>
     <path id="mdace044d18" d="M 0 3 
C 0.795609 3 1.55874 2.683901 2.12132 2.12132 
C 2.683901 1.55874 3 0.795609 3 0 
C 3 -0.795609 2.683901 -1.55874 2.12132 -2.12132 
C 1.55874 -2.683901 0.795609 -3 0 -3 
C -0.795609 -3 -1.55874 -2.683901 -2.12132 -2.12132 
C -2.683901 -1.55874 -3 -0.795609 -3 0 
C -3 0.795609 -2.683901 1.55874 -2.12132 2.12132 
C -1.55874 2.683901 -0.795609 3 0 3 
z
" style="stroke: #000000"/>
    </defs>
    <g clip-path="url(#p06fb2e651b)">
     <use xlink:href="#mdace044d18" x="123.416667" y="197.056693" style="stroke: #000000"/>
     <use xlink:href="#mdace044d18" x="234.145833" y="197.506251" style="stroke: #000000"/>
     <use xlink:href="#mdace044d18" x="344.875" y="196.686596" style="stroke: #000000"/>
     <use xlink:href="#mdace044d18" x="455.604167" y="197.12283" style="stroke: #000000"/>
     <use xlink:href="#mdace044d18" x="566.333333" y="196.885007" style="stroke: #000000"/>
    </g>
   </g>
   <g id="patch_3">
    <path d="M 52.55 284.741751 
L 52.55 10.8 
" style="fill: none; stroke: #000000; stroke-width: 0.8; stroke-linejoin: miter; stroke-linecap: square"/>
   </g>
   <g id="patch_4">
    <path d="M 637.2 284.741751 
L 637.2 10.8 
" style="fill: none; stroke: #000000; stroke-width: 0.8; stroke-linejoin: miter; stroke-linecap: square"/>
   </g>
   <g id="patch_5">
    <path d="M 52.55 284.741751 
L 637.2 284.741751 
" style="fill: none; stroke: #000000; stroke-width: 0.8; stroke-linejoin: miter; stroke-linecap: square"/>
   </g>
   <g id="patch_6">
    <path d="M 52.55 10.8 
L 637.2 10.8 
" style="fill: none; stroke: #000000; stroke-width: 0.8; stroke-linejoin: miter; stroke-linecap: square"/>
   </g>
   <g id="text_15">
    <g id="text_16">
     <!-- 41.01 -->
     <g transform="translate(110.53401 157.475099) scale(0.09 -0.09)">
      <defs>
       <path id="DejaVuSans-2e" d="M 684 794 
L 1344 794 
L 1344 0 
L 684 0 
L 684 794 
z
" transform="scale(0.015625)"/>
      </defs>
      <use xlink:href="#DejaVuSans-34"/>
      <use xlink:href="#DejaVuSans-31" transform="translate(63.623047 0)"/>
      <use xlink:href="#DejaVuSans-2e" transform="translate(127.246094 0)"/>
      <use xlink:href="#DejaVuSans-30" transform="translate(159.033203 0)"/>
      <use xlink:href="#DejaVuSans-31" transform="translate(222.65625 0)"/>
     </g>
    </g>
    <g id="text_17">
     <!-- 40.72 -->
     <g transform="translate(221.263177 155.988623) scale(0.09 -0.09)">
      <defs>
       <path id="DejaVuSans-37" d="M 525 4666 
L 3525 4666 
L 3525 4397 
L 1831 0 
L 1172 0 
L 2766 4134 
L 525 4134 
L 525 4666 
z
" transform="scale(0.015625)"/>
      </defs>
      <use xlink:href="#DejaVuSans-34"/>
      <use xlink:href="#DejaVuSans-30" transform="translate(63.623047 0)"/>
      <use xlink:href="#DejaVuSans-2e" transform="translate(127.246094 0)"/>
      <use xlink:href="#DejaVuSans-37" transform="translate(159.033203 0)"/>
      <use xlink:href="#DejaVuSans-32" transform="translate(222.65625 0)"/>
     </g>
    </g>
    <g id="text_18">
     <!-- 41.24 -->
     <g transform="translate(331.992344 154.905801) scale(0.09 -0.09)">
      <use xlink:href="#DejaVuSans-34"/>
      <use xlink:href="#DejaVuSans-31" transform="translate(63.623047 0)"/>
      <use xlink:href="#DejaVuSans-2e" transform="translate(127.246094 0)"/>
      <use xlink:href="#DejaVuSans-32" transform="translate(159.033203 0)"/>
      <use xlink:href="#DejaVuSans-34" transform="translate(222.65625 0)"/>
     </g>
    </g>
    <g id="text_19">
     <!-- 40.97 -->
     <g transform="translate(442.72151 156.604851) scale(0.09 -0.09)">
      <defs>
       <path id="DejaVuSans-39" d="M 703 97 
L 703 672 
Q 941 559 1184 500 
Q 1428 441 1663 441 
Q 2288 441 2617 861 
Q 2947 1281 2994 2138 
Q 2813 1869 2534 1725 
Q 2256 1581 1919 1581 
Q 1219 1581 811 2004 
Q 403 2428 403 3163 
Q 403 3881 828 4315 
Q 1253 4750 1959 4750 
Q 2769 4750 3195 4129 
Q 3622 3509 3622 2328 
Q 3622 1225 3098 567 
Q 2575 -91 1691 -91 
Q 1453 -91 1209 -44 
Q 966 3 703 97 
z
M 1959 2075 
Q 2384 2075 2632 2365 
Q 2881 2656 2881 3163 
Q 2881 3666 2632 3958 
Q 2384 4250 1959 4250 
Q 1534 4250 1286 3958 
Q 1038 3666 1038 3163 
Q 1038 2656 1286 2365 
Q 1534 2075 1959 2075 
z
" transform="scale(0.015625)"/>
      </defs>
      <use xlink:href="#DejaVuSans-34"/>
      <use xlink:href="#DejaVuSans-30" transform="translate(63.623047 0)"/>
      <use xlink:href="#DejaVuSans-2e" transform="translate(127.246094 0)"/>
      <use xlink:href="#DejaVuSans-39" transform="translate(159.033203 0)"/>
      <use xlink:href="#DejaVuSans-37" transform="translate(222.65625 0)"/>
     </g>
    </g>
    <g id="text_20">
     <!-- 41.12 -->
     <g transform="translate(553.450677 155.974435) scale(0.09 -0.09)">
      <use xlink:href="#DejaVuSans-34"/>
      <use xlink:href="#DejaVuSans-31" transform="translate(63.623047 0)"/>
      <use xlink:href="#DejaVuSans-2e" transform="translate(127.246094 0)"/>
      <use xlink:href="#DejaVuSans-31" transform="translate(159.033203 0)"/>
      <use xlink:href="#DejaVuSans-32" transform="translate(222.65625 0)"/>
     </g>
    </g>
    <g id="legend_1">
     <g id="patch_7">
      <path d="M 626.2 23.8 
L 630.2 23.8 
Q 632.2 23.8 632.2 21.8 
L 632.2 17.8 
Q 632.2 15.8 630.2 15.8 
L 626.2 15.8 
Q 624.2 15.8 624.2 17.8 
L 624.2 21.8 
Q 624.2 23.8 626.2 23.8 
z
" style="fill: #ffffff; opacity: 0.8; stroke: #cccccc; stroke-linejoin: miter"/>
     </g>
    </g>
   </g>
  </g>
  <defs>
   <clipPath id="p06fb2e651b">
    <rect x="52.55" y="10.8" width="584.65" height="273.941751"/>
   </clipPath>
  </defs>
 </g>
</svg>
