<?xml version="1.0" encoding="utf-8" standalone="no"?>
<!DOCTYPE svg PUBLIC "-//W3C//DTD SVG 1.1//EN"
  "http://www.w3.org/Graphics/SVG/1.1/DTD/svg11.dtd">
<svg xmlns:xlink="http://www.w3.org/1999/xlink" width="648pt" height="360pt" viewBox="0 0 648 360" xmlns="http://www.w3.org/2000/svg" version="1.1">
 <metadata>
  <rdf:RDF xmlns:dc="http://purl.org/dc/elements/1.1/" xmlns:cc="http://creativecommons.org/ns#" xmlns:rdf="http://www.w3.org/1999/02/22-rdf-syntax-ns#">
   <cc:Work>
    <dc:type rdf:resource="http://purl.org/dc/dcmitype/StillImage"/>
    <dc:date>2025-05-05T14:30:33.736781</dc:date>
    <dc:format>image/svg+xml</dc:format>
    <dc:creator>
     <cc:Agent>
      <dc:title>Matplotlib v3.10.0, https://matplotlib.org/</dc:title>
     </cc:Agent>
    </dc:creator>
   </cc:Work>
  </rdf:RDF>
 </metadata>
 <defs>
  <style type="text/css">*{stroke-linejoin: round; stroke-linecap: butt}</style>
 </defs>
 <g id="figure_1">
  <g id="patch_1">
   <path d="M 0 360 
L 648 360 
L 648 0 
L 0 0 
z
" style="fill: #ffffff"/>
  </g>
  <g id="axes_1">
   <g id="patch_2">
    <path d="M 46.535 284.741751 
L 637.2 284.741751 
L 637.2 10.8 
L 46.535 10.8 
z
" style="fill: #ffffff"/>
   </g>
   <g id="FillBetweenPolyCollection_1">
    <defs>
     <path id="mf33653e1dc" d="M 130.918033 -87.710147 
L 128.894718 -87.710147 
L 128.55489 -89.992613 
L 128.132573 -92.27508 
L 127.618375 -94.557547 
L 127.004825 -96.840014 
L 126.287097 -99.12248 
L 125.463562 -101.404947 
L 124.536044 -103.687414 
L 123.509721 -105.969881 
L 122.392621 -108.252347 
L 121.194755 -110.534814 
L 119.926972 -112.817281 
L 118.599714 -115.099748 
L 117.22186 -117.382214 
L 115.799877 -119.664681 
L 114.337457 -121.947148 
L 112.835742 -124.229615 
L 111.294153 -126.512081 
L 109.711725 -128.794548 
L 108.088722 -131.077015 
L 106.428262 -133.359481 
L 104.737637 -135.641948 
L 103.029029 -137.924415 
L 101.319419 -140.206882 
L 99.629601 -142.489348 
L 97.982356 -144.771815 
L 96.400006 -147.054282 
L 94.901652 -149.336749 
L 93.500538 -151.619215 
L 92.201914 -153.901682 
L 91.001801 -156.184149 
L 89.886888 -158.466616 
L 88.835677 -160.749082 
L 87.820785 -163.031549 
L 86.812181 -165.314016 
L 85.780967 -167.596483 
L 84.703259 -169.878949 
L 83.563695 -172.161416 
L 82.358149 -174.443883 
L 81.095339 -176.72635 
L 79.797139 -179.008816 
L 78.49759 -181.291283 
L 77.24069 -183.57375 
L 76.0772 -185.856217 
L 75.060756 -188.138683 
L 74.24359 -190.42115 
L 73.67222 -192.703617 
L 73.383409 -194.986084 
L 73.400705 -197.26855 
L 73.731843 -199.551017 
L 74.367261 -201.833484 
L 75.27994 -204.11595 
L 76.426707 -206.398417 
L 77.751041 -208.680884 
L 79.187272 -210.963351 
L 80.665914 -213.245817 
L 82.119701 -215.528284 
L 83.48975 -217.810751 
L 84.7312 -220.093218 
L 85.817653 -222.375684 
L 86.743856 -224.658151 
L 87.526204 -226.940618 
L 88.200947 -229.223085 
L 88.82022 -231.505551 
L 89.446337 -233.788018 
L 90.14501 -236.070485 
L 90.978283 -238.352952 
L 91.998032 -240.635418 
L 93.240764 -242.917885 
L 94.724273 -245.200352 
L 96.446447 -247.482819 
L 98.386211 -249.765285 
L 100.506366 -252.047752 
L 102.757803 -254.330219 
L 105.084504 -256.612686 
L 107.428683 -258.895152 
L 109.735484 -261.177619 
L 111.956782 -263.460086 
L 114.053825 -265.742553 
L 115.998604 -268.025019 
L 117.774035 -270.307486 
L 119.373141 -272.589953 
L 120.797507 -274.872419 
L 122.05532 -277.154886 
L 123.159258 -279.437353 
L 124.124502 -281.71982 
L 124.967019 -284.002286 
L 125.702246 -286.284753 
L 126.344189 -288.56722 
L 126.904958 -290.849687 
L 127.394629 -293.132153 
L 127.821394 -295.41462 
L 128.191871 -297.697087 
L 128.511498 -299.979554 
L 128.784927 -302.26202 
L 129.01636 -304.544487 
L 129.209799 -306.826954 
L 129.369195 -309.109421 
L 129.4985 -311.391887 
L 129.60165 -313.674354 
L 130.211102 -313.674354 
L 130.211102 -313.674354 
L 130.314251 -311.391887 
L 130.443556 -309.109421 
L 130.602952 -306.826954 
L 130.796391 -304.544487 
L 131.027824 -302.26202 
L 131.301253 -299.979554 
L 131.62088 -297.697087 
L 131.991358 -295.41462 
L 132.418123 -293.132153 
L 132.907793 -290.849687 
L 133.468562 -288.56722 
L 134.110506 -286.284753 
L 134.845732 -284.002286 
L 135.68825 -281.71982 
L 136.653494 -279.437353 
L 137.757432 -277.154886 
L 139.015244 -274.872419 
L 140.439611 -272.589953 
L 142.038716 -270.307486 
L 143.814147 -268.025019 
L 145.758926 -265.742553 
L 147.855969 -263.460086 
L 150.077267 -261.177619 
L 152.384068 -258.895152 
L 154.728247 -256.612686 
L 157.054948 -254.330219 
L 159.306385 -252.047752 
L 161.42654 -249.765285 
L 163.366305 -247.482819 
L 165.088478 -245.200352 
L 166.571988 -242.917885 
L 167.81472 -240.635418 
L 168.834468 -238.352952 
L 169.667741 -236.070485 
L 170.366414 -233.788018 
L 170.992531 -231.505551 
L 171.611804 -229.223085 
L 172.286547 -226.940618 
L 173.068895 -224.658151 
L 173.995098 -222.375684 
L 175.081552 -220.093218 
L 176.323001 -217.810751 
L 177.693051 -215.528284 
L 179.146837 -213.245817 
L 180.625479 -210.963351 
L 182.06171 -208.680884 
L 183.386044 -206.398417 
L 184.532811 -204.11595 
L 185.44549 -201.833484 
L 186.080908 -199.551017 
L 186.412046 -197.26855 
L 186.429342 -194.986084 
L 186.140531 -192.703617 
L 185.569161 -190.42115 
L 184.751995 -188.138683 
L 183.735551 -185.856217 
L 182.572062 -183.57375 
L 181.315161 -181.291283 
L 180.015612 -179.008816 
L 178.717413 -176.72635 
L 177.454602 -174.443883 
L 176.249057 -172.161416 
L 175.109493 -169.878949 
L 174.031784 -167.596483 
L 173.00057 -165.314016 
L 171.991966 -163.031549 
L 170.977074 -160.749082 
L 169.925863 -158.466616 
L 168.81095 -156.184149 
L 167.610837 -153.901682 
L 166.312213 -151.619215 
L 164.911099 -149.336749 
L 163.412746 -147.054282 
L 161.830395 -144.771815 
L 160.18315 -142.489348 
L 158.493332 -140.206882 
L 156.783722 -137.924415 
L 155.075114 -135.641948 
L 153.384489 -133.359481 
L 151.724029 -131.077015 
L 150.101026 -128.794548 
L 148.518598 -126.512081 
L 146.97701 -124.229615 
L 145.475294 -121.947148 
L 144.012874 -119.664681 
L 142.590891 -117.382214 
L 141.213037 -115.099748 
L 139.885779 -112.817281 
L 138.617996 -110.534814 
L 137.42013 -108.252347 
L 136.30303 -105.969881 
L 135.276707 -103.687414 
L 134.349189 -101.404947 
L 133.525654 -99.12248 
L 132.807926 -96.840014 
L 132.194376 -94.557547 
L 131.680178 -92.27508 
L 131.257862 -89.992613 
L 130.918033 -87.710147 
z
" style="stroke: #525252; stroke-width: 1.2"/>
    </defs>
    <g clip-path="url(#pf32c256525)">
     <use xlink:href="#mf33653e1dc" x="0" y="360" style="fill: #bbbbbb; stroke: #525252; stroke-width: 1.2"/>
    </g>
   </g>
   <g id="FillBetweenPolyCollection_2">
    <defs>
     <path id="m6923a29f01" d="M 271.479677 -150.25843 
L 270.947906 -150.25843 
L 270.856105 -151.715382 
L 270.742428 -153.172333 
L 270.605059 -154.629285 
L 270.443029 -156.086237 
L 270.256399 -157.543189 
L 270.046355 -159.00014 
L 269.815154 -160.457092 
L 269.565921 -161.914044 
L 269.302305 -163.370995 
L 269.028033 -164.827947 
L 268.746409 -166.284899 
L 268.459862 -167.74185 
L 268.169582 -169.198802 
L 267.875332 -170.655754 
L 267.575444 -172.112706 
L 267.267011 -173.569657 
L 266.946225 -175.026609 
L 266.608817 -176.483561 
L 266.250522 -177.940512 
L 265.867521 -179.397464 
L 265.456821 -180.854416 
L 265.016563 -182.311367 
L 264.546242 -183.768319 
L 264.046873 -185.225271 
L 263.521064 -186.682223 
L 262.973 -188.139174 
L 262.40828 -189.596126 
L 261.833541 -191.053078 
L 261.255842 -192.510029 
L 260.681768 -193.966981 
L 260.116294 -195.423933 
L 259.561503 -196.880885 
L 259.015305 -198.337836 
L 258.470348 -199.794788 
L 257.91332 -201.25174 
L 257.324818 -202.708691 
L 256.679892 -204.165643 
L 255.949294 -205.622595 
L 255.101383 -207.079546 
L 254.104532 -208.536498 
L 252.929846 -209.99345 
L 251.553938 -211.450402 
L 249.961509 -212.907353 
L 248.147485 -214.364305 
L 246.118486 -215.821257 
L 243.893442 -217.278208 
L 241.503244 -218.73516 
L 238.989371 -220.192112 
L 236.401551 -221.649063 
L 233.794624 -223.106015 
L 231.224883 -224.562967 
L 228.746262 -226.019919 
L 226.40683 -227.47687 
L 224.245993 -228.933822 
L 222.292777 -230.390774 
L 220.565366 -231.847725 
L 219.071891 -233.304677 
L 217.812231 -234.761629 
L 216.780426 -236.218581 
L 215.967179 -237.675532 
L 215.361939 -239.132484 
L 214.954215 -240.589436 
L 214.733914 -242.046387 
L 214.690825 -243.503339 
L 214.813563 -244.960291 
L 215.088441 -246.417242 
L 215.498823 -247.874194 
L 216.025345 -249.331146 
L 216.647271 -250.788098 
L 217.344883 -252.245049 
L 218.102602 -253.702001 
L 218.912254 -255.158953 
L 219.775805 -256.615904 
L 220.70691 -258.072856 
L 221.730767 -259.529808 
L 222.882063 -260.986759 
L 224.201114 -262.443711 
L 225.72863 -263.900663 
L 227.499807 -265.357615 
L 229.538593 -266.814566 
L 231.852969 -268.271518 
L 234.431956 -269.72847 
L 237.244806 -271.185421 
L 240.242488 -272.642373 
L 243.361263 -274.099325 
L 246.527835 -275.556276 
L 249.665372 -277.013228 
L 252.699626 -278.47018 
L 255.564413 -279.927132 
L 258.205869 -281.384083 
L 260.58515 -282.841035 
L 262.679438 -284.297987 
L 264.4814 -285.754938 
L 265.997378 -287.21189 
L 267.244721 -288.668842 
L 268.248691 -290.125794 
L 269.039334 -291.582745 
L 269.648643 -293.039697 
L 270.108212 -294.496649 
L 272.319372 -294.496649 
L 272.319372 -294.496649 
L 272.778941 -293.039697 
L 273.388249 -291.582745 
L 274.178893 -290.125794 
L 275.182863 -288.668842 
L 276.430206 -287.21189 
L 277.946184 -285.754938 
L 279.748145 -284.297987 
L 281.842433 -282.841035 
L 284.221714 -281.384083 
L 286.863171 -279.927132 
L 289.727957 -278.47018 
L 292.762212 -277.013228 
L 295.899749 -275.556276 
L 299.06632 -274.099325 
L 302.185096 -272.642373 
L 305.182778 -271.185421 
L 307.995628 -269.72847 
L 310.574615 -268.271518 
L 312.88899 -266.814566 
L 314.927777 -265.357615 
L 316.698954 -263.900663 
L 318.226469 -262.443711 
L 319.54552 -260.986759 
L 320.696817 -259.529808 
L 321.720673 -258.072856 
L 322.651778 -256.615904 
L 323.51533 -255.158953 
L 324.324982 -253.702001 
L 325.082701 -252.245049 
L 325.780312 -250.788098 
L 326.402238 -249.331146 
L 326.928761 -247.874194 
L 327.339142 -246.417242 
L 327.614021 -244.960291 
L 327.736758 -243.503339 
L 327.69367 -242.046387 
L 327.473368 -240.589436 
L 327.065644 -239.132484 
L 326.460405 -237.675532 
L 325.647157 -236.218581 
L 324.615353 -234.761629 
L 323.355693 -233.304677 
L 321.862217 -231.847725 
L 320.134806 -230.390774 
L 318.181591 -228.933822 
L 316.020754 -227.47687 
L 313.681321 -226.019919 
L 311.202701 -224.562967 
L 308.632959 -223.106015 
L 306.026033 -221.649063 
L 303.438213 -220.192112 
L 300.924339 -218.73516 
L 298.534142 -217.278208 
L 296.309098 -215.821257 
L 294.280098 -214.364305 
L 292.466074 -212.907353 
L 290.873646 -211.450402 
L 289.497738 -209.99345 
L 288.323052 -208.536498 
L 287.326201 -207.079546 
L 286.47829 -205.622595 
L 285.747692 -204.165643 
L 285.102765 -202.708691 
L 284.514264 -201.25174 
L 283.957236 -199.794788 
L 283.412279 -198.337836 
L 282.866081 -196.880885 
L 282.31129 -195.423933 
L 281.745816 -193.966981 
L 281.171742 -192.510029 
L 280.594043 -191.053078 
L 280.019304 -189.596126 
L 279.454583 -188.139174 
L 278.90652 -186.682223 
L 278.380711 -185.225271 
L 277.881342 -183.768319 
L 277.411021 -182.311367 
L 276.970762 -180.854416 
L 276.560063 -179.397464 
L 276.177061 -177.940512 
L 275.818766 -176.483561 
L 275.481358 -175.026609 
L 275.160573 -173.569657 
L 274.852139 -172.112706 
L 274.552251 -170.655754 
L 274.258001 -169.198802 
L 273.967722 -167.74185 
L 273.681175 -166.284899 
L 273.399551 -164.827947 
L 273.125278 -163.370995 
L 272.861663 -161.914044 
L 272.612429 -160.457092 
L 272.381228 -159.00014 
L 272.171185 -157.543189 
L 271.984555 -156.086237 
L 271.822524 -154.629285 
L 271.685156 -153.172333 
L 271.571479 -151.715382 
L 271.479677 -150.25843 
z
" style="stroke: #525252; stroke-width: 1.2"/>
    </defs>
    <g clip-path="url(#pf32c256525)">
     <use xlink:href="#m6923a29f01" x="0" y="360" style="fill: #888888; stroke: #525252; stroke-width: 1.2"/>
    </g>
   </g>
   <g id="FillBetweenPolyCollection_3">
    <defs>
     <path id="m096691a1d7" d="M 413.310777 -157.573351 
L 411.731639 -157.573351 
L 411.464185 -159.383197 
L 411.135857 -161.193043 
L 410.743595 -163.002889 
L 410.287945 -164.812735 
L 409.773963 -166.622581 
L 409.211825 -168.432427 
L 408.616956 -170.242273 
L 408.009554 -172.052119 
L 407.413429 -173.861965 
L 406.854175 -175.671811 
L 406.356801 -177.481657 
L 405.943034 -179.291503 
L 405.628582 -181.101349 
L 405.420705 -182.911195 
L 405.316404 -184.721041 
L 405.301506 -186.530887 
L 405.350833 -188.340733 
L 405.429495 -190.150579 
L 405.495274 -191.960425 
L 405.50188 -193.770271 
L 405.40283 -195.580117 
L 405.155583 -197.389963 
L 404.725532 -199.199808 
L 404.089458 -201.009654 
L 403.238075 -202.8195 
L 402.177317 -204.629346 
L 400.928173 -206.439192 
L 399.524968 -208.249038 
L 398.012174 -210.058884 
L 396.440018 -211.86873 
L 394.859342 -213.678576 
L 393.316314 -215.488422 
L 391.847634 -217.298268 
L 390.476897 -219.108114 
L 389.212603 -220.91796 
L 388.048098 -222.727806 
L 386.963423 -224.537652 
L 385.928762 -226.347498 
L 384.908921 -228.157344 
L 383.868114 -229.96719 
L 382.774305 -231.777036 
L 381.602508 -233.586882 
L 380.336633 -235.396728 
L 378.969817 -237.206574 
L 377.503449 -239.01642 
L 375.945352 -240.826266 
L 374.307719 -242.636112 
L 372.605365 -244.445958 
L 370.854725 -246.255804 
L 369.073782 -248.06565 
L 367.282824 -249.875496 
L 365.505683 -251.685342 
L 363.770945 -253.495188 
L 362.112596 -255.305034 
L 360.56968 -257.11488 
L 359.184777 -258.924726 
L 358.001384 -260.734571 
L 357.060566 -262.544417 
L 356.397455 -264.354263 
L 356.038246 -266.164109 
L 355.998242 -267.973955 
L 356.28133 -269.783801 
L 356.88094 -271.593647 
L 357.782242 -273.403493 
L 358.965074 -275.213339 
L 360.406957 -277.023185 
L 362.085572 -278.833031 
L 363.980196 -280.642877 
L 366.071913 -282.452723 
L 368.342651 -284.262569 
L 370.773422 -286.072415 
L 373.342297 -287.882261 
L 376.022696 -289.692107 
L 378.782492 -291.501953 
L 381.584229 -293.311799 
L 384.386491 -295.121645 
L 387.146224 -296.931491 
L 389.821596 -298.741337 
L 392.374913 -300.551183 
L 394.775106 -302.361029 
L 396.999412 -304.170875 
L 399.034068 -305.980721 
L 400.874003 -307.790567 
L 402.521695 -309.600413 
L 403.98547 -311.410259 
L 405.277579 -313.220105 
L 406.412342 -315.029951 
L 407.404603 -316.839797 
L 408.268625 -318.649643 
L 409.017455 -320.459488 
L 409.662714 -322.269334 
L 410.214687 -324.07918 
L 410.682599 -325.889026 
L 411.074935 -327.698872 
L 411.39973 -329.508718 
L 411.664758 -331.318564 
L 411.877602 -333.12841 
L 412.045628 -334.938256 
L 412.175878 -336.748102 
L 412.866539 -336.748102 
L 412.866539 -336.748102 
L 412.996788 -334.938256 
L 413.164814 -333.12841 
L 413.377658 -331.318564 
L 413.642686 -329.508718 
L 413.967481 -327.698872 
L 414.359817 -325.889026 
L 414.827729 -324.07918 
L 415.379703 -322.269334 
L 416.024962 -320.459488 
L 416.773792 -318.649643 
L 417.637813 -316.839797 
L 418.630074 -315.029951 
L 419.764837 -313.220105 
L 421.056947 -311.410259 
L 422.520722 -309.600413 
L 424.168413 -307.790567 
L 426.008348 -305.980721 
L 428.043004 -304.170875 
L 430.26731 -302.361029 
L 432.667503 -300.551183 
L 435.220821 -298.741337 
L 437.896192 -296.931491 
L 440.655925 -295.121645 
L 443.458187 -293.311799 
L 446.259924 -291.501953 
L 449.01972 -289.692107 
L 451.700119 -287.882261 
L 454.268994 -286.072415 
L 456.699765 -284.262569 
L 458.970503 -282.452723 
L 461.06222 -280.642877 
L 462.956845 -278.833031 
L 464.635459 -277.023185 
L 466.077343 -275.213339 
L 467.260174 -273.403493 
L 468.161476 -271.593647 
L 468.761087 -269.783801 
L 469.044175 -267.973955 
L 469.00417 -266.164109 
L 468.644961 -264.354263 
L 467.981851 -262.544417 
L 467.041032 -260.734571 
L 465.857639 -258.924726 
L 464.472737 -257.11488 
L 462.929821 -255.305034 
L 461.271471 -253.495188 
L 459.536733 -251.685342 
L 457.759592 -249.875496 
L 455.968635 -248.06565 
L 454.187691 -246.255804 
L 452.437051 -244.445958 
L 450.734697 -242.636112 
L 449.097064 -240.826266 
L 447.538967 -239.01642 
L 446.072599 -237.206574 
L 444.705783 -235.396728 
L 443.439908 -233.586882 
L 442.268111 -231.777036 
L 441.174303 -229.96719 
L 440.133495 -228.157344 
L 439.113655 -226.347498 
L 438.078993 -224.537652 
L 436.994318 -222.727806 
L 435.829813 -220.91796 
L 434.565519 -219.108114 
L 433.194782 -217.298268 
L 431.726102 -215.488422 
L 430.183074 -213.678576 
L 428.602399 -211.86873 
L 427.030242 -210.058884 
L 425.517448 -208.249038 
L 424.114243 -206.439192 
L 422.865099 -204.629346 
L 421.804341 -202.8195 
L 420.952958 -201.009654 
L 420.316885 -199.199808 
L 419.886833 -197.389963 
L 419.639586 -195.580117 
L 419.540537 -193.770271 
L 419.547142 -191.960425 
L 419.612921 -190.150579 
L 419.691584 -188.340733 
L 419.74091 -186.530887 
L 419.726012 -184.721041 
L 419.621711 -182.911195 
L 419.413834 -181.101349 
L 419.099382 -179.291503 
L 418.685615 -177.481657 
L 418.188242 -175.671811 
L 417.628987 -173.861965 
L 417.032862 -172.052119 
L 416.42546 -170.242273 
L 415.830591 -168.432427 
L 415.268453 -166.622581 
L 414.754471 -164.812735 
L 414.298821 -163.002889 
L 413.90656 -161.193043 
L 413.578231 -159.383197 
L 413.310777 -157.573351 
z
" style="stroke: #525252; stroke-width: 1.2"/>
    </defs>
    <g clip-path="url(#pf32c256525)">
     <use xlink:href="#m096691a1d7" x="0" y="360" style="fill: #aaaaaa; stroke: #525252; stroke-width: 1.2"/>
    </g>
   </g>
   <g id="FillBetweenPolyCollection_4">
    <defs>
     <path id="m8b7575e851" d="M 554.092476 -116.722985 
L 553.564773 -116.722985 
L 553.475654 -118.794837 
L 553.365698 -120.866688 
L 553.233174 -122.93854 
L 553.077115 -125.010391 
L 552.897494 -127.082243 
L 552.695323 -129.154095 
L 552.472647 -131.225946 
L 552.232418 -133.297798 
L 551.978271 -135.36965 
L 551.714228 -137.441501 
L 551.444388 -139.513353 
L 551.172653 -141.585205 
L 550.902558 -143.657056 
L 550.637208 -145.728908 
L 550.379355 -147.800759 
L 550.131549 -149.872611 
L 549.896311 -151.944463 
L 549.676239 -154.016314 
L 549.473962 -156.088166 
L 549.291899 -158.160018 
L 549.131785 -160.231869 
L 548.994025 -162.303721 
L 548.876944 -164.375573 
L 548.776048 -166.447424 
L 548.683435 -168.519276 
L 548.587465 -170.591127 
L 548.472762 -172.662979 
L 548.320611 -174.734831 
L 548.109704 -176.806682 
L 547.817212 -178.878534 
L 547.420071 -180.950386 
L 546.896402 -183.022237 
L 546.226935 -185.094089 
L 545.396336 -187.165941 
L 544.394346 -189.237792 
L 543.216616 -191.309644 
L 541.865189 -193.381495 
L 540.348564 -195.453347 
L 538.68134 -197.525199 
L 536.883464 -199.59705 
L 534.979171 -201.668902 
L 532.995732 -203.740754 
L 530.962169 -205.812605 
L 528.908047 -207.884457 
L 526.862479 -209.956309 
L 524.853367 -212.02816 
L 522.906855 -214.100012 
L 521.046916 -216.171863 
L 519.294942 -218.243715 
L 517.669243 -220.315567 
L 516.184365 -222.387418 
L 514.850264 -224.45927 
L 513.671429 -226.531122 
L 512.646119 -228.602973 
L 511.765918 -230.674825 
L 511.015798 -232.746677 
L 510.374789 -234.818528 
L 509.817266 -236.89038 
L 509.31475 -238.962231 
L 508.837998 -241.034083 
L 508.359121 -243.105935 
L 507.85347 -245.177786 
L 507.301064 -247.249638 
L 506.687476 -249.32149 
L 506.004182 -251.393341 
L 505.248507 -253.465193 
L 504.423395 -255.537045 
L 503.537221 -257.608896 
L 502.603851 -259.680748 
L 501.64303 -261.752599 
L 500.681069 -263.824451 
L 499.751643 -265.896303 
L 498.896395 -267.968154 
L 498.165002 -270.040006 
L 497.614342 -272.111858 
L 497.306522 -274.183709 
L 497.305658 -276.255561 
L 497.673531 -278.327413 
L 498.464443 -280.399264 
L 499.719785 -282.471116 
L 501.46297 -284.542967 
L 503.695402 -286.614819 
L 506.394098 -288.686671 
L 509.511382 -290.758522 
L 512.97686 -292.830374 
L 516.701547 -294.902226 
L 520.583758 -296.974077 
L 524.516143 -299.045929 
L 528.393066 -301.117781 
L 532.117563 -303.189632 
L 535.607131 -305.261484 
L 538.797846 -307.333335 
L 541.646519 -309.405187 
L 544.130879 -311.477039 
L 546.248004 -313.54889 
L 548.011422 -315.620742 
L 549.447355 -317.692594 
L 550.590658 -319.764445 
L 551.480885 -321.836297 
L 556.176364 -321.836297 
L 556.176364 -321.836297 
L 557.066591 -319.764445 
L 558.209894 -317.692594 
L 559.645827 -315.620742 
L 561.409244 -313.54889 
L 563.52637 -311.477039 
L 566.01073 -309.405187 
L 568.859403 -307.333335 
L 572.050118 -305.261484 
L 575.539686 -303.189632 
L 579.264183 -301.117781 
L 583.141106 -299.045929 
L 587.07349 -296.974077 
L 590.955702 -294.902226 
L 594.680389 -292.830374 
L 598.145867 -290.758522 
L 601.263151 -288.686671 
L 603.961846 -286.614819 
L 606.194279 -284.542967 
L 607.937464 -282.471116 
L 609.192806 -280.399264 
L 609.983718 -278.327413 
L 610.351591 -276.255561 
L 610.350727 -274.183709 
L 610.042907 -272.111858 
L 609.492247 -270.040006 
L 608.760854 -267.968154 
L 607.905606 -265.896303 
L 606.97618 -263.824451 
L 606.014219 -261.752599 
L 605.053398 -259.680748 
L 604.120027 -257.608896 
L 603.233854 -255.537045 
L 602.408742 -253.465193 
L 601.653067 -251.393341 
L 600.969772 -249.32149 
L 600.356185 -247.249638 
L 599.803779 -245.177786 
L 599.298127 -243.105935 
L 598.819251 -241.034083 
L 598.342498 -238.962231 
L 597.839983 -236.89038 
L 597.28246 -234.818528 
L 596.64145 -232.746677 
L 595.891331 -230.674825 
L 595.01113 -228.602973 
L 593.98582 -226.531122 
L 592.806985 -224.45927 
L 591.472884 -222.387418 
L 589.988005 -220.315567 
L 588.362306 -218.243715 
L 586.610333 -216.171863 
L 584.750394 -214.100012 
L 582.803882 -212.02816 
L 580.79477 -209.956309 
L 578.749202 -207.884457 
L 576.69508 -205.812605 
L 574.661516 -203.740754 
L 572.678078 -201.668902 
L 570.773784 -199.59705 
L 568.975908 -197.525199 
L 567.308685 -195.453347 
L 565.79206 -193.381495 
L 564.440633 -191.309644 
L 563.262902 -189.237792 
L 562.260912 -187.165941 
L 561.430314 -185.094089 
L 560.760847 -183.022237 
L 560.237178 -180.950386 
L 559.840037 -178.878534 
L 559.547544 -176.806682 
L 559.336638 -174.734831 
L 559.184486 -172.662979 
L 559.069784 -170.591127 
L 558.973813 -168.519276 
L 558.881201 -166.447424 
L 558.780305 -164.375573 
L 558.663224 -162.303721 
L 558.525464 -160.231869 
L 558.36535 -158.160018 
L 558.183287 -156.088166 
L 557.98101 -154.016314 
L 557.760938 -151.944463 
L 557.5257 -149.872611 
L 557.277894 -147.800759 
L 557.020041 -145.728908 
L 556.754691 -143.657056 
L 556.484595 -141.585205 
L 556.212861 -139.513353 
L 555.943021 -137.441501 
L 555.678978 -135.36965 
L 555.424831 -133.297798 
L 555.184602 -131.225946 
L 554.961926 -129.154095 
L 554.759755 -127.082243 
L 554.580134 -125.010391 
L 554.424074 -122.93854 
L 554.29155 -120.866688 
L 554.181594 -118.794837 
L 554.092476 -116.722985 
z
" style="stroke: #525252; stroke-width: 1.2"/>
    </defs>
    <g clip-path="url(#pf32c256525)">
     <use xlink:href="#m8b7575e851" x="0" y="360" style="fill: #cccccc; stroke: #525252; stroke-width: 1.2"/>
    </g>
   </g>
   <g id="matplotlib.axis_1">
    <g id="xtick_1">
     <g id="line2d_1">
      <defs>
       <path id="m0ab324530c" d="M 0 0 
L 0 3.5 
" style="stroke: #000000; stroke-width: 0.8"/>
      </defs>
      <g>
       <use xlink:href="#m0ab324530c" x="129.906376" y="284.741751" style="stroke: #000000; stroke-width: 0.8"/>
      </g>
     </g>
     <g id="text_1">
      <!-- Bayesian Network -->
      <g transform="translate(92.122094 343.544847) rotate(-30) scale(0.1 -0.1)">
       <defs>
        <path id="DejaVuSans-42" d="M 1259 2228 
L 1259 519 
L 2272 519 
Q 2781 519 3026 730 
Q 3272 941 3272 1375 
Q 3272 1813 3026 2020 
Q 2781 2228 2272 2228 
L 1259 2228 
z
M 1259 4147 
L 1259 2741 
L 2194 2741 
Q 2656 2741 2882 2914 
Q 3109 3088 3109 3444 
Q 3109 3797 2882 3972 
Q 2656 4147 2194 4147 
L 1259 4147 
z
M 628 4666 
L 2241 4666 
Q 2963 4666 3353 4366 
Q 3744 4066 3744 3513 
Q 3744 3084 3544 2831 
Q 3344 2578 2956 2516 
Q 3422 2416 3680 2098 
Q 3938 1781 3938 1306 
Q 3938 681 3513 340 
Q 3088 0 2303 0 
L 628 0 
L 628 4666 
z
" transform="scale(0.015625)"/>
        <path id="DejaVuSans-61" d="M 2194 1759 
Q 1497 1759 1228 1600 
Q 959 1441 959 1056 
Q 959 750 1161 570 
Q 1363 391 1709 391 
Q 2188 391 2477 730 
Q 2766 1069 2766 1631 
L 2766 1759 
L 2194 1759 
z
M 3341 1997 
L 3341 0 
L 2766 0 
L 2766 531 
Q 2569 213 2275 61 
Q 1981 -91 1556 -91 
Q 1019 -91 701 211 
Q 384 513 384 1019 
Q 384 1609 779 1909 
Q 1175 2209 1959 2209 
L 2766 2209 
L 2766 2266 
Q 2766 2663 2505 2880 
Q 2244 3097 1772 3097 
Q 1472 3097 1187 3025 
Q 903 2953 641 2809 
L 641 3341 
Q 956 3463 1253 3523 
Q 1550 3584 1831 3584 
Q 2591 3584 2966 3190 
Q 3341 2797 3341 1997 
z
" transform="scale(0.015625)"/>
        <path id="DejaVuSans-79" d="M 2059 -325 
Q 1816 -950 1584 -1140 
Q 1353 -1331 966 -1331 
L 506 -1331 
L 506 -850 
L 844 -850 
Q 1081 -850 1212 -737 
Q 1344 -625 1503 -206 
L 1606 56 
L 191 3500 
L 800 3500 
L 1894 763 
L 2988 3500 
L 3597 3500 
L 2059 -325 
z
" transform="scale(0.015625)"/>
        <path id="DejaVuSans-65" d="M 3597 1894 
L 3597 1613 
L 953 1613 
Q 991 1019 1311 708 
Q 1631 397 2203 397 
Q 2534 397 2845 478 
Q 3156 559 3463 722 
L 3463 178 
Q 3153 47 2828 -22 
Q 2503 -91 2169 -91 
Q 1331 -91 842 396 
Q 353 884 353 1716 
Q 353 2575 817 3079 
Q 1281 3584 2069 3584 
Q 2775 3584 3186 3129 
Q 3597 2675 3597 1894 
z
M 3022 2063 
Q 3016 2534 2758 2815 
Q 2500 3097 2075 3097 
Q 1594 3097 1305 2825 
Q 1016 2553 972 2059 
L 3022 2063 
z
" transform="scale(0.015625)"/>
        <path id="DejaVuSans-73" d="M 2834 3397 
L 2834 2853 
Q 2591 2978 2328 3040 
Q 2066 3103 1784 3103 
Q 1356 3103 1142 2972 
Q 928 2841 928 2578 
Q 928 2378 1081 2264 
Q 1234 2150 1697 2047 
L 1894 2003 
Q 2506 1872 2764 1633 
Q 3022 1394 3022 966 
Q 3022 478 2636 193 
Q 2250 -91 1575 -91 
Q 1294 -91 989 -36 
Q 684 19 347 128 
L 347 722 
Q 666 556 975 473 
Q 1284 391 1588 391 
Q 1994 391 2212 530 
Q 2431 669 2431 922 
Q 2431 1156 2273 1281 
Q 2116 1406 1581 1522 
L 1381 1569 
Q 847 1681 609 1914 
Q 372 2147 372 2553 
Q 372 3047 722 3315 
Q 1072 3584 1716 3584 
Q 2034 3584 2315 3537 
Q 2597 3491 2834 3397 
z
" transform="scale(0.015625)"/>
        <path id="DejaVuSans-69" d="M 603 3500 
L 1178 3500 
L 1178 0 
L 603 0 
L 603 3500 
z
M 603 4863 
L 1178 4863 
L 1178 4134 
L 603 4134 
L 603 4863 
z
" transform="scale(0.015625)"/>
        <path id="DejaVuSans-6e" d="M 3513 2113 
L 3513 0 
L 2938 0 
L 2938 2094 
Q 2938 2591 2744 2837 
Q 2550 3084 2163 3084 
Q 1697 3084 1428 2787 
Q 1159 2491 1159 1978 
L 1159 0 
L 581 0 
L 581 3500 
L 1159 3500 
L 1159 2956 
Q 1366 3272 1645 3428 
Q 1925 3584 2291 3584 
Q 2894 3584 3203 3211 
Q 3513 2838 3513 2113 
z
" transform="scale(0.015625)"/>
        <path id="DejaVuSans-20" transform="scale(0.015625)"/>
        <path id="DejaVuSans-4e" d="M 628 4666 
L 1478 4666 
L 3547 763 
L 3547 4666 
L 4159 4666 
L 4159 0 
L 3309 0 
L 1241 3903 
L 1241 0 
L 628 0 
L 628 4666 
z
" transform="scale(0.015625)"/>
        <path id="DejaVuSans-74" d="M 1172 4494 
L 1172 3500 
L 2356 3500 
L 2356 3053 
L 1172 3053 
L 1172 1153 
Q 1172 725 1289 603 
Q 1406 481 1766 481 
L 2356 481 
L 2356 0 
L 1766 0 
Q 1100 0 847 248 
Q 594 497 594 1153 
L 594 3053 
L 172 3053 
L 172 3500 
L 594 3500 
L 594 4494 
L 1172 4494 
z
" transform="scale(0.015625)"/>
        <path id="DejaVuSans-77" d="M 269 3500 
L 844 3500 
L 1563 769 
L 2278 3500 
L 2956 3500 
L 3675 769 
L 4391 3500 
L 4966 3500 
L 4050 0 
L 3372 0 
L 2619 2869 
L 1863 0 
L 1184 0 
L 269 3500 
z
" transform="scale(0.015625)"/>
        <path id="DejaVuSans-6f" d="M 1959 3097 
Q 1497 3097 1228 2736 
Q 959 2375 959 1747 
Q 959 1119 1226 758 
Q 1494 397 1959 397 
Q 2419 397 2687 759 
Q 2956 1122 2956 1747 
Q 2956 2369 2687 2733 
Q 2419 3097 1959 3097 
z
M 1959 3584 
Q 2709 3584 3137 3096 
Q 3566 2609 3566 1747 
Q 3566 888 3137 398 
Q 2709 -91 1959 -91 
Q 1206 -91 779 398 
Q 353 888 353 1747 
Q 353 2609 779 3096 
Q 1206 3584 1959 3584 
z
" transform="scale(0.015625)"/>
        <path id="DejaVuSans-72" d="M 2631 2963 
Q 2534 3019 2420 3045 
Q 2306 3072 2169 3072 
Q 1681 3072 1420 2755 
Q 1159 2438 1159 1844 
L 1159 0 
L 581 0 
L 581 3500 
L 1159 3500 
L 1159 2956 
Q 1341 3275 1631 3429 
Q 1922 3584 2338 3584 
Q 2397 3584 2469 3576 
Q 2541 3569 2628 3553 
L 2631 2963 
z
" transform="scale(0.015625)"/>
        <path id="DejaVuSans-6b" d="M 581 4863 
L 1159 4863 
L 1159 1991 
L 2875 3500 
L 3609 3500 
L 1753 1863 
L 3688 0 
L 2938 0 
L 1159 1709 
L 1159 0 
L 581 0 
L 581 4863 
z
" transform="scale(0.015625)"/>
       </defs>
       <use xlink:href="#DejaVuSans-42"/>
       <use xlink:href="#DejaVuSans-61" transform="translate(68.603516 0)"/>
       <use xlink:href="#DejaVuSans-79" transform="translate(129.882812 0)"/>
       <use xlink:href="#DejaVuSans-65" transform="translate(189.0625 0)"/>
       <use xlink:href="#DejaVuSans-73" transform="translate(250.585938 0)"/>
       <use xlink:href="#DejaVuSans-69" transform="translate(302.685547 0)"/>
       <use xlink:href="#DejaVuSans-61" transform="translate(330.46875 0)"/>
       <use xlink:href="#DejaVuSans-6e" transform="translate(391.748047 0)"/>
       <use xlink:href="#DejaVuSans-20" transform="translate(455.126953 0)"/>
       <use xlink:href="#DejaVuSans-4e" transform="translate(486.914062 0)"/>
       <use xlink:href="#DejaVuSans-65" transform="translate(561.71875 0)"/>
       <use xlink:href="#DejaVuSans-74" transform="translate(623.242188 0)"/>
       <use xlink:href="#DejaVuSans-77" transform="translate(662.451172 0)"/>
       <use xlink:href="#DejaVuSans-6f" transform="translate(744.238281 0)"/>
       <use xlink:href="#DejaVuSans-72" transform="translate(805.419922 0)"/>
       <use xlink:href="#DejaVuSans-6b" transform="translate(846.533203 0)"/>
      </g>
     </g>
    </g>
    <g id="xtick_2">
     <g id="line2d_2">
      <g>
       <use xlink:href="#m0ab324530c" x="271.213792" y="284.741751" style="stroke: #000000; stroke-width: 0.8"/>
      </g>
     </g>
     <g id="text_2">
      <!-- Mean Duration -->
      <g transform="translate(240.612785 335.250316) rotate(-30) scale(0.1 -0.1)">
       <defs>
        <path id="DejaVuSans-4d" d="M 628 4666 
L 1569 4666 
L 2759 1491 
L 3956 4666 
L 4897 4666 
L 4897 0 
L 4281 0 
L 4281 4097 
L 3078 897 
L 2444 897 
L 1241 4097 
L 1241 0 
L 628 0 
L 628 4666 
z
" transform="scale(0.015625)"/>
        <path id="DejaVuSans-44" d="M 1259 4147 
L 1259 519 
L 2022 519 
Q 2988 519 3436 956 
Q 3884 1394 3884 2338 
Q 3884 3275 3436 3711 
Q 2988 4147 2022 4147 
L 1259 4147 
z
M 628 4666 
L 1925 4666 
Q 3281 4666 3915 4102 
Q 4550 3538 4550 2338 
Q 4550 1131 3912 565 
Q 3275 0 1925 0 
L 628 0 
L 628 4666 
z
" transform="scale(0.015625)"/>
        <path id="DejaVuSans-75" d="M 544 1381 
L 544 3500 
L 1119 3500 
L 1119 1403 
Q 1119 906 1312 657 
Q 1506 409 1894 409 
Q 2359 409 2629 706 
Q 2900 1003 2900 1516 
L 2900 3500 
L 3475 3500 
L 3475 0 
L 2900 0 
L 2900 538 
Q 2691 219 2414 64 
Q 2138 -91 1772 -91 
Q 1169 -91 856 284 
Q 544 659 544 1381 
z
M 1991 3584 
L 1991 3584 
z
" transform="scale(0.015625)"/>
       </defs>
       <use xlink:href="#DejaVuSans-4d"/>
       <use xlink:href="#DejaVuSans-65" transform="translate(86.279297 0)"/>
       <use xlink:href="#DejaVuSans-61" transform="translate(147.802734 0)"/>
       <use xlink:href="#DejaVuSans-6e" transform="translate(209.082031 0)"/>
       <use xlink:href="#DejaVuSans-20" transform="translate(272.460938 0)"/>
       <use xlink:href="#DejaVuSans-44" transform="translate(304.248047 0)"/>
       <use xlink:href="#DejaVuSans-75" transform="translate(381.25 0)"/>
       <use xlink:href="#DejaVuSans-72" transform="translate(444.628906 0)"/>
       <use xlink:href="#DejaVuSans-61" transform="translate(485.742188 0)"/>
       <use xlink:href="#DejaVuSans-74" transform="translate(547.021484 0)"/>
       <use xlink:href="#DejaVuSans-69" transform="translate(586.230469 0)"/>
       <use xlink:href="#DejaVuSans-6f" transform="translate(614.013672 0)"/>
       <use xlink:href="#DejaVuSans-6e" transform="translate(675.195312 0)"/>
      </g>
     </g>
    </g>
    <g id="xtick_3">
     <g id="line2d_3">
      <g>
       <use xlink:href="#m0ab324530c" x="412.521208" y="284.741751" style="stroke: #000000; stroke-width: 0.8"/>
      </g>
     </g>
     <g id="text_3">
      <!-- Log-Normal- -->
      <g transform="translate(384.574002 328.953441) rotate(-30) scale(0.1 -0.1)">
       <defs>
        <path id="DejaVuSans-4c" d="M 628 4666 
L 1259 4666 
L 1259 531 
L 3531 531 
L 3531 0 
L 628 0 
L 628 4666 
z
" transform="scale(0.015625)"/>
        <path id="DejaVuSans-67" d="M 2906 1791 
Q 2906 2416 2648 2759 
Q 2391 3103 1925 3103 
Q 1463 3103 1205 2759 
Q 947 2416 947 1791 
Q 947 1169 1205 825 
Q 1463 481 1925 481 
Q 2391 481 2648 825 
Q 2906 1169 2906 1791 
z
M 3481 434 
Q 3481 -459 3084 -895 
Q 2688 -1331 1869 -1331 
Q 1566 -1331 1297 -1286 
Q 1028 -1241 775 -1147 
L 775 -588 
Q 1028 -725 1275 -790 
Q 1522 -856 1778 -856 
Q 2344 -856 2625 -561 
Q 2906 -266 2906 331 
L 2906 616 
Q 2728 306 2450 153 
Q 2172 0 1784 0 
Q 1141 0 747 490 
Q 353 981 353 1791 
Q 353 2603 747 3093 
Q 1141 3584 1784 3584 
Q 2172 3584 2450 3431 
Q 2728 3278 2906 2969 
L 2906 3500 
L 3481 3500 
L 3481 434 
z
" transform="scale(0.015625)"/>
        <path id="DejaVuSans-2d" d="M 313 2009 
L 1997 2009 
L 1997 1497 
L 313 1497 
L 313 2009 
z
" transform="scale(0.015625)"/>
        <path id="DejaVuSans-6d" d="M 3328 2828 
Q 3544 3216 3844 3400 
Q 4144 3584 4550 3584 
Q 5097 3584 5394 3201 
Q 5691 2819 5691 2113 
L 5691 0 
L 5113 0 
L 5113 2094 
Q 5113 2597 4934 2840 
Q 4756 3084 4391 3084 
Q 3944 3084 3684 2787 
Q 3425 2491 3425 1978 
L 3425 0 
L 2847 0 
L 2847 2094 
Q 2847 2600 2669 2842 
Q 2491 3084 2119 3084 
Q 1678 3084 1418 2786 
Q 1159 2488 1159 1978 
L 1159 0 
L 581 0 
L 581 3500 
L 1159 3500 
L 1159 2956 
Q 1356 3278 1631 3431 
Q 1906 3584 2284 3584 
Q 2666 3584 2933 3390 
Q 3200 3197 3328 2828 
z
" transform="scale(0.015625)"/>
        <path id="DejaVuSans-6c" d="M 603 4863 
L 1178 4863 
L 1178 0 
L 603 0 
L 603 4863 
z
" transform="scale(0.015625)"/>
       </defs>
       <use xlink:href="#DejaVuSans-4c"/>
       <use xlink:href="#DejaVuSans-6f" transform="translate(53.962891 0)"/>
       <use xlink:href="#DejaVuSans-67" transform="translate(115.144531 0)"/>
       <use xlink:href="#DejaVuSans-2d" transform="translate(178.621094 0)"/>
       <use xlink:href="#DejaVuSans-4e" transform="translate(214.705078 0)"/>
       <use xlink:href="#DejaVuSans-6f" transform="translate(289.509766 0)"/>
       <use xlink:href="#DejaVuSans-72" transform="translate(350.691406 0)"/>
       <use xlink:href="#DejaVuSans-6d" transform="translate(390.054688 0)"/>
       <use xlink:href="#DejaVuSans-61" transform="translate(487.466797 0)"/>
       <use xlink:href="#DejaVuSans-6c" transform="translate(548.746094 0)"/>
       <use xlink:href="#DejaVuSans-2d" transform="translate(576.529297 0)"/>
      </g>
      <!-- Distribution -->
      <g transform="translate(391.43947 337.919781) rotate(-30) scale(0.1 -0.1)">
       <defs>
        <path id="DejaVuSans-62" d="M 3116 1747 
Q 3116 2381 2855 2742 
Q 2594 3103 2138 3103 
Q 1681 3103 1420 2742 
Q 1159 2381 1159 1747 
Q 1159 1113 1420 752 
Q 1681 391 2138 391 
Q 2594 391 2855 752 
Q 3116 1113 3116 1747 
z
M 1159 2969 
Q 1341 3281 1617 3432 
Q 1894 3584 2278 3584 
Q 2916 3584 3314 3078 
Q 3713 2572 3713 1747 
Q 3713 922 3314 415 
Q 2916 -91 2278 -91 
Q 1894 -91 1617 61 
Q 1341 213 1159 525 
L 1159 0 
L 581 0 
L 581 4863 
L 1159 4863 
L 1159 2969 
z
" transform="scale(0.015625)"/>
       </defs>
       <use xlink:href="#DejaVuSans-44"/>
       <use xlink:href="#DejaVuSans-69" transform="translate(77.001953 0)"/>
       <use xlink:href="#DejaVuSans-73" transform="translate(104.785156 0)"/>
       <use xlink:href="#DejaVuSans-74" transform="translate(156.884766 0)"/>
       <use xlink:href="#DejaVuSans-72" transform="translate(196.09375 0)"/>
       <use xlink:href="#DejaVuSans-69" transform="translate(237.207031 0)"/>
       <use xlink:href="#DejaVuSans-62" transform="translate(264.990234 0)"/>
       <use xlink:href="#DejaVuSans-75" transform="translate(328.466797 0)"/>
       <use xlink:href="#DejaVuSans-74" transform="translate(391.845703 0)"/>
       <use xlink:href="#DejaVuSans-69" transform="translate(431.054688 0)"/>
       <use xlink:href="#DejaVuSans-6f" transform="translate(458.837891 0)"/>
       <use xlink:href="#DejaVuSans-6e" transform="translate(520.019531 0)"/>
      </g>
     </g>
    </g>
    <g id="xtick_4">
     <g id="line2d_4">
      <g>
       <use xlink:href="#m0ab324530c" x="553.828624" y="284.741751" style="stroke: #000000; stroke-width: 0.8"/>
      </g>
     </g>
     <g id="text_4">
      <!-- Nonparametric- -->
      <g transform="translate(518.4336 337.553441) rotate(-30) scale(0.1 -0.1)">
       <defs>
        <path id="DejaVuSans-70" d="M 1159 525 
L 1159 -1331 
L 581 -1331 
L 581 3500 
L 1159 3500 
L 1159 2969 
Q 1341 3281 1617 3432 
Q 1894 3584 2278 3584 
Q 2916 3584 3314 3078 
Q 3713 2572 3713 1747 
Q 3713 922 3314 415 
Q 2916 -91 2278 -91 
Q 1894 -91 1617 61 
Q 1341 213 1159 525 
z
M 3116 1747 
Q 3116 2381 2855 2742 
Q 2594 3103 2138 3103 
Q 1681 3103 1420 2742 
Q 1159 2381 1159 1747 
Q 1159 1113 1420 752 
Q 1681 391 2138 391 
Q 2594 391 2855 752 
Q 3116 1113 3116 1747 
z
" transform="scale(0.015625)"/>
        <path id="DejaVuSans-63" d="M 3122 3366 
L 3122 2828 
Q 2878 2963 2633 3030 
Q 2388 3097 2138 3097 
Q 1578 3097 1268 2742 
Q 959 2388 959 1747 
Q 959 1106 1268 751 
Q 1578 397 2138 397 
Q 2388 397 2633 464 
Q 2878 531 3122 666 
L 3122 134 
Q 2881 22 2623 -34 
Q 2366 -91 2075 -91 
Q 1284 -91 818 406 
Q 353 903 353 1747 
Q 353 2603 823 3093 
Q 1294 3584 2113 3584 
Q 2378 3584 2631 3529 
Q 2884 3475 3122 3366 
z
" transform="scale(0.015625)"/>
       </defs>
       <use xlink:href="#DejaVuSans-4e"/>
       <use xlink:href="#DejaVuSans-6f" transform="translate(74.804688 0)"/>
       <use xlink:href="#DejaVuSans-6e" transform="translate(135.986328 0)"/>
       <use xlink:href="#DejaVuSans-70" transform="translate(199.365234 0)"/>
       <use xlink:href="#DejaVuSans-61" transform="translate(262.841797 0)"/>
       <use xlink:href="#DejaVuSans-72" transform="translate(324.121094 0)"/>
       <use xlink:href="#DejaVuSans-61" transform="translate(365.234375 0)"/>
       <use xlink:href="#DejaVuSans-6d" transform="translate(426.513672 0)"/>
       <use xlink:href="#DejaVuSans-65" transform="translate(523.925781 0)"/>
       <use xlink:href="#DejaVuSans-74" transform="translate(585.449219 0)"/>
       <use xlink:href="#DejaVuSans-72" transform="translate(624.658203 0)"/>
       <use xlink:href="#DejaVuSans-69" transform="translate(665.771484 0)"/>
       <use xlink:href="#DejaVuSans-63" transform="translate(693.554688 0)"/>
       <use xlink:href="#DejaVuSans-2d" transform="translate(748.535156 0)"/>
      </g>
      <!-- Distribution -->
      <g transform="translate(532.746887 342.219781) rotate(-30) scale(0.1 -0.1)">
       <use xlink:href="#DejaVuSans-44"/>
       <use xlink:href="#DejaVuSans-69" transform="translate(77.001953 0)"/>
       <use xlink:href="#DejaVuSans-73" transform="translate(104.785156 0)"/>
       <use xlink:href="#DejaVuSans-74" transform="translate(156.884766 0)"/>
       <use xlink:href="#DejaVuSans-72" transform="translate(196.09375 0)"/>
       <use xlink:href="#DejaVuSans-69" transform="translate(237.207031 0)"/>
       <use xlink:href="#DejaVuSans-62" transform="translate(264.990234 0)"/>
       <use xlink:href="#DejaVuSans-75" transform="translate(328.466797 0)"/>
       <use xlink:href="#DejaVuSans-74" transform="translate(391.845703 0)"/>
       <use xlink:href="#DejaVuSans-69" transform="translate(431.054688 0)"/>
       <use xlink:href="#DejaVuSans-6f" transform="translate(458.837891 0)"/>
       <use xlink:href="#DejaVuSans-6e" transform="translate(520.019531 0)"/>
      </g>
     </g>
    </g>
   </g>
   <g id="matplotlib.axis_2">
    <g id="ytick_1">
     <g id="line2d_5">
      <defs>
       <path id="m1d31faf93b" d="M 0 0 
L -3.5 0 
" style="stroke: #000000; stroke-width: 0.8"/>
      </defs>
      <g>
       <use xlink:href="#m1d31faf93b" x="46.535" y="264.636296" style="stroke: #000000; stroke-width: 0.8"/>
      </g>
     </g>
     <g id="text_5">
      <!-- 0 -->
      <g transform="translate(33.1725 268.435515) scale(0.1 -0.1)">
       <defs>
        <path id="DejaVuSans-30" d="M 2034 4250 
Q 1547 4250 1301 3770 
Q 1056 3291 1056 2328 
Q 1056 1369 1301 889 
Q 1547 409 2034 409 
Q 2525 409 2770 889 
Q 3016 1369 3016 2328 
Q 3016 3291 2770 3770 
Q 2525 4250 2034 4250 
z
M 2034 4750 
Q 2819 4750 3233 4129 
Q 3647 3509 3647 2328 
Q 3647 1150 3233 529 
Q 2819 -91 2034 -91 
Q 1250 -91 836 529 
Q 422 1150 422 2328 
Q 422 3509 836 4129 
Q 1250 4750 2034 4750 
z
" transform="scale(0.015625)"/>
       </defs>
       <use xlink:href="#DejaVuSans-30"/>
      </g>
     </g>
    </g>
    <g id="ytick_2">
     <g id="line2d_6">
      <g>
       <use xlink:href="#m1d31faf93b" x="46.535" y="233.657312" style="stroke: #000000; stroke-width: 0.8"/>
      </g>
     </g>
     <g id="text_6">
      <!-- 5 -->
      <g transform="translate(33.1725 237.456531) scale(0.1 -0.1)">
       <defs>
        <path id="DejaVuSans-35" d="M 691 4666 
L 3169 4666 
L 3169 4134 
L 1269 4134 
L 1269 2991 
Q 1406 3038 1543 3061 
Q 1681 3084 1819 3084 
Q 2600 3084 3056 2656 
Q 3513 2228 3513 1497 
Q 3513 744 3044 326 
Q 2575 -91 1722 -91 
Q 1428 -91 1123 -41 
Q 819 9 494 109 
L 494 744 
Q 775 591 1075 516 
Q 1375 441 1709 441 
Q 2250 441 2565 725 
Q 2881 1009 2881 1497 
Q 2881 1984 2565 2268 
Q 2250 2553 1709 2553 
Q 1456 2553 1204 2497 
Q 953 2441 691 2322 
L 691 4666 
z
" transform="scale(0.015625)"/>
       </defs>
       <use xlink:href="#DejaVuSans-35"/>
      </g>
     </g>
    </g>
    <g id="ytick_3">
     <g id="line2d_7">
      <g>
       <use xlink:href="#m1d31faf93b" x="46.535" y="202.678328" style="stroke: #000000; stroke-width: 0.8"/>
      </g>
     </g>
     <g id="text_7">
      <!-- 10 -->
      <g transform="translate(26.81 206.477546) scale(0.1 -0.1)">
       <defs>
        <path id="DejaVuSans-31" d="M 794 531 
L 1825 531 
L 1825 4091 
L 703 3866 
L 703 4441 
L 1819 4666 
L 2450 4666 
L 2450 531 
L 3481 531 
L 3481 0 
L 794 0 
L 794 531 
z
" transform="scale(0.015625)"/>
       </defs>
       <use xlink:href="#DejaVuSans-31"/>
       <use xlink:href="#DejaVuSans-30" transform="translate(63.623047 0)"/>
      </g>
     </g>
    </g>
    <g id="ytick_4">
     <g id="line2d_8">
      <g>
       <use xlink:href="#m1d31faf93b" x="46.535" y="171.699343" style="stroke: #000000; stroke-width: 0.8"/>
      </g>
     </g>
     <g id="text_8">
      <!-- 15 -->
      <g transform="translate(26.81 175.498562) scale(0.1 -0.1)">
       <use xlink:href="#DejaVuSans-31"/>
       <use xlink:href="#DejaVuSans-35" transform="translate(63.623047 0)"/>
      </g>
     </g>
    </g>
    <g id="ytick_5">
     <g id="line2d_9">
      <g>
       <use xlink:href="#m1d31faf93b" x="46.535" y="140.720359" style="stroke: #000000; stroke-width: 0.8"/>
      </g>
     </g>
     <g id="text_9">
      <!-- 20 -->
      <g transform="translate(26.81 144.519578) scale(0.1 -0.1)">
       <defs>
        <path id="DejaVuSans-32" d="M 1228 531 
L 3431 531 
L 3431 0 
L 469 0 
L 469 531 
Q 828 903 1448 1529 
Q 2069 2156 2228 2338 
Q 2531 2678 2651 2914 
Q 2772 3150 2772 3378 
Q 2772 3750 2511 3984 
Q 2250 4219 1831 4219 
Q 1534 4219 1204 4116 
Q 875 4013 500 3803 
L 500 4441 
Q 881 4594 1212 4672 
Q 1544 4750 1819 4750 
Q 2544 4750 2975 4387 
Q 3406 4025 3406 3419 
Q 3406 3131 3298 2873 
Q 3191 2616 2906 2266 
Q 2828 2175 2409 1742 
Q 1991 1309 1228 531 
z
" transform="scale(0.015625)"/>
       </defs>
       <use xlink:href="#DejaVuSans-32"/>
       <use xlink:href="#DejaVuSans-30" transform="translate(63.623047 0)"/>
      </g>
     </g>
    </g>
    <g id="ytick_6">
     <g id="line2d_10">
      <g>
       <use xlink:href="#m1d31faf93b" x="46.535" y="109.741375" style="stroke: #000000; stroke-width: 0.8"/>
      </g>
     </g>
     <g id="text_10">
      <!-- 25 -->
      <g transform="translate(26.81 113.540594) scale(0.1 -0.1)">
       <use xlink:href="#DejaVuSans-32"/>
       <use xlink:href="#DejaVuSans-35" transform="translate(63.623047 0)"/>
      </g>
     </g>
    </g>
    <g id="ytick_7">
     <g id="line2d_11">
      <g>
       <use xlink:href="#m1d31faf93b" x="46.535" y="78.762391" style="stroke: #000000; stroke-width: 0.8"/>
      </g>
     </g>
     <g id="text_11">
      <!-- 30 -->
      <g transform="translate(26.81 82.561609) scale(0.1 -0.1)">
       <defs>
        <path id="DejaVuSans-33" d="M 2597 2516 
Q 3050 2419 3304 2112 
Q 3559 1806 3559 1356 
Q 3559 666 3084 287 
Q 2609 -91 1734 -91 
Q 1441 -91 1130 -33 
Q 819 25 488 141 
L 488 750 
Q 750 597 1062 519 
Q 1375 441 1716 441 
Q 2309 441 2620 675 
Q 2931 909 2931 1356 
Q 2931 1769 2642 2001 
Q 2353 2234 1838 2234 
L 1294 2234 
L 1294 2753 
L 1863 2753 
Q 2328 2753 2575 2939 
Q 2822 3125 2822 3475 
Q 2822 3834 2567 4026 
Q 2313 4219 1838 4219 
Q 1578 4219 1281 4162 
Q 984 4106 628 3988 
L 628 4550 
Q 988 4650 1302 4700 
Q 1616 4750 1894 4750 
Q 2613 4750 3031 4423 
Q 3450 4097 3450 3541 
Q 3450 3153 3228 2886 
Q 3006 2619 2597 2516 
z
" transform="scale(0.015625)"/>
       </defs>
       <use xlink:href="#DejaVuSans-33"/>
       <use xlink:href="#DejaVuSans-30" transform="translate(63.623047 0)"/>
      </g>
     </g>
    </g>
    <g id="ytick_8">
     <g id="line2d_12">
      <g>
       <use xlink:href="#m1d31faf93b" x="46.535" y="47.783406" style="stroke: #000000; stroke-width: 0.8"/>
      </g>
     </g>
     <g id="text_12">
      <!-- 35 -->
      <g transform="translate(26.81 51.582625) scale(0.1 -0.1)">
       <use xlink:href="#DejaVuSans-33"/>
       <use xlink:href="#DejaVuSans-35" transform="translate(63.623047 0)"/>
      </g>
     </g>
    </g>
    <g id="ytick_9">
     <g id="line2d_13">
      <g>
       <use xlink:href="#m1d31faf93b" x="46.535" y="16.804422" style="stroke: #000000; stroke-width: 0.8"/>
      </g>
     </g>
     <g id="text_13">
      <!-- 40 -->
      <g transform="translate(26.81 20.603641) scale(0.1 -0.1)">
       <defs>
        <path id="DejaVuSans-34" d="M 2419 4116 
L 825 1625 
L 2419 1625 
L 2419 4116 
z
M 2253 4666 
L 3047 4666 
L 3047 1625 
L 3713 1625 
L 3713 1100 
L 3047 1100 
L 3047 0 
L 2419 0 
L 2419 1100 
L 313 1100 
L 313 1709 
L 2253 4666 
z
" transform="scale(0.015625)"/>
       </defs>
       <use xlink:href="#DejaVuSans-34"/>
       <use xlink:href="#DejaVuSans-30" transform="translate(63.623047 0)"/>
      </g>
     </g>
    </g>
    <g id="text_14">
     <!-- leven_a3_0_seq -->
     <g transform="translate(19.980625 195.113688) rotate(-90) scale(0.12 -0.12)">
      <defs>
       <path id="DejaVuSans-76" d="M 191 3500 
L 800 3500 
L 1894 563 
L 2988 3500 
L 3597 3500 
L 2284 0 
L 1503 0 
L 191 3500 
z
" transform="scale(0.015625)"/>
       <path id="DejaVuSans-5f" d="M 3263 -1063 
L 3263 -1509 
L -63 -1509 
L -63 -1063 
L 3263 -1063 
z
" transform="scale(0.015625)"/>
       <path id="DejaVuSans-71" d="M 947 1747 
Q 947 1113 1208 752 
Q 1469 391 1925 391 
Q 2381 391 2643 752 
Q 2906 1113 2906 1747 
Q 2906 2381 2643 2742 
Q 2381 3103 1925 3103 
Q 1469 3103 1208 2742 
Q 947 2381 947 1747 
z
M 2906 525 
Q 2725 213 2448 61 
Q 2172 -91 1784 -91 
Q 1150 -91 751 415 
Q 353 922 353 1747 
Q 353 2572 751 3078 
Q 1150 3584 1784 3584 
Q 2172 3584 2448 3432 
Q 2725 3281 2906 2969 
L 2906 3500 
L 3481 3500 
L 3481 -1331 
L 2906 -1331 
L 2906 525 
z
" transform="scale(0.015625)"/>
      </defs>
      <use xlink:href="#DejaVuSans-6c"/>
      <use xlink:href="#DejaVuSans-65" transform="translate(27.783203 0)"/>
      <use xlink:href="#DejaVuSans-76" transform="translate(89.306641 0)"/>
      <use xlink:href="#DejaVuSans-65" transform="translate(148.486328 0)"/>
      <use xlink:href="#DejaVuSans-6e" transform="translate(210.009766 0)"/>
      <use xlink:href="#DejaVuSans-5f" transform="translate(273.388672 0)"/>
      <use xlink:href="#DejaVuSans-61" transform="translate(323.388672 0)"/>
      <use xlink:href="#DejaVuSans-33" transform="translate(384.667969 0)"/>
      <use xlink:href="#DejaVuSans-5f" transform="translate(448.291016 0)"/>
      <use xlink:href="#DejaVuSans-30" transform="translate(498.291016 0)"/>
      <use xlink:href="#DejaVuSans-5f" transform="translate(561.914062 0)"/>
      <use xlink:href="#DejaVuSans-73" transform="translate(611.914062 0)"/>
      <use xlink:href="#DejaVuSans-65" transform="translate(664.013672 0)"/>
      <use xlink:href="#DejaVuSans-71" transform="translate(725.537109 0)"/>
     </g>
    </g>
   </g>
   <g id="line2d_14">
    <path d="M 87.606061 196.482531 
L 172.20669 196.482531 
" clip-path="url(#pf32c256525)" style="fill: none; stroke-dasharray: 1.5,0.9; stroke-dashoffset: 0; stroke: #525252; stroke-width: 1.2"/>
   </g>
   <g id="line2d_15">
    <path d="M 73.445364 165.503546 
L 186.367387 165.503546 
" clip-path="url(#pf32c256525)" style="fill: none; stroke-dasharray: 3,1.2; stroke-dashoffset: 0; stroke: #525252; stroke-width: 1.2"/>
   </g>
   <g id="line2d_16">
    <path d="M 87.023993 134.524562 
L 172.788758 134.524562 
" clip-path="url(#pf32c256525)" style="fill: none; stroke-dasharray: 1.5,0.9; stroke-dashoffset: 0; stroke: #525252; stroke-width: 1.2"/>
   </g>
   <g id="line2d_17">
    <path d="M 224.780638 131.426664 
L 317.646946 131.426664 
" clip-path="url(#pf32c256525)" style="fill: none; stroke-dasharray: 1.5,0.9; stroke-dashoffset: 0; stroke: #525252; stroke-width: 1.2"/>
   </g>
   <g id="line2d_18">
    <path d="M 214.737958 115.937172 
L 327.689626 115.937172 
" clip-path="url(#pf32c256525)" style="fill: none; stroke-dasharray: 3,1.2; stroke-dashoffset: 0; stroke: #525252; stroke-width: 1.2"/>
   </g>
   <g id="line2d_19">
    <path d="M 219.680093 103.545578 
L 322.747491 103.545578 
" clip-path="url(#pf32c256525)" style="fill: none; stroke-dasharray: 1.5,0.9; stroke-dashoffset: 0; stroke: #525252; stroke-width: 1.2"/>
   </g>
   <g id="line2d_20">
    <path d="M 375.819882 119.03507 
L 449.222534 119.03507 
" clip-path="url(#pf32c256525)" style="fill: none; stroke-dasharray: 1.5,0.9; stroke-dashoffset: 0; stroke: #525252; stroke-width: 1.2"/>
   </g>
   <g id="line2d_21">
    <path d="M 357.021801 97.349781 
L 468.020615 97.349781 
" clip-path="url(#pf32c256525)" style="fill: none; stroke-dasharray: 3,1.2; stroke-dashoffset: 0; stroke: #525252; stroke-width: 1.2"/>
   </g>
   <g id="line2d_22">
    <path d="M 358.852972 84.958188 
L 466.189445 84.958188 
" clip-path="url(#pf32c256525)" style="fill: none; stroke-dasharray: 1.5,0.9; stroke-dashoffset: 0; stroke: #525252; stroke-width: 1.2"/>
   </g>
   <g id="line2d_23">
    <path d="M 512.660785 131.426664 
L 594.996463 131.426664 
" clip-path="url(#pf32c256525)" style="fill: none; stroke-dasharray: 1.5,0.9; stroke-dashoffset: 0; stroke: #525252; stroke-width: 1.2"/>
   </g>
   <g id="line2d_24">
    <path d="M 504.031014 103.545578 
L 603.626235 103.545578 
" clip-path="url(#pf32c256525)" style="fill: none; stroke-dasharray: 3,1.2; stroke-dashoffset: 0; stroke: #525252; stroke-width: 1.2"/>
   </g>
   <g id="line2d_25">
    <path d="M 497.640203 81.860289 
L 610.017046 81.860289 
" clip-path="url(#pf32c256525)" style="fill: none; stroke-dasharray: 1.5,0.9; stroke-dashoffset: 0; stroke: #525252; stroke-width: 1.2"/>
   </g>
   <g id="LineCollection_1">
    <path d="M 129.906376 203.46879 
L 129.906376 126.546976 
" clip-path="url(#pf32c256525)" style="fill: none; stroke: #000000; stroke-width: 1.5"/>
    <path d="M 271.213792 142.805255 
L 271.213792 96.669266 
" clip-path="url(#pf32c256525)" style="fill: none; stroke: #000000; stroke-width: 1.5"/>
    <path d="M 412.521208 132.550475 
L 412.521208 74.375459 
" clip-path="url(#pf32c256525)" style="fill: none; stroke: #000000; stroke-width: 1.5"/>
    <path d="M 553.828624 142.608824 
L 553.828624 75.717377 
" clip-path="url(#pf32c256525)" style="fill: none; stroke: #000000; stroke-width: 1.5"/>
   </g>
   <g id="line2d_26">
    <defs>
     <path id="m993c481801" d="M 5 0 
L -5 -0 
" style="stroke: #000000"/>
    </defs>
    <g clip-path="url(#pf32c256525)">
     <use xlink:href="#m993c481801" x="129.906376" y="203.46879" style="stroke: #000000"/>
     <use xlink:href="#m993c481801" x="271.213792" y="142.805255" style="stroke: #000000"/>
     <use xlink:href="#m993c481801" x="412.521208" y="132.550475" style="stroke: #000000"/>
     <use xlink:href="#m993c481801" x="553.828624" y="142.608824" style="stroke: #000000"/>
    </g>
   </g>
   <g id="line2d_27">
    <g clip-path="url(#pf32c256525)">
     <use xlink:href="#m993c481801" x="129.906376" y="126.546976" style="stroke: #000000"/>
     <use xlink:href="#m993c481801" x="271.213792" y="96.669266" style="stroke: #000000"/>
     <use xlink:href="#m993c481801" x="412.521208" y="74.375459" style="stroke: #000000"/>
     <use xlink:href="#m993c481801" x="553.828624" y="75.717377" style="stroke: #000000"/>
    </g>
   </g>
   <g id="line2d_28">
    <defs>
     <path id="m090e861181" d="M 0 3 
C 0.795609 3 1.55874 2.683901 2.12132 2.12132 
C 2.683901 1.55874 3 0.795609 3 0 
C 3 -0.795609 2.683901 -1.55874 2.12132 -2.12132 
C 1.55874 -2.683901 0.795609 -3 0 -3 
C -0.795609 -3 -1.55874 -2.683901 -2.12132 -2.12132 
C -2.683901 -1.55874 -3 -0.795609 -3 0 
C -3 0.795609 -2.683901 1.55874 -2.12132 2.12132 
C -1.55874 2.683901 -0.795609 3 0 3 
z
" style="stroke: #000000"/>
    </defs>
    <g clip-path="url(#pf32c256525)">
     <use xlink:href="#m090e861181" x="129.906376" y="165.007883" style="stroke: #000000"/>
     <use xlink:href="#m090e861181" x="271.213792" y="119.73726" style="stroke: #000000"/>
     <use xlink:href="#m090e861181" x="412.521208" y="103.462967" style="stroke: #000000"/>
     <use xlink:href="#m090e861181" x="553.828624" y="109.163101" style="stroke: #000000"/>
    </g>
   </g>
   <g id="patch_3">
    <path d="M 46.535 284.741751 
L 46.535 10.8 
" style="fill: none; stroke: #000000; stroke-width: 0.8; stroke-linejoin: miter; stroke-linecap: square"/>
   </g>
   <g id="patch_4">
    <path d="M 637.2 284.741751 
L 637.2 10.8 
" style="fill: none; stroke: #000000; stroke-width: 0.8; stroke-linejoin: miter; stroke-linecap: square"/>
   </g>
   <g id="patch_5">
    <path d="M 46.535 284.741751 
L 637.2 284.741751 
" style="fill: none; stroke: #000000; stroke-width: 0.8; stroke-linejoin: miter; stroke-linecap: square"/>
   </g>
   <g id="patch_6">
    <path d="M 46.535 10.8 
L 637.2 10.8 
" style="fill: none; stroke: #000000; stroke-width: 0.8; stroke-linejoin: miter; stroke-linecap: square"/>
   </g>
   <g id="text_15">
    <!-- 16.08 -->
    <g transform="translate(117.023719 121.577359) scale(0.09 -0.09)">
     <defs>
      <path id="DejaVuSans-36" d="M 2113 2584 
Q 1688 2584 1439 2293 
Q 1191 2003 1191 1497 
Q 1191 994 1439 701 
Q 1688 409 2113 409 
Q 2538 409 2786 701 
Q 3034 994 3034 1497 
Q 3034 2003 2786 2293 
Q 2538 2584 2113 2584 
z
M 3366 4563 
L 3366 3988 
Q 3128 4100 2886 4159 
Q 2644 4219 2406 4219 
Q 1781 4219 1451 3797 
Q 1122 3375 1075 2522 
Q 1259 2794 1537 2939 
Q 1816 3084 2150 3084 
Q 2853 3084 3261 2657 
Q 3669 2231 3669 1497 
Q 3669 778 3244 343 
Q 2819 -91 2113 -91 
Q 1303 -91 875 529 
Q 447 1150 447 2328 
Q 447 3434 972 4092 
Q 1497 4750 2381 4750 
Q 2619 4750 2861 4703 
Q 3103 4656 3366 4563 
z
" transform="scale(0.015625)"/>
      <path id="DejaVuSans-2e" d="M 684 794 
L 1344 794 
L 1344 0 
L 684 0 
L 684 794 
z
" transform="scale(0.015625)"/>
      <path id="DejaVuSans-38" d="M 2034 2216 
Q 1584 2216 1326 1975 
Q 1069 1734 1069 1313 
Q 1069 891 1326 650 
Q 1584 409 2034 409 
Q 2484 409 2743 651 
Q 3003 894 3003 1313 
Q 3003 1734 2745 1975 
Q 2488 2216 2034 2216 
z
M 1403 2484 
Q 997 2584 770 2862 
Q 544 3141 544 3541 
Q 544 4100 942 4425 
Q 1341 4750 2034 4750 
Q 2731 4750 3128 4425 
Q 3525 4100 3525 3541 
Q 3525 3141 3298 2862 
Q 3072 2584 2669 2484 
Q 3125 2378 3379 2068 
Q 3634 1759 3634 1313 
Q 3634 634 3220 271 
Q 2806 -91 2034 -91 
Q 1263 -91 848 271 
Q 434 634 434 1313 
Q 434 1759 690 2068 
Q 947 2378 1403 2484 
z
M 1172 3481 
Q 1172 3119 1398 2916 
Q 1625 2713 2034 2713 
Q 2441 2713 2670 2916 
Q 2900 3119 2900 3481 
Q 2900 3844 2670 4047 
Q 2441 4250 2034 4250 
Q 1625 4250 1398 4047 
Q 1172 3844 1172 3481 
z
" transform="scale(0.015625)"/>
     </defs>
     <use xlink:href="#DejaVuSans-31"/>
     <use xlink:href="#DejaVuSans-36" transform="translate(63.623047 0)"/>
     <use xlink:href="#DejaVuSans-2e" transform="translate(127.246094 0)"/>
     <use xlink:href="#DejaVuSans-30" transform="translate(159.033203 0)"/>
     <use xlink:href="#DejaVuSans-38" transform="translate(222.65625 0)"/>
    </g>
   </g>
   <g id="text_16">
    <!-- 23.39 -->
    <g transform="translate(258.331136 91.699649) scale(0.09 -0.09)">
     <defs>
      <path id="DejaVuSans-39" d="M 703 97 
L 703 672 
Q 941 559 1184 500 
Q 1428 441 1663 441 
Q 2288 441 2617 861 
Q 2947 1281 2994 2138 
Q 2813 1869 2534 1725 
Q 2256 1581 1919 1581 
Q 1219 1581 811 2004 
Q 403 2428 403 3163 
Q 403 3881 828 4315 
Q 1253 4750 1959 4750 
Q 2769 4750 3195 4129 
Q 3622 3509 3622 2328 
Q 3622 1225 3098 567 
Q 2575 -91 1691 -91 
Q 1453 -91 1209 -44 
Q 966 3 703 97 
z
M 1959 2075 
Q 2384 2075 2632 2365 
Q 2881 2656 2881 3163 
Q 2881 3666 2632 3958 
Q 2384 4250 1959 4250 
Q 1534 4250 1286 3958 
Q 1038 3666 1038 3163 
Q 1038 2656 1286 2365 
Q 1534 2075 1959 2075 
z
" transform="scale(0.015625)"/>
     </defs>
     <use xlink:href="#DejaVuSans-32"/>
     <use xlink:href="#DejaVuSans-33" transform="translate(63.623047 0)"/>
     <use xlink:href="#DejaVuSans-2e" transform="translate(127.246094 0)"/>
     <use xlink:href="#DejaVuSans-33" transform="translate(159.033203 0)"/>
     <use xlink:href="#DejaVuSans-39" transform="translate(222.65625 0)"/>
    </g>
   </g>
   <g id="text_17">
    <!-- 26.01 -->
    <g transform="translate(399.638552 69.405842) scale(0.09 -0.09)">
     <use xlink:href="#DejaVuSans-32"/>
     <use xlink:href="#DejaVuSans-36" transform="translate(63.623047 0)"/>
     <use xlink:href="#DejaVuSans-2e" transform="translate(127.246094 0)"/>
     <use xlink:href="#DejaVuSans-30" transform="translate(159.033203 0)"/>
     <use xlink:href="#DejaVuSans-31" transform="translate(222.65625 0)"/>
    </g>
   </g>
   <g id="text_18">
    <!-- 25.09 -->
    <g transform="translate(540.945968 70.747759) scale(0.09 -0.09)">
     <use xlink:href="#DejaVuSans-32"/>
     <use xlink:href="#DejaVuSans-35" transform="translate(63.623047 0)"/>
     <use xlink:href="#DejaVuSans-2e" transform="translate(127.246094 0)"/>
     <use xlink:href="#DejaVuSans-30" transform="translate(159.033203 0)"/>
     <use xlink:href="#DejaVuSans-39" transform="translate(222.65625 0)"/>
    </g>
   </g>
  </g>
 </g>
 <defs>
  <clipPath id="pf32c256525">
   <rect x="46.535" y="10.8" width="590.665" height="273.941751"/>
  </clipPath>
 </defs>
</svg>
