<?xml version="1.0" encoding="utf-8" standalone="no"?>
<!DOCTYPE svg PUBLIC "-//W3C//DTD SVG 1.1//EN"
  "http://www.w3.org/Graphics/SVG/1.1/DTD/svg11.dtd">
<svg xmlns:xlink="http://www.w3.org/1999/xlink" width="360pt" height="288pt" viewBox="0 0 360 288" xmlns="http://www.w3.org/2000/svg" version="1.1">
 <metadata>
  <rdf:RDF xmlns:dc="http://purl.org/dc/elements/1.1/" xmlns:cc="http://creativecommons.org/ns#" xmlns:rdf="http://www.w3.org/1999/02/22-rdf-syntax-ns#">
   <cc:Work>
    <dc:type rdf:resource="http://purl.org/dc/dcmitype/StillImage"/>
    <dc:date>2025-05-12T14:19:41.201009</dc:date>
    <dc:format>image/svg+xml</dc:format>
    <dc:creator>
     <cc:Agent>
      <dc:title>Matplotlib v3.10.0, https://matplotlib.org/</dc:title>
     </cc:Agent>
    </dc:creator>
   </cc:Work>
  </rdf:RDF>
 </metadata>
 <defs>
  <style type="text/css">*{stroke-linejoin: round; stroke-linecap: butt}</style>
 </defs>
 <g id="figure_1">
  <g id="patch_1">
   <path d="M 0 288 
L 360 288 
L 360 0 
L 0 0 
z
" style="fill: #ffffff"/>
  </g>
  <g id="axes_1">
   <g id="patch_2">
    <path d="M 44.255 199.294868 
L 349.2 199.294868 
L 349.2 10.8 
L 44.255 10.8 
z
" style="fill: #ffffff"/>
   </g>
   <g id="FillBetweenPolyCollection_1">
    <defs>
     <path id="mc191895689" d="M 87.472173 -97.273081 
L 87.122779 -97.273081 
L 87.058062 -98.716972 
L 86.975583 -100.160863 
L 86.872694 -101.604754 
L 86.74701 -103.048645 
L 86.596601 -104.492537 
L 86.420172 -105.936428 
L 86.217209 -107.380319 
L 85.988075 -108.82421 
L 85.734043 -110.268101 
L 85.45726 -111.711992 
L 85.160634 -113.155883 
L 84.847659 -114.599774 
L 84.522172 -116.043665 
L 84.188059 -117.487556 
L 83.848906 -118.931448 
L 83.507611 -120.375339 
L 83.165962 -121.81923 
L 82.824206 -123.263121 
L 82.480622 -124.707012 
L 82.131159 -126.150903 
L 81.76918 -127.594794 
L 81.385371 -129.038685 
L 80.967876 -130.482576 
L 80.502703 -131.926467 
L 79.974428 -133.370359 
L 79.367181 -134.81425 
L 78.6659 -136.258141 
L 77.857742 -137.702032 
L 76.933581 -139.145923 
L 75.88943 -140.589814 
L 74.727636 -142.033705 
L 73.457716 -143.477596 
L 72.096667 -144.921487 
L 70.668663 -146.365378 
L 69.204088 -147.809269 
L 67.73791 -149.253161 
L 66.307496 -150.697052 
L 64.950031 -152.140943 
L 63.699769 -153.584834 
L 62.585379 -155.028725 
L 61.627656 -156.472616 
L 60.837861 -157.916507 
L 60.216872 -159.360398 
L 59.755275 -160.804289 
L 59.43441 -162.24818 
L 59.228305 -163.692072 
L 59.106322 -165.135963 
L 59.036273 -166.579854 
L 58.9877 -168.023745 
L 58.934987 -169.467636 
L 58.85999 -170.911527 
L 58.75388 -172.355418 
L 58.617998 -173.799309 
L 58.463609 -175.2432 
L 58.310555 -176.687091 
L 58.184944 -178.130983 
L 58.116136 -179.574874 
L 58.133359 -181.018765 
L 58.262352 -182.462656 
L 58.522442 -183.906547 
L 58.924387 -185.350438 
L 59.469256 -186.794329 
L 60.148443 -188.23822 
L 60.944818 -189.682111 
L 61.834828 -191.126002 
L 62.791283 -192.569894 
L 63.786444 -194.013785 
L 64.795028 -195.457676 
L 65.796745 -196.901567 
L 66.778054 -198.345458 
L 67.732934 -199.789349 
L 68.66262 -201.23324 
L 69.574364 -202.677131 
L 70.47945 -204.121022 
L 71.390771 -205.564913 
L 72.320339 -207.008805 
L 73.277071 -208.452696 
L 74.265177 -209.896587 
L 75.283309 -211.340478 
L 76.324559 -212.784369 
L 77.37721 -214.22826 
L 78.426079 -215.672151 
L 79.454181 -217.116042 
L 80.444465 -218.559933 
L 81.381365 -220.003824 
L 82.251995 -221.447716 
L 83.046892 -222.891607 
L 83.760306 -224.335498 
L 84.390072 -225.779389 
L 84.937202 -227.22328 
L 85.405272 -228.667171 
L 85.799763 -230.111062 
L 86.127398 -231.554953 
L 86.395576 -232.998844 
L 86.611898 -234.442735 
L 86.783812 -235.886627 
L 86.918362 -237.330518 
L 87.022013 -238.774409 
L 87.100557 -240.2183 
L 87.494395 -240.2183 
L 87.494395 -240.2183 
L 87.572939 -238.774409 
L 87.67659 -237.330518 
L 87.81114 -235.886627 
L 87.983055 -234.442735 
L 88.199377 -232.998844 
L 88.467554 -231.554953 
L 88.79519 -230.111062 
L 89.18968 -228.667171 
L 89.65775 -227.22328 
L 90.20488 -225.779389 
L 90.834647 -224.335498 
L 91.54806 -222.891607 
L 92.342957 -221.447716 
L 93.213587 -220.003824 
L 94.150487 -218.559933 
L 95.140771 -217.116042 
L 96.168873 -215.672151 
L 97.217742 -214.22826 
L 98.270393 -212.784369 
L 99.311643 -211.340478 
L 100.329776 -209.896587 
L 101.317881 -208.452696 
L 102.274613 -207.008805 
L 103.204181 -205.564913 
L 104.115502 -204.121022 
L 105.020588 -202.677131 
L 105.932332 -201.23324 
L 106.862018 -199.789349 
L 107.816898 -198.345458 
L 108.798207 -196.901567 
L 109.799924 -195.457676 
L 110.808509 -194.013785 
L 111.803669 -192.569894 
L 112.760124 -191.126002 
L 113.650134 -189.682111 
L 114.446509 -188.23822 
L 115.125696 -186.794329 
L 115.670565 -185.350438 
L 116.07251 -183.906547 
L 116.3326 -182.462656 
L 116.461593 -181.018765 
L 116.478816 -179.574874 
L 116.410008 -178.130983 
L 116.284397 -176.687091 
L 116.131343 -175.2432 
L 115.976954 -173.799309 
L 115.841072 -172.355418 
L 115.734962 -170.911527 
L 115.659965 -169.467636 
L 115.607253 -168.023745 
L 115.558679 -166.579854 
L 115.48863 -165.135963 
L 115.366647 -163.692072 
L 115.160542 -162.24818 
L 114.839677 -160.804289 
L 114.37808 -159.360398 
L 113.757091 -157.916507 
L 112.967296 -156.472616 
L 112.009573 -155.028725 
L 110.895183 -153.584834 
L 109.644922 -152.140943 
L 108.287457 -150.697052 
L 106.857042 -149.253161 
L 105.390864 -147.809269 
L 103.926289 -146.365378 
L 102.498285 -144.921487 
L 101.137236 -143.477596 
L 99.867316 -142.033705 
L 98.705522 -140.589814 
L 97.661371 -139.145923 
L 96.737211 -137.702032 
L 95.929053 -136.258141 
L 95.227771 -134.81425 
L 94.620525 -133.370359 
L 94.092249 -131.926467 
L 93.627077 -130.482576 
L 93.209581 -129.038685 
L 92.825772 -127.594794 
L 92.463793 -126.150903 
L 92.11433 -124.707012 
L 91.770746 -123.263121 
L 91.42899 -121.81923 
L 91.087342 -120.375339 
L 90.746046 -118.931448 
L 90.406893 -117.487556 
L 90.07278 -116.043665 
L 89.747294 -114.599774 
L 89.434318 -113.155883 
L 89.137692 -111.711992 
L 88.860909 -110.268101 
L 88.606877 -108.82421 
L 88.377743 -107.380319 
L 88.17478 -105.936428 
L 87.998351 -104.492537 
L 87.847943 -103.048645 
L 87.722258 -101.604754 
L 87.619369 -100.160863 
L 87.53689 -98.716972 
L 87.472173 -97.273081 
z
" style="stroke: #525252; stroke-width: 1.2"/>
    </defs>
    <g clip-path="url(#p0a61c169f7)">
     <use xlink:href="#mc191895689" x="0" y="288" style="fill: #bbbbbb; stroke: #525252; stroke-width: 1.2"/>
    </g>
   </g>
   <g id="FillBetweenPolyCollection_2">
    <defs>
     <path id="mf048210e1f" d="M 160.40091 -110.897624 
L 160.100741 -110.897624 
L 160.050024 -112.183631 
L 159.987845 -113.469638 
L 159.91356 -114.755645 
L 159.827047 -116.041653 
L 159.728752 -117.32766 
L 159.619629 -118.613667 
L 159.500946 -119.899675 
L 159.373932 -121.185682 
L 159.239292 -122.471689 
L 159.096604 -123.757697 
L 158.943671 -125.043704 
L 158.775927 -126.329711 
L 158.58598 -127.615719 
L 158.363413 -128.901726 
L 158.094927 -130.187733 
L 157.764878 -131.473741 
L 157.356228 -132.759748 
L 156.851857 -134.045755 
L 156.236153 -135.331762 
L 155.496733 -136.61777 
L 154.626119 -137.903777 
L 153.623186 -139.189784 
L 152.494187 -140.475792 
L 151.2532 -141.761799 
L 149.921895 -143.047806 
L 148.52855 -144.333814 
L 147.106387 -145.619821 
L 145.691295 -146.905828 
L 144.319176 -148.191836 
L 143.023135 -149.477843 
L 141.83083 -150.76385 
L 140.762258 -152.049858 
L 139.828253 -153.335865 
L 139.029871 -154.621872 
L 138.358755 -155.907879 
L 137.79844 -157.193887 
L 137.326439 -158.479894 
L 136.916875 -159.765901 
L 136.543331 -161.051909 
L 136.181592 -162.337916 
L 135.811973 -163.623923 
L 135.420992 -164.909931 
L 135.002244 -166.195938 
L 134.556414 -167.481945 
L 134.09051 -168.767953 
L 133.616437 -170.05396 
L 133.149134 -171.339967 
L 132.704525 -172.625975 
L 132.297548 -173.911982 
L 131.94051 -175.197989 
L 131.641984 -176.483996 
L 131.406385 -177.770004 
L 131.234258 -179.056011 
L 131.123241 -180.342018 
L 131.069508 -181.628026 
L 131.069486 -182.914033 
L 131.121498 -184.20004 
L 131.227071 -185.486048 
L 131.391624 -186.772055 
L 131.624384 -188.058062 
L 131.937499 -189.34407 
L 132.344449 -190.630077 
L 132.857999 -191.916084 
L 133.488003 -193.202092 
L 134.239436 -194.488099 
L 135.110968 -195.774106 
L 136.094335 -197.060113 
L 137.174612 -198.346121 
L 138.331363 -199.632128 
L 139.540469 -200.918135 
L 140.776379 -202.204143 
L 142.014412 -203.49015 
L 143.232806 -204.776157 
L 144.414237 -206.062165 
L 145.546647 -207.348172 
L 146.623355 -208.634179 
L 147.642526 -209.920187 
L 148.606167 -211.206194 
L 149.518867 -212.492201 
L 150.386492 -213.778209 
L 151.215018 -215.064216 
L 152.009611 -216.350223 
L 152.774016 -217.63623 
L 153.51026 -218.922238 
L 154.21861 -220.208245 
L 154.897751 -221.494252 
L 155.545098 -222.78026 
L 156.157212 -224.066267 
L 156.730245 -225.352274 
L 157.2604 -226.638282 
L 157.744359 -227.924289 
L 158.179647 -229.210296 
L 158.564908 -230.496304 
L 158.90007 -231.782311 
L 159.186385 -233.068318 
L 159.426352 -234.354325 
L 159.623526 -235.640333 
L 159.782255 -236.92634 
L 159.90738 -238.212347 
L 160.59427 -238.212347 
L 160.59427 -238.212347 
L 160.719395 -236.92634 
L 160.878125 -235.640333 
L 161.075299 -234.354325 
L 161.315266 -233.068318 
L 161.601581 -231.782311 
L 161.936743 -230.496304 
L 162.322003 -229.210296 
L 162.757291 -227.924289 
L 163.241251 -226.638282 
L 163.771406 -225.352274 
L 164.344439 -224.066267 
L 164.956552 -222.78026 
L 165.6039 -221.494252 
L 166.28304 -220.208245 
L 166.991391 -218.922238 
L 167.727634 -217.63623 
L 168.49204 -216.350223 
L 169.286632 -215.064216 
L 170.115159 -213.778209 
L 170.982784 -212.492201 
L 171.895484 -211.206194 
L 172.859124 -209.920187 
L 173.878295 -208.634179 
L 174.955004 -207.348172 
L 176.087414 -206.062165 
L 177.268845 -204.776157 
L 178.487239 -203.49015 
L 179.725272 -202.204143 
L 180.961182 -200.918135 
L 182.170288 -199.632128 
L 183.327038 -198.346121 
L 184.407316 -197.060113 
L 185.390683 -195.774106 
L 186.262215 -194.488099 
L 187.013648 -193.202092 
L 187.643652 -191.916084 
L 188.157201 -190.630077 
L 188.564152 -189.34407 
L 188.877266 -188.058062 
L 189.110027 -186.772055 
L 189.27458 -185.486048 
L 189.380153 -184.20004 
L 189.432165 -182.914033 
L 189.432142 -181.628026 
L 189.37841 -180.342018 
L 189.267392 -179.056011 
L 189.095266 -177.770004 
L 188.859667 -176.483996 
L 188.561141 -175.197989 
L 188.204102 -173.911982 
L 187.797125 -172.625975 
L 187.352517 -171.339967 
L 186.885214 -170.05396 
L 186.411141 -168.767953 
L 185.945237 -167.481945 
L 185.499407 -166.195938 
L 185.080658 -164.909931 
L 184.689678 -163.623923 
L 184.320059 -162.337916 
L 183.958319 -161.051909 
L 183.584775 -159.765901 
L 183.175211 -158.479894 
L 182.70321 -157.193887 
L 182.142895 -155.907879 
L 181.47178 -154.621872 
L 180.673398 -153.335865 
L 179.739393 -152.049858 
L 178.670821 -150.76385 
L 177.478516 -149.477843 
L 176.182475 -148.191836 
L 174.810356 -146.905828 
L 173.395264 -145.619821 
L 171.9731 -144.333814 
L 170.579756 -143.047806 
L 169.24845 -141.761799 
L 168.007464 -140.475792 
L 166.878464 -139.189784 
L 165.875532 -137.903777 
L 165.004918 -136.61777 
L 164.265497 -135.331762 
L 163.649794 -134.045755 
L 163.145423 -132.759748 
L 162.736773 -131.473741 
L 162.406724 -130.187733 
L 162.138238 -128.901726 
L 161.915671 -127.615719 
L 161.725723 -126.329711 
L 161.55798 -125.043704 
L 161.405047 -123.757697 
L 161.262359 -122.471689 
L 161.127719 -121.185682 
L 161.000705 -119.899675 
L 160.882021 -118.613667 
L 160.772899 -117.32766 
L 160.674604 -116.041653 
L 160.588091 -114.755645 
L 160.513805 -113.469638 
L 160.451626 -112.183631 
L 160.40091 -110.897624 
z
" style="stroke: #525252; stroke-width: 1.2"/>
    </defs>
    <g clip-path="url(#p0a61c169f7)">
     <use xlink:href="#mf048210e1f" x="0" y="288" style="fill: #888888; stroke: #525252; stroke-width: 1.2"/>
    </g>
   </g>
   <g id="FillBetweenPolyCollection_3">
    <defs>
     <path id="mbb92e0573f" d="M 233.45821 -138.57087 
L 232.950139 -138.57087 
L 232.855322 -139.884619 
L 232.735742 -141.198368 
L 232.588827 -142.512118 
L 232.412928 -143.825867 
L 232.207596 -145.139616 
L 231.973737 -146.453366 
L 231.713628 -147.767115 
L 231.43074 -149.080864 
L 231.129403 -150.394614 
L 230.814337 -151.708363 
L 230.490126 -153.022112 
L 230.160705 -154.335862 
L 229.828938 -155.649611 
L 229.496346 -156.96336 
L 229.163011 -158.277109 
L 228.82764 -159.590859 
L 228.487788 -160.904608 
L 228.140166 -162.218357 
L 227.781022 -163.532107 
L 227.406555 -164.845856 
L 227.013321 -166.159605 
L 226.598637 -167.473355 
L 226.160907 -168.787104 
L 225.699856 -170.100853 
L 225.216574 -171.414603 
L 224.713316 -172.728352 
L 224.193003 -174.042101 
L 223.658419 -175.35585 
L 223.111145 -176.6696 
L 222.55038 -177.983349 
L 221.971816 -179.297098 
L 221.366823 -180.610848 
L 220.722185 -181.924597 
L 220.020584 -183.238346 
L 219.241994 -184.552096 
L 218.365968 -185.865845 
L 217.374719 -187.179594 
L 216.256672 -188.493344 
L 215.010082 -189.807093 
L 213.64616 -191.120842 
L 212.191141 -192.434591 
L 210.686758 -193.748341 
L 209.188786 -195.06209 
L 207.763511 -196.375839 
L 206.482346 -197.689589 
L 205.41511 -199.003338 
L 204.622769 -200.317087 
L 204.150612 -201.630837 
L 204.022835 -202.944586 
L 204.23936 -204.258335 
L 204.775424 -205.572085 
L 205.584053 -206.885834 
L 206.601123 -208.199583 
L 207.752333 -209.513333 
L 208.961134 -210.827082 
L 210.156579 -212.140831 
L 211.280088 -213.45458 
L 212.290364 -214.76833 
L 213.165965 -216.082079 
L 213.905432 -217.395828 
L 214.525159 -218.709578 
L 215.055502 -220.023327 
L 215.53575 -221.337076 
L 216.008674 -222.650826 
L 216.515294 -223.964575 
L 217.090432 -225.278324 
L 217.759394 -226.592074 
L 218.536013 -227.905823 
L 219.422054 -229.219572 
L 220.407876 -230.533321 
L 221.474135 -231.847071 
L 222.594221 -233.16082 
L 223.737128 -234.474569 
L 224.870432 -235.788319 
L 225.963095 -237.102068 
L 226.987866 -238.415817 
L 227.923101 -239.729567 
L 228.753906 -241.043316 
L 229.472579 -242.357065 
L 230.078381 -243.670815 
L 230.576736 -244.984564 
L 230.977978 -246.298313 
L 231.295844 -247.612063 
L 231.545841 -248.925812 
L 231.743704 -250.239561 
L 231.904056 -251.55331 
L 232.039402 -252.86706 
L 232.159508 -254.180809 
L 232.27118 -255.494558 
L 232.378405 -256.808308 
L 232.482776 -258.122057 
L 232.584086 -259.435806 
L 232.680997 -260.749556 
L 232.771676 -262.063305 
L 232.854312 -263.377054 
L 232.927495 -264.690804 
L 232.990411 -266.004553 
L 233.042903 -267.318302 
L 233.085406 -268.632051 
L 233.322943 -268.632051 
L 233.322943 -268.632051 
L 233.365446 -267.318302 
L 233.417938 -266.004553 
L 233.480854 -264.690804 
L 233.554037 -263.377054 
L 233.636674 -262.063305 
L 233.727352 -260.749556 
L 233.824264 -259.435806 
L 233.925573 -258.122057 
L 234.029944 -256.808308 
L 234.13717 -255.494558 
L 234.248841 -254.180809 
L 234.368947 -252.86706 
L 234.504293 -251.55331 
L 234.664646 -250.239561 
L 234.862508 -248.925812 
L 235.112506 -247.612063 
L 235.430371 -246.298313 
L 235.831614 -244.984564 
L 236.329968 -243.670815 
L 236.935771 -242.357065 
L 237.654443 -241.043316 
L 238.485248 -239.729567 
L 239.420483 -238.415817 
L 240.445254 -237.102068 
L 241.537918 -235.788319 
L 242.671221 -234.474569 
L 243.814128 -233.16082 
L 244.934214 -231.847071 
L 246.000473 -230.533321 
L 246.986296 -229.219572 
L 247.872336 -227.905823 
L 248.648955 -226.592074 
L 249.317918 -225.278324 
L 249.893055 -223.964575 
L 250.399676 -222.650826 
L 250.872599 -221.337076 
L 251.352847 -220.023327 
L 251.88319 -218.709578 
L 252.502917 -217.395828 
L 253.242384 -216.082079 
L 254.117985 -214.76833 
L 255.128261 -213.45458 
L 256.25177 -212.140831 
L 257.447215 -210.827082 
L 258.656016 -209.513333 
L 259.807226 -208.199583 
L 260.824297 -206.885834 
L 261.632925 -205.572085 
L 262.168989 -204.258335 
L 262.385514 -202.944586 
L 262.257737 -201.630837 
L 261.785581 -200.317087 
L 260.99324 -199.003338 
L 259.926003 -197.689589 
L 258.644838 -196.375839 
L 257.219563 -195.06209 
L 255.721591 -193.748341 
L 254.217209 -192.434591 
L 252.762189 -191.120842 
L 251.398267 -189.807093 
L 250.151677 -188.493344 
L 249.03363 -187.179594 
L 248.042381 -185.865845 
L 247.166356 -184.552096 
L 246.387765 -183.238346 
L 245.686164 -181.924597 
L 245.041526 -180.610848 
L 244.436534 -179.297098 
L 243.857969 -177.983349 
L 243.297204 -176.6696 
L 242.74993 -175.35585 
L 242.215346 -174.042101 
L 241.695034 -172.728352 
L 241.191775 -171.414603 
L 240.708493 -170.100853 
L 240.247442 -168.787104 
L 239.809713 -167.473355 
L 239.395028 -166.159605 
L 239.001794 -164.845856 
L 238.627327 -163.532107 
L 238.268183 -162.218357 
L 237.920561 -160.904608 
L 237.580709 -159.590859 
L 237.245339 -158.277109 
L 236.912003 -156.96336 
L 236.579411 -155.649611 
L 236.247644 -154.335862 
L 235.918223 -153.022112 
L 235.594013 -151.708363 
L 235.278947 -150.394614 
L 234.977609 -149.080864 
L 234.694721 -147.767115 
L 234.434612 -146.453366 
L 234.200754 -145.139616 
L 233.995421 -143.825867 
L 233.819523 -142.512118 
L 233.672607 -141.198368 
L 233.553027 -139.884619 
L 233.45821 -138.57087 
z
" style="stroke: #525252; stroke-width: 1.2"/>
    </defs>
    <g clip-path="url(#p0a61c169f7)">
     <use xlink:href="#mbb92e0573f" x="0" y="288" style="fill: #aaaaaa; stroke: #525252; stroke-width: 1.2"/>
    </g>
   </g>
   <g id="FillBetweenPolyCollection_4">
    <defs>
     <path id="m9440ed0170" d="M 306.318906 -130.144099 
L 305.996142 -130.144099 
L 305.941764 -131.432487 
L 305.875075 -132.720875 
L 305.795348 -134.009263 
L 305.70242 -135.297651 
L 305.596763 -136.586039 
L 305.479468 -137.874427 
L 305.352109 -139.162815 
L 305.216476 -140.451203 
L 305.074183 -141.739591 
L 304.926182 -143.027979 
L 304.772235 -144.316367 
L 304.610404 -145.604755 
L 304.436642 -146.893143 
L 304.244534 -148.18153 
L 304.025235 -149.469918 
L 303.767631 -150.758306 
L 303.458698 -152.046694 
L 303.084035 -153.335082 
L 302.628524 -154.62347 
L 302.077074 -155.911858 
L 301.415421 -157.200246 
L 300.630979 -158.488634 
L 299.713725 -159.777022 
L 298.657144 -161.06541 
L 297.45921 -162.353798 
L 296.123353 -163.642186 
L 294.659344 -164.930574 
L 293.083953 -166.218962 
L 291.421224 -167.50735 
L 289.702235 -168.795737 
L 287.964209 -170.084125 
L 286.248931 -171.372513 
L 284.600534 -172.660901 
L 283.062792 -173.949289 
L 281.676162 -175.237677 
L 280.474873 -176.526065 
L 279.48438 -177.814453 
L 278.719446 -179.102841 
L 278.183084 -180.391229 
L 277.866434 -181.679617 
L 277.749603 -182.968005 
L 277.803324 -184.256393 
L 277.991274 -185.544781 
L 278.272805 -186.833169 
L 278.605817 -188.121557 
L 278.94957 -189.409944 
L 279.267189 -190.698332 
L 279.527748 -191.98672 
L 279.707794 -193.275108 
L 279.792288 -194.563496 
L 279.774929 -195.851884 
L 279.657896 -197.140272 
L 279.451051 -198.42866 
L 279.17069 -199.717048 
L 278.837913 -201.005436 
L 278.476776 -202.293824 
L 278.112326 -203.582212 
L 277.76873 -204.8706 
L 277.467637 -206.158988 
L 277.226954 -207.447376 
L 277.060153 -208.735764 
L 276.976184 -210.024151 
L 276.979971 -211.312539 
L 277.073404 -212.600927 
L 277.256651 -213.889315 
L 277.529568 -215.177703 
L 277.892954 -216.466091 
L 278.349424 -217.754479 
L 278.903743 -219.042867 
L 279.562522 -220.331255 
L 280.333302 -221.619643 
L 281.223158 -222.908031 
L 282.237018 -224.196419 
L 283.375968 -225.484807 
L 284.635809 -226.773195 
L 286.006134 -228.061583 
L 287.47007 -229.349971 
L 289.004775 -230.638358 
L 290.582663 -231.926746 
L 292.173175 -233.215134 
L 293.744904 -234.503522 
L 295.267776 -235.79191 
L 296.715022 -237.080298 
L 298.064726 -238.368686 
L 299.300792 -239.657074 
L 300.413281 -240.945462 
L 301.398179 -242.23385 
L 302.25669 -243.522238 
L 302.994228 -244.810626 
L 303.61928 -246.099014 
L 304.142282 -247.387402 
L 304.574633 -248.67579 
L 304.927904 -249.964178 
L 305.213265 -251.252565 
L 305.441116 -252.540953 
L 305.620882 -253.829341 
L 305.760939 -255.117729 
L 305.868608 -256.406117 
L 305.950203 -257.694505 
L 306.364844 -257.694505 
L 306.364844 -257.694505 
L 306.44644 -256.406117 
L 306.554109 -255.117729 
L 306.694166 -253.829341 
L 306.873932 -252.540953 
L 307.101782 -251.252565 
L 307.387144 -249.964178 
L 307.740415 -248.67579 
L 308.172766 -247.387402 
L 308.695768 -246.099014 
L 309.32082 -244.810626 
L 310.058358 -243.522238 
L 310.916869 -242.23385 
L 311.901767 -240.945462 
L 313.014256 -239.657074 
L 314.250322 -238.368686 
L 315.600026 -237.080298 
L 317.047272 -235.79191 
L 318.570143 -234.503522 
L 320.141873 -233.215134 
L 321.732385 -231.926746 
L 323.310272 -230.638358 
L 324.844978 -229.349971 
L 326.308913 -228.061583 
L 327.679239 -226.773195 
L 328.93908 -225.484807 
L 330.078029 -224.196419 
L 331.09189 -222.908031 
L 331.981746 -221.619643 
L 332.752526 -220.331255 
L 333.411305 -219.042867 
L 333.965624 -217.754479 
L 334.422094 -216.466091 
L 334.78548 -215.177703 
L 335.058397 -213.889315 
L 335.241644 -212.600927 
L 335.335077 -211.312539 
L 335.338864 -210.024151 
L 335.254895 -208.735764 
L 335.088094 -207.447376 
L 334.847411 -206.158988 
L 334.546318 -204.8706 
L 334.202722 -203.582212 
L 333.838272 -202.293824 
L 333.477134 -201.005436 
L 333.144358 -199.717048 
L 332.863996 -198.42866 
L 332.657152 -197.140272 
L 332.540118 -195.851884 
L 332.522759 -194.563496 
L 332.607254 -193.275108 
L 332.7873 -191.98672 
L 333.047859 -190.698332 
L 333.365478 -189.409944 
L 333.709231 -188.121557 
L 334.042243 -186.833169 
L 334.323773 -185.544781 
L 334.511724 -184.256393 
L 334.565445 -182.968005 
L 334.448613 -181.679617 
L 334.131964 -180.391229 
L 333.595602 -179.102841 
L 332.830668 -177.814453 
L 331.840175 -176.526065 
L 330.638886 -175.237677 
L 329.252256 -173.949289 
L 327.714514 -172.660901 
L 326.066117 -171.372513 
L 324.350839 -170.084125 
L 322.612813 -168.795737 
L 320.893824 -167.50735 
L 319.231095 -166.218962 
L 317.655703 -164.930574 
L 316.191695 -163.642186 
L 314.855838 -162.353798 
L 313.657903 -161.06541 
L 312.601323 -159.777022 
L 311.684069 -158.488634 
L 310.899627 -157.200246 
L 310.237974 -155.911858 
L 309.686524 -154.62347 
L 309.231012 -153.335082 
L 308.85635 -152.046694 
L 308.547417 -150.758306 
L 308.289813 -149.469918 
L 308.070514 -148.18153 
L 307.878405 -146.893143 
L 307.704644 -145.604755 
L 307.542813 -144.316367 
L 307.388865 -143.027979 
L 307.240865 -141.739591 
L 307.098572 -140.451203 
L 306.962939 -139.162815 
L 306.83558 -137.874427 
L 306.718285 -136.586039 
L 306.612628 -135.297651 
L 306.5197 -134.009263 
L 306.439973 -132.720875 
L 306.373284 -131.432487 
L 306.318906 -130.144099 
z
" style="stroke: #525252; stroke-width: 1.2"/>
    </defs>
    <g clip-path="url(#p0a61c169f7)">
     <use xlink:href="#m9440ed0170" x="0" y="288" style="fill: #cccccc; stroke: #525252; stroke-width: 1.2"/>
    </g>
   </g>
   <g id="matplotlib.axis_1">
    <g id="xtick_1">
     <g id="line2d_1">
      <defs>
       <path id="mf1b834f103" d="M 0 0 
L 0 3.5 
" style="stroke: #000000; stroke-width: 0.8"/>
      </defs>
      <g>
       <use xlink:href="#mf1b834f103" x="87.297476" y="199.294868" style="stroke: #000000; stroke-width: 0.8"/>
      </g>
     </g>
     <g id="text_1">
      <!-- Bayesian Network -->
      <g transform="translate(57.271402 275.622268) rotate(-45) scale(0.1 -0.1)">
       <defs>
        <path id="DejaVuSans-42" d="M 1259 2228 
L 1259 519 
L 2272 519 
Q 2781 519 3026 730 
Q 3272 941 3272 1375 
Q 3272 1813 3026 2020 
Q 2781 2228 2272 2228 
L 1259 2228 
z
M 1259 4147 
L 1259 2741 
L 2194 2741 
Q 2656 2741 2882 2914 
Q 3109 3088 3109 3444 
Q 3109 3797 2882 3972 
Q 2656 4147 2194 4147 
L 1259 4147 
z
M 628 4666 
L 2241 4666 
Q 2963 4666 3353 4366 
Q 3744 4066 3744 3513 
Q 3744 3084 3544 2831 
Q 3344 2578 2956 2516 
Q 3422 2416 3680 2098 
Q 3938 1781 3938 1306 
Q 3938 681 3513 340 
Q 3088 0 2303 0 
L 628 0 
L 628 4666 
z
" transform="scale(0.015625)"/>
        <path id="DejaVuSans-61" d="M 2194 1759 
Q 1497 1759 1228 1600 
Q 959 1441 959 1056 
Q 959 750 1161 570 
Q 1363 391 1709 391 
Q 2188 391 2477 730 
Q 2766 1069 2766 1631 
L 2766 1759 
L 2194 1759 
z
M 3341 1997 
L 3341 0 
L 2766 0 
L 2766 531 
Q 2569 213 2275 61 
Q 1981 -91 1556 -91 
Q 1019 -91 701 211 
Q 384 513 384 1019 
Q 384 1609 779 1909 
Q 1175 2209 1959 2209 
L 2766 2209 
L 2766 2266 
Q 2766 2663 2505 2880 
Q 2244 3097 1772 3097 
Q 1472 3097 1187 3025 
Q 903 2953 641 2809 
L 641 3341 
Q 956 3463 1253 3523 
Q 1550 3584 1831 3584 
Q 2591 3584 2966 3190 
Q 3341 2797 3341 1997 
z
" transform="scale(0.015625)"/>
        <path id="DejaVuSans-79" d="M 2059 -325 
Q 1816 -950 1584 -1140 
Q 1353 -1331 966 -1331 
L 506 -1331 
L 506 -850 
L 844 -850 
Q 1081 -850 1212 -737 
Q 1344 -625 1503 -206 
L 1606 56 
L 191 3500 
L 800 3500 
L 1894 763 
L 2988 3500 
L 3597 3500 
L 2059 -325 
z
" transform="scale(0.015625)"/>
        <path id="DejaVuSans-65" d="M 3597 1894 
L 3597 1613 
L 953 1613 
Q 991 1019 1311 708 
Q 1631 397 2203 397 
Q 2534 397 2845 478 
Q 3156 559 3463 722 
L 3463 178 
Q 3153 47 2828 -22 
Q 2503 -91 2169 -91 
Q 1331 -91 842 396 
Q 353 884 353 1716 
Q 353 2575 817 3079 
Q 1281 3584 2069 3584 
Q 2775 3584 3186 3129 
Q 3597 2675 3597 1894 
z
M 3022 2063 
Q 3016 2534 2758 2815 
Q 2500 3097 2075 3097 
Q 1594 3097 1305 2825 
Q 1016 2553 972 2059 
L 3022 2063 
z
" transform="scale(0.015625)"/>
        <path id="DejaVuSans-73" d="M 2834 3397 
L 2834 2853 
Q 2591 2978 2328 3040 
Q 2066 3103 1784 3103 
Q 1356 3103 1142 2972 
Q 928 2841 928 2578 
Q 928 2378 1081 2264 
Q 1234 2150 1697 2047 
L 1894 2003 
Q 2506 1872 2764 1633 
Q 3022 1394 3022 966 
Q 3022 478 2636 193 
Q 2250 -91 1575 -91 
Q 1294 -91 989 -36 
Q 684 19 347 128 
L 347 722 
Q 666 556 975 473 
Q 1284 391 1588 391 
Q 1994 391 2212 530 
Q 2431 669 2431 922 
Q 2431 1156 2273 1281 
Q 2116 1406 1581 1522 
L 1381 1569 
Q 847 1681 609 1914 
Q 372 2147 372 2553 
Q 372 3047 722 3315 
Q 1072 3584 1716 3584 
Q 2034 3584 2315 3537 
Q 2597 3491 2834 3397 
z
" transform="scale(0.015625)"/>
        <path id="DejaVuSans-69" d="M 603 3500 
L 1178 3500 
L 1178 0 
L 603 0 
L 603 3500 
z
M 603 4863 
L 1178 4863 
L 1178 4134 
L 603 4134 
L 603 4863 
z
" transform="scale(0.015625)"/>
        <path id="DejaVuSans-6e" d="M 3513 2113 
L 3513 0 
L 2938 0 
L 2938 2094 
Q 2938 2591 2744 2837 
Q 2550 3084 2163 3084 
Q 1697 3084 1428 2787 
Q 1159 2491 1159 1978 
L 1159 0 
L 581 0 
L 581 3500 
L 1159 3500 
L 1159 2956 
Q 1366 3272 1645 3428 
Q 1925 3584 2291 3584 
Q 2894 3584 3203 3211 
Q 3513 2838 3513 2113 
z
" transform="scale(0.015625)"/>
        <path id="DejaVuSans-20" transform="scale(0.015625)"/>
        <path id="DejaVuSans-4e" d="M 628 4666 
L 1478 4666 
L 3547 763 
L 3547 4666 
L 4159 4666 
L 4159 0 
L 3309 0 
L 1241 3903 
L 1241 0 
L 628 0 
L 628 4666 
z
" transform="scale(0.015625)"/>
        <path id="DejaVuSans-74" d="M 1172 4494 
L 1172 3500 
L 2356 3500 
L 2356 3053 
L 1172 3053 
L 1172 1153 
Q 1172 725 1289 603 
Q 1406 481 1766 481 
L 2356 481 
L 2356 0 
L 1766 0 
Q 1100 0 847 248 
Q 594 497 594 1153 
L 594 3053 
L 172 3053 
L 172 3500 
L 594 3500 
L 594 4494 
L 1172 4494 
z
" transform="scale(0.015625)"/>
        <path id="DejaVuSans-77" d="M 269 3500 
L 844 3500 
L 1563 769 
L 2278 3500 
L 2956 3500 
L 3675 769 
L 4391 3500 
L 4966 3500 
L 4050 0 
L 3372 0 
L 2619 2869 
L 1863 0 
L 1184 0 
L 269 3500 
z
" transform="scale(0.015625)"/>
        <path id="DejaVuSans-6f" d="M 1959 3097 
Q 1497 3097 1228 2736 
Q 959 2375 959 1747 
Q 959 1119 1226 758 
Q 1494 397 1959 397 
Q 2419 397 2687 759 
Q 2956 1122 2956 1747 
Q 2956 2369 2687 2733 
Q 2419 3097 1959 3097 
z
M 1959 3584 
Q 2709 3584 3137 3096 
Q 3566 2609 3566 1747 
Q 3566 888 3137 398 
Q 2709 -91 1959 -91 
Q 1206 -91 779 398 
Q 353 888 353 1747 
Q 353 2609 779 3096 
Q 1206 3584 1959 3584 
z
" transform="scale(0.015625)"/>
        <path id="DejaVuSans-72" d="M 2631 2963 
Q 2534 3019 2420 3045 
Q 2306 3072 2169 3072 
Q 1681 3072 1420 2755 
Q 1159 2438 1159 1844 
L 1159 0 
L 581 0 
L 581 3500 
L 1159 3500 
L 1159 2956 
Q 1341 3275 1631 3429 
Q 1922 3584 2338 3584 
Q 2397 3584 2469 3576 
Q 2541 3569 2628 3553 
L 2631 2963 
z
" transform="scale(0.015625)"/>
        <path id="DejaVuSans-6b" d="M 581 4863 
L 1159 4863 
L 1159 1991 
L 2875 3500 
L 3609 3500 
L 1753 1863 
L 3688 0 
L 2938 0 
L 1159 1709 
L 1159 0 
L 581 0 
L 581 4863 
z
" transform="scale(0.015625)"/>
       </defs>
       <use xlink:href="#DejaVuSans-42"/>
       <use xlink:href="#DejaVuSans-61" transform="translate(68.603516 0)"/>
       <use xlink:href="#DejaVuSans-79" transform="translate(129.882812 0)"/>
       <use xlink:href="#DejaVuSans-65" transform="translate(189.0625 0)"/>
       <use xlink:href="#DejaVuSans-73" transform="translate(250.585938 0)"/>
       <use xlink:href="#DejaVuSans-69" transform="translate(302.685547 0)"/>
       <use xlink:href="#DejaVuSans-61" transform="translate(330.46875 0)"/>
       <use xlink:href="#DejaVuSans-6e" transform="translate(391.748047 0)"/>
       <use xlink:href="#DejaVuSans-20" transform="translate(455.126953 0)"/>
       <use xlink:href="#DejaVuSans-4e" transform="translate(486.914062 0)"/>
       <use xlink:href="#DejaVuSans-65" transform="translate(561.71875 0)"/>
       <use xlink:href="#DejaVuSans-74" transform="translate(623.242188 0)"/>
       <use xlink:href="#DejaVuSans-77" transform="translate(662.451172 0)"/>
       <use xlink:href="#DejaVuSans-6f" transform="translate(744.238281 0)"/>
       <use xlink:href="#DejaVuSans-72" transform="translate(805.419922 0)"/>
       <use xlink:href="#DejaVuSans-6b" transform="translate(846.533203 0)"/>
      </g>
     </g>
    </g>
    <g id="xtick_2">
     <g id="line2d_2">
      <g>
       <use xlink:href="#mf1b834f103" x="160.250825" y="199.294868" style="stroke: #000000; stroke-width: 0.8"/>
      </g>
     </g>
     <g id="text_2">
      <!-- Mean -->
      <g transform="translate(152.568773 230.934224) rotate(-45) scale(0.1 -0.1)">
       <defs>
        <path id="DejaVuSans-4d" d="M 628 4666 
L 1569 4666 
L 2759 1491 
L 3956 4666 
L 4897 4666 
L 4897 0 
L 4281 0 
L 4281 4097 
L 3078 897 
L 2444 897 
L 1241 4097 
L 1241 0 
L 628 0 
L 628 4666 
z
" transform="scale(0.015625)"/>
       </defs>
       <use xlink:href="#DejaVuSans-4d"/>
       <use xlink:href="#DejaVuSans-65" transform="translate(86.279297 0)"/>
       <use xlink:href="#DejaVuSans-61" transform="translate(147.802734 0)"/>
       <use xlink:href="#DejaVuSans-6e" transform="translate(209.082031 0)"/>
      </g>
     </g>
    </g>
    <g id="xtick_3">
     <g id="line2d_3">
      <g>
       <use xlink:href="#mf1b834f103" x="233.204175" y="199.294868" style="stroke: #000000; stroke-width: 0.8"/>
      </g>
     </g>
     <g id="text_3">
      <!-- LogNormal -->
      <g transform="translate(216.046892 249.884686) rotate(-45) scale(0.1 -0.1)">
       <defs>
        <path id="DejaVuSans-4c" d="M 628 4666 
L 1259 4666 
L 1259 531 
L 3531 531 
L 3531 0 
L 628 0 
L 628 4666 
z
" transform="scale(0.015625)"/>
        <path id="DejaVuSans-67" d="M 2906 1791 
Q 2906 2416 2648 2759 
Q 2391 3103 1925 3103 
Q 1463 3103 1205 2759 
Q 947 2416 947 1791 
Q 947 1169 1205 825 
Q 1463 481 1925 481 
Q 2391 481 2648 825 
Q 2906 1169 2906 1791 
z
M 3481 434 
Q 3481 -459 3084 -895 
Q 2688 -1331 1869 -1331 
Q 1566 -1331 1297 -1286 
Q 1028 -1241 775 -1147 
L 775 -588 
Q 1028 -725 1275 -790 
Q 1522 -856 1778 -856 
Q 2344 -856 2625 -561 
Q 2906 -266 2906 331 
L 2906 616 
Q 2728 306 2450 153 
Q 2172 0 1784 0 
Q 1141 0 747 490 
Q 353 981 353 1791 
Q 353 2603 747 3093 
Q 1141 3584 1784 3584 
Q 2172 3584 2450 3431 
Q 2728 3278 2906 2969 
L 2906 3500 
L 3481 3500 
L 3481 434 
z
" transform="scale(0.015625)"/>
        <path id="DejaVuSans-6d" d="M 3328 2828 
Q 3544 3216 3844 3400 
Q 4144 3584 4550 3584 
Q 5097 3584 5394 3201 
Q 5691 2819 5691 2113 
L 5691 0 
L 5113 0 
L 5113 2094 
Q 5113 2597 4934 2840 
Q 4756 3084 4391 3084 
Q 3944 3084 3684 2787 
Q 3425 2491 3425 1978 
L 3425 0 
L 2847 0 
L 2847 2094 
Q 2847 2600 2669 2842 
Q 2491 3084 2119 3084 
Q 1678 3084 1418 2786 
Q 1159 2488 1159 1978 
L 1159 0 
L 581 0 
L 581 3500 
L 1159 3500 
L 1159 2956 
Q 1356 3278 1631 3431 
Q 1906 3584 2284 3584 
Q 2666 3584 2933 3390 
Q 3200 3197 3328 2828 
z
" transform="scale(0.015625)"/>
        <path id="DejaVuSans-6c" d="M 603 4863 
L 1178 4863 
L 1178 0 
L 603 0 
L 603 4863 
z
" transform="scale(0.015625)"/>
       </defs>
       <use xlink:href="#DejaVuSans-4c"/>
       <use xlink:href="#DejaVuSans-6f" transform="translate(53.962891 0)"/>
       <use xlink:href="#DejaVuSans-67" transform="translate(115.144531 0)"/>
       <use xlink:href="#DejaVuSans-4e" transform="translate(178.621094 0)"/>
       <use xlink:href="#DejaVuSans-6f" transform="translate(253.425781 0)"/>
       <use xlink:href="#DejaVuSans-72" transform="translate(314.607422 0)"/>
       <use xlink:href="#DejaVuSans-6d" transform="translate(353.970703 0)"/>
       <use xlink:href="#DejaVuSans-61" transform="translate(451.382812 0)"/>
       <use xlink:href="#DejaVuSans-6c" transform="translate(512.662109 0)"/>
      </g>
     </g>
    </g>
    <g id="xtick_4">
     <g id="line2d_4">
      <g>
       <use xlink:href="#mf1b834f103" x="306.157524" y="199.294868" style="stroke: #000000; stroke-width: 0.8"/>
      </g>
     </g>
     <g id="text_4">
      <!-- Empirical -->
      <g transform="translate(291.675646 244.533876) rotate(-45) scale(0.1 -0.1)">
       <defs>
        <path id="DejaVuSans-45" d="M 628 4666 
L 3578 4666 
L 3578 4134 
L 1259 4134 
L 1259 2753 
L 3481 2753 
L 3481 2222 
L 1259 2222 
L 1259 531 
L 3634 531 
L 3634 0 
L 628 0 
L 628 4666 
z
" transform="scale(0.015625)"/>
        <path id="DejaVuSans-70" d="M 1159 525 
L 1159 -1331 
L 581 -1331 
L 581 3500 
L 1159 3500 
L 1159 2969 
Q 1341 3281 1617 3432 
Q 1894 3584 2278 3584 
Q 2916 3584 3314 3078 
Q 3713 2572 3713 1747 
Q 3713 922 3314 415 
Q 2916 -91 2278 -91 
Q 1894 -91 1617 61 
Q 1341 213 1159 525 
z
M 3116 1747 
Q 3116 2381 2855 2742 
Q 2594 3103 2138 3103 
Q 1681 3103 1420 2742 
Q 1159 2381 1159 1747 
Q 1159 1113 1420 752 
Q 1681 391 2138 391 
Q 2594 391 2855 752 
Q 3116 1113 3116 1747 
z
" transform="scale(0.015625)"/>
        <path id="DejaVuSans-63" d="M 3122 3366 
L 3122 2828 
Q 2878 2963 2633 3030 
Q 2388 3097 2138 3097 
Q 1578 3097 1268 2742 
Q 959 2388 959 1747 
Q 959 1106 1268 751 
Q 1578 397 2138 397 
Q 2388 397 2633 464 
Q 2878 531 3122 666 
L 3122 134 
Q 2881 22 2623 -34 
Q 2366 -91 2075 -91 
Q 1284 -91 818 406 
Q 353 903 353 1747 
Q 353 2603 823 3093 
Q 1294 3584 2113 3584 
Q 2378 3584 2631 3529 
Q 2884 3475 3122 3366 
z
" transform="scale(0.015625)"/>
       </defs>
       <use xlink:href="#DejaVuSans-45"/>
       <use xlink:href="#DejaVuSans-6d" transform="translate(63.183594 0)"/>
       <use xlink:href="#DejaVuSans-70" transform="translate(160.595703 0)"/>
       <use xlink:href="#DejaVuSans-69" transform="translate(224.072266 0)"/>
       <use xlink:href="#DejaVuSans-72" transform="translate(251.855469 0)"/>
       <use xlink:href="#DejaVuSans-69" transform="translate(292.96875 0)"/>
       <use xlink:href="#DejaVuSans-63" transform="translate(320.751953 0)"/>
       <use xlink:href="#DejaVuSans-61" transform="translate(375.732422 0)"/>
       <use xlink:href="#DejaVuSans-6c" transform="translate(437.011719 0)"/>
      </g>
     </g>
    </g>
   </g>
   <g id="matplotlib.axis_2">
    <g id="ytick_1">
     <g id="line2d_5">
      <defs>
       <path id="mbd2bff6c5e" d="M 0 0 
L -3.5 0 
" style="stroke: #000000; stroke-width: 0.8"/>
      </defs>
      <g>
       <use xlink:href="#mbd2bff6c5e" x="44.255" y="179.283692" style="stroke: #000000; stroke-width: 0.8"/>
      </g>
     </g>
     <g id="text_5">
      <!-- 0 -->
      <g transform="translate(30.8925 183.08291) scale(0.1 -0.1)">
       <defs>
        <path id="DejaVuSans-30" d="M 2034 4250 
Q 1547 4250 1301 3770 
Q 1056 3291 1056 2328 
Q 1056 1369 1301 889 
Q 1547 409 2034 409 
Q 2525 409 2770 889 
Q 3016 1369 3016 2328 
Q 3016 3291 2770 3770 
Q 2525 4250 2034 4250 
z
M 2034 4750 
Q 2819 4750 3233 4129 
Q 3647 3509 3647 2328 
Q 3647 1150 3233 529 
Q 2819 -91 2034 -91 
Q 1250 -91 836 529 
Q 422 1150 422 2328 
Q 422 3509 836 4129 
Q 1250 4750 2034 4750 
z
" transform="scale(0.015625)"/>
       </defs>
       <use xlink:href="#DejaVuSans-30"/>
      </g>
     </g>
    </g>
    <g id="ytick_2">
     <g id="line2d_6">
      <g>
       <use xlink:href="#mbd2bff6c5e" x="44.255" y="140.555058" style="stroke: #000000; stroke-width: 0.8"/>
      </g>
     </g>
     <g id="text_6">
      <!-- 10 -->
      <g transform="translate(24.53 144.354277) scale(0.1 -0.1)">
       <defs>
        <path id="DejaVuSans-31" d="M 794 531 
L 1825 531 
L 1825 4091 
L 703 3866 
L 703 4441 
L 1819 4666 
L 2450 4666 
L 2450 531 
L 3481 531 
L 3481 0 
L 794 0 
L 794 531 
z
" transform="scale(0.015625)"/>
       </defs>
       <use xlink:href="#DejaVuSans-31"/>
       <use xlink:href="#DejaVuSans-30" transform="translate(63.623047 0)"/>
      </g>
     </g>
    </g>
    <g id="ytick_3">
     <g id="line2d_7">
      <g>
       <use xlink:href="#mbd2bff6c5e" x="44.255" y="101.826424" style="stroke: #000000; stroke-width: 0.8"/>
      </g>
     </g>
     <g id="text_7">
      <!-- 20 -->
      <g transform="translate(24.53 105.625643) scale(0.1 -0.1)">
       <defs>
        <path id="DejaVuSans-32" d="M 1228 531 
L 3431 531 
L 3431 0 
L 469 0 
L 469 531 
Q 828 903 1448 1529 
Q 2069 2156 2228 2338 
Q 2531 2678 2651 2914 
Q 2772 3150 2772 3378 
Q 2772 3750 2511 3984 
Q 2250 4219 1831 4219 
Q 1534 4219 1204 4116 
Q 875 4013 500 3803 
L 500 4441 
Q 881 4594 1212 4672 
Q 1544 4750 1819 4750 
Q 2544 4750 2975 4387 
Q 3406 4025 3406 3419 
Q 3406 3131 3298 2873 
Q 3191 2616 2906 2266 
Q 2828 2175 2409 1742 
Q 1991 1309 1228 531 
z
" transform="scale(0.015625)"/>
       </defs>
       <use xlink:href="#DejaVuSans-32"/>
       <use xlink:href="#DejaVuSans-30" transform="translate(63.623047 0)"/>
      </g>
     </g>
    </g>
    <g id="ytick_4">
     <g id="line2d_8">
      <g>
       <use xlink:href="#mbd2bff6c5e" x="44.255" y="63.097791" style="stroke: #000000; stroke-width: 0.8"/>
      </g>
     </g>
     <g id="text_8">
      <!-- 30 -->
      <g transform="translate(24.53 66.89701) scale(0.1 -0.1)">
       <defs>
        <path id="DejaVuSans-33" d="M 2597 2516 
Q 3050 2419 3304 2112 
Q 3559 1806 3559 1356 
Q 3559 666 3084 287 
Q 2609 -91 1734 -91 
Q 1441 -91 1130 -33 
Q 819 25 488 141 
L 488 750 
Q 750 597 1062 519 
Q 1375 441 1716 441 
Q 2309 441 2620 675 
Q 2931 909 2931 1356 
Q 2931 1769 2642 2001 
Q 2353 2234 1838 2234 
L 1294 2234 
L 1294 2753 
L 1863 2753 
Q 2328 2753 2575 2939 
Q 2822 3125 2822 3475 
Q 2822 3834 2567 4026 
Q 2313 4219 1838 4219 
Q 1578 4219 1281 4162 
Q 984 4106 628 3988 
L 628 4550 
Q 988 4650 1302 4700 
Q 1616 4750 1894 4750 
Q 2613 4750 3031 4423 
Q 3450 4097 3450 3541 
Q 3450 3153 3228 2886 
Q 3006 2619 2597 2516 
z
" transform="scale(0.015625)"/>
       </defs>
       <use xlink:href="#DejaVuSans-33"/>
       <use xlink:href="#DejaVuSans-30" transform="translate(63.623047 0)"/>
      </g>
     </g>
    </g>
    <g id="ytick_5">
     <g id="line2d_9">
      <g>
       <use xlink:href="#mbd2bff6c5e" x="44.255" y="24.369157" style="stroke: #000000; stroke-width: 0.8"/>
      </g>
     </g>
     <g id="text_9">
      <!-- 40 -->
      <g transform="translate(24.53 28.168376) scale(0.1 -0.1)">
       <defs>
        <path id="DejaVuSans-34" d="M 2419 4116 
L 825 1625 
L 2419 1625 
L 2419 4116 
z
M 2253 4666 
L 3047 4666 
L 3047 1625 
L 3713 1625 
L 3713 1100 
L 3047 1100 
L 3047 0 
L 2419 0 
L 2419 1100 
L 313 1100 
L 313 1709 
L 2253 4666 
z
" transform="scale(0.015625)"/>
       </defs>
       <use xlink:href="#DejaVuSans-34"/>
       <use xlink:href="#DejaVuSans-30" transform="translate(63.623047 0)"/>
      </g>
     </g>
    </g>
    <g id="text_10">
     <!-- Sequence similarty -->
     <g transform="translate(18.450312 152.98259) rotate(-90) scale(0.1 -0.1)">
      <defs>
       <path id="DejaVuSans-53" d="M 3425 4513 
L 3425 3897 
Q 3066 4069 2747 4153 
Q 2428 4238 2131 4238 
Q 1616 4238 1336 4038 
Q 1056 3838 1056 3469 
Q 1056 3159 1242 3001 
Q 1428 2844 1947 2747 
L 2328 2669 
Q 3034 2534 3370 2195 
Q 3706 1856 3706 1288 
Q 3706 609 3251 259 
Q 2797 -91 1919 -91 
Q 1588 -91 1214 -16 
Q 841 59 441 206 
L 441 856 
Q 825 641 1194 531 
Q 1563 422 1919 422 
Q 2459 422 2753 634 
Q 3047 847 3047 1241 
Q 3047 1584 2836 1778 
Q 2625 1972 2144 2069 
L 1759 2144 
Q 1053 2284 737 2584 
Q 422 2884 422 3419 
Q 422 4038 858 4394 
Q 1294 4750 2059 4750 
Q 2388 4750 2728 4690 
Q 3069 4631 3425 4513 
z
" transform="scale(0.015625)"/>
       <path id="DejaVuSans-71" d="M 947 1747 
Q 947 1113 1208 752 
Q 1469 391 1925 391 
Q 2381 391 2643 752 
Q 2906 1113 2906 1747 
Q 2906 2381 2643 2742 
Q 2381 3103 1925 3103 
Q 1469 3103 1208 2742 
Q 947 2381 947 1747 
z
M 2906 525 
Q 2725 213 2448 61 
Q 2172 -91 1784 -91 
Q 1150 -91 751 415 
Q 353 922 353 1747 
Q 353 2572 751 3078 
Q 1150 3584 1784 3584 
Q 2172 3584 2448 3432 
Q 2725 3281 2906 2969 
L 2906 3500 
L 3481 3500 
L 3481 -1331 
L 2906 -1331 
L 2906 525 
z
" transform="scale(0.015625)"/>
       <path id="DejaVuSans-75" d="M 544 1381 
L 544 3500 
L 1119 3500 
L 1119 1403 
Q 1119 906 1312 657 
Q 1506 409 1894 409 
Q 2359 409 2629 706 
Q 2900 1003 2900 1516 
L 2900 3500 
L 3475 3500 
L 3475 0 
L 2900 0 
L 2900 538 
Q 2691 219 2414 64 
Q 2138 -91 1772 -91 
Q 1169 -91 856 284 
Q 544 659 544 1381 
z
M 1991 3584 
L 1991 3584 
z
" transform="scale(0.015625)"/>
      </defs>
      <use xlink:href="#DejaVuSans-53"/>
      <use xlink:href="#DejaVuSans-65" transform="translate(63.476562 0)"/>
      <use xlink:href="#DejaVuSans-71" transform="translate(125 0)"/>
      <use xlink:href="#DejaVuSans-75" transform="translate(188.476562 0)"/>
      <use xlink:href="#DejaVuSans-65" transform="translate(251.855469 0)"/>
      <use xlink:href="#DejaVuSans-6e" transform="translate(313.378906 0)"/>
      <use xlink:href="#DejaVuSans-63" transform="translate(376.757812 0)"/>
      <use xlink:href="#DejaVuSans-65" transform="translate(431.738281 0)"/>
      <use xlink:href="#DejaVuSans-20" transform="translate(493.261719 0)"/>
      <use xlink:href="#DejaVuSans-73" transform="translate(525.048828 0)"/>
      <use xlink:href="#DejaVuSans-69" transform="translate(577.148438 0)"/>
      <use xlink:href="#DejaVuSans-6d" transform="translate(604.931641 0)"/>
      <use xlink:href="#DejaVuSans-69" transform="translate(702.34375 0)"/>
      <use xlink:href="#DejaVuSans-6c" transform="translate(730.126953 0)"/>
      <use xlink:href="#DejaVuSans-61" transform="translate(757.910156 0)"/>
      <use xlink:href="#DejaVuSans-72" transform="translate(819.189453 0)"/>
      <use xlink:href="#DejaVuSans-74" transform="translate(860.302734 0)"/>
      <use xlink:href="#DejaVuSans-79" transform="translate(899.511719 0)"/>
     </g>
    </g>
   </g>
   <g id="line2d_10">
    <path d="M 60.344549 128.936468 
L 114.250403 128.936468 
" clip-path="url(#p0a61c169f7)" style="fill: none; stroke-dasharray: 1.5,0.9; stroke-dashoffset: 0; stroke: #525252; stroke-width: 1.2"/>
   </g>
   <g id="line2d_11">
    <path d="M 58.537197 113.445015 
L 116.057755 113.445015 
" clip-path="url(#p0a61c169f7)" style="fill: none; stroke-dasharray: 3,1.2; stroke-dashoffset: 0; stroke: #525252; stroke-width: 1.2"/>
   </g>
   <g id="line2d_12">
    <path d="M 61.169388 97.953561 
L 113.425564 97.953561 
" clip-path="url(#p0a61c169f7)" style="fill: none; stroke-dasharray: 1.5,0.9; stroke-dashoffset: 0; stroke: #525252; stroke-width: 1.2"/>
   </g>
   <g id="line2d_13">
    <path d="M 136.009579 125.063605 
L 184.492071 125.063605 
" clip-path="url(#p0a61c169f7)" style="fill: none; stroke-dasharray: 1.5,0.9; stroke-dashoffset: 0; stroke: #525252; stroke-width: 1.2"/>
   </g>
   <g id="line2d_14">
    <path d="M 131.318335 109.572151 
L 189.183316 109.572151 
" clip-path="url(#p0a61c169f7)" style="fill: none; stroke-dasharray: 3,1.2; stroke-dashoffset: 0; stroke: #525252; stroke-width: 1.2"/>
   </g>
   <g id="line2d_15">
    <path d="M 133.90708 94.080698 
L 186.594571 94.080698 
" clip-path="url(#p0a61c169f7)" style="fill: none; stroke-dasharray: 1.5,0.9; stroke-dashoffset: 0; stroke: #525252; stroke-width: 1.2"/>
   </g>
   <g id="line2d_16">
    <path d="M 212.691436 96.017129 
L 253.716913 96.017129 
" clip-path="url(#p0a61c169f7)" style="fill: none; stroke-dasharray: 1.5,0.9; stroke-dashoffset: 0; stroke: #525252; stroke-width: 1.2"/>
   </g>
   <g id="line2d_17">
    <path d="M 204.147287 86.334971 
L 262.261063 86.334971 
" clip-path="url(#p0a61c169f7)" style="fill: none; stroke-dasharray: 3,1.2; stroke-dashoffset: 0; stroke: #525252; stroke-width: 1.2"/>
   </g>
   <g id="line2d_18">
    <path d="M 213.770712 70.843518 
L 252.637638 70.843518 
" clip-path="url(#p0a61c169f7)" style="fill: none; stroke-dasharray: 1.5,0.9; stroke-dashoffset: 0; stroke: #525252; stroke-width: 1.2"/>
   </g>
   <g id="line2d_19">
    <path d="M 277.810113 105.699288 
L 334.504934 105.699288 
" clip-path="url(#p0a61c169f7)" style="fill: none; stroke-dasharray: 1.5,0.9; stroke-dashoffset: 0; stroke: #525252; stroke-width: 1.2"/>
   </g>
   <g id="line2d_20">
    <path d="M 279.553238 90.207834 
L 332.76181 90.207834 
" clip-path="url(#p0a61c169f7)" style="fill: none; stroke-dasharray: 3,1.2; stroke-dashoffset: 0; stroke: #525252; stroke-width: 1.2"/>
   </g>
   <g id="line2d_21">
    <path d="M 278.137556 70.843518 
L 334.177492 70.843518 
" clip-path="url(#p0a61c169f7)" style="fill: none; stroke-dasharray: 1.5,0.9; stroke-dashoffset: 0; stroke: #525252; stroke-width: 1.2"/>
   </g>
   <g id="LineCollection_1">
    <path d="M 87.297476 136.817405 
L 87.297476 91.31194 
" clip-path="url(#p0a61c169f7)" style="fill: none; stroke: #000000; stroke-width: 1.5"/>
    <path d="M 160.250825 129.946385 
L 160.250825 89.197917 
" clip-path="url(#p0a61c169f7)" style="fill: none; stroke: #000000; stroke-width: 1.5"/>
    <path d="M 233.204175 104.853726 
L 233.204175 65.44086 
" clip-path="url(#p0a61c169f7)" style="fill: none; stroke: #000000; stroke-width: 1.5"/>
    <path d="M 306.157524 109.121011 
L 306.157524 68.09309 
" clip-path="url(#p0a61c169f7)" style="fill: none; stroke: #000000; stroke-width: 1.5"/>
   </g>
   <g id="line2d_22">
    <defs>
     <path id="m3613977289" d="M 5 0 
L -5 -0 
" style="stroke: #000000"/>
    </defs>
    <g clip-path="url(#p0a61c169f7)">
     <use xlink:href="#m3613977289" x="87.297476" y="136.817405" style="stroke: #000000"/>
     <use xlink:href="#m3613977289" x="160.250825" y="129.946385" style="stroke: #000000"/>
     <use xlink:href="#m3613977289" x="233.204175" y="104.853726" style="stroke: #000000"/>
     <use xlink:href="#m3613977289" x="306.157524" y="109.121011" style="stroke: #000000"/>
    </g>
   </g>
   <g id="line2d_23">
    <g clip-path="url(#p0a61c169f7)">
     <use xlink:href="#m3613977289" x="87.297476" y="91.31194" style="stroke: #000000"/>
     <use xlink:href="#m3613977289" x="160.250825" y="89.197917" style="stroke: #000000"/>
     <use xlink:href="#m3613977289" x="233.204175" y="65.44086" style="stroke: #000000"/>
     <use xlink:href="#m3613977289" x="306.157524" y="68.09309" style="stroke: #000000"/>
    </g>
   </g>
   <g id="line2d_24">
    <defs>
     <path id="m5994704e9e" d="M 0 3 
C 0.795609 3 1.55874 2.683901 2.12132 2.12132 
C 2.683901 1.55874 3 0.795609 3 0 
C 3 -0.795609 2.683901 -1.55874 2.12132 -2.12132 
C 1.55874 -2.683901 0.795609 -3 0 -3 
C -0.795609 -3 -1.55874 -2.683901 -2.12132 -2.12132 
C -2.683901 -1.55874 -3 -0.795609 -3 0 
C -3 0.795609 -2.683901 1.55874 -2.12132 2.12132 
C -1.55874 2.683901 -0.795609 3 0 3 
z
" style="stroke: #000000"/>
    </defs>
    <g clip-path="url(#p0a61c169f7)">
     <use xlink:href="#m5994704e9e" x="87.297476" y="114.064673" style="stroke: #000000"/>
     <use xlink:href="#m5994704e9e" x="160.250825" y="109.572151" style="stroke: #000000"/>
     <use xlink:href="#m5994704e9e" x="233.204175" y="85.147293" style="stroke: #000000"/>
     <use xlink:href="#m5994704e9e" x="306.157524" y="88.607051" style="stroke: #000000"/>
    </g>
   </g>
   <g id="patch_3">
    <path d="M 44.255 199.294868 
L 44.255 10.8 
" style="fill: none; stroke: #000000; stroke-width: 0.8; stroke-linejoin: miter; stroke-linecap: square"/>
   </g>
   <g id="patch_4">
    <path d="M 349.2 199.294868 
L 349.2 10.8 
" style="fill: none; stroke: #000000; stroke-width: 0.8; stroke-linejoin: miter; stroke-linecap: square"/>
   </g>
   <g id="patch_5">
    <path d="M 44.255 199.294868 
L 349.2 199.294868 
" style="fill: none; stroke: #000000; stroke-width: 0.8; stroke-linejoin: miter; stroke-linecap: square"/>
   </g>
   <g id="patch_6">
    <path d="M 44.255 10.8 
L 349.2 10.8 
" style="fill: none; stroke: #000000; stroke-width: 0.8; stroke-linejoin: miter; stroke-linecap: square"/>
   </g>
   <g id="text_11">
    <!-- 16.84 -->
    <g transform="translate(74.41482 87.50379) scale(0.09 -0.09)">
     <defs>
      <path id="DejaVuSans-36" d="M 2113 2584 
Q 1688 2584 1439 2293 
Q 1191 2003 1191 1497 
Q 1191 994 1439 701 
Q 1688 409 2113 409 
Q 2538 409 2786 701 
Q 3034 994 3034 1497 
Q 3034 2003 2786 2293 
Q 2538 2584 2113 2584 
z
M 3366 4563 
L 3366 3988 
Q 3128 4100 2886 4159 
Q 2644 4219 2406 4219 
Q 1781 4219 1451 3797 
Q 1122 3375 1075 2522 
Q 1259 2794 1537 2939 
Q 1816 3084 2150 3084 
Q 2853 3084 3261 2657 
Q 3669 2231 3669 1497 
Q 3669 778 3244 343 
Q 2819 -91 2113 -91 
Q 1303 -91 875 529 
Q 447 1150 447 2328 
Q 447 3434 972 4092 
Q 1497 4750 2381 4750 
Q 2619 4750 2861 4703 
Q 3103 4656 3366 4563 
z
" transform="scale(0.015625)"/>
      <path id="DejaVuSans-2e" d="M 684 794 
L 1344 794 
L 1344 0 
L 684 0 
L 684 794 
z
" transform="scale(0.015625)"/>
      <path id="DejaVuSans-38" d="M 2034 2216 
Q 1584 2216 1326 1975 
Q 1069 1734 1069 1313 
Q 1069 891 1326 650 
Q 1584 409 2034 409 
Q 2484 409 2743 651 
Q 3003 894 3003 1313 
Q 3003 1734 2745 1975 
Q 2488 2216 2034 2216 
z
M 1403 2484 
Q 997 2584 770 2862 
Q 544 3141 544 3541 
Q 544 4100 942 4425 
Q 1341 4750 2034 4750 
Q 2731 4750 3128 4425 
Q 3525 4100 3525 3541 
Q 3525 3141 3298 2862 
Q 3072 2584 2669 2484 
Q 3125 2378 3379 2068 
Q 3634 1759 3634 1313 
Q 3634 634 3220 271 
Q 2806 -91 2034 -91 
Q 1263 -91 848 271 
Q 434 634 434 1313 
Q 434 1759 690 2068 
Q 947 2378 1403 2484 
z
M 1172 3481 
Q 1172 3119 1398 2916 
Q 1625 2713 2034 2713 
Q 2441 2713 2670 2916 
Q 2900 3119 2900 3481 
Q 2900 3844 2670 4047 
Q 2441 4250 2034 4250 
Q 1625 4250 1398 4047 
Q 1172 3844 1172 3481 
z
" transform="scale(0.015625)"/>
     </defs>
     <use xlink:href="#DejaVuSans-31"/>
     <use xlink:href="#DejaVuSans-36" transform="translate(63.623047 0)"/>
     <use xlink:href="#DejaVuSans-2e" transform="translate(127.246094 0)"/>
     <use xlink:href="#DejaVuSans-38" transform="translate(159.033203 0)"/>
     <use xlink:href="#DejaVuSans-34" transform="translate(222.65625 0)"/>
    </g>
   </g>
   <g id="text_12">
    <!-- 18.00 -->
    <g transform="translate(147.368169 85.389767) scale(0.09 -0.09)">
     <use xlink:href="#DejaVuSans-31"/>
     <use xlink:href="#DejaVuSans-38" transform="translate(63.623047 0)"/>
     <use xlink:href="#DejaVuSans-2e" transform="translate(127.246094 0)"/>
     <use xlink:href="#DejaVuSans-30" transform="translate(159.033203 0)"/>
     <use xlink:href="#DejaVuSans-30" transform="translate(222.65625 0)"/>
    </g>
   </g>
   <g id="text_13">
    <!-- 24.31 -->
    <g transform="translate(220.321518 61.632709) scale(0.09 -0.09)">
     <use xlink:href="#DejaVuSans-32"/>
     <use xlink:href="#DejaVuSans-34" transform="translate(63.623047 0)"/>
     <use xlink:href="#DejaVuSans-2e" transform="translate(127.246094 0)"/>
     <use xlink:href="#DejaVuSans-33" transform="translate(159.033203 0)"/>
     <use xlink:href="#DejaVuSans-31" transform="translate(222.65625 0)"/>
    </g>
   </g>
   <g id="text_14">
    <!-- 23.41 -->
    <g transform="translate(293.274868 64.28494) scale(0.09 -0.09)">
     <use xlink:href="#DejaVuSans-32"/>
     <use xlink:href="#DejaVuSans-33" transform="translate(63.623047 0)"/>
     <use xlink:href="#DejaVuSans-2e" transform="translate(127.246094 0)"/>
     <use xlink:href="#DejaVuSans-34" transform="translate(159.033203 0)"/>
     <use xlink:href="#DejaVuSans-31" transform="translate(222.65625 0)"/>
    </g>
   </g>
  </g>
 </g>
 <defs>
  <clipPath id="p0a61c169f7">
   <rect x="44.255" y="10.8" width="304.945" height="188.494868"/>
  </clipPath>
 </defs>
</svg>
