<?xml version="1.0" encoding="utf-8" standalone="no"?>
<!DOCTYPE svg PUBLIC "-//W3C//DTD SVG 1.1//EN"
  "http://www.w3.org/Graphics/SVG/1.1/DTD/svg11.dtd">
<svg xmlns:xlink="http://www.w3.org/1999/xlink" width="360pt" height="288pt" viewBox="0 0 360 288" xmlns="http://www.w3.org/2000/svg" version="1.1">
 <metadata>
  <rdf:RDF xmlns:dc="http://purl.org/dc/elements/1.1/" xmlns:cc="http://creativecommons.org/ns#" xmlns:rdf="http://www.w3.org/1999/02/22-rdf-syntax-ns#">
   <cc:Work>
    <dc:type rdf:resource="http://purl.org/dc/dcmitype/StillImage"/>
    <dc:date>2025-05-12T16:01:44.357049</dc:date>
    <dc:format>image/svg+xml</dc:format>
    <dc:creator>
     <cc:Agent>
      <dc:title>Matplotlib v3.10.0, https://matplotlib.org/</dc:title>
     </cc:Agent>
    </dc:creator>
   </cc:Work>
  </rdf:RDF>
 </metadata>
 <defs>
  <style type="text/css">*{stroke-linejoin: round; stroke-linecap: butt}</style>
 </defs>
 <g id="figure_1">
  <g id="patch_1">
   <path d="M 0 288 
L 360 288 
L 360 0 
L 0 0 
z
" style="fill: #ffffff"/>
  </g>
  <g id="axes_1">
   <g id="patch_2">
    <path d="M 44.255 249.224 
L 349.2 249.224 
L 349.2 10.8 
L 44.255 10.8 
z
" style="fill: #ffffff"/>
   </g>
   <g id="FillBetweenPolyCollection_1">
    <defs>
     <path id="m4b794977c8" d="M 87.472173 -49.613455 
L 87.122779 -49.613455 
L 87.058062 -51.439808 
L 86.975583 -53.266162 
L 86.872694 -55.092516 
L 86.74701 -56.918869 
L 86.596601 -58.745223 
L 86.420172 -60.571577 
L 86.217209 -62.39793 
L 85.988075 -64.224284 
L 85.734043 -66.050638 
L 85.45726 -67.876991 
L 85.160634 -69.703345 
L 84.847659 -71.529698 
L 84.522172 -73.356052 
L 84.188059 -75.182406 
L 83.848906 -77.008759 
L 83.507611 -78.835113 
L 83.165962 -80.661467 
L 82.824206 -82.48782 
L 82.480622 -84.314174 
L 82.131159 -86.140528 
L 81.76918 -87.966881 
L 81.385371 -89.793235 
L 80.967876 -91.619589 
L 80.502703 -93.445942 
L 79.974428 -95.272296 
L 79.367181 -97.09865 
L 78.6659 -98.925003 
L 77.857742 -100.751357 
L 76.933581 -102.577711 
L 75.88943 -104.404064 
L 74.727636 -106.230418 
L 73.457716 -108.056772 
L 72.096667 -109.883125 
L 70.668663 -111.709479 
L 69.204088 -113.535833 
L 67.73791 -115.362186 
L 66.307496 -117.18854 
L 64.950031 -119.014894 
L 63.699769 -120.841247 
L 62.585379 -122.667601 
L 61.627656 -124.493955 
L 60.837861 -126.320308 
L 60.216872 -128.146662 
L 59.755275 -129.973016 
L 59.43441 -131.799369 
L 59.228305 -133.625723 
L 59.106322 -135.452077 
L 59.036273 -137.27843 
L 58.9877 -139.104784 
L 58.934987 -140.931138 
L 58.85999 -142.757491 
L 58.75388 -144.583845 
L 58.617998 -146.410199 
L 58.463609 -148.236552 
L 58.310555 -150.062906 
L 58.184944 -151.88926 
L 58.116136 -153.715613 
L 58.133359 -155.541967 
L 58.262352 -157.368321 
L 58.522442 -159.194674 
L 58.924387 -161.021028 
L 59.469256 -162.847382 
L 60.148443 -164.673735 
L 60.944818 -166.500089 
L 61.834828 -168.326443 
L 62.791283 -170.152796 
L 63.786444 -171.97915 
L 64.795028 -173.805504 
L 65.796745 -175.631857 
L 66.778054 -177.458211 
L 67.732934 -179.284565 
L 68.66262 -181.110918 
L 69.574364 -182.937272 
L 70.47945 -184.763626 
L 71.390771 -186.589979 
L 72.320339 -188.416333 
L 73.277071 -190.242687 
L 74.265177 -192.06904 
L 75.283309 -193.895394 
L 76.324559 -195.721748 
L 77.37721 -197.548101 
L 78.426079 -199.374455 
L 79.454181 -201.200808 
L 80.444465 -203.027162 
L 81.381365 -204.853516 
L 82.251995 -206.679869 
L 83.046892 -208.506223 
L 83.760306 -210.332577 
L 84.390072 -212.15893 
L 84.937202 -213.985284 
L 85.405272 -215.811638 
L 85.799763 -217.637991 
L 86.127398 -219.464345 
L 86.395576 -221.290699 
L 86.611898 -223.117052 
L 86.783812 -224.943406 
L 86.918362 -226.76976 
L 87.022013 -228.596113 
L 87.100557 -230.422467 
L 87.494395 -230.422467 
L 87.494395 -230.422467 
L 87.572939 -228.596113 
L 87.67659 -226.76976 
L 87.81114 -224.943406 
L 87.983055 -223.117052 
L 88.199377 -221.290699 
L 88.467554 -219.464345 
L 88.79519 -217.637991 
L 89.18968 -215.811638 
L 89.65775 -213.985284 
L 90.20488 -212.15893 
L 90.834647 -210.332577 
L 91.54806 -208.506223 
L 92.342957 -206.679869 
L 93.213587 -204.853516 
L 94.150487 -203.027162 
L 95.140771 -201.200808 
L 96.168873 -199.374455 
L 97.217742 -197.548101 
L 98.270393 -195.721748 
L 99.311643 -193.895394 
L 100.329776 -192.06904 
L 101.317881 -190.242687 
L 102.274613 -188.416333 
L 103.204181 -186.589979 
L 104.115502 -184.763626 
L 105.020588 -182.937272 
L 105.932332 -181.110918 
L 106.862018 -179.284565 
L 107.816898 -177.458211 
L 108.798207 -175.631857 
L 109.799924 -173.805504 
L 110.808509 -171.97915 
L 111.803669 -170.152796 
L 112.760124 -168.326443 
L 113.650134 -166.500089 
L 114.446509 -164.673735 
L 115.125696 -162.847382 
L 115.670565 -161.021028 
L 116.07251 -159.194674 
L 116.3326 -157.368321 
L 116.461593 -155.541967 
L 116.478816 -153.715613 
L 116.410008 -151.88926 
L 116.284397 -150.062906 
L 116.131343 -148.236552 
L 115.976954 -146.410199 
L 115.841072 -144.583845 
L 115.734962 -142.757491 
L 115.659965 -140.931138 
L 115.607253 -139.104784 
L 115.558679 -137.27843 
L 115.48863 -135.452077 
L 115.366647 -133.625723 
L 115.160542 -131.799369 
L 114.839677 -129.973016 
L 114.37808 -128.146662 
L 113.757091 -126.320308 
L 112.967296 -124.493955 
L 112.009573 -122.667601 
L 110.895183 -120.841247 
L 109.644922 -119.014894 
L 108.287457 -117.18854 
L 106.857042 -115.362186 
L 105.390864 -113.535833 
L 103.926289 -111.709479 
L 102.498285 -109.883125 
L 101.137236 -108.056772 
L 99.867316 -106.230418 
L 98.705522 -104.404064 
L 97.661371 -102.577711 
L 96.737211 -100.751357 
L 95.929053 -98.925003 
L 95.227771 -97.09865 
L 94.620525 -95.272296 
L 94.092249 -93.445942 
L 93.627077 -91.619589 
L 93.209581 -89.793235 
L 92.825772 -87.966881 
L 92.463793 -86.140528 
L 92.11433 -84.314174 
L 91.770746 -82.48782 
L 91.42899 -80.661467 
L 91.087342 -78.835113 
L 90.746046 -77.008759 
L 90.406893 -75.182406 
L 90.07278 -73.356052 
L 89.747294 -71.529698 
L 89.434318 -69.703345 
L 89.137692 -67.876991 
L 88.860909 -66.050638 
L 88.606877 -64.224284 
L 88.377743 -62.39793 
L 88.17478 -60.571577 
L 87.998351 -58.745223 
L 87.847943 -56.918869 
L 87.722258 -55.092516 
L 87.619369 -53.266162 
L 87.53689 -51.439808 
L 87.472173 -49.613455 
z
" style="stroke: #525252; stroke-width: 1.2"/>
    </defs>
    <g clip-path="url(#pacddb69d03)">
     <use xlink:href="#m4b794977c8" x="0" y="288" style="fill: #bbbbbb; stroke: #525252; stroke-width: 1.2"/>
    </g>
   </g>
   <g id="FillBetweenPolyCollection_2">
    <defs>
     <path id="m7a47098a54" d="M 160.40091 -66.84691 
L 160.100741 -66.84691 
L 160.050024 -68.473559 
L 159.987845 -70.100208 
L 159.91356 -71.726857 
L 159.827047 -73.353507 
L 159.728752 -74.980156 
L 159.619629 -76.606805 
L 159.500946 -78.233454 
L 159.373932 -79.860103 
L 159.239292 -81.486752 
L 159.096604 -83.113401 
L 158.943671 -84.74005 
L 158.775927 -86.366699 
L 158.58598 -87.993348 
L 158.363413 -89.619998 
L 158.094927 -91.246647 
L 157.764878 -92.873296 
L 157.356228 -94.499945 
L 156.851857 -96.126594 
L 156.236153 -97.753243 
L 155.496733 -99.379892 
L 154.626119 -101.006541 
L 153.623186 -102.63319 
L 152.494187 -104.25984 
L 151.2532 -105.886489 
L 149.921895 -107.513138 
L 148.52855 -109.139787 
L 147.106387 -110.766436 
L 145.691295 -112.393085 
L 144.319176 -114.019734 
L 143.023135 -115.646383 
L 141.83083 -117.273032 
L 140.762258 -118.899681 
L 139.828253 -120.526331 
L 139.029871 -122.15298 
L 138.358755 -123.779629 
L 137.79844 -125.406278 
L 137.326439 -127.032927 
L 136.916875 -128.659576 
L 136.543331 -130.286225 
L 136.181592 -131.912874 
L 135.811973 -133.539523 
L 135.420992 -135.166172 
L 135.002244 -136.792822 
L 134.556414 -138.419471 
L 134.09051 -140.04612 
L 133.616437 -141.672769 
L 133.149134 -143.299418 
L 132.704525 -144.926067 
L 132.297548 -146.552716 
L 131.94051 -148.179365 
L 131.641984 -149.806014 
L 131.406385 -151.432664 
L 131.234258 -153.059313 
L 131.123241 -154.685962 
L 131.069508 -156.312611 
L 131.069486 -157.93926 
L 131.121498 -159.565909 
L 131.227071 -161.192558 
L 131.391624 -162.819207 
L 131.624384 -164.445856 
L 131.937499 -166.072505 
L 132.344449 -167.699155 
L 132.857999 -169.325804 
L 133.488003 -170.952453 
L 134.239436 -172.579102 
L 135.110968 -174.205751 
L 136.094335 -175.8324 
L 137.174612 -177.459049 
L 138.331363 -179.085698 
L 139.540469 -180.712347 
L 140.776379 -182.338997 
L 142.014412 -183.965646 
L 143.232806 -185.592295 
L 144.414237 -187.218944 
L 145.546647 -188.845593 
L 146.623355 -190.472242 
L 147.642526 -192.098891 
L 148.606167 -193.72554 
L 149.518867 -195.352189 
L 150.386492 -196.978838 
L 151.215018 -198.605488 
L 152.009611 -200.232137 
L 152.774016 -201.858786 
L 153.51026 -203.485435 
L 154.21861 -205.112084 
L 154.897751 -206.738733 
L 155.545098 -208.365382 
L 156.157212 -209.992031 
L 156.730245 -211.61868 
L 157.2604 -213.24533 
L 157.744359 -214.871979 
L 158.179647 -216.498628 
L 158.564908 -218.125277 
L 158.90007 -219.751926 
L 159.186385 -221.378575 
L 159.426352 -223.005224 
L 159.623526 -224.631873 
L 159.782255 -226.258522 
L 159.90738 -227.885171 
L 160.59427 -227.885171 
L 160.59427 -227.885171 
L 160.719395 -226.258522 
L 160.878125 -224.631873 
L 161.075299 -223.005224 
L 161.315266 -221.378575 
L 161.601581 -219.751926 
L 161.936743 -218.125277 
L 162.322003 -216.498628 
L 162.757291 -214.871979 
L 163.241251 -213.24533 
L 163.771406 -211.61868 
L 164.344439 -209.992031 
L 164.956552 -208.365382 
L 165.6039 -206.738733 
L 166.28304 -205.112084 
L 166.991391 -203.485435 
L 167.727634 -201.858786 
L 168.49204 -200.232137 
L 169.286632 -198.605488 
L 170.115159 -196.978838 
L 170.982784 -195.352189 
L 171.895484 -193.72554 
L 172.859124 -192.098891 
L 173.878295 -190.472242 
L 174.955004 -188.845593 
L 176.087414 -187.218944 
L 177.268845 -185.592295 
L 178.487239 -183.965646 
L 179.725272 -182.338997 
L 180.961182 -180.712347 
L 182.170288 -179.085698 
L 183.327038 -177.459049 
L 184.407316 -175.8324 
L 185.390683 -174.205751 
L 186.262215 -172.579102 
L 187.013648 -170.952453 
L 187.643652 -169.325804 
L 188.157201 -167.699155 
L 188.564152 -166.072505 
L 188.877266 -164.445856 
L 189.110027 -162.819207 
L 189.27458 -161.192558 
L 189.380153 -159.565909 
L 189.432165 -157.93926 
L 189.432142 -156.312611 
L 189.37841 -154.685962 
L 189.267392 -153.059313 
L 189.095266 -151.432664 
L 188.859667 -149.806014 
L 188.561141 -148.179365 
L 188.204102 -146.552716 
L 187.797125 -144.926067 
L 187.352517 -143.299418 
L 186.885214 -141.672769 
L 186.411141 -140.04612 
L 185.945237 -138.419471 
L 185.499407 -136.792822 
L 185.080658 -135.166172 
L 184.689678 -133.539523 
L 184.320059 -131.912874 
L 183.958319 -130.286225 
L 183.584775 -128.659576 
L 183.175211 -127.032927 
L 182.70321 -125.406278 
L 182.142895 -123.779629 
L 181.47178 -122.15298 
L 180.673398 -120.526331 
L 179.739393 -118.899681 
L 178.670821 -117.273032 
L 177.478516 -115.646383 
L 176.182475 -114.019734 
L 174.810356 -112.393085 
L 173.395264 -110.766436 
L 171.9731 -109.139787 
L 170.579756 -107.513138 
L 169.24845 -105.886489 
L 168.007464 -104.25984 
L 166.878464 -102.63319 
L 165.875532 -101.006541 
L 165.004918 -99.379892 
L 164.265497 -97.753243 
L 163.649794 -96.126594 
L 163.145423 -94.499945 
L 162.736773 -92.873296 
L 162.406724 -91.246647 
L 162.138238 -89.619998 
L 161.915671 -87.993348 
L 161.725723 -86.366699 
L 161.55798 -84.74005 
L 161.405047 -83.113401 
L 161.262359 -81.486752 
L 161.127719 -79.860103 
L 161.000705 -78.233454 
L 160.882021 -76.606805 
L 160.772899 -74.980156 
L 160.674604 -73.353507 
L 160.588091 -71.726857 
L 160.513805 -70.100208 
L 160.451626 -68.473559 
L 160.40091 -66.84691 
z
" style="stroke: #525252; stroke-width: 1.2"/>
    </defs>
    <g clip-path="url(#pacddb69d03)">
     <use xlink:href="#m7a47098a54" x="0" y="288" style="fill: #888888; stroke: #525252; stroke-width: 1.2"/>
    </g>
   </g>
   <g id="FillBetweenPolyCollection_3">
    <defs>
     <path id="m1792d750d4" d="M 233.45821 -101.850336 
L 232.950139 -101.850336 
L 232.855322 -103.512075 
L 232.735742 -105.173815 
L 232.588827 -106.835554 
L 232.412928 -108.497294 
L 232.207596 -110.159033 
L 231.973737 -111.820773 
L 231.713628 -113.482512 
L 231.43074 -115.144252 
L 231.129403 -116.805991 
L 230.814337 -118.467731 
L 230.490126 -120.12947 
L 230.160705 -121.79121 
L 229.828938 -123.452949 
L 229.496346 -125.114689 
L 229.163011 -126.776428 
L 228.82764 -128.438168 
L 228.487788 -130.099907 
L 228.140166 -131.761647 
L 227.781022 -133.423386 
L 227.406555 -135.085126 
L 227.013321 -136.746865 
L 226.598637 -138.408605 
L 226.160907 -140.070344 
L 225.699856 -141.732084 
L 225.216574 -143.393823 
L 224.713316 -145.055563 
L 224.193003 -146.717302 
L 223.658419 -148.379041 
L 223.111145 -150.040781 
L 222.55038 -151.70252 
L 221.971816 -153.36426 
L 221.366823 -155.025999 
L 220.722185 -156.687739 
L 220.020584 -158.349478 
L 219.241994 -160.011218 
L 218.365968 -161.672957 
L 217.374719 -163.334697 
L 216.256672 -164.996436 
L 215.010082 -166.658176 
L 213.64616 -168.319915 
L 212.191141 -169.981655 
L 210.686758 -171.643394 
L 209.188786 -173.305134 
L 207.763511 -174.966873 
L 206.482346 -176.628613 
L 205.41511 -178.290352 
L 204.622769 -179.952092 
L 204.150612 -181.613831 
L 204.022835 -183.275571 
L 204.23936 -184.93731 
L 204.775424 -186.59905 
L 205.584053 -188.260789 
L 206.601123 -189.922529 
L 207.752333 -191.584268 
L 208.961134 -193.246008 
L 210.156579 -194.907747 
L 211.280088 -196.569487 
L 212.290364 -198.231226 
L 213.165965 -199.892966 
L 213.905432 -201.554705 
L 214.525159 -203.216445 
L 215.055502 -204.878184 
L 215.53575 -206.539924 
L 216.008674 -208.201663 
L 216.515294 -209.863403 
L 217.090432 -211.525142 
L 217.759394 -213.186882 
L 218.536013 -214.848621 
L 219.422054 -216.510361 
L 220.407876 -218.1721 
L 221.474135 -219.83384 
L 222.594221 -221.495579 
L 223.737128 -223.157319 
L 224.870432 -224.819058 
L 225.963095 -226.480798 
L 226.987866 -228.142537 
L 227.923101 -229.804277 
L 228.753906 -231.466016 
L 229.472579 -233.127756 
L 230.078381 -234.789495 
L 230.576736 -236.451235 
L 230.977978 -238.112974 
L 231.295844 -239.774714 
L 231.545841 -241.436453 
L 231.743704 -243.098193 
L 231.904056 -244.759932 
L 232.039402 -246.421672 
L 232.159508 -248.083411 
L 232.27118 -249.745151 
L 232.378405 -251.40689 
L 232.482776 -253.06863 
L 232.584086 -254.730369 
L 232.680997 -256.392108 
L 232.771676 -258.053848 
L 232.854312 -259.715587 
L 232.927495 -261.377327 
L 232.990411 -263.039066 
L 233.042903 -264.700806 
L 233.085406 -266.362545 
L 233.322943 -266.362545 
L 233.322943 -266.362545 
L 233.365446 -264.700806 
L 233.417938 -263.039066 
L 233.480854 -261.377327 
L 233.554037 -259.715587 
L 233.636674 -258.053848 
L 233.727352 -256.392108 
L 233.824264 -254.730369 
L 233.925573 -253.06863 
L 234.029944 -251.40689 
L 234.13717 -249.745151 
L 234.248841 -248.083411 
L 234.368947 -246.421672 
L 234.504293 -244.759932 
L 234.664646 -243.098193 
L 234.862508 -241.436453 
L 235.112506 -239.774714 
L 235.430371 -238.112974 
L 235.831614 -236.451235 
L 236.329968 -234.789495 
L 236.935771 -233.127756 
L 237.654443 -231.466016 
L 238.485248 -229.804277 
L 239.420483 -228.142537 
L 240.445254 -226.480798 
L 241.537918 -224.819058 
L 242.671221 -223.157319 
L 243.814128 -221.495579 
L 244.934214 -219.83384 
L 246.000473 -218.1721 
L 246.986296 -216.510361 
L 247.872336 -214.848621 
L 248.648955 -213.186882 
L 249.317918 -211.525142 
L 249.893055 -209.863403 
L 250.399676 -208.201663 
L 250.872599 -206.539924 
L 251.352847 -204.878184 
L 251.88319 -203.216445 
L 252.502917 -201.554705 
L 253.242384 -199.892966 
L 254.117985 -198.231226 
L 255.128261 -196.569487 
L 256.25177 -194.907747 
L 257.447215 -193.246008 
L 258.656016 -191.584268 
L 259.807226 -189.922529 
L 260.824297 -188.260789 
L 261.632925 -186.59905 
L 262.168989 -184.93731 
L 262.385514 -183.275571 
L 262.257737 -181.613831 
L 261.785581 -179.952092 
L 260.99324 -178.290352 
L 259.926003 -176.628613 
L 258.644838 -174.966873 
L 257.219563 -173.305134 
L 255.721591 -171.643394 
L 254.217209 -169.981655 
L 252.762189 -168.319915 
L 251.398267 -166.658176 
L 250.151677 -164.996436 
L 249.03363 -163.334697 
L 248.042381 -161.672957 
L 247.166356 -160.011218 
L 246.387765 -158.349478 
L 245.686164 -156.687739 
L 245.041526 -155.025999 
L 244.436534 -153.36426 
L 243.857969 -151.70252 
L 243.297204 -150.040781 
L 242.74993 -148.379041 
L 242.215346 -146.717302 
L 241.695034 -145.055563 
L 241.191775 -143.393823 
L 240.708493 -141.732084 
L 240.247442 -140.070344 
L 239.809713 -138.408605 
L 239.395028 -136.746865 
L 239.001794 -135.085126 
L 238.627327 -133.423386 
L 238.268183 -131.761647 
L 237.920561 -130.099907 
L 237.580709 -128.438168 
L 237.245339 -126.776428 
L 236.912003 -125.114689 
L 236.579411 -123.452949 
L 236.247644 -121.79121 
L 235.918223 -120.12947 
L 235.594013 -118.467731 
L 235.278947 -116.805991 
L 234.977609 -115.144252 
L 234.694721 -113.482512 
L 234.434612 -111.820773 
L 234.200754 -110.159033 
L 233.995421 -108.497294 
L 233.819523 -106.835554 
L 233.672607 -105.173815 
L 233.553027 -103.512075 
L 233.45821 -101.850336 
z
" style="stroke: #525252; stroke-width: 1.2"/>
    </defs>
    <g clip-path="url(#pacddb69d03)">
     <use xlink:href="#m1792d750d4" x="0" y="288" style="fill: #aaaaaa; stroke: #525252; stroke-width: 1.2"/>
    </g>
   </g>
   <g id="FillBetweenPolyCollection_4">
    <defs>
     <path id="m3a4491f9e2" d="M 306.318906 -91.191455 
L 305.996142 -91.191455 
L 305.941764 -92.821115 
L 305.875075 -94.450776 
L 305.795348 -96.080436 
L 305.70242 -97.710096 
L 305.596763 -99.339757 
L 305.479468 -100.969417 
L 305.352109 -102.599077 
L 305.216476 -104.228737 
L 305.074183 -105.858398 
L 304.926182 -107.488058 
L 304.772235 -109.117718 
L 304.610404 -110.747379 
L 304.436642 -112.377039 
L 304.244534 -114.006699 
L 304.025235 -115.63636 
L 303.767631 -117.26602 
L 303.458698 -118.89568 
L 303.084035 -120.525341 
L 302.628524 -122.155001 
L 302.077074 -123.784661 
L 301.415421 -125.414322 
L 300.630979 -127.043982 
L 299.713725 -128.673642 
L 298.657144 -130.303303 
L 297.45921 -131.932963 
L 296.123353 -133.562623 
L 294.659344 -135.192284 
L 293.083953 -136.821944 
L 291.421224 -138.451604 
L 289.702235 -140.081264 
L 287.964209 -141.710925 
L 286.248931 -143.340585 
L 284.600534 -144.970245 
L 283.062792 -146.599906 
L 281.676162 -148.229566 
L 280.474873 -149.859226 
L 279.48438 -151.488887 
L 278.719446 -153.118547 
L 278.183084 -154.748207 
L 277.866434 -156.377868 
L 277.749603 -158.007528 
L 277.803324 -159.637188 
L 277.991274 -161.266849 
L 278.272805 -162.896509 
L 278.605817 -164.526169 
L 278.94957 -166.15583 
L 279.267189 -167.78549 
L 279.527748 -169.41515 
L 279.707794 -171.04481 
L 279.792288 -172.674471 
L 279.774929 -174.304131 
L 279.657896 -175.933791 
L 279.451051 -177.563452 
L 279.17069 -179.193112 
L 278.837913 -180.822772 
L 278.476776 -182.452433 
L 278.112326 -184.082093 
L 277.76873 -185.711753 
L 277.467637 -187.341414 
L 277.226954 -188.971074 
L 277.060153 -190.600734 
L 276.976184 -192.230395 
L 276.979971 -193.860055 
L 277.073404 -195.489715 
L 277.256651 -197.119376 
L 277.529568 -198.749036 
L 277.892954 -200.378696 
L 278.349424 -202.008357 
L 278.903743 -203.638017 
L 279.562522 -205.267677 
L 280.333302 -206.897337 
L 281.223158 -208.526998 
L 282.237018 -210.156658 
L 283.375968 -211.786318 
L 284.635809 -213.415979 
L 286.006134 -215.045639 
L 287.47007 -216.675299 
L 289.004775 -218.30496 
L 290.582663 -219.93462 
L 292.173175 -221.56428 
L 293.744904 -223.193941 
L 295.267776 -224.823601 
L 296.715022 -226.453261 
L 298.064726 -228.082922 
L 299.300792 -229.712582 
L 300.413281 -231.342242 
L 301.398179 -232.971903 
L 302.25669 -234.601563 
L 302.994228 -236.231223 
L 303.61928 -237.860883 
L 304.142282 -239.490544 
L 304.574633 -241.120204 
L 304.927904 -242.749864 
L 305.213265 -244.379525 
L 305.441116 -246.009185 
L 305.620882 -247.638845 
L 305.760939 -249.268506 
L 305.868608 -250.898166 
L 305.950203 -252.527826 
L 306.364844 -252.527826 
L 306.364844 -252.527826 
L 306.44644 -250.898166 
L 306.554109 -249.268506 
L 306.694166 -247.638845 
L 306.873932 -246.009185 
L 307.101782 -244.379525 
L 307.387144 -242.749864 
L 307.740415 -241.120204 
L 308.172766 -239.490544 
L 308.695768 -237.860883 
L 309.32082 -236.231223 
L 310.058358 -234.601563 
L 310.916869 -232.971903 
L 311.901767 -231.342242 
L 313.014256 -229.712582 
L 314.250322 -228.082922 
L 315.600026 -226.453261 
L 317.047272 -224.823601 
L 318.570143 -223.193941 
L 320.141873 -221.56428 
L 321.732385 -219.93462 
L 323.310272 -218.30496 
L 324.844978 -216.675299 
L 326.308913 -215.045639 
L 327.679239 -213.415979 
L 328.93908 -211.786318 
L 330.078029 -210.156658 
L 331.09189 -208.526998 
L 331.981746 -206.897337 
L 332.752526 -205.267677 
L 333.411305 -203.638017 
L 333.965624 -202.008357 
L 334.422094 -200.378696 
L 334.78548 -198.749036 
L 335.058397 -197.119376 
L 335.241644 -195.489715 
L 335.335077 -193.860055 
L 335.338864 -192.230395 
L 335.254895 -190.600734 
L 335.088094 -188.971074 
L 334.847411 -187.341414 
L 334.546318 -185.711753 
L 334.202722 -184.082093 
L 333.838272 -182.452433 
L 333.477134 -180.822772 
L 333.144358 -179.193112 
L 332.863996 -177.563452 
L 332.657152 -175.933791 
L 332.540118 -174.304131 
L 332.522759 -172.674471 
L 332.607254 -171.04481 
L 332.7873 -169.41515 
L 333.047859 -167.78549 
L 333.365478 -166.15583 
L 333.709231 -164.526169 
L 334.042243 -162.896509 
L 334.323773 -161.266849 
L 334.511724 -159.637188 
L 334.565445 -158.007528 
L 334.448613 -156.377868 
L 334.131964 -154.748207 
L 333.595602 -153.118547 
L 332.830668 -151.488887 
L 331.840175 -149.859226 
L 330.638886 -148.229566 
L 329.252256 -146.599906 
L 327.714514 -144.970245 
L 326.066117 -143.340585 
L 324.350839 -141.710925 
L 322.612813 -140.081264 
L 320.893824 -138.451604 
L 319.231095 -136.821944 
L 317.655703 -135.192284 
L 316.191695 -133.562623 
L 314.855838 -131.932963 
L 313.657903 -130.303303 
L 312.601323 -128.673642 
L 311.684069 -127.043982 
L 310.899627 -125.414322 
L 310.237974 -123.784661 
L 309.686524 -122.155001 
L 309.231012 -120.525341 
L 308.85635 -118.89568 
L 308.547417 -117.26602 
L 308.289813 -115.63636 
L 308.070514 -114.006699 
L 307.878405 -112.377039 
L 307.704644 -110.747379 
L 307.542813 -109.117718 
L 307.388865 -107.488058 
L 307.240865 -105.858398 
L 307.098572 -104.228737 
L 306.962939 -102.599077 
L 306.83558 -100.969417 
L 306.718285 -99.339757 
L 306.612628 -97.710096 
L 306.5197 -96.080436 
L 306.439973 -94.450776 
L 306.373284 -92.821115 
L 306.318906 -91.191455 
z
" style="stroke: #525252; stroke-width: 1.2"/>
    </defs>
    <g clip-path="url(#pacddb69d03)">
     <use xlink:href="#m3a4491f9e2" x="0" y="288" style="fill: #cccccc; stroke: #525252; stroke-width: 1.2"/>
    </g>
   </g>
   <g id="matplotlib.axis_1">
    <g id="xtick_1">
     <g id="line2d_1">
      <defs>
       <path id="m7c696541e6" d="M 0 0 
L 0 3.5 
" style="stroke: #000000; stroke-width: 0.8"/>
      </defs>
      <g>
       <use xlink:href="#m7c696541e6" x="87.297476" y="249.224" style="stroke: #000000; stroke-width: 0.8"/>
      </g>
     </g>
     <g id="text_1">
      <!-- Bayesian -->
      <g transform="translate(64.540445 263.822437) scale(0.1 -0.1)">
       <defs>
        <path id="DejaVuSans-42" d="M 1259 2228 
L 1259 519 
L 2272 519 
Q 2781 519 3026 730 
Q 3272 941 3272 1375 
Q 3272 1813 3026 2020 
Q 2781 2228 2272 2228 
L 1259 2228 
z
M 1259 4147 
L 1259 2741 
L 2194 2741 
Q 2656 2741 2882 2914 
Q 3109 3088 3109 3444 
Q 3109 3797 2882 3972 
Q 2656 4147 2194 4147 
L 1259 4147 
z
M 628 4666 
L 2241 4666 
Q 2963 4666 3353 4366 
Q 3744 4066 3744 3513 
Q 3744 3084 3544 2831 
Q 3344 2578 2956 2516 
Q 3422 2416 3680 2098 
Q 3938 1781 3938 1306 
Q 3938 681 3513 340 
Q 3088 0 2303 0 
L 628 0 
L 628 4666 
z
" transform="scale(0.015625)"/>
        <path id="DejaVuSans-61" d="M 2194 1759 
Q 1497 1759 1228 1600 
Q 959 1441 959 1056 
Q 959 750 1161 570 
Q 1363 391 1709 391 
Q 2188 391 2477 730 
Q 2766 1069 2766 1631 
L 2766 1759 
L 2194 1759 
z
M 3341 1997 
L 3341 0 
L 2766 0 
L 2766 531 
Q 2569 213 2275 61 
Q 1981 -91 1556 -91 
Q 1019 -91 701 211 
Q 384 513 384 1019 
Q 384 1609 779 1909 
Q 1175 2209 1959 2209 
L 2766 2209 
L 2766 2266 
Q 2766 2663 2505 2880 
Q 2244 3097 1772 3097 
Q 1472 3097 1187 3025 
Q 903 2953 641 2809 
L 641 3341 
Q 956 3463 1253 3523 
Q 1550 3584 1831 3584 
Q 2591 3584 2966 3190 
Q 3341 2797 3341 1997 
z
" transform="scale(0.015625)"/>
        <path id="DejaVuSans-79" d="M 2059 -325 
Q 1816 -950 1584 -1140 
Q 1353 -1331 966 -1331 
L 506 -1331 
L 506 -850 
L 844 -850 
Q 1081 -850 1212 -737 
Q 1344 -625 1503 -206 
L 1606 56 
L 191 3500 
L 800 3500 
L 1894 763 
L 2988 3500 
L 3597 3500 
L 2059 -325 
z
" transform="scale(0.015625)"/>
        <path id="DejaVuSans-65" d="M 3597 1894 
L 3597 1613 
L 953 1613 
Q 991 1019 1311 708 
Q 1631 397 2203 397 
Q 2534 397 2845 478 
Q 3156 559 3463 722 
L 3463 178 
Q 3153 47 2828 -22 
Q 2503 -91 2169 -91 
Q 1331 -91 842 396 
Q 353 884 353 1716 
Q 353 2575 817 3079 
Q 1281 3584 2069 3584 
Q 2775 3584 3186 3129 
Q 3597 2675 3597 1894 
z
M 3022 2063 
Q 3016 2534 2758 2815 
Q 2500 3097 2075 3097 
Q 1594 3097 1305 2825 
Q 1016 2553 972 2059 
L 3022 2063 
z
" transform="scale(0.015625)"/>
        <path id="DejaVuSans-73" d="M 2834 3397 
L 2834 2853 
Q 2591 2978 2328 3040 
Q 2066 3103 1784 3103 
Q 1356 3103 1142 2972 
Q 928 2841 928 2578 
Q 928 2378 1081 2264 
Q 1234 2150 1697 2047 
L 1894 2003 
Q 2506 1872 2764 1633 
Q 3022 1394 3022 966 
Q 3022 478 2636 193 
Q 2250 -91 1575 -91 
Q 1294 -91 989 -36 
Q 684 19 347 128 
L 347 722 
Q 666 556 975 473 
Q 1284 391 1588 391 
Q 1994 391 2212 530 
Q 2431 669 2431 922 
Q 2431 1156 2273 1281 
Q 2116 1406 1581 1522 
L 1381 1569 
Q 847 1681 609 1914 
Q 372 2147 372 2553 
Q 372 3047 722 3315 
Q 1072 3584 1716 3584 
Q 2034 3584 2315 3537 
Q 2597 3491 2834 3397 
z
" transform="scale(0.015625)"/>
        <path id="DejaVuSans-69" d="M 603 3500 
L 1178 3500 
L 1178 0 
L 603 0 
L 603 3500 
z
M 603 4863 
L 1178 4863 
L 1178 4134 
L 603 4134 
L 603 4863 
z
" transform="scale(0.015625)"/>
        <path id="DejaVuSans-6e" d="M 3513 2113 
L 3513 0 
L 2938 0 
L 2938 2094 
Q 2938 2591 2744 2837 
Q 2550 3084 2163 3084 
Q 1697 3084 1428 2787 
Q 1159 2491 1159 1978 
L 1159 0 
L 581 0 
L 581 3500 
L 1159 3500 
L 1159 2956 
Q 1366 3272 1645 3428 
Q 1925 3584 2291 3584 
Q 2894 3584 3203 3211 
Q 3513 2838 3513 2113 
z
" transform="scale(0.015625)"/>
       </defs>
       <use xlink:href="#DejaVuSans-42"/>
       <use xlink:href="#DejaVuSans-61" transform="translate(68.603516 0)"/>
       <use xlink:href="#DejaVuSans-79" transform="translate(129.882812 0)"/>
       <use xlink:href="#DejaVuSans-65" transform="translate(189.0625 0)"/>
       <use xlink:href="#DejaVuSans-73" transform="translate(250.585938 0)"/>
       <use xlink:href="#DejaVuSans-69" transform="translate(302.685547 0)"/>
       <use xlink:href="#DejaVuSans-61" transform="translate(330.46875 0)"/>
       <use xlink:href="#DejaVuSans-6e" transform="translate(391.748047 0)"/>
      </g>
      <!-- Network -->
      <g transform="translate(66.420914 275.02025) scale(0.1 -0.1)">
       <defs>
        <path id="DejaVuSans-4e" d="M 628 4666 
L 1478 4666 
L 3547 763 
L 3547 4666 
L 4159 4666 
L 4159 0 
L 3309 0 
L 1241 3903 
L 1241 0 
L 628 0 
L 628 4666 
z
" transform="scale(0.015625)"/>
        <path id="DejaVuSans-74" d="M 1172 4494 
L 1172 3500 
L 2356 3500 
L 2356 3053 
L 1172 3053 
L 1172 1153 
Q 1172 725 1289 603 
Q 1406 481 1766 481 
L 2356 481 
L 2356 0 
L 1766 0 
Q 1100 0 847 248 
Q 594 497 594 1153 
L 594 3053 
L 172 3053 
L 172 3500 
L 594 3500 
L 594 4494 
L 1172 4494 
z
" transform="scale(0.015625)"/>
        <path id="DejaVuSans-77" d="M 269 3500 
L 844 3500 
L 1563 769 
L 2278 3500 
L 2956 3500 
L 3675 769 
L 4391 3500 
L 4966 3500 
L 4050 0 
L 3372 0 
L 2619 2869 
L 1863 0 
L 1184 0 
L 269 3500 
z
" transform="scale(0.015625)"/>
        <path id="DejaVuSans-6f" d="M 1959 3097 
Q 1497 3097 1228 2736 
Q 959 2375 959 1747 
Q 959 1119 1226 758 
Q 1494 397 1959 397 
Q 2419 397 2687 759 
Q 2956 1122 2956 1747 
Q 2956 2369 2687 2733 
Q 2419 3097 1959 3097 
z
M 1959 3584 
Q 2709 3584 3137 3096 
Q 3566 2609 3566 1747 
Q 3566 888 3137 398 
Q 2709 -91 1959 -91 
Q 1206 -91 779 398 
Q 353 888 353 1747 
Q 353 2609 779 3096 
Q 1206 3584 1959 3584 
z
" transform="scale(0.015625)"/>
        <path id="DejaVuSans-72" d="M 2631 2963 
Q 2534 3019 2420 3045 
Q 2306 3072 2169 3072 
Q 1681 3072 1420 2755 
Q 1159 2438 1159 1844 
L 1159 0 
L 581 0 
L 581 3500 
L 1159 3500 
L 1159 2956 
Q 1341 3275 1631 3429 
Q 1922 3584 2338 3584 
Q 2397 3584 2469 3576 
Q 2541 3569 2628 3553 
L 2631 2963 
z
" transform="scale(0.015625)"/>
        <path id="DejaVuSans-6b" d="M 581 4863 
L 1159 4863 
L 1159 1991 
L 2875 3500 
L 3609 3500 
L 1753 1863 
L 3688 0 
L 2938 0 
L 1159 1709 
L 1159 0 
L 581 0 
L 581 4863 
z
" transform="scale(0.015625)"/>
       </defs>
       <use xlink:href="#DejaVuSans-4e"/>
       <use xlink:href="#DejaVuSans-65" transform="translate(74.804688 0)"/>
       <use xlink:href="#DejaVuSans-74" transform="translate(136.328125 0)"/>
       <use xlink:href="#DejaVuSans-77" transform="translate(175.537109 0)"/>
       <use xlink:href="#DejaVuSans-6f" transform="translate(257.324219 0)"/>
       <use xlink:href="#DejaVuSans-72" transform="translate(318.505859 0)"/>
       <use xlink:href="#DejaVuSans-6b" transform="translate(359.619141 0)"/>
      </g>
     </g>
    </g>
    <g id="xtick_2">
     <g id="line2d_2">
      <g>
       <use xlink:href="#m7c696541e6" x="160.250825" y="249.224" style="stroke: #000000; stroke-width: 0.8"/>
      </g>
     </g>
     <g id="text_2">
      <!-- Mean values -->
      <g transform="translate(128.775825 263.822437) scale(0.1 -0.1)">
       <defs>
        <path id="DejaVuSans-4d" d="M 628 4666 
L 1569 4666 
L 2759 1491 
L 3956 4666 
L 4897 4666 
L 4897 0 
L 4281 0 
L 4281 4097 
L 3078 897 
L 2444 897 
L 1241 4097 
L 1241 0 
L 628 0 
L 628 4666 
z
" transform="scale(0.015625)"/>
        <path id="DejaVuSans-20" transform="scale(0.015625)"/>
        <path id="DejaVuSans-76" d="M 191 3500 
L 800 3500 
L 1894 563 
L 2988 3500 
L 3597 3500 
L 2284 0 
L 1503 0 
L 191 3500 
z
" transform="scale(0.015625)"/>
        <path id="DejaVuSans-6c" d="M 603 4863 
L 1178 4863 
L 1178 0 
L 603 0 
L 603 4863 
z
" transform="scale(0.015625)"/>
        <path id="DejaVuSans-75" d="M 544 1381 
L 544 3500 
L 1119 3500 
L 1119 1403 
Q 1119 906 1312 657 
Q 1506 409 1894 409 
Q 2359 409 2629 706 
Q 2900 1003 2900 1516 
L 2900 3500 
L 3475 3500 
L 3475 0 
L 2900 0 
L 2900 538 
Q 2691 219 2414 64 
Q 2138 -91 1772 -91 
Q 1169 -91 856 284 
Q 544 659 544 1381 
z
M 1991 3584 
L 1991 3584 
z
" transform="scale(0.015625)"/>
       </defs>
       <use xlink:href="#DejaVuSans-4d"/>
       <use xlink:href="#DejaVuSans-65" transform="translate(86.279297 0)"/>
       <use xlink:href="#DejaVuSans-61" transform="translate(147.802734 0)"/>
       <use xlink:href="#DejaVuSans-6e" transform="translate(209.082031 0)"/>
       <use xlink:href="#DejaVuSans-20" transform="translate(272.460938 0)"/>
       <use xlink:href="#DejaVuSans-76" transform="translate(304.248047 0)"/>
       <use xlink:href="#DejaVuSans-61" transform="translate(363.427734 0)"/>
       <use xlink:href="#DejaVuSans-6c" transform="translate(424.707031 0)"/>
       <use xlink:href="#DejaVuSans-75" transform="translate(452.490234 0)"/>
       <use xlink:href="#DejaVuSans-65" transform="translate(515.869141 0)"/>
       <use xlink:href="#DejaVuSans-73" transform="translate(577.392578 0)"/>
      </g>
     </g>
    </g>
    <g id="xtick_3">
     <g id="line2d_3">
      <g>
       <use xlink:href="#m7c696541e6" x="233.204175" y="249.224" style="stroke: #000000; stroke-width: 0.8"/>
      </g>
     </g>
     <g id="text_3">
      <!-- LogNormal -->
      <g transform="translate(206.180737 263.822437) scale(0.1 -0.1)">
       <defs>
        <path id="DejaVuSans-4c" d="M 628 4666 
L 1259 4666 
L 1259 531 
L 3531 531 
L 3531 0 
L 628 0 
L 628 4666 
z
" transform="scale(0.015625)"/>
        <path id="DejaVuSans-67" d="M 2906 1791 
Q 2906 2416 2648 2759 
Q 2391 3103 1925 3103 
Q 1463 3103 1205 2759 
Q 947 2416 947 1791 
Q 947 1169 1205 825 
Q 1463 481 1925 481 
Q 2391 481 2648 825 
Q 2906 1169 2906 1791 
z
M 3481 434 
Q 3481 -459 3084 -895 
Q 2688 -1331 1869 -1331 
Q 1566 -1331 1297 -1286 
Q 1028 -1241 775 -1147 
L 775 -588 
Q 1028 -725 1275 -790 
Q 1522 -856 1778 -856 
Q 2344 -856 2625 -561 
Q 2906 -266 2906 331 
L 2906 616 
Q 2728 306 2450 153 
Q 2172 0 1784 0 
Q 1141 0 747 490 
Q 353 981 353 1791 
Q 353 2603 747 3093 
Q 1141 3584 1784 3584 
Q 2172 3584 2450 3431 
Q 2728 3278 2906 2969 
L 2906 3500 
L 3481 3500 
L 3481 434 
z
" transform="scale(0.015625)"/>
        <path id="DejaVuSans-6d" d="M 3328 2828 
Q 3544 3216 3844 3400 
Q 4144 3584 4550 3584 
Q 5097 3584 5394 3201 
Q 5691 2819 5691 2113 
L 5691 0 
L 5113 0 
L 5113 2094 
Q 5113 2597 4934 2840 
Q 4756 3084 4391 3084 
Q 3944 3084 3684 2787 
Q 3425 2491 3425 1978 
L 3425 0 
L 2847 0 
L 2847 2094 
Q 2847 2600 2669 2842 
Q 2491 3084 2119 3084 
Q 1678 3084 1418 2786 
Q 1159 2488 1159 1978 
L 1159 0 
L 581 0 
L 581 3500 
L 1159 3500 
L 1159 2956 
Q 1356 3278 1631 3431 
Q 1906 3584 2284 3584 
Q 2666 3584 2933 3390 
Q 3200 3197 3328 2828 
z
" transform="scale(0.015625)"/>
       </defs>
       <use xlink:href="#DejaVuSans-4c"/>
       <use xlink:href="#DejaVuSans-6f" transform="translate(53.962891 0)"/>
       <use xlink:href="#DejaVuSans-67" transform="translate(115.144531 0)"/>
       <use xlink:href="#DejaVuSans-4e" transform="translate(178.621094 0)"/>
       <use xlink:href="#DejaVuSans-6f" transform="translate(253.425781 0)"/>
       <use xlink:href="#DejaVuSans-72" transform="translate(314.607422 0)"/>
       <use xlink:href="#DejaVuSans-6d" transform="translate(353.970703 0)"/>
       <use xlink:href="#DejaVuSans-61" transform="translate(451.382812 0)"/>
       <use xlink:href="#DejaVuSans-6c" transform="translate(512.662109 0)"/>
      </g>
      <!-- Distribution -->
      <g transform="translate(204.035425 275.02025) scale(0.1 -0.1)">
       <defs>
        <path id="DejaVuSans-44" d="M 1259 4147 
L 1259 519 
L 2022 519 
Q 2988 519 3436 956 
Q 3884 1394 3884 2338 
Q 3884 3275 3436 3711 
Q 2988 4147 2022 4147 
L 1259 4147 
z
M 628 4666 
L 1925 4666 
Q 3281 4666 3915 4102 
Q 4550 3538 4550 2338 
Q 4550 1131 3912 565 
Q 3275 0 1925 0 
L 628 0 
L 628 4666 
z
" transform="scale(0.015625)"/>
        <path id="DejaVuSans-62" d="M 3116 1747 
Q 3116 2381 2855 2742 
Q 2594 3103 2138 3103 
Q 1681 3103 1420 2742 
Q 1159 2381 1159 1747 
Q 1159 1113 1420 752 
Q 1681 391 2138 391 
Q 2594 391 2855 752 
Q 3116 1113 3116 1747 
z
M 1159 2969 
Q 1341 3281 1617 3432 
Q 1894 3584 2278 3584 
Q 2916 3584 3314 3078 
Q 3713 2572 3713 1747 
Q 3713 922 3314 415 
Q 2916 -91 2278 -91 
Q 1894 -91 1617 61 
Q 1341 213 1159 525 
L 1159 0 
L 581 0 
L 581 4863 
L 1159 4863 
L 1159 2969 
z
" transform="scale(0.015625)"/>
       </defs>
       <use xlink:href="#DejaVuSans-44"/>
       <use xlink:href="#DejaVuSans-69" transform="translate(77.001953 0)"/>
       <use xlink:href="#DejaVuSans-73" transform="translate(104.785156 0)"/>
       <use xlink:href="#DejaVuSans-74" transform="translate(156.884766 0)"/>
       <use xlink:href="#DejaVuSans-72" transform="translate(196.09375 0)"/>
       <use xlink:href="#DejaVuSans-69" transform="translate(237.207031 0)"/>
       <use xlink:href="#DejaVuSans-62" transform="translate(264.990234 0)"/>
       <use xlink:href="#DejaVuSans-75" transform="translate(328.466797 0)"/>
       <use xlink:href="#DejaVuSans-74" transform="translate(391.845703 0)"/>
       <use xlink:href="#DejaVuSans-69" transform="translate(431.054688 0)"/>
       <use xlink:href="#DejaVuSans-6f" transform="translate(458.837891 0)"/>
       <use xlink:href="#DejaVuSans-6e" transform="translate(520.019531 0)"/>
      </g>
     </g>
    </g>
    <g id="xtick_4">
     <g id="line2d_4">
      <g>
       <use xlink:href="#m7c696541e6" x="306.157524" y="249.224" style="stroke: #000000; stroke-width: 0.8"/>
      </g>
     </g>
     <g id="text_4">
      <!-- Empirical -->
      <g transform="translate(282.91768 263.822437) scale(0.1 -0.1)">
       <defs>
        <path id="DejaVuSans-45" d="M 628 4666 
L 3578 4666 
L 3578 4134 
L 1259 4134 
L 1259 2753 
L 3481 2753 
L 3481 2222 
L 1259 2222 
L 1259 531 
L 3634 531 
L 3634 0 
L 628 0 
L 628 4666 
z
" transform="scale(0.015625)"/>
        <path id="DejaVuSans-70" d="M 1159 525 
L 1159 -1331 
L 581 -1331 
L 581 3500 
L 1159 3500 
L 1159 2969 
Q 1341 3281 1617 3432 
Q 1894 3584 2278 3584 
Q 2916 3584 3314 3078 
Q 3713 2572 3713 1747 
Q 3713 922 3314 415 
Q 2916 -91 2278 -91 
Q 1894 -91 1617 61 
Q 1341 213 1159 525 
z
M 3116 1747 
Q 3116 2381 2855 2742 
Q 2594 3103 2138 3103 
Q 1681 3103 1420 2742 
Q 1159 2381 1159 1747 
Q 1159 1113 1420 752 
Q 1681 391 2138 391 
Q 2594 391 2855 752 
Q 3116 1113 3116 1747 
z
" transform="scale(0.015625)"/>
        <path id="DejaVuSans-63" d="M 3122 3366 
L 3122 2828 
Q 2878 2963 2633 3030 
Q 2388 3097 2138 3097 
Q 1578 3097 1268 2742 
Q 959 2388 959 1747 
Q 959 1106 1268 751 
Q 1578 397 2138 397 
Q 2388 397 2633 464 
Q 2878 531 3122 666 
L 3122 134 
Q 2881 22 2623 -34 
Q 2366 -91 2075 -91 
Q 1284 -91 818 406 
Q 353 903 353 1747 
Q 353 2603 823 3093 
Q 1294 3584 2113 3584 
Q 2378 3584 2631 3529 
Q 2884 3475 3122 3366 
z
" transform="scale(0.015625)"/>
       </defs>
       <use xlink:href="#DejaVuSans-45"/>
       <use xlink:href="#DejaVuSans-6d" transform="translate(63.183594 0)"/>
       <use xlink:href="#DejaVuSans-70" transform="translate(160.595703 0)"/>
       <use xlink:href="#DejaVuSans-69" transform="translate(224.072266 0)"/>
       <use xlink:href="#DejaVuSans-72" transform="translate(251.855469 0)"/>
       <use xlink:href="#DejaVuSans-69" transform="translate(292.96875 0)"/>
       <use xlink:href="#DejaVuSans-63" transform="translate(320.751953 0)"/>
       <use xlink:href="#DejaVuSans-61" transform="translate(375.732422 0)"/>
       <use xlink:href="#DejaVuSans-6c" transform="translate(437.011719 0)"/>
      </g>
      <!-- Distribution -->
      <g transform="translate(276.988774 275.02025) scale(0.1 -0.1)">
       <use xlink:href="#DejaVuSans-44"/>
       <use xlink:href="#DejaVuSans-69" transform="translate(77.001953 0)"/>
       <use xlink:href="#DejaVuSans-73" transform="translate(104.785156 0)"/>
       <use xlink:href="#DejaVuSans-74" transform="translate(156.884766 0)"/>
       <use xlink:href="#DejaVuSans-72" transform="translate(196.09375 0)"/>
       <use xlink:href="#DejaVuSans-69" transform="translate(237.207031 0)"/>
       <use xlink:href="#DejaVuSans-62" transform="translate(264.990234 0)"/>
       <use xlink:href="#DejaVuSans-75" transform="translate(328.466797 0)"/>
       <use xlink:href="#DejaVuSans-74" transform="translate(391.845703 0)"/>
       <use xlink:href="#DejaVuSans-69" transform="translate(431.054688 0)"/>
       <use xlink:href="#DejaVuSans-6f" transform="translate(458.837891 0)"/>
       <use xlink:href="#DejaVuSans-6e" transform="translate(520.019531 0)"/>
      </g>
     </g>
    </g>
   </g>
   <g id="matplotlib.axis_2">
    <g id="ytick_1">
     <g id="line2d_5">
      <defs>
       <path id="m4e746b7734" d="M 0 0 
L -3.5 0 
" style="stroke: #000000; stroke-width: 0.8"/>
      </defs>
      <g>
       <use xlink:href="#m4e746b7734" x="44.255" y="223.912199" style="stroke: #000000; stroke-width: 0.8"/>
      </g>
     </g>
     <g id="text_5">
      <!-- 0 -->
      <g transform="translate(30.8925 227.711418) scale(0.1 -0.1)">
       <defs>
        <path id="DejaVuSans-30" d="M 2034 4250 
Q 1547 4250 1301 3770 
Q 1056 3291 1056 2328 
Q 1056 1369 1301 889 
Q 1547 409 2034 409 
Q 2525 409 2770 889 
Q 3016 1369 3016 2328 
Q 3016 3291 2770 3770 
Q 2525 4250 2034 4250 
z
M 2034 4750 
Q 2819 4750 3233 4129 
Q 3647 3509 3647 2328 
Q 3647 1150 3233 529 
Q 2819 -91 2034 -91 
Q 1250 -91 836 529 
Q 422 1150 422 2328 
Q 422 3509 836 4129 
Q 1250 4750 2034 4750 
z
" transform="scale(0.015625)"/>
       </defs>
       <use xlink:href="#DejaVuSans-30"/>
      </g>
     </g>
    </g>
    <g id="ytick_2">
     <g id="line2d_6">
      <g>
       <use xlink:href="#m4e746b7734" x="44.255" y="174.924999" style="stroke: #000000; stroke-width: 0.8"/>
      </g>
     </g>
     <g id="text_6">
      <!-- 10 -->
      <g transform="translate(24.53 178.724218) scale(0.1 -0.1)">
       <defs>
        <path id="DejaVuSans-31" d="M 794 531 
L 1825 531 
L 1825 4091 
L 703 3866 
L 703 4441 
L 1819 4666 
L 2450 4666 
L 2450 531 
L 3481 531 
L 3481 0 
L 794 0 
L 794 531 
z
" transform="scale(0.015625)"/>
       </defs>
       <use xlink:href="#DejaVuSans-31"/>
       <use xlink:href="#DejaVuSans-30" transform="translate(63.623047 0)"/>
      </g>
     </g>
    </g>
    <g id="ytick_3">
     <g id="line2d_7">
      <g>
       <use xlink:href="#m4e746b7734" x="44.255" y="125.937799" style="stroke: #000000; stroke-width: 0.8"/>
      </g>
     </g>
     <g id="text_7">
      <!-- 20 -->
      <g transform="translate(24.53 129.737018) scale(0.1 -0.1)">
       <defs>
        <path id="DejaVuSans-32" d="M 1228 531 
L 3431 531 
L 3431 0 
L 469 0 
L 469 531 
Q 828 903 1448 1529 
Q 2069 2156 2228 2338 
Q 2531 2678 2651 2914 
Q 2772 3150 2772 3378 
Q 2772 3750 2511 3984 
Q 2250 4219 1831 4219 
Q 1534 4219 1204 4116 
Q 875 4013 500 3803 
L 500 4441 
Q 881 4594 1212 4672 
Q 1544 4750 1819 4750 
Q 2544 4750 2975 4387 
Q 3406 4025 3406 3419 
Q 3406 3131 3298 2873 
Q 3191 2616 2906 2266 
Q 2828 2175 2409 1742 
Q 1991 1309 1228 531 
z
" transform="scale(0.015625)"/>
       </defs>
       <use xlink:href="#DejaVuSans-32"/>
       <use xlink:href="#DejaVuSans-30" transform="translate(63.623047 0)"/>
      </g>
     </g>
    </g>
    <g id="ytick_4">
     <g id="line2d_8">
      <g>
       <use xlink:href="#m4e746b7734" x="44.255" y="76.9506" style="stroke: #000000; stroke-width: 0.8"/>
      </g>
     </g>
     <g id="text_8">
      <!-- 30 -->
      <g transform="translate(24.53 80.749818) scale(0.1 -0.1)">
       <defs>
        <path id="DejaVuSans-33" d="M 2597 2516 
Q 3050 2419 3304 2112 
Q 3559 1806 3559 1356 
Q 3559 666 3084 287 
Q 2609 -91 1734 -91 
Q 1441 -91 1130 -33 
Q 819 25 488 141 
L 488 750 
Q 750 597 1062 519 
Q 1375 441 1716 441 
Q 2309 441 2620 675 
Q 2931 909 2931 1356 
Q 2931 1769 2642 2001 
Q 2353 2234 1838 2234 
L 1294 2234 
L 1294 2753 
L 1863 2753 
Q 2328 2753 2575 2939 
Q 2822 3125 2822 3475 
Q 2822 3834 2567 4026 
Q 2313 4219 1838 4219 
Q 1578 4219 1281 4162 
Q 984 4106 628 3988 
L 628 4550 
Q 988 4650 1302 4700 
Q 1616 4750 1894 4750 
Q 2613 4750 3031 4423 
Q 3450 4097 3450 3541 
Q 3450 3153 3228 2886 
Q 3006 2619 2597 2516 
z
" transform="scale(0.015625)"/>
       </defs>
       <use xlink:href="#DejaVuSans-33"/>
       <use xlink:href="#DejaVuSans-30" transform="translate(63.623047 0)"/>
      </g>
     </g>
    </g>
    <g id="ytick_5">
     <g id="line2d_9">
      <g>
       <use xlink:href="#m4e746b7734" x="44.255" y="27.9634" style="stroke: #000000; stroke-width: 0.8"/>
      </g>
     </g>
     <g id="text_9">
      <!-- 40 -->
      <g transform="translate(24.53 31.762619) scale(0.1 -0.1)">
       <defs>
        <path id="DejaVuSans-34" d="M 2419 4116 
L 825 1625 
L 2419 1625 
L 2419 4116 
z
M 2253 4666 
L 3047 4666 
L 3047 1625 
L 3713 1625 
L 3713 1100 
L 3047 1100 
L 3047 0 
L 2419 0 
L 2419 1100 
L 313 1100 
L 313 1709 
L 2253 4666 
z
" transform="scale(0.015625)"/>
       </defs>
       <use xlink:href="#DejaVuSans-34"/>
       <use xlink:href="#DejaVuSans-30" transform="translate(63.623047 0)"/>
      </g>
     </g>
    </g>
    <g id="text_10">
     <!-- Δ sequence similarity -->
     <g transform="translate(18.450312 183.776062) rotate(-90) scale(0.1 -0.1)">
      <defs>
       <path id="DejaVuSans-394" d="M 2188 4044 
L 906 525 
L 3472 525 
L 2188 4044 
z
M 50 0 
L 1831 4666 
L 2547 4666 
L 4325 0 
L 50 0 
z
" transform="scale(0.015625)"/>
       <path id="DejaVuSans-71" d="M 947 1747 
Q 947 1113 1208 752 
Q 1469 391 1925 391 
Q 2381 391 2643 752 
Q 2906 1113 2906 1747 
Q 2906 2381 2643 2742 
Q 2381 3103 1925 3103 
Q 1469 3103 1208 2742 
Q 947 2381 947 1747 
z
M 2906 525 
Q 2725 213 2448 61 
Q 2172 -91 1784 -91 
Q 1150 -91 751 415 
Q 353 922 353 1747 
Q 353 2572 751 3078 
Q 1150 3584 1784 3584 
Q 2172 3584 2448 3432 
Q 2725 3281 2906 2969 
L 2906 3500 
L 3481 3500 
L 3481 -1331 
L 2906 -1331 
L 2906 525 
z
" transform="scale(0.015625)"/>
      </defs>
      <use xlink:href="#DejaVuSans-394"/>
      <use xlink:href="#DejaVuSans-20" transform="translate(68.408203 0)"/>
      <use xlink:href="#DejaVuSans-73" transform="translate(100.195312 0)"/>
      <use xlink:href="#DejaVuSans-65" transform="translate(152.294922 0)"/>
      <use xlink:href="#DejaVuSans-71" transform="translate(213.818359 0)"/>
      <use xlink:href="#DejaVuSans-75" transform="translate(277.294922 0)"/>
      <use xlink:href="#DejaVuSans-65" transform="translate(340.673828 0)"/>
      <use xlink:href="#DejaVuSans-6e" transform="translate(402.197266 0)"/>
      <use xlink:href="#DejaVuSans-63" transform="translate(465.576172 0)"/>
      <use xlink:href="#DejaVuSans-65" transform="translate(520.556641 0)"/>
      <use xlink:href="#DejaVuSans-20" transform="translate(582.080078 0)"/>
      <use xlink:href="#DejaVuSans-73" transform="translate(613.867188 0)"/>
      <use xlink:href="#DejaVuSans-69" transform="translate(665.966797 0)"/>
      <use xlink:href="#DejaVuSans-6d" transform="translate(693.75 0)"/>
      <use xlink:href="#DejaVuSans-69" transform="translate(791.162109 0)"/>
      <use xlink:href="#DejaVuSans-6c" transform="translate(818.945312 0)"/>
      <use xlink:href="#DejaVuSans-61" transform="translate(846.728516 0)"/>
      <use xlink:href="#DejaVuSans-72" transform="translate(908.007812 0)"/>
      <use xlink:href="#DejaVuSans-69" transform="translate(949.121094 0)"/>
      <use xlink:href="#DejaVuSans-74" transform="translate(976.904297 0)"/>
      <use xlink:href="#DejaVuSans-79" transform="translate(1016.113281 0)"/>
     </g>
    </g>
   </g>
   <g id="line2d_10">
    <path d="M 60.344549 160.228839 
L 114.250403 160.228839 
" clip-path="url(#pacddb69d03)" style="fill: none; stroke-dasharray: 1.5,0.9; stroke-dashoffset: 0; stroke: #525252; stroke-width: 1.2"/>
   </g>
   <g id="line2d_11">
    <path d="M 58.537197 140.633959 
L 116.057755 140.633959 
" clip-path="url(#pacddb69d03)" style="fill: none; stroke-dasharray: 3,1.2; stroke-dashoffset: 0; stroke: #525252; stroke-width: 1.2"/>
   </g>
   <g id="line2d_12">
    <path d="M 61.169388 121.039079 
L 113.425564 121.039079 
" clip-path="url(#pacddb69d03)" style="fill: none; stroke-dasharray: 1.5,0.9; stroke-dashoffset: 0; stroke: #525252; stroke-width: 1.2"/>
   </g>
   <g id="line2d_13">
    <path d="M 136.009579 155.330119 
L 184.492071 155.330119 
" clip-path="url(#pacddb69d03)" style="fill: none; stroke-dasharray: 1.5,0.9; stroke-dashoffset: 0; stroke: #525252; stroke-width: 1.2"/>
   </g>
   <g id="line2d_14">
    <path d="M 131.318335 135.735239 
L 189.183316 135.735239 
" clip-path="url(#pacddb69d03)" style="fill: none; stroke-dasharray: 3,1.2; stroke-dashoffset: 0; stroke: #525252; stroke-width: 1.2"/>
   </g>
   <g id="line2d_15">
    <path d="M 133.90708 116.140359 
L 186.594571 116.140359 
" clip-path="url(#pacddb69d03)" style="fill: none; stroke-dasharray: 1.5,0.9; stroke-dashoffset: 0; stroke: #525252; stroke-width: 1.2"/>
   </g>
   <g id="line2d_16">
    <path d="M 212.691436 118.589719 
L 253.716913 118.589719 
" clip-path="url(#pacddb69d03)" style="fill: none; stroke-dasharray: 1.5,0.9; stroke-dashoffset: 0; stroke: #525252; stroke-width: 1.2"/>
   </g>
   <g id="line2d_17">
    <path d="M 204.147287 106.342919 
L 262.261063 106.342919 
" clip-path="url(#pacddb69d03)" style="fill: none; stroke-dasharray: 3,1.2; stroke-dashoffset: 0; stroke: #525252; stroke-width: 1.2"/>
   </g>
   <g id="line2d_18">
    <path d="M 213.770712 86.74804 
L 252.637638 86.74804 
" clip-path="url(#pacddb69d03)" style="fill: none; stroke-dasharray: 1.5,0.9; stroke-dashoffset: 0; stroke: #525252; stroke-width: 1.2"/>
   </g>
   <g id="line2d_19">
    <path d="M 277.810113 130.836519 
L 334.504934 130.836519 
" clip-path="url(#pacddb69d03)" style="fill: none; stroke-dasharray: 1.5,0.9; stroke-dashoffset: 0; stroke: #525252; stroke-width: 1.2"/>
   </g>
   <g id="line2d_20">
    <path d="M 279.553238 111.241639 
L 332.76181 111.241639 
" clip-path="url(#pacddb69d03)" style="fill: none; stroke-dasharray: 3,1.2; stroke-dashoffset: 0; stroke: #525252; stroke-width: 1.2"/>
   </g>
   <g id="line2d_21">
    <path d="M 278.137556 86.74804 
L 334.177492 86.74804 
" clip-path="url(#pacddb69d03)" style="fill: none; stroke-dasharray: 1.5,0.9; stroke-dashoffset: 0; stroke: #525252; stroke-width: 1.2"/>
   </g>
   <g id="LineCollection_1">
    <path d="M 87.297476 170.197305 
L 87.297476 112.638204 
" clip-path="url(#pacddb69d03)" style="fill: none; stroke: #000000; stroke-width: 1.5"/>
    <path d="M 160.250825 161.506267 
L 160.250825 109.964212 
" clip-path="url(#pacddb69d03)" style="fill: none; stroke: #000000; stroke-width: 1.5"/>
    <path d="M 233.204175 129.766982 
L 233.204175 79.914308 
" clip-path="url(#pacddb69d03)" style="fill: none; stroke: #000000; stroke-width: 1.5"/>
    <path d="M 306.157524 135.1646 
L 306.157524 83.26907 
" clip-path="url(#pacddb69d03)" style="fill: none; stroke: #000000; stroke-width: 1.5"/>
   </g>
   <g id="line2d_22">
    <defs>
     <path id="m79992f97c8" d="M 5 0 
L -5 -0 
" style="stroke: #000000"/>
    </defs>
    <g clip-path="url(#pacddb69d03)">
     <use xlink:href="#m79992f97c8" x="87.297476" y="170.197305" style="stroke: #000000"/>
     <use xlink:href="#m79992f97c8" x="160.250825" y="161.506267" style="stroke: #000000"/>
     <use xlink:href="#m79992f97c8" x="233.204175" y="129.766982" style="stroke: #000000"/>
     <use xlink:href="#m79992f97c8" x="306.157524" y="135.1646" style="stroke: #000000"/>
    </g>
   </g>
   <g id="line2d_23">
    <g clip-path="url(#pacddb69d03)">
     <use xlink:href="#m79992f97c8" x="87.297476" y="112.638204" style="stroke: #000000"/>
     <use xlink:href="#m79992f97c8" x="160.250825" y="109.964212" style="stroke: #000000"/>
     <use xlink:href="#m79992f97c8" x="233.204175" y="79.914308" style="stroke: #000000"/>
     <use xlink:href="#m79992f97c8" x="306.157524" y="83.26907" style="stroke: #000000"/>
    </g>
   </g>
   <g id="line2d_24">
    <defs>
     <path id="m560fe78b96" d="M 0 3 
C 0.795609 3 1.55874 2.683901 2.12132 2.12132 
C 2.683901 1.55874 3 0.795609 3 0 
C 3 -0.795609 2.683901 -1.55874 2.12132 -2.12132 
C 1.55874 -2.683901 0.795609 -3 0 -3 
C -0.795609 -3 -1.55874 -2.683901 -2.12132 -2.12132 
C -2.683901 -1.55874 -3 -0.795609 -3 0 
C -3 0.795609 -2.683901 1.55874 -2.12132 2.12132 
C -1.55874 2.683901 -0.795609 3 0 3 
z
" style="stroke: #000000"/>
    </defs>
    <g clip-path="url(#pacddb69d03)">
     <use xlink:href="#m560fe78b96" x="87.297476" y="141.417754" style="stroke: #000000"/>
     <use xlink:href="#m560fe78b96" x="160.250825" y="135.735239" style="stroke: #000000"/>
     <use xlink:href="#m560fe78b96" x="233.204175" y="104.840645" style="stroke: #000000"/>
     <use xlink:href="#m560fe78b96" x="306.157524" y="109.216835" style="stroke: #000000"/>
    </g>
   </g>
   <g id="patch_3">
    <path d="M 44.255 249.224 
L 44.255 10.8 
" style="fill: none; stroke: #000000; stroke-width: 0.8; stroke-linejoin: miter; stroke-linecap: square"/>
   </g>
   <g id="patch_4">
    <path d="M 349.2 249.224 
L 349.2 10.8 
" style="fill: none; stroke: #000000; stroke-width: 0.8; stroke-linejoin: miter; stroke-linecap: square"/>
   </g>
   <g id="patch_5">
    <path d="M 44.255 249.224 
L 349.2 249.224 
" style="fill: none; stroke: #000000; stroke-width: 0.8; stroke-linejoin: miter; stroke-linecap: square"/>
   </g>
   <g id="patch_6">
    <path d="M 44.255 10.8 
L 349.2 10.8 
" style="fill: none; stroke: #000000; stroke-width: 0.8; stroke-linejoin: miter; stroke-linecap: square"/>
   </g>
   <g id="text_11">
    <!-- 16.84 -->
    <g transform="translate(74.41482 108.317125) scale(0.09 -0.09)">
     <defs>
      <path id="DejaVuSans-36" d="M 2113 2584 
Q 1688 2584 1439 2293 
Q 1191 2003 1191 1497 
Q 1191 994 1439 701 
Q 1688 409 2113 409 
Q 2538 409 2786 701 
Q 3034 994 3034 1497 
Q 3034 2003 2786 2293 
Q 2538 2584 2113 2584 
z
M 3366 4563 
L 3366 3988 
Q 3128 4100 2886 4159 
Q 2644 4219 2406 4219 
Q 1781 4219 1451 3797 
Q 1122 3375 1075 2522 
Q 1259 2794 1537 2939 
Q 1816 3084 2150 3084 
Q 2853 3084 3261 2657 
Q 3669 2231 3669 1497 
Q 3669 778 3244 343 
Q 2819 -91 2113 -91 
Q 1303 -91 875 529 
Q 447 1150 447 2328 
Q 447 3434 972 4092 
Q 1497 4750 2381 4750 
Q 2619 4750 2861 4703 
Q 3103 4656 3366 4563 
z
" transform="scale(0.015625)"/>
      <path id="DejaVuSans-2e" d="M 684 794 
L 1344 794 
L 1344 0 
L 684 0 
L 684 794 
z
" transform="scale(0.015625)"/>
      <path id="DejaVuSans-38" d="M 2034 2216 
Q 1584 2216 1326 1975 
Q 1069 1734 1069 1313 
Q 1069 891 1326 650 
Q 1584 409 2034 409 
Q 2484 409 2743 651 
Q 3003 894 3003 1313 
Q 3003 1734 2745 1975 
Q 2488 2216 2034 2216 
z
M 1403 2484 
Q 997 2584 770 2862 
Q 544 3141 544 3541 
Q 544 4100 942 4425 
Q 1341 4750 2034 4750 
Q 2731 4750 3128 4425 
Q 3525 4100 3525 3541 
Q 3525 3141 3298 2862 
Q 3072 2584 2669 2484 
Q 3125 2378 3379 2068 
Q 3634 1759 3634 1313 
Q 3634 634 3220 271 
Q 2806 -91 2034 -91 
Q 1263 -91 848 271 
Q 434 634 434 1313 
Q 434 1759 690 2068 
Q 947 2378 1403 2484 
z
M 1172 3481 
Q 1172 3119 1398 2916 
Q 1625 2713 2034 2713 
Q 2441 2713 2670 2916 
Q 2900 3119 2900 3481 
Q 2900 3844 2670 4047 
Q 2441 4250 2034 4250 
Q 1625 4250 1398 4047 
Q 1172 3844 1172 3481 
z
" transform="scale(0.015625)"/>
     </defs>
     <use xlink:href="#DejaVuSans-31"/>
     <use xlink:href="#DejaVuSans-36" transform="translate(63.623047 0)"/>
     <use xlink:href="#DejaVuSans-2e" transform="translate(127.246094 0)"/>
     <use xlink:href="#DejaVuSans-38" transform="translate(159.033203 0)"/>
     <use xlink:href="#DejaVuSans-34" transform="translate(222.65625 0)"/>
    </g>
   </g>
   <g id="text_12">
    <!-- 18.00 -->
    <g transform="translate(147.368169 105.643133) scale(0.09 -0.09)">
     <use xlink:href="#DejaVuSans-31"/>
     <use xlink:href="#DejaVuSans-38" transform="translate(63.623047 0)"/>
     <use xlink:href="#DejaVuSans-2e" transform="translate(127.246094 0)"/>
     <use xlink:href="#DejaVuSans-30" transform="translate(159.033203 0)"/>
     <use xlink:href="#DejaVuSans-30" transform="translate(222.65625 0)"/>
    </g>
   </g>
   <g id="text_13">
    <!-- 24.31 -->
    <g transform="translate(220.321518 75.59323) scale(0.09 -0.09)">
     <use xlink:href="#DejaVuSans-32"/>
     <use xlink:href="#DejaVuSans-34" transform="translate(63.623047 0)"/>
     <use xlink:href="#DejaVuSans-2e" transform="translate(127.246094 0)"/>
     <use xlink:href="#DejaVuSans-33" transform="translate(159.033203 0)"/>
     <use xlink:href="#DejaVuSans-31" transform="translate(222.65625 0)"/>
    </g>
   </g>
   <g id="text_14">
    <!-- 23.41 -->
    <g transform="translate(293.274868 78.947992) scale(0.09 -0.09)">
     <use xlink:href="#DejaVuSans-32"/>
     <use xlink:href="#DejaVuSans-33" transform="translate(63.623047 0)"/>
     <use xlink:href="#DejaVuSans-2e" transform="translate(127.246094 0)"/>
     <use xlink:href="#DejaVuSans-34" transform="translate(159.033203 0)"/>
     <use xlink:href="#DejaVuSans-31" transform="translate(222.65625 0)"/>
    </g>
   </g>
  </g>
 </g>
 <defs>
  <clipPath id="pacddb69d03">
   <rect x="44.255" y="10.8" width="304.945" height="238.424"/>
  </clipPath>
 </defs>
</svg>
