<?xml version="1.0" encoding="utf-8" standalone="no"?>
<!DOCTYPE svg PUBLIC "-//W3C//DTD SVG 1.1//EN"
  "http://www.w3.org/Graphics/SVG/1.1/DTD/svg11.dtd">
<svg xmlns:xlink="http://www.w3.org/1999/xlink" width="648pt" height="360pt" viewBox="0 0 648 360" xmlns="http://www.w3.org/2000/svg" version="1.1">
 <metadata>
  <rdf:RDF xmlns:dc="http://purl.org/dc/elements/1.1/" xmlns:cc="http://creativecommons.org/ns#" xmlns:rdf="http://www.w3.org/1999/02/22-rdf-syntax-ns#">
   <cc:Work>
    <dc:type rdf:resource="http://purl.org/dc/dcmitype/StillImage"/>
    <dc:date>2025-04-29T13:20:30.758481</dc:date>
    <dc:format>image/svg+xml</dc:format>
    <dc:creator>
     <cc:Agent>
      <dc:title>Matplotlib v3.10.0, https://matplotlib.org/</dc:title>
     </cc:Agent>
    </dc:creator>
   </cc:Work>
  </rdf:RDF>
 </metadata>
 <defs>
  <style type="text/css">*{stroke-linejoin: round; stroke-linecap: butt}</style>
 </defs>
 <g id="figure_1">
  <g id="patch_1">
   <path d="M 0 360 
L 648 360 
L 648 0 
L 0 0 
z
" style="fill: #ffffff"/>
  </g>
  <g id="axes_1">
   <g id="patch_2">
    <path d="M 54.56 284.741751 
L 637.2 284.741751 
L 637.2 10.8 
L 54.56 10.8 
z
" style="fill: #ffffff"/>
   </g>
   <g id="FillBetweenPolyCollection_1">
    <defs>
     <path id="mfd13e402da" d="M 118.372517 -122.736464 
L 116.773062 -122.736464 
L 116.563556 -124.898198 
L 116.312046 -127.059931 
L 116.013595 -129.221665 
L 115.663512 -131.383399 
L 115.257563 -133.545133 
L 114.792197 -135.706866 
L 114.264766 -137.8686 
L 113.673749 -140.030334 
L 113.018939 -142.192068 
L 112.301603 -144.353801 
L 111.524596 -146.515535 
L 110.692421 -148.677269 
L 109.811223 -150.839002 
L 108.888727 -153.000736 
L 107.934104 -155.16247 
L 106.95778 -157.324204 
L 105.971174 -159.485937 
L 104.986396 -161.647671 
L 104.015884 -163.809405 
L 103.072006 -165.971138 
L 102.166626 -168.132872 
L 101.310656 -170.294606 
L 100.513592 -172.45634 
L 99.783062 -174.618073 
L 99.124401 -176.779807 
L 98.540278 -178.941541 
L 98.03039 -181.103274 
L 97.591266 -183.265008 
L 97.216187 -185.426742 
L 96.895265 -187.588476 
L 96.615676 -189.750209 
L 96.362068 -191.911943 
L 96.117146 -194.073677 
L 95.862399 -196.23541 
L 95.578971 -198.397144 
L 95.24861 -200.558878 
L 94.854665 -202.720612 
L 94.383065 -204.882345 
L 93.823224 -207.044079 
L 93.16882 -209.205813 
L 92.418373 -211.367547 
L 91.575612 -213.52928 
L 90.649564 -215.691014 
L 89.654382 -217.852748 
L 88.608896 -220.014481 
L 87.535912 -222.176215 
L 86.461309 -224.337949 
L 85.412972 -226.499683 
L 84.419623 -228.661416 
L 83.509636 -230.82315 
L 82.709879 -232.984884 
L 82.044665 -235.146617 
L 81.534854 -237.308351 
L 81.197153 -239.470085 
L 81.043636 -241.631819 
L 81.081491 -243.793552 
L 81.312987 -245.955286 
L 81.735649 -248.11702 
L 82.342605 -250.278753 
L 83.123058 -252.440487 
L 84.062873 -254.602221 
L 85.145212 -256.763955 
L 86.351196 -258.925688 
L 87.660577 -261.087422 
L 89.052372 -263.249156 
L 90.505466 -265.410889 
L 91.999169 -267.572623 
L 93.513701 -269.734357 
L 95.030627 -271.896091 
L 96.533219 -274.057824 
L 98.006734 -276.219558 
L 99.438628 -278.381292 
L 100.818672 -280.543026 
L 102.138991 -282.704759 
L 103.394002 -284.866493 
L 104.580282 -287.028227 
L 105.696352 -289.18996 
L 106.7424 -291.351694 
L 107.719961 -293.513428 
L 108.631573 -295.675162 
L 109.480432 -297.836895 
L 110.270074 -299.998629 
L 111.004092 -302.160363 
L 111.685908 -304.322096 
L 112.318623 -306.48383 
L 112.904921 -308.645564 
L 113.447046 -310.807298 
L 113.946835 -312.969031 
L 114.405796 -315.130765 
L 114.825205 -317.292499 
L 115.206231 -319.454232 
L 115.550041 -321.615966 
L 115.857905 -323.7777 
L 116.131267 -325.939434 
L 116.37179 -328.101167 
L 116.581375 -330.262901 
L 116.762146 -332.424635 
L 116.916413 -334.586369 
L 117.046625 -336.748102 
L 118.098955 -336.748102 
L 118.098955 -336.748102 
L 118.229166 -334.586369 
L 118.383434 -332.424635 
L 118.564205 -330.262901 
L 118.77379 -328.101167 
L 119.014313 -325.939434 
L 119.287675 -323.7777 
L 119.595539 -321.615966 
L 119.939349 -319.454232 
L 120.320375 -317.292499 
L 120.739784 -315.130765 
L 121.198745 -312.969031 
L 121.698534 -310.807298 
L 122.240659 -308.645564 
L 122.826957 -306.48383 
L 123.459672 -304.322096 
L 124.141488 -302.160363 
L 124.875506 -299.998629 
L 125.665148 -297.836895 
L 126.514007 -295.675162 
L 127.425619 -293.513428 
L 128.403179 -291.351694 
L 129.449228 -289.18996 
L 130.565298 -287.028227 
L 131.751578 -284.866493 
L 133.006589 -282.704759 
L 134.326908 -280.543026 
L 135.706952 -278.381292 
L 137.138846 -276.219558 
L 138.612361 -274.057824 
L 140.114953 -271.896091 
L 141.631879 -269.734357 
L 143.146411 -267.572623 
L 144.640113 -265.410889 
L 146.093208 -263.249156 
L 147.485003 -261.087422 
L 148.794384 -258.925688 
L 150.000368 -256.763955 
L 151.082707 -254.602221 
L 152.022522 -252.440487 
L 152.802975 -250.278753 
L 153.40993 -248.11702 
L 153.832593 -245.955286 
L 154.064089 -243.793552 
L 154.101944 -241.631819 
L 153.948427 -239.470085 
L 153.610726 -237.308351 
L 153.100915 -235.146617 
L 152.435701 -232.984884 
L 151.635944 -230.82315 
L 150.725957 -228.661416 
L 149.732608 -226.499683 
L 148.684271 -224.337949 
L 147.609668 -222.176215 
L 146.536684 -220.014481 
L 145.491198 -217.852748 
L 144.496016 -215.691014 
L 143.569968 -213.52928 
L 142.727207 -211.367547 
L 141.97676 -209.205813 
L 141.322356 -207.044079 
L 140.762515 -204.882345 
L 140.290915 -202.720612 
L 139.89697 -200.558878 
L 139.566609 -198.397144 
L 139.283181 -196.23541 
L 139.028434 -194.073677 
L 138.783512 -191.911943 
L 138.529904 -189.750209 
L 138.250315 -187.588476 
L 137.929393 -185.426742 
L 137.554314 -183.265008 
L 137.11519 -181.103274 
L 136.605302 -178.941541 
L 136.021179 -176.779807 
L 135.362518 -174.618073 
L 134.631988 -172.45634 
L 133.834924 -170.294606 
L 132.978954 -168.132872 
L 132.073574 -165.971138 
L 131.129696 -163.809405 
L 130.159184 -161.647671 
L 129.174406 -159.485937 
L 128.1878 -157.324204 
L 127.211476 -155.16247 
L 126.256853 -153.000736 
L 125.334357 -150.839002 
L 124.453159 -148.677269 
L 123.620984 -146.515535 
L 122.843977 -144.353801 
L 122.126641 -142.192068 
L 121.471831 -140.030334 
L 120.880814 -137.8686 
L 120.353383 -135.706866 
L 119.888017 -133.545133 
L 119.482068 -131.383399 
L 119.131985 -129.221665 
L 118.833534 -127.059931 
L 118.582024 -124.898198 
L 118.372517 -122.736464 
z
" style="stroke: #525252; stroke-width: 1.2"/>
    </defs>
    <g clip-path="url(#pcd42f9c6a0)">
     <use xlink:href="#mfd13e402da" x="0" y="360" style="fill: #bbbbbb; stroke: #525252; stroke-width: 1.2"/>
    </g>
   </g>
   <g id="FillBetweenPolyCollection_2">
    <defs>
     <path id="m488c212971" d="M 209.40154 -97.85296 
L 208.389808 -97.85296 
L 208.252456 -100.06141 
L 208.088494 -102.269861 
L 207.895674 -104.478311 
L 207.672187 -106.686762 
L 207.416737 -108.895212 
L 207.12856 -111.103662 
L 206.807375 -113.312113 
L 206.453248 -115.520563 
L 206.06639 -117.729014 
L 205.646879 -119.937464 
L 205.194353 -122.145914 
L 204.707705 -124.354365 
L 204.184824 -126.562815 
L 203.622435 -128.771266 
L 203.016078 -130.979716 
L 202.360267 -133.188166 
L 201.648831 -135.396617 
L 200.875432 -137.605067 
L 200.034221 -139.813518 
L 199.120565 -142.021968 
L 198.131784 -144.230419 
L 197.067784 -146.438869 
L 195.931521 -148.647319 
L 194.729225 -150.85577 
L 193.470339 -153.06422 
L 192.167164 -155.272671 
L 190.834239 -157.481121 
L 189.487517 -159.689571 
L 188.143422 -161.898022 
L 186.817874 -164.106472 
L 185.525398 -166.314923 
L 184.278382 -168.523373 
L 183.086558 -170.731823 
L 181.956733 -172.940274 
L 180.892789 -175.148724 
L 179.895907 -177.357175 
L 178.965005 -179.565625 
L 178.09733 -181.774076 
L 177.289149 -183.982526 
L 176.536508 -186.190976 
L 175.835995 -188.399427 
L 175.185494 -190.607877 
L 174.584871 -192.816328 
L 174.036551 -195.024778 
L 173.545965 -197.233228 
L 173.121777 -199.441679 
L 172.775877 -201.650129 
L 172.523072 -203.85858 
L 172.380465 -206.06703 
L 172.36652 -208.27548 
L 172.49984 -210.483931 
L 172.797753 -212.692381 
L 173.274795 -214.900832 
L 173.941245 -217.109282 
L 174.801835 -219.317733 
L 175.854796 -221.526183 
L 177.09133 -223.734633 
L 178.495601 -225.943084 
L 180.045235 -228.151534 
L 181.712318 -230.359985 
L 183.46478 -232.568435 
L 185.268059 -234.776885 
L 187.08687 -236.985336 
L 188.886951 -239.193786 
L 190.636631 -241.402237 
L 192.308121 -243.610687 
L 193.878462 -245.819137 
L 195.330096 -248.027588 
L 196.651084 -250.236038 
L 197.835003 -252.444489 
L 198.880589 -254.652939 
L 199.791198 -256.861389 
L 200.574133 -259.06984 
L 201.239913 -261.27829 
L 201.801511 -263.486741 
L 202.273586 -265.695191 
L 202.671738 -267.903642 
L 203.011795 -270.112092 
L 203.309135 -272.320542 
L 203.578071 -274.528993 
L 203.831309 -276.737443 
L 204.079513 -278.945894 
L 204.330983 -281.154344 
L 204.591483 -283.362794 
L 204.864221 -285.571245 
L 205.149982 -287.779695 
L 205.447401 -289.988146 
L 205.753361 -292.196596 
L 206.063456 -294.405046 
L 206.372507 -296.613497 
L 206.675064 -298.821947 
L 206.965868 -301.030398 
L 207.240231 -303.238848 
L 207.494322 -305.447299 
L 207.72534 -307.655749 
L 207.93158 -309.864199 
L 208.112411 -312.07265 
L 208.268165 -314.2811 
L 208.399981 -316.489551 
L 209.391367 -316.489551 
L 209.391367 -316.489551 
L 209.523183 -314.2811 
L 209.678937 -312.07265 
L 209.859768 -309.864199 
L 210.066008 -307.655749 
L 210.297026 -305.447299 
L 210.551117 -303.238848 
L 210.82548 -301.030398 
L 211.116284 -298.821947 
L 211.418841 -296.613497 
L 211.727892 -294.405046 
L 212.037987 -292.196596 
L 212.343947 -289.988146 
L 212.641366 -287.779695 
L 212.927127 -285.571245 
L 213.199865 -283.362794 
L 213.460365 -281.154344 
L 213.711835 -278.945894 
L 213.960038 -276.737443 
L 214.213277 -274.528993 
L 214.482213 -272.320542 
L 214.779553 -270.112092 
L 215.11961 -267.903642 
L 215.517762 -265.695191 
L 215.989837 -263.486741 
L 216.551435 -261.27829 
L 217.217215 -259.06984 
L 218.00015 -256.861389 
L 218.910759 -254.652939 
L 219.956345 -252.444489 
L 221.140264 -250.236038 
L 222.461252 -248.027588 
L 223.912886 -245.819137 
L 225.483227 -243.610687 
L 227.154717 -241.402237 
L 228.904397 -239.193786 
L 230.704478 -236.985336 
L 232.523289 -234.776885 
L 234.326568 -232.568435 
L 236.07903 -230.359985 
L 237.746113 -228.151534 
L 239.295747 -225.943084 
L 240.700018 -223.734633 
L 241.936552 -221.526183 
L 242.989513 -219.317733 
L 243.850103 -217.109282 
L 244.516553 -214.900832 
L 244.993595 -212.692381 
L 245.291508 -210.483931 
L 245.424828 -208.27548 
L 245.410882 -206.06703 
L 245.268276 -203.85858 
L 245.015471 -201.650129 
L 244.66957 -199.441679 
L 244.245383 -197.233228 
L 243.754796 -195.024778 
L 243.206477 -192.816328 
L 242.605854 -190.607877 
L 241.955353 -188.399427 
L 241.25484 -186.190976 
L 240.502199 -183.982526 
L 239.694018 -181.774076 
L 238.826343 -179.565625 
L 237.895441 -177.357175 
L 236.898559 -175.148724 
L 235.834615 -172.940274 
L 234.70479 -170.731823 
L 233.512966 -168.523373 
L 232.26595 -166.314923 
L 230.973474 -164.106472 
L 229.647926 -161.898022 
L 228.303831 -159.689571 
L 226.957109 -157.481121 
L 225.624184 -155.272671 
L 224.321009 -153.06422 
L 223.062123 -150.85577 
L 221.859827 -148.647319 
L 220.723564 -146.438869 
L 219.659563 -144.230419 
L 218.670783 -142.021968 
L 217.757127 -139.813518 
L 216.915916 -137.605067 
L 216.142517 -135.396617 
L 215.431081 -133.188166 
L 214.77527 -130.979716 
L 214.168913 -128.771266 
L 213.606524 -126.562815 
L 213.083643 -124.354365 
L 212.596995 -122.145914 
L 212.144469 -119.937464 
L 211.724958 -117.729014 
L 211.3381 -115.520563 
L 210.983973 -113.312113 
L 210.662788 -111.103662 
L 210.374611 -108.895212 
L 210.119161 -106.686762 
L 209.895674 -104.478311 
L 209.702854 -102.269861 
L 209.538892 -100.06141 
L 209.40154 -97.85296 
z
" style="stroke: #525252; stroke-width: 1.2"/>
    </defs>
    <g clip-path="url(#pcd42f9c6a0)">
     <use xlink:href="#m488c212971" x="0" y="360" style="fill: #888888; stroke: #525252; stroke-width: 1.2"/>
    </g>
   </g>
   <g id="FillBetweenPolyCollection_3">
    <defs>
     <path id="mb06ec5442e" d="M 300.847195 -97.884954 
L 299.589921 -97.884954 
L 299.436309 -99.720444 
L 299.254419 -101.555934 
L 299.041285 -103.391424 
L 298.794053 -105.226913 
L 298.510054 -107.062403 
L 298.18684 -108.897893 
L 297.822225 -110.733383 
L 297.414275 -112.568873 
L 296.961294 -114.404363 
L 296.461769 -116.239852 
L 295.914298 -118.075342 
L 295.31751 -119.910832 
L 294.66998 -121.746322 
L 293.97016 -123.581812 
L 293.216346 -125.417301 
L 292.406687 -127.252791 
L 291.539261 -129.088281 
L 290.612215 -130.923771 
L 289.623979 -132.759261 
L 288.573553 -134.594751 
L 287.460832 -136.43024 
L 286.286975 -138.26573 
L 285.05476 -140.10122 
L 283.768912 -141.93671 
L 282.436356 -143.7722 
L 281.066357 -145.60769 
L 279.670527 -147.443179 
L 278.262665 -149.278669 
L 276.858432 -151.114159 
L 275.474854 -152.949649 
L 274.129676 -154.785139 
L 272.840605 -156.620628 
L 271.624476 -158.456118 
L 270.496408 -160.291608 
L 269.468996 -162.127098 
L 268.551615 -163.962588 
L 267.749879 -165.798078 
L 267.065312 -167.633567 
L 266.495254 -169.469057 
L 266.033028 -171.304547 
L 265.668358 -173.140037 
L 265.388024 -174.975527 
L 265.176707 -176.811017 
L 265.017987 -178.646506 
L 264.895396 -180.481996 
L 264.793503 -182.317486 
L 264.698903 -184.152976 
L 264.60109 -185.988466 
L 264.493125 -187.823955 
L 264.372056 -189.659445 
L 264.239075 -191.494935 
L 264.099392 -193.330425 
L 263.961825 -195.165915 
L 263.838166 -197.001405 
L 263.742333 -198.836894 
L 263.689404 -200.672384 
L 263.694573 -202.507874 
L 263.772123 -204.343364 
L 263.934489 -206.178854 
L 264.191467 -208.014344 
L 264.549632 -209.849833 
L 265.012003 -211.685323 
L 265.577972 -213.520813 
L 266.243498 -215.356303 
L 267.001528 -217.191793 
L 267.842622 -219.027282 
L 268.755709 -220.862772 
L 269.728902 -222.698262 
L 270.750317 -224.533752 
L 271.808804 -226.369242 
L 272.894548 -228.204732 
L 273.999482 -230.040221 
L 275.117495 -231.875711 
L 276.244417 -233.711201 
L 277.377815 -235.546691 
L 278.516615 -237.382181 
L 279.660609 -239.217671 
L 280.809905 -241.05316 
L 281.964377 -242.88865 
L 283.123172 -244.72414 
L 284.284325 -246.55963 
L 285.444518 -248.39512 
L 286.598987 -250.230609 
L 287.741605 -252.066099 
L 288.865096 -253.901589 
L 289.961379 -255.737079 
L 291.021982 -257.572569 
L 292.038503 -259.408059 
L 293.003059 -261.243548 
L 293.908702 -263.079038 
L 294.749751 -264.914528 
L 295.522037 -266.750018 
L 296.223038 -268.585508 
L 296.851908 -270.420998 
L 297.409412 -272.256487 
L 297.897767 -274.091977 
L 298.320433 -275.927467 
L 298.681858 -277.762957 
L 298.987201 -279.598447 
L 301.449915 -279.598447 
L 301.449915 -279.598447 
L 301.755258 -277.762957 
L 302.116683 -275.927467 
L 302.539349 -274.091977 
L 303.027704 -272.256487 
L 303.585208 -270.420998 
L 304.214078 -268.585508 
L 304.915079 -266.750018 
L 305.687365 -264.914528 
L 306.528414 -263.079038 
L 307.434057 -261.243548 
L 308.398613 -259.408059 
L 309.415134 -257.572569 
L 310.475737 -255.737079 
L 311.57202 -253.901589 
L 312.695511 -252.066099 
L 313.838129 -250.230609 
L 314.992598 -248.39512 
L 316.152791 -246.55963 
L 317.313944 -244.72414 
L 318.472739 -242.88865 
L 319.627211 -241.05316 
L 320.776507 -239.217671 
L 321.920501 -237.382181 
L 323.059301 -235.546691 
L 324.192699 -233.711201 
L 325.319621 -231.875711 
L 326.437634 -230.040221 
L 327.542568 -228.204732 
L 328.628312 -226.369242 
L 329.686799 -224.533752 
L 330.708214 -222.698262 
L 331.681407 -220.862772 
L 332.594494 -219.027282 
L 333.435588 -217.191793 
L 334.193618 -215.356303 
L 334.859144 -213.520813 
L 335.425113 -211.685323 
L 335.887484 -209.849833 
L 336.245649 -208.014344 
L 336.502627 -206.178854 
L 336.664993 -204.343364 
L 336.742543 -202.507874 
L 336.747712 -200.672384 
L 336.694783 -198.836894 
L 336.59895 -197.001405 
L 336.475291 -195.165915 
L 336.337724 -193.330425 
L 336.198041 -191.494935 
L 336.06506 -189.659445 
L 335.943991 -187.823955 
L 335.836026 -185.988466 
L 335.738213 -184.152976 
L 335.643613 -182.317486 
L 335.541719 -180.481996 
L 335.419129 -178.646506 
L 335.260408 -176.811017 
L 335.049092 -174.975527 
L 334.768758 -173.140037 
L 334.404088 -171.304547 
L 333.941862 -169.469057 
L 333.371804 -167.633567 
L 332.687237 -165.798078 
L 331.885501 -163.962588 
L 330.96812 -162.127098 
L 329.940708 -160.291608 
L 328.81264 -158.456118 
L 327.596511 -156.620628 
L 326.30744 -154.785139 
L 324.962262 -152.949649 
L 323.578684 -151.114159 
L 322.174451 -149.278669 
L 320.766589 -147.443179 
L 319.370759 -145.60769 
L 318.00076 -143.7722 
L 316.668204 -141.93671 
L 315.382356 -140.10122 
L 314.150141 -138.26573 
L 312.976284 -136.43024 
L 311.863563 -134.594751 
L 310.813137 -132.759261 
L 309.824901 -130.923771 
L 308.897855 -129.088281 
L 308.030429 -127.252791 
L 307.22077 -125.417301 
L 306.466956 -123.581812 
L 305.767136 -121.746322 
L 305.119606 -119.910832 
L 304.522818 -118.075342 
L 303.975347 -116.239852 
L 303.475822 -114.404363 
L 303.022841 -112.568873 
L 302.614891 -110.733383 
L 302.250276 -108.897893 
L 301.927062 -107.062403 
L 301.643063 -105.226913 
L 301.395831 -103.391424 
L 301.182697 -101.555934 
L 301.000807 -99.720444 
L 300.847195 -97.884954 
z
" style="stroke: #525252; stroke-width: 1.2"/>
    </defs>
    <g clip-path="url(#pcd42f9c6a0)">
     <use xlink:href="#mb06ec5442e" x="0" y="360" style="fill: #aaaaaa; stroke: #525252; stroke-width: 1.2"/>
    </g>
   </g>
   <g id="FillBetweenPolyCollection_4">
    <defs>
     <path id="m557d928658" d="M 392.066704 -114.725823 
L 391.01618 -114.725823 
L 390.881009 -116.289421 
L 390.719199 -117.853018 
L 390.527628 -119.416616 
L 390.303292 -120.980213 
L 390.043423 -122.543811 
L 389.745615 -124.107409 
L 389.407963 -125.671006 
L 389.029192 -127.234604 
L 388.608791 -128.798201 
L 388.147137 -130.361799 
L 387.645597 -131.925396 
L 387.106623 -133.488994 
L 386.533808 -135.052592 
L 385.931921 -136.616189 
L 385.306893 -138.179787 
L 384.665761 -139.743384 
L 384.016557 -141.306982 
L 383.368134 -142.87058 
L 382.72992 -144.434177 
L 382.111615 -145.997775 
L 381.522814 -147.561372 
L 380.97257 -149.12497 
L 380.468927 -150.688567 
L 380.018425 -152.252165 
L 379.625622 -153.815763 
L 379.292656 -155.37936 
L 379.018892 -156.942958 
L 378.800687 -158.506555 
L 378.631302 -160.070153 
L 378.500982 -161.633751 
L 378.39722 -163.197348 
L 378.305196 -164.760946 
L 378.208382 -166.324543 
L 378.08926 -167.888141 
L 377.930134 -169.451738 
L 377.713963 -171.015336 
L 377.425171 -172.578934 
L 377.050371 -174.142531 
L 376.578961 -175.706129 
L 376.003567 -177.269726 
L 375.320291 -178.833324 
L 374.528787 -180.396921 
L 373.632163 -181.960519 
L 372.636743 -183.524117 
L 371.551723 -185.087714 
L 370.388772 -186.651312 
L 369.161601 -188.214909 
L 367.885557 -189.778507 
L 366.577258 -191.342105 
L 365.25428 -192.905702 
L 363.934913 -194.4693 
L 362.637954 -196.032897 
L 361.382541 -197.596495 
L 360.187996 -199.160092 
L 359.073639 -200.72369 
L 358.05857 -202.287288 
L 357.161395 -203.850885 
L 356.399875 -205.414483 
L 355.790531 -206.97808 
L 355.348177 -208.541678 
L 355.085444 -210.105276 
L 355.012288 -211.668873 
L 355.135547 -213.232471 
L 355.458547 -214.796068 
L 355.980826 -216.359666 
L 356.697968 -217.923263 
L 357.601595 -219.486861 
L 358.679512 -221.050459 
L 359.916007 -222.614056 
L 361.292302 -224.177654 
L 362.787128 -225.741251 
L 364.377402 -227.304849 
L 366.038964 -228.868446 
L 367.747337 -230.432044 
L 369.478471 -231.995642 
L 371.209428 -233.559239 
L 372.918988 -235.122837 
L 374.588122 -236.686434 
L 376.200356 -238.250032 
L 377.741977 -239.81363 
L 379.202114 -241.377227 
L 380.572697 -242.940825 
L 381.848307 -244.504422 
L 383.025946 -246.06802 
L 384.104757 -247.631617 
L 385.085707 -249.195215 
L 385.971267 -250.758813 
L 386.7651 -252.32241 
L 387.471777 -253.886008 
L 388.096519 -255.449605 
L 388.644979 -257.013203 
L 389.123065 -258.5768 
L 389.536783 -260.140398 
L 389.892125 -261.703996 
L 390.194965 -263.267593 
L 390.450991 -264.831191 
L 390.665635 -266.394788 
L 390.844029 -267.958386 
L 390.990967 -269.521984 
L 392.091917 -269.521984 
L 392.091917 -269.521984 
L 392.238855 -267.958386 
L 392.417249 -266.394788 
L 392.631893 -264.831191 
L 392.887919 -263.267593 
L 393.190759 -261.703996 
L 393.546101 -260.140398 
L 393.959819 -258.5768 
L 394.437905 -257.013203 
L 394.986365 -255.449605 
L 395.611107 -253.886008 
L 396.317784 -252.32241 
L 397.111617 -250.758813 
L 397.997177 -249.195215 
L 398.978127 -247.631617 
L 400.056938 -246.06802 
L 401.234577 -244.504422 
L 402.510187 -242.940825 
L 403.88077 -241.377227 
L 405.340907 -239.81363 
L 406.882528 -238.250032 
L 408.494762 -236.686434 
L 410.163897 -235.122837 
L 411.873456 -233.559239 
L 413.604413 -231.995642 
L 415.335547 -230.432044 
L 417.04392 -228.868446 
L 418.705482 -227.304849 
L 420.295756 -225.741251 
L 421.790582 -224.177654 
L 423.166877 -222.614056 
L 424.403372 -221.050459 
L 425.481289 -219.486861 
L 426.384916 -217.923263 
L 427.102058 -216.359666 
L 427.624337 -214.796068 
L 427.947337 -213.232471 
L 428.070596 -211.668873 
L 427.99744 -210.105276 
L 427.734707 -208.541678 
L 427.292353 -206.97808 
L 426.683009 -205.414483 
L 425.921489 -203.850885 
L 425.024314 -202.287288 
L 424.009245 -200.72369 
L 422.894888 -199.160092 
L 421.700343 -197.596495 
L 420.44493 -196.032897 
L 419.147971 -194.4693 
L 417.828604 -192.905702 
L 416.505626 -191.342105 
L 415.197327 -189.778507 
L 413.921283 -188.214909 
L 412.694112 -186.651312 
L 411.531161 -185.087714 
L 410.446141 -183.524117 
L 409.450721 -181.960519 
L 408.554097 -180.396921 
L 407.762593 -178.833324 
L 407.079317 -177.269726 
L 406.503923 -175.706129 
L 406.032513 -174.142531 
L 405.657713 -172.578934 
L 405.368921 -171.015336 
L 405.15275 -169.451738 
L 404.993624 -167.888141 
L 404.874502 -166.324543 
L 404.777688 -164.760946 
L 404.685664 -163.197348 
L 404.581902 -161.633751 
L 404.451582 -160.070153 
L 404.282197 -158.506555 
L 404.063992 -156.942958 
L 403.790228 -155.37936 
L 403.457262 -153.815763 
L 403.064459 -152.252165 
L 402.613957 -150.688567 
L 402.110314 -149.12497 
L 401.56007 -147.561372 
L 400.971269 -145.997775 
L 400.352964 -144.434177 
L 399.71475 -142.87058 
L 399.066327 -141.306982 
L 398.417123 -139.743384 
L 397.775991 -138.179787 
L 397.150963 -136.616189 
L 396.549076 -135.052592 
L 395.976261 -133.488994 
L 395.437287 -131.925396 
L 394.935747 -130.361799 
L 394.474093 -128.798201 
L 394.053692 -127.234604 
L 393.674921 -125.671006 
L 393.337269 -124.107409 
L 393.039461 -122.543811 
L 392.779592 -120.980213 
L 392.555256 -119.416616 
L 392.363685 -117.853018 
L 392.201875 -116.289421 
L 392.066704 -114.725823 
z
" style="stroke: #525252; stroke-width: 1.2"/>
    </defs>
    <g clip-path="url(#pcd42f9c6a0)">
     <use xlink:href="#m557d928658" x="0" y="360" style="fill: #cccccc; stroke: #525252; stroke-width: 1.2"/>
    </g>
   </g>
   <g id="FillBetweenPolyCollection_5">
    <defs>
     <path id="m9a044a91d8" d="M 483.362762 -113.125209 
L 482.36589 -113.125209 
L 482.241295 -114.616559 
L 482.092808 -116.10791 
L 481.917689 -117.599261 
L 481.713287 -119.090611 
L 481.477138 -120.581962 
L 481.20706 -122.073312 
L 480.901263 -123.564663 
L 480.558453 -125.056013 
L 480.177933 -126.547364 
L 479.759696 -128.038715 
L 479.304512 -129.530065 
L 478.813998 -131.021416 
L 478.290674 -132.512766 
L 477.737995 -134.004117 
L 477.160369 -135.495467 
L 476.563137 -136.986818 
L 475.952535 -138.478169 
L 475.335613 -139.969519 
L 474.720115 -141.46087 
L 474.114328 -142.95222 
L 473.526871 -144.443571 
L 472.966458 -145.934921 
L 472.441606 -147.426272 
L 471.960313 -148.917623 
L 471.529716 -150.408973 
L 471.155728 -151.900324 
L 470.842682 -153.391674 
L 470.592992 -154.883025 
L 470.406856 -156.374375 
L 470.282014 -157.865726 
L 470.213583 -159.357077 
L 470.193974 -160.848427 
L 470.212917 -162.339778 
L 470.257591 -163.831128 
L 470.312868 -165.322479 
L 470.361662 -166.813829 
L 470.385395 -168.30518 
L 470.364556 -169.796531 
L 470.279346 -171.287881 
L 470.110392 -172.779232 
L 469.839511 -174.270582 
L 469.450492 -175.761933 
L 468.929874 -177.253283 
L 468.267675 -178.744634 
L 467.458052 -180.235985 
L 466.499839 -181.727335 
L 465.396936 -183.218686 
L 464.158511 -184.710036 
L 462.798999 -186.201387 
L 461.337873 -187.692737 
L 459.799187 -189.184088 
L 458.210902 -190.675438 
L 456.604019 -192.166789 
L 455.011557 -193.65814 
L 453.467422 -195.14949 
L 452.005225 -196.640841 
L 450.657113 -198.132191 
L 449.452673 -199.623542 
L 448.417958 -201.114892 
L 447.574691 -202.606243 
L 446.939681 -204.097594 
L 446.524461 -205.588944 
L 446.335172 -207.080295 
L 446.372664 -208.571645 
L 446.632802 -210.062996 
L 447.106951 -211.554346 
L 447.782576 -213.045697 
L 448.643944 -214.537048 
L 449.672853 -216.028398 
L 450.849364 -217.519749 
L 452.1525 -219.011099 
L 453.560871 -220.50245 
L 455.053212 -221.9938 
L 456.608831 -223.485151 
L 458.207946 -224.976502 
L 459.831936 -226.467852 
L 461.463497 -227.959203 
L 463.086743 -229.450553 
L 464.687246 -230.941904 
L 466.252041 -232.433254 
L 467.769624 -233.924605 
L 469.229925 -235.415956 
L 470.624298 -236.907306 
L 471.945512 -238.398657 
L 473.187738 -239.890007 
L 474.346551 -241.381358 
L 475.418916 -242.872708 
L 476.403171 -244.364059 
L 477.298982 -245.85541 
L 478.107287 -247.34676 
L 478.8302 -248.838111 
L 479.470901 -250.329461 
L 480.033487 -251.820812 
L 480.522815 -253.312162 
L 480.944323 -254.803513 
L 481.30385 -256.294864 
L 481.607452 -257.786214 
L 481.861237 -259.277565 
L 482.071204 -260.768915 
L 483.657448 -260.768915 
L 483.657448 -260.768915 
L 483.867415 -259.277565 
L 484.1212 -257.786214 
L 484.424802 -256.294864 
L 484.784329 -254.803513 
L 485.205837 -253.312162 
L 485.695165 -251.820812 
L 486.257751 -250.329461 
L 486.898452 -248.838111 
L 487.621365 -247.34676 
L 488.42967 -245.85541 
L 489.325481 -244.364059 
L 490.309736 -242.872708 
L 491.382101 -241.381358 
L 492.540914 -239.890007 
L 493.78314 -238.398657 
L 495.104354 -236.907306 
L 496.498727 -235.415956 
L 497.959028 -233.924605 
L 499.476611 -232.433254 
L 501.041406 -230.941904 
L 502.641909 -229.450553 
L 504.265155 -227.959203 
L 505.896716 -226.467852 
L 507.520706 -224.976502 
L 509.119821 -223.485151 
L 510.67544 -221.9938 
L 512.167781 -220.50245 
L 513.576152 -219.011099 
L 514.879288 -217.519749 
L 516.055799 -216.028398 
L 517.084708 -214.537048 
L 517.946076 -213.045697 
L 518.621701 -211.554346 
L 519.09585 -210.062996 
L 519.355988 -208.571645 
L 519.39348 -207.080295 
L 519.204191 -205.588944 
L 518.788971 -204.097594 
L 518.153961 -202.606243 
L 517.310694 -201.114892 
L 516.275979 -199.623542 
L 515.071539 -198.132191 
L 513.723427 -196.640841 
L 512.26123 -195.14949 
L 510.717095 -193.65814 
L 509.124633 -192.166789 
L 507.51775 -190.675438 
L 505.929465 -189.184088 
L 504.390779 -187.692737 
L 502.929653 -186.201387 
L 501.570141 -184.710036 
L 500.331716 -183.218686 
L 499.228813 -181.727335 
L 498.2706 -180.235985 
L 497.460978 -178.744634 
L 496.798778 -177.253283 
L 496.27816 -175.761933 
L 495.889141 -174.270582 
L 495.61826 -172.779232 
L 495.449306 -171.287881 
L 495.364096 -169.796531 
L 495.343257 -168.30518 
L 495.36699 -166.813829 
L 495.415784 -165.322479 
L 495.471061 -163.831128 
L 495.515735 -162.339778 
L 495.534679 -160.848427 
L 495.515069 -159.357077 
L 495.446638 -157.865726 
L 495.321797 -156.374375 
L 495.13566 -154.883025 
L 494.88597 -153.391674 
L 494.572924 -151.900324 
L 494.198936 -150.408973 
L 493.768339 -148.917623 
L 493.287046 -147.426272 
L 492.762194 -145.934921 
L 492.201781 -144.443571 
L 491.614324 -142.95222 
L 491.008537 -141.46087 
L 490.393039 -139.969519 
L 489.776117 -138.478169 
L 489.165515 -136.986818 
L 488.568283 -135.495467 
L 487.990657 -134.004117 
L 487.437978 -132.512766 
L 486.914654 -131.021416 
L 486.42414 -129.530065 
L 485.968956 -128.038715 
L 485.550719 -126.547364 
L 485.170199 -125.056013 
L 484.827389 -123.564663 
L 484.521592 -122.073312 
L 484.251514 -120.581962 
L 484.015365 -119.090611 
L 483.810963 -117.599261 
L 483.635844 -116.10791 
L 483.487357 -114.616559 
L 483.362762 -113.125209 
z
" style="stroke: #525252; stroke-width: 1.2"/>
    </defs>
    <g clip-path="url(#pcd42f9c6a0)">
     <use xlink:href="#m9a044a91d8" x="0" y="360" style="fill: #dddddd; stroke: #525252; stroke-width: 1.2"/>
    </g>
   </g>
   <g id="FillBetweenPolyCollection_6">
    <defs>
     <path id="m0c65c2abc8" d="M 574.627247 -87.710147 
L 573.747173 -87.710147 
L 573.632371 -89.787443 
L 573.497074 -91.86474 
L 573.340292 -93.942037 
L 573.161681 -96.019334 
L 572.961658 -98.096631 
L 572.741474 -100.173928 
L 572.503223 -102.251224 
L 572.249769 -104.328521 
L 571.984592 -106.405818 
L 571.711542 -108.483115 
L 571.434525 -110.560412 
L 571.157141 -112.637708 
L 570.882299 -114.715005 
L 570.611858 -116.792302 
L 570.346339 -118.869599 
L 570.084741 -120.946896 
L 569.824503 -123.024192 
L 569.561629 -125.101489 
L 569.290974 -127.178786 
L 569.006683 -129.256083 
L 568.702733 -131.33338 
L 568.373525 -133.410676 
L 568.014461 -135.487973 
L 567.622418 -137.56527 
L 567.196069 -139.642567 
L 566.735973 -141.719864 
L 566.244412 -143.79716 
L 565.72497 -145.874457 
L 565.181873 -147.951754 
L 564.619155 -150.029051 
L 564.039735 -152.106348 
L 563.444513 -154.183645 
L 562.831596 -156.260941 
L 562.195784 -158.338238 
L 561.528388 -160.415535 
L 560.817472 -162.492832 
L 560.048537 -164.570129 
L 559.20563 -166.647425 
L 558.272822 -168.724722 
L 557.235942 -170.802019 
L 556.084416 -172.879316 
L 554.81306 -174.956613 
L 553.423617 -177.033909 
L 551.925904 -179.111206 
L 550.338383 -181.188503 
L 548.6881 -183.2658 
L 547.009902 -185.343097 
L 545.344983 -187.420393 
L 543.738832 -189.49769 
L 542.238717 -191.574987 
L 540.890917 -193.652284 
L 539.737919 -195.729581 
L 538.815806 -197.806878 
L 538.152075 -199.884174 
L 537.764053 -201.961471 
L 537.658056 -204.038768 
L 537.829343 -206.116065 
L 538.262849 -208.193362 
L 538.934628 -210.270658 
L 539.813833 -212.347955 
L 540.865056 -214.425252 
L 542.050799 -216.502549 
L 543.333865 -218.579846 
L 544.679462 -220.657142 
L 546.056879 -222.734439 
L 547.440617 -224.811736 
L 548.810964 -226.889033 
L 550.154011 -228.96633 
L 551.461203 -231.043626 
L 552.728532 -233.120923 
L 553.955506 -235.19822 
L 555.144031 -237.275517 
L 556.297335 -239.352814 
L 557.419022 -241.43011 
L 558.512331 -243.507407 
L 559.579633 -245.584704 
L 560.622144 -247.662001 
L 561.639859 -249.739298 
L 562.631631 -251.816595 
L 563.595369 -253.893891 
L 564.528287 -255.971188 
L 565.427178 -258.048485 
L 566.288663 -260.125782 
L 567.109416 -262.203079 
L 567.886344 -264.280375 
L 568.616728 -266.357672 
L 569.298323 -268.434969 
L 569.929444 -270.512266 
L 570.509014 -272.589563 
L 571.036607 -274.666859 
L 571.512463 -276.744156 
L 571.937491 -278.821453 
L 572.313251 -280.89875 
L 572.641908 -282.976047 
L 572.926164 -285.053343 
L 573.169174 -287.13064 
L 573.374435 -289.207937 
L 573.545673 -291.285234 
L 573.686718 -293.362531 
L 574.687702 -293.362531 
L 574.687702 -293.362531 
L 574.828747 -291.285234 
L 574.999985 -289.207937 
L 575.205246 -287.13064 
L 575.448256 -285.053343 
L 575.732512 -282.976047 
L 576.061169 -280.89875 
L 576.436929 -278.821453 
L 576.861957 -276.744156 
L 577.337813 -274.666859 
L 577.865406 -272.589563 
L 578.444976 -270.512266 
L 579.076097 -268.434969 
L 579.757693 -266.357672 
L 580.488076 -264.280375 
L 581.265004 -262.203079 
L 582.085757 -260.125782 
L 582.947242 -258.048485 
L 583.846133 -255.971188 
L 584.779051 -253.893891 
L 585.742789 -251.816595 
L 586.734561 -249.739298 
L 587.752276 -247.662001 
L 588.794787 -245.584704 
L 589.862089 -243.507407 
L 590.955398 -241.43011 
L 592.077085 -239.352814 
L 593.230389 -237.275517 
L 594.418914 -235.19822 
L 595.645888 -233.120923 
L 596.913217 -231.043626 
L 598.220409 -228.96633 
L 599.563456 -226.889033 
L 600.933803 -224.811736 
L 602.317541 -222.734439 
L 603.694958 -220.657142 
L 605.040555 -218.579846 
L 606.323621 -216.502549 
L 607.509365 -214.425252 
L 608.560587 -212.347955 
L 609.439792 -210.270658 
L 610.111571 -208.193362 
L 610.545078 -206.116065 
L 610.716364 -204.038768 
L 610.610367 -201.961471 
L 610.222345 -199.884174 
L 609.558614 -197.806878 
L 608.636501 -195.729581 
L 607.483503 -193.652284 
L 606.135704 -191.574987 
L 604.635588 -189.49769 
L 603.029437 -187.420393 
L 601.364518 -185.343097 
L 599.68632 -183.2658 
L 598.036037 -181.188503 
L 596.448516 -179.111206 
L 594.950803 -177.033909 
L 593.56136 -174.956613 
L 592.290004 -172.879316 
L 591.138478 -170.802019 
L 590.101598 -168.724722 
L 589.16879 -166.647425 
L 588.325883 -164.570129 
L 587.556948 -162.492832 
L 586.846032 -160.415535 
L 586.178636 -158.338238 
L 585.542824 -156.260941 
L 584.929908 -154.183645 
L 584.334685 -152.106348 
L 583.755265 -150.029051 
L 583.192547 -147.951754 
L 582.64945 -145.874457 
L 582.130008 -143.79716 
L 581.638447 -141.719864 
L 581.178351 -139.642567 
L 580.752002 -137.56527 
L 580.35996 -135.487973 
L 580.000895 -133.410676 
L 579.671687 -131.33338 
L 579.367737 -129.256083 
L 579.083446 -127.178786 
L 578.812791 -125.101489 
L 578.549917 -123.024192 
L 578.289679 -120.946896 
L 578.028081 -118.869599 
L 577.762562 -116.792302 
L 577.492121 -114.715005 
L 577.217279 -112.637708 
L 576.939895 -110.560412 
L 576.662878 -108.483115 
L 576.389828 -106.405818 
L 576.124651 -104.328521 
L 575.871197 -102.251224 
L 575.632946 -100.173928 
L 575.412762 -98.096631 
L 575.212739 -96.019334 
L 575.034128 -93.942037 
L 574.877346 -91.86474 
L 574.74205 -89.787443 
L 574.627247 -87.710147 
z
" style="stroke: #525252; stroke-width: 1.2"/>
    </defs>
    <g clip-path="url(#pcd42f9c6a0)">
     <use xlink:href="#m0c65c2abc8" x="0" y="360" style="fill: #999999; stroke: #525252; stroke-width: 1.2"/>
    </g>
   </g>
   <g id="matplotlib.axis_1">
    <g id="xtick_1">
     <g id="line2d_1">
      <defs>
       <path id="m36899d85bb" d="M 0 0 
L 0 3.5 
" style="stroke: #000000; stroke-width: 0.8"/>
      </defs>
      <g>
       <use xlink:href="#m36899d85bb" x="117.57279" y="284.741751" style="stroke: #000000; stroke-width: 0.8"/>
      </g>
     </g>
     <g id="text_1">
      <!-- Mean Duration -->
      <g transform="translate(86.971783 335.250316) rotate(-30) scale(0.1 -0.1)">
       <defs>
        <path id="DejaVuSans-4d" d="M 628 4666 
L 1569 4666 
L 2759 1491 
L 3956 4666 
L 4897 4666 
L 4897 0 
L 4281 0 
L 4281 4097 
L 3078 897 
L 2444 897 
L 1241 4097 
L 1241 0 
L 628 0 
L 628 4666 
z
" transform="scale(0.015625)"/>
        <path id="DejaVuSans-65" d="M 3597 1894 
L 3597 1613 
L 953 1613 
Q 991 1019 1311 708 
Q 1631 397 2203 397 
Q 2534 397 2845 478 
Q 3156 559 3463 722 
L 3463 178 
Q 3153 47 2828 -22 
Q 2503 -91 2169 -91 
Q 1331 -91 842 396 
Q 353 884 353 1716 
Q 353 2575 817 3079 
Q 1281 3584 2069 3584 
Q 2775 3584 3186 3129 
Q 3597 2675 3597 1894 
z
M 3022 2063 
Q 3016 2534 2758 2815 
Q 2500 3097 2075 3097 
Q 1594 3097 1305 2825 
Q 1016 2553 972 2059 
L 3022 2063 
z
" transform="scale(0.015625)"/>
        <path id="DejaVuSans-61" d="M 2194 1759 
Q 1497 1759 1228 1600 
Q 959 1441 959 1056 
Q 959 750 1161 570 
Q 1363 391 1709 391 
Q 2188 391 2477 730 
Q 2766 1069 2766 1631 
L 2766 1759 
L 2194 1759 
z
M 3341 1997 
L 3341 0 
L 2766 0 
L 2766 531 
Q 2569 213 2275 61 
Q 1981 -91 1556 -91 
Q 1019 -91 701 211 
Q 384 513 384 1019 
Q 384 1609 779 1909 
Q 1175 2209 1959 2209 
L 2766 2209 
L 2766 2266 
Q 2766 2663 2505 2880 
Q 2244 3097 1772 3097 
Q 1472 3097 1187 3025 
Q 903 2953 641 2809 
L 641 3341 
Q 956 3463 1253 3523 
Q 1550 3584 1831 3584 
Q 2591 3584 2966 3190 
Q 3341 2797 3341 1997 
z
" transform="scale(0.015625)"/>
        <path id="DejaVuSans-6e" d="M 3513 2113 
L 3513 0 
L 2938 0 
L 2938 2094 
Q 2938 2591 2744 2837 
Q 2550 3084 2163 3084 
Q 1697 3084 1428 2787 
Q 1159 2491 1159 1978 
L 1159 0 
L 581 0 
L 581 3500 
L 1159 3500 
L 1159 2956 
Q 1366 3272 1645 3428 
Q 1925 3584 2291 3584 
Q 2894 3584 3203 3211 
Q 3513 2838 3513 2113 
z
" transform="scale(0.015625)"/>
        <path id="DejaVuSans-20" transform="scale(0.015625)"/>
        <path id="DejaVuSans-44" d="M 1259 4147 
L 1259 519 
L 2022 519 
Q 2988 519 3436 956 
Q 3884 1394 3884 2338 
Q 3884 3275 3436 3711 
Q 2988 4147 2022 4147 
L 1259 4147 
z
M 628 4666 
L 1925 4666 
Q 3281 4666 3915 4102 
Q 4550 3538 4550 2338 
Q 4550 1131 3912 565 
Q 3275 0 1925 0 
L 628 0 
L 628 4666 
z
" transform="scale(0.015625)"/>
        <path id="DejaVuSans-75" d="M 544 1381 
L 544 3500 
L 1119 3500 
L 1119 1403 
Q 1119 906 1312 657 
Q 1506 409 1894 409 
Q 2359 409 2629 706 
Q 2900 1003 2900 1516 
L 2900 3500 
L 3475 3500 
L 3475 0 
L 2900 0 
L 2900 538 
Q 2691 219 2414 64 
Q 2138 -91 1772 -91 
Q 1169 -91 856 284 
Q 544 659 544 1381 
z
M 1991 3584 
L 1991 3584 
z
" transform="scale(0.015625)"/>
        <path id="DejaVuSans-72" d="M 2631 2963 
Q 2534 3019 2420 3045 
Q 2306 3072 2169 3072 
Q 1681 3072 1420 2755 
Q 1159 2438 1159 1844 
L 1159 0 
L 581 0 
L 581 3500 
L 1159 3500 
L 1159 2956 
Q 1341 3275 1631 3429 
Q 1922 3584 2338 3584 
Q 2397 3584 2469 3576 
Q 2541 3569 2628 3553 
L 2631 2963 
z
" transform="scale(0.015625)"/>
        <path id="DejaVuSans-74" d="M 1172 4494 
L 1172 3500 
L 2356 3500 
L 2356 3053 
L 1172 3053 
L 1172 1153 
Q 1172 725 1289 603 
Q 1406 481 1766 481 
L 2356 481 
L 2356 0 
L 1766 0 
Q 1100 0 847 248 
Q 594 497 594 1153 
L 594 3053 
L 172 3053 
L 172 3500 
L 594 3500 
L 594 4494 
L 1172 4494 
z
" transform="scale(0.015625)"/>
        <path id="DejaVuSans-69" d="M 603 3500 
L 1178 3500 
L 1178 0 
L 603 0 
L 603 3500 
z
M 603 4863 
L 1178 4863 
L 1178 4134 
L 603 4134 
L 603 4863 
z
" transform="scale(0.015625)"/>
        <path id="DejaVuSans-6f" d="M 1959 3097 
Q 1497 3097 1228 2736 
Q 959 2375 959 1747 
Q 959 1119 1226 758 
Q 1494 397 1959 397 
Q 2419 397 2687 759 
Q 2956 1122 2956 1747 
Q 2956 2369 2687 2733 
Q 2419 3097 1959 3097 
z
M 1959 3584 
Q 2709 3584 3137 3096 
Q 3566 2609 3566 1747 
Q 3566 888 3137 398 
Q 2709 -91 1959 -91 
Q 1206 -91 779 398 
Q 353 888 353 1747 
Q 353 2609 779 3096 
Q 1206 3584 1959 3584 
z
" transform="scale(0.015625)"/>
       </defs>
       <use xlink:href="#DejaVuSans-4d"/>
       <use xlink:href="#DejaVuSans-65" transform="translate(86.279297 0)"/>
       <use xlink:href="#DejaVuSans-61" transform="translate(147.802734 0)"/>
       <use xlink:href="#DejaVuSans-6e" transform="translate(209.082031 0)"/>
       <use xlink:href="#DejaVuSans-20" transform="translate(272.460938 0)"/>
       <use xlink:href="#DejaVuSans-44" transform="translate(304.248047 0)"/>
       <use xlink:href="#DejaVuSans-75" transform="translate(381.25 0)"/>
       <use xlink:href="#DejaVuSans-72" transform="translate(444.628906 0)"/>
       <use xlink:href="#DejaVuSans-61" transform="translate(485.742188 0)"/>
       <use xlink:href="#DejaVuSans-74" transform="translate(547.021484 0)"/>
       <use xlink:href="#DejaVuSans-69" transform="translate(586.230469 0)"/>
       <use xlink:href="#DejaVuSans-6f" transform="translate(614.013672 0)"/>
       <use xlink:href="#DejaVuSans-6e" transform="translate(675.195312 0)"/>
      </g>
     </g>
    </g>
    <g id="xtick_2">
     <g id="line2d_2">
      <g>
       <use xlink:href="#m36899d85bb" x="208.895674" y="284.741751" style="stroke: #000000; stroke-width: 0.8"/>
      </g>
     </g>
     <g id="text_2">
      <!-- Causal (Inference) -->
      <g transform="translate(170.639814 344.089379) rotate(-30) scale(0.1 -0.1)">
       <defs>
        <path id="DejaVuSans-43" d="M 4122 4306 
L 4122 3641 
Q 3803 3938 3442 4084 
Q 3081 4231 2675 4231 
Q 1875 4231 1450 3742 
Q 1025 3253 1025 2328 
Q 1025 1406 1450 917 
Q 1875 428 2675 428 
Q 3081 428 3442 575 
Q 3803 722 4122 1019 
L 4122 359 
Q 3791 134 3420 21 
Q 3050 -91 2638 -91 
Q 1578 -91 968 557 
Q 359 1206 359 2328 
Q 359 3453 968 4101 
Q 1578 4750 2638 4750 
Q 3056 4750 3426 4639 
Q 3797 4528 4122 4306 
z
" transform="scale(0.015625)"/>
        <path id="DejaVuSans-73" d="M 2834 3397 
L 2834 2853 
Q 2591 2978 2328 3040 
Q 2066 3103 1784 3103 
Q 1356 3103 1142 2972 
Q 928 2841 928 2578 
Q 928 2378 1081 2264 
Q 1234 2150 1697 2047 
L 1894 2003 
Q 2506 1872 2764 1633 
Q 3022 1394 3022 966 
Q 3022 478 2636 193 
Q 2250 -91 1575 -91 
Q 1294 -91 989 -36 
Q 684 19 347 128 
L 347 722 
Q 666 556 975 473 
Q 1284 391 1588 391 
Q 1994 391 2212 530 
Q 2431 669 2431 922 
Q 2431 1156 2273 1281 
Q 2116 1406 1581 1522 
L 1381 1569 
Q 847 1681 609 1914 
Q 372 2147 372 2553 
Q 372 3047 722 3315 
Q 1072 3584 1716 3584 
Q 2034 3584 2315 3537 
Q 2597 3491 2834 3397 
z
" transform="scale(0.015625)"/>
        <path id="DejaVuSans-6c" d="M 603 4863 
L 1178 4863 
L 1178 0 
L 603 0 
L 603 4863 
z
" transform="scale(0.015625)"/>
        <path id="DejaVuSans-28" d="M 1984 4856 
Q 1566 4138 1362 3434 
Q 1159 2731 1159 2009 
Q 1159 1288 1364 580 
Q 1569 -128 1984 -844 
L 1484 -844 
Q 1016 -109 783 600 
Q 550 1309 550 2009 
Q 550 2706 781 3412 
Q 1013 4119 1484 4856 
L 1984 4856 
z
" transform="scale(0.015625)"/>
        <path id="DejaVuSans-49" d="M 628 4666 
L 1259 4666 
L 1259 0 
L 628 0 
L 628 4666 
z
" transform="scale(0.015625)"/>
        <path id="DejaVuSans-66" d="M 2375 4863 
L 2375 4384 
L 1825 4384 
Q 1516 4384 1395 4259 
Q 1275 4134 1275 3809 
L 1275 3500 
L 2222 3500 
L 2222 3053 
L 1275 3053 
L 1275 0 
L 697 0 
L 697 3053 
L 147 3053 
L 147 3500 
L 697 3500 
L 697 3744 
Q 697 4328 969 4595 
Q 1241 4863 1831 4863 
L 2375 4863 
z
" transform="scale(0.015625)"/>
        <path id="DejaVuSans-63" d="M 3122 3366 
L 3122 2828 
Q 2878 2963 2633 3030 
Q 2388 3097 2138 3097 
Q 1578 3097 1268 2742 
Q 959 2388 959 1747 
Q 959 1106 1268 751 
Q 1578 397 2138 397 
Q 2388 397 2633 464 
Q 2878 531 3122 666 
L 3122 134 
Q 2881 22 2623 -34 
Q 2366 -91 2075 -91 
Q 1284 -91 818 406 
Q 353 903 353 1747 
Q 353 2603 823 3093 
Q 1294 3584 2113 3584 
Q 2378 3584 2631 3529 
Q 2884 3475 3122 3366 
z
" transform="scale(0.015625)"/>
        <path id="DejaVuSans-29" d="M 513 4856 
L 1013 4856 
Q 1481 4119 1714 3412 
Q 1947 2706 1947 2009 
Q 1947 1309 1714 600 
Q 1481 -109 1013 -844 
L 513 -844 
Q 928 -128 1133 580 
Q 1338 1288 1338 2009 
Q 1338 2731 1133 3434 
Q 928 4138 513 4856 
z
" transform="scale(0.015625)"/>
       </defs>
       <use xlink:href="#DejaVuSans-43"/>
       <use xlink:href="#DejaVuSans-61" transform="translate(69.824219 0)"/>
       <use xlink:href="#DejaVuSans-75" transform="translate(131.103516 0)"/>
       <use xlink:href="#DejaVuSans-73" transform="translate(194.482422 0)"/>
       <use xlink:href="#DejaVuSans-61" transform="translate(246.582031 0)"/>
       <use xlink:href="#DejaVuSans-6c" transform="translate(307.861328 0)"/>
       <use xlink:href="#DejaVuSans-20" transform="translate(335.644531 0)"/>
       <use xlink:href="#DejaVuSans-28" transform="translate(367.431641 0)"/>
       <use xlink:href="#DejaVuSans-49" transform="translate(406.445312 0)"/>
       <use xlink:href="#DejaVuSans-6e" transform="translate(435.9375 0)"/>
       <use xlink:href="#DejaVuSans-66" transform="translate(499.316406 0)"/>
       <use xlink:href="#DejaVuSans-65" transform="translate(534.521484 0)"/>
       <use xlink:href="#DejaVuSans-72" transform="translate(596.044922 0)"/>
       <use xlink:href="#DejaVuSans-65" transform="translate(634.908203 0)"/>
       <use xlink:href="#DejaVuSans-6e" transform="translate(696.431641 0)"/>
       <use xlink:href="#DejaVuSans-63" transform="translate(759.810547 0)"/>
       <use xlink:href="#DejaVuSans-65" transform="translate(814.791016 0)"/>
       <use xlink:href="#DejaVuSans-29" transform="translate(876.314453 0)"/>
      </g>
     </g>
    </g>
    <g id="xtick_3">
     <g id="line2d_3">
      <g>
       <use xlink:href="#m36899d85bb" x="300.218558" y="284.741751" style="stroke: #000000; stroke-width: 0.8"/>
      </g>
     </g>
     <g id="text_3">
      <!-- Causal (Do) -->
      <g transform="translate(276.325865 327.504222) rotate(-30) scale(0.1 -0.1)">
       <use xlink:href="#DejaVuSans-43"/>
       <use xlink:href="#DejaVuSans-61" transform="translate(69.824219 0)"/>
       <use xlink:href="#DejaVuSans-75" transform="translate(131.103516 0)"/>
       <use xlink:href="#DejaVuSans-73" transform="translate(194.482422 0)"/>
       <use xlink:href="#DejaVuSans-61" transform="translate(246.582031 0)"/>
       <use xlink:href="#DejaVuSans-6c" transform="translate(307.861328 0)"/>
       <use xlink:href="#DejaVuSans-20" transform="translate(335.644531 0)"/>
       <use xlink:href="#DejaVuSans-28" transform="translate(367.431641 0)"/>
       <use xlink:href="#DejaVuSans-44" transform="translate(406.445312 0)"/>
       <use xlink:href="#DejaVuSans-6f" transform="translate(483.447266 0)"/>
       <use xlink:href="#DejaVuSans-29" transform="translate(544.628906 0)"/>
      </g>
     </g>
    </g>
    <g id="xtick_4">
     <g id="line2d_4">
      <g>
       <use xlink:href="#m36899d85bb" x="391.541442" y="284.741751" style="stroke: #000000; stroke-width: 0.8"/>
      </g>
     </g>
     <g id="text_4">
      <!-- Log-Normal- -->
      <g transform="translate(363.594236 328.953441) rotate(-30) scale(0.1 -0.1)">
       <defs>
        <path id="DejaVuSans-4c" d="M 628 4666 
L 1259 4666 
L 1259 531 
L 3531 531 
L 3531 0 
L 628 0 
L 628 4666 
z
" transform="scale(0.015625)"/>
        <path id="DejaVuSans-67" d="M 2906 1791 
Q 2906 2416 2648 2759 
Q 2391 3103 1925 3103 
Q 1463 3103 1205 2759 
Q 947 2416 947 1791 
Q 947 1169 1205 825 
Q 1463 481 1925 481 
Q 2391 481 2648 825 
Q 2906 1169 2906 1791 
z
M 3481 434 
Q 3481 -459 3084 -895 
Q 2688 -1331 1869 -1331 
Q 1566 -1331 1297 -1286 
Q 1028 -1241 775 -1147 
L 775 -588 
Q 1028 -725 1275 -790 
Q 1522 -856 1778 -856 
Q 2344 -856 2625 -561 
Q 2906 -266 2906 331 
L 2906 616 
Q 2728 306 2450 153 
Q 2172 0 1784 0 
Q 1141 0 747 490 
Q 353 981 353 1791 
Q 353 2603 747 3093 
Q 1141 3584 1784 3584 
Q 2172 3584 2450 3431 
Q 2728 3278 2906 2969 
L 2906 3500 
L 3481 3500 
L 3481 434 
z
" transform="scale(0.015625)"/>
        <path id="DejaVuSans-2d" d="M 313 2009 
L 1997 2009 
L 1997 1497 
L 313 1497 
L 313 2009 
z
" transform="scale(0.015625)"/>
        <path id="DejaVuSans-4e" d="M 628 4666 
L 1478 4666 
L 3547 763 
L 3547 4666 
L 4159 4666 
L 4159 0 
L 3309 0 
L 1241 3903 
L 1241 0 
L 628 0 
L 628 4666 
z
" transform="scale(0.015625)"/>
        <path id="DejaVuSans-6d" d="M 3328 2828 
Q 3544 3216 3844 3400 
Q 4144 3584 4550 3584 
Q 5097 3584 5394 3201 
Q 5691 2819 5691 2113 
L 5691 0 
L 5113 0 
L 5113 2094 
Q 5113 2597 4934 2840 
Q 4756 3084 4391 3084 
Q 3944 3084 3684 2787 
Q 3425 2491 3425 1978 
L 3425 0 
L 2847 0 
L 2847 2094 
Q 2847 2600 2669 2842 
Q 2491 3084 2119 3084 
Q 1678 3084 1418 2786 
Q 1159 2488 1159 1978 
L 1159 0 
L 581 0 
L 581 3500 
L 1159 3500 
L 1159 2956 
Q 1356 3278 1631 3431 
Q 1906 3584 2284 3584 
Q 2666 3584 2933 3390 
Q 3200 3197 3328 2828 
z
" transform="scale(0.015625)"/>
       </defs>
       <use xlink:href="#DejaVuSans-4c"/>
       <use xlink:href="#DejaVuSans-6f" transform="translate(53.962891 0)"/>
       <use xlink:href="#DejaVuSans-67" transform="translate(115.144531 0)"/>
       <use xlink:href="#DejaVuSans-2d" transform="translate(178.621094 0)"/>
       <use xlink:href="#DejaVuSans-4e" transform="translate(214.705078 0)"/>
       <use xlink:href="#DejaVuSans-6f" transform="translate(289.509766 0)"/>
       <use xlink:href="#DejaVuSans-72" transform="translate(350.691406 0)"/>
       <use xlink:href="#DejaVuSans-6d" transform="translate(390.054688 0)"/>
       <use xlink:href="#DejaVuSans-61" transform="translate(487.466797 0)"/>
       <use xlink:href="#DejaVuSans-6c" transform="translate(548.746094 0)"/>
       <use xlink:href="#DejaVuSans-2d" transform="translate(576.529297 0)"/>
      </g>
      <!-- Distribution -->
      <g transform="translate(370.459704 337.919781) rotate(-30) scale(0.1 -0.1)">
       <defs>
        <path id="DejaVuSans-62" d="M 3116 1747 
Q 3116 2381 2855 2742 
Q 2594 3103 2138 3103 
Q 1681 3103 1420 2742 
Q 1159 2381 1159 1747 
Q 1159 1113 1420 752 
Q 1681 391 2138 391 
Q 2594 391 2855 752 
Q 3116 1113 3116 1747 
z
M 1159 2969 
Q 1341 3281 1617 3432 
Q 1894 3584 2278 3584 
Q 2916 3584 3314 3078 
Q 3713 2572 3713 1747 
Q 3713 922 3314 415 
Q 2916 -91 2278 -91 
Q 1894 -91 1617 61 
Q 1341 213 1159 525 
L 1159 0 
L 581 0 
L 581 4863 
L 1159 4863 
L 1159 2969 
z
" transform="scale(0.015625)"/>
       </defs>
       <use xlink:href="#DejaVuSans-44"/>
       <use xlink:href="#DejaVuSans-69" transform="translate(77.001953 0)"/>
       <use xlink:href="#DejaVuSans-73" transform="translate(104.785156 0)"/>
       <use xlink:href="#DejaVuSans-74" transform="translate(156.884766 0)"/>
       <use xlink:href="#DejaVuSans-72" transform="translate(196.09375 0)"/>
       <use xlink:href="#DejaVuSans-69" transform="translate(237.207031 0)"/>
       <use xlink:href="#DejaVuSans-62" transform="translate(264.990234 0)"/>
       <use xlink:href="#DejaVuSans-75" transform="translate(328.466797 0)"/>
       <use xlink:href="#DejaVuSans-74" transform="translate(391.845703 0)"/>
       <use xlink:href="#DejaVuSans-69" transform="translate(431.054688 0)"/>
       <use xlink:href="#DejaVuSans-6f" transform="translate(458.837891 0)"/>
       <use xlink:href="#DejaVuSans-6e" transform="translate(520.019531 0)"/>
      </g>
     </g>
    </g>
    <g id="xtick_5">
     <g id="line2d_5">
      <g>
       <use xlink:href="#m36899d85bb" x="482.864326" y="284.741751" style="stroke: #000000; stroke-width: 0.8"/>
      </g>
     </g>
     <g id="text_5">
      <!-- Nonparametric- -->
      <g transform="translate(447.469301 337.553441) rotate(-30) scale(0.1 -0.1)">
       <defs>
        <path id="DejaVuSans-70" d="M 1159 525 
L 1159 -1331 
L 581 -1331 
L 581 3500 
L 1159 3500 
L 1159 2969 
Q 1341 3281 1617 3432 
Q 1894 3584 2278 3584 
Q 2916 3584 3314 3078 
Q 3713 2572 3713 1747 
Q 3713 922 3314 415 
Q 2916 -91 2278 -91 
Q 1894 -91 1617 61 
Q 1341 213 1159 525 
z
M 3116 1747 
Q 3116 2381 2855 2742 
Q 2594 3103 2138 3103 
Q 1681 3103 1420 2742 
Q 1159 2381 1159 1747 
Q 1159 1113 1420 752 
Q 1681 391 2138 391 
Q 2594 391 2855 752 
Q 3116 1113 3116 1747 
z
" transform="scale(0.015625)"/>
       </defs>
       <use xlink:href="#DejaVuSans-4e"/>
       <use xlink:href="#DejaVuSans-6f" transform="translate(74.804688 0)"/>
       <use xlink:href="#DejaVuSans-6e" transform="translate(135.986328 0)"/>
       <use xlink:href="#DejaVuSans-70" transform="translate(199.365234 0)"/>
       <use xlink:href="#DejaVuSans-61" transform="translate(262.841797 0)"/>
       <use xlink:href="#DejaVuSans-72" transform="translate(324.121094 0)"/>
       <use xlink:href="#DejaVuSans-61" transform="translate(365.234375 0)"/>
       <use xlink:href="#DejaVuSans-6d" transform="translate(426.513672 0)"/>
       <use xlink:href="#DejaVuSans-65" transform="translate(523.925781 0)"/>
       <use xlink:href="#DejaVuSans-74" transform="translate(585.449219 0)"/>
       <use xlink:href="#DejaVuSans-72" transform="translate(624.658203 0)"/>
       <use xlink:href="#DejaVuSans-69" transform="translate(665.771484 0)"/>
       <use xlink:href="#DejaVuSans-63" transform="translate(693.554688 0)"/>
       <use xlink:href="#DejaVuSans-2d" transform="translate(748.535156 0)"/>
      </g>
      <!-- Distribution -->
      <g transform="translate(461.782588 342.219781) rotate(-30) scale(0.1 -0.1)">
       <use xlink:href="#DejaVuSans-44"/>
       <use xlink:href="#DejaVuSans-69" transform="translate(77.001953 0)"/>
       <use xlink:href="#DejaVuSans-73" transform="translate(104.785156 0)"/>
       <use xlink:href="#DejaVuSans-74" transform="translate(156.884766 0)"/>
       <use xlink:href="#DejaVuSans-72" transform="translate(196.09375 0)"/>
       <use xlink:href="#DejaVuSans-69" transform="translate(237.207031 0)"/>
       <use xlink:href="#DejaVuSans-62" transform="translate(264.990234 0)"/>
       <use xlink:href="#DejaVuSans-75" transform="translate(328.466797 0)"/>
       <use xlink:href="#DejaVuSans-74" transform="translate(391.845703 0)"/>
       <use xlink:href="#DejaVuSans-69" transform="translate(431.054688 0)"/>
       <use xlink:href="#DejaVuSans-6f" transform="translate(458.837891 0)"/>
       <use xlink:href="#DejaVuSans-6e" transform="translate(520.019531 0)"/>
      </g>
     </g>
    </g>
    <g id="xtick_6">
     <g id="line2d_6">
      <g>
       <use xlink:href="#m36899d85bb" x="574.18721" y="284.741751" style="stroke: #000000; stroke-width: 0.8"/>
      </g>
     </g>
     <g id="text_6">
      <!-- Static Duration -->
      <g transform="translate(543.002989 335.923754) rotate(-30) scale(0.1 -0.1)">
       <defs>
        <path id="DejaVuSans-53" d="M 3425 4513 
L 3425 3897 
Q 3066 4069 2747 4153 
Q 2428 4238 2131 4238 
Q 1616 4238 1336 4038 
Q 1056 3838 1056 3469 
Q 1056 3159 1242 3001 
Q 1428 2844 1947 2747 
L 2328 2669 
Q 3034 2534 3370 2195 
Q 3706 1856 3706 1288 
Q 3706 609 3251 259 
Q 2797 -91 1919 -91 
Q 1588 -91 1214 -16 
Q 841 59 441 206 
L 441 856 
Q 825 641 1194 531 
Q 1563 422 1919 422 
Q 2459 422 2753 634 
Q 3047 847 3047 1241 
Q 3047 1584 2836 1778 
Q 2625 1972 2144 2069 
L 1759 2144 
Q 1053 2284 737 2584 
Q 422 2884 422 3419 
Q 422 4038 858 4394 
Q 1294 4750 2059 4750 
Q 2388 4750 2728 4690 
Q 3069 4631 3425 4513 
z
" transform="scale(0.015625)"/>
       </defs>
       <use xlink:href="#DejaVuSans-53"/>
       <use xlink:href="#DejaVuSans-74" transform="translate(63.476562 0)"/>
       <use xlink:href="#DejaVuSans-61" transform="translate(102.685547 0)"/>
       <use xlink:href="#DejaVuSans-74" transform="translate(163.964844 0)"/>
       <use xlink:href="#DejaVuSans-69" transform="translate(203.173828 0)"/>
       <use xlink:href="#DejaVuSans-63" transform="translate(230.957031 0)"/>
       <use xlink:href="#DejaVuSans-20" transform="translate(285.9375 0)"/>
       <use xlink:href="#DejaVuSans-44" transform="translate(317.724609 0)"/>
       <use xlink:href="#DejaVuSans-75" transform="translate(394.726562 0)"/>
       <use xlink:href="#DejaVuSans-72" transform="translate(458.105469 0)"/>
       <use xlink:href="#DejaVuSans-61" transform="translate(499.21875 0)"/>
       <use xlink:href="#DejaVuSans-74" transform="translate(560.498047 0)"/>
       <use xlink:href="#DejaVuSans-69" transform="translate(599.707031 0)"/>
       <use xlink:href="#DejaVuSans-6f" transform="translate(627.490234 0)"/>
       <use xlink:href="#DejaVuSans-6e" transform="translate(688.671875 0)"/>
      </g>
     </g>
    </g>
   </g>
   <g id="matplotlib.axis_2">
    <g id="ytick_1">
     <g id="line2d_7">
      <defs>
       <path id="m5bb82e511d" d="M 0 0 
L -3.5 0 
" style="stroke: #000000; stroke-width: 0.8"/>
      </defs>
      <g>
       <use xlink:href="#m5bb82e511d" x="54.56" y="258.367282" style="stroke: #000000; stroke-width: 0.8"/>
      </g>
     </g>
     <g id="text_7">
      <!-- 75 -->
      <g transform="translate(26.455313 262.166501) scale(0.1 -0.1)">
       <defs>
        <path id="DejaVuSans-2212" d="M 678 2272 
L 4684 2272 
L 4684 1741 
L 678 1741 
L 678 2272 
z
" transform="scale(0.015625)"/>
        <path id="DejaVuSans-37" d="M 525 4666 
L 3525 4666 
L 3525 4397 
L 1831 0 
L 1172 0 
L 2766 4134 
L 525 4134 
L 525 4666 
z
" transform="scale(0.015625)"/>
        <path id="DejaVuSans-35" d="M 691 4666 
L 3169 4666 
L 3169 4134 
L 1269 4134 
L 1269 2991 
Q 1406 3038 1543 3061 
Q 1681 3084 1819 3084 
Q 2600 3084 3056 2656 
Q 3513 2228 3513 1497 
Q 3513 744 3044 326 
Q 2575 -91 1722 -91 
Q 1428 -91 1123 -41 
Q 819 9 494 109 
L 494 744 
Q 775 591 1075 516 
Q 1375 441 1709 441 
Q 2250 441 2565 725 
Q 2881 1009 2881 1497 
Q 2881 1984 2565 2268 
Q 2250 2553 1709 2553 
Q 1456 2553 1204 2497 
Q 953 2441 691 2322 
L 691 4666 
z
" transform="scale(0.015625)"/>
       </defs>
       <use xlink:href="#DejaVuSans-2212"/>
       <use xlink:href="#DejaVuSans-37" transform="translate(83.789062 0)"/>
       <use xlink:href="#DejaVuSans-35" transform="translate(147.412109 0)"/>
      </g>
     </g>
    </g>
    <g id="ytick_2">
     <g id="line2d_8">
      <g>
       <use xlink:href="#m5bb82e511d" x="54.56" y="223.855007" style="stroke: #000000; stroke-width: 0.8"/>
      </g>
     </g>
     <g id="text_8">
      <!-- 50 -->
      <g transform="translate(26.455313 227.654226) scale(0.1 -0.1)">
       <defs>
        <path id="DejaVuSans-30" d="M 2034 4250 
Q 1547 4250 1301 3770 
Q 1056 3291 1056 2328 
Q 1056 1369 1301 889 
Q 1547 409 2034 409 
Q 2525 409 2770 889 
Q 3016 1369 3016 2328 
Q 3016 3291 2770 3770 
Q 2525 4250 2034 4250 
z
M 2034 4750 
Q 2819 4750 3233 4129 
Q 3647 3509 3647 2328 
Q 3647 1150 3233 529 
Q 2819 -91 2034 -91 
Q 1250 -91 836 529 
Q 422 1150 422 2328 
Q 422 3509 836 4129 
Q 1250 4750 2034 4750 
z
" transform="scale(0.015625)"/>
       </defs>
       <use xlink:href="#DejaVuSans-2212"/>
       <use xlink:href="#DejaVuSans-35" transform="translate(83.789062 0)"/>
       <use xlink:href="#DejaVuSans-30" transform="translate(147.412109 0)"/>
      </g>
     </g>
    </g>
    <g id="ytick_3">
     <g id="line2d_9">
      <g>
       <use xlink:href="#m5bb82e511d" x="54.56" y="189.342732" style="stroke: #000000; stroke-width: 0.8"/>
      </g>
     </g>
     <g id="text_9">
      <!-- 25 -->
      <g transform="translate(26.455313 193.14195) scale(0.1 -0.1)">
       <defs>
        <path id="DejaVuSans-32" d="M 1228 531 
L 3431 531 
L 3431 0 
L 469 0 
L 469 531 
Q 828 903 1448 1529 
Q 2069 2156 2228 2338 
Q 2531 2678 2651 2914 
Q 2772 3150 2772 3378 
Q 2772 3750 2511 3984 
Q 2250 4219 1831 4219 
Q 1534 4219 1204 4116 
Q 875 4013 500 3803 
L 500 4441 
Q 881 4594 1212 4672 
Q 1544 4750 1819 4750 
Q 2544 4750 2975 4387 
Q 3406 4025 3406 3419 
Q 3406 3131 3298 2873 
Q 3191 2616 2906 2266 
Q 2828 2175 2409 1742 
Q 1991 1309 1228 531 
z
" transform="scale(0.015625)"/>
       </defs>
       <use xlink:href="#DejaVuSans-2212"/>
       <use xlink:href="#DejaVuSans-32" transform="translate(83.789062 0)"/>
       <use xlink:href="#DejaVuSans-35" transform="translate(147.412109 0)"/>
      </g>
     </g>
    </g>
    <g id="ytick_4">
     <g id="line2d_10">
      <g>
       <use xlink:href="#m5bb82e511d" x="54.56" y="154.830457" style="stroke: #000000; stroke-width: 0.8"/>
      </g>
     </g>
     <g id="text_10">
      <!-- 0 -->
      <g transform="translate(41.1975 158.629675) scale(0.1 -0.1)">
       <use xlink:href="#DejaVuSans-30"/>
      </g>
     </g>
    </g>
    <g id="ytick_5">
     <g id="line2d_11">
      <g>
       <use xlink:href="#m5bb82e511d" x="54.56" y="120.318182" style="stroke: #000000; stroke-width: 0.8"/>
      </g>
     </g>
     <g id="text_11">
      <!-- 25 -->
      <g transform="translate(34.835 124.1174) scale(0.1 -0.1)">
       <use xlink:href="#DejaVuSans-32"/>
       <use xlink:href="#DejaVuSans-35" transform="translate(63.623047 0)"/>
      </g>
     </g>
    </g>
    <g id="ytick_6">
     <g id="line2d_12">
      <g>
       <use xlink:href="#m5bb82e511d" x="54.56" y="85.805907" style="stroke: #000000; stroke-width: 0.8"/>
      </g>
     </g>
     <g id="text_12">
      <!-- 50 -->
      <g transform="translate(34.835 89.605125) scale(0.1 -0.1)">
       <use xlink:href="#DejaVuSans-35"/>
       <use xlink:href="#DejaVuSans-30" transform="translate(63.623047 0)"/>
      </g>
     </g>
    </g>
    <g id="ytick_7">
     <g id="line2d_13">
      <g>
       <use xlink:href="#m5bb82e511d" x="54.56" y="51.293632" style="stroke: #000000; stroke-width: 0.8"/>
      </g>
     </g>
     <g id="text_13">
      <!-- 75 -->
      <g transform="translate(34.835 55.09285) scale(0.1 -0.1)">
       <use xlink:href="#DejaVuSans-37"/>
       <use xlink:href="#DejaVuSans-35" transform="translate(63.623047 0)"/>
      </g>
     </g>
    </g>
    <g id="ytick_8">
     <g id="line2d_14">
      <g>
       <use xlink:href="#m5bb82e511d" x="54.56" y="16.781357" style="stroke: #000000; stroke-width: 0.8"/>
      </g>
     </g>
     <g id="text_14">
      <!-- 100 -->
      <g transform="translate(28.4725 20.580575) scale(0.1 -0.1)">
       <defs>
        <path id="DejaVuSans-31" d="M 794 531 
L 1825 531 
L 1825 4091 
L 703 3866 
L 703 4441 
L 1819 4666 
L 2450 4666 
L 2450 531 
L 3481 531 
L 3481 0 
L 794 0 
L 794 531 
z
" transform="scale(0.015625)"/>
       </defs>
       <use xlink:href="#DejaVuSans-31"/>
       <use xlink:href="#DejaVuSans-30" transform="translate(63.623047 0)"/>
       <use xlink:href="#DejaVuSans-30" transform="translate(127.246094 0)"/>
      </g>
     </g>
    </g>
    <g id="text_15">
     <!-- Throughput Distance -->
     <g transform="translate(19.959687 210.760563) rotate(-90) scale(0.12 -0.12)">
      <defs>
       <path id="DejaVuSans-54" d="M -19 4666 
L 3928 4666 
L 3928 4134 
L 2272 4134 
L 2272 0 
L 1638 0 
L 1638 4134 
L -19 4134 
L -19 4666 
z
" transform="scale(0.015625)"/>
       <path id="DejaVuSans-68" d="M 3513 2113 
L 3513 0 
L 2938 0 
L 2938 2094 
Q 2938 2591 2744 2837 
Q 2550 3084 2163 3084 
Q 1697 3084 1428 2787 
Q 1159 2491 1159 1978 
L 1159 0 
L 581 0 
L 581 4863 
L 1159 4863 
L 1159 2956 
Q 1366 3272 1645 3428 
Q 1925 3584 2291 3584 
Q 2894 3584 3203 3211 
Q 3513 2838 3513 2113 
z
" transform="scale(0.015625)"/>
      </defs>
      <use xlink:href="#DejaVuSans-54"/>
      <use xlink:href="#DejaVuSans-68" transform="translate(61.083984 0)"/>
      <use xlink:href="#DejaVuSans-72" transform="translate(124.462891 0)"/>
      <use xlink:href="#DejaVuSans-6f" transform="translate(163.326172 0)"/>
      <use xlink:href="#DejaVuSans-75" transform="translate(224.507812 0)"/>
      <use xlink:href="#DejaVuSans-67" transform="translate(287.886719 0)"/>
      <use xlink:href="#DejaVuSans-68" transform="translate(351.363281 0)"/>
      <use xlink:href="#DejaVuSans-70" transform="translate(414.742188 0)"/>
      <use xlink:href="#DejaVuSans-75" transform="translate(478.21875 0)"/>
      <use xlink:href="#DejaVuSans-74" transform="translate(541.597656 0)"/>
      <use xlink:href="#DejaVuSans-20" transform="translate(580.806641 0)"/>
      <use xlink:href="#DejaVuSans-44" transform="translate(612.59375 0)"/>
      <use xlink:href="#DejaVuSans-69" transform="translate(689.595703 0)"/>
      <use xlink:href="#DejaVuSans-73" transform="translate(717.378906 0)"/>
      <use xlink:href="#DejaVuSans-74" transform="translate(769.478516 0)"/>
      <use xlink:href="#DejaVuSans-61" transform="translate(808.6875 0)"/>
      <use xlink:href="#DejaVuSans-6e" transform="translate(869.966797 0)"/>
      <use xlink:href="#DejaVuSans-63" transform="translate(933.345703 0)"/>
      <use xlink:href="#DejaVuSans-65" transform="translate(988.326172 0)"/>
     </g>
    </g>
   </g>
   <g id="line2d_15">
    <path d="M 95.614123 161.870961 
L 139.531457 161.870961 
" clip-path="url(#pcd42f9c6a0)" style="fill: none; stroke-dasharray: 1.5,0.9; stroke-dashoffset: 0; stroke: #525252; stroke-width: 1.2"/>
   </g>
   <g id="line2d_16">
    <path d="M 82.11467 125.080876 
L 153.03091 125.080876 
" clip-path="url(#pcd42f9c6a0)" style="fill: none; stroke-dasharray: 3,1.2; stroke-dashoffset: 0; stroke: #525252; stroke-width: 1.2"/>
   </g>
   <g id="line2d_17">
    <path d="M 82.877783 108.238885 
L 152.267797 108.238885 
" clip-path="url(#pcd42f9c6a0)" style="fill: none; stroke-dasharray: 1.5,0.9; stroke-dashoffset: 0; stroke: #525252; stroke-width: 1.2"/>
   </g>
   <g id="line2d_18">
    <path d="M 177.795627 177.401485 
L 239.995721 177.401485 
" clip-path="url(#pcd42f9c6a0)" style="fill: none; stroke-dasharray: 1.5,0.9; stroke-dashoffset: 0; stroke: #525252; stroke-width: 1.2"/>
   </g>
   <g id="line2d_19">
    <path d="M 172.79763 158.488758 
L 244.993718 158.488758 
" clip-path="url(#pcd42f9c6a0)" style="fill: none; stroke-dasharray: 3,1.2; stroke-dashoffset: 0; stroke: #525252; stroke-width: 1.2"/>
   </g>
   <g id="line2d_20">
    <path d="M 175.839379 138.506151 
L 241.951969 138.506151 
" clip-path="url(#pcd42f9c6a0)" style="fill: none; stroke-dasharray: 1.5,0.9; stroke-dashoffset: 0; stroke: #525252; stroke-width: 1.2"/>
   </g>
   <g id="line2d_21">
    <path d="M 266.422 190.240051 
L 334.015116 190.240051 
" clip-path="url(#pcd42f9c6a0)" style="fill: none; stroke-dasharray: 1.5,0.9; stroke-dashoffset: 0; stroke: #525252; stroke-width: 1.2"/>
   </g>
   <g id="line2d_22">
    <path d="M 263.988061 165.184139 
L 336.449055 165.184139 
" clip-path="url(#pcd42f9c6a0)" style="fill: none; stroke-dasharray: 3,1.2; stroke-dashoffset: 0; stroke: #525252; stroke-width: 1.2"/>
   </g>
   <g id="line2d_23">
    <path d="M 266.191399 144.787385 
L 334.245717 144.787385 
" clip-path="url(#pcd42f9c6a0)" style="fill: none; stroke-dasharray: 1.5,0.9; stroke-dashoffset: 0; stroke: #525252; stroke-width: 1.2"/>
   </g>
   <g id="line2d_24">
    <path d="M 369.398232 172.086594 
L 413.684652 172.086594 
" clip-path="url(#pcd42f9c6a0)" style="fill: none; stroke-dasharray: 1.5,0.9; stroke-dashoffset: 0; stroke: #525252; stroke-width: 1.2"/>
   </g>
   <g id="line2d_25">
    <path d="M 356.011142 153.588015 
L 427.071742 153.588015 
" clip-path="url(#pcd42f9c6a0)" style="fill: none; stroke-dasharray: 3,1.2; stroke-dashoffset: 0; stroke: #525252; stroke-width: 1.2"/>
   </g>
   <g id="line2d_26">
    <path d="M 357.544809 140.611399 
L 425.538075 140.611399 
" clip-path="url(#pcd42f9c6a0)" style="fill: none; stroke-dasharray: 1.5,0.9; stroke-dashoffset: 0; stroke: #525252; stroke-width: 1.2"/>
   </g>
   <g id="line2d_27">
    <path d="M 458.469309 169.567198 
L 507.259343 169.567198 
" clip-path="url(#pcd42f9c6a0)" style="fill: none; stroke-dasharray: 1.5,0.9; stroke-dashoffset: 0; stroke: #525252; stroke-width: 1.2"/>
   </g>
   <g id="line2d_28">
    <path d="M 447.39435 156.970218 
L 518.334302 156.970218 
" clip-path="url(#pcd42f9c6a0)" style="fill: none; stroke-dasharray: 3,1.2; stroke-dashoffset: 0; stroke: #525252; stroke-width: 1.2"/>
   </g>
   <g id="line2d_29">
    <path d="M 448.436132 145.822753 
L 517.29252 145.822753 
" clip-path="url(#pcd42f9c6a0)" style="fill: none; stroke-dasharray: 1.5,0.9; stroke-dashoffset: 0; stroke: #525252; stroke-width: 1.2"/>
   </g>
   <g id="line2d_30">
    <path d="M 541.63625 167.496462 
L 606.73817 167.496462 
" clip-path="url(#pcd42f9c6a0)" style="fill: none; stroke-dasharray: 1.5,0.9; stroke-dashoffset: 0; stroke: #525252; stroke-width: 1.2"/>
   </g>
   <g id="line2d_31">
    <path d="M 537.723629 157.246316 
L 610.650791 157.246316 
" clip-path="url(#pcd42f9c6a0)" style="fill: none; stroke-dasharray: 3,1.2; stroke-dashoffset: 0; stroke: #525252; stroke-width: 1.2"/>
   </g>
   <g id="line2d_32">
    <path d="M 541.96459 143.64848 
L 606.40983 143.64848 
" clip-path="url(#pcd42f9c6a0)" style="fill: none; stroke-dasharray: 1.5,0.9; stroke-dashoffset: 0; stroke: #525252; stroke-width: 1.2"/>
   </g>
   <g id="LineCollection_1">
    <path d="M 117.57279 167.965685 
L 117.57279 95.048437 
" clip-path="url(#pcd42f9c6a0)" style="fill: none; stroke: #000000; stroke-width: 1.5"/>
    <path d="M 208.895674 191.526736 
L 208.895674 124.829558 
" clip-path="url(#pcd42f9c6a0)" style="fill: none; stroke: #000000; stroke-width: 1.5"/>
    <path d="M 300.218558 198.44922 
L 300.218558 135.328871 
" clip-path="url(#pcd42f9c6a0)" style="fill: none; stroke: #000000; stroke-width: 1.5"/>
    <path d="M 391.541442 186.414865 
L 391.541442 133.848219 
" clip-path="url(#pcd42f9c6a0)" style="fill: none; stroke: #000000; stroke-width: 1.5"/>
    <path d="M 482.864326 188.780996 
L 482.864326 137.321565 
" clip-path="url(#pcd42f9c6a0)" style="fill: none; stroke: #000000; stroke-width: 1.5"/>
    <path d="M 574.18721 191.223957 
L 574.18721 127.423953 
" clip-path="url(#pcd42f9c6a0)" style="fill: none; stroke: #000000; stroke-width: 1.5"/>
   </g>
   <g id="line2d_33">
    <defs>
     <path id="mab94b9f837" d="M 5 0 
L -5 -0 
" style="stroke: #000000"/>
    </defs>
    <g clip-path="url(#pcd42f9c6a0)">
     <use xlink:href="#mab94b9f837" x="117.57279" y="167.965685" style="stroke: #000000"/>
     <use xlink:href="#mab94b9f837" x="208.895674" y="191.526736" style="stroke: #000000"/>
     <use xlink:href="#mab94b9f837" x="300.218558" y="198.44922" style="stroke: #000000"/>
     <use xlink:href="#mab94b9f837" x="391.541442" y="186.414865" style="stroke: #000000"/>
     <use xlink:href="#mab94b9f837" x="482.864326" y="188.780996" style="stroke: #000000"/>
     <use xlink:href="#mab94b9f837" x="574.18721" y="191.223957" style="stroke: #000000"/>
    </g>
   </g>
   <g id="line2d_34">
    <g clip-path="url(#pcd42f9c6a0)">
     <use xlink:href="#mab94b9f837" x="117.57279" y="95.048437" style="stroke: #000000"/>
     <use xlink:href="#mab94b9f837" x="208.895674" y="124.829558" style="stroke: #000000"/>
     <use xlink:href="#mab94b9f837" x="300.218558" y="135.328871" style="stroke: #000000"/>
     <use xlink:href="#mab94b9f837" x="391.541442" y="133.848219" style="stroke: #000000"/>
     <use xlink:href="#mab94b9f837" x="482.864326" y="137.321565" style="stroke: #000000"/>
     <use xlink:href="#mab94b9f837" x="574.18721" y="127.423953" style="stroke: #000000"/>
    </g>
   </g>
   <g id="line2d_35">
    <defs>
     <path id="m0998dbeac3" d="M 0 3 
C 0.795609 3 1.55874 2.683901 2.12132 2.12132 
C 2.683901 1.55874 3 0.795609 3 0 
C 3 -0.795609 2.683901 -1.55874 2.12132 -2.12132 
C 1.55874 -2.683901 0.795609 -3 0 -3 
C -0.795609 -3 -1.55874 -2.683901 -2.12132 -2.12132 
C -2.683901 -1.55874 -3 -0.795609 -3 0 
C -3 0.795609 -2.683901 1.55874 -2.12132 2.12132 
C -1.55874 2.683901 -0.795609 3 0 3 
z
" style="stroke: #000000"/>
    </defs>
    <g clip-path="url(#pcd42f9c6a0)">
     <use xlink:href="#m0998dbeac3" x="117.57279" y="131.507061" style="stroke: #000000"/>
     <use xlink:href="#m0998dbeac3" x="208.895674" y="158.178147" style="stroke: #000000"/>
     <use xlink:href="#m0998dbeac3" x="300.218558" y="166.889046" style="stroke: #000000"/>
     <use xlink:href="#m0998dbeac3" x="391.541442" y="160.131542" style="stroke: #000000"/>
     <use xlink:href="#m0998dbeac3" x="482.864326" y="163.051281" style="stroke: #000000"/>
     <use xlink:href="#m0998dbeac3" x="574.18721" y="159.323955" style="stroke: #000000"/>
    </g>
   </g>
   <g id="patch_3">
    <path d="M 54.56 284.741751 
L 54.56 10.8 
" style="fill: none; stroke: #000000; stroke-width: 0.8; stroke-linejoin: miter; stroke-linecap: square"/>
   </g>
   <g id="patch_4">
    <path d="M 637.2 284.741751 
L 637.2 10.8 
" style="fill: none; stroke: #000000; stroke-width: 0.8; stroke-linejoin: miter; stroke-linecap: square"/>
   </g>
   <g id="patch_5">
    <path d="M 54.56 284.741751 
L 637.2 284.741751 
" style="fill: none; stroke: #000000; stroke-width: 0.8; stroke-linejoin: miter; stroke-linecap: square"/>
   </g>
   <g id="patch_6">
    <path d="M 54.56 10.8 
L 637.2 10.8 
" style="fill: none; stroke: #000000; stroke-width: 0.8; stroke-linejoin: miter; stroke-linecap: square"/>
   </g>
   <g id="text_16">
    <!-- 16.89 -->
    <g transform="translate(104.690134 92.486473) scale(0.09 -0.09)">
     <defs>
      <path id="DejaVuSans-36" d="M 2113 2584 
Q 1688 2584 1439 2293 
Q 1191 2003 1191 1497 
Q 1191 994 1439 701 
Q 1688 409 2113 409 
Q 2538 409 2786 701 
Q 3034 994 3034 1497 
Q 3034 2003 2786 2293 
Q 2538 2584 2113 2584 
z
M 3366 4563 
L 3366 3988 
Q 3128 4100 2886 4159 
Q 2644 4219 2406 4219 
Q 1781 4219 1451 3797 
Q 1122 3375 1075 2522 
Q 1259 2794 1537 2939 
Q 1816 3084 2150 3084 
Q 2853 3084 3261 2657 
Q 3669 2231 3669 1497 
Q 3669 778 3244 343 
Q 2819 -91 2113 -91 
Q 1303 -91 875 529 
Q 447 1150 447 2328 
Q 447 3434 972 4092 
Q 1497 4750 2381 4750 
Q 2619 4750 2861 4703 
Q 3103 4656 3366 4563 
z
" transform="scale(0.015625)"/>
      <path id="DejaVuSans-2e" d="M 684 794 
L 1344 794 
L 1344 0 
L 684 0 
L 684 794 
z
" transform="scale(0.015625)"/>
      <path id="DejaVuSans-38" d="M 2034 2216 
Q 1584 2216 1326 1975 
Q 1069 1734 1069 1313 
Q 1069 891 1326 650 
Q 1584 409 2034 409 
Q 2484 409 2743 651 
Q 3003 894 3003 1313 
Q 3003 1734 2745 1975 
Q 2488 2216 2034 2216 
z
M 1403 2484 
Q 997 2584 770 2862 
Q 544 3141 544 3541 
Q 544 4100 942 4425 
Q 1341 4750 2034 4750 
Q 2731 4750 3128 4425 
Q 3525 4100 3525 3541 
Q 3525 3141 3298 2862 
Q 3072 2584 2669 2484 
Q 3125 2378 3379 2068 
Q 3634 1759 3634 1313 
Q 3634 634 3220 271 
Q 2806 -91 2034 -91 
Q 1263 -91 848 271 
Q 434 634 434 1313 
Q 434 1759 690 2068 
Q 947 2378 1403 2484 
z
M 1172 3481 
Q 1172 3119 1398 2916 
Q 1625 2713 2034 2713 
Q 2441 2713 2670 2916 
Q 2900 3119 2900 3481 
Q 2900 3844 2670 4047 
Q 2441 4250 2034 4250 
Q 1625 4250 1398 4047 
Q 1172 3844 1172 3481 
z
" transform="scale(0.015625)"/>
      <path id="DejaVuSans-39" d="M 703 97 
L 703 672 
Q 941 559 1184 500 
Q 1428 441 1663 441 
Q 2288 441 2617 861 
Q 2947 1281 2994 2138 
Q 2813 1869 2534 1725 
Q 2256 1581 1919 1581 
Q 1219 1581 811 2004 
Q 403 2428 403 3163 
Q 403 3881 828 4315 
Q 1253 4750 1959 4750 
Q 2769 4750 3195 4129 
Q 3622 3509 3622 2328 
Q 3622 1225 3098 567 
Q 2575 -91 1691 -91 
Q 1453 -91 1209 -44 
Q 966 3 703 97 
z
M 1959 2075 
Q 2384 2075 2632 2365 
Q 2881 2656 2881 3163 
Q 2881 3666 2632 3958 
Q 2384 4250 1959 4250 
Q 1534 4250 1286 3958 
Q 1038 3666 1038 3163 
Q 1038 2656 1286 2365 
Q 1534 2075 1959 2075 
z
" transform="scale(0.015625)"/>
     </defs>
     <use xlink:href="#DejaVuSans-31"/>
     <use xlink:href="#DejaVuSans-36" transform="translate(63.623047 0)"/>
     <use xlink:href="#DejaVuSans-2e" transform="translate(127.246094 0)"/>
     <use xlink:href="#DejaVuSans-38" transform="translate(159.033203 0)"/>
     <use xlink:href="#DejaVuSans-39" transform="translate(222.65625 0)"/>
    </g>
   </g>
   <g id="text_17">
    <!-- -2.42 -->
    <g transform="translate(197.252627 122.267594) scale(0.09 -0.09)">
     <defs>
      <path id="DejaVuSans-34" d="M 2419 4116 
L 825 1625 
L 2419 1625 
L 2419 4116 
z
M 2253 4666 
L 3047 4666 
L 3047 1625 
L 3713 1625 
L 3713 1100 
L 3047 1100 
L 3047 0 
L 2419 0 
L 2419 1100 
L 313 1100 
L 313 1709 
L 2253 4666 
z
" transform="scale(0.015625)"/>
     </defs>
     <use xlink:href="#DejaVuSans-2d"/>
     <use xlink:href="#DejaVuSans-32" transform="translate(36.083984 0)"/>
     <use xlink:href="#DejaVuSans-2e" transform="translate(99.707031 0)"/>
     <use xlink:href="#DejaVuSans-34" transform="translate(131.494141 0)"/>
     <use xlink:href="#DejaVuSans-32" transform="translate(195.117188 0)"/>
    </g>
   </g>
   <g id="text_18">
    <!-- -8.73 -->
    <g transform="translate(288.575511 132.766907) scale(0.09 -0.09)">
     <defs>
      <path id="DejaVuSans-33" d="M 2597 2516 
Q 3050 2419 3304 2112 
Q 3559 1806 3559 1356 
Q 3559 666 3084 287 
Q 2609 -91 1734 -91 
Q 1441 -91 1130 -33 
Q 819 25 488 141 
L 488 750 
Q 750 597 1062 519 
Q 1375 441 1716 441 
Q 2309 441 2620 675 
Q 2931 909 2931 1356 
Q 2931 1769 2642 2001 
Q 2353 2234 1838 2234 
L 1294 2234 
L 1294 2753 
L 1863 2753 
Q 2328 2753 2575 2939 
Q 2822 3125 2822 3475 
Q 2822 3834 2567 4026 
Q 2313 4219 1838 4219 
Q 1578 4219 1281 4162 
Q 984 4106 628 3988 
L 628 4550 
Q 988 4650 1302 4700 
Q 1616 4750 1894 4750 
Q 2613 4750 3031 4423 
Q 3450 4097 3450 3541 
Q 3450 3153 3228 2886 
Q 3006 2619 2597 2516 
z
" transform="scale(0.015625)"/>
     </defs>
     <use xlink:href="#DejaVuSans-2d"/>
     <use xlink:href="#DejaVuSans-38" transform="translate(36.083984 0)"/>
     <use xlink:href="#DejaVuSans-2e" transform="translate(99.707031 0)"/>
     <use xlink:href="#DejaVuSans-37" transform="translate(131.494141 0)"/>
     <use xlink:href="#DejaVuSans-33" transform="translate(195.117188 0)"/>
    </g>
   </g>
   <g id="text_19">
    <!-- -3.84 -->
    <g transform="translate(379.898395 131.286255) scale(0.09 -0.09)">
     <use xlink:href="#DejaVuSans-2d"/>
     <use xlink:href="#DejaVuSans-33" transform="translate(36.083984 0)"/>
     <use xlink:href="#DejaVuSans-2e" transform="translate(99.707031 0)"/>
     <use xlink:href="#DejaVuSans-38" transform="translate(131.494141 0)"/>
     <use xlink:href="#DejaVuSans-34" transform="translate(195.117188 0)"/>
    </g>
   </g>
   <g id="text_20">
    <!-- -5.96 -->
    <g transform="translate(471.221279 134.759601) scale(0.09 -0.09)">
     <use xlink:href="#DejaVuSans-2d"/>
     <use xlink:href="#DejaVuSans-35" transform="translate(36.083984 0)"/>
     <use xlink:href="#DejaVuSans-2e" transform="translate(99.707031 0)"/>
     <use xlink:href="#DejaVuSans-39" transform="translate(131.494141 0)"/>
     <use xlink:href="#DejaVuSans-36" transform="translate(195.117188 0)"/>
    </g>
   </g>
   <g id="text_21">
    <!-- -3.25 -->
    <g transform="translate(562.544163 124.861988) scale(0.09 -0.09)">
     <use xlink:href="#DejaVuSans-2d"/>
     <use xlink:href="#DejaVuSans-33" transform="translate(36.083984 0)"/>
     <use xlink:href="#DejaVuSans-2e" transform="translate(99.707031 0)"/>
     <use xlink:href="#DejaVuSans-32" transform="translate(131.494141 0)"/>
     <use xlink:href="#DejaVuSans-35" transform="translate(195.117188 0)"/>
    </g>
   </g>
  </g>
 </g>
 <defs>
  <clipPath id="pcd42f9c6a0">
   <rect x="54.56" y="10.8" width="582.64" height="273.941751"/>
  </clipPath>
 </defs>
</svg>
