<?xml version="1.0" encoding="utf-8" standalone="no"?>
<!DOCTYPE svg PUBLIC "-//W3C//DTD SVG 1.1//EN"
  "http://www.w3.org/Graphics/SVG/1.1/DTD/svg11.dtd">
<svg xmlns:xlink="http://www.w3.org/1999/xlink" width="360pt" height="288pt" viewBox="0 0 360 288" xmlns="http://www.w3.org/2000/svg" version="1.1">
 <metadata>
  <rdf:RDF xmlns:dc="http://purl.org/dc/elements/1.1/" xmlns:cc="http://creativecommons.org/ns#" xmlns:rdf="http://www.w3.org/1999/02/22-rdf-syntax-ns#">
   <cc:Work>
    <dc:type rdf:resource="http://purl.org/dc/dcmitype/StillImage"/>
    <dc:date>2025-08-06T14:23:54.471975</dc:date>
    <dc:format>image/svg+xml</dc:format>
    <dc:creator>
     <cc:Agent>
      <dc:title>Matplotlib v3.10.0, https://matplotlib.org/</dc:title>
     </cc:Agent>
    </dc:creator>
   </cc:Work>
  </rdf:RDF>
 </metadata>
 <defs>
  <style type="text/css">*{stroke-linejoin: round; stroke-linecap: butt}</style>
 </defs>
 <g id="figure_1">
  <g id="patch_1">
   <path d="M 0 288 
L 360 288 
L 360 0 
L 0 0 
z
" style="fill: #ffffff"/>
  </g>
  <g id="axes_1">
   <g id="patch_2">
    <path d="M 40.82 250.832 
L 349.2 250.832 
L 349.2 10.8 
L 40.82 10.8 
z
" style="fill: #ffffff"/>
   </g>
   <g id="FillBetweenPolyCollection_1">
    <defs>
     <path id="m9b8260eafd" d="M 84.499096 -65.428228 
L 84.195545 -65.428228 
L 84.144258 -67.065848 
L 84.081378 -68.703468 
L 84.006256 -70.341087 
L 83.918768 -71.978707 
L 83.819366 -73.616327 
L 83.709015 -75.253947 
L 83.588994 -76.891566 
L 83.46055 -78.529186 
L 83.324393 -80.166806 
L 83.180097 -81.804425 
L 83.025442 -83.442045 
L 82.855809 -85.079665 
L 82.663722 -86.717284 
L 82.438648 -88.354904 
L 82.167137 -89.992524 
L 81.833371 -91.630143 
L 81.420117 -93.267763 
L 80.910065 -94.905383 
L 80.287426 -96.543003 
L 79.539677 -98.180622 
L 78.659256 -99.818242 
L 77.645026 -101.455862 
L 76.503309 -103.093481 
L 75.248343 -104.731101 
L 73.902041 -106.368721 
L 72.493002 -108.00634 
L 71.054819 -109.64396 
L 69.623787 -111.28158 
L 68.236211 -112.9192 
L 66.925572 -114.556819 
L 65.719837 -116.194439 
L 64.639228 -117.832059 
L 63.694701 -119.469678 
L 62.887326 -121.107298 
L 62.208651 -122.744918 
L 61.642024 -124.382537 
L 61.164707 -126.020157 
L 60.750529 -127.657777 
L 60.372778 -129.295396 
L 60.006963 -130.933016 
L 59.633181 -132.570636 
L 59.237796 -134.208256 
L 58.814331 -135.845875 
L 58.363479 -137.483495 
L 57.892327 -139.121115 
L 57.412913 -140.758734 
L 56.940347 -142.396354 
L 56.49073 -144.033974 
L 56.079169 -145.671593 
L 55.718108 -147.309213 
L 55.41622 -148.946833 
L 55.177967 -150.584452 
L 55.003902 -152.222072 
L 54.891633 -153.859692 
L 54.837296 -155.497312 
L 54.837273 -157.134931 
L 54.889871 -158.772551 
L 54.996633 -160.410171 
L 55.16304 -162.04779 
L 55.398422 -163.68541 
L 55.715064 -165.32303 
L 56.126598 -166.960649 
L 56.645933 -168.598269 
L 57.283033 -170.235889 
L 58.042931 -171.873508 
L 58.92428 -173.511128 
L 59.918723 -175.148748 
L 61.01117 -176.786368 
L 62.18095 -178.423987 
L 63.403676 -180.061607 
L 64.653508 -181.699227 
L 65.905486 -183.336846 
L 67.137605 -184.974466 
L 68.332343 -186.612086 
L 69.477509 -188.249705 
L 70.566346 -189.887325 
L 71.596998 -191.524945 
L 72.571493 -193.162564 
L 73.494474 -194.800184 
L 74.371872 -196.437804 
L 75.209731 -198.075424 
L 76.013274 -199.713043 
L 76.78629 -201.350663 
L 77.530827 -202.988283 
L 78.247157 -204.625902 
L 78.933947 -206.263522 
L 79.588587 -207.901142 
L 80.207595 -209.538761 
L 80.787083 -211.176381 
L 81.32321 -212.814001 
L 81.812621 -214.451621 
L 82.252812 -216.08924 
L 82.642412 -217.72686 
L 82.981349 -219.36448 
L 83.27089 -221.002099 
L 83.51356 -222.639719 
L 83.712955 -224.277339 
L 83.873472 -225.914958 
L 84.000007 -227.552578 
L 84.694634 -227.552578 
L 84.694634 -227.552578 
L 84.821169 -225.914958 
L 84.981686 -224.277339 
L 85.181081 -222.639719 
L 85.423751 -221.002099 
L 85.713292 -219.36448 
L 86.052229 -217.72686 
L 86.441829 -216.08924 
L 86.88202 -214.451621 
L 87.371431 -212.814001 
L 87.907558 -211.176381 
L 88.487046 -209.538761 
L 89.106055 -207.901142 
L 89.760694 -206.263522 
L 90.447484 -204.625902 
L 91.163814 -202.988283 
L 91.908351 -201.350663 
L 92.681367 -199.713043 
L 93.48491 -198.075424 
L 94.322769 -196.437804 
L 95.200168 -194.800184 
L 96.123148 -193.162564 
L 97.097644 -191.524945 
L 98.128295 -189.887325 
L 99.217132 -188.249705 
L 100.362298 -186.612086 
L 101.557037 -184.974466 
L 102.789155 -183.336846 
L 104.041133 -181.699227 
L 105.290965 -180.061607 
L 106.513691 -178.423987 
L 107.683472 -176.786368 
L 108.775918 -175.148748 
L 109.770361 -173.511128 
L 110.651711 -171.873508 
L 111.411608 -170.235889 
L 112.048709 -168.598269 
L 112.568043 -166.960649 
L 112.979577 -165.32303 
L 113.296219 -163.68541 
L 113.531601 -162.04779 
L 113.698008 -160.410171 
L 113.804771 -158.772551 
L 113.857368 -157.134931 
L 113.857345 -155.497312 
L 113.803008 -153.859692 
L 113.69074 -152.222072 
L 113.516675 -150.584452 
L 113.278421 -148.946833 
L 112.976533 -147.309213 
L 112.615472 -145.671593 
L 112.203911 -144.033974 
L 111.754295 -142.396354 
L 111.281728 -140.758734 
L 110.802314 -139.121115 
L 110.331162 -137.483495 
L 109.88031 -135.845875 
L 109.456845 -134.208256 
L 109.061461 -132.570636 
L 108.687678 -130.933016 
L 108.321864 -129.295396 
L 107.944112 -127.657777 
L 107.529934 -126.020157 
L 107.052617 -124.382537 
L 106.48599 -122.744918 
L 105.807315 -121.107298 
L 104.99994 -119.469678 
L 104.055413 -117.832059 
L 102.974805 -116.194439 
L 101.769069 -114.556819 
L 100.45843 -112.9192 
L 99.070854 -111.28158 
L 97.639822 -109.64396 
L 96.201639 -108.00634 
L 94.7926 -106.368721 
L 93.446298 -104.731101 
L 92.191332 -103.093481 
L 91.049616 -101.455862 
L 90.035385 -99.818242 
L 89.154965 -98.180622 
L 88.407215 -96.543003 
L 87.784576 -94.905383 
L 87.274524 -93.267763 
L 86.861271 -91.630143 
L 86.527504 -89.992524 
L 86.255993 -88.354904 
L 86.030919 -86.717284 
L 85.838832 -85.079665 
L 85.669199 -83.442045 
L 85.514544 -81.804425 
L 85.370248 -80.166806 
L 85.234092 -78.529186 
L 85.105647 -76.891566 
L 84.985626 -75.253947 
L 84.875275 -73.616327 
L 84.775873 -71.978707 
L 84.688385 -70.341087 
L 84.613263 -68.703468 
L 84.550384 -67.065848 
L 84.499096 -65.428228 
z
" style="stroke: #525252; stroke-width: 1.2"/>
    </defs>
    <g clip-path="url(#pd560318d53)">
     <use xlink:href="#m9b8260eafd" x="0" y="288" style="fill: #bbbbbb; stroke: #525252; stroke-width: 1.2"/>
    </g>
   </g>
   <g id="FillBetweenPolyCollection_2">
    <defs>
     <path id="m7ed1d949ee" d="M 158.379337 -100.667727 
L 157.865543 -100.667727 
L 157.769658 -102.340674 
L 157.648731 -104.013621 
L 157.500161 -105.686567 
L 157.322281 -107.359514 
L 157.114635 -109.032461 
L 156.878143 -110.705408 
L 156.615104 -112.378354 
L 156.329029 -114.051301 
L 156.024297 -115.724248 
L 155.705682 -117.397195 
L 155.37782 -119.070141 
L 155.044688 -120.743088 
L 154.709184 -122.416035 
L 154.372846 -124.088982 
L 154.035755 -125.761928 
L 153.696607 -127.434875 
L 153.352927 -129.107822 
L 153.001389 -130.780768 
L 152.6382 -132.453715 
L 152.259514 -134.126662 
L 151.861851 -135.799609 
L 151.442495 -137.472555 
L 150.999835 -139.145502 
L 150.533591 -140.818449 
L 150.044865 -142.491396 
L 149.535937 -144.164342 
L 149.009764 -145.837289 
L 148.469158 -147.510236 
L 147.91572 -149.183183 
L 147.348638 -150.856129 
L 146.763556 -152.529076 
L 146.151749 -154.202023 
L 145.499849 -155.87497 
L 144.790345 -157.547916 
L 144.002985 -159.220863 
L 143.117091 -160.89381 
L 142.114676 -162.566757 
L 140.984035 -164.239703 
L 139.723403 -165.91265 
L 138.344118 -167.585597 
L 136.872708 -169.258544 
L 135.35138 -170.93149 
L 133.836534 -172.604437 
L 132.395205 -174.277384 
L 131.099608 -175.950331 
L 130.02035 -177.623277 
L 129.219084 -179.296224 
L 128.741609 -180.969171 
L 128.612392 -182.642117 
L 128.831356 -184.315064 
L 129.373459 -185.988011 
L 130.191196 -187.660958 
L 131.219723 -189.333904 
L 132.383901 -191.006851 
L 133.606318 -192.679798 
L 134.815229 -194.352745 
L 135.951394 -196.025691 
L 136.973049 -197.698638 
L 137.858514 -199.371585 
L 138.60631 -201.044532 
L 139.233018 -202.717478 
L 139.769335 -204.390425 
L 140.254993 -206.063372 
L 140.733243 -207.736319 
L 141.245571 -209.409265 
L 141.827187 -211.082212 
L 142.503684 -212.755159 
L 143.289052 -214.428106 
L 144.185073 -216.101052 
L 145.182 -217.773999 
L 146.26027 -219.446946 
L 147.392973 -221.119893 
L 148.548754 -222.792839 
L 149.694823 -224.465786 
L 150.799795 -226.138733 
L 151.836109 -227.811679 
L 152.781879 -229.484626 
L 153.622042 -231.157573 
L 154.34881 -232.83052 
L 154.961437 -234.503466 
L 155.465405 -236.176413 
L 155.871167 -237.84936 
L 156.192613 -239.522307 
L 156.445426 -241.195253 
L 156.645518 -242.8682 
L 156.807677 -244.541147 
L 156.944547 -246.214094 
L 157.066006 -247.88704 
L 157.178936 -249.559987 
L 157.287369 -251.232934 
L 157.392916 -252.905881 
L 157.495366 -254.578827 
L 157.593369 -256.251774 
L 157.685069 -257.924721 
L 157.768637 -259.597668 
L 157.842644 -261.270614 
L 157.906269 -262.943561 
L 157.959352 -264.616508 
L 158.002334 -266.289455 
L 158.242547 -266.289455 
L 158.242547 -266.289455 
L 158.285529 -264.616508 
L 158.338612 -262.943561 
L 158.402236 -261.270614 
L 158.476243 -259.597668 
L 158.559811 -257.924721 
L 158.651511 -256.251774 
L 158.749514 -254.578827 
L 158.851965 -252.905881 
L 158.957511 -251.232934 
L 159.065945 -249.559987 
L 159.178874 -247.88704 
L 159.300333 -246.214094 
L 159.437204 -244.541147 
L 159.599362 -242.8682 
L 159.799454 -241.195253 
L 160.052267 -239.522307 
L 160.373713 -237.84936 
L 160.779476 -236.176413 
L 161.283443 -234.503466 
L 161.89607 -232.83052 
L 162.622838 -231.157573 
L 163.463001 -229.484626 
L 164.408771 -227.811679 
L 165.445086 -226.138733 
L 166.550057 -224.465786 
L 167.696127 -222.792839 
L 168.851907 -221.119893 
L 169.98461 -219.446946 
L 171.06288 -217.773999 
L 172.059807 -216.101052 
L 172.955829 -214.428106 
L 173.741196 -212.755159 
L 174.417694 -211.082212 
L 174.99931 -209.409265 
L 175.511637 -207.736319 
L 175.989887 -206.063372 
L 176.475546 -204.390425 
L 177.011862 -202.717478 
L 177.63857 -201.044532 
L 178.386367 -199.371585 
L 179.271831 -197.698638 
L 180.293487 -196.025691 
L 181.429652 -194.352745 
L 182.638562 -192.679798 
L 183.86098 -191.006851 
L 185.025157 -189.333904 
L 186.053684 -187.660958 
L 186.871422 -185.988011 
L 187.413524 -184.315064 
L 187.632488 -182.642117 
L 187.503271 -180.969171 
L 187.025796 -179.296224 
L 186.22453 -177.623277 
L 185.145272 -175.950331 
L 183.849676 -174.277384 
L 182.408346 -172.604437 
L 180.8935 -170.93149 
L 179.372172 -169.258544 
L 177.900762 -167.585597 
L 176.521477 -165.91265 
L 175.260845 -164.239703 
L 174.130204 -162.566757 
L 173.127789 -160.89381 
L 172.241896 -159.220863 
L 171.454535 -157.547916 
L 170.745031 -155.87497 
L 170.093131 -154.202023 
L 169.481324 -152.529076 
L 168.896243 -150.856129 
L 168.329161 -149.183183 
L 167.775723 -147.510236 
L 167.235116 -145.837289 
L 166.708943 -144.164342 
L 166.200016 -142.491396 
L 165.71129 -140.818449 
L 165.245046 -139.145502 
L 164.802385 -137.472555 
L 164.383029 -135.799609 
L 163.985366 -134.126662 
L 163.60668 -132.453715 
L 163.243492 -130.780768 
L 162.891954 -129.107822 
L 162.548273 -127.434875 
L 162.209125 -125.761928 
L 161.872035 -124.088982 
L 161.535697 -122.416035 
L 161.200192 -120.743088 
L 160.867061 -119.070141 
L 160.539198 -117.397195 
L 160.220583 -115.724248 
L 159.915851 -114.051301 
L 159.629776 -112.378354 
L 159.366738 -110.705408 
L 159.130245 -109.032461 
L 158.9226 -107.359514 
L 158.74472 -105.686567 
L 158.596149 -104.013621 
L 158.475222 -102.340674 
L 158.379337 -100.667727 
z
" style="stroke: #525252; stroke-width: 1.2"/>
    </defs>
    <g clip-path="url(#pd560318d53)">
     <use xlink:href="#m7ed1d949ee" x="0" y="288" style="fill: #888888; stroke: #525252; stroke-width: 1.2"/>
    </g>
   </g>
   <g id="FillBetweenPolyCollection_3">
    <defs>
     <path id="me1e6bdf6b6" d="M 232.06076 -89.93696 
L 231.73436 -89.93696 
L 231.67937 -91.577611 
L 231.611929 -93.218262 
L 231.531305 -94.858913 
L 231.43733 -96.499565 
L 231.330482 -98.140216 
L 231.211866 -99.780867 
L 231.083072 -101.421518 
L 230.945912 -103.06217 
L 230.802016 -104.702821 
L 230.652348 -106.343472 
L 230.496666 -107.984123 
L 230.333013 -109.624774 
L 230.157294 -111.265426 
L 229.963021 -112.906077 
L 229.741252 -114.546728 
L 229.480746 -116.187379 
L 229.168334 -117.828031 
L 228.789451 -119.468682 
L 228.328808 -121.109333 
L 227.771146 -122.749984 
L 227.10204 -124.390635 
L 226.308762 -126.031287 
L 225.381176 -127.671938 
L 224.312694 -129.312589 
L 223.101265 -130.95324 
L 221.75036 -132.593891 
L 220.269861 -134.234543 
L 218.676724 -135.875194 
L 216.995265 -137.515845 
L 215.256913 -139.156496 
L 213.499309 -140.797148 
L 211.76471 -142.437799 
L 210.097745 -144.07845 
L 208.542681 -145.719101 
L 207.140431 -147.359752 
L 205.925611 -149.000404 
L 204.923961 -150.641055 
L 204.150411 -152.281706 
L 203.608006 -153.922357 
L 203.28779 -155.563008 
L 203.169643 -157.20366 
L 203.223969 -158.844311 
L 203.414036 -160.484962 
L 203.698738 -162.125613 
L 204.035502 -163.766265 
L 204.383126 -165.406916 
L 204.704324 -167.047567 
L 204.967817 -168.688218 
L 205.149892 -170.328869 
L 205.235338 -171.969521 
L 205.217783 -173.610172 
L 205.099431 -175.250823 
L 204.890257 -176.891474 
L 204.606737 -178.532125 
L 204.270212 -180.172777 
L 203.905006 -181.813428 
L 203.536451 -183.454079 
L 203.188985 -185.09473 
L 202.884501 -186.735382 
L 202.641106 -188.376033 
L 202.472426 -190.016684 
L 202.387512 -191.657335 
L 202.391342 -193.297986 
L 202.485827 -194.938638 
L 202.671138 -196.579289 
L 202.94713 -198.21994 
L 203.314608 -199.860591 
L 203.77622 -201.501242 
L 204.336783 -203.141894 
L 205.002983 -204.782545 
L 205.782445 -206.423196 
L 206.682325 -208.063847 
L 207.707606 -209.704499 
L 208.859385 -211.34515 
L 210.133417 -212.985801 
L 211.519178 -214.626452 
L 212.999604 -216.267103 
L 214.551597 -217.907755 
L 216.147259 -219.548406 
L 217.755687 -221.189057 
L 219.34512 -222.829708 
L 220.885146 -224.470359 
L 222.348694 -226.111011 
L 223.713602 -227.751662 
L 224.963591 -229.392313 
L 226.088612 -231.032964 
L 227.084604 -232.673616 
L 227.952786 -234.314267 
L 228.698632 -235.954918 
L 229.330724 -237.595569 
L 229.859617 -239.23622 
L 230.296839 -240.876872 
L 230.654089 -242.517523 
L 230.942665 -244.158174 
L 231.173082 -245.798825 
L 231.354873 -247.439476 
L 231.496508 -249.080128 
L 231.605389 -250.720779 
L 231.687904 -252.36143 
L 232.107216 -252.36143 
L 232.107216 -252.36143 
L 232.18973 -250.720779 
L 232.298612 -249.080128 
L 232.440246 -247.439476 
L 232.622038 -245.798825 
L 232.852455 -244.158174 
L 233.14103 -242.517523 
L 233.498281 -240.876872 
L 233.935502 -239.23622 
L 234.464396 -237.595569 
L 235.096488 -235.954918 
L 235.842334 -234.314267 
L 236.710516 -232.673616 
L 237.706508 -231.032964 
L 238.831529 -229.392313 
L 240.081517 -227.751662 
L 241.446425 -226.111011 
L 242.909974 -224.470359 
L 244.449999 -222.829708 
L 246.039433 -221.189057 
L 247.647861 -219.548406 
L 249.243522 -217.907755 
L 250.795516 -216.267103 
L 252.275941 -214.626452 
L 253.661702 -212.985801 
L 254.935735 -211.34515 
L 256.087514 -209.704499 
L 257.112795 -208.063847 
L 258.012675 -206.423196 
L 258.792137 -204.782545 
L 259.458336 -203.141894 
L 260.0189 -201.501242 
L 260.480512 -199.860591 
L 260.84799 -198.21994 
L 261.123982 -196.579289 
L 261.309293 -194.938638 
L 261.403778 -193.297986 
L 261.407608 -191.657335 
L 261.322693 -190.016684 
L 261.154014 -188.376033 
L 260.910619 -186.735382 
L 260.606135 -185.09473 
L 260.258668 -183.454079 
L 259.890113 -181.813428 
L 259.524907 -180.172777 
L 259.188383 -178.532125 
L 258.904863 -176.891474 
L 258.695688 -175.250823 
L 258.577336 -173.610172 
L 258.559782 -171.969521 
L 258.645228 -170.328869 
L 258.827302 -168.688218 
L 259.090796 -167.047567 
L 259.411993 -165.406916 
L 259.759618 -163.766265 
L 260.096382 -162.125613 
L 260.381083 -160.484962 
L 260.571151 -158.844311 
L 260.625477 -157.20366 
L 260.507329 -155.563008 
L 260.187113 -153.922357 
L 259.644709 -152.281706 
L 258.871159 -150.641055 
L 257.869508 -149.000404 
L 256.654688 -147.359752 
L 255.252439 -145.719101 
L 253.697375 -144.07845 
L 252.03041 -142.437799 
L 250.29581 -140.797148 
L 248.538206 -139.156496 
L 246.799855 -137.515845 
L 245.118396 -135.875194 
L 243.525259 -134.234543 
L 242.044759 -132.593891 
L 240.693855 -130.95324 
L 239.482426 -129.312589 
L 238.413944 -127.671938 
L 237.486358 -126.031287 
L 236.693079 -124.390635 
L 236.023974 -122.749984 
L 235.466311 -121.109333 
L 235.005669 -119.468682 
L 234.626786 -117.828031 
L 234.314373 -116.187379 
L 234.053868 -114.546728 
L 233.832098 -112.906077 
L 233.637826 -111.265426 
L 233.462107 -109.624774 
L 233.298453 -107.984123 
L 233.142772 -106.343472 
L 232.993104 -104.702821 
L 232.849208 -103.06217 
L 232.712047 -101.421518 
L 232.583254 -99.780867 
L 232.464637 -98.140216 
L 232.35779 -96.499565 
L 232.263815 -94.858913 
L 232.18319 -93.218262 
L 232.11575 -91.577611 
L 232.06076 -89.93696 
z
" style="stroke: #525252; stroke-width: 1.2"/>
    </defs>
    <g clip-path="url(#pd560318d53)">
     <use xlink:href="#me1e6bdf6b6" x="0" y="288" style="fill: #aaaaaa; stroke: #525252; stroke-width: 1.2"/>
    </g>
   </g>
   <g id="FillBetweenPolyCollection_4">
    <defs>
     <path id="m0632a971b1" d="M 305.849344 -48.078545 
L 305.496015 -48.078545 
L 305.430568 -49.917217 
L 305.347161 -51.755888 
L 305.243113 -53.594559 
L 305.116012 -55.43323 
L 304.963909 -57.271901 
L 304.785493 -59.110572 
L 304.580244 -60.949243 
L 304.348529 -62.787914 
L 304.091636 -64.626586 
L 303.811734 -66.465257 
L 303.511767 -68.303928 
L 303.195266 -70.142599 
L 302.866114 -71.98127 
L 302.528237 -73.819941 
L 302.185264 -75.658612 
L 301.840124 -77.497283 
L 301.494627 -79.335954 
L 301.149021 -81.174626 
L 300.801567 -83.013297 
L 300.448168 -84.851968 
L 300.082111 -86.690639 
L 299.693978 -88.52931 
L 299.27178 -90.367981 
L 298.801368 -92.206652 
L 298.267142 -94.045323 
L 297.653055 -95.883994 
L 296.943874 -97.722666 
L 296.126613 -99.561337 
L 295.192043 -101.400008 
L 294.136129 -103.238679 
L 292.961249 -105.07735 
L 291.677024 -106.916021 
L 290.300643 -108.754692 
L 288.856554 -110.593363 
L 287.375482 -112.432035 
L 285.892788 -114.270706 
L 284.446261 -116.109377 
L 283.073505 -117.948048 
L 281.80916 -119.786719 
L 280.682217 -121.62539 
L 279.713706 -123.464061 
L 278.915015 -125.302732 
L 278.287031 -127.141403 
L 277.820234 -128.980075 
L 277.495755 -130.818746 
L 277.287328 -132.657417 
L 277.163971 -134.496088 
L 277.093133 -136.334759 
L 277.044012 -138.17343 
L 276.990706 -140.012101 
L 276.914864 -141.850772 
L 276.807559 -143.689443 
L 276.670146 -145.528115 
L 276.514019 -147.366786 
L 276.35924 -149.205457 
L 276.232214 -151.044128 
L 276.162632 -152.882799 
L 276.180048 -154.72147 
L 276.310495 -156.560141 
L 276.573514 -158.398812 
L 276.979987 -160.237484 
L 277.530993 -162.076155 
L 278.217831 -163.914826 
L 279.023176 -165.753497 
L 279.923212 -167.592168 
L 280.89044 -169.430839 
L 281.896811 -171.26951 
L 282.916756 -173.108181 
L 283.929757 -174.946852 
L 284.92212 -176.785524 
L 285.887756 -178.624195 
L 286.827914 -180.462866 
L 287.749928 -182.301537 
L 288.665209 -184.140208 
L 289.586796 -185.978879 
L 290.526835 -187.81755 
L 291.494344 -189.656221 
L 292.49358 -191.494893 
L 293.523181 -193.333564 
L 294.57616 -195.172235 
L 295.640669 -197.010906 
L 296.701352 -198.849577 
L 297.741035 -200.688248 
L 298.742474 -202.526919 
L 299.689928 -204.36559 
L 300.570364 -206.204261 
L 301.374216 -208.042933 
L 302.095665 -209.881604 
L 302.732526 -211.720275 
L 303.285818 -213.558946 
L 303.759161 -215.397617 
L 304.158095 -217.236288 
L 304.489421 -219.074959 
L 304.76062 -220.91363 
L 304.979378 -222.752301 
L 305.15323 -224.590973 
L 305.289295 -226.429644 
L 305.394113 -228.268315 
L 305.473542 -230.106986 
L 305.871817 -230.106986 
L 305.871817 -230.106986 
L 305.951246 -228.268315 
L 306.056064 -226.429644 
L 306.192129 -224.590973 
L 306.365981 -222.752301 
L 306.584739 -220.91363 
L 306.855938 -219.074959 
L 307.187264 -217.236288 
L 307.586198 -215.397617 
L 308.059541 -213.558946 
L 308.612833 -211.720275 
L 309.249694 -209.881604 
L 309.971143 -208.042933 
L 310.774995 -206.204261 
L 311.655431 -204.36559 
L 312.602885 -202.526919 
L 313.604324 -200.688248 
L 314.644007 -198.849577 
L 315.70469 -197.010906 
L 316.769199 -195.172235 
L 317.822178 -193.333564 
L 318.851779 -191.494893 
L 319.851015 -189.656221 
L 320.818524 -187.81755 
L 321.758562 -185.978879 
L 322.68015 -184.140208 
L 323.59543 -182.301537 
L 324.517444 -180.462866 
L 325.457603 -178.624195 
L 326.423239 -176.785524 
L 327.415601 -174.946852 
L 328.428603 -173.108181 
L 329.448548 -171.26951 
L 330.454918 -169.430839 
L 331.422147 -167.592168 
L 332.322183 -165.753497 
L 333.127528 -163.914826 
L 333.814365 -162.076155 
L 334.365372 -160.237484 
L 334.771845 -158.398812 
L 335.034864 -156.560141 
L 335.16531 -154.72147 
L 335.182727 -152.882799 
L 335.113145 -151.044128 
L 334.986119 -149.205457 
L 334.83134 -147.366786 
L 334.675213 -145.528115 
L 334.5378 -143.689443 
L 334.430495 -141.850772 
L 334.354653 -140.012101 
L 334.301347 -138.17343 
L 334.252226 -136.334759 
L 334.181388 -134.496088 
L 334.058031 -132.657417 
L 333.849604 -130.818746 
L 333.525125 -128.980075 
L 333.058328 -127.141403 
L 332.430344 -125.302732 
L 331.631652 -123.464061 
L 330.663142 -121.62539 
L 329.536199 -119.786719 
L 328.271854 -117.948048 
L 326.899098 -116.109377 
L 325.452571 -114.270706 
L 323.969877 -112.432035 
L 322.488805 -110.593363 
L 321.044716 -108.754692 
L 319.668335 -106.916021 
L 318.38411 -105.07735 
L 317.209229 -103.238679 
L 316.153316 -101.400008 
L 315.218746 -99.561337 
L 314.401485 -97.722666 
L 313.692303 -95.883994 
L 313.078217 -94.045323 
L 312.543991 -92.206652 
L 312.073579 -90.367981 
L 311.651381 -88.52931 
L 311.263248 -86.690639 
L 310.897191 -84.851968 
L 310.543792 -83.013297 
L 310.196338 -81.174626 
L 309.850732 -79.335954 
L 309.505235 -77.497283 
L 309.160095 -75.658612 
L 308.817122 -73.819941 
L 308.479245 -71.98127 
L 308.150092 -70.142599 
L 307.833592 -68.303928 
L 307.533624 -66.465257 
L 307.253723 -64.626586 
L 306.99683 -62.787914 
L 306.765115 -60.949243 
L 306.559865 -59.110572 
L 306.38145 -57.271901 
L 306.229346 -55.43323 
L 306.102246 -53.594559 
L 305.998198 -51.755888 
L 305.91479 -49.917217 
L 305.849344 -48.078545 
z
" style="stroke: #525252; stroke-width: 1.2"/>
    </defs>
    <g clip-path="url(#pd560318d53)">
     <use xlink:href="#m0632a971b1" x="0" y="288" style="fill: #cccccc; stroke: #525252; stroke-width: 1.2"/>
    </g>
   </g>
   <g id="matplotlib.axis_1">
    <g id="xtick_1">
     <g id="line2d_1">
      <defs>
       <path id="m3608da9b2a" d="M 0 0 
L 0 3.5 
" style="stroke: #000000; stroke-width: 0.8"/>
      </defs>
      <g>
       <use xlink:href="#m3608da9b2a" x="84.347321" y="250.832" style="stroke: #000000; stroke-width: 0.8"/>
      </g>
     </g>
     <g id="text_1">
      <!-- Mean values -->
      <g transform="translate(58.937946 264.77575) scale(0.1 -0.1)">
       <defs>
        <path id="TimesNewRomanPSMT-4d" d="M 2619 0 
L 981 3566 
L 981 734 
Q 981 344 1066 247 
Q 1181 116 1431 116 
L 1581 116 
L 1581 0 
L 106 0 
L 106 116 
L 256 116 
Q 525 116 638 278 
Q 706 378 706 734 
L 706 3503 
Q 706 3784 644 3909 
Q 600 4000 483 4061 
Q 366 4122 106 4122 
L 106 4238 
L 1306 4238 
L 2844 922 
L 4356 4238 
L 5556 4238 
L 5556 4122 
L 5409 4122 
Q 5138 4122 5025 3959 
Q 4956 3859 4956 3503 
L 4956 734 
Q 4956 344 5044 247 
Q 5159 116 5409 116 
L 5556 116 
L 5556 0 
L 3756 0 
L 3756 116 
L 3906 116 
Q 4178 116 4288 278 
Q 4356 378 4356 734 
L 4356 3566 
L 2722 0 
L 2619 0 
z
" transform="scale(0.015625)"/>
        <path id="TimesNewRomanPSMT-65" d="M 681 1784 
Q 678 1147 991 784 
Q 1303 422 1725 422 
Q 2006 422 2214 576 
Q 2422 731 2563 1106 
L 2659 1044 
Q 2594 616 2278 264 
Q 1963 -88 1488 -88 
Q 972 -88 605 314 
Q 238 716 238 1394 
Q 238 2128 614 2539 
Q 991 2950 1559 2950 
Q 2041 2950 2350 2633 
Q 2659 2316 2659 1784 
L 681 1784 
z
M 681 1966 
L 2006 1966 
Q 1991 2241 1941 2353 
Q 1863 2528 1708 2628 
Q 1553 2728 1384 2728 
Q 1125 2728 920 2526 
Q 716 2325 681 1966 
z
" transform="scale(0.015625)"/>
        <path id="TimesNewRomanPSMT-61" d="M 1822 413 
Q 1381 72 1269 19 
Q 1100 -59 909 -59 
Q 613 -59 420 144 
Q 228 347 228 678 
Q 228 888 322 1041 
Q 450 1253 767 1440 
Q 1084 1628 1822 1897 
L 1822 2009 
Q 1822 2438 1686 2597 
Q 1550 2756 1291 2756 
Q 1094 2756 978 2650 
Q 859 2544 859 2406 
L 866 2225 
Q 866 2081 792 2003 
Q 719 1925 600 1925 
Q 484 1925 411 2006 
Q 338 2088 338 2228 
Q 338 2497 613 2722 
Q 888 2947 1384 2947 
Q 1766 2947 2009 2819 
Q 2194 2722 2281 2516 
Q 2338 2381 2338 1966 
L 2338 994 
Q 2338 584 2353 492 
Q 2369 400 2405 369 
Q 2441 338 2488 338 
Q 2538 338 2575 359 
Q 2641 400 2828 588 
L 2828 413 
Q 2478 -56 2159 -56 
Q 2006 -56 1915 50 
Q 1825 156 1822 413 
z
M 1822 616 
L 1822 1706 
Q 1350 1519 1213 1441 
Q 966 1303 859 1153 
Q 753 1003 753 825 
Q 753 600 887 451 
Q 1022 303 1197 303 
Q 1434 303 1822 616 
z
" transform="scale(0.015625)"/>
        <path id="TimesNewRomanPSMT-6e" d="M 1034 2341 
Q 1538 2947 1994 2947 
Q 2228 2947 2397 2830 
Q 2566 2713 2666 2444 
Q 2734 2256 2734 1869 
L 2734 647 
Q 2734 375 2778 278 
Q 2813 200 2889 156 
Q 2966 113 3172 113 
L 3172 0 
L 1756 0 
L 1756 113 
L 1816 113 
Q 2016 113 2095 173 
Q 2175 234 2206 353 
Q 2219 400 2219 647 
L 2219 1819 
Q 2219 2209 2117 2386 
Q 2016 2563 1775 2563 
Q 1403 2563 1034 2156 
L 1034 647 
Q 1034 356 1069 288 
Q 1113 197 1189 155 
Q 1266 113 1500 113 
L 1500 0 
L 84 0 
L 84 113 
L 147 113 
Q 366 113 442 223 
Q 519 334 519 647 
L 519 1709 
Q 519 2225 495 2337 
Q 472 2450 423 2490 
Q 375 2531 294 2531 
Q 206 2531 84 2484 
L 38 2597 
L 900 2947 
L 1034 2947 
L 1034 2341 
z
" transform="scale(0.015625)"/>
        <path id="TimesNewRomanPSMT-20" transform="scale(0.015625)"/>
        <path id="TimesNewRomanPSMT-76" d="M 53 2863 
L 1400 2863 
L 1400 2747 
L 1313 2747 
Q 1191 2747 1127 2687 
Q 1063 2628 1063 2528 
Q 1063 2419 1128 2269 
L 1794 688 
L 2463 2328 
Q 2534 2503 2534 2594 
Q 2534 2638 2509 2666 
Q 2475 2713 2422 2730 
Q 2369 2747 2206 2747 
L 2206 2863 
L 3141 2863 
L 3141 2747 
Q 2978 2734 2916 2681 
Q 2806 2588 2719 2369 
L 1703 -88 
L 1575 -88 
L 553 2328 
Q 484 2497 421 2570 
Q 359 2644 263 2694 
Q 209 2722 53 2747 
L 53 2863 
z
" transform="scale(0.015625)"/>
        <path id="TimesNewRomanPSMT-6c" d="M 1184 4444 
L 1184 647 
Q 1184 378 1223 290 
Q 1263 203 1344 158 
Q 1425 113 1647 113 
L 1647 0 
L 244 0 
L 244 113 
Q 441 113 512 153 
Q 584 194 625 287 
Q 666 381 666 647 
L 666 3247 
Q 666 3731 644 3842 
Q 622 3953 573 3993 
Q 525 4034 450 4034 
Q 369 4034 244 3984 
L 191 4094 
L 1044 4444 
L 1184 4444 
z
" transform="scale(0.015625)"/>
        <path id="TimesNewRomanPSMT-75" d="M 2709 2863 
L 2709 1128 
Q 2709 631 2732 520 
Q 2756 409 2807 365 
Q 2859 322 2928 322 
Q 3025 322 3147 375 
L 3191 266 
L 2334 -88 
L 2194 -88 
L 2194 519 
Q 1825 119 1631 15 
Q 1438 -88 1222 -88 
Q 981 -88 804 51 
Q 628 191 559 409 
Q 491 628 491 1028 
L 491 2306 
Q 491 2509 447 2587 
Q 403 2666 317 2708 
Q 231 2750 6 2747 
L 6 2863 
L 1009 2863 
L 1009 947 
Q 1009 547 1148 422 
Q 1288 297 1484 297 
Q 1619 297 1789 381 
Q 1959 466 2194 703 
L 2194 2325 
Q 2194 2569 2105 2655 
Q 2016 2741 1734 2747 
L 1734 2863 
L 2709 2863 
z
" transform="scale(0.015625)"/>
        <path id="TimesNewRomanPSMT-73" d="M 2050 2947 
L 2050 1972 
L 1947 1972 
Q 1828 2431 1642 2597 
Q 1456 2763 1169 2763 
Q 950 2763 815 2647 
Q 681 2531 681 2391 
Q 681 2216 781 2091 
Q 878 1963 1175 1819 
L 1631 1597 
Q 2266 1288 2266 781 
Q 2266 391 1970 151 
Q 1675 -88 1309 -88 
Q 1047 -88 709 6 
Q 606 38 541 38 
Q 469 38 428 -44 
L 325 -44 
L 325 978 
L 428 978 
Q 516 541 762 319 
Q 1009 97 1316 97 
Q 1531 97 1667 223 
Q 1803 350 1803 528 
Q 1803 744 1651 891 
Q 1500 1038 1047 1263 
Q 594 1488 453 1669 
Q 313 1847 313 2119 
Q 313 2472 555 2709 
Q 797 2947 1181 2947 
Q 1350 2947 1591 2875 
Q 1750 2828 1803 2828 
Q 1853 2828 1881 2850 
Q 1909 2872 1947 2947 
L 2050 2947 
z
" transform="scale(0.015625)"/>
       </defs>
       <use xlink:href="#TimesNewRomanPSMT-4d"/>
       <use xlink:href="#TimesNewRomanPSMT-65" transform="translate(88.916016 0)"/>
       <use xlink:href="#TimesNewRomanPSMT-61" transform="translate(133.300781 0)"/>
       <use xlink:href="#TimesNewRomanPSMT-6e" transform="translate(177.685547 0)"/>
       <use xlink:href="#TimesNewRomanPSMT-20" transform="translate(227.685547 0)"/>
       <use xlink:href="#TimesNewRomanPSMT-76" transform="translate(252.685547 0)"/>
       <use xlink:href="#TimesNewRomanPSMT-61" transform="translate(302.685547 0)"/>
       <use xlink:href="#TimesNewRomanPSMT-6c" transform="translate(347.070312 0)"/>
       <use xlink:href="#TimesNewRomanPSMT-75" transform="translate(374.853516 0)"/>
       <use xlink:href="#TimesNewRomanPSMT-65" transform="translate(424.853516 0)"/>
       <use xlink:href="#TimesNewRomanPSMT-73" transform="translate(469.238281 0)"/>
      </g>
     </g>
    </g>
    <g id="xtick_2">
     <g id="line2d_2">
      <g>
       <use xlink:href="#m3608da9b2a" x="158.12244" y="250.832" style="stroke: #000000; stroke-width: 0.8"/>
      </g>
     </g>
     <g id="text_2">
      <!-- Lognormal -->
      <g transform="translate(135.906034 264.77575) scale(0.1 -0.1)">
       <defs>
        <path id="TimesNewRomanPSMT-4c" d="M 3669 1172 
L 3772 1150 
L 3409 0 
L 128 0 
L 128 116 
L 288 116 
Q 556 116 672 291 
Q 738 391 738 753 
L 738 3488 
Q 738 3884 650 3984 
Q 528 4122 288 4122 
L 128 4122 
L 128 4238 
L 2047 4238 
L 2047 4122 
Q 1709 4125 1573 4059 
Q 1438 3994 1388 3894 
Q 1338 3794 1338 3416 
L 1338 753 
Q 1338 494 1388 397 
Q 1425 331 1503 300 
Q 1581 269 1991 269 
L 2300 269 
Q 2788 269 2984 341 
Q 3181 413 3343 595 
Q 3506 778 3669 1172 
z
" transform="scale(0.015625)"/>
        <path id="TimesNewRomanPSMT-6f" d="M 1600 2947 
Q 2250 2947 2644 2453 
Q 2978 2031 2978 1484 
Q 2978 1100 2793 706 
Q 2609 313 2286 112 
Q 1963 -88 1566 -88 
Q 919 -88 538 428 
Q 216 863 216 1403 
Q 216 1797 411 2186 
Q 606 2575 925 2761 
Q 1244 2947 1600 2947 
z
M 1503 2744 
Q 1338 2744 1170 2645 
Q 1003 2547 900 2300 
Q 797 2053 797 1666 
Q 797 1041 1045 587 
Q 1294 134 1700 134 
Q 2003 134 2200 384 
Q 2397 634 2397 1244 
Q 2397 2006 2069 2444 
Q 1847 2744 1503 2744 
z
" transform="scale(0.015625)"/>
        <path id="TimesNewRomanPSMT-67" d="M 966 1044 
Q 703 1172 562 1401 
Q 422 1631 422 1909 
Q 422 2334 742 2640 
Q 1063 2947 1563 2947 
Q 1972 2947 2272 2747 
L 2878 2747 
Q 3013 2747 3034 2739 
Q 3056 2731 3066 2713 
Q 3084 2684 3084 2613 
Q 3084 2531 3069 2500 
Q 3059 2484 3036 2475 
Q 3013 2466 2878 2466 
L 2506 2466 
Q 2681 2241 2681 1891 
Q 2681 1491 2375 1206 
Q 2069 922 1553 922 
Q 1341 922 1119 984 
Q 981 866 932 777 
Q 884 688 884 625 
Q 884 572 936 522 
Q 988 472 1138 450 
Q 1225 438 1575 428 
Q 2219 413 2409 384 
Q 2700 344 2873 169 
Q 3047 -6 3047 -263 
Q 3047 -616 2716 -925 
Q 2228 -1381 1444 -1381 
Q 841 -1381 425 -1109 
Q 191 -953 191 -784 
Q 191 -709 225 -634 
Q 278 -519 444 -313 
Q 466 -284 763 25 
Q 600 122 533 198 
Q 466 275 466 372 
Q 466 481 555 628 
Q 644 775 966 1044 
z
M 1509 2797 
Q 1278 2797 1122 2612 
Q 966 2428 966 2047 
Q 966 1553 1178 1281 
Q 1341 1075 1591 1075 
Q 1828 1075 1981 1253 
Q 2134 1431 2134 1813 
Q 2134 2309 1919 2591 
Q 1759 2797 1509 2797 
z
M 934 0 
Q 788 -159 713 -296 
Q 638 -434 638 -550 
Q 638 -700 819 -813 
Q 1131 -1006 1722 -1006 
Q 2284 -1006 2551 -807 
Q 2819 -609 2819 -384 
Q 2819 -222 2659 -153 
Q 2497 -84 2016 -72 
Q 1313 -53 934 0 
z
" transform="scale(0.015625)"/>
        <path id="TimesNewRomanPSMT-72" d="M 1038 2947 
L 1038 2303 
Q 1397 2947 1775 2947 
Q 1947 2947 2059 2842 
Q 2172 2738 2172 2600 
Q 2172 2478 2090 2393 
Q 2009 2309 1897 2309 
Q 1788 2309 1652 2417 
Q 1516 2525 1450 2525 
Q 1394 2525 1328 2463 
Q 1188 2334 1038 2041 
L 1038 669 
Q 1038 431 1097 309 
Q 1138 225 1241 169 
Q 1344 113 1538 113 
L 1538 0 
L 72 0 
L 72 113 
Q 291 113 397 181 
Q 475 231 506 341 
Q 522 394 522 644 
L 522 1753 
Q 522 2253 501 2348 
Q 481 2444 426 2487 
Q 372 2531 291 2531 
Q 194 2531 72 2484 
L 41 2597 
L 906 2947 
L 1038 2947 
z
" transform="scale(0.015625)"/>
        <path id="TimesNewRomanPSMT-6d" d="M 1050 2338 
Q 1363 2650 1419 2697 
Q 1559 2816 1721 2881 
Q 1884 2947 2044 2947 
Q 2313 2947 2506 2790 
Q 2700 2634 2766 2338 
Q 3088 2713 3309 2830 
Q 3531 2947 3766 2947 
Q 3994 2947 4170 2830 
Q 4347 2713 4450 2447 
Q 4519 2266 4519 1878 
L 4519 647 
Q 4519 378 4559 278 
Q 4591 209 4675 161 
Q 4759 113 4950 113 
L 4950 0 
L 3538 0 
L 3538 113 
L 3597 113 
Q 3781 113 3884 184 
Q 3956 234 3988 344 
Q 4000 397 4000 647 
L 4000 1878 
Q 4000 2228 3916 2372 
Q 3794 2572 3525 2572 
Q 3359 2572 3192 2489 
Q 3025 2406 2788 2181 
L 2781 2147 
L 2788 2013 
L 2788 647 
Q 2788 353 2820 281 
Q 2853 209 2943 161 
Q 3034 113 3253 113 
L 3253 0 
L 1806 0 
L 1806 113 
Q 2044 113 2133 169 
Q 2222 225 2256 338 
Q 2272 391 2272 647 
L 2272 1878 
Q 2272 2228 2169 2381 
Q 2031 2581 1784 2581 
Q 1616 2581 1450 2491 
Q 1191 2353 1050 2181 
L 1050 647 
Q 1050 366 1089 281 
Q 1128 197 1204 155 
Q 1281 113 1516 113 
L 1516 0 
L 100 0 
L 100 113 
Q 297 113 375 155 
Q 453 197 493 289 
Q 534 381 534 647 
L 534 1741 
Q 534 2213 506 2350 
Q 484 2453 437 2492 
Q 391 2531 309 2531 
Q 222 2531 100 2484 
L 53 2597 
L 916 2947 
L 1050 2947 
L 1050 2338 
z
" transform="scale(0.015625)"/>
       </defs>
       <use xlink:href="#TimesNewRomanPSMT-4c"/>
       <use xlink:href="#TimesNewRomanPSMT-6f" transform="translate(61.083984 0)"/>
       <use xlink:href="#TimesNewRomanPSMT-67" transform="translate(111.083984 0)"/>
       <use xlink:href="#TimesNewRomanPSMT-6e" transform="translate(161.083984 0)"/>
       <use xlink:href="#TimesNewRomanPSMT-6f" transform="translate(211.083984 0)"/>
       <use xlink:href="#TimesNewRomanPSMT-72" transform="translate(261.083984 0)"/>
       <use xlink:href="#TimesNewRomanPSMT-6d" transform="translate(294.384766 0)"/>
       <use xlink:href="#TimesNewRomanPSMT-61" transform="translate(372.167969 0)"/>
       <use xlink:href="#TimesNewRomanPSMT-6c" transform="translate(416.552734 0)"/>
      </g>
      <!-- distribution -->
      <g transform="translate(135.06619 275.266062) scale(0.1 -0.1)">
       <defs>
        <path id="TimesNewRomanPSMT-64" d="M 2222 322 
Q 2013 103 1813 7 
Q 1613 -88 1381 -88 
Q 913 -88 563 304 
Q 213 697 213 1313 
Q 213 1928 600 2439 
Q 988 2950 1597 2950 
Q 1975 2950 2222 2709 
L 2222 3238 
Q 2222 3728 2198 3840 
Q 2175 3953 2125 3993 
Q 2075 4034 2000 4034 
Q 1919 4034 1784 3984 
L 1744 4094 
L 2597 4444 
L 2738 4444 
L 2738 1134 
Q 2738 631 2761 520 
Q 2784 409 2836 365 
Q 2888 322 2956 322 
Q 3041 322 3181 375 
L 3216 266 
L 2366 -88 
L 2222 -88 
L 2222 322 
z
M 2222 541 
L 2222 2016 
Q 2203 2228 2109 2403 
Q 2016 2578 1861 2667 
Q 1706 2756 1559 2756 
Q 1284 2756 1069 2509 
Q 784 2184 784 1559 
Q 784 928 1059 592 
Q 1334 256 1672 256 
Q 1956 256 2222 541 
z
" transform="scale(0.015625)"/>
        <path id="TimesNewRomanPSMT-69" d="M 928 4444 
Q 1059 4444 1151 4351 
Q 1244 4259 1244 4128 
Q 1244 3997 1151 3903 
Q 1059 3809 928 3809 
Q 797 3809 703 3903 
Q 609 3997 609 4128 
Q 609 4259 701 4351 
Q 794 4444 928 4444 
z
M 1188 2947 
L 1188 647 
Q 1188 378 1227 289 
Q 1266 200 1342 156 
Q 1419 113 1622 113 
L 1622 0 
L 231 0 
L 231 113 
Q 441 113 512 153 
Q 584 194 626 287 
Q 669 381 669 647 
L 669 1750 
Q 669 2216 641 2353 
Q 619 2453 572 2492 
Q 525 2531 444 2531 
Q 356 2531 231 2484 
L 188 2597 
L 1050 2947 
L 1188 2947 
z
" transform="scale(0.015625)"/>
        <path id="TimesNewRomanPSMT-74" d="M 1031 3803 
L 1031 2863 
L 1700 2863 
L 1700 2644 
L 1031 2644 
L 1031 788 
Q 1031 509 1111 412 
Q 1191 316 1316 316 
Q 1419 316 1516 380 
Q 1613 444 1666 569 
L 1788 569 
Q 1678 263 1478 108 
Q 1278 -47 1066 -47 
Q 922 -47 784 33 
Q 647 113 581 261 
Q 516 409 516 719 
L 516 2644 
L 63 2644 
L 63 2747 
Q 234 2816 414 2980 
Q 594 3144 734 3369 
Q 806 3488 934 3803 
L 1031 3803 
z
" transform="scale(0.015625)"/>
        <path id="TimesNewRomanPSMT-62" d="M 984 2369 
Q 1400 2947 1881 2947 
Q 2322 2947 2650 2570 
Q 2978 2194 2978 1541 
Q 2978 778 2472 313 
Q 2038 -88 1503 -88 
Q 1253 -88 995 3 
Q 738 94 469 275 
L 469 3241 
Q 469 3728 445 3840 
Q 422 3953 372 3993 
Q 322 4034 247 4034 
Q 159 4034 28 3984 
L -16 4094 
L 844 4444 
L 984 4444 
L 984 2369 
z
M 984 2169 
L 984 456 
Q 1144 300 1314 220 
Q 1484 141 1663 141 
Q 1947 141 2192 453 
Q 2438 766 2438 1363 
Q 2438 1913 2192 2208 
Q 1947 2503 1634 2503 
Q 1469 2503 1303 2419 
Q 1178 2356 984 2169 
z
" transform="scale(0.015625)"/>
       </defs>
       <use xlink:href="#TimesNewRomanPSMT-64"/>
       <use xlink:href="#TimesNewRomanPSMT-69" transform="translate(50 0)"/>
       <use xlink:href="#TimesNewRomanPSMT-73" transform="translate(77.783203 0)"/>
       <use xlink:href="#TimesNewRomanPSMT-74" transform="translate(116.699219 0)"/>
       <use xlink:href="#TimesNewRomanPSMT-72" transform="translate(144.482422 0)"/>
       <use xlink:href="#TimesNewRomanPSMT-69" transform="translate(177.783203 0)"/>
       <use xlink:href="#TimesNewRomanPSMT-62" transform="translate(205.566406 0)"/>
       <use xlink:href="#TimesNewRomanPSMT-75" transform="translate(255.566406 0)"/>
       <use xlink:href="#TimesNewRomanPSMT-74" transform="translate(305.566406 0)"/>
       <use xlink:href="#TimesNewRomanPSMT-69" transform="translate(333.349609 0)"/>
       <use xlink:href="#TimesNewRomanPSMT-6f" transform="translate(361.132812 0)"/>
       <use xlink:href="#TimesNewRomanPSMT-6e" transform="translate(411.132812 0)"/>
      </g>
     </g>
    </g>
    <g id="xtick_3">
     <g id="line2d_3">
      <g>
       <use xlink:href="#m3608da9b2a" x="231.89756" y="250.832" style="stroke: #000000; stroke-width: 0.8"/>
      </g>
     </g>
     <g id="text_3">
      <!-- Empirical -->
      <g transform="translate(212.183497 264.77575) scale(0.1 -0.1)">
       <defs>
        <path id="TimesNewRomanPSMT-45" d="M 1338 4006 
L 1338 2331 
L 2269 2331 
Q 2631 2331 2753 2441 
Q 2916 2584 2934 2947 
L 3050 2947 
L 3050 1472 
L 2934 1472 
Q 2891 1781 2847 1869 
Q 2791 1978 2662 2040 
Q 2534 2103 2269 2103 
L 1338 2103 
L 1338 706 
Q 1338 425 1363 364 
Q 1388 303 1450 267 
Q 1513 231 1688 231 
L 2406 231 
Q 2766 231 2928 281 
Q 3091 331 3241 478 
Q 3434 672 3638 1063 
L 3763 1063 
L 3397 0 
L 131 0 
L 131 116 
L 281 116 
Q 431 116 566 188 
Q 666 238 702 338 
Q 738 438 738 747 
L 738 3500 
Q 738 3903 656 3997 
Q 544 4122 281 4122 
L 131 4122 
L 131 4238 
L 3397 4238 
L 3444 3309 
L 3322 3309 
Q 3256 3644 3176 3769 
Q 3097 3894 2941 3959 
Q 2816 4006 2500 4006 
L 1338 4006 
z
" transform="scale(0.015625)"/>
        <path id="TimesNewRomanPSMT-70" d="M -6 2578 
L 875 2934 
L 994 2934 
L 994 2266 
Q 1216 2644 1439 2795 
Q 1663 2947 1909 2947 
Q 2341 2947 2628 2609 
Q 2981 2197 2981 1534 
Q 2981 794 2556 309 
Q 2206 -88 1675 -88 
Q 1444 -88 1275 -22 
Q 1150 25 994 166 
L 994 -706 
Q 994 -1000 1030 -1079 
Q 1066 -1159 1155 -1206 
Q 1244 -1253 1478 -1253 
L 1478 -1369 
L -22 -1369 
L -22 -1253 
L 56 -1253 
Q 228 -1256 350 -1188 
Q 409 -1153 442 -1076 
Q 475 -1000 475 -688 
L 475 2019 
Q 475 2297 450 2372 
Q 425 2447 370 2484 
Q 316 2522 222 2522 
Q 147 2522 31 2478 
L -6 2578 
z
M 994 2081 
L 994 1013 
Q 994 666 1022 556 
Q 1066 375 1236 237 
Q 1406 100 1666 100 
Q 1978 100 2172 344 
Q 2425 663 2425 1241 
Q 2425 1897 2138 2250 
Q 1938 2494 1663 2494 
Q 1513 2494 1366 2419 
Q 1253 2363 994 2081 
z
" transform="scale(0.015625)"/>
        <path id="TimesNewRomanPSMT-63" d="M 2631 1088 
Q 2516 522 2178 217 
Q 1841 -88 1431 -88 
Q 944 -88 581 321 
Q 219 731 219 1428 
Q 219 2103 620 2525 
Q 1022 2947 1584 2947 
Q 2006 2947 2278 2723 
Q 2550 2500 2550 2259 
Q 2550 2141 2473 2067 
Q 2397 1994 2259 1994 
Q 2075 1994 1981 2113 
Q 1928 2178 1911 2362 
Q 1894 2547 1784 2644 
Q 1675 2738 1481 2738 
Q 1169 2738 978 2506 
Q 725 2200 725 1697 
Q 725 1184 976 792 
Q 1228 400 1656 400 
Q 1963 400 2206 609 
Q 2378 753 2541 1131 
L 2631 1088 
z
" transform="scale(0.015625)"/>
       </defs>
       <use xlink:href="#TimesNewRomanPSMT-45"/>
       <use xlink:href="#TimesNewRomanPSMT-6d" transform="translate(61.083984 0)"/>
       <use xlink:href="#TimesNewRomanPSMT-70" transform="translate(138.867188 0)"/>
       <use xlink:href="#TimesNewRomanPSMT-69" transform="translate(188.867188 0)"/>
       <use xlink:href="#TimesNewRomanPSMT-72" transform="translate(216.650391 0)"/>
       <use xlink:href="#TimesNewRomanPSMT-69" transform="translate(249.951172 0)"/>
       <use xlink:href="#TimesNewRomanPSMT-63" transform="translate(277.734375 0)"/>
       <use xlink:href="#TimesNewRomanPSMT-61" transform="translate(322.119141 0)"/>
       <use xlink:href="#TimesNewRomanPSMT-6c" transform="translate(366.503906 0)"/>
      </g>
      <!-- distribution -->
      <g transform="translate(208.84131 275.247313) scale(0.1 -0.1)">
       <use xlink:href="#TimesNewRomanPSMT-64"/>
       <use xlink:href="#TimesNewRomanPSMT-69" transform="translate(50 0)"/>
       <use xlink:href="#TimesNewRomanPSMT-73" transform="translate(77.783203 0)"/>
       <use xlink:href="#TimesNewRomanPSMT-74" transform="translate(116.699219 0)"/>
       <use xlink:href="#TimesNewRomanPSMT-72" transform="translate(144.482422 0)"/>
       <use xlink:href="#TimesNewRomanPSMT-69" transform="translate(177.783203 0)"/>
       <use xlink:href="#TimesNewRomanPSMT-62" transform="translate(205.566406 0)"/>
       <use xlink:href="#TimesNewRomanPSMT-75" transform="translate(255.566406 0)"/>
       <use xlink:href="#TimesNewRomanPSMT-74" transform="translate(305.566406 0)"/>
       <use xlink:href="#TimesNewRomanPSMT-69" transform="translate(333.349609 0)"/>
       <use xlink:href="#TimesNewRomanPSMT-6f" transform="translate(361.132812 0)"/>
       <use xlink:href="#TimesNewRomanPSMT-6e" transform="translate(411.132812 0)"/>
      </g>
     </g>
    </g>
    <g id="xtick_4">
     <g id="line2d_4">
      <g>
       <use xlink:href="#m3608da9b2a" x="305.672679" y="250.832" style="stroke: #000000; stroke-width: 0.8"/>
      </g>
     </g>
     <g id="text_4">
      <!-- Bayesian -->
      <g transform="translate(287.343773 264.77575) scale(0.1 -0.1)">
       <defs>
        <path id="TimesNewRomanPSMT-42" d="M 2956 2163 
Q 3397 2069 3616 1863 
Q 3919 1575 3919 1159 
Q 3919 844 3719 555 
Q 3519 266 3170 133 
Q 2822 0 2106 0 
L 106 0 
L 106 116 
L 266 116 
Q 531 116 647 284 
Q 719 394 719 750 
L 719 3488 
Q 719 3881 628 3984 
Q 506 4122 266 4122 
L 106 4122 
L 106 4238 
L 1938 4238 
Q 2450 4238 2759 4163 
Q 3228 4050 3475 3764 
Q 3722 3478 3722 3106 
Q 3722 2788 3528 2536 
Q 3334 2284 2956 2163 
z
M 1319 2331 
Q 1434 2309 1582 2298 
Q 1731 2288 1909 2288 
Q 2366 2288 2595 2386 
Q 2825 2484 2947 2687 
Q 3069 2891 3069 3131 
Q 3069 3503 2766 3765 
Q 2463 4028 1881 4028 
Q 1569 4028 1319 3959 
L 1319 2331 
z
M 1319 306 
Q 1681 222 2034 222 
Q 2600 222 2897 476 
Q 3194 731 3194 1106 
Q 3194 1353 3059 1581 
Q 2925 1809 2622 1940 
Q 2319 2072 1872 2072 
Q 1678 2072 1540 2065 
Q 1403 2059 1319 2044 
L 1319 306 
z
" transform="scale(0.015625)"/>
        <path id="TimesNewRomanPSMT-79" d="M 38 2863 
L 1372 2863 
L 1372 2747 
L 1306 2747 
Q 1166 2747 1095 2686 
Q 1025 2625 1025 2534 
Q 1025 2413 1128 2197 
L 1825 753 
L 2466 2334 
Q 2519 2463 2519 2588 
Q 2519 2644 2497 2672 
Q 2472 2706 2419 2726 
Q 2366 2747 2231 2747 
L 2231 2863 
L 3163 2863 
L 3163 2747 
Q 3047 2734 2984 2696 
Q 2922 2659 2847 2556 
Q 2819 2513 2741 2316 
L 1575 -541 
Q 1406 -956 1132 -1168 
Q 859 -1381 606 -1381 
Q 422 -1381 303 -1275 
Q 184 -1169 184 -1031 
Q 184 -900 270 -820 
Q 356 -741 506 -741 
Q 609 -741 788 -809 
Q 913 -856 944 -856 
Q 1038 -856 1148 -759 
Q 1259 -663 1372 -384 
L 1575 113 
L 547 2272 
Q 500 2369 397 2513 
Q 319 2622 269 2659 
Q 197 2709 38 2747 
L 38 2863 
z
" transform="scale(0.015625)"/>
       </defs>
       <use xlink:href="#TimesNewRomanPSMT-42"/>
       <use xlink:href="#TimesNewRomanPSMT-61" transform="translate(66.699219 0)"/>
       <use xlink:href="#TimesNewRomanPSMT-79" transform="translate(111.083984 0)"/>
       <use xlink:href="#TimesNewRomanPSMT-65" transform="translate(161.083984 0)"/>
       <use xlink:href="#TimesNewRomanPSMT-73" transform="translate(205.46875 0)"/>
       <use xlink:href="#TimesNewRomanPSMT-69" transform="translate(244.384766 0)"/>
       <use xlink:href="#TimesNewRomanPSMT-61" transform="translate(272.167969 0)"/>
       <use xlink:href="#TimesNewRomanPSMT-6e" transform="translate(316.552734 0)"/>
      </g>
      <!-- network -->
      <g transform="translate(289.288304 275.266062) scale(0.1 -0.1)">
       <defs>
        <path id="TimesNewRomanPSMT-77" d="M 41 2863 
L 1241 2863 
L 1241 2747 
Q 1075 2734 1023 2687 
Q 972 2641 972 2553 
Q 972 2456 1025 2319 
L 1638 672 
L 2253 2013 
L 2091 2434 
Q 2016 2622 1894 2694 
Q 1825 2738 1638 2747 
L 1638 2863 
L 3000 2863 
L 3000 2747 
Q 2775 2738 2681 2666 
Q 2619 2616 2619 2506 
Q 2619 2444 2644 2378 
L 3294 734 
L 3897 2319 
Q 3959 2488 3959 2588 
Q 3959 2647 3898 2694 
Q 3838 2741 3659 2747 
L 3659 2863 
L 4563 2863 
L 4563 2747 
Q 4291 2706 4163 2378 
L 3206 -88 
L 3078 -88 
L 2363 1741 
L 1528 -88 
L 1413 -88 
L 494 2319 
Q 403 2547 315 2626 
Q 228 2706 41 2747 
L 41 2863 
z
" transform="scale(0.015625)"/>
        <path id="TimesNewRomanPSMT-6b" d="M 1047 4444 
L 1047 1594 
L 1775 2259 
Q 2006 2472 2044 2528 
Q 2069 2566 2069 2603 
Q 2069 2666 2017 2711 
Q 1966 2756 1847 2763 
L 1847 2863 
L 3091 2863 
L 3091 2763 
Q 2834 2756 2664 2684 
Q 2494 2613 2291 2428 
L 1556 1750 
L 2291 822 
Q 2597 438 2703 334 
Q 2853 188 2966 144 
Q 3044 113 3238 113 
L 3238 0 
L 1847 0 
L 1847 113 
Q 1966 116 2008 148 
Q 2050 181 2050 241 
Q 2050 313 1925 472 
L 1047 1594 
L 1047 644 
Q 1047 366 1086 278 
Q 1125 191 1197 153 
Q 1269 116 1509 113 
L 1509 0 
L 53 0 
L 53 113 
Q 272 113 381 166 
Q 447 200 481 272 
Q 528 375 528 628 
L 528 3234 
Q 528 3731 506 3842 
Q 484 3953 434 3995 
Q 384 4038 303 4038 
Q 238 4038 106 3984 
L 53 4094 
L 903 4444 
L 1047 4444 
z
" transform="scale(0.015625)"/>
       </defs>
       <use xlink:href="#TimesNewRomanPSMT-6e"/>
       <use xlink:href="#TimesNewRomanPSMT-65" transform="translate(50 0)"/>
       <use xlink:href="#TimesNewRomanPSMT-74" transform="translate(94.384766 0)"/>
       <use xlink:href="#TimesNewRomanPSMT-77" transform="translate(122.167969 0)"/>
       <use xlink:href="#TimesNewRomanPSMT-6f" transform="translate(194.384766 0)"/>
       <use xlink:href="#TimesNewRomanPSMT-72" transform="translate(244.384766 0)"/>
       <use xlink:href="#TimesNewRomanPSMT-6b" transform="translate(277.685547 0)"/>
      </g>
     </g>
    </g>
   </g>
   <g id="matplotlib.axis_2">
    <g id="ytick_1">
     <g id="line2d_5">
      <defs>
       <path id="m8f6e775088" d="M 0 0 
L -3.5 0 
" style="stroke: #000000; stroke-width: 0.8"/>
      </defs>
      <g>
       <use xlink:href="#m8f6e775088" x="40.82" y="225.349489" style="stroke: #000000; stroke-width: 0.8"/>
      </g>
     </g>
     <g id="text_5">
      <!-- 0 -->
      <g transform="translate(28.82 228.821364) scale(0.1 -0.1)">
       <defs>
        <path id="TimesNewRomanPSMT-30" d="M 231 2094 
Q 231 2819 450 3342 
Q 669 3866 1031 4122 
Q 1313 4325 1613 4325 
Q 2100 4325 2488 3828 
Q 2972 3213 2972 2159 
Q 2972 1422 2759 906 
Q 2547 391 2217 158 
Q 1888 -75 1581 -75 
Q 975 -75 572 641 
Q 231 1244 231 2094 
z
M 844 2016 
Q 844 1141 1059 588 
Q 1238 122 1591 122 
Q 1759 122 1940 273 
Q 2122 425 2216 781 
Q 2359 1319 2359 2297 
Q 2359 3022 2209 3506 
Q 2097 3866 1919 4016 
Q 1791 4119 1609 4119 
Q 1397 4119 1231 3928 
Q 1006 3669 925 3112 
Q 844 2556 844 2016 
z
" transform="scale(0.015625)"/>
       </defs>
       <use xlink:href="#TimesNewRomanPSMT-30"/>
      </g>
     </g>
    </g>
    <g id="ytick_2">
     <g id="line2d_6">
      <g>
       <use xlink:href="#m8f6e775088" x="40.82" y="176.031905" style="stroke: #000000; stroke-width: 0.8"/>
      </g>
     </g>
     <g id="text_6">
      <!-- 10 -->
      <g transform="translate(23.82 179.50378) scale(0.1 -0.1)">
       <defs>
        <path id="TimesNewRomanPSMT-31" d="M 750 3822 
L 1781 4325 
L 1884 4325 
L 1884 747 
Q 1884 391 1914 303 
Q 1944 216 2037 169 
Q 2131 122 2419 116 
L 2419 0 
L 825 0 
L 825 116 
Q 1125 122 1212 167 
Q 1300 213 1334 289 
Q 1369 366 1369 747 
L 1369 3034 
Q 1369 3497 1338 3628 
Q 1316 3728 1258 3775 
Q 1200 3822 1119 3822 
Q 1003 3822 797 3725 
L 750 3822 
z
" transform="scale(0.015625)"/>
       </defs>
       <use xlink:href="#TimesNewRomanPSMT-31"/>
       <use xlink:href="#TimesNewRomanPSMT-30" transform="translate(50 0)"/>
      </g>
     </g>
    </g>
    <g id="ytick_3">
     <g id="line2d_7">
      <g>
       <use xlink:href="#m8f6e775088" x="40.82" y="126.714322" style="stroke: #000000; stroke-width: 0.8"/>
      </g>
     </g>
     <g id="text_7">
      <!-- 20 -->
      <g transform="translate(23.82 130.186197) scale(0.1 -0.1)">
       <defs>
        <path id="TimesNewRomanPSMT-32" d="M 2934 816 
L 2638 0 
L 138 0 
L 138 116 
Q 1241 1122 1691 1759 
Q 2141 2397 2141 2925 
Q 2141 3328 1894 3587 
Q 1647 3847 1303 3847 
Q 991 3847 742 3664 
Q 494 3481 375 3128 
L 259 3128 
Q 338 3706 661 4015 
Q 984 4325 1469 4325 
Q 1984 4325 2329 3994 
Q 2675 3663 2675 3213 
Q 2675 2891 2525 2569 
Q 2294 2063 1775 1497 
Q 997 647 803 472 
L 1909 472 
Q 2247 472 2383 497 
Q 2519 522 2628 598 
Q 2738 675 2819 816 
L 2934 816 
z
" transform="scale(0.015625)"/>
       </defs>
       <use xlink:href="#TimesNewRomanPSMT-32"/>
       <use xlink:href="#TimesNewRomanPSMT-30" transform="translate(50 0)"/>
      </g>
     </g>
    </g>
    <g id="ytick_4">
     <g id="line2d_8">
      <g>
       <use xlink:href="#m8f6e775088" x="40.82" y="77.396738" style="stroke: #000000; stroke-width: 0.8"/>
      </g>
     </g>
     <g id="text_8">
      <!-- 30 -->
      <g transform="translate(23.82 80.868613) scale(0.1 -0.1)">
       <defs>
        <path id="TimesNewRomanPSMT-33" d="M 325 3431 
Q 506 3859 782 4092 
Q 1059 4325 1472 4325 
Q 1981 4325 2253 3994 
Q 2459 3747 2459 3466 
Q 2459 3003 1878 2509 
Q 2269 2356 2469 2072 
Q 2669 1788 2669 1403 
Q 2669 853 2319 450 
Q 1863 -75 997 -75 
Q 569 -75 414 31 
Q 259 138 259 259 
Q 259 350 332 419 
Q 406 488 509 488 
Q 588 488 669 463 
Q 722 447 909 348 
Q 1097 250 1169 231 
Q 1284 197 1416 197 
Q 1734 197 1970 444 
Q 2206 691 2206 1028 
Q 2206 1275 2097 1509 
Q 2016 1684 1919 1775 
Q 1784 1900 1550 2001 
Q 1316 2103 1072 2103 
L 972 2103 
L 972 2197 
Q 1219 2228 1467 2375 
Q 1716 2522 1828 2728 
Q 1941 2934 1941 3181 
Q 1941 3503 1739 3701 
Q 1538 3900 1238 3900 
Q 753 3900 428 3381 
L 325 3431 
z
" transform="scale(0.015625)"/>
       </defs>
       <use xlink:href="#TimesNewRomanPSMT-33"/>
       <use xlink:href="#TimesNewRomanPSMT-30" transform="translate(50 0)"/>
      </g>
     </g>
    </g>
    <g id="ytick_5">
     <g id="line2d_9">
      <g>
       <use xlink:href="#m8f6e775088" x="40.82" y="28.079155" style="stroke: #000000; stroke-width: 0.8"/>
      </g>
     </g>
     <g id="text_9">
      <!-- 40 -->
      <g transform="translate(23.82 31.55103) scale(0.1 -0.1)">
       <defs>
        <path id="TimesNewRomanPSMT-34" d="M 2978 1563 
L 2978 1119 
L 2409 1119 
L 2409 0 
L 1894 0 
L 1894 1119 
L 100 1119 
L 100 1519 
L 2066 4325 
L 2409 4325 
L 2409 1563 
L 2978 1563 
z
M 1894 1563 
L 1894 3666 
L 406 1563 
L 1894 1563 
z
" transform="scale(0.015625)"/>
       </defs>
       <use xlink:href="#TimesNewRomanPSMT-34"/>
       <use xlink:href="#TimesNewRomanPSMT-30" transform="translate(50 0)"/>
      </g>
     </g>
    </g>
    <g id="text_10">
     <!--  sequence similarity -->
     <g transform="translate(17.662188 173.745688) rotate(-90) scale(0.1 -0.1)">
      <defs>
       <path id="TimesNewRomanPSMT-394" d="M 156 0 
L 2056 4334 
L 2163 4334 
L 3956 0 
L 156 0 
z
M 3209 266 
L 1944 3378 
L 575 266 
L 3209 266 
z
" transform="scale(0.015625)"/>
       <path id="TimesNewRomanPSMT-71" d="M 2734 2947 
L 2734 -734 
Q 2734 -1009 2771 -1087 
Q 2809 -1166 2889 -1209 
Q 2969 -1253 3200 -1253 
L 3200 -1369 
L 1756 -1369 
L 1756 -1253 
L 1816 -1253 
Q 1991 -1253 2081 -1203 
Q 2144 -1169 2181 -1080 
Q 2219 -991 2219 -734 
L 2219 497 
Q 1934 159 1721 35 
Q 1509 -88 1281 -88 
Q 866 -88 539 290 
Q 213 669 213 1303 
Q 213 2031 644 2489 
Q 1075 2947 1684 2947 
Q 1863 2947 2013 2897 
Q 2163 2847 2281 2747 
Q 2463 2834 2628 2947 
L 2734 2947 
z
M 2219 694 
L 2219 2038 
Q 2219 2272 2158 2406 
Q 2097 2541 1940 2634 
Q 1784 2728 1588 2728 
Q 1238 2728 988 2431 
Q 738 2134 738 1531 
Q 738 953 992 653 
Q 1247 353 1606 353 
Q 1791 353 1934 433 
Q 2078 513 2219 694 
z
" transform="scale(0.015625)"/>
      </defs>
      <use xlink:href="#TimesNewRomanPSMT-394"/>
      <use xlink:href="#TimesNewRomanPSMT-20" transform="translate(58.806641 0)"/>
      <use xlink:href="#TimesNewRomanPSMT-73" transform="translate(83.806641 0)"/>
      <use xlink:href="#TimesNewRomanPSMT-65" transform="translate(122.722656 0)"/>
      <use xlink:href="#TimesNewRomanPSMT-71" transform="translate(167.107422 0)"/>
      <use xlink:href="#TimesNewRomanPSMT-75" transform="translate(217.107422 0)"/>
      <use xlink:href="#TimesNewRomanPSMT-65" transform="translate(267.107422 0)"/>
      <use xlink:href="#TimesNewRomanPSMT-6e" transform="translate(311.492188 0)"/>
      <use xlink:href="#TimesNewRomanPSMT-63" transform="translate(361.492188 0)"/>
      <use xlink:href="#TimesNewRomanPSMT-65" transform="translate(405.876953 0)"/>
      <use xlink:href="#TimesNewRomanPSMT-20" transform="translate(450.261719 0)"/>
      <use xlink:href="#TimesNewRomanPSMT-73" transform="translate(475.261719 0)"/>
      <use xlink:href="#TimesNewRomanPSMT-69" transform="translate(514.177734 0)"/>
      <use xlink:href="#TimesNewRomanPSMT-6d" transform="translate(541.960938 0)"/>
      <use xlink:href="#TimesNewRomanPSMT-69" transform="translate(619.744141 0)"/>
      <use xlink:href="#TimesNewRomanPSMT-6c" transform="translate(647.527344 0)"/>
      <use xlink:href="#TimesNewRomanPSMT-61" transform="translate(675.310547 0)"/>
      <use xlink:href="#TimesNewRomanPSMT-72" transform="translate(719.695312 0)"/>
      <use xlink:href="#TimesNewRomanPSMT-69" transform="translate(752.996094 0)"/>
      <use xlink:href="#TimesNewRomanPSMT-74" transform="translate(780.779297 0)"/>
      <use xlink:href="#TimesNewRomanPSMT-79" transform="translate(808.5625 0)"/>
     </g>
    </g>
   </g>
   <g id="line2d_10">
    <path d="M 59.833013 156.304872 
L 108.861628 156.304872 
" clip-path="url(#pd560318d53)" style="fill: none; stroke-dasharray: 1.5,0.9; stroke-dashoffset: 0; stroke: #525252; stroke-width: 1.2"/>
   </g>
   <g id="line2d_11">
    <path d="M 55.088925 136.577838 
L 113.605716 136.577838 
" clip-path="url(#pd560318d53)" style="fill: none; stroke-dasharray: 3,1.2; stroke-dashoffset: 0; stroke: #525252; stroke-width: 1.2"/>
   </g>
   <g id="line2d_12">
    <path d="M 57.706831 116.850805 
L 110.987811 116.850805 
" clip-path="url(#pd560318d53)" style="fill: none; stroke-dasharray: 1.5,0.9; stroke-dashoffset: 0; stroke: #525252; stroke-width: 1.2"/>
   </g>
   <g id="line2d_13">
    <path d="M 137.378639 119.316684 
L 178.866241 119.316684 
" clip-path="url(#pd560318d53)" style="fill: none; stroke-dasharray: 1.5,0.9; stroke-dashoffset: 0; stroke: #525252; stroke-width: 1.2"/>
   </g>
   <g id="line2d_14">
    <path d="M 128.738246 106.987288 
L 187.506634 106.987288 
" clip-path="url(#pd560318d53)" style="fill: none; stroke-dasharray: 3,1.2; stroke-dashoffset: 0; stroke: #525252; stroke-width: 1.2"/>
   </g>
   <g id="line2d_15">
    <path d="M 138.470072 87.260255 
L 177.774808 87.260255 
" clip-path="url(#pd560318d53)" style="fill: none; stroke-dasharray: 1.5,0.9; stroke-dashoffset: 0; stroke: #525252; stroke-width: 1.2"/>
   </g>
   <g id="line2d_16">
    <path d="M 203.230835 131.64608 
L 260.564285 131.64608 
" clip-path="url(#pd560318d53)" style="fill: none; stroke-dasharray: 1.5,0.9; stroke-dashoffset: 0; stroke: #525252; stroke-width: 1.2"/>
   </g>
   <g id="line2d_17">
    <path d="M 204.993594 111.919047 
L 258.801526 111.919047 
" clip-path="url(#pd560318d53)" style="fill: none; stroke-dasharray: 3,1.2; stroke-dashoffset: 0; stroke: #525252; stroke-width: 1.2"/>
   </g>
   <g id="line2d_18">
    <path d="M 203.561966 87.260255 
L 260.233154 87.260255 
" clip-path="url(#pd560318d53)" style="fill: none; stroke-dasharray: 1.5,0.9; stroke-dashoffset: 0; stroke: #525252; stroke-width: 1.2"/>
   </g>
   <g id="line2d_19">
    <path d="M 278.416145 161.23663 
L 332.929213 161.23663 
" clip-path="url(#pd560318d53)" style="fill: none; stroke-dasharray: 1.5,0.9; stroke-dashoffset: 0; stroke: #525252; stroke-width: 1.2"/>
   </g>
   <g id="line2d_20">
    <path d="M 276.588435 141.509597 
L 334.756924 141.509597 
" clip-path="url(#pd560318d53)" style="fill: none; stroke-dasharray: 3,1.2; stroke-dashoffset: 0; stroke: #525252; stroke-width: 1.2"/>
   </g>
   <g id="line2d_21">
    <path d="M 279.250276 121.782563 
L 332.095083 121.782563 
" clip-path="url(#pd560318d53)" style="fill: none; stroke-dasharray: 1.5,0.9; stroke-dashoffset: 0; stroke: #525252; stroke-width: 1.2"/>
   </g>
   <g id="LineCollection_1">
    <path d="M 84.347321 162.522673 
L 84.347321 110.633004 
" clip-path="url(#pd560318d53)" style="fill: none; stroke: #000000; stroke-width: 1.5"/>
    <path d="M 158.12244 130.56933 
L 158.12244 80.380435 
" clip-path="url(#pd560318d53)" style="fill: none; stroke: #000000; stroke-width: 1.5"/>
    <path d="M 231.89756 136.003351 
L 231.89756 83.757823 
" clip-path="url(#pd560318d53)" style="fill: none; stroke: #000000; stroke-width: 1.5"/>
    <path d="M 305.672679 171.272326 
L 305.672679 113.32503 
" clip-path="url(#pd560318d53)" style="fill: none; stroke: #000000; stroke-width: 1.5"/>
   </g>
   <g id="line2d_22">
    <defs>
     <path id="m7086577f1c" d="M 5 0 
L -5 -0 
" style="stroke: #000000"/>
    </defs>
    <g clip-path="url(#pd560318d53)">
     <use xlink:href="#m7086577f1c" x="84.347321" y="162.522673" style="stroke: #000000"/>
     <use xlink:href="#m7086577f1c" x="158.12244" y="130.56933" style="stroke: #000000"/>
     <use xlink:href="#m7086577f1c" x="231.89756" y="136.003351" style="stroke: #000000"/>
     <use xlink:href="#m7086577f1c" x="305.672679" y="171.272326" style="stroke: #000000"/>
    </g>
   </g>
   <g id="line2d_23">
    <g clip-path="url(#pd560318d53)">
     <use xlink:href="#m7086577f1c" x="84.347321" y="110.633004" style="stroke: #000000"/>
     <use xlink:href="#m7086577f1c" x="158.12244" y="80.380435" style="stroke: #000000"/>
     <use xlink:href="#m7086577f1c" x="231.89756" y="83.757823" style="stroke: #000000"/>
     <use xlink:href="#m7086577f1c" x="305.672679" y="113.32503" style="stroke: #000000"/>
    </g>
   </g>
   <g id="line2d_24">
    <defs>
     <path id="mdb53a7247b" d="M 0 3 
C 0.795609 3 1.55874 2.683901 2.12132 2.12132 
C 2.683901 1.55874 3 0.795609 3 0 
C 3 -0.795609 2.683901 -1.55874 2.12132 -2.12132 
C 1.55874 -2.683901 0.795609 -3 0 -3 
C -0.795609 -3 -1.55874 -2.683901 -2.12132 -2.12132 
C -2.683901 -1.55874 -3 -0.795609 -3 0 
C -3 0.795609 -2.683901 1.55874 -2.12132 2.12132 
C -1.55874 2.683901 -0.795609 3 0 3 
z
" style="stroke: #000000"/>
    </defs>
    <g clip-path="url(#pd560318d53)">
     <use xlink:href="#mdb53a7247b" x="84.347321" y="136.577838" style="stroke: #000000"/>
     <use xlink:href="#mdb53a7247b" x="158.12244" y="105.474882" style="stroke: #000000"/>
     <use xlink:href="#mdb53a7247b" x="231.89756" y="109.880587" style="stroke: #000000"/>
     <use xlink:href="#mdb53a7247b" x="305.672679" y="142.298678" style="stroke: #000000"/>
    </g>
   </g>
   <g id="patch_3">
    <path d="M 40.82 250.832 
L 40.82 10.8 
" style="fill: none; stroke: #000000; stroke-width: 0.8; stroke-linejoin: miter; stroke-linecap: square"/>
   </g>
   <g id="patch_4">
    <path d="M 349.2 250.832 
L 349.2 10.8 
" style="fill: none; stroke: #000000; stroke-width: 0.8; stroke-linejoin: miter; stroke-linecap: square"/>
   </g>
   <g id="patch_5">
    <path d="M 40.82 250.832 
L 349.2 250.832 
" style="fill: none; stroke: #000000; stroke-width: 0.8; stroke-linejoin: miter; stroke-linecap: square"/>
   </g>
   <g id="patch_6">
    <path d="M 40.82 10.8 
L 349.2 10.8 
" style="fill: none; stroke: #000000; stroke-width: 0.8; stroke-linejoin: miter; stroke-linecap: square"/>
   </g>
   <g id="text_11">
    <!-- 18.00 -->
    <g transform="translate(74.222321 106.241968) scale(0.09 -0.09)">
     <defs>
      <path id="TimesNewRomanPSMT-38" d="M 1228 2134 
Q 725 2547 579 2797 
Q 434 3047 434 3316 
Q 434 3728 753 4026 
Q 1072 4325 1600 4325 
Q 2113 4325 2425 4047 
Q 2738 3769 2738 3413 
Q 2738 3175 2569 2928 
Q 2400 2681 1866 2347 
Q 2416 1922 2594 1678 
Q 2831 1359 2831 1006 
Q 2831 559 2490 242 
Q 2150 -75 1597 -75 
Q 994 -75 656 303 
Q 388 606 388 966 
Q 388 1247 577 1523 
Q 766 1800 1228 2134 
z
M 1719 2469 
Q 2094 2806 2194 3001 
Q 2294 3197 2294 3444 
Q 2294 3772 2109 3958 
Q 1925 4144 1606 4144 
Q 1288 4144 1088 3959 
Q 888 3775 888 3528 
Q 888 3366 970 3203 
Q 1053 3041 1206 2894 
L 1719 2469 
z
M 1375 2016 
Q 1116 1797 991 1539 
Q 866 1281 866 981 
Q 866 578 1086 336 
Q 1306 94 1647 94 
Q 1984 94 2187 284 
Q 2391 475 2391 747 
Q 2391 972 2272 1150 
Q 2050 1481 1375 2016 
z
" transform="scale(0.015625)"/>
      <path id="TimesNewRomanPSMT-2e" d="M 800 606 
Q 947 606 1047 504 
Q 1147 403 1147 259 
Q 1147 116 1045 14 
Q 944 -88 800 -88 
Q 656 -88 554 14 
Q 453 116 453 259 
Q 453 406 554 506 
Q 656 606 800 606 
z
" transform="scale(0.015625)"/>
     </defs>
     <use xlink:href="#TimesNewRomanPSMT-31"/>
     <use xlink:href="#TimesNewRomanPSMT-38" transform="translate(50 0)"/>
     <use xlink:href="#TimesNewRomanPSMT-2e" transform="translate(100 0)"/>
     <use xlink:href="#TimesNewRomanPSMT-30" transform="translate(125 0)"/>
     <use xlink:href="#TimesNewRomanPSMT-30" transform="translate(175 0)"/>
    </g>
   </g>
   <g id="text_12">
    <!-- 24.31 -->
    <g transform="translate(147.99744 75.9894) scale(0.09 -0.09)">
     <use xlink:href="#TimesNewRomanPSMT-32"/>
     <use xlink:href="#TimesNewRomanPSMT-34" transform="translate(50 0)"/>
     <use xlink:href="#TimesNewRomanPSMT-2e" transform="translate(100 0)"/>
     <use xlink:href="#TimesNewRomanPSMT-33" transform="translate(125 0)"/>
     <use xlink:href="#TimesNewRomanPSMT-31" transform="translate(175 0)"/>
    </g>
   </g>
   <g id="text_13">
    <!-- 23.41 -->
    <g transform="translate(221.77256 79.366787) scale(0.09 -0.09)">
     <use xlink:href="#TimesNewRomanPSMT-32"/>
     <use xlink:href="#TimesNewRomanPSMT-33" transform="translate(50 0)"/>
     <use xlink:href="#TimesNewRomanPSMT-2e" transform="translate(100 0)"/>
     <use xlink:href="#TimesNewRomanPSMT-34" transform="translate(125 0)"/>
     <use xlink:href="#TimesNewRomanPSMT-31" transform="translate(175 0)"/>
    </g>
   </g>
   <g id="text_14">
    <!-- 16.84 -->
    <g transform="translate(295.547679 108.933995) scale(0.09 -0.09)">
     <defs>
      <path id="TimesNewRomanPSMT-36" d="M 2869 4325 
L 2869 4209 
Q 2456 4169 2195 4045 
Q 1934 3922 1679 3669 
Q 1425 3416 1258 3105 
Q 1091 2794 978 2366 
Q 1428 2675 1881 2675 
Q 2316 2675 2634 2325 
Q 2953 1975 2953 1425 
Q 2953 894 2631 456 
Q 2244 -75 1606 -75 
Q 1172 -75 869 213 
Q 275 772 275 1663 
Q 275 2231 503 2743 
Q 731 3256 1154 3653 
Q 1578 4050 1965 4187 
Q 2353 4325 2688 4325 
L 2869 4325 
z
M 925 2138 
Q 869 1716 869 1456 
Q 869 1156 980 804 
Q 1091 453 1309 247 
Q 1469 100 1697 100 
Q 1969 100 2183 356 
Q 2397 613 2397 1088 
Q 2397 1622 2184 2012 
Q 1972 2403 1581 2403 
Q 1463 2403 1327 2353 
Q 1191 2303 925 2138 
z
" transform="scale(0.015625)"/>
     </defs>
     <use xlink:href="#TimesNewRomanPSMT-31"/>
     <use xlink:href="#TimesNewRomanPSMT-36" transform="translate(50 0)"/>
     <use xlink:href="#TimesNewRomanPSMT-2e" transform="translate(100 0)"/>
     <use xlink:href="#TimesNewRomanPSMT-38" transform="translate(125 0)"/>
     <use xlink:href="#TimesNewRomanPSMT-34" transform="translate(175 0)"/>
    </g>
   </g>
  </g>
 </g>
 <defs>
  <clipPath id="pd560318d53">
   <rect x="40.82" y="10.8" width="308.38" height="240.032"/>
  </clipPath>
 </defs>
</svg>
