<?xml version="1.0" encoding="utf-8" standalone="no"?>
<!DOCTYPE svg PUBLIC "-//W3C//DTD SVG 1.1//EN"
  "http://www.w3.org/Graphics/SVG/1.1/DTD/svg11.dtd">
<svg xmlns:xlink="http://www.w3.org/1999/xlink" width="648pt" height="360pt" viewBox="0 0 648 360" xmlns="http://www.w3.org/2000/svg" version="1.1">
 <metadata>
  <rdf:RDF xmlns:dc="http://purl.org/dc/elements/1.1/" xmlns:cc="http://creativecommons.org/ns#" xmlns:rdf="http://www.w3.org/1999/02/22-rdf-syntax-ns#">
   <cc:Work>
    <dc:type rdf:resource="http://purl.org/dc/dcmitype/StillImage"/>
    <dc:date>2025-08-06T14:26:11.028389</dc:date>
    <dc:format>image/svg+xml</dc:format>
    <dc:creator>
     <cc:Agent>
      <dc:title>Matplotlib v3.10.0, https://matplotlib.org/</dc:title>
     </cc:Agent>
    </dc:creator>
   </cc:Work>
  </rdf:RDF>
 </metadata>
 <defs>
  <style type="text/css">*{stroke-linejoin: round; stroke-linecap: butt}</style>
 </defs>
 <g id="figure_1">
  <g id="patch_1">
   <path d="M 0 360 
L 648 360 
L 648 0 
L 0 0 
z
" style="fill: #ffffff"/>
  </g>
  <g id="axes_1">
   <g id="patch_2">
    <path d="M 52.55 284.741751 
L 637.2 284.741751 
L 637.2 10.8 
L 52.55 10.8 
z
" style="fill: #ffffff"/>
   </g>
   <g id="FillBetweenPolyCollection_1">
    <defs>
     <path id="m362d9bb10a" d="M 117.465179 -90.229109 
L 114.095166 -90.229109 
L 113.59607 -92.589623 
L 112.98389 -94.950137 
L 112.243781 -97.310651 
L 111.361944 -99.671165 
L 110.326548 -102.031679 
L 109.128731 -104.392194 
L 107.763626 -106.752708 
L 106.231308 -109.113222 
L 104.537619 -111.473736 
L 102.694756 -113.83425 
L 100.721563 -116.194764 
L 98.643461 -118.555278 
L 96.491991 -120.915793 
L 94.303958 -123.276307 
L 92.120208 -125.636821 
L 89.98411 -127.997335 
L 87.939826 -130.357849 
L 86.030489 -132.718363 
L 84.29641 -135.078877 
L 82.773441 -137.439392 
L 81.491596 -139.799906 
L 80.474022 -142.16042 
L 79.736364 -144.520934 
L 79.286557 -146.881448 
L 79.125 -149.241962 
L 79.2451 -151.602476 
L 79.634078 -153.96299 
L 80.27397 -156.323505 
L 81.142732 -158.684019 
L 82.215346 -161.044533 
L 83.464873 -163.405047 
L 84.86339 -165.765561 
L 86.382774 -168.126075 
L 87.995321 -170.486589 
L 89.674219 -172.847104 
L 91.393872 -175.207618 
L 93.130132 -177.568132 
L 94.860446 -179.928646 
L 96.563976 -182.28916 
L 98.221703 -184.649674 
L 99.816538 -187.010188 
L 101.333463 -189.370703 
L 102.759685 -191.731217 
L 104.084806 -194.091731 
L 105.300989 -196.452245 
L 106.403102 -198.812759 
L 107.388812 -201.173273 
L 108.258603 -203.533787 
L 109.015706 -205.894301 
L 109.665917 -208.254816 
L 110.217312 -210.61533 
L 110.679838 -212.975844 
L 111.064822 -215.336358 
L 111.384401 -217.696872 
L 111.650917 -220.057386 
L 111.876309 -222.4179 
L 112.071539 -224.778415 
L 112.246106 -227.138929 
L 112.407656 -229.499443 
L 112.561741 -231.859957 
L 112.711723 -234.220471 
L 112.858835 -236.580985 
L 113.002389 -238.941499 
L 113.140108 -241.302014 
L 113.268562 -243.662528 
L 113.38366 -246.023042 
L 113.481172 -248.383556 
L 113.557232 -250.74407 
L 113.608792 -253.104584 
L 113.633997 -255.465098 
L 113.632444 -257.825612 
L 113.605332 -260.186127 
L 113.555466 -262.546641 
L 113.487149 -264.907155 
L 113.405946 -267.267669 
L 113.318359 -269.628183 
L 113.23142 -271.988697 
L 113.152259 -274.349211 
L 113.087646 -276.709726 
L 113.043582 -279.07024 
L 113.024928 -281.430754 
L 113.035136 -283.791268 
L 113.07607 -286.151782 
L 113.147955 -288.512296 
L 113.249429 -290.87281 
L 113.377707 -293.233325 
L 113.528827 -295.593839 
L 113.697962 -297.954353 
L 113.879763 -300.314867 
L 114.068708 -302.675381 
L 114.259428 -305.035895 
L 114.446991 -307.396409 
L 114.627115 -309.756923 
L 114.796321 -312.117438 
L 114.952009 -314.477952 
L 115.092463 -316.838466 
L 115.216807 -319.19898 
L 115.324902 -321.559494 
L 115.417228 -323.920008 
L 116.143117 -323.920008 
L 116.143117 -323.920008 
L 116.235443 -321.559494 
L 116.343538 -319.19898 
L 116.467881 -316.838466 
L 116.608336 -314.477952 
L 116.764024 -312.117438 
L 116.93323 -309.756923 
L 117.113354 -307.396409 
L 117.300916 -305.035895 
L 117.491637 -302.675381 
L 117.680582 -300.314867 
L 117.862383 -297.954353 
L 118.031518 -295.593839 
L 118.182638 -293.233325 
L 118.310916 -290.87281 
L 118.41239 -288.512296 
L 118.484275 -286.151782 
L 118.525209 -283.791268 
L 118.535416 -281.430754 
L 118.516763 -279.07024 
L 118.472699 -276.709726 
L 118.408086 -274.349211 
L 118.328924 -271.988697 
L 118.241986 -269.628183 
L 118.154399 -267.267669 
L 118.073196 -264.907155 
L 118.004879 -262.546641 
L 117.955013 -260.186127 
L 117.9279 -257.825612 
L 117.926348 -255.465098 
L 117.951553 -253.104584 
L 118.003113 -250.74407 
L 118.079173 -248.383556 
L 118.176685 -246.023042 
L 118.291783 -243.662528 
L 118.420237 -241.302014 
L 118.557956 -238.941499 
L 118.70151 -236.580985 
L 118.848622 -234.220471 
L 118.998603 -231.859957 
L 119.152689 -229.499443 
L 119.314239 -227.138929 
L 119.488805 -224.778415 
L 119.684036 -222.4179 
L 119.909428 -220.057386 
L 120.175944 -217.696872 
L 120.495523 -215.336358 
L 120.880507 -212.975844 
L 121.343033 -210.61533 
L 121.894428 -208.254816 
L 122.544639 -205.894301 
L 123.301742 -203.533787 
L 124.171532 -201.173273 
L 125.157243 -198.812759 
L 126.259356 -196.452245 
L 127.475539 -194.091731 
L 128.80066 -191.731217 
L 130.226882 -189.370703 
L 131.743807 -187.010188 
L 133.338642 -184.649674 
L 134.996369 -182.28916 
L 136.699899 -179.928646 
L 138.430213 -177.568132 
L 140.166473 -175.207618 
L 141.886126 -172.847104 
L 143.565023 -170.486589 
L 145.177571 -168.126075 
L 146.696954 -165.765561 
L 148.095472 -163.405047 
L 149.344999 -161.044533 
L 150.417613 -158.684019 
L 151.286374 -156.323505 
L 151.926267 -153.96299 
L 152.315245 -151.602476 
L 152.435345 -149.241962 
L 152.273788 -146.881448 
L 151.82398 -144.520934 
L 151.086323 -142.16042 
L 150.068749 -139.799906 
L 148.786904 -137.439392 
L 147.263935 -135.078877 
L 145.529856 -132.718363 
L 143.620519 -130.357849 
L 141.576235 -127.997335 
L 139.440137 -125.636821 
L 137.256387 -123.276307 
L 135.068354 -120.915793 
L 132.916884 -118.555278 
L 130.838782 -116.194764 
L 128.865588 -113.83425 
L 127.022726 -111.473736 
L 125.329037 -109.113222 
L 123.796719 -106.752708 
L 122.431613 -104.392194 
L 121.233797 -102.031679 
L 120.1984 -99.671165 
L 119.316563 -97.310651 
L 118.576455 -94.950137 
L 117.964275 -92.589623 
L 117.465179 -90.229109 
z
" style="stroke: #525252; stroke-width: 1.2"/>
    </defs>
    <g clip-path="url(#pd13e471e46)">
     <use xlink:href="#m362d9bb10a" x="0" y="360" style="fill: #bbbbbb; stroke: #525252; stroke-width: 1.2"/>
    </g>
   </g>
   <g id="FillBetweenPolyCollection_2">
    <defs>
     <path id="m2e17bfa42a" d="M 209.119217 -90.126101 
L 205.71699 -90.126101 
L 205.215096 -92.480686 
L 204.599807 -94.835271 
L 203.85624 -97.189856 
L 202.970539 -99.544441 
L 201.9308 -101.899026 
L 200.72808 -104.253611 
L 199.357418 -106.608195 
L 197.818818 -108.96278 
L 196.118075 -111.317365 
L 194.267403 -113.67195 
L 192.285747 -116.026535 
L 190.198745 -118.38112 
L 188.038284 -120.735705 
L 185.841658 -123.09029 
L 183.650335 -125.444875 
L 181.508411 -127.79946 
L 179.460833 -130.154044 
L 177.551506 -132.508629 
L 175.82142 -134.863214 
L 174.306921 -137.217799 
L 173.038243 -139.572384 
L 172.038411 -141.926969 
L 171.322555 -144.281554 
L 170.897691 -146.636139 
L 170.762931 -148.990724 
L 170.910092 -151.345308 
L 171.32462 -153.699893 
L 171.98673 -156.054478 
L 172.872669 -158.409063 
L 173.95598 -160.763648 
L 175.208695 -163.118233 
L 176.602378 -165.472818 
L 178.108972 -167.827403 
L 179.701429 -170.181988 
L 181.354137 -172.536573 
L 183.043155 -174.891157 
L 184.746307 -177.245742 
L 186.443176 -179.600327 
L 188.115052 -181.954912 
L 189.744871 -184.309497 
L 191.317185 -186.664082 
L 192.818181 -189.018667 
L 194.235767 -191.373252 
L 195.559701 -193.727837 
L 196.781771 -196.082421 
L 197.895982 -198.437006 
L 198.898731 -200.791591 
L 199.788932 -203.146176 
L 200.568069 -205.500761 
L 201.240143 -207.855346 
L 201.811514 -210.209931 
L 202.290609 -212.564516 
L 202.687533 -214.919101 
L 203.013572 -217.273686 
L 203.280633 -219.62827 
L 203.500651 -221.982855 
L 203.684996 -224.33744 
L 203.843939 -226.692025 
L 203.986192 -229.04661 
L 204.118574 -231.401195 
L 204.245814 -233.75578 
L 204.370511 -236.110365 
L 204.493247 -238.46495 
L 204.612838 -240.819534 
L 204.72671 -243.174119 
L 204.831361 -245.528704 
L 204.922861 -247.883289 
L 204.997379 -250.237874 
L 205.051659 -252.592459 
L 205.083442 -254.947044 
L 205.091779 -257.301629 
L 205.077227 -259.656214 
L 205.041914 -262.010799 
L 204.989468 -264.365383 
L 204.924817 -266.719968 
L 204.853888 -269.074553 
L 204.783218 -271.429138 
L 204.719528 -273.783723 
L 204.669269 -276.138308 
L 204.638205 -278.492893 
L 204.63104 -280.847478 
L 204.651142 -283.202063 
L 204.700357 -285.556647 
L 204.778944 -287.911232 
L 204.885628 -290.265817 
L 205.017745 -292.620402 
L 205.171489 -294.974987 
L 205.342206 -297.329572 
L 205.524731 -299.684157 
L 205.713728 -302.038742 
L 205.904008 -304.393327 
L 206.090799 -306.747912 
L 206.269963 -309.102496 
L 206.438138 -311.457081 
L 206.592816 -313.811666 
L 206.732348 -316.166251 
L 206.855896 -318.520836 
L 206.963343 -320.875421 
L 207.055173 -323.230006 
L 207.781034 -323.230006 
L 207.781034 -323.230006 
L 207.872864 -320.875421 
L 207.980311 -318.520836 
L 208.103859 -316.166251 
L 208.243391 -313.811666 
L 208.398069 -311.457081 
L 208.566244 -309.102496 
L 208.745408 -306.747912 
L 208.932199 -304.393327 
L 209.122479 -302.038742 
L 209.311476 -299.684157 
L 209.494001 -297.329572 
L 209.664718 -294.974987 
L 209.818461 -292.620402 
L 209.950579 -290.265817 
L 210.057263 -287.911232 
L 210.13585 -285.556647 
L 210.185065 -283.202063 
L 210.205167 -280.847478 
L 210.198002 -278.492893 
L 210.166938 -276.138308 
L 210.116679 -273.783723 
L 210.052988 -271.429138 
L 209.982319 -269.074553 
L 209.911389 -266.719968 
L 209.846738 -264.365383 
L 209.794293 -262.010799 
L 209.75898 -259.656214 
L 209.744428 -257.301629 
L 209.752765 -254.947044 
L 209.784548 -252.592459 
L 209.838828 -250.237874 
L 209.913346 -247.883289 
L 210.004846 -245.528704 
L 210.109497 -243.174119 
L 210.223369 -240.819534 
L 210.34296 -238.46495 
L 210.465695 -236.110365 
L 210.590393 -233.75578 
L 210.717633 -231.401195 
L 210.850015 -229.04661 
L 210.992268 -226.692025 
L 211.151211 -224.33744 
L 211.335556 -221.982855 
L 211.555574 -219.62827 
L 211.822635 -217.273686 
L 212.148674 -214.919101 
L 212.545598 -212.564516 
L 213.024693 -210.209931 
L 213.596063 -207.855346 
L 214.268138 -205.500761 
L 215.047275 -203.146176 
L 215.937476 -200.791591 
L 216.940225 -198.437006 
L 218.054436 -196.082421 
L 219.276506 -193.727837 
L 220.60044 -191.373252 
L 222.018025 -189.018667 
L 223.519022 -186.664082 
L 225.091336 -184.309497 
L 226.721155 -181.954912 
L 228.393031 -179.600327 
L 230.0899 -177.245742 
L 231.793052 -174.891157 
L 233.48207 -172.536573 
L 235.134778 -170.181988 
L 236.727235 -167.827403 
L 238.233829 -165.472818 
L 239.627512 -163.118233 
L 240.880227 -160.763648 
L 241.963538 -158.409063 
L 242.849477 -156.054478 
L 243.511587 -153.699893 
L 243.926115 -151.345308 
L 244.073276 -148.990724 
L 243.938516 -146.636139 
L 243.513652 -144.281554 
L 242.797796 -141.926969 
L 241.797964 -139.572384 
L 240.529286 -137.217799 
L 239.014787 -134.863214 
L 237.284701 -132.508629 
L 235.375374 -130.154044 
L 233.327796 -127.79946 
L 231.185872 -125.444875 
L 228.994549 -123.09029 
L 226.797923 -120.735705 
L 224.637462 -118.38112 
L 222.55046 -116.026535 
L 220.568804 -113.67195 
L 218.718132 -111.317365 
L 217.017389 -108.96278 
L 215.478788 -106.608195 
L 214.108127 -104.253611 
L 212.905406 -101.899026 
L 211.865668 -99.544441 
L 210.979967 -97.189856 
L 210.2364 -94.835271 
L 209.621111 -92.480686 
L 209.119217 -90.126101 
z
" style="stroke: #525252; stroke-width: 1.2"/>
    </defs>
    <g clip-path="url(#pd13e471e46)">
     <use xlink:href="#m2e17bfa42a" x="0" y="360" style="fill: #888888; stroke: #525252; stroke-width: 1.2"/>
    </g>
   </g>
   <g id="FillBetweenPolyCollection_3">
    <defs>
     <path id="ma1c19ae813" d="M 300.831352 -87.999252 
L 297.280717 -87.999252 
L 296.747187 -90.508946 
L 296.091026 -93.018641 
L 295.295974 -95.528335 
L 294.347013 -98.038029 
L 293.231454 -100.547724 
L 291.940122 -103.057418 
L 290.46856 -105.567113 
L 288.818166 -108.076807 
L 286.997163 -110.586501 
L 285.021276 -113.096196 
L 282.914051 -115.60589 
L 280.706716 -118.115585 
L 278.437537 -120.625279 
L 276.150691 -123.134973 
L 273.894656 -125.644668 
L 271.720242 -128.154362 
L 269.678356 -130.664057 
L 267.817677 -133.173751 
L 266.182394 -135.683445 
L 264.810189 -138.19314 
L 263.730597 -140.702834 
L 262.963878 -143.212529 
L 262.520441 -145.722223 
L 262.400862 -148.231917 
L 262.596445 -150.741612 
L 263.090249 -153.251306 
L 263.858461 -155.761 
L 264.871988 -158.270695 
L 266.098114 -160.780389 
L 267.502109 -163.290084 
L 269.04867 -165.799778 
L 270.703123 -168.309472 
L 272.432364 -170.819167 
L 274.205506 -173.328861 
L 275.99428 -175.838556 
L 277.773231 -178.34825 
L 279.519752 -180.857944 
L 281.214045 -183.367639 
L 282.839031 -185.877333 
L 284.380276 -188.387028 
L 285.825944 -190.896722 
L 287.166792 -193.406416 
L 288.396198 -195.916111 
L 289.510201 -198.425805 
L 290.507533 -200.9355 
L 291.389597 -203.445194 
L 292.160379 -205.954888 
L 292.826264 -208.464583 
L 293.395746 -210.974277 
L 293.879029 -213.483972 
L 294.287544 -215.993666 
L 294.633386 -218.50336 
L 294.928725 -221.013055 
L 295.185222 -223.522749 
L 295.41348 -226.032444 
L 295.622586 -228.542138 
L 295.819764 -231.051832 
L 296.010161 -233.561527 
L 296.196779 -236.071221 
L 296.380551 -238.580916 
L 296.56055 -241.09061 
L 296.734298 -243.600304 
L 296.89817 -246.109999 
L 297.047833 -248.619693 
L 297.178713 -251.129388 
L 297.286439 -253.639082 
L 297.36726 -256.148776 
L 297.418386 -258.658471 
L 297.438268 -261.168165 
L 297.426779 -263.67786 
L 297.385305 -266.187554 
L 297.316744 -268.697248 
L 297.225404 -271.206943 
L 297.116819 -273.716637 
L 296.997482 -276.226332 
L 296.874521 -278.736026 
L 296.755324 -281.24572 
L 296.64714 -283.755415 
L 296.556687 -286.265109 
L 296.489783 -288.774804 
L 296.451033 -291.284498 
L 296.443598 -293.794192 
L 296.469046 -296.303887 
L 296.527319 -298.813581 
L 296.616801 -301.323276 
L 296.734483 -303.83297 
L 296.876209 -306.342664 
L 297.036991 -308.852359 
L 297.211341 -311.362053 
L 297.393621 -313.871748 
L 297.578365 -316.381442 
L 297.760557 -318.891136 
L 297.935846 -321.400831 
L 298.100698 -323.910525 
L 298.252467 -326.42022 
L 298.389401 -328.929914 
L 298.510592 -331.439608 
L 298.615877 -333.949303 
L 298.705717 -336.458997 
L 299.406352 -336.458997 
L 299.406352 -336.458997 
L 299.496192 -333.949303 
L 299.601477 -331.439608 
L 299.722668 -328.929914 
L 299.859602 -326.42022 
L 300.011371 -323.910525 
L 300.176223 -321.400831 
L 300.351512 -318.891136 
L 300.533704 -316.381442 
L 300.718448 -313.871748 
L 300.900728 -311.362053 
L 301.075078 -308.852359 
L 301.23586 -306.342664 
L 301.377586 -303.83297 
L 301.495268 -301.323276 
L 301.58475 -298.813581 
L 301.643023 -296.303887 
L 301.668471 -293.794192 
L 301.661036 -291.284498 
L 301.622286 -288.774804 
L 301.555382 -286.265109 
L 301.464929 -283.755415 
L 301.356745 -281.24572 
L 301.237548 -278.736026 
L 301.114587 -276.226332 
L 300.99525 -273.716637 
L 300.886665 -271.206943 
L 300.795325 -268.697248 
L 300.726764 -266.187554 
L 300.68529 -263.67786 
L 300.673801 -261.168165 
L 300.693683 -258.658471 
L 300.744809 -256.148776 
L 300.82563 -253.639082 
L 300.933356 -251.129388 
L 301.064236 -248.619693 
L 301.213899 -246.109999 
L 301.377771 -243.600304 
L 301.551519 -241.09061 
L 301.731518 -238.580916 
L 301.91529 -236.071221 
L 302.101908 -233.561527 
L 302.292305 -231.051832 
L 302.489483 -228.542138 
L 302.698589 -226.032444 
L 302.926847 -223.522749 
L 303.183344 -221.013055 
L 303.478683 -218.50336 
L 303.824525 -215.993666 
L 304.23304 -213.483972 
L 304.716323 -210.974277 
L 305.285805 -208.464583 
L 305.95169 -205.954888 
L 306.722472 -203.445194 
L 307.604536 -200.9355 
L 308.601868 -198.425805 
L 309.715871 -195.916111 
L 310.945277 -193.406416 
L 312.286125 -190.896722 
L 313.731793 -188.387028 
L 315.273038 -185.877333 
L 316.898024 -183.367639 
L 318.592317 -180.857944 
L 320.338838 -178.34825 
L 322.117789 -175.838556 
L 323.906563 -173.328861 
L 325.679705 -170.819167 
L 327.408946 -168.309472 
L 329.063399 -165.799778 
L 330.609959 -163.290084 
L 332.013955 -160.780389 
L 333.240081 -158.270695 
L 334.253608 -155.761 
L 335.02182 -153.251306 
L 335.515624 -150.741612 
L 335.711207 -148.231917 
L 335.591628 -145.722223 
L 335.148191 -143.212529 
L 334.381472 -140.702834 
L 333.30188 -138.19314 
L 331.929675 -135.683445 
L 330.294392 -133.173751 
L 328.433713 -130.664057 
L 326.391827 -128.154362 
L 324.217413 -125.644668 
L 321.961378 -123.134973 
L 319.674532 -120.625279 
L 317.405353 -118.115585 
L 315.198018 -115.60589 
L 313.090793 -113.096196 
L 311.114906 -110.586501 
L 309.293902 -108.076807 
L 307.643509 -105.567113 
L 306.171947 -103.057418 
L 304.880615 -100.547724 
L 303.765056 -98.038029 
L 302.816095 -95.528335 
L 302.021043 -93.018641 
L 301.364882 -90.508946 
L 300.831352 -87.999252 
z
" style="stroke: #525252; stroke-width: 1.2"/>
    </defs>
    <g clip-path="url(#pd13e471e46)">
     <use xlink:href="#ma1c19ae813" x="0" y="360" style="fill: #aaaaaa; stroke: #525252; stroke-width: 1.2"/>
    </g>
   </g>
   <g id="FillBetweenPolyCollection_4">
    <defs>
     <path id="md861189814" d="M 392.519606 -87.710147 
L 388.868325 -87.710147 
L 388.32463 -90.225682 
L 387.657481 -92.741216 
L 386.850921 -95.256751 
L 385.890344 -97.772286 
L 384.763583 -100.287821 
L 383.462073 -102.803356 
L 381.982031 -105.318891 
L 380.325555 -107.834426 
L 378.501534 -110.349961 
L 376.526272 -112.865496 
L 374.423736 -115.381031 
L 372.225355 -117.896566 
L 369.969322 -120.4121 
L 367.699419 -122.927635 
L 365.463393 -125.44317 
L 363.310978 -127.958705 
L 361.291696 -130.47424 
L 359.452573 -132.989775 
L 357.83596 -135.50531 
L 356.477599 -138.020845 
L 355.40509 -140.53638 
L 354.636856 -143.051915 
L 354.181676 -145.567449 
L 354.038793 -148.082984 
L 354.198546 -150.598519 
L 354.643465 -153.114054 
L 355.349691 -155.629589 
L 356.288596 -158.145124 
L 357.42846 -160.660659 
L 358.736073 -163.176194 
L 360.178159 -165.691729 
L 361.722545 -168.207264 
L 363.339029 -170.722799 
L 364.999946 -173.238333 
L 366.68045 -175.753868 
L 368.358562 -178.269403 
L 370.015057 -180.784938 
L 371.633232 -183.300473 
L 373.198656 -185.816008 
L 374.698931 -188.331543 
L 376.123515 -190.847078 
L 377.463632 -193.362613 
L 378.712263 -195.878148 
L 379.864217 -198.393682 
L 380.916236 -200.909217 
L 381.867113 -203.424752 
L 382.717776 -205.940287 
L 383.471302 -208.455822 
L 384.132827 -210.971357 
L 384.709347 -213.486892 
L 385.209396 -216.002427 
L 385.642619 -218.517962 
L 386.019265 -221.033497 
L 386.349635 -223.549032 
L 386.643536 -226.064566 
L 386.909771 -228.580101 
L 387.155718 -231.095636 
L 387.387022 -233.611171 
L 387.607427 -236.126706 
L 387.818751 -238.642241 
L 388.021001 -241.157776 
L 388.212619 -243.673311 
L 388.390822 -246.188846 
L 388.55201 -248.704381 
L 388.692219 -251.219915 
L 388.807563 -253.73545 
L 388.894662 -256.250985 
L 388.95101 -258.76652 
L 388.975267 -261.282055 
L 388.967471 -263.79759 
L 388.929147 -266.313125 
L 388.863316 -268.82866 
L 388.774405 -271.344195 
L 388.668068 -273.85973 
L 388.550915 -276.375265 
L 388.430182 -278.890799 
L 388.313353 -281.406334 
L 388.207752 -283.921869 
L 388.12015 -286.437404 
L 388.05639 -288.952939 
L 388.021078 -291.468474 
L 388.017348 -293.984009 
L 388.046724 -296.499544 
L 388.109089 -299.015079 
L 388.202761 -301.530614 
L 388.324662 -304.046148 
L 388.470574 -306.561683 
L 388.635448 -309.077218 
L 388.813748 -311.592753 
L 388.999799 -314.108288 
L 389.188106 -316.623823 
L 389.373633 -319.139358 
L 389.552019 -321.654893 
L 389.719725 -324.170428 
L 389.874101 -326.685963 
L 390.013399 -329.201498 
L 390.136716 -331.717032 
L 390.243897 -334.232567 
L 390.33541 -336.748102 
L 391.052521 -336.748102 
L 391.052521 -336.748102 
L 391.144034 -334.232567 
L 391.251215 -331.717032 
L 391.374532 -329.201498 
L 391.51383 -326.685963 
L 391.668206 -324.170428 
L 391.835912 -321.654893 
L 392.014298 -319.139358 
L 392.199825 -316.623823 
L 392.388132 -314.108288 
L 392.574183 -311.592753 
L 392.752483 -309.077218 
L 392.917357 -306.561683 
L 393.063269 -304.046148 
L 393.18517 -301.530614 
L 393.278842 -299.015079 
L 393.341207 -296.499544 
L 393.370583 -293.984009 
L 393.366853 -291.468474 
L 393.331541 -288.952939 
L 393.267781 -286.437404 
L 393.180179 -283.921869 
L 393.074578 -281.406334 
L 392.957749 -278.890799 
L 392.837016 -276.375265 
L 392.719863 -273.85973 
L 392.613526 -271.344195 
L 392.524615 -268.82866 
L 392.458784 -266.313125 
L 392.42046 -263.79759 
L 392.412664 -261.282055 
L 392.436921 -258.76652 
L 392.493269 -256.250985 
L 392.580368 -253.73545 
L 392.695712 -251.219915 
L 392.835921 -248.704381 
L 392.997109 -246.188846 
L 393.175312 -243.673311 
L 393.36693 -241.157776 
L 393.56918 -238.642241 
L 393.780504 -236.126706 
L 394.000909 -233.611171 
L 394.232213 -231.095636 
L 394.47816 -228.580101 
L 394.744395 -226.064566 
L 395.038296 -223.549032 
L 395.368666 -221.033497 
L 395.745312 -218.517962 
L 396.178535 -216.002427 
L 396.678584 -213.486892 
L 397.255104 -210.971357 
L 397.916629 -208.455822 
L 398.670155 -205.940287 
L 399.520818 -203.424752 
L 400.471695 -200.909217 
L 401.523714 -198.393682 
L 402.675668 -195.878148 
L 403.924299 -193.362613 
L 405.264416 -190.847078 
L 406.689 -188.331543 
L 408.189275 -185.816008 
L 409.754699 -183.300473 
L 411.372874 -180.784938 
L 413.029369 -178.269403 
L 414.707481 -175.753868 
L 416.387985 -173.238333 
L 418.048902 -170.722799 
L 419.665386 -168.207264 
L 421.209772 -165.691729 
L 422.651858 -163.176194 
L 423.959471 -160.660659 
L 425.099335 -158.145124 
L 426.03824 -155.629589 
L 426.744466 -153.114054 
L 427.189385 -150.598519 
L 427.349138 -148.082984 
L 427.206255 -145.567449 
L 426.751075 -143.051915 
L 425.982841 -140.53638 
L 424.910332 -138.020845 
L 423.551971 -135.50531 
L 421.935358 -132.989775 
L 420.096235 -130.47424 
L 418.076953 -127.958705 
L 415.924538 -125.44317 
L 413.688512 -122.927635 
L 411.418609 -120.4121 
L 409.162576 -117.896566 
L 406.964195 -115.381031 
L 404.861659 -112.865496 
L 402.886397 -110.349961 
L 401.062376 -107.834426 
L 399.4059 -105.318891 
L 397.925858 -102.803356 
L 396.624348 -100.287821 
L 395.497587 -97.772286 
L 394.53701 -95.256751 
L 393.73045 -92.741216 
L 393.063301 -90.225682 
L 392.519606 -87.710147 
z
" style="stroke: #525252; stroke-width: 1.2"/>
    </defs>
    <g clip-path="url(#pd13e471e46)">
     <use xlink:href="#md861189814" x="0" y="360" style="fill: #cccccc; stroke: #525252; stroke-width: 1.2"/>
    </g>
   </g>
   <g id="FillBetweenPolyCollection_5">
    <defs>
     <path id="mabef9c833a" d="M 484.091199 -89.097425 
L 480.572594 -89.097425 
L 480.052169 -91.512842 
L 479.413916 -93.92826 
L 478.642396 -96.343677 
L 477.723295 -98.759094 
L 476.644407 -101.174511 
L 475.396715 -103.589929 
L 473.975484 -106.005346 
L 472.381308 -108.420763 
L 470.621001 -110.83618 
L 468.708257 -113.251598 
L 466.663981 -115.667015 
L 464.516238 -118.082432 
L 462.299756 -120.497849 
L 460.054994 -122.913267 
L 457.826789 -125.328684 
L 455.662649 -127.744101 
L 453.610794 -130.159518 
L 451.718067 -132.574936 
L 450.027859 -134.990353 
L 448.578179 -137.40577 
L 447.400026 -139.821187 
L 446.516138 -142.236605 
L 445.94023 -144.652022 
L 445.676724 -147.067439 
L 445.720992 -149.482856 
L 446.060057 -151.898274 
L 446.673671 -154.313691 
L 447.535688 -156.729108 
L 448.615595 -159.144525 
L 449.88011 -161.559942 
L 451.294716 -163.97536 
L 452.825056 -166.390777 
L 454.438116 -168.806194 
L 456.103142 -171.221611 
L 457.792279 -173.637029 
L 459.480945 -176.052446 
L 461.147951 -178.467863 
L 462.775422 -180.88328 
L 464.348573 -183.298698 
L 465.855389 -185.714115 
L 467.286279 -188.129532 
L 468.633742 -190.544949 
L 469.892086 -192.960367 
L 471.057232 -195.375784 
L 472.126594 -197.791201 
L 473.099044 -200.206618 
L 473.974927 -202.622036 
L 474.756106 -205.037453 
L 475.44599 -207.45287 
L 476.049524 -209.868287 
L 476.573103 -212.283705 
L 477.024394 -214.699122 
L 477.41206 -217.114539 
L 477.745395 -219.529956 
L 478.033898 -221.945374 
L 478.286799 -224.360791 
L 478.512602 -226.776208 
L 478.718658 -229.191625 
L 478.910833 -231.607043 
L 479.093272 -234.02246 
L 479.268312 -236.437877 
L 479.436515 -238.853294 
L 479.596856 -241.268712 
L 479.747011 -243.684129 
L 479.883746 -246.099546 
L 480.003368 -248.514963 
L 480.102185 -250.930381 
L 480.176964 -253.345798 
L 480.225333 -255.761215 
L 480.246108 -258.176632 
L 480.239513 -260.59205 
L 480.207292 -263.007467 
L 480.152697 -265.422884 
L 480.080354 -267.838301 
L 479.99603 -270.253719 
L 479.906305 -272.669136 
L 479.818183 -275.084553 
L 479.738673 -277.49997 
L 479.67436 -279.915388 
L 479.631013 -282.330805 
L 479.613249 -284.746222 
L 479.624283 -287.161639 
L 479.665772 -289.577057 
L 479.737776 -291.992474 
L 479.838826 -294.407891 
L 479.966082 -296.823308 
L 480.115586 -299.238726 
L 480.282565 -301.654143 
L 480.461759 -304.06956 
L 480.647764 -306.484977 
L 480.835343 -308.900395 
L 481.019692 -311.315812 
L 481.196653 -313.731229 
L 481.362851 -316.146646 
L 481.515767 -318.562064 
L 481.653743 -320.977481 
L 481.775932 -323.392898 
L 481.882206 -325.808315 
L 481.973037 -328.223733 
L 482.690756 -328.223733 
L 482.690756 -328.223733 
L 482.781587 -325.808315 
L 482.887861 -323.392898 
L 483.01005 -320.977481 
L 483.148026 -318.562064 
L 483.300942 -316.146646 
L 483.46714 -313.731229 
L 483.644101 -311.315812 
L 483.82845 -308.900395 
L 484.016029 -306.484977 
L 484.202034 -304.06956 
L 484.381228 -301.654143 
L 484.548207 -299.238726 
L 484.697711 -296.823308 
L 484.824967 -294.407891 
L 484.926017 -291.992474 
L 484.998022 -289.577057 
L 485.039511 -287.161639 
L 485.050544 -284.746222 
L 485.032781 -282.330805 
L 484.989433 -279.915388 
L 484.92512 -277.49997 
L 484.84561 -275.084553 
L 484.757488 -272.669136 
L 484.667763 -270.253719 
L 484.583439 -267.838301 
L 484.511097 -265.422884 
L 484.456501 -263.007467 
L 484.42428 -260.59205 
L 484.417685 -258.176632 
L 484.43846 -255.761215 
L 484.486829 -253.345798 
L 484.561608 -250.930381 
L 484.660425 -248.514963 
L 484.780047 -246.099546 
L 484.916783 -243.684129 
L 485.066937 -241.268712 
L 485.227278 -238.853294 
L 485.395482 -236.437877 
L 485.570521 -234.02246 
L 485.75296 -231.607043 
L 485.945135 -229.191625 
L 486.151191 -226.776208 
L 486.376994 -224.360791 
L 486.629895 -221.945374 
L 486.918398 -219.529956 
L 487.251733 -217.114539 
L 487.639399 -214.699122 
L 488.09069 -212.283705 
L 488.614269 -209.868287 
L 489.217804 -207.45287 
L 489.907687 -205.037453 
L 490.688866 -202.622036 
L 491.564749 -200.206618 
L 492.537199 -197.791201 
L 493.606561 -195.375784 
L 494.771707 -192.960367 
L 496.030051 -190.544949 
L 497.377514 -188.129532 
L 498.808404 -185.714115 
L 500.31522 -183.298698 
L 501.888371 -180.88328 
L 503.515842 -178.467863 
L 505.182848 -176.052446 
L 506.871514 -173.637029 
L 508.560651 -171.221611 
L 510.225677 -168.806194 
L 511.838737 -166.390777 
L 513.369077 -163.97536 
L 514.783683 -161.559942 
L 516.048198 -159.144525 
L 517.128105 -156.729108 
L 517.990122 -154.313691 
L 518.603736 -151.898274 
L 518.942801 -149.482856 
L 518.987069 -147.067439 
L 518.723563 -144.652022 
L 518.147655 -142.236605 
L 517.263767 -139.821187 
L 516.085614 -137.40577 
L 514.635935 -134.990353 
L 512.945726 -132.574936 
L 511.052999 -130.159518 
L 509.001144 -127.744101 
L 506.837004 -125.328684 
L 504.608799 -122.913267 
L 502.364037 -120.497849 
L 500.147555 -118.082432 
L 497.999812 -115.667015 
L 495.955537 -113.251598 
L 494.042792 -110.83618 
L 492.282485 -108.420763 
L 490.688309 -106.005346 
L 489.267078 -103.589929 
L 488.019386 -101.174511 
L 486.940498 -98.759094 
L 486.021397 -96.343677 
L 485.249877 -93.92826 
L 484.611624 -91.512842 
L 484.091199 -89.097425 
z
" style="stroke: #525252; stroke-width: 1.2"/>
    </defs>
    <g clip-path="url(#pd13e471e46)">
     <use xlink:href="#mabef9c833a" x="0" y="360" style="fill: #dddddd; stroke: #525252; stroke-width: 1.2"/>
    </g>
   </g>
   <g id="FillBetweenPolyCollection_6">
    <defs>
     <path id="m83e9960346" d="M 575.706291 -88.666139 
L 572.233365 -88.666139 
L 571.714559 -91.12231 
L 571.077034 -93.578481 
L 570.305021 -96.034651 
L 569.38388 -98.490822 
L 568.301122 -100.946993 
L 567.047521 -103.403164 
L 565.618251 -105.859335 
L 564.013975 -108.315506 
L 562.241759 -110.771677 
L 560.315753 -113.227848 
L 558.257522 -115.684019 
L 556.095954 -118.14019 
L 553.866728 -120.596361 
L 551.611293 -123.052532 
L 549.375428 -125.508702 
L 547.20743 -127.964873 
L 545.156054 -130.421044 
L 543.268337 -132.877215 
L 541.587463 -135.333386 
L 540.15082 -137.789557 
L 538.988399 -140.245728 
L 538.12163 -142.701899 
L 537.56274 -145.15807 
L 537.314655 -147.614241 
L 537.37142 -150.070412 
L 537.719078 -152.526583 
L 538.336906 -154.982753 
L 539.198882 -157.438924 
L 540.275264 -159.895095 
L 541.534136 -162.351266 
L 542.942838 -164.807437 
L 544.469171 -167.263608 
L 546.082342 -169.719779 
L 547.753629 -172.17595 
L 549.456771 -174.632121 
L 551.168125 -177.088292 
L 552.866643 -179.544463 
L 554.533734 -182.000634 
L 556.153068 -184.456804 
L 557.710383 -186.912975 
L 559.19334 -189.369146 
L 560.59145 -191.825317 
L 561.896072 -194.281488 
L 563.100493 -196.737659 
L 564.200053 -199.19383 
L 565.192273 -201.650001 
L 566.076976 -204.106172 
L 566.856338 -206.562343 
L 567.534838 -209.018514 
L 568.119108 -211.474685 
L 568.617651 -213.930855 
L 569.04044 -216.387026 
L 569.398424 -218.843197 
L 569.702962 -221.299368 
L 569.96524 -223.755539 
L 570.195693 -226.21171 
L 570.403499 -228.667881 
L 570.596169 -231.124052 
L 570.779266 -233.580223 
L 570.956275 -236.036394 
L 571.128619 -238.492565 
L 571.295831 -240.948736 
L 571.455844 -243.404906 
L 571.605386 -245.861077 
L 571.740442 -248.317248 
L 571.856741 -250.773419 
L 571.950239 -253.22959 
L 572.017568 -255.685761 
L 572.056408 -258.141932 
L 572.065775 -260.598103 
L 572.046204 -263.054274 
L 571.999809 -265.510445 
L 571.930238 -267.966616 
L 571.842514 -270.422787 
L 571.742769 -272.878957 
L 571.637916 -275.335128 
L 571.535244 -277.791299 
L 571.442002 -280.24747 
L 571.364972 -282.703641 
L 571.310074 -285.159812 
L 571.282039 -287.615983 
L 571.284148 -290.072154 
L 571.31809 -292.528325 
L 571.383913 -294.984496 
L 571.480098 -297.440667 
L 571.603719 -299.896838 
L 571.750702 -302.353008 
L 571.916128 -304.809179 
L 572.09458 -307.26535 
L 572.280485 -309.721521 
L 572.468439 -312.177692 
L 572.653482 -314.633863 
L 572.831318 -317.090034 
L 572.998453 -319.546205 
L 573.152279 -322.002376 
L 573.291072 -324.458547 
L 573.413944 -326.914718 
L 573.520748 -329.370889 
L 573.611955 -331.827059 
L 574.3277 -331.827059 
L 574.3277 -331.827059 
L 574.418907 -329.370889 
L 574.525711 -326.914718 
L 574.648583 -324.458547 
L 574.787376 -322.002376 
L 574.941202 -319.546205 
L 575.108338 -317.090034 
L 575.286173 -314.633863 
L 575.471216 -312.177692 
L 575.65917 -309.721521 
L 575.845076 -307.26535 
L 576.023527 -304.809179 
L 576.188953 -302.353008 
L 576.335936 -299.896838 
L 576.459558 -297.440667 
L 576.555742 -294.984496 
L 576.621565 -292.528325 
L 576.655507 -290.072154 
L 576.657616 -287.615983 
L 576.629581 -285.159812 
L 576.574684 -282.703641 
L 576.497653 -280.24747 
L 576.404411 -277.791299 
L 576.30174 -275.335128 
L 576.196886 -272.878957 
L 576.097141 -270.422787 
L 576.009417 -267.966616 
L 575.939847 -265.510445 
L 575.893451 -263.054274 
L 575.87388 -260.598103 
L 575.883247 -258.141932 
L 575.922087 -255.685761 
L 575.989416 -253.22959 
L 576.082914 -250.773419 
L 576.199213 -248.317248 
L 576.334269 -245.861077 
L 576.483812 -243.404906 
L 576.643824 -240.948736 
L 576.811036 -238.492565 
L 576.98338 -236.036394 
L 577.160389 -233.580223 
L 577.343486 -231.124052 
L 577.536157 -228.667881 
L 577.743962 -226.21171 
L 577.974415 -223.755539 
L 578.236693 -221.299368 
L 578.541231 -218.843197 
L 578.899215 -216.387026 
L 579.322004 -213.930855 
L 579.820547 -211.474685 
L 580.404818 -209.018514 
L 581.083317 -206.562343 
L 581.862679 -204.106172 
L 582.747383 -201.650001 
L 583.739603 -199.19383 
L 584.839162 -196.737659 
L 586.043584 -194.281488 
L 587.348205 -191.825317 
L 588.746315 -189.369146 
L 590.229273 -186.912975 
L 591.786587 -184.456804 
L 593.405921 -182.000634 
L 595.073012 -179.544463 
L 596.77153 -177.088292 
L 598.482884 -174.632121 
L 600.186026 -172.17595 
L 601.857313 -169.719779 
L 603.470484 -167.263608 
L 604.996817 -164.807437 
L 606.405519 -162.351266 
L 607.664392 -159.895095 
L 608.740773 -157.438924 
L 609.602749 -154.982753 
L 610.220577 -152.526583 
L 610.568235 -150.070412 
L 610.625 -147.614241 
L 610.376915 -145.15807 
L 609.818025 -142.701899 
L 608.951256 -140.245728 
L 607.788835 -137.789557 
L 606.352193 -135.333386 
L 604.671318 -132.877215 
L 602.783601 -130.421044 
L 600.732225 -127.964873 
L 598.564228 -125.508702 
L 596.328363 -123.052532 
L 594.072928 -120.596361 
L 591.843701 -118.14019 
L 589.682133 -115.684019 
L 587.623902 -113.227848 
L 585.697897 -110.771677 
L 583.925681 -108.315506 
L 582.321404 -105.859335 
L 580.892135 -103.403164 
L 579.638533 -100.946993 
L 578.555775 -98.490822 
L 577.634635 -96.034651 
L 576.862621 -93.578481 
L 576.225096 -91.12231 
L 575.706291 -88.666139 
z
" style="stroke: #525252; stroke-width: 1.2"/>
    </defs>
    <g clip-path="url(#pd13e471e46)">
     <use xlink:href="#m83e9960346" x="0" y="360" style="fill: #999999; stroke: #525252; stroke-width: 1.2"/>
    </g>
   </g>
   <g id="matplotlib.axis_1">
    <g id="xtick_1">
     <g id="line2d_1">
      <defs>
       <path id="m281d5a1eeb" d="M 0 0 
L 0 3.5 
" style="stroke: #000000; stroke-width: 0.8"/>
      </defs>
      <g>
       <use xlink:href="#m281d5a1eeb" x="115.780172" y="284.741751" style="stroke: #000000; stroke-width: 0.8"/>
      </g>
     </g>
     <g id="text_1">
      <!-- Mean Duration -->
      <g transform="translate(85.179166 335.250316) rotate(-30) scale(0.1 -0.1)">
       <defs>
        <path id="DejaVuSans-4d" d="M 628 4666 
L 1569 4666 
L 2759 1491 
L 3956 4666 
L 4897 4666 
L 4897 0 
L 4281 0 
L 4281 4097 
L 3078 897 
L 2444 897 
L 1241 4097 
L 1241 0 
L 628 0 
L 628 4666 
z
" transform="scale(0.015625)"/>
        <path id="DejaVuSans-65" d="M 3597 1894 
L 3597 1613 
L 953 1613 
Q 991 1019 1311 708 
Q 1631 397 2203 397 
Q 2534 397 2845 478 
Q 3156 559 3463 722 
L 3463 178 
Q 3153 47 2828 -22 
Q 2503 -91 2169 -91 
Q 1331 -91 842 396 
Q 353 884 353 1716 
Q 353 2575 817 3079 
Q 1281 3584 2069 3584 
Q 2775 3584 3186 3129 
Q 3597 2675 3597 1894 
z
M 3022 2063 
Q 3016 2534 2758 2815 
Q 2500 3097 2075 3097 
Q 1594 3097 1305 2825 
Q 1016 2553 972 2059 
L 3022 2063 
z
" transform="scale(0.015625)"/>
        <path id="DejaVuSans-61" d="M 2194 1759 
Q 1497 1759 1228 1600 
Q 959 1441 959 1056 
Q 959 750 1161 570 
Q 1363 391 1709 391 
Q 2188 391 2477 730 
Q 2766 1069 2766 1631 
L 2766 1759 
L 2194 1759 
z
M 3341 1997 
L 3341 0 
L 2766 0 
L 2766 531 
Q 2569 213 2275 61 
Q 1981 -91 1556 -91 
Q 1019 -91 701 211 
Q 384 513 384 1019 
Q 384 1609 779 1909 
Q 1175 2209 1959 2209 
L 2766 2209 
L 2766 2266 
Q 2766 2663 2505 2880 
Q 2244 3097 1772 3097 
Q 1472 3097 1187 3025 
Q 903 2953 641 2809 
L 641 3341 
Q 956 3463 1253 3523 
Q 1550 3584 1831 3584 
Q 2591 3584 2966 3190 
Q 3341 2797 3341 1997 
z
" transform="scale(0.015625)"/>
        <path id="DejaVuSans-6e" d="M 3513 2113 
L 3513 0 
L 2938 0 
L 2938 2094 
Q 2938 2591 2744 2837 
Q 2550 3084 2163 3084 
Q 1697 3084 1428 2787 
Q 1159 2491 1159 1978 
L 1159 0 
L 581 0 
L 581 3500 
L 1159 3500 
L 1159 2956 
Q 1366 3272 1645 3428 
Q 1925 3584 2291 3584 
Q 2894 3584 3203 3211 
Q 3513 2838 3513 2113 
z
" transform="scale(0.015625)"/>
        <path id="DejaVuSans-20" transform="scale(0.015625)"/>
        <path id="DejaVuSans-44" d="M 1259 4147 
L 1259 519 
L 2022 519 
Q 2988 519 3436 956 
Q 3884 1394 3884 2338 
Q 3884 3275 3436 3711 
Q 2988 4147 2022 4147 
L 1259 4147 
z
M 628 4666 
L 1925 4666 
Q 3281 4666 3915 4102 
Q 4550 3538 4550 2338 
Q 4550 1131 3912 565 
Q 3275 0 1925 0 
L 628 0 
L 628 4666 
z
" transform="scale(0.015625)"/>
        <path id="DejaVuSans-75" d="M 544 1381 
L 544 3500 
L 1119 3500 
L 1119 1403 
Q 1119 906 1312 657 
Q 1506 409 1894 409 
Q 2359 409 2629 706 
Q 2900 1003 2900 1516 
L 2900 3500 
L 3475 3500 
L 3475 0 
L 2900 0 
L 2900 538 
Q 2691 219 2414 64 
Q 2138 -91 1772 -91 
Q 1169 -91 856 284 
Q 544 659 544 1381 
z
M 1991 3584 
L 1991 3584 
z
" transform="scale(0.015625)"/>
        <path id="DejaVuSans-72" d="M 2631 2963 
Q 2534 3019 2420 3045 
Q 2306 3072 2169 3072 
Q 1681 3072 1420 2755 
Q 1159 2438 1159 1844 
L 1159 0 
L 581 0 
L 581 3500 
L 1159 3500 
L 1159 2956 
Q 1341 3275 1631 3429 
Q 1922 3584 2338 3584 
Q 2397 3584 2469 3576 
Q 2541 3569 2628 3553 
L 2631 2963 
z
" transform="scale(0.015625)"/>
        <path id="DejaVuSans-74" d="M 1172 4494 
L 1172 3500 
L 2356 3500 
L 2356 3053 
L 1172 3053 
L 1172 1153 
Q 1172 725 1289 603 
Q 1406 481 1766 481 
L 2356 481 
L 2356 0 
L 1766 0 
Q 1100 0 847 248 
Q 594 497 594 1153 
L 594 3053 
L 172 3053 
L 172 3500 
L 594 3500 
L 594 4494 
L 1172 4494 
z
" transform="scale(0.015625)"/>
        <path id="DejaVuSans-69" d="M 603 3500 
L 1178 3500 
L 1178 0 
L 603 0 
L 603 3500 
z
M 603 4863 
L 1178 4863 
L 1178 4134 
L 603 4134 
L 603 4863 
z
" transform="scale(0.015625)"/>
        <path id="DejaVuSans-6f" d="M 1959 3097 
Q 1497 3097 1228 2736 
Q 959 2375 959 1747 
Q 959 1119 1226 758 
Q 1494 397 1959 397 
Q 2419 397 2687 759 
Q 2956 1122 2956 1747 
Q 2956 2369 2687 2733 
Q 2419 3097 1959 3097 
z
M 1959 3584 
Q 2709 3584 3137 3096 
Q 3566 2609 3566 1747 
Q 3566 888 3137 398 
Q 2709 -91 1959 -91 
Q 1206 -91 779 398 
Q 353 888 353 1747 
Q 353 2609 779 3096 
Q 1206 3584 1959 3584 
z
" transform="scale(0.015625)"/>
       </defs>
       <use xlink:href="#DejaVuSans-4d"/>
       <use xlink:href="#DejaVuSans-65" transform="translate(86.279297 0)"/>
       <use xlink:href="#DejaVuSans-61" transform="translate(147.802734 0)"/>
       <use xlink:href="#DejaVuSans-6e" transform="translate(209.082031 0)"/>
       <use xlink:href="#DejaVuSans-20" transform="translate(272.460938 0)"/>
       <use xlink:href="#DejaVuSans-44" transform="translate(304.248047 0)"/>
       <use xlink:href="#DejaVuSans-75" transform="translate(381.25 0)"/>
       <use xlink:href="#DejaVuSans-72" transform="translate(444.628906 0)"/>
       <use xlink:href="#DejaVuSans-61" transform="translate(485.742188 0)"/>
       <use xlink:href="#DejaVuSans-74" transform="translate(547.021484 0)"/>
       <use xlink:href="#DejaVuSans-69" transform="translate(586.230469 0)"/>
       <use xlink:href="#DejaVuSans-6f" transform="translate(614.013672 0)"/>
       <use xlink:href="#DejaVuSans-6e" transform="translate(675.195312 0)"/>
      </g>
     </g>
    </g>
    <g id="xtick_2">
     <g id="line2d_2">
      <g>
       <use xlink:href="#m281d5a1eeb" x="207.418103" y="284.741751" style="stroke: #000000; stroke-width: 0.8"/>
      </g>
     </g>
     <g id="text_2">
      <!-- Causal (Inference) -->
      <g transform="translate(169.162244 344.089379) rotate(-30) scale(0.1 -0.1)">
       <defs>
        <path id="DejaVuSans-43" d="M 4122 4306 
L 4122 3641 
Q 3803 3938 3442 4084 
Q 3081 4231 2675 4231 
Q 1875 4231 1450 3742 
Q 1025 3253 1025 2328 
Q 1025 1406 1450 917 
Q 1875 428 2675 428 
Q 3081 428 3442 575 
Q 3803 722 4122 1019 
L 4122 359 
Q 3791 134 3420 21 
Q 3050 -91 2638 -91 
Q 1578 -91 968 557 
Q 359 1206 359 2328 
Q 359 3453 968 4101 
Q 1578 4750 2638 4750 
Q 3056 4750 3426 4639 
Q 3797 4528 4122 4306 
z
" transform="scale(0.015625)"/>
        <path id="DejaVuSans-73" d="M 2834 3397 
L 2834 2853 
Q 2591 2978 2328 3040 
Q 2066 3103 1784 3103 
Q 1356 3103 1142 2972 
Q 928 2841 928 2578 
Q 928 2378 1081 2264 
Q 1234 2150 1697 2047 
L 1894 2003 
Q 2506 1872 2764 1633 
Q 3022 1394 3022 966 
Q 3022 478 2636 193 
Q 2250 -91 1575 -91 
Q 1294 -91 989 -36 
Q 684 19 347 128 
L 347 722 
Q 666 556 975 473 
Q 1284 391 1588 391 
Q 1994 391 2212 530 
Q 2431 669 2431 922 
Q 2431 1156 2273 1281 
Q 2116 1406 1581 1522 
L 1381 1569 
Q 847 1681 609 1914 
Q 372 2147 372 2553 
Q 372 3047 722 3315 
Q 1072 3584 1716 3584 
Q 2034 3584 2315 3537 
Q 2597 3491 2834 3397 
z
" transform="scale(0.015625)"/>
        <path id="DejaVuSans-6c" d="M 603 4863 
L 1178 4863 
L 1178 0 
L 603 0 
L 603 4863 
z
" transform="scale(0.015625)"/>
        <path id="DejaVuSans-28" d="M 1984 4856 
Q 1566 4138 1362 3434 
Q 1159 2731 1159 2009 
Q 1159 1288 1364 580 
Q 1569 -128 1984 -844 
L 1484 -844 
Q 1016 -109 783 600 
Q 550 1309 550 2009 
Q 550 2706 781 3412 
Q 1013 4119 1484 4856 
L 1984 4856 
z
" transform="scale(0.015625)"/>
        <path id="DejaVuSans-49" d="M 628 4666 
L 1259 4666 
L 1259 0 
L 628 0 
L 628 4666 
z
" transform="scale(0.015625)"/>
        <path id="DejaVuSans-66" d="M 2375 4863 
L 2375 4384 
L 1825 4384 
Q 1516 4384 1395 4259 
Q 1275 4134 1275 3809 
L 1275 3500 
L 2222 3500 
L 2222 3053 
L 1275 3053 
L 1275 0 
L 697 0 
L 697 3053 
L 147 3053 
L 147 3500 
L 697 3500 
L 697 3744 
Q 697 4328 969 4595 
Q 1241 4863 1831 4863 
L 2375 4863 
z
" transform="scale(0.015625)"/>
        <path id="DejaVuSans-63" d="M 3122 3366 
L 3122 2828 
Q 2878 2963 2633 3030 
Q 2388 3097 2138 3097 
Q 1578 3097 1268 2742 
Q 959 2388 959 1747 
Q 959 1106 1268 751 
Q 1578 397 2138 397 
Q 2388 397 2633 464 
Q 2878 531 3122 666 
L 3122 134 
Q 2881 22 2623 -34 
Q 2366 -91 2075 -91 
Q 1284 -91 818 406 
Q 353 903 353 1747 
Q 353 2603 823 3093 
Q 1294 3584 2113 3584 
Q 2378 3584 2631 3529 
Q 2884 3475 3122 3366 
z
" transform="scale(0.015625)"/>
        <path id="DejaVuSans-29" d="M 513 4856 
L 1013 4856 
Q 1481 4119 1714 3412 
Q 1947 2706 1947 2009 
Q 1947 1309 1714 600 
Q 1481 -109 1013 -844 
L 513 -844 
Q 928 -128 1133 580 
Q 1338 1288 1338 2009 
Q 1338 2731 1133 3434 
Q 928 4138 513 4856 
z
" transform="scale(0.015625)"/>
       </defs>
       <use xlink:href="#DejaVuSans-43"/>
       <use xlink:href="#DejaVuSans-61" transform="translate(69.824219 0)"/>
       <use xlink:href="#DejaVuSans-75" transform="translate(131.103516 0)"/>
       <use xlink:href="#DejaVuSans-73" transform="translate(194.482422 0)"/>
       <use xlink:href="#DejaVuSans-61" transform="translate(246.582031 0)"/>
       <use xlink:href="#DejaVuSans-6c" transform="translate(307.861328 0)"/>
       <use xlink:href="#DejaVuSans-20" transform="translate(335.644531 0)"/>
       <use xlink:href="#DejaVuSans-28" transform="translate(367.431641 0)"/>
       <use xlink:href="#DejaVuSans-49" transform="translate(406.445312 0)"/>
       <use xlink:href="#DejaVuSans-6e" transform="translate(435.9375 0)"/>
       <use xlink:href="#DejaVuSans-66" transform="translate(499.316406 0)"/>
       <use xlink:href="#DejaVuSans-65" transform="translate(534.521484 0)"/>
       <use xlink:href="#DejaVuSans-72" transform="translate(596.044922 0)"/>
       <use xlink:href="#DejaVuSans-65" transform="translate(634.908203 0)"/>
       <use xlink:href="#DejaVuSans-6e" transform="translate(696.431641 0)"/>
       <use xlink:href="#DejaVuSans-63" transform="translate(759.810547 0)"/>
       <use xlink:href="#DejaVuSans-65" transform="translate(814.791016 0)"/>
       <use xlink:href="#DejaVuSans-29" transform="translate(876.314453 0)"/>
      </g>
     </g>
    </g>
    <g id="xtick_3">
     <g id="line2d_3">
      <g>
       <use xlink:href="#m281d5a1eeb" x="299.056034" y="284.741751" style="stroke: #000000; stroke-width: 0.8"/>
      </g>
     </g>
     <g id="text_3">
      <!-- Causal (Do) -->
      <g transform="translate(275.163342 327.504222) rotate(-30) scale(0.1 -0.1)">
       <use xlink:href="#DejaVuSans-43"/>
       <use xlink:href="#DejaVuSans-61" transform="translate(69.824219 0)"/>
       <use xlink:href="#DejaVuSans-75" transform="translate(131.103516 0)"/>
       <use xlink:href="#DejaVuSans-73" transform="translate(194.482422 0)"/>
       <use xlink:href="#DejaVuSans-61" transform="translate(246.582031 0)"/>
       <use xlink:href="#DejaVuSans-6c" transform="translate(307.861328 0)"/>
       <use xlink:href="#DejaVuSans-20" transform="translate(335.644531 0)"/>
       <use xlink:href="#DejaVuSans-28" transform="translate(367.431641 0)"/>
       <use xlink:href="#DejaVuSans-44" transform="translate(406.445312 0)"/>
       <use xlink:href="#DejaVuSans-6f" transform="translate(483.447266 0)"/>
       <use xlink:href="#DejaVuSans-29" transform="translate(544.628906 0)"/>
      </g>
     </g>
    </g>
    <g id="xtick_4">
     <g id="line2d_4">
      <g>
       <use xlink:href="#m281d5a1eeb" x="390.693966" y="284.741751" style="stroke: #000000; stroke-width: 0.8"/>
      </g>
     </g>
     <g id="text_4">
      <!-- Log-Normal- -->
      <g transform="translate(362.746759 328.953441) rotate(-30) scale(0.1 -0.1)">
       <defs>
        <path id="DejaVuSans-4c" d="M 628 4666 
L 1259 4666 
L 1259 531 
L 3531 531 
L 3531 0 
L 628 0 
L 628 4666 
z
" transform="scale(0.015625)"/>
        <path id="DejaVuSans-67" d="M 2906 1791 
Q 2906 2416 2648 2759 
Q 2391 3103 1925 3103 
Q 1463 3103 1205 2759 
Q 947 2416 947 1791 
Q 947 1169 1205 825 
Q 1463 481 1925 481 
Q 2391 481 2648 825 
Q 2906 1169 2906 1791 
z
M 3481 434 
Q 3481 -459 3084 -895 
Q 2688 -1331 1869 -1331 
Q 1566 -1331 1297 -1286 
Q 1028 -1241 775 -1147 
L 775 -588 
Q 1028 -725 1275 -790 
Q 1522 -856 1778 -856 
Q 2344 -856 2625 -561 
Q 2906 -266 2906 331 
L 2906 616 
Q 2728 306 2450 153 
Q 2172 0 1784 0 
Q 1141 0 747 490 
Q 353 981 353 1791 
Q 353 2603 747 3093 
Q 1141 3584 1784 3584 
Q 2172 3584 2450 3431 
Q 2728 3278 2906 2969 
L 2906 3500 
L 3481 3500 
L 3481 434 
z
" transform="scale(0.015625)"/>
        <path id="DejaVuSans-2d" d="M 313 2009 
L 1997 2009 
L 1997 1497 
L 313 1497 
L 313 2009 
z
" transform="scale(0.015625)"/>
        <path id="DejaVuSans-4e" d="M 628 4666 
L 1478 4666 
L 3547 763 
L 3547 4666 
L 4159 4666 
L 4159 0 
L 3309 0 
L 1241 3903 
L 1241 0 
L 628 0 
L 628 4666 
z
" transform="scale(0.015625)"/>
        <path id="DejaVuSans-6d" d="M 3328 2828 
Q 3544 3216 3844 3400 
Q 4144 3584 4550 3584 
Q 5097 3584 5394 3201 
Q 5691 2819 5691 2113 
L 5691 0 
L 5113 0 
L 5113 2094 
Q 5113 2597 4934 2840 
Q 4756 3084 4391 3084 
Q 3944 3084 3684 2787 
Q 3425 2491 3425 1978 
L 3425 0 
L 2847 0 
L 2847 2094 
Q 2847 2600 2669 2842 
Q 2491 3084 2119 3084 
Q 1678 3084 1418 2786 
Q 1159 2488 1159 1978 
L 1159 0 
L 581 0 
L 581 3500 
L 1159 3500 
L 1159 2956 
Q 1356 3278 1631 3431 
Q 1906 3584 2284 3584 
Q 2666 3584 2933 3390 
Q 3200 3197 3328 2828 
z
" transform="scale(0.015625)"/>
       </defs>
       <use xlink:href="#DejaVuSans-4c"/>
       <use xlink:href="#DejaVuSans-6f" transform="translate(53.962891 0)"/>
       <use xlink:href="#DejaVuSans-67" transform="translate(115.144531 0)"/>
       <use xlink:href="#DejaVuSans-2d" transform="translate(178.621094 0)"/>
       <use xlink:href="#DejaVuSans-4e" transform="translate(214.705078 0)"/>
       <use xlink:href="#DejaVuSans-6f" transform="translate(289.509766 0)"/>
       <use xlink:href="#DejaVuSans-72" transform="translate(350.691406 0)"/>
       <use xlink:href="#DejaVuSans-6d" transform="translate(390.054688 0)"/>
       <use xlink:href="#DejaVuSans-61" transform="translate(487.466797 0)"/>
       <use xlink:href="#DejaVuSans-6c" transform="translate(548.746094 0)"/>
       <use xlink:href="#DejaVuSans-2d" transform="translate(576.529297 0)"/>
      </g>
      <!-- Distribution -->
      <g transform="translate(369.612228 337.919781) rotate(-30) scale(0.1 -0.1)">
       <defs>
        <path id="DejaVuSans-62" d="M 3116 1747 
Q 3116 2381 2855 2742 
Q 2594 3103 2138 3103 
Q 1681 3103 1420 2742 
Q 1159 2381 1159 1747 
Q 1159 1113 1420 752 
Q 1681 391 2138 391 
Q 2594 391 2855 752 
Q 3116 1113 3116 1747 
z
M 1159 2969 
Q 1341 3281 1617 3432 
Q 1894 3584 2278 3584 
Q 2916 3584 3314 3078 
Q 3713 2572 3713 1747 
Q 3713 922 3314 415 
Q 2916 -91 2278 -91 
Q 1894 -91 1617 61 
Q 1341 213 1159 525 
L 1159 0 
L 581 0 
L 581 4863 
L 1159 4863 
L 1159 2969 
z
" transform="scale(0.015625)"/>
       </defs>
       <use xlink:href="#DejaVuSans-44"/>
       <use xlink:href="#DejaVuSans-69" transform="translate(77.001953 0)"/>
       <use xlink:href="#DejaVuSans-73" transform="translate(104.785156 0)"/>
       <use xlink:href="#DejaVuSans-74" transform="translate(156.884766 0)"/>
       <use xlink:href="#DejaVuSans-72" transform="translate(196.09375 0)"/>
       <use xlink:href="#DejaVuSans-69" transform="translate(237.207031 0)"/>
       <use xlink:href="#DejaVuSans-62" transform="translate(264.990234 0)"/>
       <use xlink:href="#DejaVuSans-75" transform="translate(328.466797 0)"/>
       <use xlink:href="#DejaVuSans-74" transform="translate(391.845703 0)"/>
       <use xlink:href="#DejaVuSans-69" transform="translate(431.054688 0)"/>
       <use xlink:href="#DejaVuSans-6f" transform="translate(458.837891 0)"/>
       <use xlink:href="#DejaVuSans-6e" transform="translate(520.019531 0)"/>
      </g>
     </g>
    </g>
    <g id="xtick_5">
     <g id="line2d_5">
      <g>
       <use xlink:href="#m281d5a1eeb" x="482.331897" y="284.741751" style="stroke: #000000; stroke-width: 0.8"/>
      </g>
     </g>
     <g id="text_5">
      <!-- Nonparametric- -->
      <g transform="translate(446.936872 337.553441) rotate(-30) scale(0.1 -0.1)">
       <defs>
        <path id="DejaVuSans-70" d="M 1159 525 
L 1159 -1331 
L 581 -1331 
L 581 3500 
L 1159 3500 
L 1159 2969 
Q 1341 3281 1617 3432 
Q 1894 3584 2278 3584 
Q 2916 3584 3314 3078 
Q 3713 2572 3713 1747 
Q 3713 922 3314 415 
Q 2916 -91 2278 -91 
Q 1894 -91 1617 61 
Q 1341 213 1159 525 
z
M 3116 1747 
Q 3116 2381 2855 2742 
Q 2594 3103 2138 3103 
Q 1681 3103 1420 2742 
Q 1159 2381 1159 1747 
Q 1159 1113 1420 752 
Q 1681 391 2138 391 
Q 2594 391 2855 752 
Q 3116 1113 3116 1747 
z
" transform="scale(0.015625)"/>
       </defs>
       <use xlink:href="#DejaVuSans-4e"/>
       <use xlink:href="#DejaVuSans-6f" transform="translate(74.804688 0)"/>
       <use xlink:href="#DejaVuSans-6e" transform="translate(135.986328 0)"/>
       <use xlink:href="#DejaVuSans-70" transform="translate(199.365234 0)"/>
       <use xlink:href="#DejaVuSans-61" transform="translate(262.841797 0)"/>
       <use xlink:href="#DejaVuSans-72" transform="translate(324.121094 0)"/>
       <use xlink:href="#DejaVuSans-61" transform="translate(365.234375 0)"/>
       <use xlink:href="#DejaVuSans-6d" transform="translate(426.513672 0)"/>
       <use xlink:href="#DejaVuSans-65" transform="translate(523.925781 0)"/>
       <use xlink:href="#DejaVuSans-74" transform="translate(585.449219 0)"/>
       <use xlink:href="#DejaVuSans-72" transform="translate(624.658203 0)"/>
       <use xlink:href="#DejaVuSans-69" transform="translate(665.771484 0)"/>
       <use xlink:href="#DejaVuSans-63" transform="translate(693.554688 0)"/>
       <use xlink:href="#DejaVuSans-2d" transform="translate(748.535156 0)"/>
      </g>
      <!-- Distribution -->
      <g transform="translate(461.250159 342.219781) rotate(-30) scale(0.1 -0.1)">
       <use xlink:href="#DejaVuSans-44"/>
       <use xlink:href="#DejaVuSans-69" transform="translate(77.001953 0)"/>
       <use xlink:href="#DejaVuSans-73" transform="translate(104.785156 0)"/>
       <use xlink:href="#DejaVuSans-74" transform="translate(156.884766 0)"/>
       <use xlink:href="#DejaVuSans-72" transform="translate(196.09375 0)"/>
       <use xlink:href="#DejaVuSans-69" transform="translate(237.207031 0)"/>
       <use xlink:href="#DejaVuSans-62" transform="translate(264.990234 0)"/>
       <use xlink:href="#DejaVuSans-75" transform="translate(328.466797 0)"/>
       <use xlink:href="#DejaVuSans-74" transform="translate(391.845703 0)"/>
       <use xlink:href="#DejaVuSans-69" transform="translate(431.054688 0)"/>
       <use xlink:href="#DejaVuSans-6f" transform="translate(458.837891 0)"/>
       <use xlink:href="#DejaVuSans-6e" transform="translate(520.019531 0)"/>
      </g>
     </g>
    </g>
    <g id="xtick_6">
     <g id="line2d_6">
      <g>
       <use xlink:href="#m281d5a1eeb" x="573.969828" y="284.741751" style="stroke: #000000; stroke-width: 0.8"/>
      </g>
     </g>
     <g id="text_6">
      <!-- Static Duration -->
      <g transform="translate(542.785607 335.923754) rotate(-30) scale(0.1 -0.1)">
       <defs>
        <path id="DejaVuSans-53" d="M 3425 4513 
L 3425 3897 
Q 3066 4069 2747 4153 
Q 2428 4238 2131 4238 
Q 1616 4238 1336 4038 
Q 1056 3838 1056 3469 
Q 1056 3159 1242 3001 
Q 1428 2844 1947 2747 
L 2328 2669 
Q 3034 2534 3370 2195 
Q 3706 1856 3706 1288 
Q 3706 609 3251 259 
Q 2797 -91 1919 -91 
Q 1588 -91 1214 -16 
Q 841 59 441 206 
L 441 856 
Q 825 641 1194 531 
Q 1563 422 1919 422 
Q 2459 422 2753 634 
Q 3047 847 3047 1241 
Q 3047 1584 2836 1778 
Q 2625 1972 2144 2069 
L 1759 2144 
Q 1053 2284 737 2584 
Q 422 2884 422 3419 
Q 422 4038 858 4394 
Q 1294 4750 2059 4750 
Q 2388 4750 2728 4690 
Q 3069 4631 3425 4513 
z
" transform="scale(0.015625)"/>
       </defs>
       <use xlink:href="#DejaVuSans-53"/>
       <use xlink:href="#DejaVuSans-74" transform="translate(63.476562 0)"/>
       <use xlink:href="#DejaVuSans-61" transform="translate(102.685547 0)"/>
       <use xlink:href="#DejaVuSans-74" transform="translate(163.964844 0)"/>
       <use xlink:href="#DejaVuSans-69" transform="translate(203.173828 0)"/>
       <use xlink:href="#DejaVuSans-63" transform="translate(230.957031 0)"/>
       <use xlink:href="#DejaVuSans-20" transform="translate(285.9375 0)"/>
       <use xlink:href="#DejaVuSans-44" transform="translate(317.724609 0)"/>
       <use xlink:href="#DejaVuSans-75" transform="translate(394.726562 0)"/>
       <use xlink:href="#DejaVuSans-72" transform="translate(458.105469 0)"/>
       <use xlink:href="#DejaVuSans-61" transform="translate(499.21875 0)"/>
       <use xlink:href="#DejaVuSans-74" transform="translate(560.498047 0)"/>
       <use xlink:href="#DejaVuSans-69" transform="translate(599.707031 0)"/>
       <use xlink:href="#DejaVuSans-6f" transform="translate(627.490234 0)"/>
       <use xlink:href="#DejaVuSans-6e" transform="translate(688.671875 0)"/>
      </g>
     </g>
    </g>
   </g>
   <g id="matplotlib.axis_2">
    <g id="ytick_1">
     <g id="line2d_7">
      <defs>
       <path id="mdaf6b1eab7" d="M 0 0 
L -3.5 0 
" style="stroke: #000000; stroke-width: 0.8"/>
      </defs>
      <g>
       <use xlink:href="#mdaf6b1eab7" x="52.55" y="262.096768" style="stroke: #000000; stroke-width: 0.8"/>
      </g>
     </g>
     <g id="text_7">
      <!-- 0 -->
      <g transform="translate(39.1875 265.895987) scale(0.1 -0.1)">
       <defs>
        <path id="DejaVuSans-30" d="M 2034 4250 
Q 1547 4250 1301 3770 
Q 1056 3291 1056 2328 
Q 1056 1369 1301 889 
Q 1547 409 2034 409 
Q 2525 409 2770 889 
Q 3016 1369 3016 2328 
Q 3016 3291 2770 3770 
Q 2525 4250 2034 4250 
z
M 2034 4750 
Q 2819 4750 3233 4129 
Q 3647 3509 3647 2328 
Q 3647 1150 3233 529 
Q 2819 -91 2034 -91 
Q 1250 -91 836 529 
Q 422 1150 422 2328 
Q 422 3509 836 4129 
Q 1250 4750 2034 4750 
z
" transform="scale(0.015625)"/>
       </defs>
       <use xlink:href="#DejaVuSans-30"/>
      </g>
     </g>
    </g>
    <g id="ytick_2">
     <g id="line2d_8">
      <g>
       <use xlink:href="#mdaf6b1eab7" x="52.55" y="230.376362" style="stroke: #000000; stroke-width: 0.8"/>
      </g>
     </g>
     <g id="text_8">
      <!-- 20 -->
      <g transform="translate(32.825 234.175581) scale(0.1 -0.1)">
       <defs>
        <path id="DejaVuSans-32" d="M 1228 531 
L 3431 531 
L 3431 0 
L 469 0 
L 469 531 
Q 828 903 1448 1529 
Q 2069 2156 2228 2338 
Q 2531 2678 2651 2914 
Q 2772 3150 2772 3378 
Q 2772 3750 2511 3984 
Q 2250 4219 1831 4219 
Q 1534 4219 1204 4116 
Q 875 4013 500 3803 
L 500 4441 
Q 881 4594 1212 4672 
Q 1544 4750 1819 4750 
Q 2544 4750 2975 4387 
Q 3406 4025 3406 3419 
Q 3406 3131 3298 2873 
Q 3191 2616 2906 2266 
Q 2828 2175 2409 1742 
Q 1991 1309 1228 531 
z
" transform="scale(0.015625)"/>
       </defs>
       <use xlink:href="#DejaVuSans-32"/>
       <use xlink:href="#DejaVuSans-30" transform="translate(63.623047 0)"/>
      </g>
     </g>
    </g>
    <g id="ytick_3">
     <g id="line2d_9">
      <g>
       <use xlink:href="#mdaf6b1eab7" x="52.55" y="198.655957" style="stroke: #000000; stroke-width: 0.8"/>
      </g>
     </g>
     <g id="text_9">
      <!-- 40 -->
      <g transform="translate(32.825 202.455176) scale(0.1 -0.1)">
       <defs>
        <path id="DejaVuSans-34" d="M 2419 4116 
L 825 1625 
L 2419 1625 
L 2419 4116 
z
M 2253 4666 
L 3047 4666 
L 3047 1625 
L 3713 1625 
L 3713 1100 
L 3047 1100 
L 3047 0 
L 2419 0 
L 2419 1100 
L 313 1100 
L 313 1709 
L 2253 4666 
z
" transform="scale(0.015625)"/>
       </defs>
       <use xlink:href="#DejaVuSans-34"/>
       <use xlink:href="#DejaVuSans-30" transform="translate(63.623047 0)"/>
      </g>
     </g>
    </g>
    <g id="ytick_4">
     <g id="line2d_10">
      <g>
       <use xlink:href="#mdaf6b1eab7" x="52.55" y="166.935552" style="stroke: #000000; stroke-width: 0.8"/>
      </g>
     </g>
     <g id="text_10">
      <!-- 60 -->
      <g transform="translate(32.825 170.73477) scale(0.1 -0.1)">
       <defs>
        <path id="DejaVuSans-36" d="M 2113 2584 
Q 1688 2584 1439 2293 
Q 1191 2003 1191 1497 
Q 1191 994 1439 701 
Q 1688 409 2113 409 
Q 2538 409 2786 701 
Q 3034 994 3034 1497 
Q 3034 2003 2786 2293 
Q 2538 2584 2113 2584 
z
M 3366 4563 
L 3366 3988 
Q 3128 4100 2886 4159 
Q 2644 4219 2406 4219 
Q 1781 4219 1451 3797 
Q 1122 3375 1075 2522 
Q 1259 2794 1537 2939 
Q 1816 3084 2150 3084 
Q 2853 3084 3261 2657 
Q 3669 2231 3669 1497 
Q 3669 778 3244 343 
Q 2819 -91 2113 -91 
Q 1303 -91 875 529 
Q 447 1150 447 2328 
Q 447 3434 972 4092 
Q 1497 4750 2381 4750 
Q 2619 4750 2861 4703 
Q 3103 4656 3366 4563 
z
" transform="scale(0.015625)"/>
       </defs>
       <use xlink:href="#DejaVuSans-36"/>
       <use xlink:href="#DejaVuSans-30" transform="translate(63.623047 0)"/>
      </g>
     </g>
    </g>
    <g id="ytick_5">
     <g id="line2d_11">
      <g>
       <use xlink:href="#mdaf6b1eab7" x="52.55" y="135.215146" style="stroke: #000000; stroke-width: 0.8"/>
      </g>
     </g>
     <g id="text_11">
      <!-- 80 -->
      <g transform="translate(32.825 139.014365) scale(0.1 -0.1)">
       <defs>
        <path id="DejaVuSans-38" d="M 2034 2216 
Q 1584 2216 1326 1975 
Q 1069 1734 1069 1313 
Q 1069 891 1326 650 
Q 1584 409 2034 409 
Q 2484 409 2743 651 
Q 3003 894 3003 1313 
Q 3003 1734 2745 1975 
Q 2488 2216 2034 2216 
z
M 1403 2484 
Q 997 2584 770 2862 
Q 544 3141 544 3541 
Q 544 4100 942 4425 
Q 1341 4750 2034 4750 
Q 2731 4750 3128 4425 
Q 3525 4100 3525 3541 
Q 3525 3141 3298 2862 
Q 3072 2584 2669 2484 
Q 3125 2378 3379 2068 
Q 3634 1759 3634 1313 
Q 3634 634 3220 271 
Q 2806 -91 2034 -91 
Q 1263 -91 848 271 
Q 434 634 434 1313 
Q 434 1759 690 2068 
Q 947 2378 1403 2484 
z
M 1172 3481 
Q 1172 3119 1398 2916 
Q 1625 2713 2034 2713 
Q 2441 2713 2670 2916 
Q 2900 3119 2900 3481 
Q 2900 3844 2670 4047 
Q 2441 4250 2034 4250 
Q 1625 4250 1398 4047 
Q 1172 3844 1172 3481 
z
" transform="scale(0.015625)"/>
       </defs>
       <use xlink:href="#DejaVuSans-38"/>
       <use xlink:href="#DejaVuSans-30" transform="translate(63.623047 0)"/>
      </g>
     </g>
    </g>
    <g id="ytick_6">
     <g id="line2d_12">
      <g>
       <use xlink:href="#mdaf6b1eab7" x="52.55" y="103.494741" style="stroke: #000000; stroke-width: 0.8"/>
      </g>
     </g>
     <g id="text_12">
      <!-- 100 -->
      <g transform="translate(26.4625 107.293959) scale(0.1 -0.1)">
       <defs>
        <path id="DejaVuSans-31" d="M 794 531 
L 1825 531 
L 1825 4091 
L 703 3866 
L 703 4441 
L 1819 4666 
L 2450 4666 
L 2450 531 
L 3481 531 
L 3481 0 
L 794 0 
L 794 531 
z
" transform="scale(0.015625)"/>
       </defs>
       <use xlink:href="#DejaVuSans-31"/>
       <use xlink:href="#DejaVuSans-30" transform="translate(63.623047 0)"/>
       <use xlink:href="#DejaVuSans-30" transform="translate(127.246094 0)"/>
      </g>
     </g>
    </g>
    <g id="ytick_7">
     <g id="line2d_13">
      <g>
       <use xlink:href="#mdaf6b1eab7" x="52.55" y="71.774335" style="stroke: #000000; stroke-width: 0.8"/>
      </g>
     </g>
     <g id="text_13">
      <!-- 120 -->
      <g transform="translate(26.4625 75.573554) scale(0.1 -0.1)">
       <use xlink:href="#DejaVuSans-31"/>
       <use xlink:href="#DejaVuSans-32" transform="translate(63.623047 0)"/>
       <use xlink:href="#DejaVuSans-30" transform="translate(127.246094 0)"/>
      </g>
     </g>
    </g>
    <g id="ytick_8">
     <g id="line2d_14">
      <g>
       <use xlink:href="#mdaf6b1eab7" x="52.55" y="40.05393" style="stroke: #000000; stroke-width: 0.8"/>
      </g>
     </g>
     <g id="text_14">
      <!-- 140 -->
      <g transform="translate(26.4625 43.853149) scale(0.1 -0.1)">
       <use xlink:href="#DejaVuSans-31"/>
       <use xlink:href="#DejaVuSans-34" transform="translate(63.623047 0)"/>
       <use xlink:href="#DejaVuSans-30" transform="translate(127.246094 0)"/>
      </g>
     </g>
    </g>
    <g id="text_15">
     <!-- Levenshtein Distance -->
     <g transform="translate(19.966875 212.329938) rotate(-90) scale(0.12 -0.12)">
      <defs>
       <path id="DejaVuSans-76" d="M 191 3500 
L 800 3500 
L 1894 563 
L 2988 3500 
L 3597 3500 
L 2284 0 
L 1503 0 
L 191 3500 
z
" transform="scale(0.015625)"/>
       <path id="DejaVuSans-68" d="M 3513 2113 
L 3513 0 
L 2938 0 
L 2938 2094 
Q 2938 2591 2744 2837 
Q 2550 3084 2163 3084 
Q 1697 3084 1428 2787 
Q 1159 2491 1159 1978 
L 1159 0 
L 581 0 
L 581 4863 
L 1159 4863 
L 1159 2956 
Q 1366 3272 1645 3428 
Q 1925 3584 2291 3584 
Q 2894 3584 3203 3211 
Q 3513 2838 3513 2113 
z
" transform="scale(0.015625)"/>
      </defs>
      <use xlink:href="#DejaVuSans-4c"/>
      <use xlink:href="#DejaVuSans-65" transform="translate(53.962891 0)"/>
      <use xlink:href="#DejaVuSans-76" transform="translate(115.486328 0)"/>
      <use xlink:href="#DejaVuSans-65" transform="translate(174.666016 0)"/>
      <use xlink:href="#DejaVuSans-6e" transform="translate(236.189453 0)"/>
      <use xlink:href="#DejaVuSans-73" transform="translate(299.568359 0)"/>
      <use xlink:href="#DejaVuSans-68" transform="translate(351.667969 0)"/>
      <use xlink:href="#DejaVuSans-74" transform="translate(415.046875 0)"/>
      <use xlink:href="#DejaVuSans-65" transform="translate(454.255859 0)"/>
      <use xlink:href="#DejaVuSans-69" transform="translate(515.779297 0)"/>
      <use xlink:href="#DejaVuSans-6e" transform="translate(543.5625 0)"/>
      <use xlink:href="#DejaVuSans-20" transform="translate(606.941406 0)"/>
      <use xlink:href="#DejaVuSans-44" transform="translate(638.728516 0)"/>
      <use xlink:href="#DejaVuSans-69" transform="translate(715.730469 0)"/>
      <use xlink:href="#DejaVuSans-73" transform="translate(743.513672 0)"/>
      <use xlink:href="#DejaVuSans-74" transform="translate(795.613281 0)"/>
      <use xlink:href="#DejaVuSans-61" transform="translate(834.822266 0)"/>
      <use xlink:href="#DejaVuSans-6e" transform="translate(896.101562 0)"/>
      <use xlink:href="#DejaVuSans-63" transform="translate(959.480469 0)"/>
      <use xlink:href="#DejaVuSans-65" transform="translate(1014.460938 0)"/>
     </g>
    </g>
   </g>
   <g id="line2d_15">
    <path d="M 81.850079 220.860241 
L 149.710266 220.860241 
" clip-path="url(#pd13e471e46)" style="fill: none; stroke-dasharray: 1.5,0.9; stroke-dashoffset: 0; stroke: #525252; stroke-width: 1.2"/>
   </g>
   <g id="line2d_16">
    <path d="M 79.229699 208.700223 
L 152.330646 208.700223 
" clip-path="url(#pd13e471e46)" style="fill: none; stroke-dasharray: 3,1.2; stroke-dashoffset: 0; stroke: #525252; stroke-width: 1.2"/>
   </g>
   <g id="line2d_17">
    <path d="M 87.889188 189.668773 
L 143.671157 189.668773 
" clip-path="url(#pd13e471e46)" style="fill: none; stroke-dasharray: 1.5,0.9; stroke-dashoffset: 0; stroke: #525252; stroke-width: 1.2"/>
   </g>
   <g id="line2d_18">
    <path d="M 173.271346 220.860241 
L 241.564861 220.860241 
" clip-path="url(#pd13e471e46)" style="fill: none; stroke-dasharray: 1.5,0.9; stroke-dashoffset: 0; stroke: #525252; stroke-width: 1.2"/>
   </g>
   <g id="line2d_19">
    <path d="M 170.857634 209.494026 
L 243.978573 209.494026 
" clip-path="url(#pd13e471e46)" style="fill: none; stroke-dasharray: 3,1.2; stroke-dashoffset: 0; stroke: #525252; stroke-width: 1.2"/>
   </g>
   <g id="line2d_20">
    <path d="M 180.085049 189.271475 
L 234.751158 189.271475 
" clip-path="url(#pd13e471e46)" style="fill: none; stroke-dasharray: 1.5,0.9; stroke-dashoffset: 0; stroke: #525252; stroke-width: 1.2"/>
   </g>
   <g id="line2d_21">
    <path d="M 264.402983 220.860241 
L 333.709086 220.860241 
" clip-path="url(#pd13e471e46)" style="fill: none; stroke-dasharray: 1.5,0.9; stroke-dashoffset: 0; stroke: #525252; stroke-width: 1.2"/>
   </g>
   <g id="line2d_22">
    <path d="M 262.418446 212.137129 
L 335.693623 212.137129 
" clip-path="url(#pd13e471e46)" style="fill: none; stroke-dasharray: 3,1.2; stroke-dashoffset: 0; stroke: #525252; stroke-width: 1.2"/>
   </g>
   <g id="line2d_23">
    <path d="M 272.004912 189.801206 
L 326.107157 189.801206 
" clip-path="url(#pd13e471e46)" style="fill: none; stroke-dasharray: 1.5,0.9; stroke-dashoffset: 0; stroke: #525252; stroke-width: 1.2"/>
   </g>
   <g id="line2d_24">
    <path d="M 356.000545 220.860241 
L 425.387386 220.860241 
" clip-path="url(#pd13e471e46)" style="fill: none; stroke-dasharray: 1.5,0.9; stroke-dashoffset: 0; stroke: #525252; stroke-width: 1.2"/>
   </g>
   <g id="line2d_25">
    <path d="M 354.192669 209.494026 
L 427.195262 209.494026 
" clip-path="url(#pd13e471e46)" style="fill: none; stroke-dasharray: 3,1.2; stroke-dashoffset: 0; stroke: #525252; stroke-width: 1.2"/>
   </g>
   <g id="line2d_26">
    <path d="M 363.172761 189.535944 
L 418.21517 189.535944 
" clip-path="url(#pd13e471e46)" style="fill: none; stroke-dasharray: 1.5,0.9; stroke-dashoffset: 0; stroke: #525252; stroke-width: 1.2"/>
   </g>
   <g id="line2d_27">
    <path d="M 447.732402 220.860241 
L 516.931391 220.860241 
" clip-path="url(#pd13e471e46)" style="fill: none; stroke-dasharray: 1.5,0.9; stroke-dashoffset: 0; stroke: #525252; stroke-width: 1.2"/>
   </g>
   <g id="line2d_28">
    <path d="M 445.790474 210.022171 
L 518.873319 210.022171 
" clip-path="url(#pd13e471e46)" style="fill: none; stroke-dasharray: 3,1.2; stroke-dashoffset: 0; stroke: #525252; stroke-width: 1.2"/>
   </g>
   <g id="line2d_29">
    <path d="M 455.034013 190.329351 
L 509.62978 190.329351 
" clip-path="url(#pd13e471e46)" style="fill: none; stroke-dasharray: 1.5,0.9; stroke-dashoffset: 0; stroke: #525252; stroke-width: 1.2"/>
   </g>
   <g id="line2d_30">
    <path d="M 539.511816 220.860241 
L 608.427839 220.860241 
" clip-path="url(#pd13e471e46)" style="fill: none; stroke-dasharray: 1.5,0.9; stroke-dashoffset: 0; stroke: #525252; stroke-width: 1.2"/>
   </g>
   <g id="line2d_31">
    <path d="M 537.36928 210.022171 
L 610.570375 210.022171 
" clip-path="url(#pd13e471e46)" style="fill: none; stroke-dasharray: 3,1.2; stroke-dashoffset: 0; stroke: #525252; stroke-width: 1.2"/>
   </g>
   <g id="line2d_32">
    <path d="M 547.217954 188.611294 
L 600.721701 188.611294 
" clip-path="url(#pd13e471e46)" style="fill: none; stroke-dasharray: 1.5,0.9; stroke-dashoffset: 0; stroke: #525252; stroke-width: 1.2"/>
   </g>
   <g id="LineCollection_1">
    <path d="M 115.780172 233.813735 
L 115.780172 160.167536 
" clip-path="url(#pd13e471e46)" style="fill: none; stroke: #000000; stroke-width: 1.5"/>
    <path d="M 207.418103 233.973559 
L 207.418103 160.139828 
" clip-path="url(#pd13e471e46)" style="fill: none; stroke: #000000; stroke-width: 1.5"/>
    <path d="M 299.056034 236.359149 
L 299.056034 158.653352 
" clip-path="url(#pd13e471e46)" style="fill: none; stroke: #000000; stroke-width: 1.5"/>
    <path d="M 390.693966 235.802661 
L 390.693966 157.57053 
" clip-path="url(#pd13e471e46)" style="fill: none; stroke: #000000; stroke-width: 1.5"/>
    <path d="M 482.331897 234.976082 
L 482.331897 159.269579 
" clip-path="url(#pd13e471e46)" style="fill: none; stroke: #000000; stroke-width: 1.5"/>
    <path d="M 573.969828 235.13085 
L 573.969828 158.639163 
" clip-path="url(#pd13e471e46)" style="fill: none; stroke: #000000; stroke-width: 1.5"/>
   </g>
   <g id="line2d_33">
    <defs>
     <path id="mc0a4acf776" d="M 5 0 
L -5 -0 
" style="stroke: #000000"/>
    </defs>
    <g clip-path="url(#pd13e471e46)">
     <use xlink:href="#mc0a4acf776" x="115.780172" y="233.813735" style="stroke: #000000"/>
     <use xlink:href="#mc0a4acf776" x="207.418103" y="233.973559" style="stroke: #000000"/>
     <use xlink:href="#mc0a4acf776" x="299.056034" y="236.359149" style="stroke: #000000"/>
     <use xlink:href="#mc0a4acf776" x="390.693966" y="235.802661" style="stroke: #000000"/>
     <use xlink:href="#mc0a4acf776" x="482.331897" y="234.976082" style="stroke: #000000"/>
     <use xlink:href="#mc0a4acf776" x="573.969828" y="235.13085" style="stroke: #000000"/>
    </g>
   </g>
   <g id="line2d_34">
    <g clip-path="url(#pd13e471e46)">
     <use xlink:href="#mc0a4acf776" x="115.780172" y="160.167536" style="stroke: #000000"/>
     <use xlink:href="#mc0a4acf776" x="207.418103" y="160.139828" style="stroke: #000000"/>
     <use xlink:href="#mc0a4acf776" x="299.056034" y="158.653352" style="stroke: #000000"/>
     <use xlink:href="#mc0a4acf776" x="390.693966" y="157.57053" style="stroke: #000000"/>
     <use xlink:href="#mc0a4acf776" x="482.331897" y="159.269579" style="stroke: #000000"/>
     <use xlink:href="#mc0a4acf776" x="573.969828" y="158.639163" style="stroke: #000000"/>
    </g>
   </g>
   <g id="line2d_35">
    <defs>
     <path id="mdff9f32a66" d="M 0 3 
C 0.795609 3 1.55874 2.683901 2.12132 2.12132 
C 2.683901 1.55874 3 0.795609 3 0 
C 3 -0.795609 2.683901 -1.55874 2.12132 -2.12132 
C 1.55874 -2.683901 0.795609 -3 0 -3 
C -0.795609 -3 -1.55874 -2.683901 -2.12132 -2.12132 
C -2.683901 -1.55874 -3 -0.795609 -3 0 
C -3 0.795609 -2.683901 1.55874 -2.12132 2.12132 
C -1.55874 2.683901 -0.795609 3 0 3 
z
" style="stroke: #000000"/>
    </defs>
    <g clip-path="url(#pd13e471e46)">
     <use xlink:href="#mdff9f32a66" x="115.780172" y="196.990636" style="stroke: #000000"/>
     <use xlink:href="#mdff9f32a66" x="207.418103" y="197.056693" style="stroke: #000000"/>
     <use xlink:href="#mdff9f32a66" x="299.056034" y="197.506251" style="stroke: #000000"/>
     <use xlink:href="#mdff9f32a66" x="390.693966" y="196.686596" style="stroke: #000000"/>
     <use xlink:href="#mdff9f32a66" x="482.331897" y="197.12283" style="stroke: #000000"/>
     <use xlink:href="#mdff9f32a66" x="573.969828" y="196.885007" style="stroke: #000000"/>
    </g>
   </g>
   <g id="patch_3">
    <path d="M 52.55 284.741751 
L 52.55 10.8 
" style="fill: none; stroke: #000000; stroke-width: 0.8; stroke-linejoin: miter; stroke-linecap: square"/>
   </g>
   <g id="patch_4">
    <path d="M 637.2 284.741751 
L 637.2 10.8 
" style="fill: none; stroke: #000000; stroke-width: 0.8; stroke-linejoin: miter; stroke-linecap: square"/>
   </g>
   <g id="patch_5">
    <path d="M 52.55 284.741751 
L 637.2 284.741751 
" style="fill: none; stroke: #000000; stroke-width: 0.8; stroke-linejoin: miter; stroke-linecap: square"/>
   </g>
   <g id="patch_6">
    <path d="M 52.55 10.8 
L 637.2 10.8 
" style="fill: none; stroke: #000000; stroke-width: 0.8; stroke-linejoin: miter; stroke-linecap: square"/>
   </g>
   <g id="text_16">
    <!-- 41.05 -->
    <g transform="translate(102.897516 157.502807) scale(0.09 -0.09)">
     <defs>
      <path id="DejaVuSans-2e" d="M 684 794 
L 1344 794 
L 1344 0 
L 684 0 
L 684 794 
z
" transform="scale(0.015625)"/>
      <path id="DejaVuSans-35" d="M 691 4666 
L 3169 4666 
L 3169 4134 
L 1269 4134 
L 1269 2991 
Q 1406 3038 1543 3061 
Q 1681 3084 1819 3084 
Q 2600 3084 3056 2656 
Q 3513 2228 3513 1497 
Q 3513 744 3044 326 
Q 2575 -91 1722 -91 
Q 1428 -91 1123 -41 
Q 819 9 494 109 
L 494 744 
Q 775 591 1075 516 
Q 1375 441 1709 441 
Q 2250 441 2565 725 
Q 2881 1009 2881 1497 
Q 2881 1984 2565 2268 
Q 2250 2553 1709 2553 
Q 1456 2553 1204 2497 
Q 953 2441 691 2322 
L 691 4666 
z
" transform="scale(0.015625)"/>
     </defs>
     <use xlink:href="#DejaVuSans-34"/>
     <use xlink:href="#DejaVuSans-31" transform="translate(63.623047 0)"/>
     <use xlink:href="#DejaVuSans-2e" transform="translate(127.246094 0)"/>
     <use xlink:href="#DejaVuSans-30" transform="translate(159.033203 0)"/>
     <use xlink:href="#DejaVuSans-35" transform="translate(222.65625 0)"/>
    </g>
   </g>
   <g id="text_17">
    <!-- 41.01 -->
    <g transform="translate(194.535447 157.475099) scale(0.09 -0.09)">
     <use xlink:href="#DejaVuSans-34"/>
     <use xlink:href="#DejaVuSans-31" transform="translate(63.623047 0)"/>
     <use xlink:href="#DejaVuSans-2e" transform="translate(127.246094 0)"/>
     <use xlink:href="#DejaVuSans-30" transform="translate(159.033203 0)"/>
     <use xlink:href="#DejaVuSans-31" transform="translate(222.65625 0)"/>
    </g>
   </g>
   <g id="text_18">
    <!-- 40.72 -->
    <g transform="translate(286.173378 155.988623) scale(0.09 -0.09)">
     <defs>
      <path id="DejaVuSans-37" d="M 525 4666 
L 3525 4666 
L 3525 4397 
L 1831 0 
L 1172 0 
L 2766 4134 
L 525 4134 
L 525 4666 
z
" transform="scale(0.015625)"/>
     </defs>
     <use xlink:href="#DejaVuSans-34"/>
     <use xlink:href="#DejaVuSans-30" transform="translate(63.623047 0)"/>
     <use xlink:href="#DejaVuSans-2e" transform="translate(127.246094 0)"/>
     <use xlink:href="#DejaVuSans-37" transform="translate(159.033203 0)"/>
     <use xlink:href="#DejaVuSans-32" transform="translate(222.65625 0)"/>
    </g>
   </g>
   <g id="text_19">
    <!-- 41.24 -->
    <g transform="translate(377.811309 154.905801) scale(0.09 -0.09)">
     <use xlink:href="#DejaVuSans-34"/>
     <use xlink:href="#DejaVuSans-31" transform="translate(63.623047 0)"/>
     <use xlink:href="#DejaVuSans-2e" transform="translate(127.246094 0)"/>
     <use xlink:href="#DejaVuSans-32" transform="translate(159.033203 0)"/>
     <use xlink:href="#DejaVuSans-34" transform="translate(222.65625 0)"/>
    </g>
   </g>
   <g id="text_20">
    <!-- 40.97 -->
    <g transform="translate(469.44924 156.604851) scale(0.09 -0.09)">
     <defs>
      <path id="DejaVuSans-39" d="M 703 97 
L 703 672 
Q 941 559 1184 500 
Q 1428 441 1663 441 
Q 2288 441 2617 861 
Q 2947 1281 2994 2138 
Q 2813 1869 2534 1725 
Q 2256 1581 1919 1581 
Q 1219 1581 811 2004 
Q 403 2428 403 3163 
Q 403 3881 828 4315 
Q 1253 4750 1959 4750 
Q 2769 4750 3195 4129 
Q 3622 3509 3622 2328 
Q 3622 1225 3098 567 
Q 2575 -91 1691 -91 
Q 1453 -91 1209 -44 
Q 966 3 703 97 
z
M 1959 2075 
Q 2384 2075 2632 2365 
Q 2881 2656 2881 3163 
Q 2881 3666 2632 3958 
Q 2384 4250 1959 4250 
Q 1534 4250 1286 3958 
Q 1038 3666 1038 3163 
Q 1038 2656 1286 2365 
Q 1534 2075 1959 2075 
z
" transform="scale(0.015625)"/>
     </defs>
     <use xlink:href="#DejaVuSans-34"/>
     <use xlink:href="#DejaVuSans-30" transform="translate(63.623047 0)"/>
     <use xlink:href="#DejaVuSans-2e" transform="translate(127.246094 0)"/>
     <use xlink:href="#DejaVuSans-39" transform="translate(159.033203 0)"/>
     <use xlink:href="#DejaVuSans-37" transform="translate(222.65625 0)"/>
    </g>
   </g>
   <g id="text_21">
    <!-- 41.12 -->
    <g transform="translate(561.087171 155.974435) scale(0.09 -0.09)">
     <use xlink:href="#DejaVuSans-34"/>
     <use xlink:href="#DejaVuSans-31" transform="translate(63.623047 0)"/>
     <use xlink:href="#DejaVuSans-2e" transform="translate(127.246094 0)"/>
     <use xlink:href="#DejaVuSans-31" transform="translate(159.033203 0)"/>
     <use xlink:href="#DejaVuSans-32" transform="translate(222.65625 0)"/>
    </g>
   </g>
   <g id="legend_1">
    <g id="patch_7">
     <path d="M 626.2 23.8 
L 630.2 23.8 
Q 632.2 23.8 632.2 21.8 
L 632.2 17.8 
Q 632.2 15.8 630.2 15.8 
L 626.2 15.8 
Q 624.2 15.8 624.2 17.8 
L 624.2 21.8 
Q 624.2 23.8 626.2 23.8 
z
" style="fill: #ffffff; opacity: 0.8; stroke: #cccccc; stroke-linejoin: miter"/>
    </g>
   </g>
  </g>
 </g>
 <defs>
  <clipPath id="pd13e471e46">
   <rect x="52.55" y="10.8" width="584.65" height="273.941751"/>
  </clipPath>
 </defs>
</svg>
